<svg xmlns="http://www.w3.org/2000/svg" viewBox="0 0 144 144"><path d="M141,111a6.0176,6.0176,0,0,1-6,6H9a6.0176,6.0176,0,0,1-6-6V21a6.0176,6.0176,0,0,1,6-6H135a6.0176,6.0176,0,0,1,6,6Z" style="fill:none;stroke:#000;stroke-linejoin:round;stroke-width:6px"/><line x1="42" y1="135" x2="102" y2="135" style="fill:none;stroke:#000;stroke-linecap:round;stroke-linejoin:round;stroke-width:6px"/><line x1="63" y1="117" x2="63" y2="135" style="fill:none;stroke:#000;stroke-linejoin:round;stroke-width:6px"/><line x1="81" y1="117" x2="81" y2="135" style="fill:none;stroke:#000;stroke-linejoin:round;stroke-width:6px"/><path d="M39.4,50.6C39.6,46.1,41.6,39,51,39c9.9,0,11.6,8,11.6,12.4S60.9,63.9,51,63.9" style="fill:none;stroke:#000;stroke-linecap:round;stroke-linejoin:round;stroke-width:6px"/><path d="M39.4,77.1c.2,4.5,2.3,11.7,11.6,11.7,9.9,0,11.6-8,11.6-12.4S60.9,64,51,64" style="fill:none;stroke:#000;stroke-linecap:round;stroke-linejoin:round;stroke-width:6px"/><path d="M81,87.7V39h8.8c10.8,0,16.6,10.9,16.6,24.4s-5.8,24.4-16.6,24.4L81,87.7Z" style="fill:none;stroke:#000;stroke-linecap:round;stroke-linejoin:round;stroke-width:6px"/><rect width="144" height="144" style="fill:none"/></svg>