<svg xmlns="http://www.w3.org/2000/svg" viewBox="0 0 144 144"><polyline points="114.3 138 120.1 108.6 90.2 111.2" style="fill:none;stroke:#000;stroke-linecap:round;stroke-linejoin:round;stroke-width:6px"/><polyline points="28.8 18.7 23 48.1 52.9 45.5" style="fill:none;stroke:#000;stroke-linecap:round;stroke-linejoin:round;stroke-width:6px"/><path d="M119.9,108.4A57.0434,57.0434,0,0,1,15,77.4a51.3949,51.3949,0,0,1,.7-8.8" style="fill:none;stroke:#000;stroke-linecap:round;stroke-linejoin:round;stroke-width:6px"/><path d="M23.1,48.2A56.9664,56.9664,0,0,1,129,77.4a53.4055,53.4055,0,0,1-1.9,14.5" style="fill:none;stroke:#000;stroke-linecap:round;stroke-linejoin:round;stroke-width:6px"/><path d="M48.6,68.4c.2-3.3,1.7-8.4,8.4-8.4,7.2,0,8.4,5.8,8.4,9s-1.2,9-8.4,9" style="fill:none;stroke:#000;stroke-linecap:round;stroke-linejoin:round;stroke-width:6px"/><path d="M48.6,87.6c.2,3.3,1.7,8.4,8.4,8.4,7.2,0,8.4-5.8,8.4-9s-1.2-9-8.4-9" style="fill:none;stroke:#000;stroke-linecap:round;stroke-linejoin:round;stroke-width:6px"/><path d="M81,96V60h4.6c7.8,0,12,8.3,12,18s-4.2,18-12,18Z" style="fill:none;stroke:#000;stroke-linecap:round;stroke-linejoin:round;stroke-width:6px"/><rect width="144" height="144" style="fill:none"/></svg>