<svg xmlns="http://www.w3.org/2000/svg" viewBox="0 0 144 144"><polygon points="141 141 90.3 141 72 111 54 141 3 141 3 75 141 75 141 141" style="fill:none;stroke:#000;stroke-linejoin:round;stroke-width:6px"/><path d="M3,75,36.6,19.6a8.988,8.988,0,0,1,12.3-3.1" style="fill:none;stroke:#000;stroke-linecap:round;stroke-linejoin:round;stroke-width:6px"/><path d="M141,75,107.4,19.6a8.988,8.988,0,0,0-12.3-3.1" style="fill:none;stroke:#000;stroke-linecap:round;stroke-linejoin:round;stroke-width:6px"/><polygon points="15 87 15 129 41.9 129 59.1 99 54 87 15 87" style="fill:none;stroke:#000;stroke-linecap:round;stroke-linejoin:round;stroke-width:6px"/><polygon points="129 87 129 129 102.1 129 84.9 99 90 87 129 87" style="fill:none;stroke:#000;stroke-linecap:round;stroke-linejoin:round;stroke-width:6px"/><rect width="144" height="144" style="fill:none"/></svg>