<svg xmlns="http://www.w3.org/2000/svg" viewBox="0 0 144 144"><path d="M15,95.9v21c0,6,6,12.1,33,12.1H66c27,0,33-6.1,33-12.1v-48c0-6-6-11.9-33-11.9H48c-27,0-33,5.9-33,11.9Z" style="fill:none;stroke:#000;stroke-linejoin:round;stroke-width:6px"/><path d="M96,45V42a26.7,26.7,0,0,0-48,0v3" style="fill:none;stroke:#000;stroke-linecap:round;stroke-linejoin:round;stroke-width:6px"/><line x1="60" y1="29.9" x2="39" y2="8.9" style="fill:none;stroke:#000;stroke-linecap:round;stroke-linejoin:round;stroke-width:6px"/><line x1="84" y1="29.9" x2="105" y2="8.9" style="fill:none;stroke:#000;stroke-linecap:round;stroke-linejoin:round;stroke-width:6px"/><path d="M141,123a18.0529,18.0529,0,0,1-18,18H21A18.0529,18.0529,0,0,1,3,123V62.9a18.0529,18.0529,0,0,1,18-18H123a18.0529,18.0529,0,0,1,18,18Z" style="fill:none;stroke:#000;stroke-linejoin:round;stroke-width:6px"/><path d="M129,71.9a8.9626,8.9626,0,0,1-9,9h0a8.9626,8.9626,0,0,1-9-9h0a8.9626,8.9626,0,0,1,9-9h0a9.0264,9.0264,0,0,1,9,9Z" style="fill:none;stroke:#000;stroke-linejoin:round;stroke-width:6px"/><path d="M129,101.9a8.9626,8.9626,0,0,1-9,9h0a8.9626,8.9626,0,0,1-9-9h0a8.9626,8.9626,0,0,1,9-9h0a9.0264,9.0264,0,0,1,9,9Z" style="fill:none;stroke:#000;stroke-linejoin:round;stroke-width:6px"/><path d="M81,117H33a24,24,0,0,1,48,0Z" style="fill:none;stroke:#000;stroke-linecap:round;stroke-linejoin:round;stroke-width:6px"/><circle cx="57" cy="81" r="12" style="fill:none;stroke:#000;stroke-linecap:round;stroke-linejoin:round;stroke-width:6px"/><rect width="144" height="144" style="fill:none"/></svg>