<svg xmlns="http://www.w3.org/2000/svg" viewBox="0 0 144 144"><polyline points="111 87 111 39 66 39 60.4 27 33 27 33 87" style="fill:none;stroke:#000;stroke-linecap:round;stroke-linejoin:round;stroke-width:6px"/><polyline points="105 27 72 27 66.4 15 39 15" style="fill:none;stroke:#000;stroke-linecap:round;stroke-linejoin:round;stroke-width:6px"/><polyline points="99 15 78 15 72.4 3 45 3" style="fill:none;stroke:#000;stroke-linecap:round;stroke-linejoin:round;stroke-width:6px"/><path d="M141,141H3V99H48v6a12.0353,12.0353,0,0,0,12,12H87a12.0353,12.0353,0,0,0,12-12V99h42Z" style="fill:none;stroke:#000;stroke-linecap:round;stroke-linejoin:round;stroke-width:6px"/><polyline points="3 99 24 63 33 63" style="fill:none;stroke:#000;stroke-linecap:round;stroke-linejoin:round;stroke-width:6px"/><polyline points="111 63 120 63 141 99" style="fill:none;stroke:#000;stroke-linecap:round;stroke-linejoin:round;stroke-width:6px"/><path d="M80.8,69.9a10.1048,10.1048,0,0,0,4.5-8.4,10.2,10.2,0,1,0-20.4,0,10.1048,10.1048,0,0,0,4.5,8.4C62.2,72.3,57,76.8,57,87H93.2C93.2,76.8,88,72.3,80.8,69.9Z" style="fill:none;stroke:#000;stroke-linecap:round;stroke-linejoin:round;stroke-width:6px"/><rect width="144" height="144" style="fill:none"/></svg>