<svg xmlns="http://www.w3.org/2000/svg" viewBox="0 0 144 144"><path d="M120.4,50.4C120.4,20.2,91.9,3,66,3,33.8,3,9,28.2,9,60.4c0,18.3,6,35.4,24,46.1V141H93V120.1c12,.1,18.1-.8,22.3-5,5.4-5.4,4.9-28.1,4.9-28.1s5.1.2,9,0a4.2967,4.2967,0,0,0,3.4-1.8c.8-1.1.5-2.4.6-3.8C133.9,71.8,120.4,55.2,120.4,50.4Z" style="fill:none;stroke:#000;stroke-linejoin:round;stroke-width:6px"/><path d="M66,87.3S96,65.7,96,49.7c0-18.5-24.5-24.3-30-1.8-5.5-22.5-30-16.6-30,1.8C36,65.7,66,87.3,66,87.3Z" style="fill:none;stroke:#000;stroke-linejoin:round;stroke-width:6px"/><rect width="144" height="144" style="fill:none"/></svg>