<svg xmlns="http://www.w3.org/2000/svg" viewBox="0 0 144 144"><path d="M47.5,129H93V102c0-3-18-12-33-18V72s6-2.1,6-15c4.2,0,6-12,.2-12,0-1.3,4.6-7.8,2.8-15-3-12-33-12-36,0-12.6-2.6-3,13.3-3,15-6,0-4.2,12,0,12,0,12.9,6,15,6,15V84C21,90,3,99,3,102v27Z" style="fill:none;stroke:#000;stroke-linejoin:round;stroke-width:6px"/><path d="M108,129h33V102c0-3-15-7.2-27-12V81s6-1.7,6-12c3.3,0,4.6-12,0-12,0-1,4.9-6.4,3-12-3-9-27-9-30,0-10.1-2.1-3,10.6-3,12-4.8,0-3.3,12,0,12,0,10.3,6,12,6,12v6" style="fill:none;stroke:#000;stroke-linecap:round;stroke-linejoin:round;stroke-width:6px"/><rect width="144" height="144" style="fill:none"/></svg>