<svg xmlns="http://www.w3.org/2000/svg" viewBox="0 0 144 144"><path d="M57,135h54s0-20.1-2.8-28.7C105.7,98.8,87.8,93.8,69,86.8v-15s6-3.7,6-18c6,0,6-12,0-12,0-1.4,6.5-10.1,4.5-18-2.8-11.4-36.9-11.4-39.8,0C25.5,20.9,33,39.9,33,41.8v12c0,14.3,12,18,12,18v15C28.3,93.1,8.3,98.9,5.8,106.3,3,114.9,3,135,3,135Z" style="fill:none;stroke:#000;stroke-linejoin:round;stroke-width:6px"/><path d="M126,135h15s0-20.1-2.8-28.7c-2.5-7.5-20.4-15.5-39.2-22.5v-9s6-3.7,6-18c6,0,6-12,0-12,0-1.4,6.5-11.2,4.5-19.1-1.3-5.3-12.8-13.8-21.8-7.8" style="fill:none;stroke:#000;stroke-linecap:round;stroke-linejoin:round;stroke-width:6px"/><rect width="144" height="144" style="fill:none"/></svg>