<svg xmlns="http://www.w3.org/2000/svg" viewBox="0 0 144 144"><circle cx="72" cy="24" r="15" style="fill:none;stroke:#000;stroke-linejoin:round;stroke-width:6px"/><circle cx="114" cy="30" r="9" style="fill:none;stroke:#000;stroke-linejoin:round;stroke-width:6px"/><circle cx="30" cy="30" r="9" style="fill:none;stroke:#000;stroke-linejoin:round;stroke-width:6px"/><path d="M102,112.2c23.1,1.9,39,6.1,39,10.8,0,6.6-30.9,12-69,12S3,129.6,3,123c0-4.7,15.8-8.8,38.7-10.8" style="fill:none;stroke:#000;stroke-linecap:round;stroke-linejoin:round;stroke-width:6px"/><path d="M87,105H57V66a15,15,0,0,1,30,0Z" style="fill:none;stroke:#000;stroke-linejoin:round;stroke-width:6px"/><path d="M123,93H105V60a9,9,0,0,1,18,0Z" style="fill:none;stroke:#000;stroke-linejoin:round;stroke-width:6px"/><path d="M39,93H21V60a9,9,0,0,1,18,0Z" style="fill:none;stroke:#000;stroke-linejoin:round;stroke-width:6px"/><rect width="144" height="144" style="fill:none"/></svg>