<svg xmlns="http://www.w3.org/2000/svg" viewBox="0 0 144 144"><path d="M3,57V75c0,4.9,1.1,9,6,9v27H27V84c4.9,0,6-4.1,6-9V57Z" style="fill:none;stroke:#000;stroke-linejoin:round;stroke-width:6px"/><path d="M111,57V75c0,4.9,1,9,6,9v27h18V84c4.9,0,6-4.1,6-9V57Z" style="fill:none;stroke:#000;stroke-linejoin:round;stroke-width:6px"/><path d="M51,57H93V87A12.0353,12.0353,0,0,1,81,99v36H63V99A12.0353,12.0353,0,0,1,51,87Z" style="fill:none;stroke:#000;stroke-linejoin:round;stroke-width:6px"/><path d="M27,36a8.9626,8.9626,0,0,1-9,9h0a8.9626,8.9626,0,0,1-9-9H9a8.9626,8.9626,0,0,1,9-9h0a8.9626,8.9626,0,0,1,9,9Z" style="fill:none;stroke:#000;stroke-linejoin:round;stroke-width:6px"/><path d="M135,36a8.9626,8.9626,0,0,1-9,9h0a8.9626,8.9626,0,0,1-9-9h0a8.9626,8.9626,0,0,1,9-9h0a8.9626,8.9626,0,0,1,9,9Z" style="fill:none;stroke:#000;stroke-linejoin:round;stroke-width:6px"/><path d="M87,30A14.98,14.98,0,0,1,72,45h0A14.98,14.98,0,0,1,57,30h0A14.98,14.98,0,0,1,72,15h0A14.98,14.98,0,0,1,87,30Z" style="fill:none;stroke:#000;stroke-linejoin:round;stroke-width:6px"/><rect width="144" height="144" style="fill:none"/></svg>