<svg xmlns="http://www.w3.org/2000/svg" viewBox="0 0 144 144"><path d="M24,39.7V48L8.8,52.4A8.3669,8.3669,0,0,0,3,60v3H36" style="fill:none;stroke:#000;stroke-linejoin:round;stroke-width:6px"/><path d="M42,39.5V48l15.2,4.4A8.3669,8.3669,0,0,1,63,60v3H30" style="fill:none;stroke:#000;stroke-linejoin:round;stroke-width:6px"/><ellipse cx="33" cy="22.6" rx="18" ry="19.6" style="fill:none;stroke:#000;stroke-linejoin:round;stroke-width:6px"/><path d="M50.8,19.2c-3,3-11.6,2.9-14.8-3.2-6,6-15.8,6-20.6,2.6" style="fill:none;stroke:#000;stroke-linejoin:round;stroke-width:6px"/><path d="M102,39.7V48L86.8,52.4A8.3669,8.3669,0,0,0,81,60v3h33" style="fill:none;stroke:#000;stroke-linejoin:round;stroke-width:6px"/><path d="M120,39.6V48l15.2,4.4A8.3669,8.3669,0,0,1,141,60v3H108" style="fill:none;stroke:#000;stroke-linejoin:round;stroke-width:6px"/><ellipse cx="111" cy="22.6" rx="18" ry="19.6" style="fill:none;stroke:#000;stroke-linejoin:round;stroke-width:6px"/><path d="M128.7,19.2c-3,3-11.5,2.9-14.7-3.1-6,6-15.8,6-20.6,2.6" style="fill:none;stroke:#000;stroke-linejoin:round;stroke-width:6px"/><path d="M63,117.7V126l-15.2,4.4A8.3669,8.3669,0,0,0,42,138v3H75" style="fill:none;stroke:#000;stroke-linejoin:round;stroke-width:6px"/><path d="M81,117.7V126l15.2,4.4A8.3669,8.3669,0,0,1,102,138v3H69" style="fill:none;stroke:#000;stroke-linejoin:round;stroke-width:6px"/><ellipse cx="72" cy="100.6" rx="18" ry="19.6" style="fill:none;stroke:#000;stroke-linejoin:round;stroke-width:6px"/><path d="M89.7,97c-3,3-11.5,3-14.7-3-6,6-15.8,6-20.6,2.6" style="fill:none;stroke:#000;stroke-linejoin:round;stroke-width:6px"/><line x1="24" y1="75" x2="39" y2="90" style="fill:none;stroke:#000;stroke-linecap:round;stroke-linejoin:round;stroke-width:6px"/><line x1="120" y1="75" x2="105" y2="90" style="fill:none;stroke:#000;stroke-linecap:round;stroke-linejoin:round;stroke-width:6px"/><rect width="144" height="144" style="fill:none"/></svg>