<svg xmlns="http://www.w3.org/2000/svg" viewBox="0 0 144 144"><path d="M60,90s-9-3-9-18c-5,0-5-12,0-12,0-2-9-24,6-21,3-12,36-12,39,0,2.1,8.3-3,19.5-3,21,5,0,5,12,0,12,0,15-9,18-9,18v15c14.9,5.6,29.6,10.2,37.1,15.5a69.05,69.05,0,1,0-98.1,0C31,115,46.7,110,60,105Z" style="fill:none;stroke:#000;stroke-linejoin:round;stroke-width:6px"/><path d="M23,120.5a68.9305,68.9305,0,0,0,98.1,0" style="fill:none;stroke:#000;stroke-linejoin:round;stroke-width:6px"/><rect width="144" height="144" style="fill:none"/></svg>