<svg xmlns="http://www.w3.org/2000/svg" viewBox="0 0 144 144"><path d="M120.4,50.4C120.4,20.2,91.9,3,66,3,33.9,3,9,28.2,9,60.4c0,18.3,6,35.4,24,46.1V141H93V120.1c12,.1,18.1-.8,22.3-5,5.4-5.4,4.9-28.1,4.9-28.1s5.1.2,9,0a4.6544,4.6544,0,0,0,3.5-1.8c.8-1.1.5-2.4.6-3.8C134,71.8,120.4,55.2,120.4,50.4Z" style="fill:none;stroke:#000;stroke-linejoin:round;stroke-width:6px"/><polygon points="66 24 75 45 96 45 78 60 87 84 66 69 45 84 54 60 36 45 57 45 66 24" style="fill:none;stroke:#000;stroke-linejoin:round;stroke-width:6px"/><rect width="144" height="144" style="fill:none"/></svg>