<svg xmlns="http://www.w3.org/2000/svg" viewBox="0 0 144 144"><circle cx="57" cy="57" r="54" style="fill:none;stroke:#000;stroke-linecap:round;stroke-linejoin:round;stroke-width:6px"/><line x1="95.2" y1="95.2" x2="141" y2="141" style="fill:none;stroke:#000;stroke-linecap:round;stroke-linejoin:round;stroke-width:6px"/><path d="M84,90.6C79.2,88.3,73.9,86,69,84V72s6-2.1,6-15c4.2,0,6-12,.2-12,0-1.3,4.6-7.8,2.8-15-3-12-33-12-36,0-12.6-2.6-3,13.3-3,15-6,0-4.2,12,0,12,0,12.9,6,15,6,15V84c-4.9,2-10.2,4.3-15,6.6" style="fill:none;stroke:#000;stroke-linecap:round;stroke-linejoin:round;stroke-width:6px"/><rect width="144" height="144" style="fill:none"/></svg>