<svg xmlns="http://www.w3.org/2000/svg" viewBox="0 0 144 144"><circle cx="24" cy="63" r="12" style="fill:none;stroke:#000;stroke-linejoin:round;stroke-width:6px"/><path d="M24,87H45c0,16-1.5,27-12,29.7V141H15V116.7C4.5,114,3,103,3,87Z" style="fill:none;stroke:#000;stroke-linejoin:round;stroke-width:6px"/><circle cx="120" cy="63" r="12" style="fill:none;stroke:#000;stroke-linejoin:round;stroke-width:6px"/><path d="M120,87h21c0,16-1.5,27-12,29.7V141H111V116.7C100.5,114,99,103,99,87Z" style="fill:none;stroke:#000;stroke-linejoin:round;stroke-width:6px"/><circle cx="72" cy="15" r="12" style="fill:none;stroke:#000;stroke-linejoin:round;stroke-width:6px"/><path d="M72,39H93c0,16-1.5,27-12,29.7V93H63V68.7C52.5,66,51,55,51,39Z" style="fill:none;stroke:#000;stroke-linejoin:round;stroke-width:6px"/><rect width="144" height="144" style="fill:none"/></svg>