<svg xmlns="http://www.w3.org/2000/svg" viewBox="0 0 144 144"><path d="M120.4,50.4C120.4,20.2,91.9,3,66,3,33.8,3,9,28.2,9,60.4c0,18.3,6,35.4,24,46.1V141H93V120.1c12,.1,18.1-.8,22.3-5,5.4-5.4,4.9-28.1,4.9-28.1s5.1.2,9,0a4.2967,4.2967,0,0,0,3.4-1.8c.8-1.1.5-2.4.6-3.8C133.9,71.8,120.4,55.2,120.4,50.4Z" style="fill:none;stroke:#000;stroke-linejoin:round;stroke-width:6px"/><rect x="39" y="39" width="12" height="18" style="fill:none;stroke:#000;stroke-linejoin:round;stroke-width:6px"/><rect x="51" y="69" width="12" height="18" style="fill:none;stroke:#000;stroke-linejoin:round;stroke-width:6px"/><rect x="87" y="39" width="12" height="18" style="fill:none;stroke:#000;stroke-linejoin:round;stroke-width:6px"/><line x1="63" y1="36" x2="63" y2="60" style="fill:none;stroke:#000;stroke-linejoin:round;stroke-width:6px"/><line x1="75" y1="36" x2="75" y2="60" style="fill:none;stroke:#000;stroke-linejoin:round;stroke-width:6px"/><line x1="39" y1="66" x2="39" y2="90" style="fill:none;stroke:#000;stroke-linejoin:round;stroke-width:6px"/><line x1="75" y1="66" x2="75" y2="90" style="fill:none;stroke:#000;stroke-linejoin:round;stroke-width:6px"/><line x1="87" y1="66" x2="87" y2="90" style="fill:none;stroke:#000;stroke-linejoin:round;stroke-width:6px"/><line x1="99" y1="66" x2="99" y2="90" style="fill:none;stroke:#000;stroke-linejoin:round;stroke-width:6px"/><rect width="144" height="144" style="fill:none"/></svg>