<svg xmlns="http://www.w3.org/2000/svg" viewBox="0 0 144 144"><path d="M9,75l-6,.2V15A12.0353,12.0353,0,0,1,15,3H129a12.0353,12.0353,0,0,1,12,12V75h-6" style="fill:none;stroke:#000;stroke-linecap:round;stroke-linejoin:round;stroke-width:6px"/><polygon points="15 63 129 63 117 87 27 87 15 63" style="fill:none;stroke:#000;stroke-linejoin:round;stroke-width:6px"/><line x1="21" y1="15" x2="123" y2="15" style="fill:none;stroke:#000;stroke-linecap:round;stroke-linejoin:round;stroke-width:6px"/><line x1="21" y1="27" x2="123" y2="27" style="fill:none;stroke:#000;stroke-linecap:round;stroke-linejoin:round;stroke-width:6px"/><path d="M105,36a3,3,0,1,0,3,3,2.9465,2.9465,0,0,0-3-3Z" style="fill:#000"/><path d="M117,36a3,3,0,1,0,3,3,2.9465,2.9465,0,0,0-3-3Z" style="fill:#000"/><line x1="3" y1="51" x2="141" y2="51" style="fill:none;stroke:#000;stroke-linejoin:round;stroke-width:6px"/><path d="M33,99c10.5,10.5-10.2,25.8,0,36" style="fill:none;stroke:#000;stroke-linecap:round;stroke-linejoin:round;stroke-width:6px"/><path d="M69,99c10.5,10.5-10.2,25.8,0,36" style="fill:none;stroke:#000;stroke-linecap:round;stroke-linejoin:round;stroke-width:6px"/><path d="M108,99c10.5,10.5-10.2,25.8,0,36" style="fill:none;stroke:#000;stroke-linecap:round;stroke-linejoin:round;stroke-width:6px"/><rect width="144" height="144" style="fill:none"/></svg>