<svg xmlns="http://www.w3.org/2000/svg" viewBox="0 0 144 144"><path d="M57,54,82.1,86.9A22.213,22.213,0,0,0,97.5,93H117L102,63h9a29.96,29.96,0,0,0,30-30V15h-9L114,33H30c-8.7,0-10.4,4.9-18,15,7.6,10.1,9.3,15,18,15H63" style="fill:none;stroke:#000;stroke-linecap:round;stroke-linejoin:round;stroke-width:6px"/><path d="M36,33A18.0529,18.0529,0,0,1,54,15H69A18.0529,18.0529,0,0,1,87,33" style="fill:none;stroke:#000;stroke-linecap:round;stroke-linejoin:round;stroke-width:6px"/><line x1="63" y1="15" x2="63" y2="33" style="fill:none;stroke:#000;stroke-linecap:round;stroke-linejoin:round;stroke-width:6px"/><line x1="9" y1="24" x2="9" y2="36" style="fill:none;stroke:#000;stroke-linecap:round;stroke-linejoin:round;stroke-width:6px"/><line x1="9" y1="60" x2="9" y2="72" style="fill:none;stroke:#000;stroke-linecap:round;stroke-linejoin:round;stroke-width:6px"/><line x1="45" y1="57" x2="45" y2="72" style="fill:none;stroke:#000;stroke-linecap:round;stroke-linejoin:round;stroke-width:6px"/><circle cx="45" cy="78" r="6" style="fill:none;stroke:#000;stroke-linecap:round;stroke-linejoin:round;stroke-width:6px"/><path d="M15,130.5a19.5,19.5,0,0,1,39,0" style="fill:none;stroke:#000;stroke-linecap:round;stroke-linejoin:round;stroke-width:6px"/><path d="M15,129A12.0353,12.0353,0,0,0,3,141H75a18.0529,18.0529,0,0,0-18-18,15.2625,15.2625,0,0,0-3,.3" style="fill:none;stroke:#000;stroke-linecap:round;stroke-linejoin:round;stroke-width:6px"/><line x1="27" y1="33" x2="27" y2="63" style="fill:none;stroke:#000;stroke-linejoin:round;stroke-width:6px"/><rect width="144" height="144" style="fill:none"/></svg>