<svg xmlns="http://www.w3.org/2000/svg" viewBox="0 0 144 144"><path d="M96,59.8a24.1463,24.1463,0,1,0-48,0l7.4,66.3a16.8087,16.8087,0,0,0,33.4,0Z" style="fill:none;stroke:#000;stroke-linecap:round;stroke-linejoin:round;stroke-width:6px"/><path d="M81.5,81l2-19.1A11.5012,11.5012,0,0,0,72,49.2,11.6206,11.6206,0,0,0,60.5,61.9L62.1,81Z" style="fill:none;stroke:#000;stroke-linecap:round;stroke-linejoin:round;stroke-width:6px"/><path d="M93.9,81H129a12.0353,12.0353,0,0,0,12-12V57a12.0353,12.0353,0,0,0-12-12H92.9" style="fill:none;stroke:#000;stroke-linecap:round;stroke-linejoin:round;stroke-width:6px"/><path d="M51.1,45H15A12.0353,12.0353,0,0,0,3,57V69A12.0353,12.0353,0,0,0,15,81H49.6" style="fill:none;stroke:#000;stroke-linecap:round;stroke-linejoin:round;stroke-width:6px"/><path d="M60,33S60.6,9,72,9,84,33,84,33Z" style="fill:none;stroke:#000;stroke-linecap:round;stroke-linejoin:round;stroke-width:6px"/><path d="M55.9,129H33a18.0529,18.0529,0,0,1,18-18h2.7" style="fill:none;stroke:#000;stroke-linecap:round;stroke-linejoin:round;stroke-width:6px"/><path d="M90.3,111H93a18.0529,18.0529,0,0,1,18,18H88.1" style="fill:none;stroke:#000;stroke-linecap:round;stroke-linejoin:round;stroke-width:6px"/><line x1="42" y1="21" x2="102" y2="21" style="fill:none;stroke:#000;stroke-linecap:round;stroke-linejoin:round;stroke-width:6px"/><line x1="110.9" y1="45" x2="110.9" y2="81" style="fill:none;stroke:#000;stroke-linecap:round;stroke-linejoin:round;stroke-width:6px"/><line x1="122.9" y1="45" x2="122.9" y2="81" style="fill:none;stroke:#000;stroke-linecap:round;stroke-linejoin:round;stroke-width:6px"/><line x1="21" y1="45" x2="21" y2="81" style="fill:none;stroke:#000;stroke-linecap:round;stroke-linejoin:round;stroke-width:6px"/><line x1="33" y1="45" x2="33" y2="81" style="fill:none;stroke:#000;stroke-linecap:round;stroke-linejoin:round;stroke-width:6px"/><rect width="144" height="144" style="fill:none"/></svg>