<svg xmlns="http://www.w3.org/2000/svg" viewBox="0 0 144 144"><path d="M141,117a24.0706,24.0706,0,0,1-24,24H27A24.0706,24.0706,0,0,1,3,117V27A24.0706,24.0706,0,0,1,27,3h90a24.0706,24.0706,0,0,1,24,24Z" style="fill:none;stroke:#000;stroke-linecap:round;stroke-linejoin:round;stroke-width:6px"/><path d="M49.3,72.5,33.4,65.4l-12,6.9L48.7,90,76,79.2l-11.6,30L78,102.1,94.6,71.7l20.7-9.1a7.69,7.69,0,0,0-5.9-14.2Z" style="fill:none;stroke:#000;stroke-linecap:round;stroke-linejoin:round;stroke-width:6px"/><polyline points="87.4 57.3 63 42 50.8 48.3 73 63.1" style="fill:none;stroke:#000;stroke-linecap:round;stroke-linejoin:round;stroke-width:6px"/><rect width="144" height="144" style="fill:none"/></svg>