<svg xmlns="http://www.w3.org/2000/svg" viewBox="0 0 144 144"><path d="M72,21a6.0176,6.0176,0,0,0-6,6H48L63.8,45,52,105.3A20.2746,20.2746,0,0,0,72,129" style="fill:none;stroke:#000;stroke-linecap:round;stroke-linejoin:round;stroke-width:6px"/><line x1="63" y1="105" x2="81" y2="105" style="fill:none;stroke:#000;stroke-linecap:round;stroke-linejoin:round;stroke-width:6px"/><path d="M72,21a6.0176,6.0176,0,0,1,6,6H96L80.2,45,92,105.3A20.2746,20.2746,0,0,1,72,129" style="fill:none;stroke:#000;stroke-linecap:round;stroke-linejoin:round;stroke-width:6px"/><path d="M53.3,98.6S12,66,8.6,63s-3-7.8,1.5-7.8L59,69.5" style="fill:none;stroke:#000;stroke-linejoin:round;stroke-width:6px"/><line x1="81" y1="105" x2="63" y2="105" style="fill:none;stroke:#000;stroke-linecap:round;stroke-linejoin:round;stroke-width:6px"/><path d="M72,21a6.0176,6.0176,0,0,0-6,6H48L63.8,45,52,105.3A20.2746,20.2746,0,0,0,72,129" style="fill:none;stroke:#000;stroke-linecap:round;stroke-linejoin:round;stroke-width:6px"/><path d="M90.7,98.6S132,66,135.4,63s3-7.8-1.5-7.8L85,69.5" style="fill:none;stroke:#000;stroke-linejoin:round;stroke-width:6px"/><rect width="144" height="144" style="fill:none"/></svg>