<svg xmlns="http://www.w3.org/2000/svg" viewBox="0 0 144 144"><path d="M105,45A21.0022,21.0022,0,0,0,69.3,30L48,51H39L30,39a15.0559,15.0559,0,0,0-12-6H3a14.76,14.76,0,0,0,3,9L30,75h75l19.7-20.3A5.9413,5.9413,0,0,0,126,51a6.0176,6.0176,0,0,0-6-6Z" style="fill:none;stroke:#000;stroke-linecap:round;stroke-linejoin:round;stroke-width:6px"/><line x1="126" y1="51" x2="138" y2="51" style="fill:none;stroke:#000;stroke-linecap:round;stroke-linejoin:round;stroke-width:6px"/><line x1="135" y1="60" x2="135" y2="72" style="fill:none;stroke:#000;stroke-linecap:round;stroke-linejoin:round;stroke-width:6px"/><line x1="135" y1="42" x2="135" y2="30" style="fill:none;stroke:#000;stroke-linecap:round;stroke-linejoin:round;stroke-width:6px"/><polyline points="105 45 81 45 81 24.2" style="fill:none;stroke:#000;stroke-linejoin:round;stroke-width:6px"/><line x1="51" y1="63" x2="90" y2="63" style="fill:none;stroke:#000;stroke-linecap:round;stroke-linejoin:round;stroke-width:6px"/><path d="M33,111A18.0529,18.0529,0,0,1,15,93H129a18.0529,18.0529,0,0,1-18,18" style="fill:none;stroke:#000;stroke-linecap:round;stroke-linejoin:round;stroke-width:6px"/><line x1="45" y1="75" x2="39" y2="93" style="fill:none;stroke:#000;stroke-linecap:round;stroke-linejoin:round;stroke-width:6px"/><line x1="99" y1="75" x2="105" y2="93" style="fill:none;stroke:#000;stroke-linecap:round;stroke-linejoin:round;stroke-width:6px"/><path d="M46.5,118.5a15.9,15.9,0,0,1-27,0" style="fill:none;stroke:#000;stroke-linecap:round;stroke-linejoin:round;stroke-width:6px"/><path d="M73.5,118.5a15.9,15.9,0,0,1-27,0" style="fill:none;stroke:#000;stroke-linecap:round;stroke-linejoin:round;stroke-width:6px"/><path d="M100.5,118.5a15.9,15.9,0,0,1-27,0" style="fill:none;stroke:#000;stroke-linecap:round;stroke-linejoin:round;stroke-width:6px"/><path d="M127.5,118.5a15.9,15.9,0,0,1-27,0" style="fill:none;stroke:#000;stroke-linecap:round;stroke-linejoin:round;stroke-width:6px"/><path d="M141,126a15.88,15.88,0,0,1-13.5-7.5" style="fill:none;stroke:#000;stroke-linecap:round;stroke-linejoin:round;stroke-width:6px"/><path d="M19.5,118.5A15.88,15.88,0,0,1,6,126" style="fill:none;stroke:#000;stroke-linecap:round;stroke-linejoin:round;stroke-width:6px"/><rect width="144" height="144" style="fill:none"/></svg>