<svg xmlns="http://www.w3.org/2000/svg" viewBox="0 0 144 144"><path d="M111,117V90A39.0349,39.0349,0,0,0,87,54a15,15,0,0,0-30,0A39.0349,39.0349,0,0,0,33,90v27a12.0353,12.0353,0,0,1-12,12H123A12.0353,12.0353,0,0,1,111,117Z" style="fill:none;stroke:#000;stroke-linecap:round;stroke-linejoin:round;stroke-width:6px"/><path d="M84,129a12,12,0,0,1-24,0" style="fill:none;stroke:#000;stroke-linecap:round;stroke-linejoin:round;stroke-width:6px"/><polyline points="3 39 21 39 3 57 21 57" style="fill:none;stroke:#000;stroke-linecap:round;stroke-linejoin:round;stroke-width:6px"/><polyline points="57 9 69 9 57 21 69 21" style="fill:none;stroke:#000;stroke-linecap:round;stroke-linejoin:round;stroke-width:6px"/><polyline points="117 21 141 21 117 45 141 45" style="fill:none;stroke:#000;stroke-linecap:round;stroke-linejoin:round;stroke-width:6px"/><rect width="144" height="144" style="fill:none"/></svg>