<svg xmlns="http://www.w3.org/2000/svg" viewBox="0 0 144 144"><path d="M111,117V90A39.0349,39.0349,0,0,0,87,54a15,15,0,0,0-30,0A39.0349,39.0349,0,0,0,33,90v27a12.0353,12.0353,0,0,1-12,12H123A12.0353,12.0353,0,0,1,111,117Z" style="fill:none;stroke:#000;stroke-linecap:round;stroke-linejoin:round;stroke-width:6px"/><path d="M84,129a12,12,0,0,1-24,0" style="fill:none;stroke:#000;stroke-linecap:round;stroke-linejoin:round;stroke-width:6px"/><path d="M21,54A33.0326,33.0326,0,0,1,54,21" style="fill:none;stroke:#000;stroke-linecap:round;stroke-linejoin:round;stroke-width:6px"/><path d="M3,54A50.9572,50.9572,0,0,1,54,3" style="fill:none;stroke:#000;stroke-linecap:round;stroke-linejoin:round;stroke-width:6px"/><path d="M123,54A33.0326,33.0326,0,0,0,90,21" style="fill:none;stroke:#000;stroke-linecap:round;stroke-linejoin:round;stroke-width:6px"/><path d="M141,54A50.9572,50.9572,0,0,0,90,3" style="fill:none;stroke:#000;stroke-linecap:round;stroke-linejoin:round;stroke-width:6px"/><rect width="144" height="144" style="fill:none"/></svg>