<svg xmlns="http://www.w3.org/2000/svg" viewBox="0 0 144 144.1"><path d="M105,75a36,36,0,0,0-72,0v54.6a11.419,11.419,0,0,0,22.6,2.3l2.6-12.3A10.9,10.9,0,0,1,68.8,111a10.735,10.735,0,0,1,10.6,8.8l2.2,11.7a11.8038,11.8038,0,0,0,23.4-2.2Z" style="fill:none;stroke:#000;stroke-linejoin:round;stroke-width:6px"/><line x1="69" y1="39" x2="69" y2="21" style="fill:none;stroke:#000;stroke-linejoin:round;stroke-width:6px"/><circle cx="69" cy="12" r="9" style="fill:none;stroke:#000;stroke-linejoin:round;stroke-width:6px"/><line x1="88.2" y1="44.6" x2="94.3" y2="27.1" style="fill:none;stroke:#000;stroke-linejoin:round;stroke-width:6px"/><circle cx="98.1" cy="18.9" r="9" style="fill:none;stroke:#000;stroke-linejoin:round;stroke-width:6px"/><line x1="49.9" y1="44.5" x2="43.9" y2="26.9" style="fill:none;stroke:#000;stroke-linejoin:round;stroke-width:6px"/><circle cx="39.9" cy="18.9" r="9" style="fill:none;stroke:#000;stroke-linejoin:round;stroke-width:6px"/><circle cx="69" cy="72" r="21" style="fill:none;stroke:#000;stroke-linejoin:round;stroke-width:6px"/><circle cx="69" cy="72" r="6" style="fill:none;stroke:#000;stroke-linejoin:round;stroke-width:6px"/><rect width="144" height="144" style="fill:none"/></svg>