<svg xmlns="http://www.w3.org/2000/svg" viewBox="0 0 144 144"><path d="M15,117V69c0-6,3-12,9-12h9" style="fill:none;stroke:#000;stroke-linecap:round;stroke-linejoin:round;stroke-width:6px"/><path d="M129,117V69c0-6-3-12-9-12h-9" style="fill:none;stroke:#000;stroke-linecap:round;stroke-linejoin:round;stroke-width:6px"/><polyline points="69 87 69 141 84 126" style="fill:none;stroke:#000;stroke-linecap:round;stroke-linejoin:round;stroke-width:6px"/><line x1="69" y1="141" x2="54" y2="126" style="fill:none;stroke:#000;stroke-linecap:round;stroke-linejoin:round;stroke-width:6px"/><line x1="65.5" y1="15" x2="54.2" y2="3" style="fill:none;stroke:#000;stroke-linecap:round;stroke-linejoin:round;stroke-width:6px"/><line x1="78.6" y1="15" x2="89.9" y2="3" style="fill:none;stroke:#000;stroke-linecap:round;stroke-linejoin:round;stroke-width:6px"/><path d="M111,45c-4.3-18-20.1-30-39-30C53,15,37.1,27,33,45Z" style="fill:none;stroke:#000;stroke-linejoin:round;stroke-width:6px"/><line x1="63" y1="30" x2="63" y2="36" style="fill:none;stroke:#000;stroke-linejoin:round;stroke-width:6px"/><line x1="81" y1="30" x2="81" y2="36" style="fill:none;stroke:#000;stroke-linejoin:round;stroke-width:6px"/><polyline points="87 117 111 117 111 57 33 57 33 117 57 117" style="fill:none;stroke:#000;stroke-linejoin:round;stroke-width:6px"/><rect width="144" height="144" style="fill:none"/></svg>