<svg xmlns="http://www.w3.org/2000/svg" viewBox="0 0 144.0168 144.2"><circle cx="72" cy="54.3" r="20.9" style="fill:none;stroke:#000;stroke-linejoin:round;stroke-width:6px"/><path d="M83.8,71.5l22.4,54.1a12.3849,12.3849,0,0,1-1.8,10.7,11.7543,11.7543,0,0,1-9.6,4.9H49.2a11.7543,11.7543,0,0,1-9.6-4.9,12.0142,12.0142,0,0,1-1.8-10.7l22.6-54" style="fill:none;stroke:#000;stroke-linejoin:round;stroke-width:6px"/><ellipse cx="72" cy="12.1" rx="27" ry="9" style="fill:none;stroke:#000;stroke-linejoin:round;stroke-width:6px"/><path d="M59.1,74.6S11,48.9,3.3,41.9C0,102.1,33,99.1,51,93.1" style="fill:none;stroke:#000;stroke-linejoin:round;stroke-width:6px"/><path d="M85.1,74.5S133,48.8,140.8,41.8C144,102.1,111,99.1,93,93.1" style="fill:none;stroke:#000;stroke-linejoin:round;stroke-width:6px"/><rect width="144" height="144" style="fill:none"/></svg>