<svg xmlns="http://www.w3.org/2000/svg" viewBox="0 0 144 144"><path d="M42,102S63.7,84,72,84s30,18,30,18-23.7,12-30,12S42,102,42,102Z" style="fill:none;stroke:#000;stroke-linejoin:round;stroke-width:6px"/><path d="M129,96c0,31.5-25.5,45-57,45S15,127.5,15,96,40.5,21,72,21,129,64.5,129,96Z" style="fill:none;stroke:#000;stroke-linejoin:round;stroke-width:6px"/><line x1="56.2" y1="24.7" x2="36" y2="18" style="fill:none;stroke:#000;stroke-linecap:round;stroke-linejoin:round;stroke-width:6px"/><line x1="61.6" y1="22.6" x2="48" y2="6" style="fill:none;stroke:#000;stroke-linecap:round;stroke-linejoin:round;stroke-width:6px"/><line x1="72" y1="66" x2="96" y2="48" style="fill:none;stroke:#000;stroke-linecap:round;stroke-linejoin:round;stroke-width:6px"/><line x1="72" y1="66" x2="48" y2="48" style="fill:none;stroke:#000;stroke-linecap:round;stroke-linejoin:round;stroke-width:6px"/><path d="M88.4,54.1a15.483,15.483,0,0,1,2.2-.1A12.015,12.015,0,1,1,78,65.4a12.8426,12.8426,0,0,1,1-4.3" style="fill:none;stroke:#000;stroke-linecap:round;stroke-linejoin:round;stroke-width:6px"/><path d="M55.5,54.1a15.483,15.483,0,0,0-2.2-.1A12.02,12.02,0,1,0,66,65.3a11.761,11.761,0,0,0-1-4.2" style="fill:none;stroke:#000;stroke-linecap:round;stroke-linejoin:round;stroke-width:6px"/><polyline points="54 108 71.6 129.2 90 108" style="fill:none;stroke:#000;stroke-linecap:round;stroke-linejoin:round;stroke-width:6px"/><path d="M90,63.1a3,3,0,1,0,3,3,2.9465,2.9465,0,0,0-3-3Z" style="fill:#000"/><path d="M54,63.1a3,3,0,1,0,3,3,2.9465,2.9465,0,0,0-3-3Z" style="fill:#000"/><rect width="144" height="144" style="fill:none"/></svg>