<svg xmlns="http://www.w3.org/2000/svg" viewBox="0 0 144 144"><rect x="87" y="123" width="36" height="18" style="fill:none;stroke:#000;stroke-linecap:round;stroke-linejoin:round;stroke-width:6px"/><path d="M117,123v-9.2S136.1,94.9,141,90V41.6S126,36.2,126,78L108.2,95.8l4.1-18c2.1-8.6-5.8-12.3-10.1-5.6C98.2,78.3,93,96,93,96v27" style="fill:none;stroke:#000;stroke-linecap:round;stroke-linejoin:round;stroke-width:6px"/><rect x="21" y="123" width="36" height="18" style="fill:none;stroke:#000;stroke-linecap:round;stroke-linejoin:round;stroke-width:6px"/><path d="M27,123v-9.2S9,94.9,3,90V41.6S18,36.2,18,78L35.8,95.8l-4.1-18c-2.1-8.6,5.8-12.3,10.1-5.6C45.8,78.3,51,96,51,96v27" style="fill:none;stroke:#000;stroke-linecap:round;stroke-linejoin:round;stroke-width:6px"/><circle cx="60" cy="30" r="3" style="fill:none;stroke:#000;stroke-linecap:round;stroke-linejoin:round;stroke-width:6px"/><circle cx="78" cy="30" r="3" style="fill:none;stroke:#000;stroke-linecap:round;stroke-linejoin:round;stroke-width:6px"/><path d="M69,63c17.7,0,32-10.7,32-24a19.7175,19.7175,0,0,0-4.8-12.5A11.9106,11.9106,0,0,0,105,15a11.97,11.97,0,1,0-23.8,1.8,41.418,41.418,0,0,0-24.4,0,11.9715,11.9715,0,1,0-15,9.7A19.5091,19.5091,0,0,0,37,39C37,52.3,51.3,63,69,63Z" style="fill:none;stroke:#000;stroke-linecap:round;stroke-linejoin:round;stroke-width:6px"/><path d="M84,45s-3,6-9,6-6-9-6-9,0,9-6,9-9-6-9-6" style="fill:none;stroke:#000;stroke-linecap:round;stroke-linejoin:round;stroke-width:6px"/><rect width="144" height="144" style="fill:none"/></svg>