<svg xmlns="http://www.w3.org/2000/svg" viewBox="0 0 144 144"><path d="M72.1,3H72C59.9,18,38.2,24.4,12,6.1V95s8.7,31.6,60,46c51.3-14.4,60-46,60-46V6.1C106.2,24.2,84.3,18.2,72.1,3Z" style="fill:none;stroke:#000;stroke-linecap:round;stroke-linejoin:round;stroke-width:6px"/><circle cx="63" cy="66" r="3" style="fill:none;stroke:#000;stroke-linecap:round;stroke-linejoin:round;stroke-width:6px"/><circle cx="81" cy="66" r="3" style="fill:none;stroke:#000;stroke-linecap:round;stroke-linejoin:round;stroke-width:6px"/><path d="M72,99c17.7,0,32-10.7,32-24a19.5091,19.5091,0,0,0-4.8-12.5,11.9647,11.9647,0,1,0-15-9.7,41.418,41.418,0,0,0-24.4,0,11.9715,11.9715,0,1,0-15,9.7A19.5091,19.5091,0,0,0,40,75C40,88.3,54.3,99,72,99Z" style="fill:none;stroke:#000;stroke-linecap:round;stroke-linejoin:round;stroke-width:6px"/><path d="M87,81s-3,6-9,6-6-9-6-9,0,9-6,9-9-6-9-6" style="fill:none;stroke:#000;stroke-linecap:round;stroke-linejoin:round;stroke-width:6px"/><rect width="144" height="144" style="fill:none"/></svg>