<svg xmlns="http://www.w3.org/2000/svg" viewBox="0 0 144 144"><path d="M72,135c9,0,3,6,21,6s36-36,36-60S114,39,96,39s-18,6-24,6-6-6-24-6S15,57,15,81s18,60,36,60S63,135,72,135Z" style="fill:none;stroke:#000;stroke-linejoin:round;stroke-width:6px"/><path d="M72,45V33A12.0353,12.0353,0,0,0,60,21H48" style="fill:none;stroke:#000;stroke-linecap:round;stroke-linejoin:round;stroke-width:6px"/><path d="M84,30A27.015,27.015,0,0,0,111,3,27.015,27.015,0,0,0,84,30Z" style="fill:none;stroke:#000;stroke-linejoin:round;stroke-width:6px"/><rect width="144" height="144" style="fill:none"/></svg>