<svg xmlns="http://www.w3.org/2000/svg" viewBox="0 0 144 144"><path d="M87,9V36a15,15,0,0,1-30,0V9H45A12.0353,12.0353,0,0,0,33,21c0,1.5-6,42.4-6,114h90c0-71.6-6-112.4-6-114A12.0353,12.0353,0,0,0,99,9Z" style="fill:none;stroke:#000;stroke-linecap:round;stroke-linejoin:round;stroke-width:6px"/><path d="M99,87H45v3a27,27,0,0,0,54,0Z" style="fill:none;stroke:#000;stroke-linecap:round;stroke-linejoin:round;stroke-width:6px"/><path d="M28.1,84H23.5A23.5713,23.5713,0,0,0,9,90a23.5713,23.5713,0,0,0-6,14.5V111" style="fill:none;stroke:#000;stroke-linecap:round;stroke-linejoin:round;stroke-width:6px"/><path d="M115.9,84h4.6A23.5713,23.5713,0,0,1,135,90a23.5713,23.5713,0,0,1,6,14.5V111" style="fill:none;stroke:#000;stroke-linecap:round;stroke-linejoin:round;stroke-width:6px"/><rect width="144" height="144" style="fill:none"/></svg>