<svg xmlns="http://www.w3.org/2000/svg" viewBox="0 0 144 144"><line x1="63" y1="48.2" x2="69.8" y2="55" style="fill:none;stroke:#000;stroke-linecap:round;stroke-linejoin:round;stroke-width:6px"/><line x1="63" y1="66.2" x2="70" y2="59.2" style="fill:none;stroke:#000;stroke-linecap:round;stroke-linejoin:round;stroke-width:6px"/><line x1="33" y1="129" x2="33" y2="141" style="fill:none;stroke:#000;stroke-linecap:round;stroke-linejoin:round;stroke-width:6px"/><line x1="111" y1="129" x2="111" y2="141" style="fill:none;stroke:#000;stroke-linecap:round;stroke-linejoin:round;stroke-width:6px"/><path d="M129,117.2A11.8655,11.8655,0,0,1,117,129H27a11.8023,11.8023,0,0,1-12-11.8v-9.4a11.912,11.912,0,0,1,8.4-11.4c11.4-3.5,32.1-9.2,48.6-9.2s37.2,5.7,48.6,9.2a12.0043,12.0043,0,0,1,8.4,11.4Z" style="fill:none;stroke:#000;stroke-linejoin:round;stroke-width:6px"/><path d="M128.5,104.4A17.9835,17.9835,0,1,0,105,87.3a20.8,20.8,0,0,0,.7,5" style="fill:none;stroke:#000;stroke-linejoin:round;stroke-width:6px"/><path d="M38.3,92.2a16.7868,16.7868,0,0,0,.7-5,18,18,0,1,0-23.5,17.1" style="fill:none;stroke:#000;stroke-linejoin:round;stroke-width:6px"/><path d="M124.5,69.1A53.811,53.811,0,1,0,18.3,56.8,49.1249,49.1249,0,0,0,19.8,69" style="fill:none;stroke:#000;stroke-linejoin:round;stroke-width:6px"/><line x1="74" y1="59.2" x2="81" y2="66.2" style="fill:none;stroke:#000;stroke-linecap:round;stroke-linejoin:round;stroke-width:6px"/><line x1="74.2" y1="55" x2="81" y2="48.2" style="fill:none;stroke:#000;stroke-linecap:round;stroke-linejoin:round;stroke-width:6px"/><path d="M75,57a2.9465,2.9465,0,0,1-3,3h0a2.9465,2.9465,0,0,1-3-3h0a2.9465,2.9465,0,0,1,3-3h0a2.9465,2.9465,0,0,1,3,3Z" style="fill:none;stroke:#000;stroke-linecap:round;stroke-linejoin:round;stroke-width:6px"/><rect width="144" height="144" style="fill:none"/></svg>