<svg xmlns="http://www.w3.org/2000/svg" viewBox="0 0 144 144"><path d="M114,81l5.6-36.5A36.1142,36.1142,0,0,0,84,3H60A36.114,36.114,0,0,0,24.3,44.5L30,81" style="fill:none;stroke:#000;stroke-linecap:round;stroke-linejoin:round;stroke-width:6px"/><line x1="39" y1="135" x2="39" y2="141" style="fill:none;stroke:#000;stroke-linecap:round;stroke-linejoin:round;stroke-width:6px"/><line x1="105" y1="135" x2="105" y2="141" style="fill:none;stroke:#000;stroke-linecap:round;stroke-linejoin:round;stroke-width:6px"/><path d="M129,75a20.9974,20.9974,0,0,0-21,21v9s-9-6-36-6-36,6-36,6V96A20.9974,20.9974,0,0,0,15,75a12.01,12.01,0,0,0-4.6,23.1A7.5115,7.5115,0,0,1,15,105v12a18.0529,18.0529,0,0,0,18,18h78a18.0529,18.0529,0,0,0,18-18V105a7.4091,7.4091,0,0,1,4.6-6.9A12.01,12.01,0,0,0,129,75Z" style="fill:none;stroke:#000;stroke-linejoin:round;stroke-width:6px"/><polyline points="90 60 81 54 90 48" style="fill:none;stroke:#000;stroke-linecap:round;stroke-linejoin:round;stroke-width:6px"/><polyline points="54 60 63 54 54 48" style="fill:none;stroke:#000;stroke-linecap:round;stroke-linejoin:round;stroke-width:6px"/><circle cx="72" cy="54" r="9" style="fill:none;stroke:#000;stroke-linecap:round;stroke-linejoin:round;stroke-width:6px"/><rect width="144" height="144" style="fill:none"/></svg>