<svg xmlns="http://www.w3.org/2000/svg" viewBox="0 0 144 144"><polygon points="77.5 11 66.4 11 66.4 22.1 77.5 22.1 77.5 11" style="fill:#000"/><polygon points="77.5 33.2 66.4 33.2 66.4 44.3 77.5 44.3 77.5 33.2" style="fill:#000"/><polygon points="77.5 55.4 66.4 55.4 66.4 66.5 77.5 66.5 77.5 55.4" style="fill:#000"/><polygon points="77.5 77.6 66.4 77.6 66.4 88.7 77.5 88.7 77.5 77.6" style="fill:#000"/><polygon points="99.6 55.4 88.5 55.4 88.5 66.5 99.6 66.5 99.6 55.4" style="fill:#000"/><polygon points="99.6 77.6 88.5 77.6 88.5 88.7 99.6 88.7 99.6 77.6" style="fill:#000"/><polygon points="121.8 55.4 110.7 55.4 110.7 66.5 121.8 66.5 121.8 55.4" style="fill:#000"/><polygon points="121.8 77.6 110.7 77.6 110.7 88.7 121.8 88.7 121.8 77.6" style="fill:#000"/><polygon points="144 55.4 132.9 55.4 132.9 66.5 144 66.5 144 55.4" style="fill:#000"/><polygon points="144 77.6 132.9 77.6 132.9 88.7 144 88.7 144 77.6" style="fill:#000"/><polygon points="77.5 99.8 66.4 99.8 66.4 110.8 77.5 110.8 77.5 99.8" style="fill:#000"/><polygon points="55.3 33.2 44.2 33.2 44.2 44.3 55.3 44.3 55.3 33.2" style="fill:#000"/><polygon points="55.3 55.4 44.2 55.4 44.2 66.5 55.3 66.5 55.3 55.4" style="fill:#000"/><polygon points="55.3 77.6 44.2 77.6 44.2 88.7 55.3 88.7 55.3 77.6" style="fill:#000"/><polygon points="33.1 77.6 22 77.6 22 88.7 33.1 88.7 33.1 77.6" style="fill:#000"/><polygon points="11.1 66.5 0 66.5 0 77.6 11.1 77.6 11.1 66.5" style="fill:#000"/><polygon points="33.1 55.4 22 55.4 22 66.5 33.1 66.5 33.1 55.4" style="fill:#000"/><polygon points="55.3 99.8 44.2 99.8 44.2 110.8 55.3 110.8 55.3 99.8" style="fill:#000"/><polygon points="77.5 121.9 66.4 121.9 66.4 133 77.5 133 77.5 121.9" style="fill:#000"/><rect width="144" height="144" style="fill:none"/></svg>