<svg xmlns="http://www.w3.org/2000/svg" viewBox="0 0 144 144"><path d="M3,3V141H141V3Z" style="fill:none;stroke:#000;stroke-linejoin:round;stroke-width:6px"/><polygon points="31.5 76.5 22.6 76.5 22.6 85.5 31.5 85.5 31.5 76.5" style="fill:#000"/><polygon points="49.5 76.5 40.5 76.5 40.5 85.5 49.5 85.5 49.5 76.5" style="fill:#000"/><polygon points="49.5 58.5 40.5 58.5 40.5 67.5 49.5 67.5 49.5 58.5" style="fill:#000"/><polygon points="67.5 76.5 58.5 76.5 58.5 85.5 67.5 85.5 67.5 76.5" style="fill:#000"/><polygon points="67.5 58.5 58.5 58.5 58.5 67.5 67.5 67.5 67.5 58.5" style="fill:#000"/><polygon points="85.5 76.5 76.5 76.5 76.5 85.5 85.5 85.5 85.5 76.5" style="fill:#000"/><polygon points="85.5 58.5 76.5 58.5 76.5 67.5 85.5 67.5 85.5 58.5" style="fill:#000"/><polygon points="67.5 40.6 58.5 40.6 58.5 49.6 67.5 49.6 67.5 40.6" style="fill:#000"/><polygon points="76.5 22.6 67.5 22.6 67.5 31.6 76.5 31.6 76.5 22.6" style="fill:#000"/><polygon points="85.5 40.6 76.5 40.6 76.5 49.6 85.5 49.6 85.5 40.6" style="fill:#000"/><polygon points="67.5 112.5 58.5 112.5 58.5 121.5 67.5 121.5 67.5 112.5" style="fill:#000"/><polygon points="67.5 94.5 58.5 94.5 58.5 103.5 67.5 103.5 67.5 94.5" style="fill:#000"/><polygon points="85.5 112.5 76.5 112.5 76.5 121.5 85.5 121.5 85.5 112.5" style="fill:#000"/><polygon points="85.5 94.5 76.5 94.5 76.5 103.5 85.5 103.5 85.5 94.5" style="fill:#000"/><polygon points="103.5 76.5 94.5 76.5 94.5 85.5 103.5 85.5 103.5 76.5" style="fill:#000"/><polygon points="121.4 76.5 112.4 76.5 112.4 85.5 121.4 85.5 121.4 76.5" style="fill:#000"/><polygon points="103.5 58.5 94.5 58.5 94.5 67.5 103.5 67.5 103.5 58.5" style="fill:#000"/><rect width="144" height="144" style="fill:none"/></svg>