<svg xmlns="http://www.w3.org/2000/svg" viewBox="0 0 144 144"><path d="M72,3a8.839,8.839,0,0,1,9,9,9,9,0,0,1-18,0A8.839,8.839,0,0,1,72,3Z" style="fill:none;stroke:#000;stroke-width:6px"/><path d="M42,27a9,9,0,1,1-9,9A8.839,8.839,0,0,1,42,27Z" style="fill:none;stroke:#000;stroke-width:6px"/><path d="M18,51a9,9,0,0,1,0,18,9,9,0,0,1,0-18Z" style="fill:none;stroke:#000;stroke-width:6px"/><path d="M102,27a9,9,0,1,0,9,9A8.839,8.839,0,0,0,102,27Z" style="fill:none;stroke:#000;stroke-width:6px"/><path d="M126,51a9,9,0,1,0,9,9A8.839,8.839,0,0,0,126,51Z" style="fill:none;stroke:#000;stroke-width:6px"/><path d="M72,123a9,9,0,1,1-9,9A8.839,8.839,0,0,1,72,123Z" style="fill:none;stroke:#000;stroke-width:6px"/><path d="M72,93a9,9,0,1,1-9,9A8.839,8.839,0,0,1,72,93Z" style="fill:none;stroke:#000;stroke-width:6px"/><path d="M72,63a9,9,0,1,1-9,9A8.839,8.839,0,0,1,72,63Z" style="fill:none;stroke:#000;stroke-width:6px"/><path d="M72,33a9,9,0,1,1-9,9A8.839,8.839,0,0,1,72,33Z" style="fill:none;stroke:#000;stroke-width:6px"/><rect width="144" height="144" style="fill:none"/></svg>