<svg xmlns="http://www.w3.org/2000/svg" viewBox="0 0 144 144"><polygon points="22.1 66.6 11 66.6 11 77.6 22.1 77.6 22.1 66.6" style="fill:#000"/><polygon points="44.3 66.6 33.2 66.6 33.2 77.6 44.3 77.6 44.3 66.6" style="fill:#000"/><polygon points="66.4 66.6 55.4 66.6 55.4 77.6 66.4 77.6 66.4 66.6" style="fill:#000"/><polygon points="88.6 66.6 77.5 66.6 77.5 77.6 88.6 77.6 88.6 66.6" style="fill:#000"/><polygon points="66.4 44.4 55.4 44.4 55.4 55.5 66.4 55.5 66.4 44.4" style="fill:#000"/><polygon points="88.6 44.4 77.5 44.4 77.5 55.5 88.6 55.5 88.6 44.4" style="fill:#000"/><polygon points="66.4 22.2 55.4 22.2 55.4 33.3 66.4 33.3 66.4 22.2" style="fill:#000"/><polygon points="88.6 22.2 77.5 22.2 77.5 33.3 88.6 33.3 88.6 22.2" style="fill:#000"/><polygon points="66.4 0 55.4 0 55.4 11.1 66.4 11.1 66.4 0" style="fill:#000"/><polygon points="88.6 0 77.5 0 77.5 11.1 88.6 11.1 88.6 0" style="fill:#000"/><polygon points="110.8 66.6 99.7 66.6 99.7 77.6 110.8 77.6 110.8 66.6" style="fill:#000"/><polygon points="44.3 88.7 33.2 88.7 33.2 99.8 44.3 99.8 44.3 88.7" style="fill:#000"/><polygon points="66.4 88.7 55.4 88.7 55.4 99.8 66.4 99.8 66.4 88.7" style="fill:#000"/><polygon points="88.6 88.7 77.5 88.7 77.5 99.8 88.6 99.8 88.6 88.7" style="fill:#000"/><polygon points="88.6 110.9 77.5 110.9 77.5 122 88.6 122 88.6 110.9" style="fill:#000"/><polygon points="77.5 132.9 66.4 132.9 66.4 144 77.5 144 77.5 132.9" style="fill:#000"/><polygon points="66.4 110.9 55.4 110.9 55.4 122 66.4 122 66.4 110.9" style="fill:#000"/><polygon points="110.8 88.7 99.7 88.7 99.7 99.8 110.8 99.8 110.8 88.7" style="fill:#000"/><polygon points="133 66.6 121.9 66.6 121.9 77.6 133 77.6 133 66.6" style="fill:#000"/><rect width="144" height="144" style="fill:none"/></svg>