<svg xmlns="http://www.w3.org/2000/svg" viewBox="0 0 144 144"><path d="M141,72a9,9,0,1,0-9,9A8.839,8.839,0,0,0,141,72Z" style="fill:none;stroke:#000;stroke-width:6px"/><path d="M117,102a9,9,0,1,0-9,9A8.839,8.839,0,0,0,117,102Z" style="fill:none;stroke:#000;stroke-width:6px"/><path d="M93,126a9,9,0,1,0-9,9A8.839,8.839,0,0,0,93,126Z" style="fill:none;stroke:#000;stroke-width:6px"/><path d="M117,42a9,9,0,1,1-9-9A8.839,8.839,0,0,1,117,42Z" style="fill:none;stroke:#000;stroke-width:6px"/><path d="M93,18a9,9,0,0,1-18,0,9,9,0,0,1,18,0Z" style="fill:none;stroke:#000;stroke-width:6px"/><path d="M21,72a8.839,8.839,0,0,0-9-9,9,9,0,0,0,0,18A8.839,8.839,0,0,0,21,72Z" style="fill:none;stroke:#000;stroke-width:6px"/><path d="M51,72a9,9,0,1,0-9,9A8.839,8.839,0,0,0,51,72Z" style="fill:none;stroke:#000;stroke-width:6px"/><path d="M81,72a9,9,0,1,0-9,9A8.839,8.839,0,0,0,81,72Z" style="fill:none;stroke:#000;stroke-width:6px"/><path d="M111,72a9,9,0,1,0-9,9A8.839,8.839,0,0,0,111,72Z" style="fill:none;stroke:#000;stroke-width:6px"/><rect width="144" height="144" style="fill:none"/></svg>