<svg xmlns="http://www.w3.org/2000/svg" viewBox="0 0 144 144"><polygon points="16.2 127.8 6 127.8 6 138 16.2 138 16.2 127.8" style="fill:#000"/><polygon points="16.2 107.4 6 107.4 6 117.6 16.2 117.6 16.2 107.4" style="fill:#000"/><polygon points="16.2 87 6 87 6 97.2 16.2 97.2 16.2 87" style="fill:#000"/><polygon points="16.2 66.6 6 66.6 6 76.8 16.2 76.8 16.2 66.6" style="fill:#000"/><polygon points="36.6 107.4 26.4 107.4 26.4 117.6 36.6 117.6 36.6 107.4" style="fill:#000"/><polygon points="36.6 87 26.4 87 26.4 97.2 36.6 97.2 36.6 87" style="fill:#000"/><polygon points="36.6 66.6 26.4 66.6 26.4 76.8 36.6 76.8 36.6 66.6" style="fill:#000"/><polygon points="57 107.4 46.8 107.4 46.8 117.6 57 117.6 57 107.4" style="fill:#000"/><polygon points="57 87 46.8 87 46.8 97.2 57 97.2 57 87" style="fill:#000"/><polygon points="57 66.6 46.8 66.6 46.8 76.8 57 76.8 57 66.6" style="fill:#000"/><polygon points="16.2 46.2 6 46.2 6 56.4 16.2 56.4 16.2 46.2" style="fill:#000"/><polygon points="97.8 66.6 87.6 66.6 87.6 76.8 97.8 76.8 97.8 66.6" style="fill:#000"/><polygon points="97.8 46.2 87.6 46.2 87.6 56.4 97.8 56.4 97.8 46.2" style="fill:#000"/><polygon points="97.8 25.8 87.6 25.8 87.6 36 97.8 36 97.8 25.8" style="fill:#000"/><polygon points="118.2 46.2 108 46.2 108 56.4 118.2 56.4 118.2 46.2" style="fill:#000"/><polygon points="77.4 107.4 67.2 107.4 67.2 117.6 77.4 117.6 77.4 107.4" style="fill:#000"/><polygon points="77.4 87 67.2 87 67.2 97.2 77.4 97.2 77.4 87" style="fill:#000"/><polygon points="77.4 66.6 67.2 66.6 67.2 76.8 77.4 76.8 77.4 66.6" style="fill:#000"/><polygon points="77.4 46.2 67.2 46.2 67.2 56.4 77.4 56.4 77.4 46.2" style="fill:#000"/><polygon points="97.8 127.8 87.6 127.8 87.6 138 97.8 138 97.8 127.8" style="fill:#000"/><polygon points="77.4 127.8 67.2 127.8 67.2 138 77.4 138 77.4 127.8" style="fill:#000"/><polygon points="57 127.8 46.8 127.8 46.8 138 57 138 57 127.8" style="fill:#000"/><polygon points="36.6 127.8 26.4 127.8 26.4 138 36.6 138 36.6 127.8" style="fill:#000"/><rect width="144" height="144" style="fill:none"/></svg>