<svg xmlns="http://www.w3.org/2000/svg" viewBox="0 0 144 144"><path d="M27,69a6.0176,6.0176,0,0,1,6-6H78.2c3.3,0,4.2-2,1.9-4.4L65.9,43.1a6.4543,6.4543,0,0,1,.2-8.7l1.8-1.8a5.8864,5.8864,0,0,1,8.4.1L110,67.6a6.3473,6.3473,0,0,1,0,8.7L76.9,111.2a5.8854,5.8854,0,0,1-8.4.1l-1.8-1.8a6.4522,6.4522,0,0,1-.2-8.7L80.3,85.4c2.2-2.5,1.3-4.5-2-4.5H33a6.0176,6.0176,0,0,1-6-6Z" style="fill:none;stroke:#000;stroke-linecap:square;stroke-linejoin:round;stroke-width:6px"/><circle cx="72" cy="72" r="69" style="fill:none;stroke:#000;stroke-miterlimit:10;stroke-width:6px"/><rect width="144" height="144" style="fill:none"/></svg>