<svg xmlns="http://www.w3.org/2000/svg" viewBox="0 0 144 144"><path d="M69,117a6.0176,6.0176,0,0,1-6-6V65.8c0-3.3-2-4.2-4.4-1.9L43.1,78.1a6.4543,6.4543,0,0,1-8.7-.2l-1.8-1.8a5.8864,5.8864,0,0,1,.1-8.4L67.7,34a6.3473,6.3473,0,0,1,8.7,0l34.9,33.1a5.8854,5.8854,0,0,1,.1,8.4l-1.8,1.8a6.4522,6.4522,0,0,1-8.7.2L85.5,63.8c-2.5-2.2-4.5-1.3-4.5,2V111a6.0176,6.0176,0,0,1-6,6Z" style="fill:none;stroke:#000;stroke-linecap:square;stroke-linejoin:round;stroke-width:6px"/><circle cx="72" cy="72" r="69" style="fill:none;stroke:#000;stroke-miterlimit:10;stroke-width:6px"/><rect width="144" height="144" style="fill:none"/></svg>