<svg xmlns="http://www.w3.org/2000/svg" viewBox="0 0 144 144"><polygon points="22.1 66.4 11 66.4 11 77.5 22.1 77.5 22.1 66.4" style="fill:#000"/><polygon points="44.3 66.4 33.2 66.4 33.2 77.5 44.3 77.5 44.3 66.4" style="fill:#000"/><polygon points="66.4 66.4 55.4 66.4 55.4 77.5 66.4 77.5 66.4 66.4" style="fill:#000"/><polygon points="88.6 66.4 77.5 66.4 77.5 77.5 88.6 77.5 88.6 66.4" style="fill:#000"/><polygon points="66.4 88.6 55.4 88.6 55.4 99.6 66.4 99.6 66.4 88.6" style="fill:#000"/><polygon points="88.6 88.6 77.5 88.6 77.5 99.6 88.6 99.6 88.6 88.6" style="fill:#000"/><polygon points="66.4 110.7 55.4 110.7 55.4 121.8 66.4 121.8 66.4 110.7" style="fill:#000"/><polygon points="88.6 110.7 77.5 110.7 77.5 121.8 88.6 121.8 88.6 110.7" style="fill:#000"/><polygon points="66.4 132.9 55.4 132.9 55.4 144 66.4 144 66.4 132.9" style="fill:#000"/><polygon points="88.6 132.9 77.5 132.9 77.5 144 88.6 144 88.6 132.9" style="fill:#000"/><polygon points="110.8 66.4 99.7 66.4 99.7 77.5 110.8 77.5 110.8 66.4" style="fill:#000"/><polygon points="44.3 44.2 33.2 44.2 33.2 55.3 44.3 55.3 44.3 44.2" style="fill:#000"/><polygon points="66.4 44.2 55.4 44.2 55.4 55.3 66.4 55.3 66.4 44.2" style="fill:#000"/><polygon points="88.6 44.2 77.5 44.2 77.5 55.3 88.6 55.3 88.6 44.2" style="fill:#000"/><polygon points="88.6 22 77.5 22 77.5 33.1 88.6 33.1 88.6 22" style="fill:#000"/><polygon points="77.5 0 66.4 0 66.4 11.1 77.5 11.1 77.5 0" style="fill:#000"/><polygon points="66.4 22 55.4 22 55.4 33.1 66.4 33.1 66.4 22" style="fill:#000"/><polygon points="110.8 44.2 99.7 44.2 99.7 55.3 110.8 55.3 110.8 44.2" style="fill:#000"/><polygon points="133 66.4 121.9 66.4 121.9 77.5 133 77.5 133 66.4" style="fill:#000"/><rect width="144" height="144" style="fill:none"/></svg>