<svg xmlns="http://www.w3.org/2000/svg" viewBox="0 0 144.7 144"><line x1="11.9" y1="132" x2="103.1" y2="40.8" style="fill:none;stroke:#000;stroke-linecap:round;stroke-linejoin:round;stroke-width:6px"/><polygon points="101 25.9 103.1 40.8 118 42.9 130.7 13.2 101 25.9" style="fill:none;stroke:#000;stroke-linejoin:round;stroke-width:6px"/><polyline points="45.5 98.5 30.6 96.2 3 115.3 20.1 123.9" style="fill:none;stroke:#000;stroke-linecap:round;stroke-linejoin:round;stroke-width:6px"/><polyline points="45.5 98.5 47.8 113.4 28.7 141 20.1 123.9" style="fill:none;stroke:#000;stroke-linecap:round;stroke-linejoin:round;stroke-width:6px"/><line x1="131.9" y1="132" x2="40.7" y2="40.8" style="fill:none;stroke:#000;stroke-linecap:round;stroke-linejoin:round;stroke-width:6px"/><polygon points="42.8 25.9 40.7 40.8 25.8 42.9 13.1 13.2 42.8 25.9" style="fill:none;stroke:#000;stroke-linejoin:round;stroke-width:6px"/><polyline points="98.2 98.5 96 113.4 115.1 141 123.7 123.9" style="fill:none;stroke:#000;stroke-linecap:round;stroke-linejoin:round;stroke-width:6px"/><polyline points="98.2 98.5 113.2 96.2 140.8 115.3 123.7 123.9" style="fill:none;stroke:#000;stroke-linecap:round;stroke-linejoin:round;stroke-width:6px"/><rect x="0.7" width="144" height="144" style="fill:none"/></svg>