<svg xmlns="http://www.w3.org/2000/svg" viewBox="0 0 144 144.0015"><path d="M72,141a9,9,0,1,1,9-9,8.839,8.839,0,0,1-8.675,9Q72.1626,141.003,72,141Z" style="fill:none;stroke:#000;stroke-width:6px"/><path d="M102,117a9,9,0,1,1,9-9,8.839,8.839,0,0,1-8.675,9Q102.1626,117.003,102,117Z" style="fill:none;stroke:#000;stroke-width:6px"/><path d="M126,93a9,9,0,1,1,9-9,8.839,8.839,0,0,1-8.675,9Q126.1626,93.003,126,93Z" style="fill:none;stroke:#000;stroke-width:6px"/><path d="M42,117a9,9,0,1,0-9-9,8.839,8.839,0,0,0,8.675,9Q41.8374,117.003,42,117Z" style="fill:none;stroke:#000;stroke-width:6px"/><path d="M18,93a9,9,0,1,0-9-9A9,9,0,0,0,18,93Z" style="fill:none;stroke:#000;stroke-width:6px"/><path d="M72,21a8.839,8.839,0,0,1-9-8.675q-.003-.1624,0-.325a9,9,0,0,1,18,0,8.839,8.839,0,0,1-8.675,9Q72.1626,21.003,72,21Z" style="fill:none;stroke:#000;stroke-width:6px"/><path d="M72,51a9,9,0,1,1,9-9,8.839,8.839,0,0,1-8.675,9Q72.1626,51.003,72,51Z" style="fill:none;stroke:#000;stroke-width:6px"/><path d="M72,81a9,9,0,1,1,9-9,8.839,8.839,0,0,1-8.675,9Q72.1626,81.003,72,81Z" style="fill:none;stroke:#000;stroke-width:6px"/><path d="M72,111a9,9,0,1,1,9-9,8.839,8.839,0,0,1-8.675,9Q72.1626,111.003,72,111Z" style="fill:none;stroke:#000;stroke-width:6px"/><rect width="144" height="144" style="fill:none"/></svg>