<svg xmlns="http://www.w3.org/2000/svg" viewBox="0 0 144 144"><path d="M3,72a8.839,8.839,0,0,1,9-9,9,9,0,0,1,0,18A8.839,8.839,0,0,1,3,72Z" style="fill:none;stroke:#000;stroke-width:6px"/><path d="M27,102a9,9,0,1,1,9,9A8.839,8.839,0,0,1,27,102Z" style="fill:none;stroke:#000;stroke-width:6px"/><path d="M51,126a9,9,0,1,1,9,9A8.839,8.839,0,0,1,51,126Z" style="fill:none;stroke:#000;stroke-width:6px"/><path d="M27,42a9,9,0,1,0,9-9A8.839,8.839,0,0,0,27,42Z" style="fill:none;stroke:#000;stroke-width:6px"/><path d="M51,18a9,9,0,0,0,18,0,9,9,0,0,0-18,0Z" style="fill:none;stroke:#000;stroke-width:6px"/><path d="M123,72a9,9,0,1,1,9,9A8.839,8.839,0,0,1,123,72Z" style="fill:none;stroke:#000;stroke-width:6px"/><path d="M93,72a9,9,0,1,1,9,9A8.839,8.839,0,0,1,93,72Z" style="fill:none;stroke:#000;stroke-width:6px"/><path d="M63,72a9,9,0,1,1,9,9A8.839,8.839,0,0,1,63,72Z" style="fill:none;stroke:#000;stroke-width:6px"/><path d="M33,72a9,9,0,1,1,9,9A8.839,8.839,0,0,1,33,72Z" style="fill:none;stroke:#000;stroke-width:6px"/><rect width="144" height="144" style="fill:none"/></svg>