<svg xmlns="http://www.w3.org/2000/svg" viewBox="0 0 144 144"><polygon points="77.6 11 66.5 11 66.5 22.1 77.6 22.1 77.6 11" style="fill:#000"/><polygon points="77.6 33.2 66.5 33.2 66.5 44.3 77.6 44.3 77.6 33.2" style="fill:#000"/><polygon points="77.6 55.4 66.5 55.4 66.5 66.5 77.6 66.5 77.6 55.4" style="fill:#000"/><polygon points="77.6 77.6 66.5 77.6 66.5 88.7 77.6 88.7 77.6 77.6" style="fill:#000"/><polygon points="55.4 55.4 44.4 55.4 44.4 66.5 55.4 66.5 55.4 55.4" style="fill:#000"/><polygon points="55.4 77.6 44.4 77.6 44.4 88.7 55.4 88.7 55.4 77.6" style="fill:#000"/><polygon points="33.3 55.4 22.2 55.4 22.2 66.5 33.3 66.5 33.3 55.4" style="fill:#000"/><polygon points="33.3 77.6 22.2 77.6 22.2 88.7 33.3 88.7 33.3 77.6" style="fill:#000"/><polygon points="11.1 55.4 0 55.4 0 66.5 11.1 66.5 11.1 55.4" style="fill:#000"/><polygon points="11.1 77.6 0 77.6 0 88.7 11.1 88.7 11.1 77.6" style="fill:#000"/><polygon points="77.6 99.8 66.5 99.8 66.5 110.8 77.6 110.8 77.6 99.8" style="fill:#000"/><polygon points="99.8 33.2 88.7 33.2 88.7 44.3 99.8 44.3 99.8 33.2" style="fill:#000"/><polygon points="99.8 55.4 88.7 55.4 88.7 66.5 99.8 66.5 99.8 55.4" style="fill:#000"/><polygon points="99.8 77.6 88.7 77.6 88.7 88.7 99.8 88.7 99.8 77.6" style="fill:#000"/><polygon points="122 77.6 110.9 77.6 110.9 88.7 122 88.7 122 77.6" style="fill:#000"/><polygon points="144 66.5 132.9 66.5 132.9 77.6 144 77.6 144 66.5" style="fill:#000"/><polygon points="122 55.4 110.9 55.4 110.9 66.5 122 66.5 122 55.4" style="fill:#000"/><polygon points="99.8 99.8 88.7 99.8 88.7 110.8 99.8 110.8 99.8 99.8" style="fill:#000"/><polygon points="77.6 121.9 66.5 121.9 66.5 133 77.6 133 77.6 121.9" style="fill:#000"/><rect width="144" height="144" style="fill:none"/></svg>