<svg xmlns="http://www.w3.org/2000/svg" viewBox="0 0 144 144"><path d="M105.9,42.4a6.0977,6.0977,0,0,1,0,8.5L74,82.8c-2.3,2.3-1.5,4.2,1.8,4.2H93a6.0176,6.0176,0,0,1,6,6v6.1a6.0176,6.0176,0,0,1-6,6H45.1a6.0176,6.0176,0,0,1-6-6V51a6.0176,6.0176,0,0,1,6-6h6a6.0176,6.0176,0,0,1,6,6V68.5c0,3.3,1.9,4.1,4.2,1.8L93.2,38.4a6.0977,6.0977,0,0,1,8.5,0Z" style="fill:none;stroke:#000;stroke-linecap:square;stroke-linejoin:round;stroke-width:6px"/><circle cx="72" cy="72" r="69" style="fill:none;stroke:#000;stroke-miterlimit:10;stroke-width:6px"/><rect width="144" height="144" style="fill:none"/></svg>