<svg xmlns="http://www.w3.org/2000/svg" viewBox="0 0 144 144"><path d="M38.1,42.4a6.0977,6.0977,0,0,0,0,8.5L70,82.8c2.3,2.3,1.5,4.2-1.8,4.2H51a6.0176,6.0176,0,0,0-6,6v6.1a6.0176,6.0176,0,0,0,6,6H99a6.0176,6.0176,0,0,0,6-6V50.9a6.0176,6.0176,0,0,0-6-6H93a6.0176,6.0176,0,0,0-6,6V68.4c0,3.3-1.9,4.1-4.2,1.8l-32-31.9a6.098,6.098,0,0,0-8.5,0Z" style="fill:none;stroke:#000;stroke-linecap:square;stroke-linejoin:round;stroke-width:6px"/><circle cx="72" cy="72" r="69" style="fill:none;stroke:#000;stroke-miterlimit:10;stroke-width:6px"/><rect width="144" height="144" style="fill:none"/></svg>