<svg xmlns="http://www.w3.org/2000/svg" viewBox="0 0 144 144"><polygon points="138 127.8 127.8 127.8 127.8 138 138 138 138 127.8" style="fill:#000"/><polygon points="117.6 127.8 107.4 127.8 107.4 138 117.6 138 117.6 127.8" style="fill:#000"/><polygon points="97.2 127.8 87 127.8 87 138 97.2 138 97.2 127.8" style="fill:#000"/><polygon points="76.8 127.8 66.6 127.8 66.6 138 76.8 138 76.8 127.8" style="fill:#000"/><polygon points="117.6 107.4 107.4 107.4 107.4 117.6 117.6 117.6 117.6 107.4" style="fill:#000"/><polygon points="97.2 107.4 87 107.4 87 117.6 97.2 117.6 97.2 107.4" style="fill:#000"/><polygon points="76.8 107.4 66.6 107.4 66.6 117.6 76.8 117.6 76.8 107.4" style="fill:#000"/><polygon points="117.6 87 107.4 87 107.4 97.2 117.6 97.2 117.6 87" style="fill:#000"/><polygon points="97.2 87 87 87 87 97.2 97.2 97.2 97.2 87" style="fill:#000"/><polygon points="76.8 87 66.6 87 66.6 97.2 76.8 97.2 76.8 87" style="fill:#000"/><polygon points="56.4 127.8 46.2 127.8 46.2 138 56.4 138 56.4 127.8" style="fill:#000"/><polygon points="76.8 46.2 66.6 46.2 66.6 56.4 76.8 56.4 76.8 46.2" style="fill:#000"/><polygon points="56.4 46.2 46.2 46.2 46.2 56.4 56.4 56.4 56.4 46.2" style="fill:#000"/><polygon points="36 46.2 25.8 46.2 25.8 56.4 36 56.4 36 46.2" style="fill:#000"/><polygon points="56.4 25.8 46.2 25.8 46.2 36 56.4 36 56.4 25.8" style="fill:#000"/><polygon points="117.6 66.6 107.4 66.6 107.4 76.8 117.6 76.8 117.6 66.6" style="fill:#000"/><polygon points="97.2 66.6 87 66.6 87 76.8 97.2 76.8 97.2 66.6" style="fill:#000"/><polygon points="76.8 66.6 66.6 66.6 66.6 76.8 76.8 76.8 76.8 66.6" style="fill:#000"/><polygon points="56.4 66.6 46.2 66.6 46.2 76.8 56.4 76.8 56.4 66.6" style="fill:#000"/><polygon points="138 46.2 127.8 46.2 127.8 56.4 138 56.4 138 46.2" style="fill:#000"/><polygon points="138 66.6 127.8 66.6 127.8 76.8 138 76.8 138 66.6" style="fill:#000"/><polygon points="138 87 127.8 87 127.8 97.2 138 97.2 138 87" style="fill:#000"/><polygon points="138 107.4 127.8 107.4 127.8 117.6 138 117.6 138 107.4" style="fill:#000"/><rect width="144" height="144" style="fill:none"/></svg>