<svg xmlns="http://www.w3.org/2000/svg" viewBox="0 0 144 144"><path d="M54,57c0-3.3,2.7-3,6-3s6-.3,6,3" style="fill:none;stroke:#000;stroke-linecap:round;stroke-linejoin:round;stroke-width:6px"/><path d="M78,57c0-3.3,2.7-3,6-3s6-.3,6,3" style="fill:none;stroke:#000;stroke-linecap:round;stroke-linejoin:round;stroke-width:6px"/><path d="M110.8,96.4c-7.3-1.2-15.3-2.1-23.3-3.4" style="fill:none;stroke:#000;stroke-linecap:round;stroke-linejoin:round;stroke-width:6px"/><path d="M56.7,93C30.9,97.4,3,96.5,3,121.5V141H141V121.5c0-11.7-5.9-17.7-14.9-21.2" style="fill:none;stroke:#000;stroke-linecap:round;stroke-linejoin:round;stroke-width:6px"/><path d="M42,51c-9,0-9,18,0,18,0,18,21,30,30,30s30-12,30-30c9,0,9-18,0-18V49.8" style="fill:none;stroke:#000;stroke-linecap:round;stroke-linejoin:round;stroke-width:6px"/><line x1="33.3" y1="37.9" x2="36.1" y2="55.5" style="fill:none;stroke:#000;stroke-linejoin:round;stroke-width:6px"/><path d="M76,39H39.4a17.6883,17.6883,0,0,1-17-12.1C18.2,14,26.5,3,37.5,3,66,3,78,18,78,18c42-6,48,21,42,27-15,15-51-6-63-24" style="fill:none;stroke:#000;stroke-linecap:round;stroke-linejoin:round;stroke-width:6px"/><path d="M78,18S81,3,90,3" style="fill:none;stroke:#000;stroke-linecap:round;stroke-linejoin:round;stroke-width:6px"/><line x1="33" y1="96.5" x2="33" y2="141" style="fill:none;stroke:#000;stroke-linejoin:round;stroke-width:6px"/><path d="M45,94.7V117a12.0353,12.0353,0,0,0,12,12H81" style="fill:none;stroke:#000;stroke-linecap:round;stroke-linejoin:round;stroke-width:6px"/><path d="M54,93.4V96c0,8.3,8.1,15,18,15s18-6.7,18-15V93.4" style="fill:none;stroke:#000;stroke-linecap:round;stroke-linejoin:round;stroke-width:6px"/><path d="M136.8,89.2c-3.5,5.6-9.3,4.8-14.9,1.3s-8.9-8.4-5.4-14S132.1,68.6,141,60C137.2,71.8,140.4,83.6,136.8,89.2Z" style="fill:none;stroke:#000;stroke-linecap:round;stroke-linejoin:round;stroke-width:6px"/><path d="M121.9,90.5a17.9716,17.9716,0,0,1-5-4.4L84,141h24l21.2-47.8A16.4035,16.4035,0,0,1,121.9,90.5Z" style="fill:none;stroke:#000;stroke-linecap:round;stroke-linejoin:round;stroke-width:6px"/><rect width="144" height="144" style="fill:none"/></svg>