<svg xmlns="http://www.w3.org/2000/svg" viewBox="0 0 144 144"><path d="M27,93A23.9424,23.9424,0,0,0,3,117v24H141V117a23.9424,23.9424,0,0,0-24-24Z" style="fill:none;stroke:#000;stroke-linecap:round;stroke-linejoin:round;stroke-width:6px"/><line x1="27" y1="105" x2="39" y2="105" style="fill:none;stroke:#000;stroke-linecap:round;stroke-linejoin:round;stroke-width:6px"/><line x1="27" y1="117" x2="39" y2="117" style="fill:none;stroke:#000;stroke-linecap:round;stroke-linejoin:round;stroke-width:6px"/><line x1="27" y1="129" x2="39" y2="129" style="fill:none;stroke:#000;stroke-linecap:round;stroke-linejoin:round;stroke-width:6px"/><path d="M99,54v6A28.1745,28.1745,0,0,1,72,78,28.1745,28.1745,0,0,1,45,60V54c0-13.3,13.7-24,27-24S99,40.7,99,54Z" style="fill:none;stroke:#000;stroke-linecap:round;stroke-linejoin:round;stroke-width:6px"/><path d="M108,51c0,1-.1,15-.1,15S105,93,72,93,36.1,66,36.1,66,36,52,36,51a36,36,0,0,1,72,0Z" style="fill:none;stroke:#000;stroke-linecap:round;stroke-linejoin:round;stroke-width:6px"/><circle cx="114" cy="117" r="9" style="fill:none;stroke:#000;stroke-linecap:round;stroke-linejoin:round;stroke-width:6px"/><rect x="51" y="105" width="30" height="24" style="fill:none;stroke:#000;stroke-linecap:round;stroke-linejoin:round;stroke-width:6px"/><path d="M21,93.8V45A12.0353,12.0353,0,0,1,33,33h7.8" style="fill:none;stroke:#000;stroke-linejoin:round;stroke-width:6px"/><path d="M123,93.8V45a12.0353,12.0353,0,0,0-12-12h-7.8" style="fill:none;stroke:#000;stroke-linejoin:round;stroke-width:6px"/><line x1="55.5" y1="52.5" x2="63" y2="45" style="fill:none;stroke:#000;stroke-linecap:round;stroke-linejoin:round;stroke-width:6px"/><line x1="79.5" y1="66" x2="87" y2="58.5" style="fill:none;stroke:#000;stroke-linecap:round;stroke-linejoin:round;stroke-width:6px"/><line x1="63" y1="63" x2="82.5" y2="43.5" style="fill:none;stroke:#000;stroke-linecap:round;stroke-linejoin:round;stroke-width:6px"/><rect width="144" height="144" style="fill:none"/></svg>