<svg xmlns="http://www.w3.org/2000/svg" viewBox="0 0 144 144.05"><path d="M37.5,36.7,65.1,9.1a21.0037,21.0037,0,0,1,29.7,0" transform="translate(0 0.05)" style="fill:none;stroke:#000;stroke-linecap:round;stroke-linejoin:round;stroke-width:6px"/><path d="M124.5,38.8a21.0037,21.0037,0,0,1,0,29.7L96.9,96.1" transform="translate(0 0.05)" style="fill:none;stroke:#000;stroke-linecap:round;stroke-linejoin:round;stroke-width:6px"/><path d="M73.6,94l-4.2,4.2a8.98,8.98,0,1,0,12.7,12.7L94.8,98.2a27.1,27.1,0,0,0,0-38.2L73.6,38.9a27.1,27.1,0,0,0-38.2,0L22.7,51.6A8.98,8.98,0,1,0,35.4,64.3l4.2-4.2" transform="translate(0 0.05)" style="fill:none;stroke:#000;stroke-linejoin:round;stroke-width:6px"/><path d="M52.4,47.3,5.7,94a8.98,8.98,0,0,0,12.7,12.7L37.5,87.6A6.01,6.01,0,0,1,46,96.1L26.9,115.2a8.98,8.98,0,1,0,12.7,12.7L86.3,81.2" transform="translate(0 0.05)" style="fill:none;stroke:#000;stroke-linecap:round;stroke-linejoin:round;stroke-width:6px"/><circle cx="101.1" cy="32.55" r="24" style="fill:none;stroke:#000;stroke-linecap:round;stroke-linejoin:round;stroke-width:6px"/><circle cx="101.1" cy="32.55" r="12" style="fill:none;stroke:#000;stroke-linecap:round;stroke-linejoin:round;stroke-width:6px"/><rect x="51.0108" y="58.6584" width="23.9998" height="23.9998" transform="translate(-31.5075 65.3006) rotate(-45)" style="fill:none;stroke:#000;stroke-linecap:round;stroke-linejoin:round;stroke-width:5.999942240425611px"/><path d="M54.2,113.4c20.8,29.1,59.2,18.1,83.8-3.6" transform="translate(0 0.05)" style="fill:none;stroke:#000;stroke-linecap:round;stroke-linejoin:round;stroke-width:6px"/><rect y="0.05" width="144" height="144" style="fill:none"/></svg>