<svg xmlns="http://www.w3.org/2000/svg" viewBox="0 0 144 144"><circle cx="72" cy="72" r="21" style="fill:none;stroke:#000;stroke-linecap:round;stroke-linejoin:round;stroke-width:6px"/><path d="M92.4,108.4A42.8412,42.8412,0,0,1,71.1,114a42,42,0,1,1-.3-84c57,0,54.6,63,30.6,63-9,0-8.3-6.1-8.3-9V54" style="fill:none;stroke:#000;stroke-linecap:round;stroke-linejoin:round;stroke-width:6px"/><path d="M3,27H6A9,9,0,0,1,6,45H3V63H6A9,9,0,0,1,6,81H3V99H6a9,9,0,0,1,0,18H3v18a6.0176,6.0176,0,0,0,6,6H27v-3a9,9,0,0,1,18,0v3H63v-3a9,9,0,0,1,18,0v3H99v-3a9,9,0,0,1,18,0v3h18a6.0176,6.0176,0,0,0,6-6V117h-3a9,9,0,0,1,0-18h3V81h-3a9,9,0,0,1,0-18h3V45h-3a9,9,0,0,1,0-18h3V9a6.0176,6.0176,0,0,0-6-6H117V6A9,9,0,0,1,99,6V3H81V6A9,9,0,0,1,63,6V3H45V6A9,9,0,0,1,27,6V3H9A6.0176,6.0176,0,0,0,3,9Z" style="fill:none;stroke:#000;stroke-linejoin:round;stroke-width:6px"/><rect width="144" height="144" style="fill:none"/></svg>