<svg xmlns="http://www.w3.org/2000/svg" viewBox="0 0 144 144"><path d="M54,24.6c-13-6.3-31-.7-32.9,10.1a11.6971,11.6971,0,0,1,5.3,7" style="fill:none;stroke:#000;stroke-linecap:round;stroke-linejoin:round;stroke-width:6px"/><path d="M21.2,34.8A11.9735,11.9735,0,1,0,21.6,55c4.5,12.4,27,13.2,35.4,8" style="fill:none;stroke:#000;stroke-linecap:round;stroke-linejoin:round;stroke-width:6px"/><path d="M66.2,106.2A11.9735,11.9735,0,1,1,66.6,86" style="fill:none;stroke:#000;stroke-linecap:round;stroke-linejoin:round;stroke-width:6px"/><path d="M57,63c6,6,6,9,6,21" style="fill:none;stroke:#000;stroke-linecap:round;stroke-linejoin:round;stroke-width:6px"/><path d="M101.2,22C95.7,12.5,84.7,6,72,6S48.3,12.5,42.8,22" style="fill:none;stroke:#000;stroke-linecap:round;stroke-linejoin:round;stroke-width:6px"/><path d="M87,63a35.2259,35.2259,0,0,1-15,3.1A35.2259,35.2259,0,0,1,57,63" style="fill:none;stroke:#000;stroke-linecap:round;stroke-linejoin:round;stroke-width:6px"/><path d="M90,24.6c13-6.3,31-.7,32.9,10.1a11.6971,11.6971,0,0,0-5.3,7" style="fill:none;stroke:#000;stroke-linecap:round;stroke-linejoin:round;stroke-width:6px"/><path d="M122.8,34.8a11.9735,11.9735,0,1,1-.4,20.2C118,67.4,95.4,68.2,87,63" style="fill:none;stroke:#000;stroke-linecap:round;stroke-linejoin:round;stroke-width:6px"/><path d="M77.8,106.2A11.9735,11.9735,0,1,0,77.4,86" style="fill:none;stroke:#000;stroke-linecap:round;stroke-linejoin:round;stroke-width:6px"/><path d="M87,63c-6,6-6,9-6,21" style="fill:none;stroke:#000;stroke-linecap:round;stroke-linejoin:round;stroke-width:6px"/><path d="M81,108c0,33,48,13.2,48,33H15c0-19.8,48,0,48-33" style="fill:none;stroke:#000;stroke-linecap:round;stroke-linejoin:round;stroke-width:6px"/><rect width="144" height="144" style="fill:none"/></svg>