<svg xmlns="http://www.w3.org/2000/svg" viewBox="0 0 144 144"><path d="M63,141H3v-6a6.0176,6.0176,0,0,1,6-6H57a6.0176,6.0176,0,0,1,6,6Z" style="fill:none;stroke:#000;stroke-linecap:round;stroke-linejoin:round;stroke-width:6px"/><path d="M57,129H9v-6a6.0176,6.0176,0,0,1,6-6H51a6.0176,6.0176,0,0,1,6,6Z" style="fill:none;stroke:#000;stroke-linecap:round;stroke-linejoin:round;stroke-width:6px"/><rect x="45.6869" y="32.463" width="46.6996" height="29.6997" transform="translate(-13.2349 62.6739) rotate(-45)" style="fill:none;stroke:#000;stroke-linecap:round;stroke-linejoin:round;stroke-width:5.999942240425611px"/><path d="M42,53.3l-3-3c-5.7-5.6-14.7,3.3-9,9l27,27c5.7,5.7,14.7-3.3,9-9l-3-3" style="fill:none;stroke:#000;stroke-linecap:round;stroke-linejoin:round;stroke-width:6px"/><path d="M96,41.3l3,3c5.7,5.7,14.7-3.3,9-9L81,8.3c-5.7-5.6-14.7,3.3-9,9l3,3" style="fill:none;stroke:#000;stroke-linecap:round;stroke-linejoin:round;stroke-width:6px"/><line x1="79.5" y1="57.8" x2="141" y2="119.3" style="fill:none;stroke:#000;stroke-linecap:round;stroke-linejoin:round;stroke-width:6px"/><rect width="144" height="144" style="fill:none"/></svg>