<svg xmlns="http://www.w3.org/2000/svg" viewBox="0 0 144 144"><polyline points="58 86.3 46.8 97.4 34.1 84.7 45.2 73.6" style="fill:none;stroke:#000;stroke-linecap:round;stroke-linejoin:round;stroke-width:6px"/><path d="M40.5,91.1,12.9,118.7a12.0208,12.0208,0,0,0,17,17L49,116.5a8.98,8.98,0,1,1,12.7,12.7L51.6,139.3" style="fill:none;stroke:#000;stroke-linecap:round;stroke-linejoin:round;stroke-width:6px"/><path d="M70.4,89.9a5.9171,5.9171,0,0,1-8.5,0l-17-17a6.0977,6.0977,0,0,1,0-8.5L66.1,43.2a6.0977,6.0977,0,0,1,8.5,0l17,17a6.0977,6.0977,0,0,1,0,8.5Z" style="fill:none;stroke:#000;stroke-linecap:round;stroke-linejoin:round;stroke-width:6px"/><polygon points="119.2 24.1 129.8 13.5 132 3 121.3 5 110.7 15.6 95.9 22 74.6 43.2 91.6 60.2 112.8 39 119.2 24.1" style="fill:none;stroke:#000;stroke-linecap:round;stroke-linejoin:round;stroke-width:6px"/><line x1="95.9" y1="22" x2="112.8" y2="39" style="fill:none;stroke:#000;stroke-linecap:round;stroke-linejoin:round;stroke-width:6px"/><line x1="112.8" y1="13.5" x2="121.3" y2="22" style="fill:none;stroke:#000;stroke-linecap:round;stroke-linejoin:round;stroke-width:6px"/><rect width="144" height="144" style="fill:none"/></svg>