<svg xmlns="http://www.w3.org/2000/svg" viewBox="0 0 144 144"><path d="M30.9,47.8a41.2537,41.2537,0,1,1,82.2.1l-5.2,60.3a36.0416,36.0416,0,0,1-71.8-.1Z" style="fill:none;stroke:#000;stroke-linejoin:round;stroke-width:6px"/><path d="M102.3,45.8c0,17-13.4,29.2-30,29.2s-30-12.3-30-29.2S55.7,15,72.3,15,102.3,28.8,102.3,45.8Z" style="fill:none;stroke:#000;stroke-linejoin:round;stroke-width:6px"/><path d="M75,57.1A2.9237,2.9237,0,0,1,72,60a2.8648,2.8648,0,0,1-3-2.9A3.0967,3.0967,0,0,1,72,54,3.0312,3.0312,0,0,1,75,57.1Z" style="fill:none;stroke:#000;stroke-linejoin:round;stroke-width:6px"/><path d="M54,39.2a6.0032,6.0032,0,1,1,12,0" style="fill:none;stroke:#000;stroke-linecap:round;stroke-linejoin:round;stroke-width:6px"/><path d="M78,39.2a6.0032,6.0032,0,1,1,12,0" style="fill:none;stroke:#000;stroke-linecap:round;stroke-linejoin:round;stroke-width:6px"/><line x1="34.5" y1="89.8" x2="106.7" y2="114.4" style="fill:none;stroke:#000;stroke-linecap:round;stroke-linejoin:round;stroke-width:6px"/><line x1="55.1" y1="96.8" x2="111" y2="72.8" style="fill:none;stroke:#000;stroke-linecap:round;stroke-linejoin:round;stroke-width:6px"/><rect width="144" height="144" style="fill:none"/></svg>