<svg xmlns="http://www.w3.org/2000/svg" viewBox="0 0 144 144"><path d="M90,5.4C79,1.9,71.9,18.2,86.5,21.5,113.2,27.6,111.9,66,72,66S30.8,27.6,57.5,21.5C72.1,18.2,65,1.9,54,5.4a69,69,0,1,0,36,0Z" style="fill:none;stroke:#000;stroke-linejoin:round;stroke-width:6px"/><path d="M63,102a3.0085,3.0085,0,0,0-3,3,3,3,0,0,0,6,0,3.0085,3.0085,0,0,0-3-3Z" style="fill:#000"/><path d="M81,102a3.0085,3.0085,0,0,0-3,3,3,3,0,0,0,6,0,3.0085,3.0085,0,0,0-3-3Z" style="fill:#000"/><path d="M72,90a29.8978,29.8978,0,0,0-9.1,1.4A6.15,6.15,0,0,0,63,90a9,9,0,1,0-11.4,8.6A14.8681,14.8681,0,0,0,48,108c0,9.9,10.7,18,24,18" style="fill:none;stroke:#000;stroke-linejoin:round;stroke-width:6px"/><path d="M72,90a29.8978,29.8978,0,0,1,9.1,1.4c0-.5-.1-.9-.1-1.4a9,9,0,1,1,11.4,8.6A14.8681,14.8681,0,0,1,96,108c0,9.9-10.7,18-24,18" style="fill:none;stroke:#000;stroke-linejoin:round;stroke-width:6px"/><rect width="144" height="144" style="fill:none"/></svg>