<svg xmlns="http://www.w3.org/2000/svg" viewBox="0 0 144 144"><path d="M105,117a23.9424,23.9424,0,0,1-24,24H63a23.9424,23.9424,0,0,1-24-24V69h66v48Z" style="fill:none;stroke:#000;stroke-linejoin:round;stroke-width:6px"/><path d="M81,12a9,9,0,0,0-18,0c0,26.6-18,18.1-18,39H99C99,30.1,81,38.6,81,12Z" style="fill:none;stroke:#000;stroke-linejoin:round;stroke-width:6px"/><path d="M27,60a8.9626,8.9626,0,0,0,9,9h72a9,9,0,0,0,0-18H36A8.9626,8.9626,0,0,0,27,60Z" style="fill:none;stroke:#000;stroke-linejoin:round;stroke-width:6px"/><line x1="87" y1="87" x2="105" y2="87" style="fill:none;stroke:#000;stroke-linecap:round;stroke-linejoin:round;stroke-width:6px"/><line x1="87" y1="105" x2="105" y2="105" style="fill:none;stroke:#000;stroke-linecap:round;stroke-linejoin:round;stroke-width:6px"/><line x1="87" y1="123" x2="104.2" y2="123" style="fill:none;stroke:#000;stroke-linecap:round;stroke-linejoin:round;stroke-width:6px"/><rect width="144" height="144" style="fill:none"/></svg>