<svg xmlns="http://www.w3.org/2000/svg" viewBox="0 0 144 144"><path d="M121.2,99.1a12.0107,12.0107,0,0,1-17,0L44.9,39.7a12.0208,12.0208,0,0,1,17-17l59.4,59.4A12.1026,12.1026,0,0,1,121.2,99.1Z" style="fill:none;stroke:#000;stroke-linejoin:round;stroke-width:6px"/><path d="M125.5,35.5a12.0208,12.0208,0,0,0-17-17c-18.8,19.8-29.1.3-39.8,11.1L83.1,44l17,17,13.2,13.2C124,63.4,106.2,54.8,125.5,35.5Z" style="fill:none;stroke:#000;stroke-linejoin:round;stroke-width:6px"/><path d="M99.9,95.1a45.0246,45.0246,0,1,1-51.2-51" style="fill:none;stroke:#000;stroke-linejoin:round;stroke-width:6px"/><circle cx="55.3" cy="88.7" r="27" style="fill:none;stroke:#000;stroke-linejoin:round;stroke-width:6px"/><rect width="144" height="144" style="fill:none"/></svg>