<svg xmlns="http://www.w3.org/2000/svg" viewBox="0 0 144 144.0098"><rect width="144" height="144" style="fill:none"/><circle cx="72.12" cy="25" r="22" style="fill:none;stroke:#000;stroke-linecap:round;stroke-linejoin:round;stroke-width:6px"/><line x1="90" y1="82.43" x2="52" y2="82.43" style="fill:none;stroke:#000;stroke-linecap:round;stroke-linejoin:round;stroke-width:6px"/><path d="M54,93.43s-12.22,10.23-15,13-4,5.74-2,10,8.15,18,10,21,6.22,4.48,9,3,5.3-4.12,4-8-7-17-7-17l11-10" style="fill:none;stroke:#000;stroke-linecap:round;stroke-linejoin:round;stroke-width:6px"/><path d="M72,50.43c2.64,0,12-.5,17,2s21.3,13.4,25,16,4.65,6.45,3.08,9.48A7.42,7.42,0,0,1,107,80.43c-4-2.07-16-9-16-9s1.28,14.59,1,17a13.8411,13.8411,0,0,1-2,5s-9.44,3.66-10,12c0,0-6,1-8,1s-8-1-8-1c-.56-8.34-10-12-10-12a13.8411,13.8411,0,0,1-2-5c-.28-2.41,0-17,0-17s-12,6.93-16,9c-4.53,2.36-7.73.07-9.08-2.52-1.57-3,.38-7,4.08-9.58s18-13.4,23-15.9S69.36,50.43,72,50.43Z" style="fill:none;stroke:#000;stroke-linecap:round;stroke-linejoin:round;stroke-width:6px"/><path d="M90,93.43s11.22,10.23,14,13,5,5.74,3,10-8.15,18-10,21-6.22,4.48-9,3-5.3-4.12-4-8,7-17,7-17l-11-10" style="fill:none;stroke:#000;stroke-linecap:round;stroke-linejoin:round;stroke-width:6px"/></svg>