<svg xmlns="http://www.w3.org/2000/svg" viewBox="0 0 144 144"><path d="M135,129a12.0353,12.0353,0,0,1-12,12H21a12,12,0,0,1,0-24H123A12.0353,12.0353,0,0,1,135,129Z" style="fill:none;stroke:#000;stroke-linejoin:round;stroke-width:6px"/><path d="M129,105a12.0353,12.0353,0,0,1-12,12H27a12,12,0,0,1,0-24h90A12.0353,12.0353,0,0,1,129,105Z" style="fill:none;stroke:#000;stroke-linejoin:round;stroke-width:6px"/><path d="M123,81a12.0353,12.0353,0,0,1-12,12H33a12,12,0,0,1,0-24h78A12.0353,12.0353,0,0,1,123,81Z" style="fill:none;stroke:#000;stroke-linejoin:round;stroke-width:6px"/><path d="M117,57a12.0353,12.0353,0,0,1-12,12H39a12,12,0,0,1,0-24h66A12.0353,12.0353,0,0,1,117,57Z" style="fill:none;stroke:#000;stroke-linejoin:round;stroke-width:6px"/><rect x="63" y="9" width="18" height="36" style="fill:none;stroke:#000;stroke-linejoin:round;stroke-width:6px"/><rect width="144" height="144" style="fill:none"/></svg>