<svg xmlns="http://www.w3.org/2000/svg" viewBox="0 0 144 144"><path d="M57,105V45H93a12.0353,12.0353,0,0,1,12,12V75h24v30Z" style="fill:none;stroke:#000;stroke-linejoin:round;stroke-width:6px"/><polyline points="3 12 3 87 21 87 26.7 44.5" style="fill:none;stroke:#000;stroke-linejoin:round;stroke-width:6px"/><path d="M65.1,44.3,19.2,5.7A9.8689,9.8689,0,0,0,5.3,19.6L56.6,78.2" style="fill:none;stroke:#000;stroke-linejoin:round;stroke-width:6px"/><path d="M3,87v15c0,7.9,3.2,18.2,17.2,18.2s20.1-12.6,20.1-12.6S21,116.6,21,87Z" style="fill:none;stroke:#000;stroke-linejoin:round;stroke-width:6px"/><path d="M141,129a12.0353,12.0353,0,0,1-12,12H63a12,12,0,0,1,0-24h66A12.0353,12.0353,0,0,1,141,129Z" style="fill:none;stroke:#000;stroke-linejoin:round;stroke-width:6px"/><polyline points="69 72 69 57 84 57" style="fill:none;stroke:#000;stroke-linecap:round;stroke-linejoin:round;stroke-width:6px"/><circle cx="69" cy="129" r="6" style="fill:none;stroke:#000;stroke-linejoin:round;stroke-width:6px"/><circle cx="96" cy="129" r="6" style="fill:none;stroke:#000;stroke-linejoin:round;stroke-width:6px"/><circle cx="123" cy="129" r="6" style="fill:none;stroke:#000;stroke-linejoin:round;stroke-width:6px"/><rect width="144" height="144" style="fill:none"/></svg>