<svg xmlns="http://www.w3.org/2000/svg" viewBox="0 0 144 144"><path d="M72,3a69,69,0,1,0,69,69A69.01,69.01,0,0,0,72,3Z" style="fill:none;stroke:#000;stroke-linecap:round;stroke-linejoin:round;stroke-width:6px"/><polygon points="53.1 101.2 41.4 65 72.1 42.6 102.8 65 91 101.2 53.1 101.2" style="fill:none;stroke:#000;stroke-linecap:round;stroke-linejoin:round;stroke-width:6px"/><polyline points="98.2 8.4 72.1 19.5 45.9 8.4" style="fill:none;stroke:#000;stroke-linecap:round;stroke-linejoin:round;stroke-width:6px"/><polyline points="19.9 27.3 22.4 55.7 3.8 77.2" style="fill:none;stroke:#000;stroke-linecap:round;stroke-linejoin:round;stroke-width:6px"/><polyline points="13.7 107.9 41.4 114.3 56 138.7" style="fill:none;stroke:#000;stroke-linecap:round;stroke-linejoin:round;stroke-width:6px"/><polyline points="88.2 138.7 102.8 114.3 130.4 107.9" style="fill:none;stroke:#000;stroke-linecap:round;stroke-linejoin:round;stroke-width:6px"/><polyline points="140.4 77.2 121.7 55.7 124.2 27.3" style="fill:none;stroke:#000;stroke-linecap:round;stroke-linejoin:round;stroke-width:6px"/><line x1="72.1" y1="19.5" x2="72.1" y2="42.6" style="fill:none;stroke:#000;stroke-linecap:round;stroke-linejoin:round;stroke-width:6px"/><line x1="102.8" y1="65.9" x2="121.7" y2="55.7" style="fill:none;stroke:#000;stroke-linecap:round;stroke-linejoin:round;stroke-width:6px"/><line x1="91" y1="101.2" x2="102.8" y2="114.3" style="fill:none;stroke:#000;stroke-linecap:round;stroke-linejoin:round;stroke-width:6px"/><line x1="53.1" y1="101.2" x2="41.4" y2="114.3" style="fill:none;stroke:#000;stroke-linecap:round;stroke-linejoin:round;stroke-width:6px"/><line x1="22.4" y1="55.7" x2="41.4" y2="65" style="fill:none;stroke:#000;stroke-linecap:round;stroke-linejoin:round;stroke-width:6px"/><rect width="144" height="144" style="fill:none"/></svg>