<svg xmlns="http://www.w3.org/2000/svg" viewBox="0 0 144 144"><line x1="85.2" y1="19.6" x2="124.4" y2="58.8" style="fill:none;stroke:#000;stroke-linejoin:round;stroke-width:6px"/><path d="M123.4,15.3a6.0666,6.0666,0,0,1,5.4,5.4c1.4,14.6-2.9,56.9-28.1,82.1C75.5,127.9,33,132.4,18.4,131a6.0666,6.0666,0,0,1-5.4-5.4C11.6,111,16.1,68.5,41.2,43.3,66.5,18.1,108.7,13.8,123.4,15.3Z" style="fill:none;stroke:#000;stroke-linejoin:round;stroke-width:6px"/><line x1="49.7" y1="90.1" x2="87.9" y2="51.9" style="fill:none;stroke:#000;stroke-linecap:round;stroke-linejoin:round;stroke-width:6px"/><line x1="49.7" y1="77.4" x2="62.4" y2="90.1" style="fill:none;stroke:#000;stroke-linecap:round;stroke-linejoin:round;stroke-width:6px"/><line x1="62.4" y1="64.6" x2="75.1" y2="77.4" style="fill:none;stroke:#000;stroke-linecap:round;stroke-linejoin:round;stroke-width:6px"/><line x1="75.1" y1="51.9" x2="87.9" y2="64.6" style="fill:none;stroke:#000;stroke-linecap:round;stroke-linejoin:round;stroke-width:6px"/><line x1="15.8" y1="94.4" x2="49.7" y2="128.2" style="fill:none;stroke:#000;stroke-linejoin:round;stroke-width:6px"/><rect width="144" height="144" style="fill:none"/></svg>