<svg xmlns="http://www.w3.org/2000/svg" viewBox="0 0 144 144"><circle cx="72" cy="72" r="69" style="fill:none;stroke:#000;stroke-linejoin:round;stroke-width:6px"/><path d="M124.6,115.9A69.4794,69.4794,0,0,0,72,72" style="fill:none;stroke:#000;stroke-linejoin:round;stroke-width:6px"/><path d="M6.8,94.6A68.3044,68.3044,0,0,0,72,72" style="fill:none;stroke:#000;stroke-linejoin:round;stroke-width:6px"/><path d="M83.6,4A68.41,68.41,0,0,0,72,72" style="fill:none;stroke:#000;stroke-linejoin:round;stroke-width:6px"/><path d="M28.8,95.4a69.22,69.22,0,0,1-7.6-70" style="fill:none;stroke:#000;stroke-linejoin:round;stroke-width:6px"/><path d="M51.8,88.1A69.1742,69.1742,0,0,1,53.2,6" style="fill:none;stroke:#000;stroke-linejoin:round;stroke-width:6px"/><path d="M72.5,22.7a69.2272,69.2272,0,0,1,64.3,25.6" style="fill:none;stroke:#000;stroke-linejoin:round;stroke-width:6px"/><path d="M67.7,46.6c29.2-3.9,58.9,11.3,71.9,39.1" style="fill:none;stroke:#000;stroke-linejoin:round;stroke-width:6px"/><path d="M113.9,97a68.9461,68.9461,0,0,1-56,42.6" style="fill:none;stroke:#000;stroke-linejoin:round;stroke-width:6px"/><path d="M95.6,81a69.089,69.089,0,0,1-71.1,41.2" style="fill:none;stroke:#000;stroke-linejoin:round;stroke-width:6px"/><rect width="144" height="144" style="fill:none"/></svg>