<svg xmlns="http://www.w3.org/2000/svg" viewBox="0 0 144 144"><polyline points="141 51 105 75 75 75" style="fill:none;stroke:#000;stroke-linecap:round;stroke-linejoin:round;stroke-width:6px"/><polyline points="141 63 105 87 75 87" style="fill:none;stroke:#000;stroke-linecap:round;stroke-linejoin:round;stroke-width:6px"/><polyline points="141 75 105 99 75 99" style="fill:none;stroke:#000;stroke-linecap:round;stroke-linejoin:round;stroke-width:6px"/><polyline points="141 87 105 111 75 111" style="fill:none;stroke:#000;stroke-linecap:round;stroke-linejoin:round;stroke-width:6px"/><polygon points="75 117 33 117 33 60 69 33 111 33 75 60 75 117" style="fill:none;stroke:#000;stroke-linecap:round;stroke-linejoin:round;stroke-width:6px"/><line x1="33" y1="75" x2="3" y2="75" style="fill:none;stroke:#000;stroke-linecap:round;stroke-linejoin:round;stroke-width:6px"/><line x1="33" y1="87" x2="3" y2="87" style="fill:none;stroke:#000;stroke-linecap:round;stroke-linejoin:round;stroke-width:6px"/><line x1="33" y1="99" x2="3" y2="99" style="fill:none;stroke:#000;stroke-linecap:round;stroke-linejoin:round;stroke-width:6px"/><line x1="33" y1="111" x2="3" y2="111" style="fill:none;stroke:#000;stroke-linecap:round;stroke-linejoin:round;stroke-width:6px"/><polyline points="103 39 141 39 105 63 75 63" style="fill:none;stroke:#000;stroke-linejoin:round;stroke-width:6px"/><polyline points="33 63 3 63 39 39 61 39" style="fill:none;stroke:#000;stroke-linejoin:round;stroke-width:6px"/><line x1="54" y1="102" x2="54" y2="108" style="fill:none;stroke:#000;stroke-linecap:round;stroke-linejoin:round;stroke-width:6px"/><line x1="54" y1="60" x2="54" y2="66" style="fill:none;stroke:#000;stroke-linecap:round;stroke-linejoin:round;stroke-width:6px"/><path d="M45,93a9,9,0,1,0,9-9,9,9,0,1,1,9-9" style="fill:none;stroke:#000;stroke-linecap:round;stroke-linejoin:round;stroke-width:6px"/><rect width="144" height="144" style="fill:none"/></svg>