<svg xmlns="http://www.w3.org/2000/svg" viewBox="0 0 144 144"><line x1="9" y1="129" x2="9" y2="75" style="fill:none;stroke:#000;stroke-linejoin:round;stroke-width:6px"/><line x1="3" y1="129" x2="39" y2="129" style="fill:none;stroke:#000;stroke-linecap:round;stroke-linejoin:round;stroke-width:6px"/><line x1="3" y1="141" x2="135" y2="141" style="fill:none;stroke:#000;stroke-linecap:round;stroke-linejoin:round;stroke-width:6px"/><line x1="3" y1="75" x2="39" y2="75" style="fill:none;stroke:#000;stroke-linecap:round;stroke-linejoin:round;stroke-width:6px"/><line x1="51" y1="129" x2="87" y2="129" style="fill:none;stroke:#000;stroke-linecap:round;stroke-linejoin:round;stroke-width:6px"/><line x1="51" y1="75" x2="87" y2="75" style="fill:none;stroke:#000;stroke-linecap:round;stroke-linejoin:round;stroke-width:6px"/><line x1="21" y1="129" x2="21" y2="75" style="fill:none;stroke:#000;stroke-linejoin:round;stroke-width:6px"/><line x1="33" y1="129" x2="33" y2="75" style="fill:none;stroke:#000;stroke-linejoin:round;stroke-width:6px"/><line x1="57" y1="129" x2="57" y2="75" style="fill:none;stroke:#000;stroke-linejoin:round;stroke-width:6px"/><line x1="69" y1="129" x2="69" y2="75" style="fill:none;stroke:#000;stroke-linejoin:round;stroke-width:6px"/><line x1="81" y1="129" x2="81" y2="75" style="fill:none;stroke:#000;stroke-linejoin:round;stroke-width:6px"/><line x1="99" y1="129" x2="135" y2="129" style="fill:none;stroke:#000;stroke-linecap:round;stroke-linejoin:round;stroke-width:6px"/><line x1="99" y1="75" x2="135" y2="75" style="fill:none;stroke:#000;stroke-linecap:round;stroke-linejoin:round;stroke-width:6px"/><line x1="105" y1="129" x2="105" y2="75" style="fill:none;stroke:#000;stroke-linejoin:round;stroke-width:6px"/><line x1="117" y1="129" x2="117" y2="75" style="fill:none;stroke:#000;stroke-linejoin:round;stroke-width:6px"/><line x1="129" y1="129" x2="129" y2="75" style="fill:none;stroke:#000;stroke-linejoin:round;stroke-width:6px"/><polygon points="3 63 135 63 72.2 9 3 63" style="fill:none;stroke:#000;stroke-linejoin:round;stroke-width:6px"/><rect width="144" height="144" style="fill:none"/></svg>