<svg xmlns="http://www.w3.org/2000/svg" viewBox="0 0 144 144"><line x1="15" y1="117" x2="15" y2="69" style="fill:none;stroke:#000;stroke-linejoin:round;stroke-width:6px"/><line x1="9" y1="117" x2="39" y2="117" style="fill:none;stroke:#000;stroke-linecap:round;stroke-linejoin:round;stroke-width:6px"/><line x1="3" y1="141" x2="141" y2="141" style="fill:none;stroke:#000;stroke-linecap:round;stroke-linejoin:round;stroke-width:6px"/><line x1="3" y1="129" x2="141" y2="129" style="fill:none;stroke:#000;stroke-linecap:round;stroke-linejoin:round;stroke-width:6px"/><line x1="9" y1="69" x2="39" y2="69" style="fill:none;stroke:#000;stroke-linecap:round;stroke-linejoin:round;stroke-width:6px"/><line x1="57" y1="117" x2="87" y2="117" style="fill:none;stroke:#000;stroke-linecap:round;stroke-linejoin:round;stroke-width:6px"/><line x1="57" y1="69" x2="87" y2="69" style="fill:none;stroke:#000;stroke-linecap:round;stroke-linejoin:round;stroke-width:6px"/><line x1="33" y1="117" x2="33" y2="69" style="fill:none;stroke:#000;stroke-linejoin:round;stroke-width:6px"/><line x1="63" y1="117" x2="63" y2="69" style="fill:none;stroke:#000;stroke-linejoin:round;stroke-width:6px"/><line x1="81" y1="117" x2="81" y2="69" style="fill:none;stroke:#000;stroke-linejoin:round;stroke-width:6px"/><line x1="105" y1="117" x2="135" y2="117" style="fill:none;stroke:#000;stroke-linecap:round;stroke-linejoin:round;stroke-width:6px"/><line x1="105" y1="69" x2="135" y2="69" style="fill:none;stroke:#000;stroke-linecap:round;stroke-linejoin:round;stroke-width:6px"/><line x1="111" y1="117" x2="111" y2="69" style="fill:none;stroke:#000;stroke-linejoin:round;stroke-width:6px"/><line x1="129" y1="117" x2="129" y2="69" style="fill:none;stroke:#000;stroke-linejoin:round;stroke-width:6px"/><polygon points="3 57 141 57 72.2 3 3 57" style="fill:none;stroke:#000;stroke-linejoin:round;stroke-width:6px"/><rect width="144" height="144" style="fill:none"/></svg>