<svg xmlns="http://www.w3.org/2000/svg" viewBox="0 0 144 144"><line x1="47.2" y1="89.3" x2="44.1" y2="93" style="fill:none;stroke:#000;stroke-linecap:round;stroke-linejoin:round;stroke-width:6px"/><line x1="68.9" y1="63" x2="65.8" y2="66.7" style="fill:none;stroke:#000;stroke-linecap:round;stroke-linejoin:round;stroke-width:6px"/><path d="M45.5,83.5c-2.6,3.1-1.8,5.7,1.7,5.7,3.5.1,8.4-2.4,11-5.5S60,78,56.5,78s-4.2-2.6-1.7-5.7c2.6-3.1,7.5-5.6,11-5.5s4.2,2.6,1.7,5.7" style="fill:none;stroke:#000;stroke-linecap:round;stroke-linejoin:round;stroke-width:6px"/><polygon points="117 51 63 105 3 105 57 51 117 51" style="fill:none;stroke:#000;stroke-linecap:round;stroke-linejoin:round;stroke-width:6px"/><polyline points="117 66 66 117 3 117" style="fill:none;stroke:#000;stroke-linecap:round;stroke-linejoin:round;stroke-width:6px"/><polyline points="108 75 141 75 141 39 3 39 3 75 33 75" style="fill:none;stroke:#000;stroke-linejoin:round;stroke-width:6px"/><rect width="144" height="144" style="fill:none"/></svg>