<svg xmlns="http://www.w3.org/2000/svg" viewBox="0 0 144 144"><path d="M123,39A29.96,29.96,0,0,1,93,69V9A29.96,29.96,0,0,1,123,39Z" style="fill:none;stroke:#000;stroke-linecap:round;stroke-linejoin:round;stroke-width:6px"/><line x1="93" y1="9" x2="93" y2="3" style="fill:none;stroke:#000;stroke-linecap:round;stroke-linejoin:round;stroke-width:6px"/><line x1="51" y1="81" x2="63" y2="81" style="fill:none;stroke:#000;stroke-linecap:round;stroke-linejoin:round;stroke-width:6px"/><line x1="27" y1="57" x2="81" y2="57" style="fill:none;stroke:#000;stroke-linecap:round;stroke-linejoin:round;stroke-width:6px"/><line x1="36" y1="141" x2="42" y2="101.7" style="fill:none;stroke:#000;stroke-linecap:round;stroke-linejoin:round;stroke-width:6px"/><circle cx="75" cy="132" r="9" style="fill:none;stroke:#000;stroke-linecap:round;stroke-linejoin:round;stroke-width:6px"/><line x1="72" y1="101.5" x2="72.9" y2="123.3" style="fill:none;stroke:#000;stroke-linecap:round;stroke-linejoin:round;stroke-width:6px"/><line x1="39.8" y1="117" x2="72.7" y2="117" style="fill:none;stroke:#000;stroke-linejoin:round;stroke-width:6px"/><path d="M57,105A35.9773,35.9773,0,0,0,93,69H21A35.9773,35.9773,0,0,0,57,105Z" style="fill:none;stroke:#000;stroke-linejoin:round;stroke-width:6px"/><rect width="144" height="144" style="fill:none"/></svg>