<svg xmlns="http://www.w3.org/2000/svg" viewBox="0 0 144.025 144.025"><ellipse cx="47.6756" cy="96.3122" rx="14.9999" ry="11.9999" transform="translate(-54.1141 61.9209) rotate(-45)" style="fill:none;stroke:#000;stroke-linejoin:round;stroke-width:5.999942240425611px"/><line x1="121.925" y1="56" x2="88.125" y2="22.2" style="fill:none;stroke:#000;stroke-linecap:round;stroke-linejoin:round;stroke-width:6px"/><line x1="96.525" y1="81.5" x2="62.625" y2="47.6" style="fill:none;stroke:#000;stroke-linecap:round;stroke-linejoin:round;stroke-width:6px"/><line x1="79.525" y1="98.5" x2="45.625" y2="64.6" style="fill:none;stroke:#000;stroke-linecap:round;stroke-linejoin:round;stroke-width:6px"/><circle cx="92.225" cy="51.8" r="12" style="fill:none;stroke:#000;stroke-linejoin:round;stroke-width:6px"/><rect x="59.0088" y="61.0251" width="23.9998" height="23.9998" transform="translate(-30.8133 71.5849) rotate(-44.9919)" style="fill:none;stroke:#000;stroke-linecap:round;stroke-linejoin:round;stroke-width:5.999942553291428px"/><path d="M96.5,30.6l17,17,17-17a6.0977,6.0977,0,0,0,0-8.5L122,13.6a5.9171,5.9171,0,0,0-8.5,0Z" transform="translate(0.025)" style="fill:none;stroke:#000;stroke-linecap:round;stroke-linejoin:round;stroke-width:6px"/><line x1="126.225" y1="17.9" x2="137.625" y2="6.4" style="fill:none;stroke:#000;stroke-linecap:round;stroke-linejoin:round;stroke-width:6px"/><path d="M37.1,106.9l-8.5,8.5A14.9907,14.9907,0,1,1,7.4,136.6a14.9084,14.9084,0,0,1,0-21.2" transform="translate(0.025)" style="fill:none;stroke:#000;stroke-linecap:round;stroke-linejoin:round;stroke-width:6px"/><rect x="0.025" width="144" height="144" style="fill:none"/></svg>