<svg xmlns="http://www.w3.org/2000/svg" viewBox="0 0 144 144"><polyline points="3 111.2 3 129 20.8 129" style="fill:none;stroke:#000;stroke-linecap:round;stroke-linejoin:round;stroke-width:6px"/><polyline points="20.8 15 3 15 3 32.8" style="fill:none;stroke:#000;stroke-linecap:round;stroke-linejoin:round;stroke-width:6px"/><polyline points="141 32.8 141 15 123.2 15" style="fill:none;stroke:#000;stroke-linecap:round;stroke-linejoin:round;stroke-width:6px"/><polyline points="123.2 129 141 129 141 111.2" style="fill:none;stroke:#000;stroke-linecap:round;stroke-linejoin:round;stroke-width:6px"/><line x1="21" y1="42" x2="21" y2="102" style="fill:none;stroke:#000;stroke-linejoin:round;stroke-width:6px"/><line x1="33" y1="42" x2="33" y2="84" style="fill:none;stroke:#000;stroke-linejoin:round;stroke-width:6px"/><line x1="45" y1="42" x2="45" y2="84" style="fill:none;stroke:#000;stroke-linejoin:round;stroke-width:6px"/><line x1="63" y1="42" x2="63" y2="84" style="fill:none;stroke:#000;stroke-linejoin:round;stroke-width:6px"/><line x1="75" y1="42" x2="75" y2="84" style="fill:none;stroke:#000;stroke-linejoin:round;stroke-width:6px"/><line x1="87" y1="42" x2="87" y2="84" style="fill:none;stroke:#000;stroke-linejoin:round;stroke-width:6px"/><line x1="99" y1="42" x2="99" y2="84" style="fill:none;stroke:#000;stroke-linejoin:round;stroke-width:6px"/><line x1="111" y1="42" x2="111" y2="84" style="fill:none;stroke:#000;stroke-linejoin:round;stroke-width:6px"/><line x1="123" y1="42" x2="123" y2="102" style="fill:none;stroke:#000;stroke-linejoin:round;stroke-width:6px"/><polygon points="36 90 30 90 30 96 36 96 36 90" style="fill:#000"/><polygon points="48 90 42 90 42 96 48 96 48 90" style="fill:#000"/><polygon points="66 90 60 90 60 96 66 96 66 90" style="fill:#000"/><polygon points="78 90 72 90 72 96 78 96 78 90" style="fill:#000"/><polygon points="90 90 84 90 84 96 90 96 90 90" style="fill:#000"/><polygon points="102 90 96 90 96 96 102 96 102 90" style="fill:#000"/><polygon points="114 90 108 90 108 96 114 96 114 90" style="fill:#000"/><rect width="144" height="144" style="fill:none"/></svg>