<svg xmlns="http://www.w3.org/2000/svg" viewBox="0 0 144 144"><path d="M141,105a12.0353,12.0353,0,0,1-12,12H15A12.0353,12.0353,0,0,1,3,105V45A12.0353,12.0353,0,0,1,15,33H129a12.0353,12.0353,0,0,1,12,12Z" style="fill:none;stroke:#000;stroke-linejoin:round;stroke-width:6px"/><line x1="15" y1="48" x2="15" y2="102" style="fill:none;stroke:#000;stroke-linejoin:round;stroke-width:6px"/><line x1="27" y1="48" x2="27" y2="90" style="fill:none;stroke:#000;stroke-linejoin:round;stroke-width:6px"/><line x1="39" y1="48" x2="39" y2="90" style="fill:none;stroke:#000;stroke-linejoin:round;stroke-width:6px"/><line x1="57" y1="48" x2="57" y2="90" style="fill:none;stroke:#000;stroke-linejoin:round;stroke-width:6px"/><line x1="69" y1="48" x2="69" y2="90" style="fill:none;stroke:#000;stroke-linejoin:round;stroke-width:6px"/><line x1="93" y1="48" x2="93" y2="90" style="fill:none;stroke:#000;stroke-linejoin:round;stroke-width:6px"/><line x1="105" y1="48" x2="105" y2="90" style="fill:none;stroke:#000;stroke-linejoin:round;stroke-width:6px"/><line x1="117" y1="48" x2="117" y2="90" style="fill:none;stroke:#000;stroke-linejoin:round;stroke-width:6px"/><line x1="129" y1="48" x2="129" y2="102" style="fill:none;stroke:#000;stroke-linejoin:round;stroke-width:6px"/><polygon points="30 96 24 96 24 102 30 102 30 96" style="fill:#000"/><polygon points="42 96 36 96 36 102 42 102 42 96" style="fill:#000"/><polygon points="60 96 54 96 54 102 60 102 60 96" style="fill:#000"/><polygon points="72 96 66 96 66 102 72 102 72 96" style="fill:#000"/><polygon points="96 96 90 96 90 102 96 102 96 96" style="fill:#000"/><polygon points="108 96 102 96 102 102 108 102 108 96" style="fill:#000"/><polygon points="120 96 114 96 114 102 120 102 120 96" style="fill:#000"/><rect width="144" height="144" style="fill:none"/></svg>