<svg xmlns="http://www.w3.org/2000/svg" viewBox="0 0 144 144"><ellipse cx="77.7" cy="24" rx="45" ry="21" style="fill:none;stroke:#000;stroke-linecap:round;stroke-linejoin:round;stroke-width:6px"/><path d="M128,88.1c-4.6,9.6-25.4,16.9-50.3,16.9-24.5,0-45-7-50-16.4" style="fill:none;stroke:#000;stroke-linecap:round;stroke-linejoin:round;stroke-width:6px"/><path d="M128.7,63.6c-4.6,9.6-26.1,17.4-51,17.4-24.5,0-45.5-8-50.5-17.4" style="fill:none;stroke:#000;stroke-linecap:round;stroke-linejoin:round;stroke-width:6px"/><path d="M126,105.9c-5,9.3-25.1,17.1-48.3,17.1-40.2,0-49.3-18.8-48-16.4" style="fill:none;stroke:#000;stroke-linecap:round;stroke-linejoin:round;stroke-width:6px"/><path d="M126.9,45c-5,9.3-26,18-49.2,18-23,0-43.7-8.8-48.9-18" style="fill:none;stroke:#000;stroke-linecap:round;stroke-linejoin:round;stroke-width:6px"/><path d="M122.7,24c13.9,54,0,96,0,96s-6,21-45,21-45-21-45-21-12.9-42,0-96" style="fill:none;stroke:#000;stroke-linecap:round;stroke-linejoin:round;stroke-width:6px"/><ellipse cx="59.7" cy="24" rx="9" ry="3" style="fill:none;stroke:#000;stroke-linejoin:round;stroke-width:6px"/><rect width="144" height="144" style="fill:none"/></svg>