<svg xmlns="http://www.w3.org/2000/svg" viewBox="0 0 144 144"><path d="M81,87h60a54.03,54.03,0,0,1-54,54H57A54.03,54.03,0,0,1,3,87H39" style="fill:none;stroke:#000;stroke-linejoin:round;stroke-width:6px"/><path d="M103.6,14.2,109,8.8a12.0176,12.0176,0,0,1,20,9V87" style="fill:none;stroke:#000;stroke-linejoin:round;stroke-width:6px"/><path d="M103.6,34.3A14.2128,14.2128,0,0,0,83.5,14.2l-3.4,3.4,20.1,20.1Z" style="fill:none;stroke:#000;stroke-linejoin:round;stroke-width:6px"/><line x1="68.4" y1="21.5" x2="57.6" y2="26.5" style="fill:none;stroke:#000;stroke-linecap:round;stroke-linejoin:round;stroke-width:6px"/><line x1="95.4" y1="48.5" x2="90.6" y2="59.5" style="fill:none;stroke:#000;stroke-linecap:round;stroke-linejoin:round;stroke-width:6px"/><line x1="79.3" y1="37.8" x2="70.7" y2="46.2" style="fill:none;stroke:#000;stroke-linecap:round;stroke-linejoin:round;stroke-width:6px"/><path d="M81,81a6.0176,6.0176,0,0,0-6-6H45a6.0176,6.0176,0,0,0-6,6v36H81Z" style="fill:none;stroke:#000;stroke-linecap:round;stroke-linejoin:round;stroke-width:6px"/><rect width="144" height="144" style="fill:none"/></svg>