<svg xmlns="http://www.w3.org/2000/svg" viewBox="0 0 144.0084 144"><polyline points="87.1 81.1 135.9 27.6 112.2 9.2 114.5 25.8 97.5 28.1 99.8 44.8 82.6 46.9 84.9 63 59.1 63 61.3 46.9 44.2 44.6 46.5 28 29.5 25.8 31.8 9.1 8.1 27.5 56.7 81.1" style="fill:none;stroke:#000;stroke-linejoin:round;stroke-width:6px"/><path d="M111.3,130s29.6,17.3,29.6-16c0-22.5-25.8-20-21-41.8,2.8-12.4,15.7-14.8,24-15.1" style="fill:none;stroke:#000;stroke-linejoin:round;stroke-width:6px"/><polygon points="121.3 122.5 87.1 81 56.8 81 22.7 122.5 41.6 136.8 72 100 102.3 136.8 121.3 122.5" style="fill:none;stroke:#000;stroke-linejoin:round;stroke-width:6px"/><rect width="144" height="144" style="fill:none"/></svg>