<svg xmlns="http://www.w3.org/2000/svg" viewBox="0 0 144 144"><polyline points="21 123 9 123 9 105 135 105 135 123 123 123" style="fill:none;stroke:#000;stroke-linecap:round;stroke-linejoin:round;stroke-width:6px"/><line x1="87" y1="123" x2="57" y2="123" style="fill:none;stroke:#000;stroke-linecap:round;stroke-linejoin:round;stroke-width:6px"/><circle cx="39" cy="123" r="18" style="fill:none;stroke:#000;stroke-linecap:round;stroke-linejoin:round;stroke-width:6px"/><circle cx="105" cy="123" r="18" style="fill:none;stroke:#000;stroke-linecap:round;stroke-linejoin:round;stroke-width:6px"/><path d="M39,120a3,3,0,1,0,3,3,2.9465,2.9465,0,0,0-3-3Z" style="fill:#000"/><path d="M105,120a3,3,0,1,0,3,3,2.9465,2.9465,0,0,0-3-3Z" style="fill:#000"/><polyline points="39 87 6 87 6 63 39 63" style="fill:none;stroke:#000;stroke-linejoin:round;stroke-width:6px"/><line x1="99" y1="87" x2="51" y2="87" style="fill:none;stroke:#000;stroke-linejoin:round;stroke-width:6px"/><path d="M111,63h6a12,12,0,0,1,0,24h-6" style="fill:none;stroke:#000;stroke-linejoin:round;stroke-width:6px"/><line x1="51" y1="63" x2="99" y2="63" style="fill:none;stroke:#000;stroke-linejoin:round;stroke-width:6px"/><polyline points="39 105 39 39 51 39 51 105" style="fill:none;stroke:#000;stroke-linecap:round;stroke-linejoin:round;stroke-width:6px"/><polyline points="99 105 99 39 111 39 111 105" style="fill:none;stroke:#000;stroke-linecap:round;stroke-linejoin:round;stroke-width:6px"/><line x1="39" y1="45" x2="21" y2="63" style="fill:none;stroke:#000;stroke-linejoin:round;stroke-width:6px"/><line x1="99" y1="45" x2="81" y2="63" style="fill:none;stroke:#000;stroke-linejoin:round;stroke-width:6px"/><rect width="144" height="144" style="fill:none"/></svg>