<svg xmlns="http://www.w3.org/2000/svg" viewBox="0 0 144 144"><path d="M141,104.9H105c-14.7,0-27.7,4.7-35.9,12" style="fill:none;stroke:#000;stroke-linecap:round;stroke-linejoin:round;stroke-width:6px"/><line x1="105" y1="105" x2="85.1" y2="54.8" style="fill:none;stroke:#000;stroke-linecap:round;stroke-linejoin:round;stroke-width:6px"/><line x1="69.6" y1="15.8" x2="67.4" y2="10.2" style="fill:none;stroke:#000;stroke-linecap:round;stroke-linejoin:round;stroke-width:6px"/><path d="M69.6,15.8C40.4,27.3,21.4,48.7,29.9,70.2l2.2,5.6L46,70.3l3.4-7.8,7.8,3.4L113,43.7l3.4-7.8,7.8,3.4,13.9-5.5-2.2-5.6C127.3,6.6,98.9,4.1,69.6,15.8Z" style="fill:none;stroke:#000;stroke-linecap:round;stroke-linejoin:round;stroke-width:6px"/><path d="M141,141c-6,0-12-5.4-12-12,0,6.6-6,12-12,12s-12-5.4-12-12c0,6.6-6,12-12,12s-12-5.4-12-12c0,6.6-6,12-12,12s-12-5.4-12-12c0,6.6-6,12-12,12s-12-5.4-12-12c0,6.6-6,12-12,12S9,135.6,9,129c0,4.1-2.8,7.8-6,9.9" style="fill:none;stroke:#000;stroke-linecap:round;stroke-linejoin:round;stroke-width:6px"/><rect width="144" height="144" style="fill:none"/></svg>