<svg xmlns="http://www.w3.org/2000/svg" viewBox="0 0 144 144"><path d="M134.7,20.8a3.9374,3.9374,0,0,0-7.6-1.1c-4.7,12.8-17.3,34-17.3,34C102,42,42,42,34.2,53.8c0,0-12.6-21.5-17.3-34.3a3.9176,3.9176,0,0,0-7.6,1.1C5.5,72.8,19.2,129,72,129,124.6,129,138.5,73.1,134.7,20.8ZM85.8,93.6c-5.6,0-7.2-3.4-7.7-5.7-.2-.9-1-1-1.9-1H67.8c-.9,0-1.7,0-1.9,1-.5,2.3-2.1,6-7.7,6-13.8,0-27.9-20.8-15.8-27.7,10.6-6,48.4-6.1,59.1-.1C113.6,73,99.6,93.6,85.8,93.6Z" style="fill:none;stroke:#000;stroke-linejoin:round;stroke-width:6px"/><rect width="144" height="144" style="fill:none"/></svg>