<svg xmlns="http://www.w3.org/2000/svg" viewBox="0 0 144 144"><polyline points="101.1 27 117 27 141 99 3 99 27 27 43 27" style="fill:none;stroke:#000;stroke-linejoin:round;stroke-width:6px"/><path d="M141,126a8.9626,8.9626,0,0,1-9,9H12a8.9626,8.9626,0,0,1-9-9V99H141Z" style="fill:none;stroke:#000;stroke-linecap:round;stroke-linejoin:round;stroke-width:6px"/><line x1="19" y1="51" x2="125" y2="51" style="fill:none;stroke:#000;stroke-linecap:round;stroke-linejoin:round;stroke-width:6px"/><polygon points="105 39 39 39 45 21 99 21 105 39" style="fill:none;stroke:#000;stroke-linecap:round;stroke-linejoin:round;stroke-width:6px"/><path d="M27,27V12a8.9626,8.9626,0,0,1,9-9h72a8.9626,8.9626,0,0,1,9,9V27" style="fill:none;stroke:#000;stroke-linecap:round;stroke-linejoin:round;stroke-width:6px"/><line x1="21" y1="135" x2="21" y2="141" style="fill:none;stroke:#000;stroke-linecap:round;stroke-linejoin:round;stroke-width:6px"/><line x1="123" y1="135" x2="123" y2="141" style="fill:none;stroke:#000;stroke-linecap:round;stroke-linejoin:round;stroke-width:6px"/><rect width="144" height="144" style="fill:none"/></svg>