<svg xmlns="http://www.w3.org/2000/svg" viewBox="0 0 144 144"><polyline points="116.8 27 129 27 141 99 3 99 15 27 28.7 27" style="fill:none;stroke:#000;stroke-linejoin:round;stroke-width:6px"/><path d="M141,126a8.9626,8.9626,0,0,1-9,9H12a8.9626,8.9626,0,0,1-9-9V99H141Z" style="fill:none;stroke:#000;stroke-linecap:round;stroke-linejoin:round;stroke-width:6px"/><line x1="13" y1="51" x2="131" y2="51" style="fill:none;stroke:#000;stroke-linecap:round;stroke-linejoin:round;stroke-width:6px"/><polygon points="63.3 39 27 39 29.5 21 63.6 21 63.3 39" style="fill:none;stroke:#000;stroke-linecap:round;stroke-linejoin:round;stroke-width:6px"/><polygon points="82.3 39 118.5 39 116 21 81.9 21 82.3 39" style="fill:none;stroke:#000;stroke-linecap:round;stroke-linejoin:round;stroke-width:6px"/><path d="M15,27V12a8.9626,8.9626,0,0,1,9-9h96a8.9626,8.9626,0,0,1,9,9V27" style="fill:none;stroke:#000;stroke-linecap:round;stroke-linejoin:round;stroke-width:6px"/><line x1="21" y1="135" x2="21" y2="141" style="fill:none;stroke:#000;stroke-linecap:round;stroke-linejoin:round;stroke-width:6px"/><line x1="123" y1="135" x2="123" y2="141" style="fill:none;stroke:#000;stroke-linecap:round;stroke-linejoin:round;stroke-width:6px"/><line x1="63.6" y1="27.7" x2="81.9" y2="27.7" style="fill:none;stroke:#000;stroke-linecap:round;stroke-linejoin:round;stroke-width:6px"/><rect width="144" height="144" style="fill:none"/></svg>