<svg xmlns="http://www.w3.org/2000/svg" viewBox="0 0 144 144"><path d="M99,135a12.0353,12.0353,0,0,0-12-12H63a12.0353,12.0353,0,0,0-12,12v6H99Z" style="fill:none;stroke:#000;stroke-linejoin:round;stroke-width:6px"/><line x1="42" y1="39" x2="108" y2="39" style="fill:none;stroke:#000;stroke-linejoin:round;stroke-width:6px"/><path d="M87,54a3,3,0,1,0,3,3,2.9465,2.9465,0,0,0-3-3Z" style="fill:#000"/><path d="M75,66a3,3,0,1,0,3,3,2.9465,2.9465,0,0,0-3-3Z" style="fill:#000"/><path d="M60,48a3,3,0,1,0,3,3,2.9465,2.9465,0,0,0-3-3Z" style="fill:#000"/><path d="M72,87a3,3,0,1,0,3,3,2.9465,2.9465,0,0,0-3-3Z" style="fill:#000"/><path d="M108.7,38.3a11.56,11.56,0,0,1-3.7.7A12.0353,12.0353,0,0,1,93,27a11.3224,11.3224,0,0,1,1.7-6H39.2c.8,18.4,5.2,29.4,13,48C58,82.9,60,114,54,126v1.1a11.95,11.95,0,0,1,9-4.1H87a11.95,11.95,0,0,1,9,4.1V126c-3-12-4-43.1,1.8-57C103,56.9,106.6,48.1,108.7,38.3Z" style="fill:none;stroke:#000;stroke-linejoin:round;stroke-width:6px"/><path d="M105,3H41.4c-11.6.2-11,18,.6,18H94.7A12.3008,12.3008,0,0,0,93,27a12.0353,12.0353,0,0,0,12,12,11.3224,11.3224,0,0,0,6-1.7V51a6,6,0,0,0,12,0V21A17.9886,17.9886,0,0,0,105,3Z" style="fill:none;stroke:#000;stroke-linejoin:round;stroke-width:6px"/><rect width="144" height="144" style="fill:none"/></svg>