<svg xmlns="http://www.w3.org/2000/svg" viewBox="0 0 144 144"><path d="M111,18a23.8676,23.8676,0,0,0-12.4,3.5,32.93,32.93,0,0,0-59.2,0A23.9825,23.9825,0,1,0,27,66a19.5292,19.5292,0,0,0,3.4-.3A12.4227,12.4227,0,0,0,30,69a15,15,0,0,0,30,0c0-.4-.1-.9-.1-1.3A34.4915,34.4915,0,0,0,69,69,32.8528,32.8528,0,0,0,93.3,58.2,23.9977,23.9977,0,1,0,111,18Z" style="fill:none;stroke:#000;stroke-linejoin:round;stroke-width:6px"/><path d="M109.7,111h14.1c6.1,0,11.1-5.4,11.1-12V81a12.0353,12.0353,0,0,0-12-12h-18" style="fill:none;stroke:#000;stroke-linejoin:round;stroke-width:6px"/><path d="M123,132a8.9626,8.9626,0,0,1-9,9H24a8.9626,8.9626,0,0,1-9-9h0a9.0264,9.0264,0,0,1,9-9h90a9.0264,9.0264,0,0,1,9,9Z" style="fill:none;stroke:#000;stroke-linecap:round;stroke-linejoin:round;stroke-width:6px"/><line x1="33" y1="78" x2="27" y2="123" style="fill:none;stroke:#000;stroke-linecap:round;stroke-linejoin:round;stroke-width:6px"/><line x1="105" y1="65.2" x2="111" y2="123" style="fill:none;stroke:#000;stroke-linecap:round;stroke-linejoin:round;stroke-width:6px"/><line x1="87" y1="81" x2="90" y2="111" style="fill:none;stroke:#000;stroke-linecap:round;stroke-linejoin:round;stroke-width:6px"/><line x1="69" y1="81" x2="69" y2="111" style="fill:none;stroke:#000;stroke-linecap:round;stroke-linejoin:round;stroke-width:6px"/><line x1="51" y1="84" x2="48" y2="111" style="fill:none;stroke:#000;stroke-linecap:round;stroke-linejoin:round;stroke-width:6px"/><rect width="144" height="144" style="fill:none"/></svg>