<svg xmlns="http://www.w3.org/2000/svg" viewBox="0 0 144 144"><path d="M93,48c0-18.4,36-24,36,18,0,24-12,69-30,69-12,0-11.7-8.5-11.7-8.5" style="fill:none;stroke:#000;stroke-linejoin:round;stroke-width:6px"/><path d="M51,48c-.3-18-36-24-36,18,0,24,12.3,69,30.3,69,12,0,11.7-8.5,11.7-8.5" style="fill:none;stroke:#000;stroke-linejoin:round;stroke-width:6px"/><path d="M75,33V21c0-6.6-2.4-12-9-12H60" style="fill:none;stroke:#000;stroke-linecap:round;stroke-linejoin:round;stroke-width:6px"/><path d="M49.5,57A22.736,22.736,0,0,1,72,33a22.5423,22.5423,0,0,1,16.4,7.1,22.2423,22.2423,0,0,1,6.1,16.8L91,117.1a19.0278,19.0278,0,0,1-38,0Z" style="fill:none;stroke:#000;stroke-linejoin:round;stroke-width:6px"/><rect width="144" height="144" style="fill:none"/></svg>