<svg xmlns="http://www.w3.org/2000/svg" viewBox="0 0 144 144"><path d="M73.1,111h-9c-8.4-22.8-22-42.5-39-60,0,0,18,6,48,6s48-6,48-6c-17,17.5-30.6,37.2-39,60Z" style="fill:none;stroke:#000;stroke-linecap:round;stroke-linejoin:round;stroke-width:6px"/><path d="M133.9,46.8c-3.5,3.5-12.7,4.2-12.7,4.2s.7-9.2,4.2-12.7,8.3-4.5,10.6-2.1S137.4,43.2,133.9,46.8Z" style="fill:none;stroke:#000;stroke-linecap:round;stroke-linejoin:round;stroke-width:6px"/><path d="M133.9,55.2c-3.5-3.5-12.7-4.2-12.7-4.2s.7,9.2,4.2,12.7,8.3,4.5,10.6,2.1C138.3,63.5,137.4,58.8,133.9,55.2Z" style="fill:none;stroke:#000;stroke-linecap:round;stroke-linejoin:round;stroke-width:6px"/><path d="M12.4,46.8C15.9,50.3,25.1,51,25.1,51s-.7-9.2-4.2-12.7-8.3-4.5-10.6-2.1C7.9,38.5,8.9,43.2,12.4,46.8Z" style="fill:none;stroke:#000;stroke-linecap:round;stroke-linejoin:round;stroke-width:6px"/><path d="M12.4,55.2C15.9,51.7,25.1,51,25.1,51s-.7,9.2-4.2,12.7-8.3,4.5-10.6,2.1C7.9,63.5,8.9,58.8,12.4,55.2Z" style="fill:none;stroke:#000;stroke-linecap:round;stroke-linejoin:round;stroke-width:6px"/><line x1="27" y1="52.9" x2="21" y2="85.9" style="fill:none;stroke:#000;stroke-linecap:round;stroke-linejoin:round;stroke-width:6px"/><line x1="119.3" y1="52.9" x2="125.3" y2="85.9" style="fill:none;stroke:#000;stroke-linecap:round;stroke-linejoin:round;stroke-width:6px"/><rect width="144" height="144" style="fill:none"/></svg>