<svg xmlns="http://www.w3.org/2000/svg" viewBox="0 0 144 144"><circle cx="33" cy="105.2" r="30" style="fill:none;stroke:#000;stroke-linecap:round;stroke-linejoin:round;stroke-width:6px"/><path d="M63,36.2v-24c-4.5-4.5-13.5-4.5-18,0l-9,24-9,9L9,87.2" style="fill:none;stroke:#000;stroke-linecap:round;stroke-linejoin:round;stroke-width:6px"/><circle cx="111" cy="105.2" r="30" style="fill:none;stroke:#000;stroke-linecap:round;stroke-linejoin:round;stroke-width:6px"/><path d="M81,36.2V12.6c4.5-4.5,13.5-4.5,18,0l9,23.6,9,9,18,42" style="fill:none;stroke:#000;stroke-linecap:round;stroke-linejoin:round;stroke-width:6px"/><path d="M48,60.2c0-6.6,10.7-12,24-12s24,5.4,24,12" style="fill:none;stroke:#000;stroke-linecap:round;stroke-linejoin:round;stroke-width:6px"/><line x1="63" y1="105.2" x2="63" y2="49.1" style="fill:none;stroke:#000;stroke-linecap:round;stroke-linejoin:round;stroke-width:6px"/><line x1="81" y1="105.2" x2="81" y2="49.1" style="fill:none;stroke:#000;stroke-linecap:round;stroke-linejoin:round;stroke-width:6px"/><path d="M15,105.2a18.0529,18.0529,0,0,1,18-18" style="fill:none;stroke:#000;stroke-linecap:round;stroke-linejoin:round;stroke-width:6px"/><path d="M93,105.2a18.0529,18.0529,0,0,1,18-18" style="fill:none;stroke:#000;stroke-linecap:round;stroke-linejoin:round;stroke-width:6px"/><rect width="144" height="144" style="fill:none"/></svg>