<svg xmlns="http://www.w3.org/2000/svg" viewBox="0 0 144 144"><line x1="3" y1="141" x2="141" y2="141" style="fill:none;stroke:#000;stroke-linecap:round;stroke-linejoin:round;stroke-width:6px"/><path d="M9,78v39a12.0353,12.0353,0,0,0,12,12H123a12.0353,12.0353,0,0,0,12-12V78" style="fill:none;stroke:#000;stroke-linecap:round;stroke-linejoin:round;stroke-width:6px"/><path d="M9,78c0,8.3,9,15,15,15s15-6.7,15-15c0,9.1,9,16.5,16.5,16.5S72,87.1,72,78c0,9.1,9,16.5,16.5,16.5S105,87.1,105,78c0,8.3,9,15,15,15s15-6.7,15-15V63H9Z" style="fill:none;stroke:#000;stroke-linecap:round;stroke-linejoin:round;stroke-width:6px"/><path d="M42,18a9,9,0,0,1-18,0c0-5,9-15,9-15S42,13,42,18Z" style="fill:none;stroke:#000;stroke-linecap:round;stroke-linejoin:round;stroke-width:6px"/><path d="M120,18a9,9,0,0,1-18,0c0-5,9-15,9-15S120,13,120,18Z" style="fill:none;stroke:#000;stroke-linecap:round;stroke-linejoin:round;stroke-width:6px"/><path d="M78,18a9,9,0,0,1-18,0c0-5,9-15,9-15S78,13,78,18Z" style="fill:none;stroke:#000;stroke-linecap:round;stroke-linejoin:round;stroke-width:6px"/><rect x="63" y="39" width="12" height="24" style="fill:none;stroke:#000;stroke-linecap:round;stroke-linejoin:round;stroke-width:6px"/><rect x="27" y="39" width="12" height="24" style="fill:none;stroke:#000;stroke-linecap:round;stroke-linejoin:round;stroke-width:6px"/><rect x="105" y="39" width="12" height="24" style="fill:none;stroke:#000;stroke-linecap:round;stroke-linejoin:round;stroke-width:6px"/><rect width="144" height="144" style="fill:none"/></svg>