<svg xmlns="http://www.w3.org/2000/svg" viewBox="0 0 144 144"><path d="M9,105V30a8.9626,8.9626,0,0,1,9-9H126a8.9626,8.9626,0,0,1,9,9v75" style="fill:none;stroke:#000;stroke-linecap:round;stroke-linejoin:round;stroke-width:6px"/><path d="M87,105v6H57v-6H3v12a6.0176,6.0176,0,0,0,6,6H135a6.0176,6.0176,0,0,0,6-6V105Z" style="fill:none;stroke:#000;stroke-linecap:round;stroke-linejoin:round;stroke-width:6px"/><line x1="63" y1="33.1" x2="63" y2="45" style="fill:none;stroke:#000;stroke-linecap:round;stroke-linejoin:round;stroke-width:6px"/><line x1="75" y1="33.1" x2="75" y2="45" style="fill:none;stroke:#000;stroke-linecap:round;stroke-linejoin:round;stroke-width:6px"/><line x1="63" y1="81.1" x2="63" y2="93" style="fill:none;stroke:#000;stroke-linecap:round;stroke-linejoin:round;stroke-width:6px"/><line x1="75" y1="81.1" x2="75" y2="93" style="fill:none;stroke:#000;stroke-linecap:round;stroke-linejoin:round;stroke-width:6px"/><path d="M87,54a8.9626,8.9626,0,0,1-9,9H57V45H78A8.9626,8.9626,0,0,1,87,54Z" style="fill:none;stroke:#000;stroke-linecap:round;stroke-linejoin:round;stroke-width:6px"/><path d="M87,72a8.9626,8.9626,0,0,1-9,9H57V63H78A8.9626,8.9626,0,0,1,87,72Z" style="fill:none;stroke:#000;stroke-linecap:round;stroke-linejoin:round;stroke-width:6px"/><rect width="144" height="144" style="fill:none"/></svg>