<svg xmlns="http://www.w3.org/2000/svg" viewBox="0 0 144 144"><path d="M127.8,72.9a20.9338,20.9338,0,0,0-21.9-27.7A35.9351,35.9351,0,0,0,36,57a33.1,33.1,0,0,0,0,66.2h78a27.0594,27.0594,0,0,0,13.8-50.3Z" style="fill:none;stroke:#000;stroke-linecap:round;stroke-linejoin:round;stroke-width:6px"/><path d="M93,66a8.9626,8.9626,0,0,1-9,9H63V57H84A8.9626,8.9626,0,0,1,93,66Z" style="fill:none;stroke:#000;stroke-linecap:round;stroke-linejoin:round;stroke-width:6px"/><path d="M93,84a8.9626,8.9626,0,0,1-9,9H63V75H84A8.9626,8.9626,0,0,1,93,84Z" style="fill:none;stroke:#000;stroke-linecap:round;stroke-linejoin:round;stroke-width:6px"/><line x1="69" y1="45" x2="69" y2="57" style="fill:none;stroke:#000;stroke-linecap:round;stroke-linejoin:round;stroke-width:6px"/><line x1="81" y1="45" x2="81" y2="57" style="fill:none;stroke:#000;stroke-linecap:round;stroke-linejoin:round;stroke-width:6px"/><line x1="69" y1="93" x2="69" y2="105" style="fill:none;stroke:#000;stroke-linecap:round;stroke-linejoin:round;stroke-width:6px"/><line x1="81" y1="93" x2="81" y2="105" style="fill:none;stroke:#000;stroke-linecap:round;stroke-linejoin:round;stroke-width:6px"/><rect width="144" height="144" style="fill:none"/></svg>