<svg xmlns="http://www.w3.org/2000/svg" viewBox="0 0 144 144"><line x1="63" y1="39.1" x2="63" y2="51" style="fill:none;stroke:#000;stroke-linecap:round;stroke-linejoin:round;stroke-width:6px"/><line x1="75" y1="39.1" x2="75" y2="51" style="fill:none;stroke:#000;stroke-linecap:round;stroke-linejoin:round;stroke-width:6px"/><line x1="63" y1="87.1" x2="63" y2="99" style="fill:none;stroke:#000;stroke-linecap:round;stroke-linejoin:round;stroke-width:6px"/><line x1="75" y1="87.1" x2="75" y2="99" style="fill:none;stroke:#000;stroke-linecap:round;stroke-linejoin:round;stroke-width:6px"/><path d="M87,60a8.9626,8.9626,0,0,1-9,9H57V51H78A8.9626,8.9626,0,0,1,87,60Z" style="fill:none;stroke:#000;stroke-linecap:round;stroke-linejoin:round;stroke-width:6px"/><path d="M87,78a8.9626,8.9626,0,0,1-9,9H57V69H78A8.9626,8.9626,0,0,1,87,78Z" style="fill:none;stroke:#000;stroke-linecap:round;stroke-linejoin:round;stroke-width:6px"/><circle cx="69" cy="69" r="42" style="fill:none;stroke:#000;stroke-linejoin:round;stroke-width:6px"/><circle cx="69" cy="69" r="66" style="fill:none;stroke:#000;stroke-linejoin:round;stroke-width:6px"/><path d="M47.1,104.8a122.2861,122.2861,0,0,0,19.2,30.1" style="fill:none;stroke:#000;stroke-miterlimit:10;stroke-width:6px"/><path d="M66.2,3.1A127.4873,127.4873,0,0,0,47,33.2" style="fill:none;stroke:#000;stroke-miterlimit:10;stroke-width:6px"/><line x1="13.7" y1="33" x2="47.1" y2="33" style="fill:none;stroke:#000;stroke-linejoin:round;stroke-width:6px"/><line x1="3" y1="69" x2="27" y2="69" style="fill:none;stroke:#000;stroke-linejoin:round;stroke-width:6px"/><line x1="10.2" y1="99" x2="39.6" y2="99" style="fill:none;stroke:#000;stroke-linejoin:round;stroke-width:6px"/><path d="M90.9,104.8a122.2861,122.2861,0,0,1-19.2,30.1" style="fill:none;stroke:#000;stroke-miterlimit:10;stroke-width:6px"/><path d="M71.8,3.1A127.4873,127.4873,0,0,1,91,33.2" style="fill:none;stroke:#000;stroke-miterlimit:10;stroke-width:6px"/><line x1="124.3" y1="33" x2="90.9" y2="33" style="fill:none;stroke:#000;stroke-linejoin:round;stroke-width:6px"/><line x1="135" y1="69" x2="111" y2="69" style="fill:none;stroke:#000;stroke-linejoin:round;stroke-width:6px"/><line x1="127.8" y1="99" x2="98.4" y2="99" style="fill:none;stroke:#000;stroke-linejoin:round;stroke-width:6px"/><rect width="144" height="144" style="fill:none"/></svg>