<svg xmlns="http://www.w3.org/2000/svg" viewBox="0 0 144 144"><polygon points="111 135 33 135 45 93 99 93 111 135" style="fill:none;stroke:#000;stroke-linejoin:round;stroke-width:6px"/><polygon points="51 93 33 21 111 21 93 93 51 93" style="fill:none;stroke:#000;stroke-linejoin:round;stroke-width:6px"/><line x1="87" y1="135" x2="87" y2="141" style="fill:none;stroke:#000;stroke-linecap:round;stroke-linejoin:round;stroke-width:6px"/><line x1="57" y1="135" x2="57" y2="141" style="fill:none;stroke:#000;stroke-linecap:round;stroke-linejoin:round;stroke-width:6px"/><polygon points="33 21 42 3 102 3 111 21 33 21" style="fill:none;stroke:#000;stroke-linejoin:round;stroke-width:6px"/><path d="M108,33h9a12.0353,12.0353,0,0,1,12,12V72" style="fill:none;stroke:#000;stroke-linecap:round;stroke-linejoin:round;stroke-width:6px"/><circle cx="72" cy="117" r="6" style="fill:none;stroke:#000;stroke-linecap:round;stroke-linejoin:round;stroke-width:6px"/><path d="M57,102a3,3,0,1,0,3,3,2.9465,2.9465,0,0,0-3-3Z" style="fill:#000"/><path d="M87,102a3,3,0,1,0,3,3,2.9465,2.9465,0,0,0-3-3Z" style="fill:#000"/><line x1="63" y1="93" x2="63" y2="51" style="fill:none;stroke:#000;stroke-linecap:round;stroke-linejoin:round;stroke-width:6px"/><line x1="81" y1="93" x2="81" y2="51" style="fill:none;stroke:#000;stroke-linecap:round;stroke-linejoin:round;stroke-width:6px"/><rect width="144" height="144" style="fill:none"/></svg>