<svg xmlns="http://www.w3.org/2000/svg" viewBox="0 0 144 144"><path d="M129,141c-6,0-12-5.4-12-12,0,6.6-6,12-12,12s-12-5.4-12-12c0,6.6-6,12-12,12s-12-5.4-12-12c0,6.6-6,12-12,12s-12-5.4-12-12c0,6.6-6,12-12,12s-12-5.4-12-12c0,6.6-6,12-12,12" style="fill:none;stroke:#000;stroke-linecap:round;stroke-linejoin:round;stroke-width:6px"/><path d="M129,117c-6,0-12-5.4-12-12,0,6.6-6,12-12,12s-12-5.4-12-12c0,6.6-6,12-12,12s-12-5.4-12-12c0,6.6-6,12-12,12s-12-5.4-12-12c0,6.6-6,12-12,12s-12-5.4-12-12c0,6.6-6,12-12,12" style="fill:none;stroke:#000;stroke-linecap:round;stroke-linejoin:round;stroke-width:6px"/><path d="M105,93c6-3,9-12,9-18H18c0,6.4,3,15,10.1,18" style="fill:none;stroke:#000;stroke-linecap:round;stroke-linejoin:round;stroke-width:6px"/><line x1="63" y1="75" x2="63" y2="3" style="fill:none;stroke:#000;stroke-linecap:round;stroke-linejoin:round;stroke-width:6px"/><polygon points="105 57 63 57 63 6 105 57" style="fill:none;stroke:#000;stroke-linecap:round;stroke-linejoin:round;stroke-width:6px"/><line x1="63" y1="57" x2="111" y2="57" style="fill:none;stroke:#000;stroke-linecap:round;stroke-linejoin:round;stroke-width:6px"/><rect width="144" height="144" style="fill:none"/></svg>