<svg xmlns="http://www.w3.org/2000/svg" viewBox="0 0 144 144.1"><line x1="12" y1="15.1" x2="126" y2="15.1" style="fill:none;stroke:#000;stroke-linecap:round;stroke-linejoin:round;stroke-width:6px"/><polyline points="89.6 128.8 108 99.1 69 87.1 30 99.1 48.6 128.8" style="fill:none;stroke:#000;stroke-linejoin:round;stroke-width:6px"/><path d="M24,15h90l12,54c-33,8-78.9,8-114,0Z" transform="translate(0 0.1)" style="fill:none;stroke:#000;stroke-linejoin:round;stroke-width:6px"/><line x1="69" y1="87.1" x2="69" y2="75.1" style="fill:none;stroke:#000;stroke-linecap:round;stroke-linejoin:round;stroke-width:6px"/><line x1="69" y1="15" x2="69" y2="3" style="fill:none;stroke:#000;stroke-linecap:round;stroke-linejoin:round;stroke-width:6px"/><path d="M3,129c14.7,3.1,27-12,27-12s7,11.9,21,11.9A24.5926,24.5926,0,0,0,72,117a24.4,24.4,0,0,0,21,11.9c14,0,21-11.9,21-11.9s12.3,15.1,27,12v12H3Z" transform="translate(0 0.1)" style="fill:none;stroke:#000;stroke-linecap:round;stroke-linejoin:round;stroke-width:6px"/><rect y="0.1" width="144" height="144" style="fill:none"/></svg>