<svg xmlns="http://www.w3.org/2000/svg" viewBox="0 0 144 144"><path d="M17.6,127A72.151,72.151,0,0,1,6,99.2l132-.1a69.718,69.718,0,0,1-11.3,27.5" style="fill:none;stroke:#000;stroke-linejoin:round;stroke-width:6px"/><polygon points="69 98.9 9.2 75.3 69 3.9 69 98.9" style="fill:none;stroke:#000;stroke-linejoin:round;stroke-width:6px"/><polygon points="81 98.9 122.8 75.3 81 21.9 81 98.9" style="fill:none;stroke:#000;stroke-linejoin:round;stroke-width:6px"/><path d="M3,129c14.7,3.1,27-12,27-12s7,11.9,21,11.9A24.5926,24.5926,0,0,0,72,117a24.4,24.4,0,0,0,21,11.9c14,0,21-11.9,21-11.9s12.3,15.1,27,12v12H3Z" style="fill:none;stroke:#000;stroke-linecap:round;stroke-linejoin:round;stroke-width:6px"/><rect width="144" height="144" style="fill:none"/></svg>