<svg xmlns="http://www.w3.org/2000/svg" viewBox="0 0 144 144.15"><path d="M120,139.5c-4.4,2.8-12,.9-12-5.1,0-9-15-9-15,0s-15,9-15,0-15-9-15,0-15,9-15,0-15-9-15,0c0,6-7.7,8.1-12,5.3" style="fill:none;stroke:#000;stroke-linecap:round;stroke-linejoin:round;stroke-width:6px"/><line x1="69" y1="127.7" x2="69" y2="56.4" style="fill:none;stroke:#000;stroke-linecap:round;stroke-linejoin:round;stroke-width:6px"/><polyline points="18 68.4 69 56.4 120 68.4" style="fill:none;stroke:#000;stroke-linecap:round;stroke-linejoin:round;stroke-width:6px"/><line x1="24" y1="66.9" x2="39.2" y2="127.7" style="fill:none;stroke:#000;stroke-linejoin:round;stroke-width:6px"/><line x1="114" y1="66.9" x2="98.8" y2="127.8" style="fill:none;stroke:#000;stroke-linejoin:round;stroke-width:6px"/><path d="M33,64.8V45.1a12.0353,12.0353,0,0,1,12-12H93a12.0353,12.0353,0,0,1,12,12V64.8" style="fill:none;stroke:#000;stroke-linecap:round;stroke-linejoin:round;stroke-width:6px"/><line x1="54" y1="45" x2="84" y2="45" style="fill:none;stroke:#000;stroke-linecap:round;stroke-linejoin:round;stroke-width:6px"/><polyline points="57 33 57 3 81 3 81 33" style="fill:none;stroke:#000;stroke-linecap:round;stroke-linejoin:round;stroke-width:6px"/><line x1="57" y1="21" x2="81" y2="21" style="fill:none;stroke:#000;stroke-linecap:round;stroke-linejoin:round;stroke-width:6px"/><polyline points="28.9 86.8 69 74.4 108.9 86.7" style="fill:none;stroke:#000;stroke-linecap:round;stroke-linejoin:round;stroke-width:6px"/><rect width="144" height="144" style="fill:none"/></svg>