<svg xmlns="http://www.w3.org/2000/svg" viewBox="0 0 144 144"><polyline points="124.6 125.5 141 93.1 21 93.1 9 129.1" style="fill:none;stroke:#000;stroke-linejoin:round;stroke-width:6px"/><polygon points="96 51.1 24.9 51 9.4 69.1 39 69.1 33 93.1 129 93.1 96 51.1" style="fill:none;stroke:#000;stroke-linejoin:round;stroke-width:6px"/><polyline points="105 63.1 57 63.1 75 81.1 120 81.1" style="fill:none;stroke:#000;stroke-linejoin:round;stroke-width:6px"/><line x1="78" y1="51.1" x2="54" y2="27.1" style="fill:none;stroke:#000;stroke-linecap:round;stroke-linejoin:round;stroke-width:6px"/><path d="M3,129c14.7,3.1,27-12,27-12s7,11.9,21,11.9A24.5926,24.5926,0,0,0,72,117a24.4,24.4,0,0,0,21,11.9c14,0,21-11.9,21-11.9s12.3,15.1,27,12v12H3Z" style="fill:none;stroke:#000;stroke-linecap:round;stroke-linejoin:round;stroke-width:6px"/><rect width="144" height="144" style="fill:none"/></svg>