<svg xmlns="http://www.w3.org/2000/svg" viewBox="0 0 144 144"><path d="M122,81c.2-2,.2-10,.2-12,0-33.1-21.5-66-48-66s-48,32.9-48,66c0,2,.1,10,.2,12Z" style="fill:none;stroke:#000;stroke-linejoin:round;stroke-width:6px"/><path d="M74.2,18.8c-16.3,0-29.5,21.3-29.5,41.7" style="fill:none;stroke:#000;stroke-linecap:round;stroke-linejoin:round;stroke-width:6px"/><path d="M23.2,141h102a12.0353,12.0353,0,0,0-12-12h-12c15.3-10.9,26.4-30.6,29.2-48H18c2.9,17.4,14,37.1,29.2,48h-12A12.0353,12.0353,0,0,0,23.2,141Z" style="fill:none;stroke:#000;stroke-linecap:round;stroke-linejoin:round;stroke-width:6px"/><line x1="47.2" y1="129" x2="101.2" y2="129" style="fill:none;stroke:#000;stroke-linecap:round;stroke-linejoin:round;stroke-width:6px"/><rect width="144" height="144" style="fill:none"/></svg>