<svg xmlns="http://www.w3.org/2000/svg" viewBox="0 0 144 144"><path d="M3,103.5A37.5137,37.5137,0,0,0,40.5,141h39A37.5137,37.5137,0,0,0,117,103.5V39A29.96,29.96,0,0,0,87,69V21A35.9773,35.9773,0,0,0,51,57V21A48.0124,48.0124,0,0,0,3,69Z" style="fill:none;stroke:#000;stroke-linecap:round;stroke-linejoin:round;stroke-width:6px"/><path d="M69,105a24,24,0,0,1-48,0Z" style="fill:none;stroke:#000;stroke-linecap:round;stroke-linejoin:round;stroke-width:6px"/><line x1="27" y1="75" x2="27" y2="93" style="fill:none;stroke:#000;stroke-linecap:round;stroke-linejoin:round;stroke-width:6px"/><line x1="57" y1="75" x2="57" y2="93" style="fill:none;stroke:#000;stroke-linecap:round;stroke-linejoin:round;stroke-width:6px"/><path d="M63,12A16.29,16.29,0,0,1,78,3h9" style="fill:none;stroke:#000;stroke-linecap:round;stroke-linejoin:round;stroke-width:6px"/><path d="M102,15a16.29,16.29,0,0,1,15-9h9" style="fill:none;stroke:#000;stroke-linecap:round;stroke-linejoin:round;stroke-width:6px"/><path d="M117,30a16.29,16.29,0,0,1,15-9h9" style="fill:none;stroke:#000;stroke-linecap:round;stroke-linejoin:round;stroke-width:6px"/><rect width="144" height="144" style="fill:none"/></svg>