<svg xmlns="http://www.w3.org/2000/svg" viewBox="0 0 144 144"><path d="M39,33V46.5A16.5163,16.5163,0,0,0,55.5,63H99A30,30,0,0,0,99,3H45A29.96,29.96,0,0,0,15,33V72a53.9143,53.9143,0,0,0,24,44.9H99A53.9143,53.9143,0,0,0,123,72V51" style="fill:none;stroke:#000;stroke-linecap:round;stroke-linejoin:round;stroke-width:6px"/><path d="M84,90a31.875,31.875,0,0,0,0-27" style="fill:none;stroke:#000;stroke-linecap:round;stroke-linejoin:round;stroke-width:6px"/><polyline points="39 117 39 141 99 141 99 117" style="fill:none;stroke:#000;stroke-linecap:round;stroke-linejoin:round;stroke-width:6px"/><line x1="84" y1="141" x2="84" y2="126" style="fill:none;stroke:#000;stroke-linecap:round;stroke-linejoin:round;stroke-width:6px"/><rect width="144" height="144" style="fill:none"/></svg>