<svg xmlns="http://www.w3.org/2000/svg" viewBox="0 0 144 144"><path d="M73.3,86.5,55.7,104.1a6.8474,6.8474,0,0,1,2.1,1.5,17.7149,17.7149,0,0,1-.1,25.1,17.9564,17.9564,0,0,1-25.3-.1,17.73,17.73,0,0,1-4.8-16.1,17.6266,17.6266,0,0,1-16-29.8c6.9-6.9,18.5-6.6,25.5.3a21.3327,21.3327,0,0,1,2.5,3L57.2,70.4l3.5,12Z" style="fill:none;stroke:#000;stroke-linejoin:round;stroke-width:6px"/><path d="M98,74.6l13.1-22.5a6.4332,6.4332,0,0,0,2,1.6,17.7092,17.7092,0,0,0,24.2-6.5,17.8989,17.8989,0,0,0-23.4-25,17.83,17.83,0,0,0-33.2-8c-5,8.5-1.3,19.8,7.2,24.8.9.5,3.4,1.8,3.5,1.6L78.3,63.1l12.3.6Z" style="fill:none;stroke:#000;stroke-linejoin:round;stroke-width:6px"/><line x1="45" y1="57" x2="33" y2="57" style="fill:none;stroke:#000;stroke-linecap:round;stroke-linejoin:round;stroke-width:6px"/><line x1="63" y1="39" x2="63" y2="27" style="fill:none;stroke:#000;stroke-linecap:round;stroke-linejoin:round;stroke-width:6px"/><line x1="49.9" y1="43.2" x2="40.2" y2="36.1" style="fill:none;stroke:#000;stroke-linecap:round;stroke-linejoin:round;stroke-width:6px"/><line x1="111" y1="87" x2="123" y2="87" style="fill:none;stroke:#000;stroke-linecap:round;stroke-linejoin:round;stroke-width:6px"/><line x1="93" y1="105" x2="93" y2="117" style="fill:none;stroke:#000;stroke-linecap:round;stroke-linejoin:round;stroke-width:6px"/><line x1="106.2" y1="100.8" x2="115.9" y2="107.9" style="fill:none;stroke:#000;stroke-linecap:round;stroke-linejoin:round;stroke-width:6px"/><rect width="144" height="144" style="fill:none"/></svg>