<svg xmlns="http://www.w3.org/2000/svg" viewBox="0 0 144 144"><path d="M56.5,108a9.2957,9.2957,0,0,1-9,9,9,9,0,0,1,0-18h9Z" style="fill:none;stroke:#000;stroke-linejoin:round;stroke-width:6px"/><path d="M92.5,89.9a9.2957,9.2957,0,0,1-9,9,9,9,0,0,1,0-18h9Z" style="fill:none;stroke:#000;stroke-linejoin:round;stroke-width:6px"/><polyline points="56.5 101.9 56.5 61.7 92.5 45 92.5 83.9" style="fill:none;stroke:#000;stroke-linejoin:round;stroke-width:6px"/><path d="M129,3H27a12,12,0,0,0,0,24H129V141H27a12.0353,12.0353,0,0,1-12-12V15" style="fill:none;stroke:#000;stroke-linecap:round;stroke-linejoin:round;stroke-width:6px"/><line x1="27" y1="15" x2="123" y2="15" style="fill:none;stroke:#000;stroke-linecap:round;stroke-linejoin:round;stroke-width:6px"/><rect width="144" height="144" style="fill:none"/></svg>