<svg xmlns="http://www.w3.org/2000/svg" viewBox="0 0 144 144"><polyline points="33 15 105 15 105 27" style="fill:none;stroke:#000;stroke-linecap:round;stroke-linejoin:round;stroke-width:6px"/><path d="M117,27V3H33a12,12,0,0,0,0,24h90V141H33a12.0353,12.0353,0,0,1-12-12V15" style="fill:none;stroke:#000;stroke-linecap:round;stroke-linejoin:round;stroke-width:6px"/><path d="M62.7,68.7a7.122,7.122,0,0,0,0-10.1L55.1,51A7.122,7.122,0,0,0,45,51l-4.2,4.2a10.7447,10.7447,0,0,0-1.4,13.5,166.0463,166.0463,0,0,0,46.5,46.5,10.875,10.875,0,0,0,13.5-1.3l4.2-4.2a7.122,7.122,0,0,0,0-10.1L96,91.9a7.122,7.122,0,0,0-10.1,0l-2.5,2.5A169.55,169.55,0,0,1,60.2,71.2Z" style="fill:none;stroke:#000;stroke-linecap:round;stroke-linejoin:round;stroke-width:6px"/><rect width="144" height="144" style="fill:none"/></svg>