<svg xmlns="http://www.w3.org/2000/svg" viewBox="0 0 144 144"><path d="M134.4,132.7l6-10.4-6-3.5a19.9021,19.9021,0,0,0,0-9.7l6-3.5-6-10.4-6,3.5a21.9532,21.9532,0,0,0-8.4-4.8v-7H108v7a21.9532,21.9532,0,0,0-8.4,4.8l-6-3.5-6,10.4,6,3.5a19.9021,19.9021,0,0,0,0,9.7l-6,3.5,6,10.4,6-3.5A21.9532,21.9532,0,0,0,108,134v7h12v-7a21.9532,21.9532,0,0,0,8.4-4.8Z" style="fill:none;stroke:#000;stroke-linejoin:round;stroke-width:6px"/><circle cx="114" cy="114" r="9" style="fill:none;stroke:#000;stroke-linejoin:round;stroke-width:6px"/><polygon points="43.5 114.4 117.1 39.4 117.1 3 79.5 3 6 76.7 43.5 114.4" style="fill:none;stroke:#000;stroke-linejoin:round;stroke-width:6px"/><circle cx="95.9" cy="24.4" r="9" style="fill:none;stroke:#000;stroke-linejoin:round;stroke-width:6px"/><rect width="144" height="144" style="fill:none"/></svg>