<svg xmlns="http://www.w3.org/2000/svg" viewBox="0 0 144 144"><path d="M3,3V33A12.0353,12.0353,0,0,0,15,45H27A12.0353,12.0353,0,0,0,39,33V3" style="fill:none;stroke:#000;stroke-linecap:round;stroke-linejoin:round;stroke-width:6px"/><path d="M3,24V132c0,6.6,5.4,9,12,9H27c6.6,0,12-2.4,12-9V24" style="fill:none;stroke:#000;stroke-linejoin:round;stroke-width:6px"/><path d="M51,3V33A12.0353,12.0353,0,0,0,63,45H75A12.0353,12.0353,0,0,0,87,33V3" style="fill:none;stroke:#000;stroke-linecap:round;stroke-linejoin:round;stroke-width:6px"/><path d="M51,24V132c0,6.6,5.4,9,12,9H75c6.6,0,12-2.4,12-9V24" style="fill:none;stroke:#000;stroke-linejoin:round;stroke-width:6px"/><path d="M99,3V33a12.0353,12.0353,0,0,0,12,12h12a12.0353,12.0353,0,0,0,12-12V3" style="fill:none;stroke:#000;stroke-linecap:round;stroke-linejoin:round;stroke-width:6px"/><path d="M99,24V132c0,6.6,5.4,9,12,9h12c6.6,0,12-2.4,12-9V24" style="fill:none;stroke:#000;stroke-linejoin:round;stroke-width:6px"/><line x1="39" y1="117" x2="3" y2="117" style="fill:none;stroke:#000;stroke-linejoin:round;stroke-width:6px"/><line x1="39" y1="105" x2="3" y2="105" style="fill:none;stroke:#000;stroke-linejoin:round;stroke-width:6px"/><line x1="87" y1="117" x2="51" y2="117" style="fill:none;stroke:#000;stroke-linejoin:round;stroke-width:6px"/><line x1="87" y1="105" x2="51" y2="105" style="fill:none;stroke:#000;stroke-linejoin:round;stroke-width:6px"/><line x1="135" y1="117" x2="99" y2="117" style="fill:none;stroke:#000;stroke-linejoin:round;stroke-width:6px"/><line x1="135" y1="105" x2="99" y2="105" style="fill:none;stroke:#000;stroke-linejoin:round;stroke-width:6px"/><line x1="39" y1="81" x2="3" y2="81" style="fill:none;stroke:#000;stroke-linejoin:round;stroke-width:6px"/><line x1="39" y1="69" x2="3" y2="69" style="fill:none;stroke:#000;stroke-linejoin:round;stroke-width:6px"/><line x1="87" y1="81" x2="51" y2="81" style="fill:none;stroke:#000;stroke-linejoin:round;stroke-width:6px"/><line x1="87" y1="69" x2="51" y2="69" style="fill:none;stroke:#000;stroke-linejoin:round;stroke-width:6px"/><line x1="135" y1="81" x2="99" y2="81" style="fill:none;stroke:#000;stroke-linejoin:round;stroke-width:6px"/><line x1="135" y1="69" x2="99" y2="69" style="fill:none;stroke:#000;stroke-linejoin:round;stroke-width:6px"/><line x1="15" y1="33" x2="15" y2="9" style="fill:none;stroke:#000;stroke-linecap:round;stroke-linejoin:round;stroke-width:6px"/><line x1="27" y1="33" x2="27" y2="9" style="fill:none;stroke:#000;stroke-linecap:round;stroke-linejoin:round;stroke-width:6px"/><line x1="63" y1="33" x2="63" y2="9" style="fill:none;stroke:#000;stroke-linecap:round;stroke-linejoin:round;stroke-width:6px"/><line x1="75" y1="33" x2="75" y2="9" style="fill:none;stroke:#000;stroke-linecap:round;stroke-linejoin:round;stroke-width:6px"/><line x1="111" y1="33" x2="111" y2="9" style="fill:none;stroke:#000;stroke-linecap:round;stroke-linejoin:round;stroke-width:6px"/><line x1="123" y1="33" x2="123" y2="9" style="fill:none;stroke:#000;stroke-linecap:round;stroke-linejoin:round;stroke-width:6px"/><rect width="144" height="144" style="fill:none"/></svg>