<svg xmlns="http://www.w3.org/2000/svg" viewBox="0 0 144 144"><path d="M62,67.8a7.122,7.122,0,0,0,0-10.1l-7.6-7.6a7.122,7.122,0,0,0-10.1,0l-4.2,4.2a10.6048,10.6048,0,0,0-1.3,13.5,167.997,167.997,0,0,0,46.4,46.4,10.875,10.875,0,0,0,13.5-1.3l4.2-4.2a7.122,7.122,0,0,0,0-10.1L95.3,91a7.122,7.122,0,0,0-10.1,0l-2.5,2.5A169.55,169.55,0,0,1,59.5,70.3Z" style="fill:none;stroke:#000;stroke-linecap:round;stroke-linejoin:round;stroke-width:6px"/><path d="M129,3H27a12,12,0,0,0,0,24H129V141H27a12.0353,12.0353,0,0,1-12-12V18" style="fill:none;stroke:#000;stroke-linecap:round;stroke-linejoin:round;stroke-width:6px"/><line x1="27" y1="15" x2="123" y2="15" style="fill:none;stroke:#000;stroke-linecap:round;stroke-linejoin:round;stroke-width:6px"/><rect width="144" height="144" style="fill:none"/></svg>