<svg xmlns="http://www.w3.org/2000/svg" viewBox="0 0 144 144"><path d="M69,30C69,18.4,99.9,9,135,9v99c-35.1,0-66,9.4-66,21,0-11.6-30.9-21-66-21V9C38.1,9,69,18.4,69,30Z" style="fill:none;stroke:#000;stroke-linecap:round;stroke-linejoin:round;stroke-width:6px"/><line x1="69" y1="30" x2="69" y2="128.2" style="fill:none;stroke:#000;stroke-linecap:round;stroke-linejoin:round;stroke-width:6px"/><path d="M54,43.4C44.3,39.7,30.7,37,15,36" style="fill:none;stroke:#000;stroke-linecap:round;stroke-linejoin:round;stroke-width:6px"/><path d="M54,61.4C44.3,57.7,30.7,55,15,54" style="fill:none;stroke:#000;stroke-linecap:round;stroke-linejoin:round;stroke-width:6px"/><path d="M54,79.4C44.3,75.7,30.7,73,15,72" style="fill:none;stroke:#000;stroke-linecap:round;stroke-linejoin:round;stroke-width:6px"/><path d="M54,97.4C44.3,93.7,30.7,91,15,90" style="fill:none;stroke:#000;stroke-linecap:round;stroke-linejoin:round;stroke-width:6px"/><path d="M84,79.4c9.7-3.7,23.3-6.4,39-7.4" style="fill:none;stroke:#000;stroke-linecap:round;stroke-linejoin:round;stroke-width:6px"/><path d="M84,97.4c9.7-3.7,23.3-6.4,39-7.4" style="fill:none;stroke:#000;stroke-linecap:round;stroke-linejoin:round;stroke-width:6px"/><polyline points="123 9 123 60 111 48 99 60 99 12" style="fill:none;stroke:#000;stroke-linejoin:round;stroke-width:6px"/><rect width="144" height="144" style="fill:none"/></svg>