<svg xmlns="http://www.w3.org/2000/svg" viewBox="0 0 144 144"><polygon points="42 81 27 81 27 63 42 63 63 45 63 99 42 81" style="fill:none;stroke:#000;stroke-linecap:round;stroke-linejoin:round;stroke-width:6px"/><path d="M87,3H15a12,12,0,0,0,0,24H87v90H15A12.0353,12.0353,0,0,1,3,105V15" style="fill:none;stroke:#000;stroke-linecap:square;stroke-linejoin:round;stroke-width:6px"/><line x1="15" y1="15" x2="81" y2="15" style="fill:none;stroke:#000;stroke-linecap:round;stroke-linejoin:round;stroke-width:6px"/><path d="M114.6,44.5a39.1105,39.1105,0,0,1,0,55.2" style="fill:none;stroke:#000;stroke-linecap:round;stroke-linejoin:round;stroke-width:6px"/><path d="M126.1,108.1a51.1819,51.1819,0,0,0,0-72.2" style="fill:none;stroke:#000;stroke-linecap:round;stroke-linejoin:round;stroke-width:6px"/><path d="M103.1,53a27.0392,27.0392,0,0,1,0,38.2" style="fill:none;stroke:#000;stroke-linecap:round;stroke-linejoin:round;stroke-width:6px"/><rect width="144" height="144" style="fill:none"/></svg>