<svg xmlns="http://www.w3.org/2000/svg" viewBox="0 0 144 144"><path d="M53.8,141H27a12.0353,12.0353,0,0,1-12-12V15" style="fill:none;stroke:#000;stroke-linecap:round;stroke-linejoin:round;stroke-width:6px"/><path d="M129,3H27a12,12,0,0,0,0,24H129V47.9" style="fill:none;stroke:#000;stroke-linecap:round;stroke-linejoin:round;stroke-width:6px"/><line x1="27" y1="15" x2="123" y2="15" style="fill:none;stroke:#000;stroke-linecap:round;stroke-linejoin:round;stroke-width:6px"/><circle cx="99" cy="99" r="42" style="fill:none;stroke:#000;stroke-linecap:round;stroke-linejoin:round;stroke-width:6px"/><circle cx="99" cy="99" r="12" style="fill:none;stroke:#000;stroke-linecap:round;stroke-linejoin:round;stroke-width:6px"/><path d="M99,96a2.9465,2.9465,0,0,0-3,3,3.0085,3.0085,0,0,0,3,3,3.0759,3.0759,0,0,0,3-3,3.0085,3.0085,0,0,0-3-3Z" style="fill:#000"/><rect width="144" height="144" style="fill:none"/></svg>