<svg xmlns="http://www.w3.org/2000/svg" viewBox="0 0 144 144"><path d="M3,15A12.0353,12.0353,0,0,1,15,3H129a12.0353,12.0353,0,0,1,12,12V141H126.1l-6.2-18H24l-6,18H3Z" style="fill:none;stroke:#000;stroke-linejoin:round;stroke-width:6px"/><rect x="15" y="15" width="114" height="42" style="fill:none;stroke:#000;stroke-linejoin:round;stroke-width:6px"/><rect x="15" y="69" width="114" height="42" style="fill:none;stroke:#000;stroke-linejoin:round;stroke-width:6px"/><rect x="27" y="27" width="18" height="30" style="fill:none;stroke:#000;stroke-linejoin:round;stroke-width:6px"/><rect x="45" y="27" width="18" height="30" style="fill:none;stroke:#000;stroke-linejoin:round;stroke-width:6px"/><rect x="63" y="27" width="18" height="30" style="fill:none;stroke:#000;stroke-linejoin:round;stroke-width:6px"/><rect x="63" y="81" width="18" height="30" style="fill:none;stroke:#000;stroke-linejoin:round;stroke-width:6px"/><rect x="81" y="81" width="18" height="30" style="fill:none;stroke:#000;stroke-linejoin:round;stroke-width:6px"/><rect x="99" y="81" width="18" height="30" style="fill:none;stroke:#000;stroke-linejoin:round;stroke-width:6px"/><rect x="87.5854" y="26.482" width="17.1999" height="28.2998" transform="translate(-8.1302 36.0682) rotate(-20.3958)" style="fill:none;stroke:#000;stroke-linejoin:round;stroke-width:5.999950796278793px"/><rect width="144" height="144" style="fill:none"/></svg>