<svg xmlns="http://www.w3.org/2000/svg" viewBox="0 0 144 144"><path d="M117,99A60.0475,60.0475,0,0,1,57,39V3H3V129a12.0353,12.0353,0,0,0,12,12H120a21,21,0,0,0,0-42Z" style="fill:none;stroke:#000;stroke-linejoin:round;stroke-width:6px"/><path d="M39,3V45a71.9546,71.9546,0,0,0,72,72" style="fill:none;stroke:#000;stroke-linejoin:round;stroke-width:6px"/><line x1="105" y1="97.8" x2="105" y2="116.8" style="fill:none;stroke:#000;stroke-linejoin:round;stroke-width:6px"/><line x1="3" y1="117" x2="140.8" y2="117" style="fill:none;stroke:#000;stroke-linejoin:round;stroke-width:6px"/><line x1="57" y1="21" x2="24" y2="21" style="fill:none;stroke:#000;stroke-linecap:round;stroke-linejoin:round;stroke-width:6px"/><line x1="57" y1="39" x2="24" y2="39" style="fill:none;stroke:#000;stroke-linecap:round;stroke-linejoin:round;stroke-width:6px"/><line x1="59.7" y1="57" x2="24" y2="57" style="fill:none;stroke:#000;stroke-linecap:round;stroke-linejoin:round;stroke-width:6px"/><line x1="69" y1="75" x2="30" y2="75" style="fill:none;stroke:#000;stroke-linecap:round;stroke-linejoin:round;stroke-width:6px"/><rect width="144" height="144" style="fill:none"/></svg>