<svg xmlns="http://www.w3.org/2000/svg" viewBox="0 0 144 144"><path d="M141,30v99a12.0353,12.0353,0,0,1-12,12H27a24,24,0,0,1,0-48H43.5A23.9343,23.9343,0,0,0,65.9,77.6L85.5,16.5Z" style="fill:none;stroke:#000;stroke-linejoin:round;stroke-width:6px"/><path d="M73.7,52.9l32.4,6.2a8.9627,8.9627,0,1,0,3.4-17.6L79.4,35.7" style="fill:none;stroke:#000;stroke-linejoin:round;stroke-width:6px"/><path d="M60.2,86.4l33.1,9.3a8.9739,8.9739,0,1,0,4.4-17.4L68,70.7" style="fill:none;stroke:#000;stroke-linejoin:round;stroke-width:6px"/><line x1="6" y1="129" x2="141" y2="129" style="fill:none;stroke:#000;stroke-linejoin:round;stroke-width:6px"/><rect width="144" height="144" style="fill:none"/></svg>