<svg xmlns="http://www.w3.org/2000/svg" viewBox="0 0 144.0005 144"><path d="M3,6A2.9465,2.9465,0,0,0,0,8.892Q-.001,8.946,0,9a2.9465,2.9465,0,0,0,2.892,3q.054.001.108,0A3,3,0,0,0,3,6Z" transform="translate(0.0005)" style="fill:#000"/><path d="M15,6a2.9465,2.9465,0,0,0-3,2.892q-.001.054,0,.108a3,3,0,0,0,6,0,2.9465,2.9465,0,0,0-2.892-3Q15.054,5.999,15,6Z" transform="translate(0.0005)" style="fill:#000"/><path d="M27,6a2.9465,2.9465,0,0,0-3,2.892q-.001.054,0,.108a3,3,0,0,0,6,0,2.9465,2.9465,0,0,0-2.892-3Q27.054,5.999,27,6Z" transform="translate(0.0005)" style="fill:#000"/><path d="M39,6a2.9465,2.9465,0,0,0-3,2.892q-.0011.054,0,.108a3,3,0,0,0,6,0,2.9465,2.9465,0,0,0-2.892-3Q39.054,5.999,39,6Z" transform="translate(0.0005)" style="fill:#000"/><path d="M51,6a2.9465,2.9465,0,0,0-3,2.892q-.0011.054,0,.108a2.9465,2.9465,0,0,0,2.892,3q.054.001.108,0a3,3,0,0,0,0-6Z" transform="translate(0.0005)" style="fill:#000"/><path d="M63,6a2.9465,2.9465,0,0,0-3,2.892q-.0011.054,0,.108a2.9465,2.9465,0,0,0,2.892,3q.054.001.108,0a3,3,0,0,0,0-6Z" transform="translate(0.0005)" style="fill:#000"/><path d="M75,6a2.9465,2.9465,0,0,0-3,2.892q-.001.054,0,.108a2.9465,2.9465,0,0,0,2.892,3q.054.001.108,0a3,3,0,0,0,0-6Z" transform="translate(0.0005)" style="fill:#000"/><path d="M87,6a2.9465,2.9465,0,0,0-3,2.892q-.001.054,0,.108a2.9465,2.9465,0,0,0,2.892,3q.054.001.108,0a3,3,0,0,0,0-6Z" transform="translate(0.0005)" style="fill:#000"/><path d="M99,6a2.9465,2.9465,0,0,0-3,2.892q-.001.054,0,.108a2.9465,2.9465,0,0,0,2.892,3q.054.001.108,0a3,3,0,0,0,0-6Z" transform="translate(0.0005)" style="fill:#000"/><path d="M111,6a2.9465,2.9465,0,0,0-3,2.892q-.001.054,0,.108a2.9465,2.9465,0,0,0,2.892,3q.054.001.108,0a3,3,0,0,0,0-6Z" transform="translate(0.0005)" style="fill:#000"/><path d="M123,6a2.9465,2.9465,0,0,0-3,2.892q-.001.054,0,.108a2.9465,2.9465,0,0,0,2.892,3q.054.001.108,0a3,3,0,0,0,0-6Z" transform="translate(0.0005)" style="fill:#000"/><path d="M15,72a3,3,0,1,0,3,3,2.9465,2.9465,0,0,0-2.892-3Q15.054,71.999,15,72Z" transform="translate(0.0005)" style="fill:#000"/><path d="M27,72a3,3,0,1,0,3,3,2.9465,2.9465,0,0,0-2.892-3Q27.054,71.999,27,72Z" transform="translate(0.0005)" style="fill:#000"/><path d="M39,72a3,3,0,1,0,3,3,2.9465,2.9465,0,0,0-2.892-3Q39.054,71.999,39,72Z" transform="translate(0.0005)" style="fill:#000"/><path d="M51,72a3,3,0,1,0,3,3A3,3,0,0,0,51,72Z" transform="translate(0.0005)" style="fill:#000"/><path d="M63,72a3,3,0,1,0,3,3,3,3,0,0,0-3-3Z" transform="translate(0.0005)" style="fill:#000"/><path d="M75,72a3,3,0,1,0,3,3A3,3,0,0,0,75,72Z" transform="translate(0.0005)" style="fill:#000"/><path d="M87,72a3,3,0,1,0,3,3A3,3,0,0,0,87,72Z" transform="translate(0.0005)" style="fill:#000"/><path d="M99,72a3,3,0,1,0,3,3A3,3,0,0,0,99,72Z" transform="translate(0.0005)" style="fill:#000"/><path d="M111,72a3,3,0,0,0,0,6h0a3,3,0,0,0,0-6Z" transform="translate(0.0005)" style="fill:#000"/><path d="M123,72a3,3,0,1,0,3,3A3,3,0,0,0,123,72Z" transform="translate(0.0005)" style="fill:#000"/><path d="M69,18a3,3,0,1,0,3,3,2.9465,2.9465,0,0,0-2.892-3Q69.054,17.999,69,18Z" transform="translate(0.0005)" style="fill:#000"/><path d="M69,30a3,3,0,1,0,3,3,2.9465,2.9465,0,0,0-2.892-3Q69.054,29.999,69,30Z" transform="translate(0.0005)" style="fill:#000"/><path d="M69,42a3,3,0,1,0,3,3,2.9465,2.9465,0,0,0-2.892-3Q69.054,41.9989,69,42Z" transform="translate(0.0005)" style="fill:#000"/><path d="M69,54a2.9465,2.9465,0,0,0-3,2.892q-.001.054,0,.108a3,3,0,0,0,6,0,2.9465,2.9465,0,0,0-2.892-3Q69.054,53.9989,69,54Z" transform="translate(0.0005)" style="fill:#000"/><path d="M69,66a2.9465,2.9465,0,0,0-3,2.892q-.001.054,0,.108a3,3,0,0,0,6,0,2.9465,2.9465,0,0,0-2.892-3Q69.054,65.999,69,66Z" transform="translate(0.0005)" style="fill:#000"/><path d="M69,78a2.9465,2.9465,0,0,0-3,2.892q-.001.054,0,.108a3,3,0,0,0,6,0,2.9465,2.9465,0,0,0-2.892-3Q69.054,77.999,69,78Z" transform="translate(0.0005)" style="fill:#000"/><path d="M69,90a2.9465,2.9465,0,0,0-3,2.892q-.001.054,0,.108a3,3,0,0,0,6,0,2.9465,2.9465,0,0,0-2.892-3Q69.054,89.999,69,90Z" transform="translate(0.0005)" style="fill:#000"/><path d="M69,102a2.9465,2.9465,0,0,0-3,2.892q-.001.054,0,.108a3,3,0,0,0,6,0,2.9465,2.9465,0,0,0-2.892-3Q69.054,101.999,69,102Z" transform="translate(0.0005)" style="fill:#000"/><path d="M69,114a2.9465,2.9465,0,0,0-3,2.892q-.001.054,0,.108a3,3,0,0,0,6,0,2.9465,2.9465,0,0,0-2.892-3Q69.054,113.999,69,114Z" transform="translate(0.0005)" style="fill:#000"/><path d="M69,126a2.9465,2.9465,0,0,0-3,2.892q-.001.054,0,.108a3,3,0,0,0,6,0,2.9465,2.9465,0,0,0-2.892-3Q69.054,125.999,69,126Z" transform="translate(0.0005)" style="fill:#000"/><path d="M3,18a3,3,0,1,0,3,3A3,3,0,0,0,3,18Z" transform="translate(0.0005)" style="fill:#000"/><path d="M3,30a3,3,0,1,0,3,3A3,3,0,0,0,3,30Z" transform="translate(0.0005)" style="fill:#000"/><path d="M135,6a2.9465,2.9465,0,0,0-3,2.892q-.001.054,0,.108a2.9465,2.9465,0,0,0,2.892,3q.054.001.108,0a3,3,0,0,0,0-6Z" transform="translate(0.0005)" style="fill:#000"/><path d="M135,18a3,3,0,1,0,3,3A3,3,0,0,0,135,18Z" transform="translate(0.0005)" style="fill:#000"/><path d="M135,30a3,3,0,1,0,3,3A3,3,0,0,0,135,30Z" transform="translate(0.0005)" style="fill:#000"/><path d="M3,42a3,3,0,1,0,3,3A3,3,0,0,0,3,42Z" transform="translate(0.0005)" style="fill:#000"/><path d="M135,42a3,3,0,1,0,3,3A3,3,0,0,0,135,42Z" transform="translate(0.0005)" style="fill:#000"/><path d="M3,54a3,3,0,1,0,3,3A3,3,0,0,0,3,54Z" transform="translate(0.0005)" style="fill:#000"/><path d="M135,54a3,3,0,1,0,3,3A3,3,0,0,0,135,54Z" transform="translate(0.0005)" style="fill:#000"/><path d="M3,66a3,3,0,1,0,3,3A3,3,0,0,0,3,66Z" transform="translate(0.0005)" style="fill:#000"/><path d="M135,66a3,3,0,1,0,3,3A3,3,0,0,0,135,66Z" transform="translate(0.0005)" style="fill:#000"/><path d="M3,78a3,3,0,1,0,3,3A3,3,0,0,0,3,78Z" transform="translate(0.0005)" style="fill:#000"/><path d="M135,78a3,3,0,1,0,3,3A3,3,0,0,0,135,78Z" transform="translate(0.0005)" style="fill:#000"/><path d="M3,90a3,3,0,1,0,3,3A3,3,0,0,0,3,90Z" transform="translate(0.0005)" style="fill:#000"/><path d="M135,90a3,3,0,1,0,3,3A3,3,0,0,0,135,90Z" transform="translate(0.0005)" style="fill:#000"/><path d="M3,102a3,3,0,1,0,3,3A3,3,0,0,0,3,102Z" transform="translate(0.0005)" style="fill:#000"/><path d="M135,102a3,3,0,1,0,3,3A3,3,0,0,0,135,102Z" transform="translate(0.0005)" style="fill:#000"/><path d="M3,114a3,3,0,1,0,3,3A3,3,0,0,0,3,114Z" transform="translate(0.0005)" style="fill:#000"/><path d="M135,114a3,3,0,1,0,3,3A3,3,0,0,0,135,114Z" transform="translate(0.0005)" style="fill:#000"/><path d="M3,126a3,3,0,1,0,3,3A3,3,0,0,0,3,126Z" transform="translate(0.0005)" style="fill:#000"/><path d="M135,126a3,3,0,1,0,3,3A3,3,0,0,0,135,126Z" transform="translate(0.0005)" style="fill:#000"/><line x1="3.0005" y1="141" x2="135.0005" y2="141" style="fill:none;stroke:#000;stroke-linecap:round;stroke-linejoin:round;stroke-width:6px"/><rect x="0.0005" width="144" height="144" style="fill:none"/></svg>