<svg xmlns="http://www.w3.org/2000/svg" viewBox="0 0 144 144"><rect width="144" height="144" style="fill:none"/><path d="M98,141c7.26,0,10-4.08,10-12V64c0-18.65-4.84-21-19-21V23h9V13c0-5.94-2.31-10-8-10H49c-5.69,0-8.75,4.06-8.75,10S40,23,40,23h9V43c-11.91,0-19,2-19,21v65c0,7.92,2.74,12,10,12Z" style="fill:none;stroke:#000;stroke-miterlimit:10;stroke-width:6px"/><line x1="30" y1="71" x2="108" y2="71" style="fill:none;stroke:#000;stroke-miterlimit:10;stroke-width:6px"/><line x1="30" y1="106" x2="108" y2="106" style="fill:none;stroke:#000;stroke-miterlimit:10;stroke-width:6px"/><line x1="48" y1="23" x2="89" y2="23" style="fill:none;stroke:#000;stroke-miterlimit:10;stroke-width:6px"/></svg>