<svg xmlns="http://www.w3.org/2000/svg" viewBox="0 0 144 144"><path d="M100.5,9.7a12.0107,12.0107,0,0,0-17,0L70.8,22.4A36.1017,36.1017,0,0,0,60.4,49.3c.4,10.3-2.7,20.3-10,27.6L16.2,111.1c-4.2,4.2-5.3,11-1.8,15.9a11.9768,11.9768,0,0,0,18.3,1.5L67.4,93.8c7.3-7.3,17.3-10.4,27.6-10a35.8141,35.8141,0,0,0,26.9-10.5l12.7-12.7a12.0107,12.0107,0,0,0,0-17Z" style="fill:none;stroke:#000;stroke-linejoin:round;stroke-width:6px"/><path d="M96.3,22.4a6.0977,6.0977,0,0,0-8.5,0l-8.5,8.5A24.0491,24.0491,0,0,0,73.7,56l9.8-3.8L92,60.7l-3.8,9.8a24.0491,24.0491,0,0,0,25.1-5.6l8.5-8.5a6.0977,6.0977,0,0,0,0-8.5Z" style="fill:none;stroke:#000;stroke-linejoin:round;stroke-width:6px"/><path d="M24.2,117a3,3,0,0,0-2.1,5.1,3.0494,3.0494,0,0,0,2.1.9,3,3,0,0,0,2.1-5.1,3.0494,3.0494,0,0,0-2.1-.9Z" style="fill:#000"/><rect width="144" height="144" style="fill:none"/></svg>