<svg xmlns="http://www.w3.org/2000/svg" viewBox="0 0 144 144"><path d="M69,117.9s21-15.1,21-26.3c0-12.9-17.2-17-21-1.3-3.8-15.7-21-11.6-21,1.3C48,102.8,69,117.9,69,117.9Z" style="fill:none;stroke:#000;stroke-linejoin:round;stroke-width:6px"/><rect x="51" y="3" width="36" height="18" style="fill:none;stroke:#000;stroke-linecap:round;stroke-linejoin:round;stroke-width:6px"/><path d="M57,21V48C39,54,33,69,33,87v48a6.0176,6.0176,0,0,0,6,6H99a6.0176,6.0176,0,0,0,6-6V87c0-18-6-33-24-39V21" style="fill:none;stroke:#000;stroke-linecap:round;stroke-linejoin:round;stroke-width:6px"/><rect width="144" height="144" style="fill:none"/></svg>