<svg xmlns="http://www.w3.org/2000/svg" viewBox="0 0 144.05 144"><path d="M84,141C96.4,87.4,96,90.5,96,87c0-6.5-1.9-10.3-9-22.5a45.2405,45.2405,0,0,1-5.1-31.7S84,22.7,84,20.9a12,12,0,1,0-24,0c0,1.8,2.1,11.9,2.1,11.9A45.2405,45.2405,0,0,1,57,64.5c-7,12.1-9,16-9,22.5,0,3.5-.4.4,12,54Z" transform="translate(0.025)" style="fill:none;stroke:#000;stroke-linejoin:round;stroke-width:6px"/><line x1="60.425" y1="57" x2="83.625" y2="57" style="fill:none;stroke:#000;stroke-linejoin:round;stroke-width:6px"/><line x1="62.125" y1="33" x2="81.925" y2="33" style="fill:none;stroke:#000;stroke-linejoin:round;stroke-width:6px"/><line x1="62.925" y1="45" x2="81.125" y2="45" style="fill:none;stroke:#000;stroke-linejoin:round;stroke-width:6px"/><path d="M36,66l-3.4-8.9A46.0372,46.0372,0,0,1,30.4,36C31,33.6,33,26.3,33,24A12,12,0,0,0,9,24c0,1.8,2.1,11.9,2.1,11.9a45.1937,45.1937,0,0,1-.7,21L3.5,75a19.9674,19.9674,0,0,0,0,9.1L12,129H30l6-27" transform="translate(0.025)" style="fill:none;stroke:#000;stroke-linecap:round;stroke-linejoin:round;stroke-width:6px"/><line x1="32.625" y1="57" x2="10.425" y2="57" style="fill:none;stroke:#000;stroke-linecap:round;stroke-linejoin:round;stroke-width:6px"/><line x1="31.125" y1="33" x2="10.525" y2="33" style="fill:none;stroke:#000;stroke-linecap:round;stroke-linejoin:round;stroke-width:6px"/><line x1="30.025" y1="45" x2="12.025" y2="45" style="fill:none;stroke:#000;stroke-linecap:round;stroke-linejoin:round;stroke-width:6px"/><path d="M108,66l3.4-8.9A46.0372,46.0372,0,0,0,113.6,36c-.6-2.4-2.6-9.7-2.6-12a12,12,0,0,1,24,0c0,1.8-2.1,11.9-2.1,11.9a45.1937,45.1937,0,0,0,.7,21l6.9,18a19.9674,19.9674,0,0,1,0,9.1L132,129H114l-6-27" transform="translate(0.025)" style="fill:none;stroke:#000;stroke-linecap:round;stroke-linejoin:round;stroke-width:6px"/><line x1="111.425" y1="57" x2="133.625" y2="57" style="fill:none;stroke:#000;stroke-linecap:round;stroke-linejoin:round;stroke-width:6px"/><line x1="112.925" y1="33" x2="133.525" y2="33" style="fill:none;stroke:#000;stroke-linecap:round;stroke-linejoin:round;stroke-width:6px"/><line x1="114.025" y1="45" x2="132.025" y2="45" style="fill:none;stroke:#000;stroke-linecap:round;stroke-linejoin:round;stroke-width:6px"/><rect x="0.025" width="144" height="144" style="fill:none"/></svg>