<svg xmlns="http://www.w3.org/2000/svg" viewBox="0 0 144 144"><path d="M40.6,141H21.4C-11,108,7,78,18.2,58.2c2.5-4.4.8-10.7-.1-15.5C16.1,31.3,13,6,31,6S45.9,31.2,43.8,42.7c-.9,4.8-2.5,11.1-.1,15.5C55,78,73,108,40.6,141Z" style="fill:none;stroke:#000;stroke-linejoin:round;stroke-width:6px"/><line x1="17.5" y1="39" x2="44.4" y2="39" style="fill:none;stroke:#000;stroke-linejoin:round;stroke-width:6px"/><line x1="18.8" y1="57" x2="43.2" y2="57" style="fill:none;stroke:#000;stroke-linejoin:round;stroke-width:6px"/><path d="M60.8,62.6A45.012,45.012,0,1,1,91,141a44.4964,44.4964,0,0,1-27-9" style="fill:none;stroke:#000;stroke-linecap:round;stroke-linejoin:round;stroke-width:6px"/><circle cx="85" cy="72" r="6" style="fill:none;stroke:#000;stroke-linecap:round;stroke-linejoin:round;stroke-width:6px"/><circle cx="109" cy="78" r="6" style="fill:none;stroke:#000;stroke-linecap:round;stroke-linejoin:round;stroke-width:6px"/><circle cx="91" cy="96" r="6" style="fill:none;stroke:#000;stroke-linecap:round;stroke-linejoin:round;stroke-width:6px"/><rect width="144" height="144" style="fill:none"/></svg>