<svg xmlns="http://www.w3.org/2000/svg" viewBox="0 0 144 144"><path d="M87,81.7C87,85,84.3,87,81,87H63c-3.3,0-6-2-6-5.3v-24c0-3.3,2.7-6.7,6-6.7H81c3.3,0,6,3.4,6,6.7Z" style="fill:none;stroke:#000;stroke-linecap:round;stroke-linejoin:round;stroke-width:6px"/><path d="M86.3,54.9l46.8-15.6a6.1263,6.1263,0,0,1,5.4.8A5.8425,5.8425,0,0,1,141,45V94.3a5.9742,5.9742,0,0,1-2.5,4.9,6.1263,6.1263,0,0,1-5.4.8L86.3,84.4" style="fill:none;stroke:#000;stroke-linecap:round;stroke-linejoin:round;stroke-width:6px"/><path d="M57.7,54.9,10.9,39.3a6.1263,6.1263,0,0,0-5.4.8A6.1116,6.1116,0,0,0,3,45V94.3a5.9742,5.9742,0,0,0,2.5,4.9,6.1263,6.1263,0,0,0,5.4.8L57.7,84.4" style="fill:none;stroke:#000;stroke-linecap:round;stroke-linejoin:round;stroke-width:6px"/><line x1="45" y1="69" x2="57" y2="69" style="fill:none;stroke:#000;stroke-linecap:round;stroke-linejoin:round;stroke-width:6px"/><line x1="99" y1="69" x2="87" y2="69" style="fill:none;stroke:#000;stroke-linecap:round;stroke-linejoin:round;stroke-width:6px"/><rect width="144" height="144" style="fill:none"/></svg>