<svg xmlns="http://www.w3.org/2000/svg" viewBox="0 0 144 144"><polyline points="39 93 3 93 3 27 87 27 87 57" style="fill:none;stroke:#000;stroke-linecap:round;stroke-linejoin:round;stroke-width:6px"/><polygon points="87 27 3 27 27 3 63 3 87 27" style="fill:none;stroke:#000;stroke-linecap:round;stroke-linejoin:round;stroke-width:6px"/><line x1="45" y1="3" x2="45" y2="27" style="fill:none;stroke:#000;stroke-linecap:round;stroke-linejoin:round;stroke-width:6px"/><polyline points="105 87 132 87 141 111 141 129 131.5 129" style="fill:none;stroke:#000;stroke-linejoin:round;stroke-width:6px"/><polyline points="89.5 129.1 105 129 105 75 51 75 51 129 72.5 129" style="fill:none;stroke:#000;stroke-linejoin:round;stroke-width:6px"/><circle cx="123" cy="132" r="9" style="fill:none;stroke:#000;stroke-linejoin:round;stroke-width:6px"/><circle cx="81" cy="132" r="9" style="fill:none;stroke:#000;stroke-linejoin:round;stroke-width:6px"/><line x1="105" y1="111" x2="141" y2="111" style="fill:none;stroke:#000;stroke-linejoin:round;stroke-width:6px"/><line x1="105" y1="129" x2="114.5" y2="129" style="fill:none;stroke:#000;stroke-linejoin:round;stroke-width:6px"/><rect width="144" height="144" style="fill:none"/></svg>