<svg xmlns="http://www.w3.org/2000/svg" viewBox="0 0 144.3681 144"><polyline points="45 93 3 93 3 27 87 27 87 51" style="fill:none;stroke:#000;stroke-linecap:round;stroke-linejoin:round;stroke-width:6px"/><polygon points="87 27 3 27 27 3 63 3 87 27" style="fill:none;stroke:#000;stroke-linecap:round;stroke-linejoin:round;stroke-width:6px"/><line x1="45" y1="3" x2="45" y2="27" style="fill:none;stroke:#000;stroke-linecap:round;stroke-linejoin:round;stroke-width:6px"/><path d="M73.1,105.5,57.7,98.6l-11.6,6.7,26.4,17.1L98.9,112,87.7,141l13.2-6.9L117,104.7l20-8.8a7.3336,7.3336,0,0,0,3.7-9.8,7.3614,7.3614,0,0,0-9.5-3.8Z" style="fill:none;stroke:#000;stroke-linecap:round;stroke-linejoin:round;stroke-width:6px"/><polyline points="109.9 90.7 86.3 76 74.5 82.1 96 96.3" style="fill:none;stroke:#000;stroke-linecap:round;stroke-linejoin:round;stroke-width:6px"/><rect width="144" height="144" style="fill:none"/></svg>