<svg xmlns="http://www.w3.org/2000/svg" viewBox="0 0 144 144"><path d="M33,51c0-9.8-5.1-17.5-14.8-18C7.8,32.5,3,40.8,3,51H3C3,94.2,33,99.3,33,99.3V129a12.0353,12.0353,0,0,0,12,12h60a12.0353,12.0353,0,0,0,12-12V87.5s13.9-7.8,17.2-43.7A37.14,37.14,0,0,0,97.3,3H57A24.0062,24.0062,0,0,0,33,27V51c0,13.3,10.7,18,24,18H99c13.3,0,17.9-8.9,17.9-24" style="fill:none;stroke:#000;stroke-linecap:round;stroke-linejoin:round;stroke-width:6px"/><rect x="33" y="99" width="48" height="30" style="fill:none;stroke:#000;stroke-linejoin:round;stroke-width:6px"/><rect width="144" height="144" style="fill:none"/></svg>