<svg xmlns="http://www.w3.org/2000/svg" viewBox="0 0 144 144"><path d="M15,41.1A24.1571,24.1571,0,0,1,28.6,19.4c28.8-13.8,57.8-14,86.8,0A24.01,24.01,0,0,1,129,41v64a35.9773,35.9773,0,0,1-36,36H51a35.9773,35.9773,0,0,1-36-36Z" style="fill:none;stroke:#000;stroke-linejoin:round;stroke-width:6px"/><path d="M33,57h78V67.1a23.6011,23.6011,0,0,1-8.3,18c-21.5,18.5-.8,25.1,5.2,29.7a6.21,6.21,0,0,1-.6,5.6,5.8645,5.8645,0,0,1-5,2.6H41.7a5.9328,5.9328,0,0,1-4.9-2.6,5.8631,5.8631,0,0,1-.6-5.6c6-4.6,26.6-11.2,5.1-29.6a23.448,23.448,0,0,1-8.3-18Z" style="fill:none;stroke:#000;stroke-linejoin:round;stroke-width:6px"/><rect x="45" y="27" width="54" height="18" style="fill:none;stroke:#000;stroke-linejoin:round;stroke-width:6px"/><line x1="57" y1="69" x2="57" y2="81" style="fill:none;stroke:#000;stroke-linecap:round;stroke-linejoin:round;stroke-width:6px"/><line x1="87" y1="69" x2="87" y2="81" style="fill:none;stroke:#000;stroke-linecap:round;stroke-linejoin:round;stroke-width:6px"/><line x1="63" y1="105" x2="81" y2="105" style="fill:none;stroke:#000;stroke-linecap:round;stroke-linejoin:round;stroke-width:6px"/><rect width="144" height="144" style="fill:none"/></svg>