<svg xmlns="http://www.w3.org/2000/svg" viewBox="0 0 144 144"><path d="M129,66c-29.7,15.1-50.1,40-57,49.5A37.8281,37.8281,0,0,0,103.9,133,37.0869,37.0869,0,0,0,141,95.9C141,84.6,137,72.8,129,66Z" style="fill:none;stroke:#000;stroke-linejoin:round;stroke-width:6px"/><path d="M15,66c29.7,15.1,50.1,40,57,49.5A37.6983,37.6983,0,0,1,40.1,133,37.151,37.151,0,0,1,3,95.9C3,84.6,7,72.8,15,66Z" style="fill:none;stroke:#000;stroke-linejoin:round;stroke-width:6px"/><line x1="15" y1="66" x2="15" y2="24" style="fill:none;stroke:#000;stroke-linecap:round;stroke-linejoin:round;stroke-width:6px"/><line x1="129" y1="66" x2="129" y2="24" style="fill:none;stroke:#000;stroke-linecap:round;stroke-linejoin:round;stroke-width:6px"/><rect width="144" height="144" style="fill:none"/></svg>