<svg xmlns="http://www.w3.org/2000/svg" viewBox="0 0 144 144"><line x1="134.7" y1="69.4" x2="75.3" y2="128.7" style="fill:none;stroke:#000;stroke-linecap:round;stroke-linejoin:round;stroke-width:6px"/><polyline points="123 63 123 81 141 81" style="fill:none;stroke:#000;stroke-linecap:round;stroke-linejoin:round;stroke-width:6px"/><polyline points="111 75 111 93 129 93" style="fill:none;stroke:#000;stroke-linecap:round;stroke-linejoin:round;stroke-width:6px"/><polyline points="99 87 99 105 117 105" style="fill:none;stroke:#000;stroke-linecap:round;stroke-linejoin:round;stroke-width:6px"/><polyline points="87 99 87 117 105 117" style="fill:none;stroke:#000;stroke-linecap:round;stroke-linejoin:round;stroke-width:6px"/><path d="M126.7,48.8A33.0821,33.0821,0,0,0,129,36.6,33.6086,33.6086,0,0,0,95.4,3H36.2A33.3328,33.3328,0,0,0,3,36.6C3,55.2,15.7,70.2,34.2,70.2L25.8,141h84" style="fill:none;stroke:#000;stroke-linecap:round;stroke-linejoin:round;stroke-width:6px"/><rect width="144" height="144" style="fill:none"/></svg>