<svg xmlns="http://www.w3.org/2000/svg" viewBox="0 0 144 144"><polygon points="3 111 141 111 111 141 33 141 3 111" style="fill:none;stroke:#000;stroke-linejoin:round;stroke-width:6px"/><path d="M69,99A23.9424,23.9424,0,0,1,93,75h18a23.9424,23.9424,0,0,1,24,24,12.0353,12.0353,0,0,1-12,12H81A12.0353,12.0353,0,0,1,69,99Z" style="fill:none;stroke:#000;stroke-linejoin:round;stroke-width:6px"/><path d="M88,96.4c3.1-10-1.3-19.4-1.3-19.4l-.6-1" style="fill:none;stroke:#000;stroke-linecap:round;stroke-linejoin:round;stroke-width:6px"/><path d="M100,96.4c3.1-10-1.3-19.4-1.3-19.4L98,75" style="fill:none;stroke:#000;stroke-linecap:round;stroke-linejoin:round;stroke-width:6px"/><path d="M112,96.4c3.1-10-1.3-19.4-1.3-19.4l-.9-2" style="fill:none;stroke:#000;stroke-linecap:round;stroke-linejoin:round;stroke-width:6px"/><line x1="58.8" y1="111" x2="69.1" y2="100.8" style="fill:none;stroke:#000;stroke-linejoin:round;stroke-width:6px"/><path d="M94.9,75l34.9-35a18.0312,18.0312,0,1,0-25.5-25.5L19.4,99.4A17.7036,17.7036,0,0,0,14.2,111" style="fill:none;stroke:#000;stroke-linejoin:round;stroke-width:6px"/><path d="M56.7,62.1c5.7,7.2,14.1,10.5,18.2,6.6,6.5-6.1-4.4-8.4-8.4-16.5" style="fill:none;stroke:#000;stroke-linejoin:round;stroke-width:6px"/><path d="M85.2,33.6c5.7,7.2,14.1,10.5,18.2,6.6,6.5-6-4.4-8.4-8.4-16.4" style="fill:none;stroke:#000;stroke-linejoin:round;stroke-width:6px"/><path d="M29.7,89.1c5.7,7.2,14.1,10.5,18.2,6.6,6.5-6.1-4.4-8.4-8.4-16.5" style="fill:none;stroke:#000;stroke-linejoin:round;stroke-width:6px"/><rect width="144" height="144" style="fill:none"/></svg>