<svg xmlns="http://www.w3.org/2000/svg" viewBox="0 0 144 144"><path d="M141,123a6.0176,6.0176,0,0,1-6,6H9a6.0176,6.0176,0,0,1-6-6V39a6.0176,6.0176,0,0,1,6-6H135a6.0176,6.0176,0,0,1,6,6Z" style="fill:none;stroke:#000;stroke-linejoin:round;stroke-width:6px"/><path d="M51,33V12a3.0085,3.0085,0,0,1,3-3H90a3.0085,3.0085,0,0,1,3,3V33" style="fill:none;stroke:#000;stroke-linejoin:round;stroke-width:6px"/><line x1="51" y1="21" x2="93" y2="21" style="fill:none;stroke:#000;stroke-linejoin:round;stroke-width:6px"/><line x1="21" y1="57" x2="123" y2="57" style="fill:none;stroke:#000;stroke-linecap:square;stroke-linejoin:round;stroke-width:6px"/><line x1="21" y1="81" x2="123" y2="81" style="fill:none;stroke:#000;stroke-linecap:square;stroke-linejoin:round;stroke-width:6px"/><line x1="21" y1="105" x2="123" y2="105" style="fill:none;stroke:#000;stroke-linecap:square;stroke-linejoin:round;stroke-width:6px"/><rect width="144" height="144" style="fill:none"/></svg>