<svg xmlns="http://www.w3.org/2000/svg" viewBox="0 0 144.025 144.1"><path d="M89.6,96.9c11.3-11.3-31.1-53.7-42.4-42.4C38.7,84.2,18.7,99.7,4.7,113.9a5.9753,5.9753,0,0,0,0,8.4l17,17a6.2236,6.2236,0,0,0,4.3,1.8,6.4142,6.4142,0,0,0,4.3-1.8C44.1,125.2,59.9,105.4,89.6,96.9Z" transform="translate(0.025)" style="fill:none;stroke:#000;stroke-linejoin:round;stroke-width:6px"/><path d="M64.2,109.6c1.3,3.1,3.8,8.1,6.4,10.6a27.1,27.1,0,0,0,38.2,0c7.2-7.2,8.2-13.8,8.1-17.2a22.97,22.97,0,0,0,11-6.2,23.901,23.901,0,0,0,0-33.9,23.4793,23.4793,0,0,0-9.5-5.7,27.243,27.243,0,0,0-7.4-24,26.7987,26.7987,0,0,0-24-7.4,23.2713,23.2713,0,0,0-5.7-9.5,23.901,23.901,0,0,0-33.9,0,24.7384,24.7384,0,0,0-6.2,11c-3.3-.1-9.9.9-17.2,8.1a27.1,27.1,0,0,0,0,38.2c2.6,2.6,7.5,5,10.6,6.4" transform="translate(0.025)" style="fill:none;stroke:#000;stroke-linejoin:round;stroke-width:6px"/><path d="M97.6,110.4a16.4811,16.4811,0,0,1,1.2-27.2" transform="translate(0.025)" style="fill:none;stroke:#000;stroke-linecap:round;stroke-linejoin:round;stroke-width:6px"/><path d="M33.7,46.6a16.4811,16.4811,0,0,0,27.2-1.2" transform="translate(0.025)" style="fill:none;stroke:#000;stroke-linecap:round;stroke-linejoin:round;stroke-width:6px"/><line x1="84.825" y1="76.3" x2="66.325" y2="94.7" style="fill:none;stroke:#000;stroke-linecap:round;stroke-linejoin:round;stroke-width:6px"/><line x1="67.925" y1="59.4" x2="49.325" y2="77.8" style="fill:none;stroke:#000;stroke-linecap:round;stroke-linejoin:round;stroke-width:6px"/><rect x="0.025" width="144" height="144" style="fill:none"/></svg>