<svg xmlns="http://www.w3.org/2000/svg" viewBox="0 0 144 144"><path d="M134.2,98.5l6.4-3.7-9-15.6-6.5,3.7a29.7731,29.7731,0,0,0-11.2-6.4V69H96v7.5a29.7731,29.7731,0,0,0-11.2,6.4l-6.5-3.7-9,15.6,6.4,3.7a28.5417,28.5417,0,0,0,0,13l-6.4,3.7,9,15.6,6.5-3.7A29.7731,29.7731,0,0,0,96,133.5V141h18v-7.5a29.7731,29.7731,0,0,0,11.2-6.4l6.5,3.7,9-15.6-6.4-3.7A28.5441,28.5441,0,0,0,134.2,98.5Z" style="fill:none;stroke:#000;stroke-linejoin:round;stroke-width:6px"/><circle cx="105" cy="105" r="12" style="fill:none;stroke:#000;stroke-linejoin:round;stroke-width:6px"/><path d="M57,104.6A80.593,80.593,0,0,1,42,102L9,117,21,90C9.4,80.7,3,68.3,3,54,3,25.8,31,3,65.5,3S129,25.8,129,54a40.3228,40.3228,0,0,1-.4,6" style="fill:none;stroke:#000;stroke-linecap:round;stroke-linejoin:round;stroke-width:6px"/><rect width="144" height="144" style="fill:none"/></svg>