<svg xmlns="http://www.w3.org/2000/svg" viewBox="0 0 144 144"><path d="M114,120a2.9465,2.9465,0,0,1-3,3h0a2.9465,2.9465,0,0,1-3-3h0a3.0085,3.0085,0,0,1,3-3h0a3.0085,3.0085,0,0,1,3,3Z" style="fill:none;stroke:#000;stroke-linejoin:round;stroke-width:6px"/><rect x="87" y="105" width="48" height="36" style="fill:none;stroke:#000;stroke-linecap:round;stroke-linejoin:round;stroke-width:6px"/><line x1="111" y1="129" x2="111" y2="123" style="fill:none;stroke:#000;stroke-linecap:round;stroke-linejoin:round;stroke-width:6px"/><path d="M93,105V99a18,18,0,0,1,36,0v6" style="fill:none;stroke:#000;stroke-linecap:round;stroke-linejoin:round;stroke-width:6px"/><path d="M78,90H69L45,114V90H42A39.05,39.05,0,0,1,3,51C3,29.6,20.5,9,42,9H90c21.5,0,39,20.6,39,42a39.3585,39.3585,0,0,1-3,15" style="fill:none;stroke:#000;stroke-linecap:round;stroke-linejoin:round;stroke-width:6px"/><rect width="144" height="144" style="fill:none"/></svg>