<svg xmlns="http://www.w3.org/2000/svg" viewBox="0 0 144 144"><path d="M114,129c10-7.3,27-22.7,27-34.2,0-9.3-6.8-14.9-13.4-14.9-7.3,0-10,5-13.6,11-3.6-6-6.3-11-13.6-11C93.8,79.9,87,85.5,87,94.8c0,11.5,17,26.9,27,34.2Z" style="fill:none;stroke:#000;stroke-linecap:round;stroke-linejoin:round;stroke-width:6px"/><path d="M72,90H69L45,114V90H42A39.1146,39.1146,0,0,1,3,51C3,29.6,20.5,9,42,9H90c21.5,0,39,20.6,39,42a39.3585,39.3585,0,0,1-3,15" style="fill:none;stroke:#000;stroke-linecap:round;stroke-linejoin:round;stroke-width:6px"/><rect width="144" height="144" style="fill:none"/></svg>