<svg xmlns="http://www.w3.org/2000/svg" viewBox="0 0 144 144"><path d="M108,141s33-24,33-41.8c0-20.5-27-27-33-2.1-6-24.9-33-18.5-33,2.1C75,117,108,141,108,141Z" style="fill:none;stroke:#000;stroke-linejoin:round;stroke-width:6px"/><path d="M57,104.6A80.593,80.593,0,0,1,42,102L9,117,21,90C9.4,80.7,3,68.3,3,54,3,25.8,31,3,65.5,3S129,25.8,129,54a40.3228,40.3228,0,0,1-.4,6" style="fill:none;stroke:#000;stroke-linecap:round;stroke-linejoin:round;stroke-width:6px"/><rect width="144" height="144" style="fill:none"/></svg>