<svg xmlns="http://www.w3.org/2000/svg" viewBox="0 0 144 144"><path d="M141,64.4c0,31.1-30.9,56.3-69,56.3a83.3115,83.3115,0,0,1-24.2-3.6L8.2,135.6l15.5-31C10.9,94.4,3,80.2,3,64.4,3,33.3,33.9,8.1,72,8.1S141,33.4,141,64.4Z" style="fill:none;stroke:#000;stroke-linejoin:round;stroke-width:6px"/><path d="M39,53.1a12,12,0,1,1,24,0" style="fill:none;stroke:#000;stroke-linecap:round;stroke-linejoin:round;stroke-width:6px"/><path d="M105,53.1a12,12,0,1,0-24,0" style="fill:none;stroke:#000;stroke-linecap:round;stroke-linejoin:round;stroke-width:6px"/><path d="M33,68.1a27.015,27.015,0,0,0,27,27H84a27.015,27.015,0,0,0,27-27" style="fill:none;stroke:#000;stroke-linecap:round;stroke-linejoin:round;stroke-width:6px"/><rect width="144" height="144" style="fill:none"/></svg>