<svg xmlns="http://www.w3.org/2000/svg" viewBox="0 0 144 144.1"><circle cx="27" cy="117" r="9" style="fill:none;stroke:#000;stroke-linejoin:round;stroke-width:6px"/><path d="M96,2.9c-17.6,0-30.9,9.9-38.9,24.4a33.914,33.914,0,0,0-19.8-6.4C18.3,20.9,3,36.6,3,55.9s15.3,35,34.3,35a4.8686,4.8686,0,0,0,1.2-.1,34.0643,34.0643,0,0,0,28.1,15.1,33.5846,33.5846,0,0,0,21.8-8,50.2091,50.2091,0,0,0,9.5,1c26,0,43-21.5,43-48S122,2.9,96,2.9Z" transform="translate(0 0.1)" style="fill:none;stroke:#000;stroke-linejoin:round;stroke-width:6px"/><circle cx="42" cy="60" r="3" style="fill:none;stroke:#000;stroke-linejoin:round;stroke-width:6px"/><circle cx="72" cy="60" r="3" style="fill:none;stroke:#000;stroke-linejoin:round;stroke-width:6px"/><circle cx="102" cy="60" r="3" style="fill:none;stroke:#000;stroke-linejoin:round;stroke-width:6px"/><circle cx="6" cy="138" r="3" style="fill:none;stroke:#000;stroke-linejoin:round;stroke-width:6px"/><rect y="0.1" width="144" height="144" style="fill:none"/></svg>