<svg xmlns="http://www.w3.org/2000/svg" viewBox="0 0 144 144"><path d="M141,65.3c0,31.1-30.9,56.3-69,56.3A83.3115,83.3115,0,0,1,47.8,118L8.2,136.5l15.5-31C10.9,95.3,3,81,3,65.3,3,34.2,33.9,9,72,9S141,34.2,141,65.3Z" style="fill:none;stroke:#000;stroke-linejoin:round;stroke-width:6px"/><line x1="69" y1="72" x2="69" y2="36" style="fill:none;stroke:#000;stroke-linecap:round;stroke-linejoin:round;stroke-width:6px"/><path d="M72,87a2.9465,2.9465,0,0,1-3,3h0a2.9465,2.9465,0,0,1-3-3h0a2.9465,2.9465,0,0,1,3-3h0a2.9465,2.9465,0,0,1,3,3Z" style="fill:none;stroke:#000;stroke-linejoin:round;stroke-width:6px"/><rect width="144" height="144" style="fill:none"/></svg>