<svg xmlns="http://www.w3.org/2000/svg" viewBox="0 0 144 144"><rect x="81" y="93" width="60" height="48" style="fill:none;stroke:#000;stroke-linecap:round;stroke-linejoin:round;stroke-width:6px"/><line x1="111" y1="126" x2="111" y2="114" style="fill:none;stroke:#000;stroke-linecap:round;stroke-linejoin:round;stroke-width:6px"/><path d="M93,93V87a18,18,0,0,1,36,0v6" style="fill:none;stroke:#000;stroke-linecap:round;stroke-linejoin:round;stroke-width:6px"/><circle cx="111" cy="111" r="3" style="fill:none;stroke:#000;stroke-linecap:round;stroke-linejoin:round;stroke-width:6px"/><path d="M57,104.6A80.593,80.593,0,0,1,42,102L9,117,21,90C9.4,80.7,3,68.3,3,54,3,25.8,31,3,65.5,3S129,25.8,129,54a40.3228,40.3228,0,0,1-.4,6" style="fill:none;stroke:#000;stroke-linecap:round;stroke-linejoin:round;stroke-width:6px"/><rect width="144" height="144" style="fill:none"/></svg>