<svg xmlns="http://www.w3.org/2000/svg" viewBox="0 0 144 144"><polygon points="123 114 141 99 120 99 108 75 96 99 75 99 93 114 84 141 108 124.6 132 141 123 114" style="fill:none;stroke:#000;stroke-linejoin:round;stroke-width:6px"/><path d="M60,104.8A88.1779,88.1779,0,0,1,42,102L9,117,21,90C9.4,80.7,3,68.3,3,54,3,25.8,31,3,65.5,3S129,25.8,129,54a47.12,47.12,0,0,1-1,9.2" style="fill:none;stroke:#000;stroke-linecap:round;stroke-linejoin:round;stroke-width:6px"/><rect width="144" height="144" style="fill:none"/></svg>