<svg xmlns="http://www.w3.org/2000/svg" viewBox="0 0 144 144"><path d="M141,64.4c0,31.1-30.9,56.3-69,56.3a83.3115,83.3115,0,0,1-24.2-3.6L8.2,135.6l15.5-31C10.9,94.4,3,80.2,3,64.4,3,33.3,33.9,8.1,72,8.1S141,33.4,141,64.4Z" style="fill:none;stroke:#000;stroke-linejoin:round;stroke-width:6px"/><polyline points="75.1 86.9 75.1 50.9 63.1 50.9" style="fill:none;stroke:#000;stroke-linecap:round;stroke-linejoin:round;stroke-width:6px"/><line x1="63.1" y1="86.9" x2="87.1" y2="86.9" style="fill:none;stroke:#000;stroke-linecap:round;stroke-linejoin:round;stroke-width:6px"/><path d="M75,32.9a2.9465,2.9465,0,0,1-3,3h0a2.9465,2.9465,0,0,1-3-3h0a2.9465,2.9465,0,0,1,3-3h0a2.9465,2.9465,0,0,1,3,3Z" style="fill:none;stroke:#000;stroke-linejoin:round;stroke-width:6px"/><rect width="144" height="144" style="fill:none"/></svg>