<svg xmlns="http://www.w3.org/2000/svg" viewBox="0 0 144 144"><path d="M128.4,132.7l6-10.4-6-3.5a19.9021,19.9021,0,0,0,0-9.7l6-3.5-6-10.4-6,3.5a21.2365,21.2365,0,0,0-8.4-4.8v-7H102v7a21.9532,21.9532,0,0,0-8.4,4.8l-6-3.5-6,10.4,6,3.5a19.9021,19.9021,0,0,0,0,9.7l-6,3.5,6,10.4,6-3.5A21.9532,21.9532,0,0,0,102,134v7h12v-7a21.9532,21.9532,0,0,0,8.4-4.8Z" style="fill:none;stroke:#000;stroke-linejoin:round;stroke-width:6px"/><circle cx="108" cy="114" r="9" style="fill:none;stroke:#000;stroke-linejoin:round;stroke-width:6px"/><path d="M72,90H69L45,114V90H42A39.1145,39.1145,0,0,1,3,51C3,29.6,20.5,9,42,9H90c21.5,0,39,20.6,39,42a39.3585,39.3585,0,0,1-3,15" style="fill:none;stroke:#000;stroke-linecap:round;stroke-linejoin:round;stroke-width:6px"/><rect width="144" height="144" style="fill:none"/></svg>