<svg xmlns="http://www.w3.org/2000/svg" viewBox="0 0 144 144"><polyline points="135 90 135 105 120 105" style="fill:none;stroke:#000;stroke-linecap:round;stroke-linejoin:round;stroke-width:6px"/><path d="M81,105c3.7-10.5,15.2-18,27-18s23.3,7.5,27,18" style="fill:none;stroke:#000;stroke-linecap:round;stroke-linejoin:round;stroke-width:6px"/><polyline points="81 138 81 123 96 123" style="fill:none;stroke:#000;stroke-linecap:round;stroke-linejoin:round;stroke-width:6px"/><path d="M135,123c-3.7,10.5-15.2,18-27,18s-23.3-7.5-27-18" style="fill:none;stroke:#000;stroke-linecap:round;stroke-linejoin:round;stroke-width:6px"/><path d="M72,90H69L45,114V90H42A39.1146,39.1146,0,0,1,3,51C3,29.6,20.5,9,42,9H90c21.5,0,39,20.6,39,42a39.3585,39.3585,0,0,1-3,15" style="fill:none;stroke:#000;stroke-linecap:round;stroke-linejoin:round;stroke-width:6px"/><rect width="144" height="144" style="fill:none"/></svg>