<svg xmlns="http://www.w3.org/2000/svg" viewBox="0 0 144 144"><path d="M141,64.4c0,31.1-30.9,56.3-69,56.3a80.0612,80.0612,0,0,1-24.2-3.6L8.2,135.6l15.5-31C10.9,94.4,3,80.2,3,64.4,3,33.3,33.9,8.1,72,8.1S141,33.3,141,64.4Z" style="fill:none;stroke:#000;stroke-linejoin:round;stroke-width:6px"/><rect x="45" y="62.9" width="12" height="12" style="fill:none;stroke:#000;stroke-linejoin:round;stroke-width:6px"/><path d="M57,71.9v12a6.0176,6.0176,0,0,1-6,6" style="fill:none;stroke:#000;stroke-linecap:round;stroke-linejoin:round;stroke-width:6px"/><line x1="57" y1="35.1" x2="57" y2="50.1" style="fill:none;stroke:#000;stroke-linecap:round;stroke-linejoin:round;stroke-width:6px"/><path d="M81,35.1a18.0529,18.0529,0,0,1,18,18v18a18.0529,18.0529,0,0,1-18,18" style="fill:none;stroke:#000;stroke-linecap:round;stroke-linejoin:round;stroke-width:6px"/><rect width="144" height="144" style="fill:none"/></svg>