<svg xmlns="http://www.w3.org/2000/svg" viewBox="0 0 144 144"><polyline points="135 90 135 105 120 105" style="fill:none;stroke:#000;stroke-linecap:round;stroke-linejoin:round;stroke-width:6px"/><path d="M81,105c3.7-10.5,15.2-18,27-18s23.3,7.5,27,18" style="fill:none;stroke:#000;stroke-linecap:round;stroke-linejoin:round;stroke-width:6px"/><polyline points="81 138 81 123 96 123" style="fill:none;stroke:#000;stroke-linecap:round;stroke-linejoin:round;stroke-width:6px"/><path d="M135,123c-3.7,10.5-15.2,18-27,18s-23.3-7.5-27-18" style="fill:none;stroke:#000;stroke-linecap:round;stroke-linejoin:round;stroke-width:6px"/><path d="M57,110.6A73.1247,73.1247,0,0,1,42,108L9,123,21,96C9.4,86.7,3,74.3,3,60,3,31.8,31,9,65.5,9S129,31.8,129,60a40.3228,40.3228,0,0,1-.4,6" style="fill:none;stroke:#000;stroke-linecap:round;stroke-linejoin:round;stroke-width:6px"/><rect width="144" height="144" style="fill:none"/></svg>