<svg xmlns="http://www.w3.org/2000/svg" viewBox="0 0 144 144"><rect x="15" y="45" width="114" height="96" style="fill:none;stroke:#000;stroke-linecap:round;stroke-linejoin:round;stroke-width:6px"/><line x1="3.2" y1="81" x2="141" y2="81" style="fill:none;stroke:#000;stroke-linecap:round;stroke-linejoin:round;stroke-width:6px"/><line x1="3.2" y1="45" x2="141" y2="45" style="fill:none;stroke:#000;stroke-linecap:round;stroke-linejoin:round;stroke-width:6px"/><line x1="57" y1="15" x2="87" y2="15" style="fill:none;stroke:#000;stroke-linecap:round;stroke-linejoin:round;stroke-width:6px"/><polyline points="105 15 120 15 135.1 45 9 45 24 15 39 15" style="fill:none;stroke:#000;stroke-linecap:round;stroke-linejoin:round;stroke-width:6px"/><rect x="105" y="57" width="12" height="12" style="fill:none;stroke:#000;stroke-linejoin:round;stroke-width:6px"/><rect x="81" y="57" width="12" height="12" style="fill:none;stroke:#000;stroke-linejoin:round;stroke-width:6px"/><rect x="51" y="57" width="12" height="12" style="fill:none;stroke:#000;stroke-linejoin:round;stroke-width:6px"/><rect x="27" y="57" width="12" height="12" style="fill:none;stroke:#000;stroke-linejoin:round;stroke-width:6px"/><rect x="57" y="111" width="30" height="30" style="fill:none;stroke:#000;stroke-linejoin:round;stroke-width:6px"/><rect x="99" y="93" width="18" height="18" style="fill:none;stroke:#000;stroke-linejoin:round;stroke-width:6px"/><rect x="27" y="93" width="18" height="18" style="fill:none;stroke:#000;stroke-linejoin:round;stroke-width:6px"/><rect x="87" y="3" width="18" height="30" style="fill:none;stroke:#000;stroke-linejoin:round;stroke-width:6px"/><rect x="39" y="3" width="18" height="30" style="fill:none;stroke:#000;stroke-linejoin:round;stroke-width:6px"/><rect width="144" height="144" style="fill:none"/></svg>