<svg xmlns="http://www.w3.org/2000/svg" viewBox="0 0 144 144"><polyline points="87 141 3 141 3 3 141 3 141 105" style="fill:none;stroke:#000;stroke-linejoin:round;stroke-width:6px"/><path d="M39,27a12,12,0,0,0-24,0V57H39Z" style="fill:none;stroke:#000;stroke-linejoin:round;stroke-width:6px"/><path d="M75,27a12,12,0,0,0-24,0V57H75Z" style="fill:none;stroke:#000;stroke-linejoin:round;stroke-width:6px"/><path d="M39,87a12,12,0,0,0-24,0v30H39Z" style="fill:none;stroke:#000;stroke-linejoin:round;stroke-width:6px"/><path d="M75,87a12,12,0,0,0-24,0v30H75Z" style="fill:none;stroke:#000;stroke-linejoin:round;stroke-width:6px"/><path d="M129,69a12.0353,12.0353,0,0,0-12-12h-6A12.0353,12.0353,0,0,0,99,69v36h30Z" style="fill:none;stroke:#000;stroke-linejoin:round;stroke-width:6px"/><circle cx="114" cy="30" r="12" style="fill:none;stroke:#000;stroke-linejoin:round;stroke-width:6px"/><rect x="87" y="105" width="54" height="36" style="fill:none;stroke:#000;stroke-linejoin:round;stroke-width:6px"/><line x1="87" y1="117" x2="141" y2="117" style="fill:none;stroke:#000;stroke-linejoin:round;stroke-width:6px"/><line x1="87" y1="129" x2="141" y2="129" style="fill:none;stroke:#000;stroke-linejoin:round;stroke-width:6px"/><line x1="87" y1="3" x2="87" y2="105" style="fill:none;stroke:#000;stroke-linejoin:round;stroke-width:6px"/><rect width="144" height="144" style="fill:none"/></svg>