<svg xmlns="http://www.w3.org/2000/svg" viewBox="0 0 144 144"><path d="M141,111V63H57A12.0353,12.0353,0,0,0,45,75v36Z" style="fill:none;stroke:#000;stroke-linejoin:round;stroke-width:6px"/><polygon points="87 21 141 21 141 63 75 63 87 21" style="fill:none;stroke:#000;stroke-linejoin:round;stroke-width:6px"/><polyline points="93.8 51 99 33 114 33" style="fill:none;stroke:#000;stroke-linecap:round;stroke-linejoin:round;stroke-width:6px"/><polyline points="6 36 21 54 21 120 6 138" style="fill:none;stroke:#000;stroke-linecap:round;stroke-linejoin:round;stroke-width:6px"/><line x1="21" y1="87" x2="45" y2="87" style="fill:none;stroke:#000;stroke-linejoin:round;stroke-width:6px"/><line x1="21" y1="99" x2="45" y2="99" style="fill:none;stroke:#000;stroke-linejoin:round;stroke-width:6px"/><line x1="60" y1="75" x2="84" y2="75" style="fill:none;stroke:#000;stroke-linecap:round;stroke-linejoin:round;stroke-width:6px"/><line x1="60" y1="87" x2="84" y2="87" style="fill:none;stroke:#000;stroke-linecap:round;stroke-linejoin:round;stroke-width:6px"/><path d="M45,126a14.98,14.98,0,0,0,15,15h66a15,15,0,0,0,0-30H60A14.98,14.98,0,0,0,45,126Z" style="fill:none;stroke:#000;stroke-linejoin:round;stroke-width:6px"/><circle cx="66" cy="126" r="6" style="fill:none;stroke:#000;stroke-linejoin:round;stroke-width:6px"/><circle cx="93" cy="126" r="6" style="fill:none;stroke:#000;stroke-linejoin:round;stroke-width:6px"/><circle cx="120" cy="126" r="6" style="fill:none;stroke:#000;stroke-linejoin:round;stroke-width:6px"/><rect width="144" height="144" style="fill:none"/></svg>