<svg xmlns="http://www.w3.org/2000/svg" viewBox="0 0 144.3 144"><path d="M141.3,72.5,124.1,141H21L3.8,72.5C33.9,61.8,27.4,36.1,21,12.5L46.8,4c2.1,21.5,49.4,21.5,51.6,0l25.8,8.5C117.7,36.1,111.2,61.8,141.3,72.5Z" style="fill:none;stroke:#000;stroke-linejoin:round;stroke-width:6px"/><path d="M7.4,87H51.5a12.0353,12.0353,0,0,1,12,12v12a12.0353,12.0353,0,0,1-12,12h-35" style="fill:none;stroke:#000;stroke-linejoin:round;stroke-width:6px"/><path d="M137.7,87H93.6a12.0353,12.0353,0,0,0-12,12v12a12.0353,12.0353,0,0,0,12,12h35.1" style="fill:none;stroke:#000;stroke-linejoin:round;stroke-width:6px"/><path d="M46.8,4c7.1,58.7,44.4,58.7,51.6,0" style="fill:none;stroke:#000;stroke-linejoin:round;stroke-width:6px"/><path d="M57.6,69a6.0176,6.0176,0,0,1-6,6h-12a6.0176,6.0176,0,0,1-6-6V63a6.0176,6.0176,0,0,1,6-6h12a6.0176,6.0176,0,0,1,6,6Z" style="fill:none;stroke:#000;stroke-linejoin:round;stroke-width:6px"/><path d="M105.6,69a6.0176,6.0176,0,0,1-6,6h-12a6.0176,6.0176,0,0,1-6-6V63a6.0176,6.0176,0,0,1,6-6h12a6.0176,6.0176,0,0,1,6,6Z" style="fill:none;stroke:#000;stroke-linejoin:round;stroke-width:6px"/><line x1="12" y1="105" x2="33.6" y2="105" style="fill:none;stroke:#000;stroke-linecap:round;stroke-linejoin:round;stroke-width:6px"/><line x1="133.2" y1="105" x2="111.6" y2="105" style="fill:none;stroke:#000;stroke-linecap:round;stroke-linejoin:round;stroke-width:6px"/><path d="M141.3,72.5,124.1,141H21L3.8,72.5C33.9,61.8,27.4,36.1,21,12.5L46.8,4c2.1,21.5,49.4,21.5,51.6,0l25.8,8.5C117.7,36.1,111.2,61.8,141.3,72.5Z" style="fill:none;stroke:#000;stroke-linejoin:round;stroke-width:6px"/><path d="M7.4,87H51.5a12.0353,12.0353,0,0,1,12,12v12a12.0353,12.0353,0,0,1-12,12h-35" style="fill:none;stroke:#000;stroke-linejoin:round;stroke-width:6px"/><path d="M137.7,87H93.6a12.0353,12.0353,0,0,0-12,12v12a12.0353,12.0353,0,0,0,12,12h35.1" style="fill:none;stroke:#000;stroke-linejoin:round;stroke-width:6px"/><path d="M46.8,4c7.1,58.7,44.4,58.7,51.6,0" style="fill:none;stroke:#000;stroke-linejoin:round;stroke-width:6px"/><path d="M57.6,69a6.0176,6.0176,0,0,1-6,6h-12a6.0176,6.0176,0,0,1-6-6V63a6.0176,6.0176,0,0,1,6-6h12a6.0176,6.0176,0,0,1,6,6Z" style="fill:none;stroke:#000;stroke-linejoin:round;stroke-width:6px"/><path d="M105.6,69a6.0176,6.0176,0,0,1-6,6h-12a6.0176,6.0176,0,0,1-6-6V63a6.0176,6.0176,0,0,1,6-6h12a6.0176,6.0176,0,0,1,6,6Z" style="fill:none;stroke:#000;stroke-linejoin:round;stroke-width:6px"/><line x1="12" y1="105" x2="33.6" y2="105" style="fill:none;stroke:#000;stroke-linecap:round;stroke-linejoin:round;stroke-width:6px"/><line x1="133.2" y1="105" x2="111.6" y2="105" style="fill:none;stroke:#000;stroke-linecap:round;stroke-linejoin:round;stroke-width:6px"/><rect width="144" height="144" style="fill:none"/></svg>