<svg xmlns="http://www.w3.org/2000/svg" viewBox="0 0 144 144"><path d="M99,45a18.0529,18.0529,0,0,0,18-18H81A18.0529,18.0529,0,0,0,99,45Z" style="fill:none;stroke:#000;stroke-linecap:round;stroke-linejoin:round;stroke-width:6px"/><path d="M75,27a24,24,0,0,1,48,0Z" style="fill:none;stroke:#000;stroke-linecap:round;stroke-linejoin:round;stroke-width:6px"/><path d="M51,129a12.0353,12.0353,0,0,1-12,12H21a12,12,0,0,1,0-24H39A12.0353,12.0353,0,0,1,51,129Z" style="fill:none;stroke:#000;stroke-linecap:round;stroke-linejoin:round;stroke-width:6px"/><path d="M75,105a12.0353,12.0353,0,0,1-12,12H45a12,12,0,0,1,0-24H63A12.0353,12.0353,0,0,1,75,105Z" style="fill:none;stroke:#000;stroke-linecap:round;stroke-linejoin:round;stroke-width:6px"/><rect x="39" y="51" width="48" height="12" style="fill:none;stroke:#000;stroke-linecap:round;stroke-linejoin:round;stroke-width:6px"/><polyline points="39 51 15 51 15 45" style="fill:none;stroke:#000;stroke-linecap:round;stroke-linejoin:round;stroke-width:6px"/><path d="M93,123l12-21,15.8,34.1a6.6011,6.6011,0,0,0,7.5,3.6,6.2933,6.2933,0,0,0,4.1-3.2,6.746,6.746,0,0,0,.5-5.2L123,102l-3-33a18.0529,18.0529,0,0,0-18-18H87" style="fill:none;stroke:#000;stroke-linecap:round;stroke-linejoin:round;stroke-width:6px"/><path d="M57,63l5.2,7.3a12.0687,12.0687,0,0,0,19.6,0L87,63V96l-9,18" style="fill:none;stroke:#000;stroke-linecap:round;stroke-linejoin:round;stroke-width:6px"/><path d="M93,129a12.0353,12.0353,0,0,1-12,12H63a12,12,0,0,1,0-24H81A12.0353,12.0353,0,0,1,93,129Z" style="fill:none;stroke:#000;stroke-linecap:round;stroke-linejoin:round;stroke-width:6px"/><rect width="144" height="144" style="fill:none"/></svg>