<svg xmlns="http://www.w3.org/2000/svg" viewBox="0 0 144 144"><path d="M45,129a12.0353,12.0353,0,0,1-12,12H15a12,12,0,0,1,0-24H33A12.0353,12.0353,0,0,1,45,129Z" style="fill:none;stroke:#000;stroke-linecap:round;stroke-linejoin:round;stroke-width:6px"/><path d="M93,129a12.0353,12.0353,0,0,1-12,12H63a12,12,0,0,1,0-24H81A12.0353,12.0353,0,0,1,93,129Z" style="fill:none;stroke:#000;stroke-linecap:round;stroke-linejoin:round;stroke-width:6px"/><path d="M141,129a12.0353,12.0353,0,0,1-12,12H111a12,12,0,0,1,0-24h18A12.0353,12.0353,0,0,1,141,129Z" style="fill:none;stroke:#000;stroke-linecap:round;stroke-linejoin:round;stroke-width:6px"/><path d="M60,105a12.0353,12.0353,0,0,1-12,12H30a12,12,0,0,1,0-24H48A12.0353,12.0353,0,0,1,60,105Z" style="fill:none;stroke:#000;stroke-linecap:round;stroke-linejoin:round;stroke-width:6px"/><path d="M108,105a12.0353,12.0353,0,0,1-12,12H78a12,12,0,0,1,0-24H96A12.0353,12.0353,0,0,1,108,105Z" style="fill:none;stroke:#000;stroke-linecap:round;stroke-linejoin:round;stroke-width:6px"/><line x1="27" y1="69" x2="27" y2="93" style="fill:none;stroke:#000;stroke-linecap:round;stroke-linejoin:round;stroke-width:6px"/><path d="M27,57V52.6A25.6066,25.6066,0,0,1,52.6,27H123a18.0529,18.0529,0,0,1,18,18v87" style="fill:none;stroke:#000;stroke-linecap:round;stroke-linejoin:round;stroke-width:6px"/><polyline points="27 69 105 69 105 57 27 57 27 69" style="fill:none;stroke:#000;stroke-linecap:round;stroke-linejoin:round;stroke-width:6px"/><rect width="144" height="144" style="fill:none"/></svg>