<svg xmlns="http://www.w3.org/2000/svg" viewBox="0 0 144 144"><path d="M87,63a18.0529,18.0529,0,0,0,18-18H69A18.0529,18.0529,0,0,0,87,63Z" style="fill:none;stroke:#000;stroke-linecap:round;stroke-linejoin:round;stroke-width:6px"/><path d="M63,45a24,24,0,0,1,48,0Z" style="fill:none;stroke:#000;stroke-linecap:round;stroke-linejoin:round;stroke-width:6px"/><path d="M57,117a12.0353,12.0353,0,0,1-12,12H27a12,12,0,0,1,0-24H45A12.0353,12.0353,0,0,1,57,117Z" style="fill:none;stroke:#000;stroke-linecap:round;stroke-linejoin:round;stroke-width:6px"/><path d="M81,93a12.0353,12.0353,0,0,1-12,12H51a12,12,0,0,1,0-24H69A12.0353,12.0353,0,0,1,81,93Z" style="fill:none;stroke:#000;stroke-linecap:round;stroke-linejoin:round;stroke-width:6px"/><path d="M99,117a12.0353,12.0353,0,0,1-12,12H69a12,12,0,0,1,0-24H87A12.0353,12.0353,0,0,1,99,117Z" style="fill:none;stroke:#000;stroke-linecap:round;stroke-linejoin:round;stroke-width:6px"/><path d="M87,129h39a9,9,0,0,0,0-18H111l-3-24A18.0529,18.0529,0,0,0,90,69H75" style="fill:none;stroke:#000;stroke-linecap:round;stroke-linejoin:round;stroke-width:6px"/><rect x="27" y="69" width="48" height="12" style="fill:none;stroke:#000;stroke-linecap:round;stroke-linejoin:round;stroke-width:6px"/><polyline points="27 69 3 69 3 63" style="fill:none;stroke:#000;stroke-linecap:round;stroke-linejoin:round;stroke-width:6px"/><rect width="144" height="144" style="fill:none"/></svg>