<svg xmlns="http://www.w3.org/2000/svg" viewBox="0 0 144 144"><circle cx="111" cy="111" r="30" style="fill:none;stroke:#000;stroke-linejoin:round;stroke-width:6px"/><path d="M111,126a3,3,0,1,0,3,3,3.0085,3.0085,0,0,0-3-3Z" style="fill:#000"/><path d="M102,102a9,9,0,1,1,9,9v9" style="fill:none;stroke:#000;stroke-linecap:round;stroke-linejoin:round;stroke-width:6px"/><circle cx="39" cy="24" r="21" style="fill:none;stroke:#000;stroke-linejoin:round;stroke-width:6px"/><path d="M72,57H6c0,24.4,9.8,38.7,21,45v39H51V102C62.1,95.7,72,81.4,72,57Z" style="fill:none;stroke:#000;stroke-linejoin:round;stroke-width:6px"/><polygon points="42 57 36 57 33 93 39 99 45 93 42 57" style="fill:none;stroke:#000;stroke-linejoin:round;stroke-width:6px"/><rect width="144" height="144" style="fill:none"/></svg>