<svg xmlns="http://www.w3.org/2000/svg" viewBox="0 0 144 144"><path d="M54,57c0-3.3,2.7-3,6-3s6-.3,6,3" style="fill:none;stroke:#000;stroke-linecap:round;stroke-linejoin:round;stroke-width:6px"/><path d="M78,57c0-3.3,2.7-3,6-3s6-.3,6,3" style="fill:none;stroke:#000;stroke-linecap:round;stroke-linejoin:round;stroke-width:6px"/><path d="M56.7,93C30.9,97.4,3,96.5,3,121.5V141H141V121.5c0-25-26.9-23.9-53.6-28.5" style="fill:none;stroke:#000;stroke-linecap:round;stroke-linejoin:round;stroke-width:6px"/><path d="M107.9,51.8,111,33S114,3,72,3,33,33,33,33l3,18" style="fill:none;stroke:#000;stroke-linecap:round;stroke-linejoin:round;stroke-width:6px"/><polyline points="86.5 131.4 72 114 57.5 131.4" style="fill:none;stroke:#000;stroke-linejoin:round;stroke-width:6px"/><path d="M63,96.7V105a9,9,0,0,0,18,0V96.7" style="fill:none;stroke:#000;stroke-linejoin:round;stroke-width:6px"/><path d="M36,51c12,0,18-21,18-30,0,21,10,24,55,24" style="fill:none;stroke:#000;stroke-linejoin:round;stroke-width:6px"/><line x1="60" y1="141" x2="48" y2="94.3" style="fill:none;stroke:#000;stroke-linecap:round;stroke-linejoin:round;stroke-width:6px"/><polyline points="36 96 27 117 42 117 30 141" style="fill:none;stroke:#000;stroke-linejoin:round;stroke-width:6px"/><line x1="84" y1="141" x2="96" y2="94.3" style="fill:none;stroke:#000;stroke-linecap:round;stroke-linejoin:round;stroke-width:6px"/><polyline points="108 96 117 117 102 117 114 141" style="fill:none;stroke:#000;stroke-linejoin:round;stroke-width:6px"/><path d="M38.8,50.6C29.8,50.6,33,69,42,69c0,18,21,30,30,30s30-12,30-30c7.8,0,11.1-13.7,5.9-17.2" style="fill:none;stroke:#000;stroke-linejoin:round;stroke-width:6px"/><rect width="144" height="144" style="fill:none"/></svg>