<svg xmlns="http://www.w3.org/2000/svg" viewBox="0 0 144 144"><path d="M141,51a18.0529,18.0529,0,0,0-18-18H21A18.0529,18.0529,0,0,0,3,51v60a18.0529,18.0529,0,0,0,18,18H123a18.0529,18.0529,0,0,0,18-18Z" style="fill:none;stroke:#000;stroke-linecap:round;stroke-linejoin:round;stroke-width:6px"/><path d="M51,33V21A12.0353,12.0353,0,0,1,63,9H81A12.0353,12.0353,0,0,1,93,21V33" style="fill:none;stroke:#000;stroke-linecap:round;stroke-linejoin:round;stroke-width:6px"/><path d="M57.6,93.8A11.4,11.4,0,1,0,69,82.4,11.4,11.4,0,1,1,80.4,71" style="fill:none;stroke:#000;stroke-linecap:round;stroke-linejoin:round;stroke-width:6px"/><line x1="69" y1="51" x2="69" y2="114" style="fill:none;stroke:#000;stroke-linecap:round;stroke-linejoin:round;stroke-width:6px"/><rect width="144" height="144" style="fill:none"/></svg>