<svg xmlns="http://www.w3.org/2000/svg" viewBox="0 0 144 144"><circle cx="37.5" cy="24" r="21" style="fill:none;stroke:#000;stroke-linejoin:round;stroke-width:6px"/><path d="M70.5,57H4.5c0,24.4,9.8,38.7,21,45v39h24V102C60.6,95.7,70.5,81.4,70.5,57Z" style="fill:none;stroke:#000;stroke-linejoin:round;stroke-width:6px"/><polygon points="40.5 57 34.5 57 31.5 93 37.5 99 43.5 93 40.5 57" style="fill:none;stroke:#000;stroke-linejoin:round;stroke-width:6px"/><path d="M74.1,17.6A36.3743,36.3743,0,0,1,97.5,9a36,36,0,0,1,0,72,34.8681,34.8681,0,0,1-14.1-2.9" style="fill:none;stroke:#000;stroke-linecap:round;stroke-linejoin:round;stroke-width:6px"/><polyline points="139.5 3 98.2 58.1 82.2 42.1" style="fill:none;stroke:#000;stroke-linecap:round;stroke-linejoin:round;stroke-width:6px"/><rect width="144" height="144" style="fill:none"/></svg>