<svg xmlns="http://www.w3.org/2000/svg" viewBox="0 0 144 144"><path d="M72,99c9,0,30-12,30-30,9,0,9-18,0-18L99,36c-24,0-24-9-27-12-3,3-3,12-27,12L42,51c-9,0-9,18,0,18C42,87,63,99,72,99Z" style="fill:none;stroke:#000;stroke-linecap:round;stroke-linejoin:round;stroke-width:6px"/><path d="M107.9,55.5,111,33S114,3,72,3,33,33,33,33l3.1,22.5" style="fill:none;stroke:#000;stroke-linecap:round;stroke-linejoin:round;stroke-width:6px"/><path d="M56.7,93.1,18.5,103.5A24.0585,24.0585,0,0,0,3,126v15H141V126a24.0067,24.0067,0,0,0-15.6-22.5L87.4,93" style="fill:none;stroke:#000;stroke-linecap:round;stroke-linejoin:round;stroke-width:6px"/><path d="M54,57c0-3.3,2.7-3,6-3s6-.3,6,3" style="fill:none;stroke:#000;stroke-linecap:round;stroke-linejoin:round;stroke-width:6px"/><path d="M78,57c0-3.3,2.7-3,6-3s6-.3,6,3" style="fill:none;stroke:#000;stroke-linecap:round;stroke-linejoin:round;stroke-width:6px"/><polygon points="72 114 54 141 90 141 72 114" style="fill:none;stroke:#000;stroke-linejoin:round;stroke-width:6px"/><path d="M63,96v9a9,9,0,0,0,18,0V96" style="fill:none;stroke:#000;stroke-linejoin:round;stroke-width:6px"/><line x1="105" y1="123" x2="126" y2="123" style="fill:none;stroke:#000;stroke-linejoin:round;stroke-width:6px"/><rect width="144" height="144" style="fill:none"/></svg>