<svg xmlns="http://www.w3.org/2000/svg" viewBox="0 0 144 144"><circle cx="39" cy="24" r="21" style="fill:none;stroke:#000;stroke-linejoin:round;stroke-width:6px"/><path d="M72,57H6c0,24.4,9.8,38.7,21,45v39H51V102C62.1,95.7,72,81.4,72,57Z" style="fill:none;stroke:#000;stroke-linejoin:round;stroke-width:6px"/><polygon points="42 57 36 57 33 93 39 99 45 93 42 57" style="fill:none;stroke:#000;stroke-linejoin:round;stroke-width:6px"/><polyline points="90 39 99 39 99 54 114 39 141 39 141 3 81 3 81 27" style="fill:none;stroke:#000;stroke-linecap:round;stroke-linejoin:round;stroke-width:6px"/><polygon points="126 18 120 18 120 24 126 24 126 18" style="fill:#000"/><polygon points="114 18 108 18 108 24 114 24 114 18" style="fill:#000"/><polygon points="102 18 96 18 96 24 102 24 102 18" style="fill:#000"/><rect width="144" height="144" style="fill:none"/></svg>