<svg xmlns="http://www.w3.org/2000/svg" viewBox="0 0 144 144"><path d="M117,3h0c-3.9,4.9-13.8,7.2-24,.1V38.6S96.5,51.2,117,57c20.5-5.7,24-18.4,24-18.4V3.1C130.8,10.2,120.9,7.9,117,3Z" style="fill:none;stroke:#000;stroke-linecap:round;stroke-linejoin:round;stroke-width:6px"/><line x1="117" y1="39" x2="117" y2="15.2" style="fill:none;stroke:#000;stroke-linecap:round;stroke-linejoin:round;stroke-width:6px"/><line x1="105.1" y1="27" x2="129.1" y2="27" style="fill:none;stroke:#000;stroke-linecap:round;stroke-linejoin:round;stroke-width:6px"/><circle cx="36" cy="24" r="21" style="fill:none;stroke:#000;stroke-linejoin:round;stroke-width:6px"/><path d="M36,54C17.8,54,3,81,3,111H24v30H48V111H69C69,81,54.2,54,36,54Z" style="fill:none;stroke:#000;stroke-linejoin:round;stroke-width:6px"/><line x1="24" y1="111" x2="48" y2="111" style="fill:none;stroke:#000;stroke-linejoin:round;stroke-width:6px"/><polyline points="50.8 60.3 36 81 21.2 60.3" style="fill:none;stroke:#000;stroke-linejoin:round;stroke-width:6px"/><rect width="144" height="144" style="fill:none"/></svg>