<svg xmlns="http://www.w3.org/2000/svg" viewBox="0 0 144.1 144.1"><path d="M134.5,103.1l6.6-3.8-9-15.6-6.6,3.8a27.2517,27.2517,0,0,0-8.4-4.9V75H99v7.6a26.14,26.14,0,0,0-8.4,4.9L84,83.7,75,99.3l6.6,3.8a24.868,24.868,0,0,0,0,9.8L75,116.7l9,15.6,6.6-3.8a27.2517,27.2517,0,0,0,8.4,4.9v7.7h18v-7.6a26.14,26.14,0,0,0,8.4-4.9l6.6,3.8,9-15.6-6.6-3.8A22.0774,22.0774,0,0,0,134.5,103.1Z" style="fill:none;stroke:#000;stroke-linejoin:round;stroke-width:6px"/><circle cx="108" cy="108" r="12" style="fill:none;stroke:#000;stroke-linejoin:round;stroke-width:6px"/><circle cx="39" cy="24" r="21" style="fill:none;stroke:#000;stroke-linejoin:round;stroke-width:6px"/><path d="M72,57H6c0,24.4,9.8,38.7,21,45v39H51V102C62.1,95.7,72,81.4,72,57Z" style="fill:none;stroke:#000;stroke-linejoin:round;stroke-width:6px"/><polygon points="42 57 36 57 33 93 39 99 45 93 42 57" style="fill:none;stroke:#000;stroke-linejoin:round;stroke-width:6px"/><rect width="144" height="144" style="fill:none"/></svg>