<svg xmlns="http://www.w3.org/2000/svg" viewBox="0 0 144 144"><polygon points="69 111 45 141 93 141 69 111" style="fill:none;stroke:#000;stroke-linecap:round;stroke-linejoin:round;stroke-width:6px"/><line x1="3" y1="111" x2="141" y2="111" style="fill:none;stroke:#000;stroke-linecap:round;stroke-linejoin:round;stroke-width:6px"/><circle cx="111" cy="63" r="30" style="fill:none;stroke:#000;stroke-linejoin:round;stroke-width:6px"/><path d="M104,70a7,7,0,1,0,7-7,7,7,0,1,1,7-7" style="fill:none;stroke:#000;stroke-linecap:round;stroke-linejoin:round;stroke-width:6px"/><line x1="111" y1="76.9" x2="111" y2="81.5" style="fill:none;stroke:#000;stroke-linecap:round;stroke-linejoin:round;stroke-width:6px"/><line x1="111" y1="44.5" x2="111" y2="49.1" style="fill:none;stroke:#000;stroke-linecap:round;stroke-linejoin:round;stroke-width:6px"/><circle cx="30" cy="21" r="18" style="fill:none;stroke:#000;stroke-linecap:round;stroke-linejoin:round;stroke-width:6px"/><path d="M57,51H3C3,63.5,9,81,21,85.2V111H39V85.2C51,81,57,63.5,57,51Z" style="fill:none;stroke:#000;stroke-linecap:round;stroke-linejoin:round;stroke-width:6px"/><rect width="144" height="144" style="fill:none"/></svg>