<svg xmlns="http://www.w3.org/2000/svg" viewBox="0 0 144 144"><circle cx="39" cy="24" r="21" style="fill:none;stroke:#000;stroke-linejoin:round;stroke-width:6px"/><path d="M72,57H6c0,24.4,9.8,38.7,21,45v39H51V102C62.1,95.7,72,81.4,72,57Z" style="fill:none;stroke:#000;stroke-linejoin:round;stroke-width:6px"/><polygon points="42 57 36 57 33 93 39 99 45 93 42 57" style="fill:none;stroke:#000;stroke-linejoin:round;stroke-width:6px"/><line x1="141" y1="3" x2="141" y2="51" style="fill:none;stroke:#000;stroke-linecap:round;stroke-linejoin:round;stroke-width:6px"/><polygon points="87 33 141 45 141 9 87 21 87 33" style="fill:none;stroke:#000;stroke-linecap:round;stroke-linejoin:round;stroke-width:6px"/><line x1="87" y1="18" x2="87" y2="36" style="fill:none;stroke:#000;stroke-linecap:round;stroke-linejoin:round;stroke-width:6px"/><path d="M99,35.7V42a9,9,0,0,0,18,0V39.7" style="fill:none;stroke:#000;stroke-linecap:round;stroke-linejoin:round;stroke-width:6px"/><rect width="144" height="144" style="fill:none"/></svg>