<svg xmlns="http://www.w3.org/2000/svg" viewBox="0 0 144 144"><circle cx="111" cy="33" r="30" style="fill:none;stroke:#000;stroke-linejoin:round;stroke-width:6px"/><path d="M104,39.6a7,7,0,0,0,14,0,6.9358,6.9358,0,0,0-7-6.9,7.02,7.02,0,0,1-7-7,7.0007,7.0007,0,0,1,14,0" style="fill:none;stroke:#000;stroke-linecap:round;stroke-linejoin:round;stroke-width:6px"/><line x1="111" y1="46.6" x2="111" y2="51.2" style="fill:none;stroke:#000;stroke-linecap:round;stroke-linejoin:round;stroke-width:6px"/><line x1="111" y1="14.1" x2="111" y2="18.7" style="fill:none;stroke:#000;stroke-linecap:round;stroke-linejoin:round;stroke-width:6px"/><circle cx="39" cy="24" r="21" style="fill:none;stroke:#000;stroke-linejoin:round;stroke-width:6px"/><path d="M39,54C20.8,54,6,81,6,111H27v30H51V111H72C72,81,57.2,54,39,54Z" style="fill:none;stroke:#000;stroke-linejoin:round;stroke-width:6px"/><line x1="27" y1="111" x2="51" y2="111" style="fill:none;stroke:#000;stroke-linejoin:round;stroke-width:6px"/><polyline points="53.8 60.3 39 81 24.2 60.3" style="fill:none;stroke:#000;stroke-linejoin:round;stroke-width:6px"/><rect width="144" height="144" style="fill:none"/></svg>