<svg xmlns="http://www.w3.org/2000/svg" viewBox="0 0 144 144"><path d="M114,57c10-7.3,27-22.7,27-34.2,0-9.3-6.8-14.9-13.4-14.9-7.3,0-10,5-13.6,11-3.6-6-6.3-11-13.6-11C93.8,7.9,87,13.5,87,22.8c0,11.5,17,26.9,27,34.2Z" style="fill:none;stroke:#000;stroke-linecap:round;stroke-linejoin:round;stroke-width:6px"/><circle cx="39" cy="24" r="21" style="fill:none;stroke:#000;stroke-linejoin:round;stroke-width:6px"/><path d="M39,54C20.8,54,6,81,6,111H27v30H51V111H72C72,81,57.2,54,39,54Z" style="fill:none;stroke:#000;stroke-linejoin:round;stroke-width:6px"/><line x1="27" y1="111" x2="51" y2="111" style="fill:none;stroke:#000;stroke-linejoin:round;stroke-width:6px"/><polyline points="53.8 60.3 39 81 24.2 60.3" style="fill:none;stroke:#000;stroke-linejoin:round;stroke-width:6px"/><rect width="144" height="144" style="fill:none"/></svg>