<svg xmlns="http://www.w3.org/2000/svg" viewBox="0 0 144 144"><path d="M72,117c-9,0-15,24-15,24H87S81,117,72,117Z" style="fill:none;stroke:#000;stroke-linejoin:round;stroke-width:6px"/><path d="M72,99c-4.4,0-12-3.3-15-6.3v-6l-3.7,2.1C48.8,91,44,96.6,42.4,101.3l-6.2,18.5Z" style="fill:none;stroke:#000;stroke-linejoin:round;stroke-width:6px"/><path d="M98.6,95.7c15,6,31.3,10.9,36,18,6,9,6.4,27.3,6.4,27.3H3s.4-18.3,6.4-27.3c4.7-7.1,21-12,36-18" style="fill:none;stroke:#000;stroke-linejoin:round;stroke-width:6px"/><path d="M72,99c4.4,0,12-3.3,15-6.3v-6l3.7,2.1c4.5,2.2,9.3,7.8,10.9,12.5l6.2,18.5Z" style="fill:none;stroke:#000;stroke-linejoin:round;stroke-width:6px"/><path d="M63,104.2V108a9,9,0,0,0,18,0v-3.8" style="fill:none;stroke:#000;stroke-linejoin:round;stroke-width:6px"/><path d="M87,92.7v-18a22.4067,22.4067,0,0,0,9.2-18c3,0,6.1-12,.1-15,0-1.8,8.1-16.8,6-27-3-15-45-15-48-3-18,0-6,27.6-6,30-6,3-3.2,15-.2,15a22.607,22.607,0,0,0,8.8,18v18" style="fill:none;stroke:#000;stroke-linejoin:round;stroke-width:6px"/><rect width="144" height="144" style="fill:none"/></svg>