<svg xmlns="http://www.w3.org/2000/svg" viewBox="0 0 144 144"><circle cx="39" cy="24" r="21" style="fill:none;stroke:#000;stroke-linejoin:round;stroke-width:6px"/><path d="M72,57H6c0,24.4,9.8,38.7,21,45v39H51V102C62.1,95.7,72,81.4,72,57Z" style="fill:none;stroke:#000;stroke-linejoin:round;stroke-width:6px"/><polygon points="42 57 36 57 33 93 39 99 45 93 42 57" style="fill:none;stroke:#000;stroke-linejoin:round;stroke-width:6px"/><path d="M71.6,104A85.6661,85.6661,0,0,0,93,115.2c45.6-16.9,48-50.5,48-88.7,0,0-36-9.7-48-21.7h0c-4,4-10.8,7.8-18,11.1" style="fill:none;stroke:#000;stroke-linecap:round;stroke-linejoin:round;stroke-width:6px"/><polyline points="87 51 87 33 99 33 99 51 117 51 117 63 99 63 99 81 87 81 87 66" style="fill:none;stroke:#000;stroke-linecap:round;stroke-linejoin:round;stroke-width:6px"/><rect width="144" height="144" style="fill:none"/></svg>