<svg xmlns="http://www.w3.org/2000/svg" viewBox="0 0 144 144"><path d="M114,57c10-7.3,27-22.7,27-34.2,0-9.3-6.8-14.9-13.4-14.9-7.3,0-10,5-13.6,11-3.6-6-6.3-11-13.6-11C93.8,7.9,87,13.5,87,22.8c0,11.5,17,26.9,27,34.2Z" style="fill:none;stroke:#000;stroke-linecap:round;stroke-linejoin:round;stroke-width:6px"/><circle cx="39" cy="24" r="21" style="fill:none;stroke:#000;stroke-linejoin:round;stroke-width:6px"/><path d="M72,57H6c0,24.4,9.8,38.7,21,45v39H51V102C62.1,95.7,72,81.4,72,57Z" style="fill:none;stroke:#000;stroke-linejoin:round;stroke-width:6px"/><polygon points="42 57 36 57 33 93 39 99 45 93 42 57" style="fill:none;stroke:#000;stroke-linejoin:round;stroke-width:6px"/><rect width="144" height="144" style="fill:none"/></svg>