<svg xmlns="http://www.w3.org/2000/svg" viewBox="0 0 144 144"><circle cx="39" cy="24" r="21" style="fill:none;stroke:#000;stroke-linejoin:round;stroke-width:6px"/><path d="M72,57H6c0,24.4,9.8,38.7,21,45v39H51V102C62.1,95.7,72,81.4,72,57Z" style="fill:none;stroke:#000;stroke-linejoin:round;stroke-width:6px"/><polygon points="42 57 36 57 33 93 39 99 45 93 42 57" style="fill:none;stroke:#000;stroke-linejoin:round;stroke-width:6px"/><polyline points="117.1 50 117.1 63 105.1 63 105.1 50" style="fill:none;stroke:#000;stroke-linejoin:round;stroke-width:6px"/><circle cx="111.1" cy="33" r="18" style="fill:none;stroke:#000;stroke-linejoin:round;stroke-width:6px"/><line x1="111" x2="111" y2="6" style="fill:none;stroke:#000;stroke-linejoin:round;stroke-width:6px"/><line x1="134.4" y1="9.6" x2="130.1" y2="13.8" style="fill:none;stroke:#000;stroke-linejoin:round;stroke-width:6px"/><line x1="144" y1="33" x2="138" y2="33" style="fill:none;stroke:#000;stroke-linejoin:round;stroke-width:6px"/><line x1="134.4" y1="56.2" x2="130.1" y2="52" style="fill:none;stroke:#000;stroke-linejoin:round;stroke-width:6px"/><line x1="87.7" y1="56.2" x2="91.9" y2="52" style="fill:none;stroke:#000;stroke-linejoin:round;stroke-width:6px"/><line x1="78" y1="33" x2="84" y2="33" style="fill:none;stroke:#000;stroke-linejoin:round;stroke-width:6px"/><line x1="87.7" y1="9.6" x2="91.9" y2="13.8" style="fill:none;stroke:#000;stroke-linejoin:round;stroke-width:6px"/><rect width="144" height="144" style="fill:none"/></svg>