<svg xmlns="http://www.w3.org/2000/svg" viewBox="0 0 144 144"><circle cx="39" cy="24" r="21" style="fill:none;stroke:#000;stroke-linejoin:round;stroke-width:6px"/><path d="M72,57H6c0,24.4,9.8,38.7,21,45v39H51V102C62.1,95.7,72,81.4,72,57Z" style="fill:none;stroke:#000;stroke-linejoin:round;stroke-width:6px"/><polygon points="42 57 36 57 33 93 39 99 45 93 42 57" style="fill:none;stroke:#000;stroke-linejoin:round;stroke-width:6px"/><rect x="87" y="99" width="54" height="42" style="fill:none;stroke:#000;stroke-linecap:round;stroke-linejoin:round;stroke-width:6px"/><path d="M105,99V93a6.0176,6.0176,0,0,1,6-6h6a6.0176,6.0176,0,0,1,6,6v6" style="fill:none;stroke:#000;stroke-linecap:round;stroke-linejoin:round;stroke-width:6px"/><line x1="87" y1="117" x2="141" y2="117" style="fill:none;stroke:#000;stroke-linecap:round;stroke-linejoin:round;stroke-width:6px"/><line x1="114" y1="117" x2="114" y2="123" style="fill:none;stroke:#000;stroke-linecap:round;stroke-linejoin:round;stroke-width:6px"/><rect width="144" height="144" style="fill:none"/></svg>