<svg xmlns="http://www.w3.org/2000/svg" viewBox="0 0 144 144"><polyline points="90 39 99 39 99 54 114 39 141 39 141 3 81 3 81 27" style="fill:none;stroke:#000;stroke-linecap:round;stroke-linejoin:round;stroke-width:6px"/><polygon points="126 18 120 18 120 24 126 24 126 18" style="fill:#000"/><polygon points="114 18 108 18 108 24 114 24 114 18" style="fill:#000"/><polygon points="102 18 96 18 96 24 102 24 102 18" style="fill:#000"/><circle cx="39" cy="24" r="21" style="fill:none;stroke:#000;stroke-linejoin:round;stroke-width:6px"/><path d="M39,54C20.8,54,6,81,6,111H27v30H51V111H72C72,81,57.2,54,39,54Z" style="fill:none;stroke:#000;stroke-linejoin:round;stroke-width:6px"/><line x1="27" y1="111" x2="51" y2="111" style="fill:none;stroke:#000;stroke-linejoin:round;stroke-width:6px"/><polyline points="53.8 60.3 39 81 24.2 60.3" style="fill:none;stroke:#000;stroke-linejoin:round;stroke-width:6px"/><rect width="144" height="144" style="fill:none"/></svg>