<svg xmlns="http://www.w3.org/2000/svg" viewBox="0 0 144 144"><circle cx="39" cy="24" r="21" style="fill:none;stroke:#000;stroke-linejoin:round;stroke-width:6px"/><path d="M72,57H6c0,24.4,9.8,38.7,21,45v39H51V102C62.1,95.7,72,81.4,72,57Z" style="fill:none;stroke:#000;stroke-linejoin:round;stroke-width:6px"/><polygon points="42 57 36 57 33 93 39 99 45 93 42 57" style="fill:none;stroke:#000;stroke-linejoin:round;stroke-width:6px"/><path d="M117,3h0c-3.9,4.9-13.8,7.2-24,.1V38.6S96.5,51.2,117,57c20.5-5.7,24-18.4,24-18.4V3.1C130.8,10.2,120.9,7.9,117,3Z" style="fill:none;stroke:#000;stroke-linecap:round;stroke-linejoin:round;stroke-width:6px"/><line x1="117" y1="39" x2="117" y2="15.2" style="fill:none;stroke:#000;stroke-linecap:round;stroke-linejoin:round;stroke-width:6px"/><line x1="105.1" y1="27" x2="129.1" y2="27" style="fill:none;stroke:#000;stroke-linecap:round;stroke-linejoin:round;stroke-width:6px"/><rect width="144" height="144" style="fill:none"/></svg>