<svg xmlns="http://www.w3.org/2000/svg" viewBox="0 0 144 144"><circle cx="39" cy="24" r="21" style="fill:none;stroke:#000;stroke-linejoin:round;stroke-width:6px"/><polyline points="27 132.5 27 141 51 141 51 114.3" style="fill:none;stroke:#000;stroke-linecap:round;stroke-linejoin:round;stroke-width:6px"/><path d="M69.3,77.8A75.0011,75.0011,0,0,0,72,57H6c0,24.4,9.3,38.7,21,45" style="fill:none;stroke:#000;stroke-linecap:round;stroke-linejoin:round;stroke-width:6px"/><circle cx="99" cy="12" r="9" style="fill:none;stroke:#000;stroke-linejoin:round;stroke-width:6px"/><path d="M104.5,47.5c5.3-2.9,9.5-9.4,9.5-20.5H84c0,11.1,4.2,17.6,9.5,20.5" style="fill:none;stroke:#000;stroke-linejoin:round;stroke-width:6px"/><polyline points="6 141 60 87 90 111 135 63" style="fill:none;stroke:#000;stroke-linecap:round;stroke-linejoin:round;stroke-width:6px"/><polyline points="96 63 135 63 135 102" style="fill:none;stroke:#000;stroke-linecap:round;stroke-linejoin:round;stroke-width:6px"/><rect width="144" height="144" style="fill:none"/></svg>