<svg xmlns="http://www.w3.org/2000/svg" viewBox="0 0 144 144.0281"><path d="M57,36a9,9,0,0,1,18,0v66a9,9,0,0,1-18,0Z" style="fill:none;stroke:#000;stroke-linejoin:round;stroke-width:6px"/><line x1="60.4" y1="29" x2="36" y2="4.8" style="fill:none;stroke:#000;stroke-linecap:round;stroke-linejoin:round;stroke-width:6px"/><line x1="71.6" y1="29" x2="96" y2="4.8" style="fill:none;stroke:#000;stroke-linecap:round;stroke-linejoin:round;stroke-width:6px"/><path d="M66,111c0,39.4-44.6,37.6-44.6,8.7A20.7435,20.7435,0,0,1,42.4,99C17.7,86.4,3,81.8,3,62.1A27.8672,27.8672,0,0,1,16.6,38.2a27.5621,27.5621,0,0,1,27.5-.3L57,45" style="fill:none;stroke:#000;stroke-linecap:round;stroke-linejoin:round;stroke-width:6px"/><path d="M66,111c0,39.2,44.6,37.6,44.6,8.7A20.7435,20.7435,0,0,0,89.6,99C114.3,86.4,129,81.8,129,62.1a27.8672,27.8672,0,0,0-13.6-23.9,27.5621,27.5621,0,0,0-27.5-.3L75,45" style="fill:none;stroke:#000;stroke-linecap:round;stroke-linejoin:round;stroke-width:6px"/><circle cx="33" cy="63" r="12" style="fill:none;stroke:#000;stroke-linecap:round;stroke-linejoin:round;stroke-width:6px"/><circle cx="99" cy="63" r="12" style="fill:none;stroke:#000;stroke-linecap:round;stroke-linejoin:round;stroke-width:6px"/><line x1="57" y1="87" x2="75" y2="87" style="fill:none;stroke:#000;stroke-linecap:round;stroke-linejoin:round;stroke-width:6px"/><line x1="57" y1="69" x2="75" y2="69" style="fill:none;stroke:#000;stroke-linecap:round;stroke-linejoin:round;stroke-width:6px"/><line x1="57" y1="51" x2="75" y2="51" style="fill:none;stroke:#000;stroke-linecap:round;stroke-linejoin:round;stroke-width:6px"/><rect width="144" height="144" style="fill:none"/></svg>