<svg xmlns="http://www.w3.org/2000/svg" viewBox="0 0 144 144"><path d="M123,126a15.1092,15.1092,0,0,1-15,15H30a15.1092,15.1092,0,0,1-15-15V18A15.1092,15.1092,0,0,1,30,3h78a15.1092,15.1092,0,0,1,15,15Z" style="fill:none;stroke:#000;stroke-linejoin:round;stroke-width:6px"/><path d="M111,33.6a5.3775,5.3775,0,0,1-5.4,5.4H32.4A5.3775,5.3775,0,0,1,27,33.6V20.4A5.3775,5.3775,0,0,1,32.4,15h73.3a5.3775,5.3775,0,0,1,5.4,5.4L111,33.6Z" style="fill:none;stroke:#000;stroke-linejoin:round;stroke-width:6px"/><line x1="15" y1="93" x2="123" y2="93" style="fill:none;stroke:#000;stroke-linejoin:round;stroke-width:6px"/><line x1="15" y1="51" x2="123" y2="51" style="fill:none;stroke:#000;stroke-linejoin:round;stroke-width:6px"/><line x1="69" y1="51" x2="69" y2="141" style="fill:none;stroke:#000;stroke-linejoin:round;stroke-width:6px"/><line x1="30" y1="75" x2="48" y2="75" style="fill:none;stroke:#000;stroke-linecap:round;stroke-linejoin:round;stroke-width:6px"/><line x1="87" y1="75" x2="105" y2="75" style="fill:none;stroke:#000;stroke-linecap:round;stroke-linejoin:round;stroke-width:6px"/><line x1="87" y1="123" x2="105" y2="123" style="fill:none;stroke:#000;stroke-linecap:round;stroke-linejoin:round;stroke-width:6px"/><line x1="87" y1="111" x2="105" y2="111" style="fill:none;stroke:#000;stroke-linecap:round;stroke-linejoin:round;stroke-width:6px"/><line x1="39" y1="66" x2="39" y2="84" style="fill:none;stroke:#000;stroke-linecap:round;stroke-linejoin:round;stroke-width:6px"/><line x1="30" y1="108" x2="48" y2="126" style="fill:none;stroke:#000;stroke-linecap:round;stroke-linejoin:round;stroke-width:6px"/><line x1="48" y1="108" x2="30" y2="126" style="fill:none;stroke:#000;stroke-linecap:round;stroke-linejoin:round;stroke-width:6px"/><rect width="144" height="144" style="fill:none"/></svg>