<svg xmlns="http://www.w3.org/2000/svg" viewBox="0 0 144 144"><polyline points="27 15 3 15 3 141 141 141 141 15 117 15" style="fill:none;stroke:#000;stroke-linecap:round;stroke-linejoin:round;stroke-width:6px"/><rect x="27" y="3" width="18" height="24" style="fill:none;stroke:#000;stroke-linecap:round;stroke-linejoin:round;stroke-width:6px"/><rect x="99" y="3" width="18" height="24" style="fill:none;stroke:#000;stroke-linecap:round;stroke-linejoin:round;stroke-width:6px"/><line x1="45" y1="15" x2="99" y2="15" style="fill:none;stroke:#000;stroke-linecap:round;stroke-linejoin:round;stroke-width:6px"/><line x1="3" y1="45" x2="141" y2="45" style="fill:none;stroke:#000;stroke-linecap:round;stroke-linejoin:round;stroke-width:6px"/><rect x="45" y="81" width="54" height="42" style="fill:none;stroke:#000;stroke-linecap:round;stroke-linejoin:round;stroke-width:6px"/><line x1="72" y1="114" x2="72" y2="103.7" style="fill:none;stroke:#000;stroke-linecap:round;stroke-linejoin:round;stroke-width:6px"/><path d="M71.9,91.7a6,6,0,1,0,6,6,6.0176,6.0176,0,0,0-6-6Z" style="fill:none;stroke:#000;stroke-linejoin:round;stroke-width:6px"/><path d="M93,78a21,21,0,0,0-42,0v3H93Z" style="fill:none;stroke:#000;stroke-linecap:round;stroke-linejoin:round;stroke-width:6px"/><rect width="144" height="144" style="fill:none"/></svg>