<svg xmlns="http://www.w3.org/2000/svg" viewBox="0 0 144 144"><polyline points="27 15 3 15 3 141 141 141 141 15 117 15" style="fill:none;stroke:#000;stroke-linecap:round;stroke-linejoin:round;stroke-width:6px"/><rect x="27" y="3" width="18" height="24" style="fill:none;stroke:#000;stroke-linecap:round;stroke-linejoin:round;stroke-width:6px"/><rect x="99" y="3" width="18" height="24" style="fill:none;stroke:#000;stroke-linecap:round;stroke-linejoin:round;stroke-width:6px"/><line x1="45" y1="15" x2="99" y2="15" style="fill:none;stroke:#000;stroke-linecap:round;stroke-linejoin:round;stroke-width:6px"/><line x1="3" y1="45" x2="141" y2="45" style="fill:none;stroke:#000;stroke-linecap:round;stroke-linejoin:round;stroke-width:6px"/><path d="M103.8,68.8l-50.6,22L42,85.2,29,90.8l16.7,16.7L73.5,96.4,62.4,126l14.8-7.4L92,89l17.4-6.5a7.3868,7.3868,0,0,0,4-9.7A7.2765,7.2765,0,0,0,103.8,68.8Z" style="fill:none;stroke:#000;stroke-linecap:round;stroke-linejoin:round;stroke-width:6px"/><polyline points="87.1 76 62.4 65.8 48.7 71.5 73.7 81.8" style="fill:none;stroke:#000;stroke-linecap:round;stroke-linejoin:round;stroke-width:6px"/><rect width="144" height="144" style="fill:none"/></svg>