<svg xmlns="http://www.w3.org/2000/svg" viewBox="0 0 144 144"><path d="M51,105v3.2L17.5,120.6A21.8381,21.8381,0,0,0,3,141H141a21.8381,21.8381,0,0,0-14.5-20.4L93,108.2V84.3" style="fill:none;stroke:#000;stroke-linecap:round;stroke-linejoin:round;stroke-width:6px"/><path d="M39.8,27.4C46.2,14.6,57.8,6,71.1,6c20.1,0,36.3,19.5,36.3,43.6,0,18.5-9.6,34.3-23.2,40.6" style="fill:none;stroke:#000;stroke-linecap:round;stroke-linejoin:round;stroke-width:6px"/><path d="M106.7,41.2c-9.9,1.2-20.2,3.4-30.1-13.8-1.5,2.9-4.3,5.6-7.6,7.9" style="fill:none;stroke:#000;stroke-linecap:round;stroke-linejoin:round;stroke-width:6px"/><path d="M75,87a6.0176,6.0176,0,0,1-6,6H9a6.0176,6.0176,0,0,1-6-6V51a6.0176,6.0176,0,0,1,6-6H33c1.7-3.4,2.7-6,6.7-6H53.3c4,0,5,2.6,6.7,6h9a6.0176,6.0176,0,0,1,6,6Z" style="fill:none;stroke:#000;stroke-linejoin:round;stroke-width:6px"/><circle cx="45" cy="66" r="12" style="fill:none;stroke:#000;stroke-linejoin:round;stroke-width:6px"/><rect x="12" y="39" width="3" height="6" style="fill:none;stroke:#000;stroke-linejoin:round;stroke-width:6px"/><rect width="144" height="144" style="fill:none"/></svg>