<svg xmlns="http://www.w3.org/2000/svg" viewBox="0 0 144 144"><path d="M15,39l.2-6A6.1174,6.1174,0,0,1,21,27h5.7A6.4267,6.4267,0,0,1,33,33v6" style="fill:none;stroke:#000;stroke-linejoin:round;stroke-width:6px"/><path d="M117,39c-3.8-7.6-7.3-18-15-18H72c-6,0-8.8,5.8-18,18H15C6,39,3,43.1,3,49.3v62.3c0,6.3,3,11.3,12.3,11.3H128.6c9.3,0,12.3-5.1,12.3-11.3V49.3c0-6.3-3-10.3-12.3-10.3Z" style="fill:none;stroke:#000;stroke-linejoin:round;stroke-width:6px"/><circle cx="87" cy="78" r="33" style="fill:none;stroke:#000;stroke-linejoin:round;stroke-width:6px"/><circle cx="87" cy="78" r="18" style="fill:none;stroke:#000;stroke-linejoin:round;stroke-width:6px"/><circle cx="24" cy="60" r="9" style="fill:none;stroke:#000;stroke-linejoin:round;stroke-width:6px"/><rect width="144" height="144" style="fill:none"/></svg>