<svg xmlns="http://www.w3.org/2000/svg" viewBox="0 0 144 144"><path d="M3,21A12.0353,12.0353,0,0,1,15,9H129a12.0353,12.0353,0,0,1,12,12V123a12.0353,12.0353,0,0,1-12,12H15A12.0353,12.0353,0,0,1,3,123Z" style="fill:none;stroke:#000;stroke-linecap:round;stroke-linejoin:round;stroke-width:6px"/><path d="M63,63.2V63A12.0353,12.0353,0,0,0,51,51H39A12.0353,12.0353,0,0,0,27,63V81A12.0353,12.0353,0,0,0,39,93H51A12.0353,12.0353,0,0,0,63,81v-.1" style="fill:none;stroke:#000;stroke-linecap:round;stroke-linejoin:round;stroke-width:6px"/><path d="M117,63.2V63a12.0353,12.0353,0,0,0-12-12H93A12.0353,12.0353,0,0,0,81,63V81A12.0353,12.0353,0,0,0,93,93h12a12.0353,12.0353,0,0,0,12-12v-.1" style="fill:none;stroke:#000;stroke-linecap:round;stroke-linejoin:round;stroke-width:6px"/><rect width="144" height="144" style="fill:none"/></svg>