<svg xmlns="http://www.w3.org/2000/svg" viewBox="0 0 144 144"><path d="M3,21A12.0353,12.0353,0,0,1,15,9H129a12.0353,12.0353,0,0,1,12,12V123a12.0353,12.0353,0,0,1-12,12H15A12.0353,12.0353,0,0,1,3,123Z" style="fill:none;stroke:#000;stroke-linecap:round;stroke-linejoin:round;stroke-width:6px"/><polygon points="99 45 99 27 39 27 39 117 99 117 99 99 57 99 57 81 99 81 99 63 57 63 57 45 99 45" style="fill:none;stroke:#000;stroke-linecap:round;stroke-linejoin:round;stroke-width:6px"/><rect width="144" height="144" style="fill:none"/></svg>