<svg xmlns="http://www.w3.org/2000/svg" viewBox="0 0 144 144"><path d="M111,39A12.0353,12.0353,0,0,1,99,51H51A12.0353,12.0353,0,0,1,39,39V9h72Z" style="fill:none;stroke:#000;stroke-linejoin:round;stroke-width:6px"/><rect x="51" y="69" width="48" height="60" style="fill:none;stroke:#000;stroke-linejoin:round;stroke-width:6px"/><circle cx="27" cy="99" r="12" style="fill:none;stroke:#000;stroke-linejoin:round;stroke-width:6px"/><polyline points="63 105 69 87 81 87 87 105" style="fill:none;stroke:#000;stroke-linecap:round;stroke-linejoin:round;stroke-width:6px"/><line x1="51" y1="21" x2="51" y2="39" style="fill:none;stroke:#000;stroke-linecap:round;stroke-linejoin:round;stroke-width:6px"/><line x1="63" y1="21" x2="63" y2="39" style="fill:none;stroke:#000;stroke-linecap:round;stroke-linejoin:round;stroke-width:6px"/><line x1="75" y1="21" x2="75" y2="39" style="fill:none;stroke:#000;stroke-linecap:round;stroke-linejoin:round;stroke-width:6px"/><line x1="87" y1="21" x2="87" y2="39" style="fill:none;stroke:#000;stroke-linecap:round;stroke-linejoin:round;stroke-width:6px"/><line x1="99" y1="21" x2="99" y2="39" style="fill:none;stroke:#000;stroke-linecap:round;stroke-linejoin:round;stroke-width:6px"/><line x1="57" y1="51" x2="57" y2="69" style="fill:none;stroke:#000;stroke-linejoin:round;stroke-width:6px"/><line x1="93" y1="51" x2="93" y2="69" style="fill:none;stroke:#000;stroke-linejoin:round;stroke-width:6px"/><rect x="111" y="93" width="18" height="12" style="fill:none;stroke:#000;stroke-linejoin:round;stroke-width:6px"/><path d="M99,75h24a18.0529,18.0529,0,0,1,18,18v12a18.0529,18.0529,0,0,1-18,18H99" style="fill:none;stroke:#000;stroke-linejoin:round;stroke-width:6px"/><path d="M51,123H21A18.0529,18.0529,0,0,1,3,105V93A18.0529,18.0529,0,0,1,21,75H51" style="fill:none;stroke:#000;stroke-linejoin:round;stroke-width:6px"/><rect width="144" height="144" style="fill:none"/></svg>