<svg xmlns="http://www.w3.org/2000/svg" viewBox="0 0 144 144"><path d="M49.1,45,62.2,33H81.8L94.9,45H114c5,0,9,5.1,9,10.1V96a8.9626,8.9626,0,0,1-9,9H30a9.0264,9.0264,0,0,1-9-9V55.1c0-5,4.1-10.1,9-10.1Z" style="fill:none;stroke:#000;stroke-linecap:round;stroke-linejoin:round;stroke-width:6px"/><path d="M141,117a24.0706,24.0706,0,0,1-24,24H27A24.0706,24.0706,0,0,1,3,117V27A24.0706,24.0706,0,0,1,27,3h90a24.0706,24.0706,0,0,1,24,24Z" style="fill:none;stroke:#000;stroke-linejoin:round;stroke-width:6px"/><path d="M105,60a3,3,0,1,0,3,3,2.9465,2.9465,0,0,0-3-3Z" style="fill:#000"/><circle cx="72" cy="70.5" r="16.5" style="fill:none;stroke:#000;stroke-linecap:round;stroke-linejoin:round;stroke-width:6px"/><rect width="144" height="144" style="fill:none"/></svg>