<svg xmlns="http://www.w3.org/2000/svg" viewBox="0 0 144 144"><rect x="9" y="27" width="54" height="90" style="fill:none;stroke:#000;stroke-linejoin:round;stroke-width:6px"/><path d="M129,81c-8.3,0-12,3.7-12,12v12H63V39h78V81Z" style="fill:none;stroke:#000;stroke-linejoin:round;stroke-width:6px"/><line x1="75" y1="51" x2="75" y2="57" style="fill:none;stroke:#000;stroke-linecap:square;stroke-linejoin:round;stroke-width:6px"/><line x1="87" y1="51" x2="87" y2="57" style="fill:none;stroke:#000;stroke-linecap:square;stroke-linejoin:round;stroke-width:6px"/><line x1="99" y1="51" x2="99" y2="57" style="fill:none;stroke:#000;stroke-linecap:square;stroke-linejoin:round;stroke-width:6px"/><line x1="75" y1="87" x2="75" y2="93" style="fill:none;stroke:#000;stroke-linecap:square;stroke-linejoin:round;stroke-width:6px"/><line x1="87" y1="87" x2="87" y2="93" style="fill:none;stroke:#000;stroke-linecap:square;stroke-linejoin:round;stroke-width:6px"/><line x1="99" y1="87" x2="99" y2="93" style="fill:none;stroke:#000;stroke-linecap:square;stroke-linejoin:round;stroke-width:6px"/><line x1="111" y1="51" x2="111" y2="57" style="fill:none;stroke:#000;stroke-linecap:square;stroke-linejoin:round;stroke-width:6px"/><line x1="123" y1="51" x2="123" y2="57" style="fill:none;stroke:#000;stroke-linecap:square;stroke-linejoin:round;stroke-width:6px"/><path d="M69,27H3V18a2.9465,2.9465,0,0,1,3-3H66a3.0085,3.0085,0,0,1,3,3Z" style="fill:none;stroke:#000;stroke-linecap:square;stroke-linejoin:round;stroke-width:6px"/><path d="M69,126a3.0085,3.0085,0,0,1-3,3H6a2.9465,2.9465,0,0,1-3-3v-9H69Z" style="fill:none;stroke:#000;stroke-linecap:square;stroke-linejoin:round;stroke-width:6px"/><rect width="144" height="144" style="fill:none"/></svg>