<svg xmlns="http://www.w3.org/2000/svg" viewBox="0 0 144 144"><polyline points="111.5 8.9 114.1 32.4 91.1 34.5" style="fill:none;stroke:#000;stroke-linecap:round;stroke-linejoin:round;stroke-width:6px"/><path d="M105,93.1a6.0176,6.0176,0,0,1-6,6H39a6.0176,6.0176,0,0,1-6-6v-36a6.0176,6.0176,0,0,1,6-6H63l1.3-2.7a6.0456,6.0456,0,0,1,5.4-3.3H83.3a6.0456,6.0456,0,0,1,5.4,3.3L90,51.1h9a6.0176,6.0176,0,0,1,6,6Z" style="fill:none;stroke:#000;stroke-linejoin:round;stroke-width:6px"/><circle cx="75" cy="75.1" r="12" style="fill:none;stroke:#000;stroke-linejoin:round;stroke-width:6px"/><rect x="42" y="45.1" width="3" height="6" style="fill:none;stroke:#000;stroke-linejoin:round;stroke-width:6px"/><polyline points="29.7 137.2 25.9 113.8 48.8 110.6" style="fill:none;stroke:#000;stroke-linecap:round;stroke-linejoin:round;stroke-width:6px"/><path d="M9,72.1A60.0166,60.0166,0,0,1,114.1,32.5" style="fill:none;stroke:#000;stroke-linecap:round;stroke-linejoin:round;stroke-width:6px"/><path d="M129,72.1A60.04,60.04,0,0,1,25.9,113.9" style="fill:none;stroke:#000;stroke-linecap:round;stroke-linejoin:round;stroke-width:6px"/><rect width="144" height="144" style="fill:none"/></svg>