<svg xmlns="http://www.w3.org/2000/svg" viewBox="0 0 144 144"><polygon points="99 117 39 117 33 63 105 63 99 117" style="fill:none;stroke:#000;stroke-linejoin:round;stroke-width:6px"/><path d="M15,51A12.0353,12.0353,0,0,0,27,63h84a12.0353,12.0353,0,0,0,12-12V15A12.0353,12.0353,0,0,0,111,3H27A12.0353,12.0353,0,0,0,15,15Z" style="fill:none;stroke:#000;stroke-linejoin:round;stroke-width:6px"/><rect x="57" y="117" width="24" height="24" style="fill:none;stroke:#000;stroke-linejoin:round;stroke-width:6px"/><rect x="33" y="21" width="72" height="24" style="fill:none;stroke:#000;stroke-linejoin:round;stroke-width:6px"/><line x1="105" y1="21" x2="119.5" y2="6.5" style="fill:none;stroke:#000;stroke-linejoin:round;stroke-width:6px"/><line x1="105" y1="45" x2="119.5" y2="59.5" style="fill:none;stroke:#000;stroke-linejoin:round;stroke-width:6px"/><line x1="33" y1="21" x2="18.5" y2="6.5" style="fill:none;stroke:#000;stroke-linejoin:round;stroke-width:6px"/><line x1="33" y1="45" x2="18.5" y2="59.5" style="fill:none;stroke:#000;stroke-linejoin:round;stroke-width:6px"/><circle cx="78" cy="96" r="9" style="fill:none;stroke:#000;stroke-linejoin:round;stroke-width:6px"/><rect width="144" height="144" style="fill:none"/></svg>