<svg xmlns="http://www.w3.org/2000/svg" viewBox="0 0 144 144"><ellipse cx="117" cy="69" rx="24" ry="42" style="fill:none;stroke:#000;stroke-linecap:round;stroke-linejoin:round;stroke-width:6px"/><path d="M48,111c-13.3,0-24-18.8-24-42S34.7,27,48,27" style="fill:none;stroke:#000;stroke-linecap:round;stroke-linejoin:round;stroke-width:6px"/><path d="M102,111c-13.3,0-24-18.8-24-42s10.7-42,24-42" style="fill:none;stroke:#000;stroke-linecap:round;stroke-linejoin:round;stroke-width:6px"/><path d="M66,111c-13.3,0-24-18.8-24-42S52.7,27,66,27" style="fill:none;stroke:#000;stroke-linecap:round;stroke-linejoin:round;stroke-width:6px"/><path d="M117,111H42C4,88.2,3,89.2,3,69S4.2,49.7,42,27h75" style="fill:none;stroke:#000;stroke-linejoin:round;stroke-width:6px"/><line x1="46.2" y1="45" x2="82.2" y2="45" style="fill:none;stroke:#000;stroke-linejoin:round;stroke-width:6px"/><line x1="42" y1="69" x2="78" y2="69" style="fill:none;stroke:#000;stroke-linejoin:round;stroke-width:6px"/><line x1="46.3" y1="93" x2="82.3" y2="93" style="fill:none;stroke:#000;stroke-linejoin:round;stroke-width:6px"/><rect width="144" height="144" style="fill:none"/></svg>