<svg xmlns="http://www.w3.org/2000/svg" viewBox="0 0 144 144"><polyline points="39.1 97.1 54 116.1 33 128.9" style="fill:none;stroke:#000;stroke-linecap:round;stroke-linejoin:round;stroke-width:6px"/><path d="M94.9,27H114c5,0,9,5.1,9,10.1V78a9.0264,9.0264,0,0,1-9,9H30a9.0919,9.0919,0,0,1-9-9V37.1C21,32.2,25.1,27,30,27H49.1" style="fill:none;stroke:#000;stroke-linecap:round;stroke-linejoin:round;stroke-width:6px"/><polyline points="49.1 27 62.2 15 81.8 15 94.9 27" style="fill:none;stroke:#000;stroke-linecap:round;stroke-linejoin:round;stroke-width:6px"/><path d="M133.8,78c4.6,3.6,7.2,7.7,7.2,12,0,14.1-27.7,25.8-63,27" style="fill:none;stroke:#000;stroke-linecap:round;stroke-linejoin:round;stroke-width:6px"/><path d="M54,116.1C24.6,113,3,102.5,3,90c0-4.3,2.6-8.3,7.1-11.9" style="fill:none;stroke:#000;stroke-linecap:round;stroke-linejoin:round;stroke-width:6px"/><circle cx="72" cy="54" r="15" style="fill:none;stroke:#000;stroke-linejoin:round;stroke-width:6px"/><path d="M105,42a3,3,0,1,0,3,3,2.9465,2.9465,0,0,0-3-3Z" style="fill:#000"/><rect width="144" height="144" style="fill:none"/></svg>