<svg xmlns="http://www.w3.org/2000/svg" viewBox="0 0 144 144"><path d="M135,132a8.9626,8.9626,0,0,1-9,9H18a8.9626,8.9626,0,0,1-9-9V78a8.9626,8.9626,0,0,1,9-9H54L66,57h36l12,12h12a8.9626,8.9626,0,0,1,9,9Z" style="fill:none;stroke:#000;stroke-linejoin:round;stroke-width:6px"/><path d="M21,69V63a6.0176,6.0176,0,0,1,6-6h6a6.0176,6.0176,0,0,1,6,6v6" style="fill:none;stroke:#000;stroke-linejoin:round;stroke-width:6px"/><circle cx="30" cy="90" r="9" style="fill:none;stroke:#000;stroke-linejoin:round;stroke-width:6px"/><circle cx="87" cy="102" r="15" style="fill:none;stroke:#000;stroke-linejoin:round;stroke-width:6px"/><circle cx="87" cy="102" r="27" style="fill:none;stroke:#000;stroke-linejoin:round;stroke-width:6px"/><rect x="51" y="3" width="66" height="36" style="fill:none;stroke:#000;stroke-linejoin:round;stroke-width:6px"/><rect x="63" y="15" width="42" height="12" style="fill:none;stroke:#000;stroke-linejoin:round;stroke-width:6px"/><line x1="60" y1="39" x2="66" y2="57" style="fill:none;stroke:#000;stroke-linejoin:round;stroke-width:6px"/><line x1="108" y1="39" x2="102" y2="57" style="fill:none;stroke:#000;stroke-linejoin:round;stroke-width:6px"/><rect width="144" height="144" style="fill:none"/></svg>