<svg xmlns="http://www.w3.org/2000/svg" viewBox="0 0 144 144"><line x1="75" y1="105" x2="75" y2="141" style="fill:none;stroke:#000;stroke-linecap:round;stroke-linejoin:round;stroke-width:6px"/><line x1="39" y1="141" x2="75" y2="108" style="fill:none;stroke:#000;stroke-linecap:round;stroke-linejoin:round;stroke-width:6px"/><line x1="111" y1="141" x2="75" y2="108" style="fill:none;stroke:#000;stroke-linecap:round;stroke-linejoin:round;stroke-width:6px"/><path d="M81,69v33a3.0759,3.0759,0,0,1-3,3H72a3.0759,3.0759,0,0,1-3-3V69" style="fill:none;stroke:#000;stroke-linecap:round;stroke-linejoin:round;stroke-width:6px"/><line x1="57" y1="69" x2="93" y2="69" style="fill:none;stroke:#000;stroke-linecap:round;stroke-linejoin:round;stroke-width:6px"/><path d="M111,51a6.0176,6.0176,0,0,1-6,6H45a6.0176,6.0176,0,0,1-6-6V15a6.0176,6.0176,0,0,1,6-6H69c1.7-3.4,2.7-6,6.7-6H89.3c4,0,5,2.6,6.7,6h9a6.0176,6.0176,0,0,1,6,6Z" style="fill:none;stroke:#000;stroke-linejoin:round;stroke-width:6px"/><circle cx="81" cy="33" r="12" style="fill:none;stroke:#000;stroke-linejoin:round;stroke-width:6px"/><rect x="48" y="3" width="3" height="6" style="fill:none;stroke:#000;stroke-linejoin:round;stroke-width:6px"/><rect width="144" height="144" style="fill:none"/></svg>