<svg xmlns="http://www.w3.org/2000/svg" viewBox="0 0 144 144"><circle cx="72" cy="72" r="15" style="fill:none;stroke:#000;stroke-linejoin:round;stroke-width:6px"/><path d="M108,51H93L81,39H63L51,51H36a9.0919,9.0919,0,0,0-9,9V90a9.0919,9.0919,0,0,0,9,9h72a9.0264,9.0264,0,0,0,9-9V60A9.0264,9.0264,0,0,0,108,51Z" style="fill:none;stroke:#000;stroke-linecap:round;stroke-linejoin:round;stroke-width:6px"/><path d="M105,60a3,3,0,1,0,3,3,2.9465,2.9465,0,0,0-3-3Z" style="fill:#000"/><circle cx="72" cy="72" r="69" style="fill:none;stroke:#000;stroke-linejoin:round;stroke-width:6px"/><rect width="144" height="144" style="fill:none"/></svg>