<svg xmlns="http://www.w3.org/2000/svg" viewBox="0 0 144 144"><path d="M141,111a12.0353,12.0353,0,0,1-12,12H15A12.0353,12.0353,0,0,1,3,111V33A12.0353,12.0353,0,0,1,15,21H129a12.0353,12.0353,0,0,1,12,12Z" style="fill:none;stroke:#000;stroke-linejoin:round;stroke-width:6px"/><polygon points="99 83.4 110.3 72.1 99 60.8 99 45 83.3 45 72 33.7 60.7 45 45 45 45 60.8 33.7 72.1 45 83.4 45 99 60.7 99 72 110.3 83.3 99 99 99 99 83.4" style="fill:none;stroke:#000;stroke-linejoin:round;stroke-width:6px"/><path d="M69,54c12,0,18,8.1,18,18S81,90,69,90Z" style="fill:none;stroke:#000;stroke-linejoin:round;stroke-width:6px"/><rect width="144" height="144" style="fill:none"/></svg>