<svg xmlns="http://www.w3.org/2000/svg" viewBox="0 0 144 144"><path d="M117,39c-4.3-8.5-7.5-18-15-18H72c-6,0-8.8,5.8-18,18H15C6,39,3,43.1,3,49.3v62.3c0,6.3,3,11.3,12.3,11.3H128.6c9.3,0,12.3-5.1,12.3-11.3V49.3c0-6.3-3-10.3-12.3-10.3Z" style="fill:none;stroke:#000;stroke-linejoin:round;stroke-width:6px"/><path d="M15,38.9V33a6.0176,6.0176,0,0,1,6-6h6a6.0176,6.0176,0,0,1,6,6v6" style="fill:none;stroke:#000;stroke-linejoin:round;stroke-width:6px"/><path d="M24,48a3,3,0,1,0,3,3,2.9465,2.9465,0,0,0-3-3Z" style="fill:#000"/><path d="M36,48a3,3,0,1,0,3,3,2.9465,2.9465,0,0,0-3-3Z" style="fill:#000"/><path d="M48,48a3,3,0,0,0,0,6,3,3,0,0,0,0-6Z" style="fill:#000"/><circle cx="105" cy="87" r="24" style="fill:none;stroke:#000;stroke-linejoin:round;stroke-width:6px"/><path d="M69,105a6.0176,6.0176,0,0,1-6,6H21a6.0176,6.0176,0,0,1-6-6V69a6.0176,6.0176,0,0,1,6-6H63a6.0176,6.0176,0,0,1,6,6Z" style="fill:none;stroke:#000;stroke-linejoin:round;stroke-width:6px"/><line x1="105" y1="75" x2="105" y2="81" style="fill:none;stroke:#000;stroke-linecap:round;stroke-linejoin:round;stroke-width:6px"/><line x1="105" y1="93" x2="105" y2="99" style="fill:none;stroke:#000;stroke-linecap:round;stroke-linejoin:round;stroke-width:6px"/><line x1="117" y1="87" x2="111" y2="87" style="fill:none;stroke:#000;stroke-linecap:round;stroke-linejoin:round;stroke-width:6px"/><line x1="99" y1="87" x2="93" y2="87" style="fill:none;stroke:#000;stroke-linecap:round;stroke-linejoin:round;stroke-width:6px"/><rect width="144" height="144" style="fill:none"/></svg>