<svg xmlns="http://www.w3.org/2000/svg" viewBox="0 0 144 144"><path d="M141,117a6.0176,6.0176,0,0,1-6,6H9a6.0176,6.0176,0,0,1-6-6V39a6.0176,6.0176,0,0,1,6-6H135a6.0176,6.0176,0,0,1,6,6Z" style="fill:none;stroke:#000;stroke-linecap:round;stroke-linejoin:round;stroke-width:6px"/><path d="M105,33V27a6.0176,6.0176,0,0,1,6-6h12a6.0176,6.0176,0,0,1,6,6v6" style="fill:none;stroke:#000;stroke-linejoin:round;stroke-width:6px"/><rect x="15" y="45" width="24" height="12" style="fill:none;stroke:#000;stroke-linecap:round;stroke-linejoin:round;stroke-width:6px"/><circle cx="72" cy="84" r="27" style="fill:none;stroke:#000;stroke-linecap:round;stroke-linejoin:round;stroke-width:6px"/><circle cx="72" cy="84" r="12" style="fill:none;stroke:#000;stroke-linejoin:round;stroke-width:6px"/><line x1="3" y1="69" x2="49.5" y2="69" style="fill:none;stroke:#000;stroke-linejoin:round;stroke-width:6px"/><line x1="3" y1="99" x2="49.7" y2="99" style="fill:none;stroke:#000;stroke-linejoin:round;stroke-width:6px"/><line x1="94.6" y1="69" x2="141" y2="69" style="fill:none;stroke:#000;stroke-linejoin:round;stroke-width:6px"/><line x1="141" y1="99" x2="94.5" y2="99" style="fill:none;stroke:#000;stroke-linejoin:round;stroke-width:6px"/><circle cx="120" cy="54" r="3" style="fill:none;stroke:#000;stroke-linejoin:round;stroke-width:6px"/><rect width="144" height="144" style="fill:none"/></svg>