<svg xmlns="http://www.w3.org/2000/svg" viewBox="0 0 144 144"><path d="M117,132a9,9,0,0,1-18,0V51a30,30,0,0,0-60,0,6.0176,6.0176,0,0,1-6,6H27a6.0176,6.0176,0,0,1-6-6,48,48,0,0,1,96,0Z" style="fill:none;stroke:#000;stroke-miterlimit:10;stroke-width:6px"/><line x1="30" y1="21" x2="42" y2="36" style="fill:none;stroke:#000;stroke-miterlimit:10;stroke-width:6px"/><line x1="54" y1="6" x2="60" y2="21" style="fill:none;stroke:#000;stroke-miterlimit:10;stroke-width:6px"/><line x1="81" y1="21" x2="87" y2="9" style="fill:none;stroke:#000;stroke-miterlimit:10;stroke-width:6px"/><line x1="99" y1="39" x2="111" y2="30" style="fill:none;stroke:#000;stroke-miterlimit:10;stroke-width:6px"/><line x1="99" y1="69" x2="117" y2="57" style="fill:none;stroke:#000;stroke-miterlimit:10;stroke-width:6px"/><line x1="99" y1="96" x2="117" y2="84" style="fill:none;stroke:#000;stroke-miterlimit:10;stroke-width:6px"/><line x1="99" y1="123" x2="117" y2="111" style="fill:none;stroke:#000;stroke-miterlimit:10;stroke-width:6px"/><rect width="144" height="144" style="fill:none"/></svg>