<svg xmlns="http://www.w3.org/2000/svg" viewBox="0 0 144 144"><path d="M102.6,6c-3.5,10.6,7.1,21.2,17.7,17.7-3.5,10.6,7.1,21.2,17.7,17.7,0,0-24.8,17.7-38.9,3.5S102.6,6,102.6,6Z" style="fill:none;stroke:#000;stroke-linejoin:round;stroke-width:6px"/><path d="M44.7,134.7c3.5-10.6-7.1-21.2-17.7-17.7,3.5-10.6-7.1-21.2-17.7-17.7,0,0,24.8-17.7,38.9-3.5S44.7,134.7,44.7,134.7Z" style="fill:none;stroke:#000;stroke-linejoin:round;stroke-width:6px"/><circle cx="73.6" cy="70.4" r="33" style="fill:none;stroke:#000;stroke-linejoin:round;stroke-width:6px"/><path d="M106.5,73.4a51.1546,51.1546,0,0,1-65.3.3" style="fill:none;stroke:#000;stroke-linejoin:round;stroke-width:6px"/><path d="M101.7,53a51.0335,51.0335,0,0,1-56.1,0" style="fill:none;stroke:#000;stroke-linejoin:round;stroke-width:6px"/><rect width="144" height="144" style="fill:none"/></svg>