<svg xmlns="http://www.w3.org/2000/svg" viewBox="0 0 144 144"><line x1="75" y1="141" x2="75" y2="129" style="fill:none;stroke:#000;stroke-linecap:round;stroke-linejoin:round;stroke-width:6px"/><path d="M87.7,126.2a54.1461,54.1461,0,0,0,21.2,12.7,55.6547,55.6547,0,0,0-12.7-21.2A48.3811,48.3811,0,0,0,86.1,110a65.349,65.349,0,0,0,21.9,4c18.2,0,33-9,33-9s-14.8-9-33-9a64.765,64.765,0,0,0-22.4,4.2,105.9756,105.9756,0,0,0,25.5-18.5,107.4778,107.4778,0,0,0,23.3-36.1A107.4778,107.4778,0,0,0,98.3,68.9a109.0607,109.0607,0,0,0-19.8,28C82,87.8,87,72,87,53.9,87,25.8,75,3,75,3S63,25.8,63,54a120.04,120.04,0,0,0,8.5,43A109.0607,109.0607,0,0,0,51.7,69,106.84,106.84,0,0,0,15.6,45.6,108.511,108.511,0,0,0,38.9,81.7a105.9756,105.9756,0,0,0,25.5,18.5A64.765,64.765,0,0,0,42,96c-18.2,0-33,9-33,9s14.8,9,33,9a65.349,65.349,0,0,0,21.9-4,48.3811,48.3811,0,0,0-10.1,7.7,54.1461,54.1461,0,0,0-12.7,21.2,55.6547,55.6547,0,0,0,21.2-12.7" style="fill:none;stroke:#000;stroke-linecap:round;stroke-linejoin:round;stroke-width:6px"/><rect width="144" height="144" style="fill:none"/></svg>