<svg xmlns="http://www.w3.org/2000/svg" viewBox="0 0 144.1 144"><path d="M99,78c0,38.1-19.4,63-24,63S51,116.1,51,78,70.1,3,75,3,99,39.9,99,78Z" style="fill:none;stroke:#000;stroke-linejoin:round;stroke-width:6px"/><path d="M87,90c0,9.9-6,18-12,18s-12-8-12-18c0-9.9,6-18,12-18S87,80.1,87,90Z" style="fill:none;stroke:#000;stroke-linejoin:round;stroke-width:6px"/><line x1="52.2" y1="93" x2="39.2" y2="106" style="fill:none;stroke:#000;stroke-linejoin:round;stroke-width:6px"/><line x1="107.1" y1="38.1" x2="96" y2="49.2" style="fill:none;stroke:#000;stroke-linejoin:round;stroke-width:6px"/><path d="M141.1,21.1l-17-17-17,17a12.0208,12.0208,0,0,0,17,17Z" style="fill:none;stroke:#000;stroke-linejoin:round;stroke-width:6px"/><path d="M5.3,122.9l17,17,17-17a12.0208,12.0208,0,0,0-17-17Z" style="fill:none;stroke:#000;stroke-linejoin:round;stroke-width:6px"/><rect width="144" height="144" style="fill:none"/></svg>