<svg xmlns="http://www.w3.org/2000/svg" viewBox="0 0 144 144"><path d="M129,81l12-21c-13-4-22.3-15.4-30-30L72,15,33,30C25.3,44.6,16,56,3,60L15,81" style="fill:none;stroke:#000;stroke-linecap:round;stroke-linejoin:round;stroke-width:6px"/><path d="M126,95.5c-9.7-5-30.3-8.5-54-8.5s-44.3,4-57,9" style="fill:none;stroke:#000;stroke-linecap:round;stroke-linejoin:round;stroke-width:6px"/><path d="M129,81V96s-9,27-57,27S15,96,15,96V81" style="fill:none;stroke:#000;stroke-linecap:round;stroke-linejoin:round;stroke-width:6px"/><path d="M93.1,70.2c17.1,2,30.4,6.4,35.9,10.8" style="fill:none;stroke:#000;stroke-linecap:round;stroke-linejoin:round;stroke-width:6px"/><path d="M15,81c4.8-4.8,18.2-9,36-10.9" style="fill:none;stroke:#000;stroke-linecap:round;stroke-linejoin:round;stroke-width:6px"/><polygon points="72 30.5 78 45 93 45 81 55.7 85.5 72 72 61.4 58.5 71.9 63 55.7 51 45 66 45 72 30.5" style="fill:none;stroke:#000;stroke-linejoin:round;stroke-width:6px"/><rect width="144" height="144" style="fill:none"/></svg>