<svg xmlns="http://www.w3.org/2000/svg" viewBox="0 0 144 144"><path d="M9,108V84a63,63,0,0,1,126,0v24" style="fill:none;stroke:#000;stroke-linejoin:round;stroke-width:6px"/><path d="M105,74.8a96.0019,96.0019,0,0,0-66,0v-24a96.0019,96.0019,0,0,1,66,0Z" style="fill:none;stroke:#000;stroke-linejoin:round;stroke-width:6px"/><path d="M72,6a8.9626,8.9626,0,0,0-9,9H81a8.9626,8.9626,0,0,0-9-9Z" style="fill:#000"/><path d="M141,141c-18.6-13.3-44.4-18-69-18s-50.4,4.8-69,18l6-33.2a141.4878,141.4878,0,0,1,126,0Z" style="fill:none;stroke:#000;stroke-linecap:round;stroke-linejoin:round;stroke-width:6px"/><rect width="144" height="144" style="fill:none"/></svg>