<svg xmlns="http://www.w3.org/2000/svg" viewBox="0 0 144 144"><path d="M54.9,107.6a23.901,23.901,0,0,1-33.9,0l-8.5-8.5a23.901,23.901,0,0,1,0-33.9L42.2,35.5a23.901,23.901,0,0,1,33.9,0L84.6,44a23.901,23.901,0,0,1,0,33.9Z" style="fill:none;stroke:#000;stroke-linejoin:round;stroke-width:6px"/><path d="M65.5,29.1,29.4,65.2a12.0107,12.0107,0,0,0,0,17l8.5,8.5a12.0107,12.0107,0,0,0,17,0L91,54.6" style="fill:none;stroke:#000;stroke-linejoin:round;stroke-width:6px"/><rect x="40.402" y="67.6781" width="11.9999" height="11.9999" transform="translate(-38.5074 54.3909) rotate(-45)" style="fill:none;stroke:#000;stroke-linejoin:round;stroke-width:5.999942240425611px"/><rect x="57.3001" y="50.7353" width="11.9999" height="11.9999" transform="translate(-21.5777 61.3772) rotate(-45)" style="fill:none;stroke:#000;stroke-linejoin:round;stroke-width:5.999942240425611px"/><circle cx="93" cy="27" r="18" style="fill:none;stroke:#000;stroke-linejoin:round;stroke-width:6px"/><circle cx="117" cy="39" r="18" style="fill:none;stroke:#000;stroke-linejoin:round;stroke-width:6px"/><path d="M105,81a12.0353,12.0353,0,0,1,12-12h12a12.0353,12.0353,0,0,1,12,12V99H105Z" style="fill:none;stroke:#000;stroke-linejoin:round;stroke-width:6px"/><polygon points="129 99 117 99 117 129 123.3 141 129 129 129 99" style="fill:none;stroke:#000;stroke-linejoin:round;stroke-width:6px"/><line x1="123" y1="78" x2="123" y2="48" style="fill:none;stroke:#000;stroke-linecap:round;stroke-linejoin:round;stroke-width:6px"/><rect width="144" height="144" style="fill:none"/></svg>