<svg xmlns="http://www.w3.org/2000/svg" viewBox="0 0 144 144"><path d="M45,93C-6,60-6,129,22.9,129H45Z" style="fill:none;stroke:#000;stroke-linejoin:round;stroke-width:6px"/><path d="M93,93c51-33,51,36,22.1,36H93Z" style="fill:none;stroke:#000;stroke-linejoin:round;stroke-width:6px"/><polygon points="45 93 69 75 93 93 93 129 45 129 45 93" style="fill:none;stroke:#000;stroke-linejoin:round;stroke-width:6px"/><circle cx="114" cy="102" r="6" style="fill:none;stroke:#000;stroke-linejoin:round;stroke-width:6px"/><circle cx="24" cy="102" r="6" style="fill:none;stroke:#000;stroke-linejoin:round;stroke-width:6px"/><line x1="57" y1="84" x2="57" y2="129" style="fill:none;stroke:#000;stroke-linejoin:round;stroke-width:6px"/><line x1="69" y1="75" x2="69" y2="129" style="fill:none;stroke:#000;stroke-linejoin:round;stroke-width:6px"/><line x1="81" y1="84" x2="81" y2="129" style="fill:none;stroke:#000;stroke-linejoin:round;stroke-width:6px"/><rect x="21" y="129" width="18" height="12" style="fill:none;stroke:#000;stroke-linejoin:round;stroke-width:6px"/><rect x="99" y="129" width="18" height="12" style="fill:none;stroke:#000;stroke-linejoin:round;stroke-width:6px"/><path d="M21,72.6V51A23.9424,23.9424,0,0,1,45,27H93a23.9424,23.9424,0,0,1,24,24V72.6" style="fill:none;stroke:#000;stroke-linejoin:round;stroke-width:6px"/><path d="M122.6,84.9c-1.3-10.7-9.5-18.1-20.4-19.6a246.8028,246.8028,0,0,0-66.5,0c-10.9,1.5-19.1,8.9-20.4,19.6" style="fill:none;stroke:#000;stroke-linejoin:round;stroke-width:6px"/><path d="M21,57H12a9,9,0,0,0,0,18h7" style="fill:none;stroke:#000;stroke-linecap:round;stroke-linejoin:round;stroke-width:6px"/><path d="M117,57h9a9,9,0,0,1,0,18h-7" style="fill:none;stroke:#000;stroke-linecap:round;stroke-linejoin:round;stroke-width:6px"/><rect width="144" height="144" style="fill:none"/></svg>