<svg xmlns="http://www.w3.org/2000/svg" viewBox="0 0 144 144"><rect x="21" y="87" width="18" height="12" style="fill:none;stroke:#000;stroke-linecap:round;stroke-linejoin:round;stroke-width:6px"/><polyline points="129 63 117 51 27 51 15 63 15 87 65.7 87" style="fill:none;stroke:#000;stroke-linecap:round;stroke-linejoin:round;stroke-width:6px"/><polygon points="105 21 39 21 27 51 117 51 105 21" style="fill:none;stroke:#000;stroke-linecap:round;stroke-linejoin:round;stroke-width:6px"/><line x1="15" y1="75" x2="42" y2="75" style="fill:none;stroke:#000;stroke-linecap:round;stroke-linejoin:round;stroke-width:6px"/><path d="M75,126.1a9.2957,9.2957,0,0,1-9,9A9.05,9.05,0,0,1,66,117h9Z" style="fill:none;stroke:#000;stroke-linejoin:round;stroke-width:6px"/><path d="M111,108a9.2957,9.2957,0,0,1-9,9,9,9,0,0,1,0-18h9Z" style="fill:none;stroke:#000;stroke-linejoin:round;stroke-width:6px"/><polyline points="75 120 75 79.8 111 63.1 111 102" style="fill:none;stroke:#000;stroke-linejoin:round;stroke-width:6px"/><rect width="144" height="144" style="fill:none"/></svg>