<svg xmlns="http://www.w3.org/2000/svg" viewBox="0 0 144 144"><path d="M117,81l-2.3-36c0-24-91.4-24-91.4,0L21,81" style="fill:none;stroke:#000;stroke-linejoin:round;stroke-width:6px"/><rect x="105" y="129" width="18" height="12" style="fill:none;stroke:#000;stroke-linejoin:round;stroke-width:6px"/><rect x="15" y="129" width="18" height="12" style="fill:none;stroke:#000;stroke-linejoin:round;stroke-width:6px"/><polyline points="48 28.8 54 15 84 15 90 28.8" style="fill:none;stroke:#000;stroke-linecap:round;stroke-linejoin:round;stroke-width:6px"/><path d="M45,111c0-16,48-16,48,0v18H45Z" style="fill:none;stroke:#000;stroke-linecap:round;stroke-linejoin:round;stroke-width:6px"/><path d="M93,93a12.0353,12.0353,0,0,1,12-12h12a12.0353,12.0353,0,0,1,12,12v36H93Z" style="fill:none;stroke:#000;stroke-linejoin:round;stroke-width:6px"/><path d="M9,93A12.0353,12.0353,0,0,1,21,81H33A12.0353,12.0353,0,0,1,45,93v36H9Z" style="fill:none;stroke:#000;stroke-linejoin:round;stroke-width:6px"/><circle cx="111" cy="102" r="9" style="fill:none;stroke:#000;stroke-linejoin:round;stroke-width:6px"/><circle cx="27" cy="102" r="9" style="fill:none;stroke:#000;stroke-linejoin:round;stroke-width:6px"/><line x1="57" y1="129" x2="57" y2="114" style="fill:none;stroke:#000;stroke-linecap:round;stroke-linejoin:round;stroke-width:6px"/><line x1="69" y1="129" x2="69" y2="114" style="fill:none;stroke:#000;stroke-linecap:round;stroke-linejoin:round;stroke-width:6px"/><line x1="81" y1="129" x2="81" y2="114" style="fill:none;stroke:#000;stroke-linecap:round;stroke-linejoin:round;stroke-width:6px"/><path d="M117,81S99,69,69,69,21,81,21,81" style="fill:none;stroke:#000;stroke-linejoin:round;stroke-width:6px"/><rect width="144" height="144" style="fill:none"/></svg>