<svg xmlns="http://www.w3.org/2000/svg" viewBox="0 0 144 144"><circle cx="33" cy="111" r="12" style="fill:none;stroke:#000;stroke-linecap:round;stroke-linejoin:round;stroke-width:6px"/><line x1="111" y1="111" x2="141" y2="111" style="fill:none;stroke:#000;stroke-linecap:round;stroke-linejoin:round;stroke-width:6px"/><circle cx="99" cy="111" r="12" style="fill:none;stroke:#000;stroke-linecap:round;stroke-linejoin:round;stroke-width:6px"/><line x1="45" y1="111" x2="87" y2="111" style="fill:none;stroke:#000;stroke-linecap:round;stroke-linejoin:round;stroke-width:6px"/><line x1="3" y1="111" x2="21" y2="111" style="fill:none;stroke:#000;stroke-linecap:round;stroke-linejoin:round;stroke-width:6px"/><polyline points="75 75 81 63 87 63" style="fill:none;stroke:#000;stroke-linecap:round;stroke-linejoin:round;stroke-width:6px"/><path d="M10.7,101.7S15.3,87,33.1,87c11.6,0,31,9.1,43,15.3,5.2-7,8-15.4,22.9-15.4,21.5,0,36,24.1,36,24.1V87A35.9773,35.9773,0,0,0,99,51H72L60,75H20.1a6.0023,6.0023,0,0,0-5.9,5L9,111" style="fill:none;stroke:#000;stroke-linecap:round;stroke-linejoin:round;stroke-width:6px"/><rect width="144" height="144" style="fill:none"/></svg>