<svg xmlns="http://www.w3.org/2000/svg" viewBox="0 0 144 144"><rect x="15" y="93" width="18" height="12" style="fill:none;stroke:#000;stroke-linecap:round;stroke-linejoin:round;stroke-width:6px"/><polyline points="123 69 111 57 21 57 9 69 9 93 53.7 93" style="fill:none;stroke:#000;stroke-linecap:round;stroke-linejoin:round;stroke-width:6px"/><polygon points="99 27 33 27 21 57 111 57 99 27" style="fill:none;stroke:#000;stroke-linecap:round;stroke-linejoin:round;stroke-width:6px"/><line x1="9" y1="81" x2="36" y2="81" style="fill:none;stroke:#000;stroke-linecap:round;stroke-linejoin:round;stroke-width:6px"/><path d="M93,82.6a31.2387,31.2387,0,0,0-8.4,4.9L78,83.7,69,99.3l6.5,3.8a24.26,24.26,0,0,0,0,9.8l-6.6,3.8,9,15.6,6.6-3.8a31.2387,31.2387,0,0,0,8.4,4.9V141h18v-7.6a26.0488,26.0488,0,0,0,8.6-4.9l6.5,3.8,9-15.6-6.6-3.8a24.26,24.26,0,0,0,0-9.8l6.5-3.8-9-15.6-6.5,3.8a28.2285,28.2285,0,0,0-8.6-4.9V75H93Z" style="fill:none;stroke:#000;stroke-linejoin:round;stroke-width:6px"/><circle cx="102.1" cy="108" r="12" style="fill:none;stroke:#000;stroke-linejoin:round;stroke-width:6px"/><rect width="144" height="144" style="fill:none"/></svg>