<svg xmlns="http://www.w3.org/2000/svg" viewBox="0 0 144 144"><rect x="39" y="57" width="12" height="12" style="fill:none;stroke:#000;stroke-linecap:round;stroke-linejoin:round;stroke-width:6px"/><rect x="93" y="57" width="12" height="12" style="fill:none;stroke:#000;stroke-linecap:round;stroke-linejoin:round;stroke-width:6px"/><polygon points="111 57 111 39 99 27 45 27 33 39 33 57 111 57" style="fill:none;stroke:#000;stroke-linecap:round;stroke-linejoin:round;stroke-width:6px"/><polygon points="93 3 51 3 45 27 99 27 93 3" style="fill:none;stroke:#000;stroke-linecap:round;stroke-linejoin:round;stroke-width:6px"/><line x1="33" y1="45" x2="48" y2="45" style="fill:none;stroke:#000;stroke-linecap:round;stroke-linejoin:round;stroke-width:6px"/><line x1="96" y1="45" x2="111" y2="45" style="fill:none;stroke:#000;stroke-linecap:round;stroke-linejoin:round;stroke-width:6px"/><line x1="3" y1="141" x2="27" y2="141" style="fill:none;stroke:#000;stroke-linecap:round;stroke-linejoin:round;stroke-width:6px"/><rect x="9" y="33" width="12" height="108" style="fill:none;stroke:#000;stroke-linecap:round;stroke-linejoin:round;stroke-width:6px"/><line x1="117" y1="141" x2="141" y2="141" style="fill:none;stroke:#000;stroke-linecap:round;stroke-linejoin:round;stroke-width:6px"/><rect x="123" y="33" width="12" height="108" style="fill:none;stroke:#000;stroke-linecap:round;stroke-linejoin:round;stroke-width:6px"/><line x1="21" y1="69" x2="123" y2="69" style="fill:none;stroke:#000;stroke-linecap:round;stroke-linejoin:round;stroke-width:6px"/><circle cx="72" cy="108" r="9" style="fill:none;stroke:#000;stroke-linejoin:round;stroke-width:6px"/><path d="M92.6,108a19.9278,19.9278,0,0,0-.6-4.9l6-3.4L92,89.3l-5.8,3.5A22.9846,22.9846,0,0,0,78,87.9V81H66v6.9a21.1865,21.1865,0,0,0-8.6,4.9l-6.1-3.5-6,10.4,5.9,3.4a20.3083,20.3083,0,0,0,0,9.8l-6,3.4,6,10.4,6.2-3.5a24.6272,24.6272,0,0,0,8.6,4.9V135H78v-6.9a20.4275,20.4275,0,0,0,8.2-4.9l5.9,3.5L98,116.3l-6-3.4A19.9278,19.9278,0,0,0,92.6,108Z" style="fill:none;stroke:#000;stroke-linejoin:round;stroke-width:6px"/><rect width="144" height="144" style="fill:none"/></svg>