<svg xmlns="http://www.w3.org/2000/svg" viewBox="0 0 144 144"><polyline points="3 54 21 81 42 57" style="fill:none;stroke:#000;stroke-linecap:round;stroke-linejoin:round;stroke-width:6px"/><path d="M21.2,80.6C16.7,43.3,44.4,16.2,75.9,15A57.0387,57.0387,0,1,1,26.3,96" style="fill:none;stroke:#000;stroke-linecap:round;stroke-linejoin:round;stroke-width:6px"/><line x1="60" y1="93" x2="96" y2="93" style="fill:none;stroke:#000;stroke-linejoin:round;stroke-width:6px"/><path d="M108,105a12,12,0,0,1,0-24" style="fill:none;stroke:#000;stroke-linecap:round;stroke-linejoin:round;stroke-width:6px"/><path d="M48,81a12,12,0,0,1,0,24" style="fill:none;stroke:#000;stroke-linecap:round;stroke-linejoin:round;stroke-width:6px"/><polyline points="93 69 93 45 81 60 93 60" style="fill:none;stroke:#000;stroke-linecap:round;stroke-linejoin:round;stroke-width:6px"/><path d="M60.5,50.5a5.7018,5.7018,0,0,1,11.4.2,6.4488,6.4488,0,0,1-1.1,3.4L60.5,69H72" style="fill:none;stroke:#000;stroke-linecap:round;stroke-linejoin:round;stroke-width:6px"/><rect width="144" height="144" style="fill:none"/></svg>