<svg xmlns="http://www.w3.org/2000/svg" viewBox="0 0 144 144"><rect x="15" y="93" width="18" height="12" style="fill:none;stroke:#000;stroke-linecap:round;stroke-linejoin:round;stroke-width:6px"/><polyline points="123 69 111 57 21 57 9 69 9 93 77.8 93" style="fill:none;stroke:#000;stroke-linecap:round;stroke-linejoin:round;stroke-width:6px"/><polygon points="99 27 33 27 21 57 111 57 99 27" style="fill:none;stroke:#000;stroke-linecap:round;stroke-linejoin:round;stroke-width:6px"/><line x1="9" y1="81" x2="36" y2="81" style="fill:none;stroke:#000;stroke-linecap:round;stroke-linejoin:round;stroke-width:6px"/><path d="M130.8,118.2a22.8,22.8,0,0,1-45.6,0C85.1,105.5,108,75,108,75S130.8,105.5,130.8,118.2Z" style="fill:none;stroke:#000;stroke-linecap:round;stroke-linejoin:round;stroke-width:6px"/><path d="M105.6,129A26.8451,26.8451,0,0,1,99,111.3" style="fill:none;stroke:#000;stroke-linecap:round;stroke-linejoin:round;stroke-width:6px"/><rect width="144" height="144" style="fill:none"/></svg>