<svg xmlns="http://www.w3.org/2000/svg" viewBox="0 0 144 144"><circle cx="27" cy="111" r="12" style="fill:none;stroke:#000;stroke-linecap:round;stroke-linejoin:round;stroke-width:6px"/><line x1="123" y1="111" x2="141" y2="111" style="fill:none;stroke:#000;stroke-linecap:round;stroke-linejoin:round;stroke-width:6px"/><circle cx="111" cy="111" r="12" style="fill:none;stroke:#000;stroke-linecap:round;stroke-linejoin:round;stroke-width:6px"/><line x1="39" y1="111" x2="99" y2="111" style="fill:none;stroke:#000;stroke-linecap:round;stroke-linejoin:round;stroke-width:6px"/><path d="M135,111s-2.2-13-4.7-28A52.6011,52.6011,0,0,0,78.5,39,55.2736,55.2736,0,0,0,27.6,72.6L24,81C6,81,3,96.5,3,111H15" style="fill:none;stroke:#000;stroke-linecap:round;stroke-linejoin:round;stroke-width:6px"/><path d="M81,51c14.5,0,27.3,12,33,24H81" style="fill:none;stroke:#000;stroke-linecap:round;stroke-linejoin:round;stroke-width:6px"/><path d="M67,51.5C54.6,53.8,44.1,64.4,39,75H66" style="fill:none;stroke:#000;stroke-linecap:round;stroke-linejoin:round;stroke-width:6px"/><line x1="81" y1="51" x2="81" y2="99" style="fill:none;stroke:#000;stroke-linecap:round;stroke-linejoin:round;stroke-width:6px"/><rect width="144" height="144" style="fill:none"/></svg>