<svg xmlns="http://www.w3.org/2000/svg" viewBox="0 0 144 144"><path d="M87,129h30a23.9424,23.9424,0,0,0,24-24c-.1-16.8-18.6-27.3-33-18.4L83.2,101.8a21.13,21.13,0,0,1-22.2.1L36,86.6C21.6,77.7,3.1,88.2,3,105a23.9424,23.9424,0,0,0,24,24H57" style="fill:none;stroke:#000;stroke-linecap:round;stroke-linejoin:round;stroke-width:6px"/><path d="M110.4,85.3C101.7,77.2,87.7,72,72,72S42.3,77.2,33.6,85.3" style="fill:none;stroke:#000;stroke-linecap:round;stroke-linejoin:round;stroke-width:6px"/><circle cx="24" cy="105" r="9" style="fill:none;stroke:#000;stroke-linecap:round;stroke-linejoin:round;stroke-width:6px"/><circle cx="120" cy="105" r="9" style="fill:none;stroke:#000;stroke-linecap:round;stroke-linejoin:round;stroke-width:6px"/><rect x="57" y="117" width="30" height="18" style="fill:none;stroke:#000;stroke-linecap:round;stroke-linejoin:round;stroke-width:6px"/><path d="M72,90a3,3,0,1,0,3,3,3.0085,3.0085,0,0,0-3-3Z" style="fill:#000"/><path d="M30,84l5.2-32.9c.5-2.9,3-6.1,5.9-6.1h61.8c2.9,0,5.5,3.2,5.9,6.1L114,84" style="fill:none;stroke:#000;stroke-linecap:round;stroke-linejoin:round;stroke-width:6px"/><polyline points="21 128.2 21 141 39 141 39 129" style="fill:none;stroke:#000;stroke-linecap:round;stroke-linejoin:round;stroke-width:6px"/><polyline points="105 129 105 141 123 141 123 128.2" style="fill:none;stroke:#000;stroke-linecap:round;stroke-linejoin:round;stroke-width:6px"/><rect width="144" height="144" style="fill:none"/></svg>