<svg xmlns="http://www.w3.org/2000/svg" viewBox="0 0 144 144"><path d="M30,81c12,0,27,48,27,48H17a12.0916,12.0916,0,0,1-11.6-8.9C1.8,106.1.7,81,30,81Z" style="fill:none;stroke:#000;stroke-linejoin:round;stroke-width:6px"/><path d="M114,81c-12,0-27,48-27,48h39.9a12.0916,12.0916,0,0,0,11.6-8.9C142.2,106.1,143.3,81,114,81Z" style="fill:none;stroke:#000;stroke-linejoin:round;stroke-width:6px"/><path d="M35.7,59.8a36.4867,36.4867,0,0,1,72.6,0L111,81.9q-39-18-78,0Z" style="fill:none;stroke:#000;stroke-linejoin:round;stroke-width:6px"/><path d="M53.9,58.4A18.1457,18.1457,0,0,1,72,42" style="fill:none;stroke:#000;stroke-linecap:round;stroke-linejoin:round;stroke-width:6px"/><line x1="57" y1="129" x2="87" y2="129" style="fill:none;stroke:#000;stroke-linejoin:round;stroke-width:6px"/><polyline points="39 129 39 141 15 141 15 128.8" style="fill:none;stroke:#000;stroke-linejoin:round;stroke-width:6px"/><polyline points="105 129 105 141 129 141 129 128.8" style="fill:none;stroke:#000;stroke-linejoin:round;stroke-width:6px"/><circle cx="120" cy="106.7" r="9" style="fill:none;stroke:#000;stroke-linejoin:round;stroke-width:6px"/><circle cx="24" cy="106.7" r="9" style="fill:none;stroke:#000;stroke-linejoin:round;stroke-width:6px"/><rect width="144" height="144" style="fill:none"/></svg>