<svg xmlns="http://www.w3.org/2000/svg" viewBox="0 0 144 144"><path d="M108,84c27-8.6,27-39,27-39a38.8059,38.8059,0,0,1-27,0s-2.6-23.6,8.6-41.8C99,6,69,21,72,42.5c-12-.1-24-22.3-24-22.3S30,48.1,48,63" style="fill:none;stroke:#000;stroke-linecap:round;stroke-linejoin:round;stroke-width:6px"/><rect x="15" y="129" width="18" height="12" style="fill:none;stroke:#000;stroke-linecap:round;stroke-linejoin:round;stroke-width:6px"/><rect x="99" y="129" width="18" height="12" style="fill:none;stroke:#000;stroke-linecap:round;stroke-linejoin:round;stroke-width:6px"/><polygon points="123 129 123 105 111 93 21 93 9 105 9 129 123 129" style="fill:none;stroke:#000;stroke-linecap:round;stroke-linejoin:round;stroke-width:6px"/><polygon points="99 63 33 63 21 93 111 93 99 63" style="fill:none;stroke:#000;stroke-linecap:round;stroke-linejoin:round;stroke-width:6px"/><line x1="9" y1="117" x2="36" y2="117" style="fill:none;stroke:#000;stroke-linecap:round;stroke-linejoin:round;stroke-width:6px"/><line x1="96" y1="117" x2="123" y2="117" style="fill:none;stroke:#000;stroke-linecap:round;stroke-linejoin:round;stroke-width:6px"/><path d="M60,63s-9-6-6-18c5.8,7.8,24.1,22.6,39-12,3,24,8.2,27.8,27,24L105,75" style="fill:none;stroke:#000;stroke-linecap:round;stroke-linejoin:round;stroke-width:6px"/><rect width="144" height="144" style="fill:none"/></svg>