<svg xmlns="http://www.w3.org/2000/svg" viewBox="0 0 144 144"><circle cx="72" cy="72" r="69" style="fill:none;stroke:#000;stroke-linecap:round;stroke-linejoin:round;stroke-width:6px"/><path d="M60,33H39A12.0353,12.0353,0,0,0,27,45V63A12.0353,12.0353,0,0,0,39,75H60" style="fill:none;stroke:#000;stroke-linecap:round;stroke-linejoin:round;stroke-width:6px"/><path d="M69,63A12.0353,12.0353,0,0,0,81,75h6A12.0353,12.0353,0,0,0,99,63V45A12.0353,12.0353,0,0,0,87,33H81A12.0353,12.0353,0,0,0,69,45Z" style="fill:none;stroke:#000;stroke-linecap:round;stroke-linejoin:round;stroke-width:6px"/><path d="M93,90a8.81,8.81,0,0,1,9-9c4.4,0,9,3.5,9,7.8,0,5.3-18,22.2-18,22.2h18" style="fill:none;stroke:#000;stroke-linecap:round;stroke-linejoin:round;stroke-width:6px"/><rect width="144" height="144" style="fill:none"/></svg>