<svg xmlns="http://www.w3.org/2000/svg" viewBox="0 0 144 144"><path d="M69,97.8S90,82.7,90,67.3c0-16.6-17.5-18.1-21-2.4-4.6-15.4-21-14.2-21,2.4S69,97.8,69,97.8Z" style="fill:none;stroke:#000;stroke-linejoin:round;stroke-width:6px"/><path d="M123,129a12.0353,12.0353,0,0,1-12,12H27a12.0353,12.0353,0,0,1-12-12V15A12.0353,12.0353,0,0,1,27,3h84a12.0353,12.0353,0,0,1,12,12Z" style="fill:none;stroke:#000;stroke-linecap:round;stroke-linejoin:round;stroke-width:6px"/><path d="M30,20.9c0-5,4-5.9,9-5.9s9,.9,9,5.9S39,33,39,33,30,25.8,30,20.9Z" style="fill:none;stroke:#000;stroke-linecap:round;stroke-linejoin:round;stroke-width:6px"/><path d="M90,116.9c0-5,4-5.9,9-5.9s9,.9,9,5.9S99,129,99,129,90,121.8,90,116.9Z" style="fill:none;stroke:#000;stroke-linecap:round;stroke-linejoin:round;stroke-width:6px"/><rect width="144" height="144" style="fill:none"/></svg>