<svg xmlns="http://www.w3.org/2000/svg" viewBox="0 0 144 144"><rect x="21" y="117" width="48" height="24" style="fill:none;stroke:#000;stroke-linejoin:round;stroke-width:6px"/><path d="M29.8,117C2.8,61.9,0,85.1,33,14.5" style="fill:none;stroke:#000;stroke-linecap:round;stroke-linejoin:round;stroke-width:6px"/><path d="M61.1,87H87a6.0176,6.0176,0,0,0,6-6V9a6.0176,6.0176,0,0,0-6-6H39a6.0176,6.0176,0,0,0-6,6V81c0,2.4,1.3,5.5,3.8,4L48.6,55.7C52,46.8,65.8,53,62.3,61.9a79.9431,79.9431,0,0,0-4.2,16.8C59.9,82.6,63,90.9,63,105v12" style="fill:none;stroke:#000;stroke-linecap:round;stroke-linejoin:round;stroke-width:6px"/><path d="M62.7,94.4l37.9,9a5.916,5.916,0,0,0,7.2-4.4l16.6-70a5.9046,5.9046,0,0,0-4.5-7.2L93.3,15.5" style="fill:none;stroke:#000;stroke-linecap:round;stroke-linejoin:round;stroke-width:6px"/><rect width="144" height="144" style="fill:none"/></svg>