<svg xmlns="http://www.w3.org/2000/svg" viewBox="0 0 144 144"><path d="M123,129a12.0353,12.0353,0,0,1-12,12H27a12.0353,12.0353,0,0,1-12-12V15A12.0353,12.0353,0,0,1,27,3h84a12.0353,12.0353,0,0,1,12,12Z" style="fill:none;stroke:#000;stroke-linecap:round;stroke-linejoin:round;stroke-width:6px"/><path d="M108,117.1c0,5-4,5.9-9,5.9s-9-.9-9-5.9S99,105,99,105,108,112.2,108,117.1Z" style="fill:none;stroke:#000;stroke-linecap:round;stroke-linejoin:round;stroke-width:6px"/><line x1="99" y1="123" x2="99" y2="132" style="fill:none;stroke:#000;stroke-linecap:round;stroke-linejoin:round;stroke-width:6px"/><path d="M48,27.1c0,5-4,5.9-9,5.9s-9-.9-9-5.9S39,15,39,15,48,22.2,48,27.1Z" style="fill:none;stroke:#000;stroke-linecap:round;stroke-linejoin:round;stroke-width:6px"/><line x1="39" y1="33" x2="39" y2="42" style="fill:none;stroke:#000;stroke-linecap:round;stroke-linejoin:round;stroke-width:6px"/><path d="M87,78c0,9.9-8.1,12-18,12S51,87.9,51,78,69,48,69,48,87,68.1,87,78Z" style="fill:none;stroke:#000;stroke-linecap:round;stroke-linejoin:round;stroke-width:6px"/><line x1="69" y1="105" x2="69" y2="90" style="fill:none;stroke:#000;stroke-linecap:round;stroke-linejoin:round;stroke-width:6px"/><rect width="144" height="144" style="fill:none"/></svg>