<svg xmlns="http://www.w3.org/2000/svg" viewBox="0 0 144 144.0426"><polygon points="88.7 104.4 83.4 83.4 100.8 70.6 106 91.6 88.7 104.4" style="fill:none;stroke:#000;stroke-linecap:round;stroke-linejoin:round;stroke-width:6px"/><rect x="49.7323" y="54.5372" width="90.0015" height="66.0011" transform="translate(-19.6659 147.1205) rotate(-70.2514)" style="fill:none;stroke:#000;stroke-linecap:round;stroke-linejoin:round;stroke-width:6px"/><polygon points="87.1 46.5 83.3 48.3 85.1 52.2 88.9 50.4 87.1 46.5" style="fill:#000"/><polygon points="104.4 122.8 100.5 124.6 102.3 128.5 106.2 126.7 104.4 122.8" style="fill:#000"/><path d="M17.4,32.3a1.7018,1.7018,0,0,0-.7.1,2.9929,2.9929,0,0,0,.7,5.9,1.9523,1.9523,0,0,0,.7-.1,2.9813,2.9813,0,0,0,2.2-3.6,2.8987,2.8987,0,0,0-2.9-2.3Z" style="fill:#000"/><path d="M57,60c1.4,5.9-3.8,10.1-9.7,11.5s-12.4-.2-13.7-6.1c-1.3-5.8,8.3-17.3,8.3-17.3S55.6,54.2,57,60Z" style="fill:none;stroke:#000;stroke-linecap:round;stroke-linejoin:round;stroke-width:6px"/><line x1="47.3" y1="71.5" x2="48.6" y2="77.4" style="fill:none;stroke:#000;stroke-linecap:round;stroke-linejoin:round;stroke-width:6px"/><polyline points="52.6 107.2 23.2 114 3 26.3 67.3 11.5 75 44.8" style="fill:none;stroke:#000;stroke-linecap:round;stroke-linejoin:round;stroke-width:6px"/><rect width="144" height="144" style="fill:none"/></svg>