<svg xmlns="http://www.w3.org/2000/svg" viewBox="0 0 144 144"><polygon points="86.4 91.5 82.2 70.2 100.2 58.2 104.4 79.4 86.4 91.5" style="fill:none;stroke:#000;stroke-linejoin:round;stroke-width:6px"/><rect x="48.2596" y="41.802" width="89.9988" height="65.9991" transform="translate(-11.5325 132.3453) rotate(-67.5049)" style="fill:none;stroke:#000;stroke-linejoin:round;stroke-width:5.999921976631064px"/><polygon points="101.2 110.6 97.3 112.2 98.9 116.1 102.8 114.5 101.2 110.6" style="fill:#000"/><polygon points="87.7 33.5 83.7 35.2 85.4 39.1 89.3 37.4 87.7 33.5" style="fill:#000"/><polygon points="17.5 48.3 15.9 52.3 19.8 53.9 21.5 50 17.5 48.3" style="fill:#000"/><polygon points="17.5 48.3 15.9 52.3 19.8 53.9 21.5 50 17.5 48.3" style="fill:#000"/><polyline points="48 104.6 39 104.6 39 15 105 15 105 29.6" style="fill:none;stroke:#000;stroke-linejoin:round;stroke-width:6px"/><polyline points="70.5 114.1 37.4 127.8 3 44.6 39 29.7" style="fill:none;stroke:#000;stroke-linejoin:round;stroke-width:6px"/><polygon points="54 23.8 48 23.8 48 29.8 54 29.8 54 23.8" style="fill:#000"/><rect width="144" height="144" style="fill:none"/></svg>