<svg xmlns="http://www.w3.org/2000/svg" viewBox="0 0 144.018 144.018"><path d="M114.9,66.5,15.7,139.4A7.92,7.92,0,0,1,4.6,128.3L77.5,29.1a9.1936,9.1936,0,0,1,12.2-2.3,84.0471,84.0471,0,0,1,27.5,27.5A9.2135,9.2135,0,0,1,114.9,66.5Z" transform="translate(0.018)" style="fill:none;stroke:#000;stroke-linejoin:round;stroke-width:6px"/><line x1="96.718" y1="31.3" x2="107.018" y2="3.5" style="fill:none;stroke:#000;stroke-linecap:round;stroke-linejoin:round;stroke-width:6px"/><line x1="112.818" y1="47.4" x2="141.018" y2="36.8" style="fill:none;stroke:#000;stroke-linecap:round;stroke-linejoin:round;stroke-width:6px"/><line x1="105.218" y1="39.1" x2="131.318" y2="12.6" style="fill:none;stroke:#000;stroke-linecap:round;stroke-linejoin:round;stroke-width:6px"/><line x1="71.418" y1="38.6" x2="90.518" y2="57.7" style="fill:none;stroke:#000;stroke-linecap:round;stroke-linejoin:round;stroke-width:6px"/><line x1="67.118" y1="68.3" x2="86.418" y2="87.5" style="fill:none;stroke:#000;stroke-linecap:round;stroke-linejoin:round;stroke-width:6px"/><line x1="50.218" y1="93.8" x2="61.918" y2="105.5" style="fill:none;stroke:#000;stroke-linecap:round;stroke-linejoin:round;stroke-width:6px"/><rect x="0.018" width="144" height="144" style="fill:none"/></svg>