<svg xmlns="http://www.w3.org/2000/svg" viewBox="0 0 144 144"><circle cx="72" cy="72" r="69" style="fill:none;stroke:#000;stroke-linejoin:round;stroke-width:6px"/><circle cx="72" cy="72" r="33" style="fill:none;stroke:#000;stroke-linejoin:round;stroke-width:6px"/><line x1="101.6" y1="9.9" x2="87.2" y2="43.9" style="fill:none;stroke:#000;stroke-linejoin:round;stroke-width:6px"/><line x1="41.2" y1="9.9" x2="55.7" y2="43.9" style="fill:none;stroke:#000;stroke-linejoin:round;stroke-width:6px"/><line x1="133.8" y1="101.9" x2="99.9" y2="87.4" style="fill:none;stroke:#000;stroke-linejoin:round;stroke-width:6px"/><line x1="133.8" y1="41.5" x2="99.9" y2="55.9" style="fill:none;stroke:#000;stroke-linejoin:round;stroke-width:6px"/><line x1="41.9" y1="134.1" x2="56.3" y2="100.1" style="fill:none;stroke:#000;stroke-linejoin:round;stroke-width:6px"/><line x1="102.3" y1="134.1" x2="87.8" y2="100.1" style="fill:none;stroke:#000;stroke-linejoin:round;stroke-width:6px"/><line x1="9.7" y1="42.1" x2="43.6" y2="56.6" style="fill:none;stroke:#000;stroke-linejoin:round;stroke-width:6px"/><line x1="9.7" y1="102.5" x2="43.6" y2="88.1" style="fill:none;stroke:#000;stroke-linejoin:round;stroke-width:6px"/><circle cx="72" cy="21.8" r="3" style="fill:none;stroke:#000;stroke-linejoin:round;stroke-width:6px"/><circle cx="72" cy="123" r="3" style="fill:none;stroke:#000;stroke-linejoin:round;stroke-width:6px"/><circle cx="122.6" cy="72.4" r="3" style="fill:none;stroke:#000;stroke-linejoin:round;stroke-width:6px"/><circle cx="21.4" cy="72.4" r="3" style="fill:none;stroke:#000;stroke-linejoin:round;stroke-width:6px"/><path d="M78.8,57H66V72h6c5.8,0,9,5,9,7.8S77.8,87,72,87H65.2" style="fill:none;stroke:#000;stroke-linecap:round;stroke-linejoin:round;stroke-width:6px"/><rect width="144" height="144" style="fill:none"/></svg>