<svg xmlns="http://www.w3.org/2000/svg" viewBox="0 0 144 144"><path d="M111,135a6.0176,6.0176,0,0,1-6,6H51a6.0176,6.0176,0,0,1-6-6V57a6.0176,6.0176,0,0,1,6-6h54a6.0176,6.0176,0,0,1,6,6Z" style="fill:none;stroke:#000;stroke-linecap:round;stroke-linejoin:round;stroke-width:6px"/><rect x="33" y="63" width="12" height="36" style="fill:none;stroke:#000;stroke-linecap:round;stroke-linejoin:round;stroke-width:6px"/><line x1="33" y1="81" x2="45" y2="81" style="fill:none;stroke:#000;stroke-linecap:round;stroke-linejoin:round;stroke-width:6px"/><line x1="57" y1="129" x2="99" y2="129" style="fill:none;stroke:#000;stroke-linecap:round;stroke-linejoin:round;stroke-width:6px"/><rect x="57" y="63" width="42" height="54" style="fill:none;stroke:#000;stroke-linecap:round;stroke-linejoin:round;stroke-width:6px"/><path d="M81,78a3.0085,3.0085,0,0,0-3,3,2.9465,2.9465,0,0,0,3,3,3.0085,3.0085,0,0,0,3-3,3.0759,3.0759,0,0,0-3-3Z" style="fill:#000"/><path d="M81,96a3.0085,3.0085,0,0,0-3,3,2.9465,2.9465,0,0,0,3,3,3.0085,3.0085,0,0,0,3-3,3.0759,3.0759,0,0,0-3-3Z" style="fill:#000"/><path d="M21,99a6.0176,6.0176,0,0,1-6,6h0a6.0176,6.0176,0,0,1-6-6V81a6.0176,6.0176,0,0,1,6-6h0a6.0176,6.0176,0,0,1,6,6Z" style="fill:none;stroke:#000;stroke-linecap:round;stroke-linejoin:round;stroke-width:6px"/><path d="M135,99a6.0176,6.0176,0,0,1-6,6h0a6.0176,6.0176,0,0,1-6-6V81a6.0176,6.0176,0,0,1,6-6h0a6.0176,6.0176,0,0,1,6,6Z" style="fill:none;stroke:#000;stroke-linecap:round;stroke-linejoin:round;stroke-width:6px"/><path d="M135,90h6V72A69,69,0,0,0,3,72V90H9" style="fill:none;stroke:#000;stroke-linecap:round;stroke-linejoin:round;stroke-width:6px"/><rect width="144" height="144" style="fill:none"/></svg>