<svg xmlns="http://www.w3.org/2000/svg" viewBox="0 0 144 144"><path d="M117,141,105,63H39L27,141H63V117a9,9,0,0,1,18,0v24Z" style="fill:none;stroke:#000;stroke-linecap:round;stroke-linejoin:round;stroke-width:6px"/><path d="M21,15V54a8.9626,8.9626,0,0,0,9,9h84a8.9626,8.9626,0,0,0,9-9V15H105v9a9,9,0,0,1-18,0V15H57v9a9,9,0,0,1-18,0V15Z" style="fill:none;stroke:#000;stroke-linecap:round;stroke-linejoin:round;stroke-width:6px"/><circle cx="72" cy="84" r="9" style="fill:none;stroke:#000;stroke-linecap:round;stroke-linejoin:round;stroke-width:6px"/><rect width="144" height="144" style="fill:none"/></svg>