<svg xmlns="http://www.w3.org/2000/svg" viewBox="0 0 144 144"><polyline points="87 124.6 3 85.4 8.1 74.5 87 111.4" style="fill:none;stroke:#000;stroke-linejoin:round;stroke-width:6px"/><rect x="87" y="33" width="48" height="93" style="fill:none;stroke:#000;stroke-linejoin:round;stroke-width:6px"/><line x1="9" y1="75" x2="87" y2="36" style="fill:none;stroke:#000;stroke-linejoin:round;stroke-width:6px"/><polyline points="75 141 75 126 141 126" style="fill:none;stroke:#000;stroke-linecap:round;stroke-linejoin:round;stroke-width:6px"/><path d="M123,57a12,12,0,0,0-24,0V69h24Z" style="fill:none;stroke:#000;stroke-linejoin:round;stroke-width:6px"/><path d="M129,3h12V21a12.0353,12.0353,0,0,1-12,12H93A12.0353,12.0353,0,0,1,81,21V3H93V9a6,6,0,0,0,12,0V3h12V9a6,6,0,0,0,12,0Z" style="fill:none;stroke:#000;stroke-linejoin:round;stroke-width:6px"/><path d="M75,135a20.5837,20.5837,0,0,1-15-6h0a20.5837,20.5837,0,0,1-15,6,20.5837,20.5837,0,0,1-15-6,20.5837,20.5837,0,0,1-15,6,20.6411,20.6411,0,0,1-12-3.8" style="fill:none;stroke:#000;stroke-linecap:round;stroke-linejoin:round;stroke-width:6px"/><rect width="144" height="144" style="fill:none"/></svg>