<svg xmlns="http://www.w3.org/2000/svg" viewBox="0 0 144 144"><path d="M117,141,105,57H39L27,141H63V117a9,9,0,0,1,18,0v24Z" style="fill:none;stroke:#000;stroke-linecap:round;stroke-linejoin:round;stroke-width:6px"/><line x1="63" y1="81" x2="75" y2="81" style="fill:none;stroke:#000;stroke-linecap:round;stroke-linejoin:round;stroke-width:6px"/><line x1="69" y1="75" x2="69" y2="87" style="fill:none;stroke:#000;stroke-linecap:round;stroke-linejoin:round;stroke-width:6px"/><line x1="69" y1="3" x2="69" y2="39" style="fill:none;stroke:#000;stroke-linecap:round;stroke-linejoin:round;stroke-width:6px"/><polygon points="72 9 69 9 69 3 72 3 84 6 72 9" style="fill:none;stroke:#000;stroke-linecap:round;stroke-linejoin:round;stroke-width:6px"/><polyline points="117 141 141 141 141 81 123 81 123 93 110.2 93" style="fill:none;stroke:#000;stroke-linejoin:round;stroke-width:6px"/><polyline points="33.8 93 21 93 21 81 3 81 3 141 27 141" style="fill:none;stroke:#000;stroke-linejoin:round;stroke-width:6px"/><path d="M60,30V27H48v3c0,5-3.4,9-7.7,9-4,0-7.3-4-7.3-9V27H21V48a8.9626,8.9626,0,0,0,9,9h84a8.9626,8.9626,0,0,0,9-9V27H111v3a9,9,0,0,1-18,0V27H81v3c0,5-4.8,9-10.8,9C64.6,39,60,35,60,30Z" style="fill:none;stroke:#000;stroke-linecap:round;stroke-linejoin:round;stroke-width:6px"/><rect width="144" height="144" style="fill:none"/></svg>