<svg xmlns="http://www.w3.org/2000/svg" viewBox="0 0 144 144"><polyline points="50 113.6 12.3 97.6 17 86.6 75 111.1" style="fill:none;stroke:#000;stroke-linecap:round;stroke-linejoin:round;stroke-width:6px"/><line x1="115.1" y1="120" x2="87" y2="69" style="fill:none;stroke:#000;stroke-linejoin:round;stroke-width:6px"/><line x1="87" y1="45" x2="133.3" y2="126" style="fill:none;stroke:#000;stroke-linejoin:round;stroke-width:6px"/><polyline points="87 112.4 87 33 75 33 75 111" style="fill:none;stroke:#000;stroke-linejoin:round;stroke-width:6px"/><path d="M141,129l-33.5-11.7a108.0208,108.0208,0,0,0-71,0L3,129v12H141Z" style="fill:none;stroke:#000;stroke-linejoin:round;stroke-width:6px"/><line x1="21" y1="102" x2="3" y2="129" style="fill:none;stroke:#000;stroke-linejoin:round;stroke-width:6px"/><circle cx="72" cy="126" r="9" style="fill:none;stroke:#000;stroke-linejoin:round;stroke-width:6px"/><path d="M45,77.2a21.0133,21.0133,0,0,1-28.8,7.2l-2.6-1.5A21.2426,21.2426,0,0,1,6.4,54Z" style="fill:none;stroke:#000;stroke-linejoin:round;stroke-width:6px"/><rect width="144" height="144" style="fill:none"/></svg>