<svg xmlns="http://www.w3.org/2000/svg" viewBox="0 0 144 144"><path d="M141,111a12.0353,12.0353,0,0,0-12-12H15A12.0353,12.0353,0,0,0,3,111v12a12.0353,12.0353,0,0,0,12,12H129a12.0353,12.0353,0,0,0,12-12Z" style="fill:none;stroke:#000;stroke-linecap:round;stroke-linejoin:round;stroke-width:6px"/><line x1="15" y1="135" x2="15" y2="141" style="fill:none;stroke:#000;stroke-linecap:round;stroke-linejoin:round;stroke-width:6px"/><line x1="129" y1="135" x2="129" y2="141" style="fill:none;stroke:#000;stroke-linecap:round;stroke-linejoin:round;stroke-width:6px"/><circle cx="117" cy="117" r="6" style="fill:none;stroke:#000;stroke-linecap:round;stroke-linejoin:round;stroke-width:6px"/><line x1="18" y1="117" x2="90" y2="117" style="fill:none;stroke:#000;stroke-linecap:round;stroke-linejoin:round;stroke-width:6px"/><path d="M18,87a48,48,0,0,1,96,0" style="fill:none;stroke:#000;stroke-linecap:round;stroke-linejoin:round;stroke-width:6px"/><path d="M42,69A29.9726,29.9726,0,0,1,66,57" style="fill:none;stroke:#000;stroke-linecap:round;stroke-linejoin:round;stroke-width:6px"/><path d="M57,87a9,9,0,0,1,18,0" style="fill:none;stroke:#000;stroke-linecap:round;stroke-linejoin:round;stroke-width:6px"/><rect width="144" height="144" style="fill:none"/></svg>