<svg xmlns="http://www.w3.org/2000/svg" viewBox="0 0 144 144"><path d="M54,105a51,51,0,1,1,51-51" style="fill:none;stroke:#000;stroke-linecap:round;stroke-linejoin:round;stroke-width:6px"/><circle cx="54" cy="54" r="9" style="fill:none;stroke:#000;stroke-linecap:round;stroke-linejoin:round;stroke-width:6px"/><path d="M116.4,77.8,135,96.4a20.34,20.34,0,0,1,0,28.7l-9.6,9.6a20.4093,20.4093,0,0,1-18.8,5.5C94,137.3,75,130.7,75,130.7a4.8417,4.8417,0,0,1-4-4.8,4.98,4.98,0,0,1,4.5-4.9L92,122.3,63.3,93.6A6.0811,6.0811,0,1,1,71.9,85l17.2,17.2" style="fill:none;stroke:#000;stroke-linecap:round;stroke-linejoin:round;stroke-width:6px"/><path d="M83.4,96.5,66.2,79.3a6.0811,6.0811,0,0,1,8.6-8.6L92,87.9" style="fill:none;stroke:#000;stroke-linecap:round;stroke-linejoin:round;stroke-width:6px"/><path d="M97.8,93.6,80.6,76.4a6.0811,6.0811,0,0,1,8.6-8.6L106.4,85" style="fill:none;stroke:#000;stroke-linecap:round;stroke-linejoin:round;stroke-width:6px"/><path d="M110.7,89.3,97.8,76.4a6.0811,6.0811,0,1,1,8.6-8.6L123.6,85" style="fill:none;stroke:#000;stroke-linecap:round;stroke-linejoin:round;stroke-width:6px"/><path d="M21,54A33.0326,33.0326,0,0,1,54,21" style="fill:none;stroke:#000;stroke-linecap:round;stroke-linejoin:round;stroke-width:6px"/><rect width="144" height="144" style="fill:none"/></svg>