<svg xmlns="http://www.w3.org/2000/svg" viewBox="0 0 144 144"><circle cx="126" cy="132" r="9" style="fill:none;stroke:#000;stroke-linecap:round;stroke-linejoin:round;stroke-width:6px"/><circle cx="18" cy="132" r="9" style="fill:none;stroke:#000;stroke-linecap:round;stroke-linejoin:round;stroke-width:6px"/><polygon points="126 21 111 21 111 105 3 105 3 123 141 123 141 39 126 21" style="fill:none;stroke:#000;stroke-linejoin:round;stroke-width:6px"/><path d="M105,51A48.0124,48.0124,0,0,1,57,99H51A48.0124,48.0124,0,0,1,3,51V42L21,9H87l18,33.3Z" style="fill:none;stroke:#000;stroke-linejoin:round;stroke-width:6px"/><line x1="6" y1="36" x2="6" y2="36" style="fill:none;stroke:#000;stroke-linejoin:round;stroke-width:6px"/><line x1="4.6" y1="39" x2="103.5" y2="39" style="fill:none;stroke:#000;stroke-linejoin:round;stroke-width:6px"/><line x1="4.5" y1="63" x2="103.5" y2="63" style="fill:none;stroke:#000;stroke-linejoin:round;stroke-width:6px"/><line x1="141" y1="51" x2="126" y2="51" style="fill:none;stroke:#000;stroke-linecap:round;stroke-linejoin:round;stroke-width:6px"/><line x1="141" y1="63" x2="126" y2="63" style="fill:none;stroke:#000;stroke-linecap:round;stroke-linejoin:round;stroke-width:6px"/><line x1="141" y1="75" x2="126" y2="75" style="fill:none;stroke:#000;stroke-linecap:round;stroke-linejoin:round;stroke-width:6px"/><rect width="144" height="144" style="fill:none"/></svg>