<svg xmlns="http://www.w3.org/2000/svg" viewBox="0 0 144 144"><polyline points="72 99 3 99 3 3 141 3 141 54" style="fill:none;stroke:#000;stroke-linecap:round;stroke-linejoin:round;stroke-width:6px"/><polyline points="129 102 129 141 111 126 93 141 93 102" style="fill:none;stroke:#000;stroke-linejoin:round;stroke-width:6px"/><circle cx="111" cy="84" r="9" style="fill:none;stroke:#000;stroke-linecap:round;stroke-linejoin:round;stroke-width:6px"/><path d="M133.3,84a12.0937,12.0937,0,0,0,1.1-13.5,11.8392,11.8392,0,0,0-12.2-5.8,11.9955,11.9955,0,0,0-22.4,0A11.9058,11.9058,0,0,0,88.7,84a12.0937,12.0937,0,0,0-1.1,13.5,11.8392,11.8392,0,0,0,12.2,5.8,11.9955,11.9955,0,0,0,22.4,0A11.9058,11.9058,0,0,0,133.3,84Z" style="fill:none;stroke:#000;stroke-linecap:round;stroke-linejoin:round;stroke-width:6px"/><path d="M129,48V33a18.0529,18.0529,0,0,1-18-18H33A18.0529,18.0529,0,0,1,15,33V69A18.0529,18.0529,0,0,1,33,87H72" style="fill:none;stroke:#000;stroke-linecap:round;stroke-linejoin:round;stroke-width:6px"/><rect width="144" height="144" style="fill:none"/></svg>