<svg xmlns="http://www.w3.org/2000/svg" viewBox="0 0 144 144.324"><path d="M40.8,60.4a8.9814,8.9814,0,1,1-17.1,5.5L7.3,14.4A8.9664,8.9664,0,1,1,24.4,9Z" transform="translate(0 0.324)" style="fill:none;stroke:#000;stroke-linejoin:round;stroke-width:6px"/><path d="M30,72l54.7-6.2a30.0077,30.0077,0,0,1,32.7,26.4L123,141" transform="translate(0 0.324)" style="fill:none;stroke:#000;stroke-linecap:round;stroke-linejoin:round;stroke-width:6px"/><path d="M141,102a8.9626,8.9626,0,0,1-9,9H51a9,9,0,0,1,0-18h81A8.9626,8.9626,0,0,1,141,102Z" transform="translate(0 0.324)" style="fill:none;stroke:#000;stroke-linejoin:round;stroke-width:6px"/><polyline points="30 72.324 42 99.324 12 141.324" style="fill:none;stroke:#000;stroke-linecap:round;stroke-linejoin:round;stroke-width:6px"/><rect y="0.324" width="144" height="144" style="fill:none"/></svg>