<svg xmlns="http://www.w3.org/2000/svg" viewBox="0 0 144 144"><line x1="69" y1="141" x2="69" y2="105" style="fill:none;stroke:#000;stroke-linecap:round;stroke-linejoin:round;stroke-width:6px"/><path d="M105,99a6.0176,6.0176,0,0,1-6,6H39a6.0176,6.0176,0,0,1-6-6V90a6.0176,6.0176,0,0,1,6-6,151.4555,151.4555,0,0,1,60,0,6.0176,6.0176,0,0,1,6,6Z" style="fill:none;stroke:#000;stroke-linejoin:round;stroke-width:6px"/><polyline points="105 93 117 93 117 57" style="fill:none;stroke:#000;stroke-linejoin:round;stroke-width:6px"/><path d="M105,57h24a12,12,0,0,0-24,0Z" style="fill:none;stroke:#000;stroke-linejoin:round;stroke-width:6px"/><polyline points="33 93 21 93 21 57" style="fill:none;stroke:#000;stroke-linejoin:round;stroke-width:6px"/><path d="M33,57H9a12,12,0,0,1,24,0Z" style="fill:none;stroke:#000;stroke-linejoin:round;stroke-width:6px"/><path d="M93,82.9V21A12.0353,12.0353,0,0,0,81,9H57A12.0353,12.0353,0,0,0,45,21V82.9" style="fill:none;stroke:#000;stroke-linejoin:round;stroke-width:6px"/><line x1="27" y1="141" x2="111" y2="141" style="fill:none;stroke:#000;stroke-linecap:round;stroke-linejoin:round;stroke-width:6px"/><line x1="45" y1="27" x2="93" y2="27" style="fill:none;stroke:#000;stroke-linejoin:round;stroke-width:6px"/><rect width="144" height="144" style="fill:none"/></svg>