<svg xmlns="http://www.w3.org/2000/svg" viewBox="0 0 144 144"><line x1="69" y1="126" x2="69" y2="105" style="fill:none;stroke:#000;stroke-linecap:round;stroke-linejoin:round;stroke-width:6px"/><path d="M105,99a6.0176,6.0176,0,0,1-6,6H39a6.0176,6.0176,0,0,1-6-6V90a6.0176,6.0176,0,0,1,6-6,151.455,151.455,0,0,1,60,0,6.0176,6.0176,0,0,1,6,6Z" style="fill:none;stroke:#000;stroke-linejoin:round;stroke-width:6px"/><polyline points="105 93 117 93 123 57" style="fill:none;stroke:#000;stroke-linejoin:round;stroke-width:6px"/><path d="M111,57h24a12,12,0,0,0-24,0Z" style="fill:none;stroke:#000;stroke-linejoin:round;stroke-width:6px"/><polyline points="33 93 21 93 15 57" style="fill:none;stroke:#000;stroke-linejoin:round;stroke-width:6px"/><path d="M27,57H3a12,12,0,0,1,24,0Z" style="fill:none;stroke:#000;stroke-linejoin:round;stroke-width:6px"/><path d="M48,81S33,39,33,33C33.1,18,46.9,4.7,62.7,3.3Q65.7,3,69,3t6.3.3C91.1,4.7,105,18,105,33c0,6-15,48-15,48" style="fill:none;stroke:#000;stroke-linejoin:round;stroke-width:6px"/><circle cx="69" cy="135" r="6" style="fill:none;stroke:#000;stroke-linecap:round;stroke-linejoin:round;stroke-width:6px"/><circle cx="99" cy="135" r="6" style="fill:none;stroke:#000;stroke-linecap:round;stroke-linejoin:round;stroke-width:6px"/><circle cx="39" cy="135" r="6" style="fill:none;stroke:#000;stroke-linecap:round;stroke-linejoin:round;stroke-width:6px"/><path d="M39,129s9-12,30-12,30,12,30,12" style="fill:none;stroke:#000;stroke-linecap:round;stroke-linejoin:round;stroke-width:6px"/><rect width="144" height="144" style="fill:none"/></svg>