<svg xmlns="http://www.w3.org/2000/svg" viewBox="0 0 144 144"><path d="M123,123v-9a8.9626,8.9626,0,0,0-9-9H54A39.05,39.05,0,0,1,15,66V30a8.9626,8.9626,0,0,0-9-9,2.9465,2.9465,0,0,1-3-3V6A2.9465,2.9465,0,0,1,6,3,27.015,27.015,0,0,1,33,30V66A20.9974,20.9974,0,0,0,54,87h63a23.9424,23.9424,0,0,1,24,24,12.0353,12.0353,0,0,1-12,12Z" style="fill:none;stroke:#000;stroke-miterlimit:10;stroke-width:6px"/><path d="M15.6,71.8,69,51a45,45,0,0,1,0,90H12" style="fill:none;stroke:#000;stroke-linecap:round;stroke-miterlimit:10;stroke-width:6px"/><rect width="144" height="144" style="fill:none"/></svg>