<svg xmlns="http://www.w3.org/2000/svg" viewBox="0 0 144 144"><path d="M45,66a15,15,0,0,0,30,0,15,15,0,0,0,30,0,14.98,14.98,0,0,0,15,15,13.2665,13.2665,0,0,0,4.5-.7,12.1066,12.1066,0,0,0,8.1-8.6,11.7935,11.7935,0,0,0-3.2-11.3L75,3,19.8,60.7a12.3125,12.3125,0,0,0-2.9,10.4,11.9271,11.9271,0,0,0,6.6,8.5A15.1416,15.1416,0,0,0,45,66" style="fill:none;stroke:#000;stroke-linecap:round;stroke-linejoin:round;stroke-width:6px"/><line x1="75" y1="144" x2="75" y2="3" style="fill:none;stroke:#000;stroke-linejoin:round;stroke-width:6px"/><polyline points="129 96.1 123 123 93 123 93 140.9" style="fill:none;stroke:#000;stroke-linecap:round;stroke-linejoin:round;stroke-width:6px"/><polyline points="21 96.1 27 123 57 123 57 140.9" style="fill:none;stroke:#000;stroke-linecap:round;stroke-linejoin:round;stroke-width:6px"/><line x1="45" y1="66" x2="75" y2="3" style="fill:none;stroke:#000;stroke-linecap:round;stroke-linejoin:round;stroke-width:6px"/><line x1="105" y1="66" x2="75" y2="3" style="fill:none;stroke:#000;stroke-linecap:round;stroke-linejoin:round;stroke-width:6px"/><line x1="27" y1="123" x2="27" y2="141" style="fill:none;stroke:#000;stroke-linecap:round;stroke-linejoin:round;stroke-width:6px"/><line x1="123" y1="123" x2="123" y2="141" style="fill:none;stroke:#000;stroke-linecap:round;stroke-linejoin:round;stroke-width:6px"/><rect width="144" height="144" style="fill:none"/></svg>