<svg xmlns="http://www.w3.org/2000/svg" viewBox="0 0 144 144"><path d="M48.3,3A24.04,24.04,0,0,0,69,15,24.04,24.04,0,0,0,89.7,3Z" style="fill:none;stroke:#000;stroke-linecap:round;stroke-linejoin:round;stroke-width:6px"/><line x1="69" y1="15" x2="69" y2="96" style="fill:none;stroke:#000;stroke-linecap:round;stroke-linejoin:round;stroke-width:6px"/><path d="M9,63v6a30,30,0,0,0,60,0V60" style="fill:none;stroke:#000;stroke-linecap:round;stroke-linejoin:round;stroke-width:6px"/><path d="M33,48v9a18,18,0,0,0,36,0" style="fill:none;stroke:#000;stroke-linecap:round;stroke-linejoin:round;stroke-width:6px"/><path d="M15,48A6,6,0,0,1,3,48c0-3.3,6-12,6-12S15,44.7,15,48Z" style="fill:none;stroke:#000;stroke-linecap:round;stroke-linejoin:round;stroke-width:6px"/><path d="M39,33a6,6,0,0,1-12,0c0-3.3,6-12,6-12S39,29.7,39,33Z" style="fill:none;stroke:#000;stroke-linecap:round;stroke-linejoin:round;stroke-width:6px"/><path d="M129,63v6a30,30,0,0,1-60,0V60" style="fill:none;stroke:#000;stroke-linecap:round;stroke-linejoin:round;stroke-width:6px"/><path d="M105,48v9a18,18,0,0,1-36,0" style="fill:none;stroke:#000;stroke-linecap:round;stroke-linejoin:round;stroke-width:6px"/><path d="M123,48a6,6,0,0,0,12,0c0-3.3-6-12-6-12S123,44.7,123,48Z" style="fill:none;stroke:#000;stroke-linecap:round;stroke-linejoin:round;stroke-width:6px"/><path d="M99,33a6,6,0,0,0,12,0c0-3.3-6-12-6-12S99,29.7,99,33Z" style="fill:none;stroke:#000;stroke-linecap:round;stroke-linejoin:round;stroke-width:6px"/><path d="M75,111a6,6,0,0,0-12,0c0,3.3,6,12,6,12S75,114.3,75,111Z" style="fill:none;stroke:#000;stroke-linecap:round;stroke-linejoin:round;stroke-width:6px"/><path d="M105,129a6,6,0,0,0-12,0c0,3.3,6,12,6,12S105,132.3,105,129Z" style="fill:none;stroke:#000;stroke-linecap:round;stroke-linejoin:round;stroke-width:6px"/><line x1="99" y1="108" x2="99" y2="114" style="fill:none;stroke:#000;stroke-linecap:round;stroke-linejoin:round;stroke-width:6px"/><path d="M33,129a6,6,0,0,1,12,0c0,3.3-6,12-6,12S33,132.3,33,129Z" style="fill:none;stroke:#000;stroke-linecap:round;stroke-linejoin:round;stroke-width:6px"/><line x1="39" y1="108" x2="39" y2="114" style="fill:none;stroke:#000;stroke-linecap:round;stroke-linejoin:round;stroke-width:6px"/><rect width="144" height="144" style="fill:none"/></svg>