<svg xmlns="http://www.w3.org/2000/svg" viewBox="0 0 144 144"><path d="M105,36V6L80.4,21.4C96.4,22.9,102.4,28.9,105,36Z" style="fill:none;stroke:#000;stroke-linejoin:round;stroke-width:6px"/><path d="M39,36V6L63.6,21.4C47.6,22.9,41.6,28.9,39,36Z" style="fill:none;stroke:#000;stroke-linejoin:round;stroke-width:6px"/><path d="M82.7,38.9A12.0166,12.0166,0,0,1,93,33" style="fill:none;stroke:#000;stroke-linecap:round;stroke-linejoin:round;stroke-width:6px"/><path d="M61.3,38.9A12.0166,12.0166,0,0,0,51,33" style="fill:none;stroke:#000;stroke-linecap:round;stroke-linejoin:round;stroke-width:6px"/><path d="M115.1,66.9C103.6,71.9,88.5,75,72,75s-31.6-3.1-43.1-8.1A52.4058,52.4058,0,0,1,33,60a10.4747,10.4747,0,0,1,.8-1.1C43.6,63.3,57.1,66,72,66s28.4-2.7,38.2-7.1A4.44,4.44,0,0,0,111,60,35.8888,35.8888,0,0,1,115.1,66.9Z" style="fill:none;stroke:#000;stroke-linejoin:round;stroke-width:6px"/><path d="M141,42a8.9626,8.9626,0,0,1-9,9h-9a9,9,0,0,1,0-18h9A8.9626,8.9626,0,0,1,141,42Z" style="fill:none;stroke:#000;stroke-linecap:round;stroke-linejoin:round;stroke-width:6px"/><path d="M121.8,86.7A16.4225,16.4225,0,0,0,135,70.6V51H117l-4.4,10.9" style="fill:none;stroke:#000;stroke-linecap:round;stroke-linejoin:round;stroke-width:6px"/><path d="M3,42a8.9626,8.9626,0,0,0,9,9h9a9,9,0,0,0,0-18H12A8.9626,8.9626,0,0,0,3,42Z" style="fill:none;stroke:#000;stroke-linecap:round;stroke-linejoin:round;stroke-width:6px"/><path d="M22.2,86.7A16.4225,16.4225,0,0,1,9,70.6V51H27l4.4,10.9" style="fill:none;stroke:#000;stroke-linecap:round;stroke-linejoin:round;stroke-width:6px"/><path d="M72,141h9.2a42.1268,42.1268,0,0,0,33.1-16.2c16.1-20.6,5.6-53-3.3-64.8-9-12,6-39-39-39S42,48,33,60c-8.9,11.9-19.4,44.2-3.3,64.8A42.1268,42.1268,0,0,0,62.8,141H72" style="fill:none;stroke:#000;stroke-linejoin:round;stroke-width:6px"/><circle cx="72" cy="87" r="12" style="fill:none;stroke:#000;stroke-linecap:round;stroke-linejoin:round;stroke-width:6px"/><line x1="90" y1="45" x2="99" y2="42" style="fill:none;stroke:#000;stroke-linecap:round;stroke-linejoin:round;stroke-width:6px"/><line x1="90" y1="54" x2="99" y2="54" style="fill:none;stroke:#000;stroke-linecap:round;stroke-linejoin:round;stroke-width:6px"/><line x1="54" y1="45" x2="45" y2="42" style="fill:none;stroke:#000;stroke-linecap:round;stroke-linejoin:round;stroke-width:6px"/><line x1="54" y1="54" x2="45" y2="54" style="fill:none;stroke:#000;stroke-linecap:round;stroke-linejoin:round;stroke-width:6px"/><path d="M72,42a3,3,0,1,0,3,3,2.9465,2.9465,0,0,0-3-3Z" style="fill:#000"/><rect width="144" height="144" style="fill:none"/></svg>