<svg xmlns="http://www.w3.org/2000/svg" viewBox="0 0 144 144"><path d="M44.6,88.9A50.8148,50.8148,0,0,1,36,87L6,99,18,78A39.4626,39.4626,0,0,1,3,47.6C3,24.6,25.8,6,54,6s51,18.6,51,41.6" style="fill:none;stroke:#000;stroke-linecap:round;stroke-linejoin:round;stroke-width:6px"/><path d="M57,99c0,25.7,30,45,57,33l24,9-9-18c7.8-6.2,12-14.4,12-24,0-18.9-18.8-36-42-36S57,80.1,57,99Z" style="fill:none;stroke:#000;stroke-linecap:round;stroke-linejoin:round;stroke-width:6px"/><rect width="144" height="144" style="fill:none"/></svg>