<svg xmlns="http://www.w3.org/2000/svg" viewBox="0 0 144 144"><path d="M87,9H27A23.9424,23.9424,0,0,0,3,33V57A23.9424,23.9424,0,0,0,27,81h6v24L60,81H87a23.9424,23.9424,0,0,0,24-24V33A23.9424,23.9424,0,0,0,87,9Z" style="fill:none;stroke:#000;stroke-linecap:round;stroke-linejoin:round;stroke-width:6px"/><path d="M69,102a14.98,14.98,0,0,0,15,15H99l18,18V117h9a14.98,14.98,0,0,0,15-15V90a14.98,14.98,0,0,0-15-15" style="fill:none;stroke:#000;stroke-linecap:round;stroke-linejoin:round;stroke-width:6px"/><rect width="144" height="144" style="fill:none"/></svg>