<svg xmlns="http://www.w3.org/2000/svg" viewBox="0 0 144 144"><path d="M129,27a12.0353,12.0353,0,0,0-12-12H21A12.0353,12.0353,0,0,0,9,27v96a12.0353,12.0353,0,0,0,12,12h96a12.0353,12.0353,0,0,0,12-12Z" style="fill:none;stroke:#000;stroke-linejoin:round;stroke-width:6px"/><line x1="39" y1="135" x2="39" y2="15" style="fill:none;stroke:#000;stroke-linejoin:round;stroke-width:6px"/><line x1="69" y1="135" x2="69" y2="15" style="fill:none;stroke:#000;stroke-linejoin:round;stroke-width:6px"/><line x1="99" y1="135" x2="99" y2="15" style="fill:none;stroke:#000;stroke-linejoin:round;stroke-width:6px"/><line x1="9" y1="45" x2="129" y2="45" style="fill:none;stroke:#000;stroke-linejoin:round;stroke-width:6px"/><line x1="9" y1="75" x2="129" y2="75" style="fill:none;stroke:#000;stroke-linejoin:round;stroke-width:6px"/><line x1="9" y1="105" x2="129" y2="105" style="fill:none;stroke:#000;stroke-linejoin:round;stroke-width:6px"/><path d="M24,114a6,6,0,1,0,6,6,6.0176,6.0176,0,0,0-6-6Z" style="fill:#000"/><path d="M54,84a6,6,0,1,0,6,6,6.0176,6.0176,0,0,0-6-6Z" style="fill:#000"/><path d="M24,54a6,6,0,1,0,6,6,6.0176,6.0176,0,0,0-6-6Z" style="fill:#000"/><path d="M54,24a6,6,0,1,0,6,6,6.0176,6.0176,0,0,0-6-6Z" style="fill:#000"/><path d="M114,24a6,6,0,1,0,6,6,6.0176,6.0176,0,0,0-6-6Z" style="fill:#000"/><path d="M84,54a6,6,0,1,0,6,6,6.0176,6.0176,0,0,0-6-6Z" style="fill:#000"/><path d="M84,114a6,6,0,1,0,6,6,6.0176,6.0176,0,0,0-6-6Z" style="fill:#000"/><path d="M114,84a6,6,0,1,0,6,6,6.0176,6.0176,0,0,0-6-6Z" style="fill:#000"/><rect width="144" height="144" style="fill:none"/></svg>