<svg xmlns="http://www.w3.org/2000/svg" viewBox="0 0 144 144"><rect x="21" y="9" width="114" height="66" style="fill:none;stroke:#000;stroke-linecap:round;stroke-linejoin:round;stroke-width:6px"/><line x1="9" y1="3" x2="9" y2="141" style="fill:none;stroke:#000;stroke-linecap:round;stroke-linejoin:round;stroke-width:6px"/><polygon points="36 12 24 12 24 24 36 24 36 12" style="fill:#000"/><polygon points="60 12 48 12 48 24 60 24 60 12" style="fill:#000"/><polygon points="84 12 72 12 72 24 84 24 84 12" style="fill:#000"/><polygon points="108 12 96 12 96 24 108 24 108 12" style="fill:#000"/><polygon points="132 12 120 12 120 24 132 24 132 12" style="fill:#000"/><polygon points="48 24 36 24 36 36 48 36 48 24" style="fill:#000"/><polygon points="72 24 60 24 60 36 72 36 72 24" style="fill:#000"/><polygon points="96 24 84 24 84 36 96 36 96 24" style="fill:#000"/><polygon points="120 24 108 24 108 36 120 36 120 24" style="fill:#000"/><polygon points="36 36 24 36 24 48 36 48 36 36" style="fill:#000"/><polygon points="60 36 48 36 48 48 60 48 60 36" style="fill:#000"/><polygon points="84 36 72 36 72 48 84 48 84 36" style="fill:#000"/><polygon points="108 36 96 36 96 48 108 48 108 36" style="fill:#000"/><polygon points="132 36 120 36 120 48 132 48 132 36" style="fill:#000"/><polygon points="48 48 36 48 36 60 48 60 48 48" style="fill:#000"/><polygon points="72 48 60 48 60 60 72 60 72 48" style="fill:#000"/><polygon points="96 48 84 48 84 60 96 60 96 48" style="fill:#000"/><polygon points="120 48 108 48 108 60 120 60 120 48" style="fill:#000"/><polygon points="36 60 24 60 24 72 36 72 36 60" style="fill:#000"/><polygon points="60 60 48 60 48 72 60 72 60 60" style="fill:#000"/><polygon points="84 60 72 60 72 72 84 72 84 60" style="fill:#000"/><polygon points="108 60 96 60 96 72 108 72 108 60" style="fill:#000"/><polygon points="132 60 120 60 120 72 132 72 132 60" style="fill:#000"/><rect width="144" height="144" style="fill:none"/></svg>