<svg xmlns="http://www.w3.org/2000/svg" viewBox="0 0 144.2106 144"><rect x="3.1053" y="9" width="138" height="78" style="fill:none;stroke:#000;stroke-linecap:round;stroke-linejoin:round;stroke-width:6.210599899291992px"/><line x1="3.1053" y1="3" x2="3.1053" y2="141" style="fill:none;stroke:#000;stroke-linecap:round;stroke-linejoin:round;stroke-width:6px"/><polygon points="18.105 12 6.105 12 6.105 24 18.105 24 18.105 12" style="fill:#000"/><polygon points="42.105 12 30.105 12 30.105 24 42.105 24 42.105 12" style="fill:#000"/><polygon points="66.105 12 54.105 12 54.105 24 66.105 24 66.105 12" style="fill:#000"/><polygon points="90.105 12 78.105 12 78.105 24 90.105 24 90.105 12" style="fill:#000"/><polygon points="114.105 12 102.105 12 102.105 24 114.105 24 114.105 12" style="fill:#000"/><polygon points="138.105 12 126.105 12 126.105 24 138.105 24 138.105 12" style="fill:#000"/><polygon points="30.105 24 18.105 24 18.105 36 30.105 36 30.105 24" style="fill:#000"/><polygon points="54.105 24 42.105 24 42.105 36 54.105 36 54.105 24" style="fill:#000"/><polygon points="78.105 24 66.105 24 66.105 36 78.105 36 78.105 24" style="fill:#000"/><polygon points="102.105 24 90.105 24 90.105 36 102.105 36 102.105 24" style="fill:#000"/><polygon points="126.105 24 114.105 24 114.105 36 126.105 36 126.105 24" style="fill:#000"/><polygon points="18.105 36 6.105 36 6.105 48 18.105 48 18.105 36" style="fill:#000"/><polygon points="42.105 36 30.105 36 30.105 48 42.105 48 42.105 36" style="fill:#000"/><polygon points="66.105 36 54.105 36 54.105 48 66.105 48 66.105 36" style="fill:#000"/><polygon points="90.105 36 78.105 36 78.105 48 90.105 48 90.105 36" style="fill:#000"/><polygon points="114.105 36 102.105 36 102.105 48 114.105 48 114.105 36" style="fill:#000"/><polygon points="138.105 36 126.105 36 126.105 48 138.105 48 138.105 36" style="fill:#000"/><polygon points="30.105 48 18.105 48 18.105 60 30.105 60 30.105 48" style="fill:#000"/><polygon points="54.105 48 42.105 48 42.105 60 54.105 60 54.105 48" style="fill:#000"/><polygon points="78.105 48 66.105 48 66.105 60 78.105 60 78.105 48" style="fill:#000"/><polygon points="102.105 48 90.105 48 90.105 60 102.105 60 102.105 48" style="fill:#000"/><polygon points="126.105 48 114.105 48 114.105 60 126.105 60 126.105 48" style="fill:#000"/><polygon points="18.105 60 6.105 60 6.105 72 18.105 72 18.105 60" style="fill:#000"/><polygon points="42.105 60 30.105 60 30.105 72 42.105 72 42.105 60" style="fill:#000"/><polygon points="66.105 60 54.105 60 54.105 72 66.105 72 66.105 60" style="fill:#000"/><polygon points="90.105 60 78.105 60 78.105 72 90.105 72 90.105 60" style="fill:#000"/><polygon points="114.105 60 102.105 60 102.105 72 114.105 72 114.105 60" style="fill:#000"/><polygon points="138.105 60 126.105 60 126.105 72 138.105 72 138.105 60" style="fill:#000"/><polygon points="30.105 72 18.105 72 18.105 84 30.105 84 30.105 72" style="fill:#000"/><polygon points="54.105 72 42.105 72 42.105 84 54.105 84 54.105 72" style="fill:#000"/><polygon points="78.105 72 66.105 72 66.105 84 78.105 84 78.105 72" style="fill:#000"/><polygon points="102.105 72 90.105 72 90.105 84 102.105 84 102.105 72" style="fill:#000"/><polygon points="126.105 72 114.105 72 114.105 84 126.105 84 126.105 72" style="fill:#000"/><line x1="141.1053" y1="3" x2="141.1053" y2="141" style="fill:none;stroke:#000;stroke-linecap:round;stroke-linejoin:round;stroke-width:6px"/><rect x="0.1053" width="144" height="144" style="fill:none"/></svg>