<svg xmlns="http://www.w3.org/2000/svg" viewBox="0 0 144 144"><path d="M45,24a3,3,0,1,0,3,3,2.9465,2.9465,0,0,0-3-3Z" style="fill:#000"/><path d="M57,18a3,3,0,1,0,3,3,2.9465,2.9465,0,0,0-3-3Z" style="fill:#000"/><path d="M87,18a3,3,0,1,0,3,3,2.9465,2.9465,0,0,0-3-3Z" style="fill:#000"/><path d="M72,24a3,3,0,1,0,3,3,2.9465,2.9465,0,0,0-3-3Z" style="fill:#000"/><path d="M99.3,24a3,3,0,1,0,3,3,3.0085,3.0085,0,0,0-3-3Z" style="fill:#000"/><polyline points="72 99 108 117 126 99" style="fill:none;stroke:#000;stroke-linecap:round;stroke-linejoin:round;stroke-width:6px"/><path d="M141,111a12.0353,12.0353,0,0,1-12,12H15a12,12,0,0,1,0-24H129A12.0353,12.0353,0,0,1,141,111Z" style="fill:none;stroke:#000;stroke-linecap:round;stroke-linejoin:round;stroke-width:6px"/><path d="M129,75a12,12,0,0,1,0,24H15a12,12,0,0,1,0-24" style="fill:none;stroke:#000;stroke-linecap:round;stroke-linejoin:round;stroke-width:6px"/><path d="M15,123v6a12.0353,12.0353,0,0,0,12,12h90a12.0353,12.0353,0,0,0,12-12v-6Z" style="fill:none;stroke:#000;stroke-linecap:round;stroke-linejoin:round;stroke-width:6px"/><path d="M129,57c0-31.5-25.5-54-57-54S15,25.5,15,57Z" style="fill:none;stroke:#000;stroke-linecap:round;stroke-linejoin:round;stroke-width:6px"/><path d="M15,57S3,59.4,3,66s5.4,9,12,9c3.2,0,6.9-1,9-3,3.1,5.5,8.2,9,15,9,7.4,0,12.2-2.6,15-9,2.8,6.4,10.6,9,18,9s15.2-2.6,18-9c2.8,6.4,7.6,9,15,9,6.8,0,11.9-3.5,15-9,2.1,2,5.8,3,9,3,6.6,0,12-2.4,12-9s-12-9-12-9" style="fill:none;stroke:#000;stroke-linecap:round;stroke-linejoin:round;stroke-width:6px"/><rect width="144" height="144" style="fill:none"/></svg>