<svg xmlns="http://www.w3.org/2000/svg" viewBox="0 0 144 144"><path d="M53.9,104.7,18.6,114C9.2,117.5,3,131,3,141H141c0-10-6.2-23.5-15.6-27l-35.3-9.3" style="fill:none;stroke:#000;stroke-linecap:round;stroke-linejoin:round;stroke-width:6px"/><line x1="69" y1="141" x2="69" y2="114" style="fill:none;stroke:#000;stroke-linecap:round;stroke-linejoin:round;stroke-width:6px"/><path d="M105,63c6,0,3,21-5.3,21,0,18-19.4,30-27.7,30S44.3,102,44.3,84C36,84,33,63,39,63" style="fill:none;stroke:#000;stroke-linecap:round;stroke-linejoin:round;stroke-width:6px"/><path d="M36,39.7,39,63s9-6,33-6,33,6,33,6l3-23.3" style="fill:none;stroke:#000;stroke-linecap:round;stroke-linejoin:round;stroke-width:6px"/><path d="M51,24a19.8074,19.8074,0,0,1,.9-6,13.6437,13.6437,0,0,0-8.4-3A13.4837,13.4837,0,0,0,36,39.7" style="fill:none;stroke:#000;stroke-linecap:round;stroke-linejoin:round;stroke-width:6px"/><path d="M108,39.7A13.4837,13.4837,0,0,0,100.5,15a13.0654,13.0654,0,0,0-8.4,3,19.8074,19.8074,0,0,1,.9,6" style="fill:none;stroke:#000;stroke-linecap:round;stroke-linejoin:round;stroke-width:6px"/><path d="M92.1,18a20.967,20.967,0,0,0-40.2,0" style="fill:none;stroke:#000;stroke-linecap:round;stroke-linejoin:round;stroke-width:6px"/><path d="M51.9,18a19.8074,19.8074,0,0,0-.9,6" style="fill:none;stroke:#000;stroke-linecap:round;stroke-linejoin:round;stroke-width:6px"/><path d="M93,24a19.8074,19.8074,0,0,0-.9-6" style="fill:none;stroke:#000;stroke-linecap:round;stroke-linejoin:round;stroke-width:6px"/><path d="M63,84c-6,0-9,6-9,12H72c0-4.9-3-12-9-12Z" style="fill:#000"/><path d="M81,84c-6,0-9,7.1-9,12H90c0-6-3-12-9-12Z" style="fill:#000"/><path d="M54,72c0-3.3,2.7-3,6-3s6-.3,6,3" style="fill:none;stroke:#000;stroke-linecap:round;stroke-linejoin:round;stroke-width:6px"/><path d="M78,72c0-3.3,2.7-3,6-3s6-.3,6,3" style="fill:none;stroke:#000;stroke-linecap:round;stroke-linejoin:round;stroke-width:6px"/><rect width="144" height="144" style="fill:none"/></svg>