<svg xmlns="http://www.w3.org/2000/svg" viewBox="0 0 144 144"><path d="M105.2,18.4a20.4882,20.4882,0,0,0-9.9,2.5C92.4,10.8,80.2,3.4,69.2,3.4S45.8,10.8,42.9,20.9A20.7793,20.7793,0,0,0,33,18.4a20.9974,20.9974,0,0,0-21,21,20.7461,20.7461,0,0,0,21,21V141h72V60.4a21,21,0,1,0,.2-42Z" style="fill:none;stroke:#000;stroke-linecap:round;stroke-linejoin:round;stroke-width:6px"/><line x1="33" y1="117" x2="105" y2="117" style="fill:none;stroke:#000;stroke-linecap:round;stroke-linejoin:round;stroke-width:6px"/><line x1="51" y1="93" x2="51" y2="117" style="fill:none;stroke:#000;stroke-linecap:round;stroke-linejoin:round;stroke-width:6px"/><line x1="69" y1="87" x2="69" y2="117" style="fill:none;stroke:#000;stroke-linecap:round;stroke-linejoin:round;stroke-width:6px"/><line x1="87" y1="93" x2="87" y2="117" style="fill:none;stroke:#000;stroke-linecap:round;stroke-linejoin:round;stroke-width:6px"/><rect width="144" height="144" style="fill:none"/></svg>