<svg xmlns="http://www.w3.org/2000/svg" viewBox="0 0 144.0271 144"><path d="M75.2,39.7A9.0513,9.0513,0,0,0,62.4,26.9L51,38.4V15.2a9,9,0,0,0-18,0V38.5L21.8,27.2A9.0513,9.0513,0,0,0,9,40L33,64V87.3a9,9,0,1,0,18,0V63.9Z" style="fill:none;stroke:#000;stroke-linejoin:round;stroke-width:6px"/><path d="M135.6,96.8a9.0564,9.0564,0,0,0,4.8-5,9.1568,9.1568,0,0,0-.1-6.9,9.3845,9.3845,0,0,0-5-4.8,9.1568,9.1568,0,0,0-6.9.1l-14.8,6.5L122,65a8.9717,8.9717,0,0,0-5.1-11.6,9.0828,9.0828,0,0,0-11.7,5.1L96.8,80.2,90.4,65.6a9.0564,9.0564,0,0,0-5-4.8,9.1568,9.1568,0,0,0-6.9.1,9.3845,9.3845,0,0,0-4.8,5,9.1568,9.1568,0,0,0,.1,6.9L87.5,104l-8.4,21.7a9.025,9.025,0,1,0,16.8,6.6l8.4-21.7Z" style="fill:none;stroke:#000;stroke-linejoin:round;stroke-width:6px"/><rect width="144" height="144" style="fill:none"/></svg>