<svg xmlns="http://www.w3.org/2000/svg" viewBox="0 0 144 144"><path d="M110.2,68.4c-2.3-16.3-13-20.9-28.5-18.7C64.5,52.1,50.4,97.8,39.3,112c-12.1,15.6-28.2,10.8-34.4,11.4a2.1025,2.1025,0,0,0-1.7,1.3,2.2322,2.2322,0,0,0,.2,2.1C7,131.6,18.6,141,37.5,141,67.2,141,113.1,88.9,110.2,68.4Z" style="fill:none;stroke:#000;stroke-linejoin:round;stroke-width:6px"/><path d="M81.7,49.6s17.7-25.3,32.6-15.7-4.1,34.4-4.1,34.4" style="fill:none;stroke:#000;stroke-linejoin:round;stroke-width:6px"/><line x1="39.3" y1="112" x2="51.3" y2="118" style="fill:none;stroke:#000;stroke-linecap:round;stroke-linejoin:round;stroke-width:6px"/><line x1="33.3" y1="118" x2="36.3" y2="127" style="fill:none;stroke:#000;stroke-linecap:round;stroke-linejoin:round;stroke-width:6px"/><line x1="114.8" y1="34.2" x2="135.3" y2="7.2" style="fill:none;stroke:#000;stroke-linecap:round;stroke-linejoin:round;stroke-width:6px"/><rect width="144" height="144" style="fill:none"/></svg>