<svg xmlns="http://www.w3.org/2000/svg" viewBox="0 0 144 144"><path d="M111,129a12.0353,12.0353,0,0,1-12,12H39a12.0353,12.0353,0,0,1-12-12V75h84Z" style="fill:none;stroke:#000;stroke-linejoin:round;stroke-width:6px"/><path d="M105,9a6.0176,6.0176,0,0,0-6-6H39a6.0176,6.0176,0,0,0-6,6V75h72Z" style="fill:none;stroke:#000;stroke-linejoin:round;stroke-width:6px"/><polygon points="27 75 96.2 114.3 111 75 27 75" style="fill:none;stroke:#000;stroke-linejoin:round;stroke-width:6px"/><line x1="69" y1="75" x2="69" y2="3" style="fill:none;stroke:#000;stroke-linejoin:round;stroke-width:6px"/><line x1="33" y1="39" x2="105" y2="39" style="fill:none;stroke:#000;stroke-linejoin:round;stroke-width:6px"/><line x1="36" y1="39" x2="67.4" y2="3" style="fill:none;stroke:#000;stroke-linejoin:round;stroke-width:6px"/><line x1="72" y1="39" x2="103.5" y2="5.1" style="fill:none;stroke:#000;stroke-linejoin:round;stroke-width:6px"/><line x1="34.7" y1="75" x2="66" y2="39" style="fill:none;stroke:#000;stroke-linejoin:round;stroke-width:6px"/><line x1="70.7" y1="75" x2="103.5" y2="39" style="fill:none;stroke:#000;stroke-linejoin:round;stroke-width:6px"/><rect width="144" height="144" style="fill:none"/></svg>