<svg xmlns="http://www.w3.org/2000/svg" viewBox="0 0 144 144"><circle cx="69" cy="84" r="57" style="fill:none;stroke:#000;stroke-linecap:round;stroke-linejoin:round;stroke-width:6px"/><path d="M69,27a59.6,59.6,0,0,1,12,1.3V15H57V28.3A59.6,59.6,0,0,1,69,27Z" style="fill:none;stroke:#000;stroke-linecap:round;stroke-linejoin:round;stroke-width:6px"/><polyline points="12.7 75 33.1 57 51 75 69.1 57 87.1 75 105 57 125.3 75" style="fill:none;stroke:#000;stroke-linecap:round;stroke-linejoin:round;stroke-width:6px"/><polyline points="12.7 93 33.1 111 51 93 69.1 111 87.1 93 105 111 125.3 93" style="fill:none;stroke:#000;stroke-linecap:round;stroke-linejoin:round;stroke-width:6px"/><rect x="62.9998" y="77.9999" width="11.9999" height="11.9999" transform="translate(-39.1873 73.3931) rotate(-45)" style="fill:none;stroke:#000;stroke-linecap:round;stroke-linejoin:round;stroke-width:5.999942240425611px"/><rect x="98.9998" y="77.9996" width="11.9999" height="11.9999" transform="translate(-28.6429 98.8489) rotate(-45)" style="fill:none;stroke:#000;stroke-linecap:round;stroke-linejoin:round;stroke-width:5.999942240425611px"/><rect x="27" y="77.9997" width="11.9999" height="11.9999" transform="translate(-49.7312 47.9374) rotate(-45)" style="fill:none;stroke:#000;stroke-linecap:round;stroke-linejoin:round;stroke-width:5.999942240425611px"/><line x1="69" y1="15" x2="69" y2="3" style="fill:none;stroke:#000;stroke-linecap:round;stroke-linejoin:round;stroke-width:6px"/><rect width="144" height="144" style="fill:none"/></svg>