<svg xmlns="http://www.w3.org/2000/svg" viewBox="0 0 144 144"><polygon points="105 75 81 39 93 39 69 3 45 39 57 39 33 75 51 75 24 111 114 111 87 75 105 75" style="fill:none;stroke:#000;stroke-linejoin:round;stroke-width:6px"/><line x1="69" y1="111" x2="69" y2="141" style="fill:none;stroke:#000;stroke-linecap:round;stroke-linejoin:round;stroke-width:6px"/><path d="M69,66a3.0085,3.0085,0,0,0-3,3,2.9465,2.9465,0,0,0,3,3,3.0085,3.0085,0,0,0,3-3,3.0759,3.0759,0,0,0-3-3Z" style="fill:#000"/><path d="M87,96a3.0085,3.0085,0,0,0-3,3,2.9465,2.9465,0,0,0,3,3,3.0085,3.0085,0,0,0,3-3,3.0759,3.0759,0,0,0-3-3Z" style="fill:#000"/><path d="M57,60a3.0085,3.0085,0,0,0-3,3,2.9465,2.9465,0,0,0,3,3,3.0085,3.0085,0,0,0,3-3,3.0759,3.0759,0,0,0-3-3Z" style="fill:#000"/><path d="M69,24a3,3,0,0,0,0,6,3,3,0,0,0,0-6Z" style="fill:#000"/><path d="M81,84a3.0085,3.0085,0,0,0-3,3,2.9465,2.9465,0,0,0,3,3,3.0085,3.0085,0,0,0,3-3,3.0759,3.0759,0,0,0-3-3Z" style="fill:#000"/><path d="M81,60a3.0085,3.0085,0,0,0-3,3,2.9465,2.9465,0,0,0,3,3,3.0085,3.0085,0,0,0,3-3,3.0759,3.0759,0,0,0-3-3Z" style="fill:#000"/><path d="M45,96a3.0085,3.0085,0,0,0-3,3,3,3,0,0,0,6,0,3.0085,3.0085,0,0,0-3-3Z" style="fill:#000"/><path d="M63,96a3.0085,3.0085,0,0,0-3,3,2.9465,2.9465,0,0,0,3,3,3.0085,3.0085,0,0,0,3-3,3.0759,3.0759,0,0,0-3-3Z" style="fill:#000"/><path d="M69,36a3,3,0,0,0,0,6,3,3,0,0,0,0-6Z" style="fill:#000"/><line x1="44.4" y1="57.9" x2="86" y2="46.5" style="fill:none;stroke:#000;stroke-linejoin:round;stroke-width:6px"/><line x1="40.4" y1="89.2" x2="88" y2="76.3" style="fill:none;stroke:#000;stroke-linejoin:round;stroke-width:6px"/><rect width="144" height="144" style="fill:none"/></svg>