<svg xmlns="http://www.w3.org/2000/svg" viewBox="0 0 144 144"><circle cx="72" cy="72" r="69" style="fill:none;stroke:#000;stroke-linejoin:round;stroke-width:6px"/><circle cx="72" cy="72" r="57" style="fill:none;stroke:#000;stroke-linejoin:round;stroke-width:6px"/><path d="M96.2,62.7a12.3727,12.3727,0,0,0,8.7-8.6A12.1485,12.1485,0,0,0,90.6,39a12.05,12.05,0,0,0-8.8,7.7l-5.4,21Z" style="fill:none;stroke:#000;stroke-linejoin:round;stroke-width:6px"/><path d="M81.4,96.1a12.0688,12.0688,0,0,0,8.6,8.6,12.2049,12.2049,0,0,0,7.2-23.3L76.2,76Z" style="fill:none;stroke:#000;stroke-linejoin:round;stroke-width:6px"/><path d="M47.9,81.5a12.0688,12.0688,0,0,0-8.6,8.6,12.1675,12.1675,0,0,0,14.5,15,11.8613,11.8613,0,0,0,8.7-7.8l5.3-21Z" style="fill:none;stroke:#000;stroke-linejoin:round;stroke-width:6px"/><path d="M62.4,47.9a12.128,12.128,0,0,0-23.5,6,12.23,12.23,0,0,0,7.8,8.7l21,5.2Z" style="fill:none;stroke:#000;stroke-linejoin:round;stroke-width:6px"/><rect width="144" height="144" style="fill:none"/></svg>