<svg xmlns="http://www.w3.org/2000/svg" viewBox="0 0 144 144"><polyline points="117 15 129 15 129 141 21 141 21 15 33 15" style="fill:none;stroke:#000;stroke-linecap:round;stroke-linejoin:round;stroke-width:6px"/><path d="M87,15a12,12,0,0,0-24,0H45V33h60V15Z" style="fill:none;stroke:#000;stroke-linecap:round;stroke-linejoin:round;stroke-width:6px"/><polyline points="45 27 33 27 33 129 93 129 93 105 117 105 117 27 105 27" style="fill:none;stroke:#000;stroke-linecap:round;stroke-linejoin:round;stroke-width:6px"/><line x1="117" y1="105" x2="93" y2="129" style="fill:none;stroke:#000;stroke-linecap:round;stroke-linejoin:round;stroke-width:6px"/><path d="M51,66l4.8-4.8a6.0977,6.0977,0,0,1,8.5,0l.5.5a6.0977,6.0977,0,0,0,8.5,0l.5-.5a6.0977,6.0977,0,0,1,8.5,0l.5.5a6.0977,6.0977,0,0,0,8.5,0L96,57" style="fill:none;stroke:#000;stroke-linecap:round;stroke-linejoin:round;stroke-width:6px"/><path d="M51,90l4.8-4.8a6.0977,6.0977,0,0,1,8.5,0l.5.5a6.0977,6.0977,0,0,0,8.5,0l.5-.5a6.0977,6.0977,0,0,1,8.5,0l.5.5a6.0977,6.0977,0,0,0,8.5,0L96,81" style="fill:none;stroke:#000;stroke-linecap:round;stroke-linejoin:round;stroke-width:6px"/><rect width="144" height="144" style="fill:none"/></svg>