<svg xmlns="http://www.w3.org/2000/svg" viewBox="0 0 144.1 144.2"><path d="M112.4,97A17.9776,17.9776,0,0,0,93.7,72,33.03,33.03,0,0,0,30,81a30.0212,30.0212,0,0,0,2.9,59.9h66A24.0372,24.0372,0,0,0,112.4,97Z" transform="translate(0.1 0.2)" style="fill:none;stroke:#000;stroke-linecap:round;stroke-linejoin:round;stroke-width:6px"/><path d="M132,87.5a23.9031,23.9031,0,0,0-1.6-38.4,17.9776,17.9776,0,0,0-18.7-25A32.9768,32.9768,0,0,0,48,33,29.9256,29.9256,0,0,0,20.9,62.9" transform="translate(0.1 0.2)" style="fill:none;stroke:#000;stroke-linecap:round;stroke-linejoin:round;stroke-width:6px"/><rect x="0.1" y="0.2" width="144" height="144" style="fill:none"/></svg>