<svg xmlns="http://www.w3.org/2000/svg" viewBox="0 0 144.0001 144.0026"><line x1="30.0001" y1="141.0026" x2="66.0001" y2="141.0026" style="fill:none;stroke:#000;stroke-linecap:round;stroke-linejoin:round;stroke-width:6px"/><line x1="48.0001" y1="129.0026" x2="48.0001" y2="140.9026" style="fill:none;stroke:#000;stroke-linecap:round;stroke-linejoin:round;stroke-width:6px"/><line x1="3.0001" y1="117.0026" x2="93.0001" y2="117.0026" style="fill:none;stroke:#000;stroke-linejoin:round;stroke-width:6px"/><path d="M51,63V49.5A22.5339,22.5339,0,0,1,73.5,27H84" transform="translate(0.0001 0.0026)" style="fill:none;stroke:#000;stroke-linecap:round;stroke-linejoin:round;stroke-width:6px"/><polyline points="63 51.003 51 63.003 39 51.003" style="fill:none;stroke:#000;stroke-linecap:round;stroke-linejoin:round;stroke-width:6px"/><path d="M75,69h9a8.9626,8.9626,0,0,1,9,8.925q0,.0375,0,.075v42a8.9626,8.9626,0,0,1-8.925,9q-.0375,0-.075,0H12a8.9626,8.9626,0,0,1-9-8.925q0-.0375,0-.075V78a8.9626,8.9626,0,0,1,8.925-9q.0375,0,.075,0h9" transform="translate(0.0001 0.0026)" style="fill:none;stroke:#000;stroke-linecap:round;stroke-linejoin:round;stroke-width:6px"/><polyline points="75 18.003 84 27.003 75 36.003" style="fill:none;stroke:#000;stroke-linecap:round;stroke-linejoin:round;stroke-width:6px"/><path d="M72,51h52.6S141,49,141,33.9c0-9.6-8.4-17.5-18.9-17.1A25.6263,25.6263,0,0,0,99,3,26.5844,26.5844,0,0,0,84.7,7.1" transform="translate(0.0001 0.0026)" style="fill:none;stroke:#000;stroke-linejoin:round;stroke-width:6px"/><rect x="0.0001" y="0.0026" width="144" height="144" style="fill:none"/></svg>