<svg xmlns="http://www.w3.org/2000/svg" viewBox="0 0 144 144"><path d="M95.4,120.7l6-10.4-6-3.5a19.9021,19.9021,0,0,0,0-9.7l6-3.5-6-10.4-6,3.5A21.7468,21.7468,0,0,0,81,82V75H69v7a21.9532,21.9532,0,0,0-8.4,4.8l-6-3.5-6,10.4,6,3.5a19.9021,19.9021,0,0,0,0,9.7l-6,3.5,6,10.4,6-3.5a21.9532,21.9532,0,0,0,8.4,4.8v7H81v-7a21.9532,21.9532,0,0,0,8.4-4.8Z" style="fill:none;stroke:#000;stroke-linejoin:round;stroke-width:6px"/><circle cx="75" cy="102" r="9" style="fill:none;stroke:#000;stroke-linejoin:round;stroke-width:6px"/><path d="M115.2,98.3S141,94.9,141,69.6A28.4813,28.4813,0,0,0,111.3,41,40.16,40.16,0,0,0,34.9,55.8,21.5106,21.5106,0,0,0,9,76.8c0,18,15.5,20.9,21,21.4" style="fill:none;stroke:#000;stroke-linecap:round;stroke-linejoin:round;stroke-width:6px"/><rect width="144" height="144" style="fill:none"/></svg>