<svg xmlns="http://www.w3.org/2000/svg" viewBox="0 0 144 144"><path d="M117,98c5.9-1.3,24-7.1,24-28.4A28.6019,28.6019,0,0,0,111.3,41,40.0967,40.0967,0,0,0,35,55.8a21.552,21.552,0,0,0-26,21C9,98.7,32,98.3,32,98.3" style="fill:none;stroke:#000;stroke-linecap:round;stroke-linejoin:round;stroke-width:6px"/><circle cx="75" cy="99" r="30" style="fill:none;stroke:#000;stroke-linejoin:round;stroke-width:6px"/><path d="M75,114a3,3,0,1,0,3,3,3.0085,3.0085,0,0,0-3-3Z" style="fill:#000"/><path d="M66,90a9,9,0,1,1,9,9v9" style="fill:none;stroke:#000;stroke-linecap:round;stroke-linejoin:round;stroke-width:6px"/><rect width="144" height="144" style="fill:none"/></svg>