<svg xmlns="http://www.w3.org/2000/svg" viewBox="0 0 144 144"><polyline points="105 78 105 93 90 93" style="fill:none;stroke:#000;stroke-linecap:round;stroke-linejoin:round;stroke-width:6px"/><path d="M51,93c3.7-10.5,15.2-18,27-18s23.3,7.5,27,18" style="fill:none;stroke:#000;stroke-linecap:round;stroke-linejoin:round;stroke-width:6px"/><polyline points="51 126 51 111 66 111" style="fill:none;stroke:#000;stroke-linecap:round;stroke-linejoin:round;stroke-width:6px"/><path d="M105,111c-3.7,10.5-15.2,18-27,18s-23.3-7.5-27-18" style="fill:none;stroke:#000;stroke-linecap:round;stroke-linejoin:round;stroke-width:6px"/><path d="M120.6,97c7.6-2.5,20.4-9.5,20.4-27.3a28.5414,28.5414,0,0,0-29.7-28.6A40.067,40.067,0,0,0,35,55.8a21.552,21.552,0,0,0-26,21c0,17,13.9,20.6,20.1,21.3" style="fill:none;stroke:#000;stroke-linecap:round;stroke-linejoin:round;stroke-width:6px"/><rect width="144" height="144" style="fill:none"/></svg>