<svg xmlns="http://www.w3.org/2000/svg" viewBox="0 0 144 144"><path d="M51,63V49.5A22.5339,22.5339,0,0,1,73.5,27H84" style="fill:none;stroke:#000;stroke-linecap:round;stroke-linejoin:round;stroke-width:6px"/><polyline points="63 51 51 63 39 51" style="fill:none;stroke:#000;stroke-linecap:round;stroke-linejoin:round;stroke-width:6px"/><polyline points="75 18 84 27 75 36" style="fill:none;stroke:#000;stroke-linecap:round;stroke-linejoin:round;stroke-width:6px"/><path d="M75,51h49.6S141,49,141,33.9c0-9.6-8.4-17.5-18.9-17.1A25.6262,25.6262,0,0,0,99,3,26.5841,26.5841,0,0,0,84.7,7.1" style="fill:none;stroke:#000;stroke-linecap:round;stroke-linejoin:round;stroke-width:6px"/><path d="M75,135a6.0176,6.0176,0,0,1-6,6H33a6.0176,6.0176,0,0,1-6-6V81a6.0176,6.0176,0,0,1,6-6H69a6.0176,6.0176,0,0,1,6,6Z" style="fill:none;stroke:#000;stroke-linecap:round;stroke-linejoin:round;stroke-width:6px"/><line x1="27" y1="123" x2="75" y2="123" style="fill:none;stroke:#000;stroke-linecap:round;stroke-linejoin:round;stroke-width:6px"/><line x1="27" y1="87" x2="75" y2="87" style="fill:none;stroke:#000;stroke-linecap:round;stroke-linejoin:round;stroke-width:6px"/><line x1="48" y1="132" x2="54" y2="132" style="fill:none;stroke:#000;stroke-linecap:round;stroke-linejoin:round;stroke-width:6px"/><rect width="144" height="144" style="fill:none"/></svg>