<svg xmlns="http://www.w3.org/2000/svg" viewBox="0 0 144.1 144"><path d="M112.5,97.4a17.9776,17.9776,0,0,0-18.7-25,33.0059,33.0059,0,0,0-63.7,8.9A29.9165,29.9165,0,0,0,33,141H99a23.8414,23.8414,0,0,0,13.5-43.6Z" style="fill:none;stroke:#000;stroke-linecap:round;stroke-linejoin:round;stroke-width:6px"/><path d="M68.6,41.6A93.0471,93.0471,0,0,1,141,3" style="fill:none;stroke:#000;stroke-linecap:round;stroke-linejoin:round;stroke-width:6px"/><path d="M93,49.5A68.8516,68.8516,0,0,1,141.1,27" style="fill:none;stroke:#000;stroke-linecap:round;stroke-linejoin:round;stroke-width:6px"/><path d="M112.2,64.2a44.6814,44.6814,0,0,1,28.9-13.1" style="fill:none;stroke:#000;stroke-linecap:round;stroke-linejoin:round;stroke-width:6px"/><rect width="144" height="144" style="fill:none"/></svg>