<svg xmlns="http://www.w3.org/2000/svg" viewBox="0 0 144 144"><path d="M105,41.6c0-12-10.2-21.8-23-21.4A30.8809,30.8809,0,0,0,54,3C37.5,3,24,15.5,23.1,31.2,12.7,29.1,3,36.7,3,46.9,3,63.2,20.7,63,20.7,63H85S105,60.5,105,41.6Z" style="fill:none;stroke:#000;stroke-linejoin:round;stroke-width:6px"/><rect x="3" y="81" width="102" height="30" style="fill:none;stroke:#000;stroke-linejoin:round;stroke-width:6px"/><rect x="3" y="111" width="102" height="30" style="fill:none;stroke:#000;stroke-linejoin:round;stroke-width:6px"/><circle cx="24" cy="96" r="6" style="fill:none;stroke:#000;stroke-linejoin:round;stroke-width:6px"/><circle cx="84" cy="96" r="3" style="fill:none;stroke:#000;stroke-linejoin:round;stroke-width:6px"/><circle cx="66" cy="96" r="3" style="fill:none;stroke:#000;stroke-linejoin:round;stroke-width:6px"/><circle cx="24" cy="126" r="6" style="fill:none;stroke:#000;stroke-linejoin:round;stroke-width:6px"/><circle cx="84" cy="126" r="3" style="fill:none;stroke:#000;stroke-linejoin:round;stroke-width:6px"/><circle cx="66" cy="126" r="3" style="fill:none;stroke:#000;stroke-linejoin:round;stroke-width:6px"/><rect width="144" height="144" style="fill:none"/></svg>