<svg xmlns="http://www.w3.org/2000/svg" viewBox="0 0 144 144"><path d="M115.2,90S141,87.2,141,61.9a28.4383,28.4383,0,0,0-29.7-28.4,40.2207,40.2207,0,0,0-76.4,15C21.6,45.7,9,55.4,9,69,9,83.5,19.1,88,25.9,89.4" style="fill:none;stroke:#000;stroke-linecap:round;stroke-linejoin:round;stroke-width:6px"/><path d="M93,87a6.0176,6.0176,0,0,0-6-6H63a6.0176,6.0176,0,0,0-6,6v48a6.0176,6.0176,0,0,0,6,6H87a6.0176,6.0176,0,0,0,6-6Z" style="fill:none;stroke:#000;stroke-linecap:round;stroke-linejoin:round;stroke-width:6px"/><line x1="57" y1="129" x2="93" y2="129" style="fill:none;stroke:#000;stroke-linecap:round;stroke-linejoin:round;stroke-width:6px"/><line x1="75" y1="66" x2="75" y2="33" style="fill:none;stroke:#000;stroke-linecap:round;stroke-linejoin:round;stroke-width:6px"/><polyline points="63 54 75 66 87 54" style="fill:none;stroke:#000;stroke-linecap:round;stroke-linejoin:round;stroke-width:6px"/><rect width="144" height="144" style="fill:none"/></svg>