<svg xmlns="http://www.w3.org/2000/svg" viewBox="0 0 144 144"><path d="M114.9,86.8S141,83.4,141,57a30.0277,30.0277,0,0,0-31.1-30A41.9537,41.9537,0,0,0,30.1,42.5,22.4713,22.4713,0,0,0,3,64.5C3,87.4,26,87,26,87" style="fill:none;stroke:#000;stroke-linejoin:round;stroke-width:6px"/><path d="M129,126a14.98,14.98,0,0,1-15,15H30a14.98,14.98,0,0,1-15-15V111H129Z" style="fill:none;stroke:#000;stroke-linecap:round;stroke-linejoin:round;stroke-width:6px"/><path d="M15,111,29,80.4A10.1851,10.1851,0,0,1,37.5,75H102a11.3438,11.3438,0,0,1,9,5.2L129,111Z" style="fill:none;stroke:#000;stroke-linecap:round;stroke-linejoin:round;stroke-width:6px"/><line x1="90" y1="129" x2="108" y2="129" style="fill:none;stroke:#000;stroke-linecap:round;stroke-linejoin:round;stroke-width:6px"/><rect width="144" height="144" style="fill:none"/></svg>