<svg xmlns="http://www.w3.org/2000/svg" viewBox="0 0 144 144"><path d="M141,105a29.8857,29.8857,0,0,0-31.1-29.9A41.9238,41.9238,0,0,0,30.1,90.5,22.4713,22.4713,0,0,0,3,112.5C3,135.4,27,135,27,135h87S141,131.5,141,105Z" transform="translate(0)" style="fill:none;stroke:#000;stroke-linejoin:round;stroke-width:6px"/><path d="M97.7,17.6a50.8634,50.8634,0,0,0-56.6,0" transform="translate(0)" style="fill:none;stroke:#000;stroke-linecap:round;stroke-linejoin:round;stroke-width:6px"/><path d="M91,27.6a38.6455,38.6455,0,0,0-43.2,0" transform="translate(0)" style="fill:none;stroke:#000;stroke-linecap:round;stroke-linejoin:round;stroke-width:6px"/><path d="M84.4,37.5a26.5233,26.5233,0,0,0-15-4.5,27.57,27.57,0,0,0-15,4.5" transform="translate(0)" style="fill:none;stroke:#000;stroke-linecap:round;stroke-linejoin:round;stroke-width:6px"/><rect width="144" height="144" style="fill:none"/></svg>