<svg xmlns="http://www.w3.org/2000/svg" viewBox="0 0 144 144"><path d="M115.2,90S141,87.2,141,61.9a28.4383,28.4383,0,0,0-29.7-28.4,40.2207,40.2207,0,0,0-76.4,15C21.6,45.7,9,55.4,9,69,9,83.5,19.1,88,25.9,89.4" style="fill:none;stroke:#000;stroke-linecap:round;stroke-linejoin:round;stroke-width:6px"/><path d="M57,126a9.2957,9.2957,0,0,1-9,9,9,9,0,0,1,0-18h9Z" style="fill:none;stroke:#000;stroke-linejoin:round;stroke-width:6px"/><path d="M93,108a9.2957,9.2957,0,0,1-9,9,9,9,0,0,1,0-18h9Z" style="fill:none;stroke:#000;stroke-linejoin:round;stroke-width:6px"/><polyline points="57 117 57 79.7 93 63 93 99" style="fill:none;stroke:#000;stroke-linejoin:round;stroke-width:6px"/><rect width="144" height="144" style="fill:none"/></svg>