<svg xmlns="http://www.w3.org/2000/svg" viewBox="0 0 144 144"><path d="M15,120a14.98,14.98,0,0,1,15-15h84a15,15,0,0,1,0,30H30A14.98,14.98,0,0,1,15,120Z" style="fill:none;stroke:#000;stroke-linejoin:round;stroke-width:6px"/><line x1="19.7" y1="130.9" x2="45.4" y2="105.2" style="fill:none;stroke:#000;stroke-linejoin:round;stroke-width:6px"/><line x1="33.6" y1="135" x2="63.4" y2="105.2" style="fill:none;stroke:#000;stroke-linejoin:round;stroke-width:6px"/><line x1="51.6" y1="135" x2="81.4" y2="105.2" style="fill:none;stroke:#000;stroke-linejoin:round;stroke-width:6px"/><line x1="69.6" y1="135" x2="99.4" y2="105.2" style="fill:none;stroke:#000;stroke-linejoin:round;stroke-width:6px"/><line x1="87.6" y1="135" x2="117.2" y2="105.3" style="fill:none;stroke:#000;stroke-linejoin:round;stroke-width:6px"/><line x1="105.6" y1="135" x2="127.4" y2="113.2" style="fill:none;stroke:#000;stroke-linejoin:round;stroke-width:6px"/><path d="M141,57a29.8857,29.8857,0,0,0-31.1-29.9A41.9238,41.9238,0,0,0,30.1,42.5,22.4713,22.4713,0,0,0,3,64.5C3,87.4,27,87,27,87h87S141,83.5,141,57Z" style="fill:none;stroke:#000;stroke-linejoin:round;stroke-width:6px"/><rect width="144" height="144" style="fill:none"/></svg>