<svg xmlns="http://www.w3.org/2000/svg" viewBox="0 0 144 144"><line x1="30" y1="141" x2="72" y2="141" style="fill:none;stroke:#000;stroke-linecap:round;stroke-linejoin:round;stroke-width:6px"/><line x1="51" y1="129" x2="51" y2="141" style="fill:none;stroke:#000;stroke-linecap:round;stroke-linejoin:round;stroke-width:6px"/><line x1="3" y1="117" x2="99" y2="117" style="fill:none;stroke:#000;stroke-linejoin:round;stroke-width:6px"/><path d="M124.6,57.1S141,55,141,38.8a18.1792,18.1792,0,0,0-18.9-18.2A25.5579,25.5579,0,0,0,73.5,30,13.6812,13.6812,0,0,0,57,43.4c0,13.9,14.6,13.7,14.6,13.7Z" style="fill:none;stroke:#000;stroke-linecap:round;stroke-linejoin:round;stroke-width:6px"/><path d="M99,72v47.5a9.2077,9.2077,0,0,1-9,9.5H12a9.2706,9.2706,0,0,1-9-9.5V66a8.9626,8.9626,0,0,1,9-9H42" style="fill:none;stroke:#000;stroke-linecap:round;stroke-linejoin:round;stroke-width:6px"/><line x1="51" y1="78" x2="51" y2="105" style="fill:none;stroke:#000;stroke-linecap:round;stroke-linejoin:round;stroke-width:6px"/><polyline points="39 90 51 78 63 90" style="fill:none;stroke:#000;stroke-linecap:round;stroke-linejoin:round;stroke-width:6px"/><rect width="144" height="144" style="fill:none"/></svg>