<svg xmlns="http://www.w3.org/2000/svg" viewBox="0 0 144 144"><path d="M69,73.7h0c-4.7,6-13.5,8.6-24,1.3v35.5s3.5,12.7,24,18.5c20.5-5.7,24-18.5,24-18.5V75C82.7,82.2,73.8,79.8,69,73.7Z" style="fill:none;stroke:#000;stroke-linecap:round;stroke-linejoin:round;stroke-width:6px"/><line x1="69" y1="111" x2="69" y2="87" style="fill:none;stroke:#000;stroke-linecap:round;stroke-linejoin:round;stroke-width:6px"/><line x1="57" y1="99" x2="81" y2="99" style="fill:none;stroke:#000;stroke-linecap:round;stroke-linejoin:round;stroke-width:6px"/><path d="M115.2,94.3S141,91.5,141,66.2a28.4383,28.4383,0,0,0-29.7-28.4,40.2207,40.2207,0,0,0-76.4,15C21.6,50,9,59.7,9,73.4c0,14.5,10.1,19,16.9,20.4" style="fill:none;stroke:#000;stroke-linecap:round;stroke-linejoin:round;stroke-width:6px"/><rect width="144" height="144" style="fill:none"/></svg>