<svg xmlns="http://www.w3.org/2000/svg" viewBox="0 0 144.0004 144"><polygon points="72 72 81 93 102 93 84 108 93 132 72 117 51 132 60 108 42 93 63 93 72 72" style="fill:none;stroke:#000;stroke-linejoin:round;stroke-width:6px"/><path d="M115.2,98.3S141,94.9,141,69.6a28.4812,28.4812,0,0,0-28.3361-28.6257q-.6822-.0035-1.3639.0257A40.16,40.16,0,0,0,34.9,55.8,21.51,21.51,0,0,0,9,76.8c0,18,15.5,20.9,21,21.4" style="fill:none;stroke:#000;stroke-linecap:round;stroke-linejoin:round;stroke-width:6px"/><rect width="144" height="144" style="fill:none"/></svg>