<svg xmlns="http://www.w3.org/2000/svg" viewBox="0 0 144 144"><path d="M126,80.3c7.1-3.7,15-11,15-25a28.6,28.6,0,0,0-29.7-28.6A40.16,40.16,0,0,0,34.9,41.5,21.4115,21.4115,0,0,0,9,62.5C9,84.3,32,84,32,84" style="fill:none;stroke:#000;stroke-linecap:round;stroke-linejoin:round;stroke-width:6px"/><circle cx="78" cy="87" r="12" style="fill:none;stroke:#000;stroke-linejoin:round;stroke-width:6px"/><path d="M63,69l6-9H87l6,9h9a9.0264,9.0264,0,0,1,9,9v24a8.9626,8.9626,0,0,1-9,9H54a9.0264,9.0264,0,0,1-9-9V78a9.0919,9.0919,0,0,1,9-9Z" style="fill:none;stroke:#000;stroke-linecap:round;stroke-linejoin:round;stroke-width:6px"/><rect width="144" height="144" style="fill:none"/></svg>