<svg xmlns="http://www.w3.org/2000/svg" viewBox="0 0 144 144"><polyline points="27 81 39 69 51 81" style="fill:none;stroke:#000;stroke-linecap:round;stroke-linejoin:round;stroke-width:6px"/><polyline points="81 111 81 141 123 141 123 111" style="fill:none;stroke:#000;stroke-linecap:round;stroke-linejoin:round;stroke-width:6px"/><polyline points="63 108 102 75 141 108" style="fill:none;stroke:#000;stroke-linecap:round;stroke-linejoin:round;stroke-width:6px"/><polyline points="120 75 135 75 135 90" style="fill:none;stroke:#000;stroke-linecap:round;stroke-linejoin:round;stroke-width:6px"/><rect x="93" y="117" width="18" height="24" style="fill:none;stroke:#000;stroke-linecap:round;stroke-linejoin:round;stroke-width:6px"/><path d="M65,57h5.6S87,54.9,87,38.7A18.1792,18.1792,0,0,0,68.1,20.5a25.5579,25.5579,0,0,0-48.6,9.4A13.6812,13.6812,0,0,0,3,43.3C3,57.2,17.6,57,17.6,57H65Z" style="fill:none;stroke:#000;stroke-linecap:round;stroke-linejoin:round;stroke-width:6px"/><polyline points="39 69 39 129 66 129" style="fill:none;stroke:#000;stroke-linecap:round;stroke-linejoin:round;stroke-width:6px"/><rect width="144" height="144" style="fill:none"/></svg>