<svg xmlns="http://www.w3.org/2000/svg" viewBox="0 0 144 144"><path d="M117,98c5.9-1.3,24-7.1,24-28.4A28.6019,28.6019,0,0,0,111.3,41,40.0967,40.0967,0,0,0,35,55.8a21.552,21.552,0,0,0-26,21C9,98.7,32,98.3,32,98.3" style="fill:none;stroke:#000;stroke-linecap:round;stroke-linejoin:round;stroke-width:6px"/><circle cx="75" cy="99" r="30" style="fill:none;stroke:#000;stroke-linejoin:round;stroke-width:6px"/><path d="M68,105.6a7,7,0,0,0,14,0,6.9358,6.9358,0,0,0-7-6.9,7,7,0,1,1,7-7" style="fill:none;stroke:#000;stroke-linecap:round;stroke-linejoin:round;stroke-width:6px"/><line x1="75" y1="112.6" x2="75" y2="117.2" style="fill:none;stroke:#000;stroke-linecap:round;stroke-linejoin:round;stroke-width:6px"/><line x1="75" y1="80.1" x2="75" y2="84.7" style="fill:none;stroke:#000;stroke-linecap:round;stroke-linejoin:round;stroke-width:6px"/><rect width="144" height="144" style="fill:none"/></svg>