<svg xmlns="http://www.w3.org/2000/svg" viewBox="0 0 144 144"><path d="M126.9,69A17.8265,17.8265,0,0,0,135,54c0-9.9-12-18-24-18-6,0-16.5,8.2-25.5,16.5C93.8,43.5,102,33,102,27c0-12-8.1-24-18-24a17.8265,17.8265,0,0,0-15,8.1A17.8265,17.8265,0,0,0,54,3C44.1,3,36,15,36,27c0,6,8.2,16.5,16.5,25.5C43.5,44.2,33,36,27,36,15,36,3,44.1,3,54a17.8265,17.8265,0,0,0,8.1,15A17.8265,17.8265,0,0,0,3,84c0,9.9,12,18,24,18S69,87,69,87s30,15,42,15,24-8.1,24-18A17.8265,17.8265,0,0,0,126.9,69Z" style="fill:none;stroke:#000;stroke-linecap:round;stroke-linejoin:round;stroke-width:6px"/><path d="M69,87v42c0,6.6,4.1,12,9,12h9" style="fill:none;stroke:#000;stroke-linecap:round;stroke-linejoin:round;stroke-width:6px"/><rect width="144" height="144" style="fill:none"/></svg>