<svg xmlns="http://www.w3.org/2000/svg" viewBox="0 0 144 144.1"><circle cx="72" cy="72" r="45" style="fill:none;stroke:#000;stroke-linejoin:round;stroke-width:6px"/><path d="M105,72a33,33,0,0,1-66,0" style="fill:none;stroke:#000;stroke-linecap:round;stroke-linejoin:round;stroke-width:6px"/><polyline points="43.7 107 12 129 48 129 72 141.1 96 129 132 129 100.7 107" style="fill:none;stroke:#000;stroke-linejoin:round;stroke-width:6px"/><line x1="30" y1="27" x2="114" y2="27" style="fill:none;stroke:#000;stroke-linecap:round;stroke-linejoin:round;stroke-width:6px"/><path d="M93,15A12.0353,12.0353,0,0,0,81,3H63A12.0353,12.0353,0,0,0,51,15V27H93Z" style="fill:none;stroke:#000;stroke-linejoin:round;stroke-width:6px"/><circle cx="71.9" cy="81" r="12" style="fill:none;stroke:#000;stroke-linejoin:round;stroke-width:6px"/><line x1="48" y1="51" x2="66" y2="51" style="fill:none;stroke:#000;stroke-linejoin:round;stroke-width:6px"/><line x1="57" y1="42" x2="57" y2="60" style="fill:none;stroke:#000;stroke-linejoin:round;stroke-width:6px"/><line x1="78" y1="51" x2="96" y2="51" style="fill:none;stroke:#000;stroke-linejoin:round;stroke-width:6px"/><line x1="87" y1="42" x2="87" y2="60" style="fill:none;stroke:#000;stroke-linejoin:round;stroke-width:6px"/><polyline points="113.4 54.3 134.7 47.9 132 60 140.7 69.1 132 78 134.7 90 115.3 84.4" style="fill:none;stroke:#000;stroke-linejoin:round;stroke-width:6px"/><polyline points="30.7 54.2 9.3 47.9 12 60 3.3 69.1 12 78 9.3 90 28.7 84.4" style="fill:none;stroke:#000;stroke-linejoin:round;stroke-width:6px"/><rect width="144" height="144" style="fill:none"/></svg>