<svg xmlns="http://www.w3.org/2000/svg" viewBox="0 0 144 144"><polygon points="90 141 48 141 33 57 105 57 90 141" style="fill:none;stroke:#000;stroke-linejoin:round;stroke-width:6px"/><path d="M75,9H63a6.0176,6.0176,0,0,0-6,6V27H81V15A6.0176,6.0176,0,0,0,75,9Z" style="fill:none;stroke:#000;stroke-linejoin:round;stroke-width:6px"/><path d="M82.6,27H55.4a12.0534,12.0534,0,0,0-10.7,6.6L33,57h72L93.3,33.6A12.0534,12.0534,0,0,0,82.6,27Z" style="fill:none;stroke:#000;stroke-linejoin:round;stroke-width:6px"/><line x1="55.5" y1="117" x2="57" y2="126" style="fill:none;stroke:#000;stroke-linecap:round;stroke-linejoin:round;stroke-width:6px"/><line x1="48" y1="72" x2="54" y2="107.8" style="fill:none;stroke:#000;stroke-linecap:round;stroke-linejoin:round;stroke-width:6px"/><rect width="144" height="144" style="fill:none"/></svg>