<svg xmlns="http://www.w3.org/2000/svg" viewBox="0 0 144 144"><path d="M87,72a29.8817,29.8817,0,0,1-21-8.6,29.8276,29.8276,0,0,1-41.6.3A50.4108,50.4108,0,0,0,15,93c0,22.2,19.3,41,39,48H78c19.7-7,39-25.8,39-48a50.4108,50.4108,0,0,0-9.4-29.3A29.7118,29.7118,0,0,1,87,72Z" style="fill:none;stroke:#000;stroke-linecap:round;stroke-linejoin:round;stroke-width:6px"/><path d="M54,45,39.4,20a11.9005,11.9005,0,0,0-17-3.9L6,27" style="fill:none;stroke:#000;stroke-linecap:round;stroke-linejoin:round;stroke-width:6px"/><polyline points="77.3 45 36 45 24.4 63.7" style="fill:none;stroke:#000;stroke-linecap:round;stroke-linejoin:round;stroke-width:6px"/><path d="M121.7,25.4c-2.8-4.7-9.4-5.8-14.7-2.6a8.6219,8.6219,0,0,0-1.8,1.4,13.4486,13.4486,0,0,0,.5-3.5c0-6.2-4.4-11.2-9.9-11.2s-9.9,5-9.9,11.2a11.4185,11.4185,0,0,0,.5,3.3c-.5-.4-1-.8-1.6-1.2-5.3-3.2-11.8-2-14.7,2.6-2.8,4.7-.8,11,4.5,14.2a12.3077,12.3077,0,0,0,5.8,1.8,12.667,12.667,0,0,0-1.3,1.1c-4.4,4.4-4.8,11-.9,14.9,3.9,3.8,10.5,3.4,14.9-.9A12.7133,12.7133,0,0,0,96,51.9a11.2394,11.2394,0,0,0,2.9,4.6c4.4,4.4,11,4.8,14.9.9,3.8-3.8,3.4-10.5-.9-14.9a12.667,12.667,0,0,0-1.3-1.1,11.88,11.88,0,0,0,5.8-1.8C122.5,36.4,124.5,30.1,121.7,25.4Z" style="fill:none;stroke:#000;stroke-linejoin:round;stroke-width:6px"/><circle cx="96" cy="36.1" r="8.9" style="fill:none;stroke:#000;stroke-linejoin:round;stroke-width:6px"/><rect width="144" height="144" style="fill:none"/></svg>