<svg xmlns="http://www.w3.org/2000/svg" viewBox="0 0 144 144"><path d="M94.9,51a56.9114,56.9114,0,0,1,15.3,72H9.8A56.9075,56.9075,0,0,1,3,96,55.7787,55.7787,0,0,1,14.2,62.2L9,51Z" style="fill:none;stroke:#000;stroke-linecap:round;stroke-linejoin:round;stroke-width:6px"/><path d="M21,39h93a75.6963,75.6963,0,0,1,20.6,33.4,18.0438,18.0438,0,0,1-2.9,16.2A18.2361,18.2361,0,0,1,117,96" style="fill:none;stroke:#000;stroke-linecap:round;stroke-linejoin:round;stroke-width:6px"/><line x1="93" y1="39" x2="105" y2="27" style="fill:none;stroke:#000;stroke-linecap:round;stroke-linejoin:round;stroke-width:6px"/><line x1="7" y1="75" x2="112.9" y2="75" style="fill:none;stroke:#000;stroke-linejoin:round;stroke-width:6px"/><rect width="144" height="144" style="fill:none"/></svg>