<svg xmlns="http://www.w3.org/2000/svg" viewBox="0 0 144 144"><path d="M98.5,28.5c-4.4-2.7-12.3-4.8-17.5-6V3H63V22.5c-5.2,1.2-13.1,3.3-17.5,6L31.7,14.7l-17,17L28.5,45.5c-2.7,4.4-4.8,12.3-6,17.5H3V81H22.5c1.3,5.2,3.3,13.1,6,17.5L14.7,112.3l17,17,13.8-13.8c4.4,2.7,12.3,4.8,17.5,6V141H81V121.5c5.2-1.3,13.1-3.3,17.5-6l13.8,13.8,17-17L115.5,98.5c2.7-4.4,4.8-12.3,6-17.5H141V63H121.5c-.7-3-1.7-6.9-2.9-10.5" style="fill:none;stroke:#000;stroke-linecap:round;stroke-linejoin:round;stroke-width:6px"/><polyline points="141 3 72 87 48 60" style="fill:none;stroke:#000;stroke-linecap:round;stroke-linejoin:round;stroke-width:6px"/><rect width="144" height="144" style="fill:none"/></svg>