<svg xmlns="http://www.w3.org/2000/svg" viewBox="0 0 144 144"><path d="M141,117a23.9424,23.9424,0,0,1-24,24H27A23.9424,23.9424,0,0,1,3,117V27A23.9424,23.9424,0,0,1,27,3h90a23.9424,23.9424,0,0,1,24,24Z" style="fill:none;stroke:#000;stroke-linecap:round;stroke-linejoin:round;stroke-width:6px"/><circle cx="72" cy="75" r="15" style="fill:none;stroke:#000;stroke-miterlimit:10;stroke-width:6px"/><path d="M104.3,68.5l9.3-5.4L103.1,44.9l-9.3,5.4a33.9216,33.9216,0,0,0-11.3-6.6V33h-21V43.8a32.4721,32.4721,0,0,0-11.3,6.5l-9.3-5.4L30.4,63.1l9.3,5.4a32.108,32.108,0,0,0,0,13.1L30.4,87l10.5,18.2,9.3-5.4a34.6406,34.6406,0,0,0,11.3,6.6V117h21V106.2a32.4721,32.4721,0,0,0,11.3-6.5l9.3,5.4,10.5-18.2-9.3-5.4A31.63,31.63,0,0,0,104.3,68.5Z" style="fill:none;stroke:#000;stroke-linecap:round;stroke-linejoin:round;stroke-width:6px"/><rect width="144" height="144" style="fill:none"/></svg>