<svg xmlns="http://www.w3.org/2000/svg" viewBox="0 0 144 144"><path d="M98.5,115.5l13.8,13.8,17-17L115.5,98.5c2.7-4.4,4.8-12.3,6-17.5H141V63H121.5c-1.3-5.2-3.3-13.1-6-17.5l13.8-13.8-17-17L98.5,28.5c-4.4-2.7-12.3-4.8-17.5-6V3H63V22.5c-5.2,1.2-13.1,3.3-17.5,6L31.7,14.7l-17,17L28.5,45.5c-2.7,4.4-4.8,12.3-6,17.5H3V81H22.5c1.3,5.2,3.3,13.1,6,17.5L14.7,112.3l17,17,13.8-13.8" style="fill:none;stroke:#000;stroke-linecap:round;stroke-linejoin:round;stroke-width:6px"/><line x1="63" y1="123" x2="81" y2="123" style="fill:none;stroke:#000;stroke-linecap:round;stroke-linejoin:round;stroke-width:6px"/><line x1="63" y1="135" x2="81" y2="135" style="fill:none;stroke:#000;stroke-linecap:round;stroke-linejoin:round;stroke-width:6px"/><line x1="72" y1="135" x2="72" y2="141" style="fill:none;stroke:#000;stroke-linecap:round;stroke-linejoin:round;stroke-width:6px"/><path d="M107.2,72.3C107.2,53.9,91.4,39,72,39,52.5,39,36.8,53.9,36.8,72.3c0,15.1,11.5,27.9,26.2,31.9V111H81v-6.8C95.7,100.2,107.2,87.4,107.2,72.3Z" style="fill:none;stroke:#000;stroke-linecap:round;stroke-linejoin:round;stroke-width:6px"/><rect width="144" height="144" style="fill:none"/></svg>