<svg xmlns="http://www.w3.org/2000/svg" viewBox="0 0 144 144"><path d="M111,81V70.6c6-1.3,8.4-3.6,11.6-6.5l9.4,5.2,9-15.6-9-5.2a29.99,29.99,0,0,0,0-13l9-5.2-9.1-15.6-9.2,5.2c-3.2-2.9-5.6-5.2-11.6-6.5V3H93V13.4c-6,1.3-8.4,3.6-11.6,6.5l-9.2-5.2L63.1,30.3l9,5.2a29.9967,29.9967,0,0,0,0,13l-9,5.2,9,15.6,9.4-5.2C84.6,67,87,69.3,93,70.6V81Z" style="fill:none;stroke:#000;stroke-linejoin:round;stroke-width:6px"/><path d="M51,141V130.6c6-1.3,8.4-3.6,11.6-6.5l9.4,5.2,9-15.6-9-5.2a29.99,29.99,0,0,0,0-13l9-5.2L71.9,74.7l-9.2,5.2C59.4,77,57,74.7,51,73.4V63H33V73.4c-6,1.3-8.4,3.6-11.6,6.5l-9.2-5.2L3.1,90.3l9,5.2a29.9967,29.9967,0,0,0,0,13l-9,5.2,9,15.6,9.4-5.2c3.2,2.9,5.6,5.2,11.6,6.5V141Z" style="fill:none;stroke:#000;stroke-linejoin:round;stroke-width:6px"/><circle cx="102" cy="42" r="12" style="fill:none;stroke:#000;stroke-linejoin:round;stroke-width:6px"/><circle cx="42" cy="102" r="12" style="fill:none;stroke:#000;stroke-linejoin:round;stroke-width:6px"/><rect width="144" height="144" style="fill:none"/></svg>