<svg xmlns="http://www.w3.org/2000/svg" viewBox="0 0 144 144"><circle cx="63" cy="63" r="60" style="fill:none;stroke:#000;stroke-linecap:round;stroke-linejoin:round;stroke-width:6px"/><line x1="105.4" y1="105.4" x2="141" y2="141" style="fill:none;stroke:#000;stroke-linecap:round;stroke-linejoin:round;stroke-width:6px"/><path d="M92.2,56.6l9.1-5.3-9-15.6-9.1,5.2A29.9745,29.9745,0,0,0,72,34.3V24H54V34.4a30.7957,30.7957,0,0,0-11.2,6.5l-9.1-5.3-9,15.6,9.1,5.3a29.5471,29.5471,0,0,0,0,12.9l-9.1,5.3,9,15.6,9.1-5.2A29.9745,29.9745,0,0,0,54,91.7V102H72V91.6a30.7957,30.7957,0,0,0,11.2-6.5l9.1,5.2,9-15.6-9.1-5.3A30.6742,30.6742,0,0,0,92.2,56.6Z" style="fill:none;stroke:#000;stroke-linecap:round;stroke-linejoin:round;stroke-width:6px"/><circle cx="63" cy="63" r="12" style="fill:none;stroke:#000;stroke-miterlimit:10;stroke-width:6px"/><rect width="144" height="144" style="fill:none"/></svg>