<svg xmlns="http://www.w3.org/2000/svg" viewBox="0 0 144 144"><circle cx="51" cy="93" r="18" style="fill:none;stroke:#000;stroke-linejoin:round;stroke-width:6px"/><path d="M89.1,84.9l9.5-5.5-12-20.8-9.4,5.5A39.0493,39.0493,0,0,0,63.1,56V45H39V55.9A37.2459,37.2459,0,0,0,24.9,64l-9.4-5.5L3.5,79.3,13,84.8a38.9243,38.9243,0,0,0,0,16.3l-9.5,5.5,12,20.8,9.4-5.5A39.0493,39.0493,0,0,0,39,130v11H63V130.1A37.2459,37.2459,0,0,0,77.1,122l9.4,5.4,12-20.8L89,101.1A36.8681,36.8681,0,0,0,89.1,84.9Z" style="fill:none;stroke:#000;stroke-linejoin:round;stroke-width:6px"/><circle cx="114" cy="30" r="9" style="fill:none;stroke:#000;stroke-linejoin:round;stroke-width:6px"/><path d="M134.3,25.2l6-3.5-6-10.4-6,3.5A21.0466,21.0466,0,0,0,120,9.9V3H108V9.9a21.4146,21.4146,0,0,0-8.4,4.8l-6-3.5-6,10.4,6,3.5a21.1853,21.1853,0,0,0,0,9.7l-6,3.5,6,10.4,6-3.5a20.7452,20.7452,0,0,0,8.4,4.9V57h12V50.1a21.4146,21.4146,0,0,0,8.4-4.8l6,3.5,6-10.4-6-3.5A21.1412,21.1412,0,0,0,134.3,25.2Z" style="fill:none;stroke:#000;stroke-linejoin:round;stroke-width:6px"/><rect width="144" height="144" style="fill:none"/></svg>