<svg xmlns="http://www.w3.org/2000/svg" viewBox="0 0 144 144"><ellipse cx="48" cy="15" rx="45" ry="12" style="fill:none;stroke:#000;stroke-linecap:round;stroke-linejoin:round;stroke-width:6px"/><path d="M93,15V33c0,6.6-20.1,12-45,12S3,39.6,3,33V15" style="fill:none;stroke:#000;stroke-linecap:round;stroke-linejoin:round;stroke-width:6px"/><path d="M93,33V51c0,6.6-20.1,12-45,12S3,57.6,3,51V33" style="fill:none;stroke:#000;stroke-linecap:round;stroke-linejoin:round;stroke-width:6px"/><ellipse cx="96" cy="93" rx="45" ry="12" style="fill:none;stroke:#000;stroke-linecap:round;stroke-linejoin:round;stroke-width:6px"/><path d="M141,93v18c0,6.6-20.1,12-45,12s-45-5.4-45-12V93" style="fill:none;stroke:#000;stroke-linecap:round;stroke-linejoin:round;stroke-width:6px"/><path d="M141,111v18c0,6.6-20.1,12-45,12s-45-5.4-45-12V111" style="fill:none;stroke:#000;stroke-linecap:round;stroke-linejoin:round;stroke-width:6px"/><path d="M93,51V69c0,6.6-20.1,12-45,12S3,75.6,3,69V51" style="fill:none;stroke:#000;stroke-linecap:round;stroke-linejoin:round;stroke-width:6px"/><path d="M3,69V87c0,6.6,20.1,12,45,12h3" style="fill:none;stroke:#000;stroke-linecap:round;stroke-linejoin:round;stroke-width:6px"/><path d="M3,87v18c0,6.6,20.1,12,45,12h3" style="fill:none;stroke:#000;stroke-linecap:round;stroke-linejoin:round;stroke-width:6px"/><line x1="93" y1="69" x2="93" y2="81" style="fill:none;stroke:#000;stroke-linecap:round;stroke-linejoin:round;stroke-width:6px"/><rect width="144" height="144" style="fill:none"/></svg>