<svg xmlns="http://www.w3.org/2000/svg" viewBox="0 0 144 144"><path d="M120,75,66,21,15,72a12.0107,12.0107,0,0,0,0,17l28,28a12.0107,12.0107,0,0,0,17,0l42-42Z" style="fill:none;stroke:#000;stroke-linecap:round;stroke-linejoin:round;stroke-width:6px"/><path d="M63,63V15A12.0353,12.0353,0,0,0,51,3h0A12.0353,12.0353,0,0,0,39,15V48.1" style="fill:none;stroke:#000;stroke-linecap:round;stroke-linejoin:round;stroke-width:6px"/><path d="M141,126a15,15,0,0,1-30,0c0-8.3,15-33,15-33S141,117.7,141,126Z" style="fill:none;stroke:#000;stroke-linecap:round;stroke-linejoin:round;stroke-width:6px"/><rect width="144" height="144" style="fill:none"/></svg>