<svg xmlns="http://www.w3.org/2000/svg" viewBox="0 0 144 144"><rect x="27" y="3" width="90" height="30" style="fill:none;stroke:#000;stroke-linejoin:round;stroke-width:6px"/><path d="M111,141a18.0529,18.0529,0,0,0,18-18V75c0-21-24-30-24-30V33H39V45S15,54,15,75v48a18.0529,18.0529,0,0,0,18,18Z" style="fill:none;stroke:#000;stroke-linecap:round;stroke-linejoin:round;stroke-width:6px"/><line x1="45" y1="3" x2="45" y2="33" style="fill:none;stroke:#000;stroke-linecap:round;stroke-linejoin:round;stroke-width:6px"/><line x1="81" y1="3" x2="81" y2="33" style="fill:none;stroke:#000;stroke-linecap:round;stroke-linejoin:round;stroke-width:6px"/><line x1="63" y1="3" x2="63" y2="33" style="fill:none;stroke:#000;stroke-linecap:round;stroke-linejoin:round;stroke-width:6px"/><line x1="99" y1="3" x2="99" y2="33" style="fill:none;stroke:#000;stroke-linecap:round;stroke-linejoin:round;stroke-width:6px"/><rect x="15" y="75" width="114" height="36" style="fill:none;stroke:#000;stroke-linecap:round;stroke-linejoin:round;stroke-width:6px"/><line x1="42" y1="93" x2="102" y2="93" style="fill:none;stroke:#000;stroke-linecap:round;stroke-linejoin:round;stroke-width:6px"/><rect width="144" height="144" style="fill:none"/></svg>