<svg xmlns="http://www.w3.org/2000/svg" viewBox="0 0 144 144"><rect x="15" y="15" width="24" height="24" style="fill:none;stroke:#000;stroke-linejoin:round;stroke-width:6px"/><rect x="15" y="51" width="24" height="24" style="fill:none;stroke:#000;stroke-linejoin:round;stroke-width:6px"/><rect x="15" y="87" width="24" height="24" style="fill:none;stroke:#000;stroke-linejoin:round;stroke-width:6px"/><circle cx="27" cy="126" r="6" style="fill:none;stroke:#000;stroke-linejoin:round;stroke-width:6px"/><path d="M48.6,139.9l74.8-86.3a6.0223,6.0223,0,0,0-.6-8.5L95.5,21.7a5.7072,5.7072,0,0,0-4.4-1.4" style="fill:none;stroke:#000;stroke-linecap:round;stroke-linejoin:round;stroke-width:6px"/><path d="M51,135a6.0176,6.0176,0,0,1-6,6H9a6.0176,6.0176,0,0,1-6-6V9A6.0176,6.0176,0,0,1,9,3H45a6.0176,6.0176,0,0,1,6,6Z" style="fill:none;stroke:#000;stroke-linejoin:round;stroke-width:6px"/><path d="M51,133.2,91.2,24.8a5.9177,5.9177,0,0,0-3.5-7.7L53.9,4.6a5.6473,5.6473,0,0,0-4.6.2" style="fill:none;stroke:#000;stroke-linecap:round;stroke-linejoin:round;stroke-width:6px"/><rect width="144" height="144" style="fill:none"/></svg>