<svg xmlns="http://www.w3.org/2000/svg" viewBox="0 0 144.0127 144"><line x1="36.9127" y1="83.3" x2="60.0127" y2="59.7" style="fill:none;stroke:#000;stroke-linecap:round;stroke-linejoin:round;stroke-width:6px"/><line x1="45.5127" y1="91.7" x2="68.7127" y2="68.2" style="fill:none;stroke:#000;stroke-linecap:round;stroke-linejoin:round;stroke-width:6px"/><line x1="28.3127" y1="74.9" x2="51.5127" y2="51.4" style="fill:none;stroke:#000;stroke-linecap:round;stroke-linejoin:round;stroke-width:6px"/><line x1="19.8127" y1="66.5" x2="42.8127" y2="42.9" style="fill:none;stroke:#000;stroke-linecap:round;stroke-linejoin:round;stroke-width:6px"/><line x1="54.1127" y1="100.1" x2="77.1127" y2="76.4" style="fill:none;stroke:#000;stroke-linecap:round;stroke-linejoin:round;stroke-width:6px"/><path d="M134.9,116.1a12.1019,12.1019,0,0,1-17,.2l-21.4-21H92.3L73.4,114.6a6.0108,6.0108,0,0,1-8.6-8.4L83.6,87V82.8L36.4,36.6H32.2L13.3,55.9a5.9173,5.9173,0,0,1-8.5.1,6.0052,6.0052,0,0,1-.1-8.5L27.8,24a21.0044,21.0044,0,0,1,29.7-.3l77.2,75.5A11.9816,11.9816,0,0,1,134.9,116.1Z" transform="translate(0.0127)" style="fill:none;stroke:#000;stroke-linecap:round;stroke-linejoin:round;stroke-width:6px"/><rect x="0.0127" width="144" height="144" style="fill:none"/></svg>