<svg xmlns="http://www.w3.org/2000/svg" viewBox="0 0 144 144"><circle cx="108" cy="108" r="33" style="fill:none;stroke:#000;stroke-linejoin:round;stroke-width:6px"/><polyline points="119.3 77 69.8 6.2 67.3 42.6 19.1 23 42.4 67.5 6.2 69.8 77 119.3" style="fill:none;stroke:#000;stroke-linejoin:round;stroke-width:6px"/><line x1="88" y1="64" x2="78" y2="48" style="fill:none;stroke:#000;stroke-linecap:round;stroke-linejoin:round;stroke-width:6px"/><line x1="63.6" y1="87.6" x2="48" y2="78" style="fill:none;stroke:#000;stroke-linecap:round;stroke-linejoin:round;stroke-width:6px"/><line x1="75.6" y1="75.6" x2="60" y2="60" style="fill:none;stroke:#000;stroke-linecap:round;stroke-linejoin:round;stroke-width:6px"/><path d="M131.3,84.7a32.8745,32.8745,0,0,0-10-6.8,17.5021,17.5021,0,0,0,19.6,29A32.5622,32.5622,0,0,0,131.3,84.7Z" style="fill:none;stroke:#000;stroke-linejoin:round;stroke-width:6px"/><path d="M102,120a12.0353,12.0353,0,0,0-12,12,10.571,10.571,0,0,0,.8,4,33.4329,33.4329,0,0,0,19.4,4.8,11.8576,11.8576,0,0,0,3.9-8.8A12.187,12.187,0,0,0,102,120Z" style="fill:none;stroke:#000;stroke-linejoin:round;stroke-width:6px"/><rect width="144" height="144" style="fill:none"/></svg>