<svg xmlns="http://www.w3.org/2000/svg" viewBox="0 0 144 144"><path d="M3,120a21,21,0,0,0,42,0V99H24A20.9974,20.9974,0,0,0,3,120Z" style="fill:none;stroke:#000;stroke-linejoin:round;stroke-width:6px"/><path d="M24,3a21,21,0,0,0,0,42H45V24A20.9974,20.9974,0,0,0,24,3Z" style="fill:none;stroke:#000;stroke-linejoin:round;stroke-width:6px"/><path d="M120,99H99v21a21,21,0,1,0,21-21Z" style="fill:none;stroke:#000;stroke-linejoin:round;stroke-width:6px"/><rect x="45" y="45" width="54" height="54" style="fill:none;stroke:#000;stroke-linejoin:round;stroke-width:6px"/><path d="M141,24a21,21,0,0,0-42,0V45h21A20.9974,20.9974,0,0,0,141,24Z" style="fill:none;stroke:#000;stroke-linejoin:round;stroke-width:6px"/><rect width="144" height="144" style="fill:none"/></svg>