<svg xmlns="http://www.w3.org/2000/svg" viewBox="0 0 144 144"><path d="M141,93a7.3682,7.3682,0,0,1-5.9,7L77.9,110a38.9012,38.9012,0,0,1-11.8,0L8.9,100A7.3682,7.3682,0,0,1,3,93V21a6.0176,6.0176,0,0,1,6-6H135a6.0176,6.0176,0,0,1,6,6Z" style="fill:none;stroke:#000;stroke-linecap:round;stroke-linejoin:round;stroke-width:6px"/><rect x="15" y="27" width="114" height="60" style="fill:none;stroke:#000;stroke-linejoin:round;stroke-width:6px"/><path d="M72,96a3,3,0,1,0,3,3,2.9465,2.9465,0,0,0-3-3Z" style="fill:#000"/><line x1="63" y1="111" x2="63" y2="126" style="fill:none;stroke:#000;stroke-linecap:round;stroke-linejoin:round;stroke-width:6px"/><line x1="81" y1="111" x2="81" y2="126" style="fill:none;stroke:#000;stroke-linecap:round;stroke-linejoin:round;stroke-width:6px"/><path d="M116.5,135c-10.4-5.5-26.5-9-44.5-9s-34,3.5-44.5,9" style="fill:none;stroke:#000;stroke-linecap:round;stroke-linejoin:round;stroke-width:6px"/><rect width="144" height="144" style="fill:none"/></svg>