<svg xmlns="http://www.w3.org/2000/svg" viewBox="0 0 144 144"><path d="M81,99a6.0176,6.0176,0,0,1-6,6H9a6.0176,6.0176,0,0,1-6-6V51a6.0176,6.0176,0,0,1,6-6H75a6.0176,6.0176,0,0,1,6,6Z" style="fill:none;stroke:#000;stroke-linejoin:round;stroke-width:6px"/><rect x="15" y="57" width="54" height="36" style="fill:none;stroke:#000;stroke-linejoin:round;stroke-width:6px"/><line x1="24" y1="123" x2="60" y2="123" style="fill:none;stroke:#000;stroke-linecap:round;stroke-linejoin:round;stroke-width:6px"/><line x1="33" y1="105" x2="33" y2="123" style="fill:none;stroke:#000;stroke-linejoin:round;stroke-width:6px"/><line x1="51" y1="105" x2="51" y2="123" style="fill:none;stroke:#000;stroke-linejoin:round;stroke-width:6px"/><polygon points="141 33 132 21 101.6 21 93 33 93 123 141 123 141 33" style="fill:none;stroke:#000;stroke-linejoin:round;stroke-width:6px"/><rect x="105" y="33" width="24" height="12" style="fill:none;stroke:#000;stroke-linejoin:round;stroke-width:6px"/><circle cx="117" cy="78" r="6" style="fill:none;stroke:#000;stroke-linejoin:round;stroke-width:6px"/><line x1="102" y1="99" x2="132" y2="99" style="fill:none;stroke:#000;stroke-linejoin:round;stroke-width:6px"/><line x1="102" y1="111" x2="132" y2="111" style="fill:none;stroke:#000;stroke-linejoin:round;stroke-width:6px"/><rect width="144" height="144" style="fill:none"/></svg>