<svg xmlns="http://www.w3.org/2000/svg" viewBox="0 0 144 144"><rect x="87" y="123" width="36" height="18" style="fill:none;stroke:#000;stroke-linejoin:round;stroke-width:6px"/><path d="M117,123v-9.2S136.1,94.9,141,90V41.6S126,36.2,126,78L108.2,95.8l4.1-18c2.1-8.6-5.8-12.3-10.1-5.6C98.2,78.4,93,96,93,96v27" style="fill:none;stroke:#000;stroke-linecap:round;stroke-linejoin:round;stroke-width:6px"/><rect x="21" y="123" width="36" height="18" style="fill:none;stroke:#000;stroke-linejoin:round;stroke-width:6px"/><path d="M27,123v-9.2S9,94.9,3,90V41.6S18,36.2,18,78L35.8,95.8l-4.1-18c-2.1-8.6,5.8-12.3,10.1-5.6C45.8,78.4,51,96,51,96v27" style="fill:none;stroke:#000;stroke-linecap:round;stroke-linejoin:round;stroke-width:6px"/><path d="M30,45A12.0353,12.0353,0,0,0,42,57h60a12.0353,12.0353,0,0,0,12-12H30Z" style="fill:none;stroke:#000;stroke-linecap:round;stroke-linejoin:round;stroke-width:6px"/><polyline points="105 45 105 3 39 3 39 45" style="fill:none;stroke:#000;stroke-linecap:round;stroke-linejoin:round;stroke-width:6px"/><rect width="144" height="144" style="fill:none"/></svg>