<svg xmlns="http://www.w3.org/2000/svg" viewBox="0 0 144 144"><path d="M33.5,45A8.8647,8.8647,0,0,1,42,39h90a9.2706,9.2706,0,0,1,9,9.5v70.9a9.2077,9.2077,0,0,1-9,9.5H51" style="fill:none;stroke:#000;stroke-linecap:round;stroke-linejoin:round;stroke-width:6px"/><line x1="60" y1="141" x2="114" y2="141" style="fill:none;stroke:#000;stroke-linecap:round;stroke-linejoin:round;stroke-width:6px"/><line x1="87" y1="129" x2="87" y2="141" style="fill:none;stroke:#000;stroke-linecap:round;stroke-linejoin:round;stroke-width:6px"/><line x1="81" y1="105" x2="141" y2="105" style="fill:none;stroke:#000;stroke-linecap:round;stroke-linejoin:round;stroke-width:6px"/><path d="M21,75V63a6.0176,6.0176,0,0,1,6-6H63a6.0176,6.0176,0,0,1,6,6v48a6.0176,6.0176,0,0,1-6,6H51" style="fill:none;stroke:#000;stroke-linecap:round;stroke-linejoin:round;stroke-width:6px"/><line x1="51" y1="105" x2="69" y2="105" style="fill:none;stroke:#000;stroke-linecap:round;stroke-linejoin:round;stroke-width:6px"/><path d="M39,135a6.0176,6.0176,0,0,1-6,6H9a6.0176,6.0176,0,0,1-6-6V93a6.0176,6.0176,0,0,1,6-6H33a6.0176,6.0176,0,0,1,6,6Z" style="fill:none;stroke:#000;stroke-linecap:round;stroke-linejoin:round;stroke-width:6px"/><line x1="3" y1="129" x2="39" y2="129" style="fill:none;stroke:#000;stroke-linecap:round;stroke-linejoin:round;stroke-width:6px"/><line x1="3" y1="99" x2="39" y2="99" style="fill:none;stroke:#000;stroke-linecap:round;stroke-linejoin:round;stroke-width:6px"/><line x1="21" y1="69" x2="69" y2="69" style="fill:none;stroke:#000;stroke-linecap:round;stroke-linejoin:round;stroke-width:6px"/><rect width="144" height="144" style="fill:none"/></svg>