<svg xmlns="http://www.w3.org/2000/svg" viewBox="0 0 144 144"><path d="M135,101.5a9.2077,9.2077,0,0,1-9,9.5H12a9.2706,9.2706,0,0,1-9-9.5v-89A9.2706,9.2706,0,0,1,12,3H126a9.2706,9.2706,0,0,1,9,9.5Z" style="fill:none;stroke:#000;stroke-linecap:round;stroke-linejoin:round;stroke-width:6px"/><line x1="30" y1="123" x2="108" y2="123" style="fill:none;stroke:#000;stroke-linecap:round;stroke-linejoin:round;stroke-width:6px"/><line x1="69" y1="111" x2="69" y2="123" style="fill:none;stroke:#000;stroke-linecap:round;stroke-linejoin:round;stroke-width:6px"/><circle cx="69" cy="99" r="3" style="fill:none;stroke:#000;stroke-linejoin:round;stroke-width:6px"/><line x1="3" y1="87" x2="135" y2="87" style="fill:none;stroke:#000;stroke-linejoin:round;stroke-width:6px"/><polygon points="36 72 30 72 30 78 36 78 36 72" style="fill:#000"/><polygon points="48 72 42 72 42 78 48 78 48 72" style="fill:#000"/><polygon points="60 72 54 72 54 78 60 78 60 72" style="fill:#000"/><polygon points="72 72 66 72 66 78 72 78 72 72" style="fill:#000"/><polygon points="84 72 78 72 78 78 84 78 84 72" style="fill:#000"/><polygon points="96 72 90 72 90 78 96 78 96 72" style="fill:#000"/><polygon points="108 72 102 72 102 78 108 78 108 72" style="fill:#000"/><polygon points="42 66 36 66 36 72 42 72 42 66" style="fill:#000"/><polygon points="54 66 48 66 48 72 54 72 54 66" style="fill:#000"/><polygon points="66 66 60 66 60 72 66 72 66 66" style="fill:#000"/><polygon points="78 66 72 66 72 72 78 72 78 66" style="fill:#000"/><polygon points="90 66 84 66 84 72 90 72 90 66" style="fill:#000"/><polygon points="102 66 96 66 96 72 102 72 102 66" style="fill:#000"/><polygon points="36 60 30 60 30 66 36 66 36 60" style="fill:#000"/><polygon points="48 60 42 60 42 66 48 66 48 60" style="fill:#000"/><polygon points="60 60 54 60 54 66 60 66 60 60" style="fill:#000"/><polygon points="72 60 66 60 66 66 72 66 72 60" style="fill:#000"/><polygon points="84 60 78 60 78 66 84 66 84 60" style="fill:#000"/><polygon points="96 60 90 60 90 66 96 66 96 60" style="fill:#000"/><polygon points="108 60 102 60 102 66 108 66 108 60" style="fill:#000"/><polygon points="42 54 36 54 36 60 42 60 42 54" style="fill:#000"/><polygon points="54 54 48 54 48 60 54 60 54 54" style="fill:#000"/><polygon points="66 54 60 54 60 60 66 60 66 54" style="fill:#000"/><polygon points="78 54 72 54 72 60 78 60 78 54" style="fill:#000"/><polygon points="90 54 84 54 84 60 90 60 90 54" style="fill:#000"/><polygon points="102 54 96 54 96 60 102 60 102 54" style="fill:#000"/><polygon points="36 48 30 48 30 54 36 54 36 48" style="fill:#000"/><polygon points="48 48 42 48 42 54 48 54 48 48" style="fill:#000"/><polygon points="60 48 54 48 54 54 60 54 60 48" style="fill:#000"/><polygon points="72 48 66 48 66 54 72 54 72 48" style="fill:#000"/><polygon points="84 48 78 48 78 54 84 54 84 48" style="fill:#000"/><polygon points="96 48 90 48 90 54 96 54 96 48" style="fill:#000"/><polygon points="108 48 102 48 102 54 108 54 108 48" style="fill:#000"/><polygon points="42 42 36 42 36 48 42 48 42 42" style="fill:#000"/><polygon points="54 42 48 42 48 48 54 48 54 42" style="fill:#000"/><polygon points="66 42 60 42 60 48 66 48 66 42" style="fill:#000"/><polygon points="78 42 72 42 72 48 78 48 78 42" style="fill:#000"/><polygon points="90 42 84 42 84 48 90 48 90 42" style="fill:#000"/><polygon points="102 42 96 42 96 48 102 48 102 42" style="fill:#000"/><polygon points="36 36 30 36 30 42 36 42 36 36" style="fill:#000"/><polygon points="48 36 42 36 42 42 48 42 48 36" style="fill:#000"/><polygon points="60 36 54 36 54 42 60 42 60 36" style="fill:#000"/><polygon points="72 36 66 36 66 42 72 42 72 36" style="fill:#000"/><polygon points="84 36 78 36 78 42 84 42 84 36" style="fill:#000"/><polygon points="96 36 90 36 90 42 96 42 96 36" style="fill:#000"/><polygon points="108 36 102 36 102 42 108 42 108 36" style="fill:#000"/><polygon points="42 30 36 30 36 36 42 36 42 30" style="fill:#000"/><polygon points="54 30 48 30 48 36 54 36 54 30" style="fill:#000"/><polygon points="66 30 60 30 60 36 66 36 66 30" style="fill:#000"/><polygon points="78 30 72 30 72 36 78 36 78 30" style="fill:#000"/><polygon points="90 30 84 30 84 36 90 36 90 30" style="fill:#000"/><polygon points="102 30 96 30 96 36 102 36 102 30" style="fill:#000"/><polygon points="36 24 30 24 30 30 36 30 36 24" style="fill:#000"/><polygon points="48 24 42 24 42 30 48 30 48 24" style="fill:#000"/><polygon points="60 24 54 24 54 30 60 30 60 24" style="fill:#000"/><polygon points="72 24 66 24 66 30 72 30 72 24" style="fill:#000"/><polygon points="84 24 78 24 78 30 84 30 84 24" style="fill:#000"/><polygon points="96 24 90 24 90 30 96 30 96 24" style="fill:#000"/><polygon points="108 24 102 24 102 30 108 30 108 24" style="fill:#000"/><polygon points="42 18 36 18 36 24 42 24 42 18" style="fill:#000"/><polygon points="54 18 48 18 48 24 54 24 54 18" style="fill:#000"/><polygon points="66 18 60 18 60 24 66 24 66 18" style="fill:#000"/><polygon points="78 18 72 18 72 24 78 24 78 18" style="fill:#000"/><polygon points="90 18 84 18 84 24 90 24 90 18" style="fill:#000"/><polygon points="102 18 96 18 96 24 102 24 102 18" style="fill:#000"/><polygon points="36 12 30 12 30 18 36 18 36 12" style="fill:#000"/><polygon points="48 12 42 12 42 18 48 18 48 12" style="fill:#000"/><polygon points="60 12 54 12 54 18 60 18 60 12" style="fill:#000"/><polygon points="72 12 66 12 66 18 72 18 72 12" style="fill:#000"/><polygon points="84 12 78 12 78 18 84 18 84 12" style="fill:#000"/><polygon points="96 12 90 12 90 18 96 18 96 12" style="fill:#000"/><polygon points="108 12 102 12 102 18 108 18 108 12" style="fill:#000"/><rect width="144" height="144" style="fill:none"/></svg>