<svg xmlns="http://www.w3.org/2000/svg" viewBox="0 0 144 144"><path d="M141,81v38.5a9.2077,9.2077,0,0,1-9,9.5H12a9.2706,9.2706,0,0,1-9-9.5v-89A9.2077,9.2077,0,0,1,12,21H75" style="fill:none;stroke:#000;stroke-linecap:round;stroke-linejoin:round;stroke-width:6px"/><line x1="30" y1="141" x2="114" y2="141" style="fill:none;stroke:#000;stroke-linecap:round;stroke-linejoin:round;stroke-width:6px"/><line x1="72" y1="129" x2="72" y2="141" style="fill:none;stroke:#000;stroke-linecap:round;stroke-linejoin:round;stroke-width:6px"/><circle cx="72" cy="117" r="3" style="fill:none;stroke:#000;stroke-linecap:round;stroke-linejoin:round;stroke-width:6px"/><line x1="3" y1="105" x2="141" y2="105" style="fill:none;stroke:#000;stroke-linecap:round;stroke-linejoin:round;stroke-width:6px"/><polyline points="75 75 33 75 33 51 75 51" style="fill:none;stroke:#000;stroke-linecap:round;stroke-linejoin:round;stroke-width:6px"/><circle cx="48" cy="63" r="3" style="fill:none;stroke:#000;stroke-linecap:round;stroke-linejoin:round;stroke-width:6px"/><circle cx="66" cy="63" r="3" style="fill:none;stroke:#000;stroke-linecap:round;stroke-linejoin:round;stroke-width:6px"/><rect x="87" y="27" width="54" height="42" style="fill:none;stroke:#000;stroke-linecap:round;stroke-linejoin:round;stroke-width:6px"/><line x1="114" y1="57" x2="114" y2="45" style="fill:none;stroke:#000;stroke-linecap:round;stroke-linejoin:round;stroke-width:6px"/><path d="M96,27V21a18,18,0,0,1,36,0v6" style="fill:none;stroke:#000;stroke-linecap:round;stroke-linejoin:round;stroke-width:6px"/><path d="M117,42a2.9465,2.9465,0,0,1-3,3h0a2.9465,2.9465,0,0,1-3-3h0a2.9465,2.9465,0,0,1,3-3h0a2.9465,2.9465,0,0,1,3,3Z" style="fill:none;stroke:#000;stroke-linejoin:round;stroke-width:6px"/><rect width="144" height="144" style="fill:none"/></svg>