<svg xmlns="http://www.w3.org/2000/svg" viewBox="0 0 144 144"><path d="M140.2,41.2,42.6,138.8,4.4,100.6,46.8,58.2l2.1,2.1A8.98,8.98,0,1,0,61.6,47.6l-2.1-2.1L102,3Z" style="fill:none;stroke:#000;stroke-linejoin:round;stroke-width:6px"/><rect x="31.7932" y="95.8406" width="29.9997" height="17.9998" transform="translate(-60.4281 63.7948) rotate(-45)" style="fill:none;stroke:#000;stroke-linejoin:round;stroke-width:5.999942240425611px"/><rect x="61.494" y="66.1406" width="29.9997" height="17.9998" transform="translate(-30.7279 76.0975) rotate(-45)" style="fill:none;stroke:#000;stroke-linejoin:round;stroke-width:5.999942240425611px"/><rect x="91.1939" y="36.4396" width="29.9997" height="17.9998" transform="translate(-1.0272 88.3993) rotate(-45)" style="fill:none;stroke:#000;stroke-linejoin:round;stroke-width:5.999942240425611px"/><line x1="13" y1="92.2" x2="23.5" y2="102.7" style="fill:none;stroke:#000;stroke-linejoin:round;stroke-width:6px"/><line x1="21.5" y1="83.7" x2="32" y2="94.2" style="fill:none;stroke:#000;stroke-linejoin:round;stroke-width:6px"/><line x1="30" y1="75.2" x2="40.5" y2="85.7" style="fill:none;stroke:#000;stroke-linejoin:round;stroke-width:6px"/><line x1="38.5" y1="66.7" x2="49" y2="77.2" style="fill:none;stroke:#000;stroke-linejoin:round;stroke-width:6px"/><line x1="68.1" y1="36.9" x2="78.7" y2="47.5" style="fill:none;stroke:#000;stroke-linejoin:round;stroke-width:6px"/><line x1="76.5" y1="28.5" x2="87.1" y2="39.1" style="fill:none;stroke:#000;stroke-linejoin:round;stroke-width:6px"/><line x1="85" y1="20" x2="95.6" y2="30.6" style="fill:none;stroke:#000;stroke-linejoin:round;stroke-width:6px"/><line x1="93.5" y1="11.5" x2="104.1" y2="22.1" style="fill:none;stroke:#000;stroke-linejoin:round;stroke-width:6px"/><rect width="144" height="144" style="fill:none"/></svg>