<svg xmlns="http://www.w3.org/2000/svg" viewBox="0 0 144 144"><path d="M141,117a12.0353,12.0353,0,0,1-12,12H15A12.0353,12.0353,0,0,1,3,117V93A12.0353,12.0353,0,0,1,15,81H129a12.0353,12.0353,0,0,1,12,12Z" style="fill:none;stroke:#000;stroke-linecap:round;stroke-linejoin:round;stroke-width:6px"/><line x1="21" y1="111" x2="123" y2="111" style="fill:none;stroke:#000;stroke-linecap:round;stroke-linejoin:round;stroke-width:6px"/><path d="M123,96a3,3,0,1,0,3,3,3.0085,3.0085,0,0,0-3-3Z" style="fill:#000"/><path d="M111,96a3,3,0,1,0,3,3,3.0085,3.0085,0,0,0-3-3Z" style="fill:#000"/><path d="M141,90,126,32.6c-1.7-6.4-8.4-11.6-15-11.6H33c-6.6,0-13.4,5.2-15,11.6L3,90" style="fill:none;stroke:#000;stroke-linecap:round;stroke-linejoin:round;stroke-width:6px"/><rect width="144" height="144" style="fill:none"/></svg>