<svg xmlns="http://www.w3.org/2000/svg" viewBox="0 0 144 144"><rect x="3" y="51" width="138" height="90" style="fill:none;stroke:#000;stroke-linejoin:round;stroke-width:6px"/><polygon points="22.7 9 121.3 9 141 51 3 51 22.7 9" style="fill:none;stroke:#000;stroke-linejoin:round;stroke-width:6px"/><circle cx="45" cy="96" r="30" style="fill:none;stroke:#000;stroke-linejoin:round;stroke-width:6px"/><rect x="93" y="63" width="36" height="24" style="fill:none;stroke:#000;stroke-linejoin:round;stroke-width:6px"/><rect x="93" y="105" width="36" height="24" style="fill:none;stroke:#000;stroke-linejoin:round;stroke-width:6px"/><line x1="45" y1="66" x2="45" y2="126" style="fill:none;stroke:#000;stroke-linejoin:round;stroke-width:6px"/><line x1="66.2" y1="74.8" x2="23.8" y2="117.2" style="fill:none;stroke:#000;stroke-linejoin:round;stroke-width:6px"/><line x1="75" y1="96" x2="15" y2="96" style="fill:none;stroke:#000;stroke-linejoin:round;stroke-width:6px"/><line x1="66.2" y1="117.2" x2="23.8" y2="74.8" style="fill:none;stroke:#000;stroke-linejoin:round;stroke-width:6px"/><path d="M105,72a3,3,0,0,0,0,6,3,3,0,0,0,0-6Z" style="fill:#000"/><path d="M117,72a3,3,0,0,0,0,6,3,3,0,0,0,0-6Z" style="fill:#000"/><path d="M105,114a3,3,0,0,0,0,6,3,3,0,0,0,0-6Z" style="fill:#000"/><path d="M117,114a3,3,0,0,0,0,6,3,3,0,0,0,0-6Z" style="fill:#000"/><rect width="144" height="144" style="fill:none"/></svg>