<svg xmlns="http://www.w3.org/2000/svg" viewBox="0 0 144 144"><path d="M141,113.5a9.2077,9.2077,0,0,1-9,9.5H12a9.2706,9.2706,0,0,1-9-9.5v-89A9.2077,9.2077,0,0,1,12,15H132a9.2706,9.2706,0,0,1,9,9.5Z" style="fill:none;stroke:#000;stroke-linecap:round;stroke-linejoin:round;stroke-width:6px"/><line x1="30" y1="135" x2="114" y2="135" style="fill:none;stroke:#000;stroke-linecap:round;stroke-linejoin:round;stroke-width:6px"/><line x1="69" y1="123" x2="69" y2="135" style="fill:none;stroke:#000;stroke-linecap:round;stroke-linejoin:round;stroke-width:6px"/><circle cx="72" cy="111" r="3" style="fill:none;stroke:#000;stroke-linejoin:round;stroke-width:6px"/><line x1="3" y1="99" x2="141" y2="99" style="fill:none;stroke:#000;stroke-linejoin:round;stroke-width:6px"/><circle cx="48" cy="57" r="30" style="fill:none;stroke:#000;stroke-linecap:round;stroke-linejoin:round;stroke-width:6px"/><polyline points="65 32.3 48 57 67.2 80" style="fill:none;stroke:#000;stroke-linecap:round;stroke-linejoin:round;stroke-width:6px"/><line x1="48" y1="57" x2="18" y2="57" style="fill:none;stroke:#000;stroke-linecap:round;stroke-linejoin:round;stroke-width:6px"/><line x1="90" y1="33" x2="126" y2="33" style="fill:none;stroke:#000;stroke-linejoin:round;stroke-width:6px"/><line x1="90" y1="51" x2="126" y2="51" style="fill:none;stroke:#000;stroke-linejoin:round;stroke-width:6px"/><line x1="90" y1="69" x2="126" y2="69" style="fill:none;stroke:#000;stroke-linejoin:round;stroke-width:6px"/><rect width="144" height="144" style="fill:none"/></svg>