<svg xmlns="http://www.w3.org/2000/svg" viewBox="0 0 144 144"><path d="M98.9,51a30,30,0,0,0-59.7,0Z" style="fill:none;stroke:#000;stroke-linecap:round;stroke-linejoin:round;stroke-width:6px"/><path d="M45,3V9c0,6.8,5.5,13.3,9.6,18.7" style="fill:none;stroke:#000;stroke-linecap:round;stroke-linejoin:round;stroke-width:6px"/><path d="M93.1,3V9c0,6.8-5.5,13.3-9.6,18.7" style="fill:none;stroke:#000;stroke-linecap:round;stroke-linejoin:round;stroke-width:6px"/><path d="M39,63V99c0,16.6,30,42,30,42s30-25.4,30-42V63Z" style="fill:none;stroke:#000;stroke-linecap:round;stroke-linejoin:round;stroke-width:6px"/><path d="M39,63H31.5C23.2,63,17.8,69.2,12,75" style="fill:none;stroke:#000;stroke-linecap:round;stroke-linejoin:round;stroke-width:6px"/><path d="M39,81H31.5C23.2,81,17.8,87.2,12,93" style="fill:none;stroke:#000;stroke-linecap:round;stroke-linejoin:round;stroke-width:6px"/><path d="M39,99H31.5c-8.3,0-13.7,6.2-19.5,12" style="fill:none;stroke:#000;stroke-linecap:round;stroke-linejoin:round;stroke-width:6px"/><path d="M99,63h7.5c8.3,0,13.7,6.2,19.5,12" style="fill:none;stroke:#000;stroke-linecap:round;stroke-linejoin:round;stroke-width:6px"/><path d="M99,81h7.5c8.3,0,13.7,6.2,19.5,12" style="fill:none;stroke:#000;stroke-linecap:round;stroke-linejoin:round;stroke-width:6px"/><path d="M99,99h7.5c8.3,0,13.7,6.2,19.5,12" style="fill:none;stroke:#000;stroke-linecap:round;stroke-linejoin:round;stroke-width:6px"/><rect width="144" height="144" style="fill:none"/></svg>