<svg xmlns="http://www.w3.org/2000/svg" viewBox="0 0 144 144"><path d="M123,123a12.0353,12.0353,0,0,1-12,12H33a12.0353,12.0353,0,0,1-12-12V21A12.0353,12.0353,0,0,1,33,9h78a12.0353,12.0353,0,0,1,12,12Z" style="fill:none;stroke:#000;stroke-linecap:round;stroke-linejoin:round;stroke-width:6px"/><circle cx="72" cy="60" r="39" style="fill:none;stroke:#000;stroke-linecap:round;stroke-linejoin:round;stroke-width:6px"/><line x1="54" y1="78" x2="33" y2="99" style="fill:none;stroke:#000;stroke-linecap:round;stroke-linejoin:round;stroke-width:6px"/><polygon points="69 123 33 123 33 99 69 117 69 123" style="fill:none;stroke:#000;stroke-linecap:round;stroke-linejoin:round;stroke-width:6px"/><path d="M105,114a2.9465,2.9465,0,0,0-3,3,3,3,0,0,0,6,0,2.9465,2.9465,0,0,0-3-3Z" style="fill:#000"/><path d="M75,60a2.9465,2.9465,0,0,1-3,3h0a2.9465,2.9465,0,0,1-3-3h0a2.9465,2.9465,0,0,1,3-3h0a2.9465,2.9465,0,0,1,3,3Z" style="fill:none;stroke:#000;stroke-linejoin:round;stroke-width:6px"/><rect width="144" height="144" style="fill:none"/></svg>