<svg xmlns="http://www.w3.org/2000/svg" viewBox="0 0 144 144"><path d="M3,141V108a8.9626,8.9626,0,0,1,9-9H132a8.9626,8.9626,0,0,1,9,9v33Z" style="fill:none;stroke:#000;stroke-linecap:round;stroke-linejoin:round;stroke-width:6px"/><path d="M135,75c0,6.6-4.9,12-11,12H20C13.9,87,9,81.6,9,75V15C9,8.4,13.9,3,20,3H124c6.1,0,11,5.4,11,12Z" style="fill:none;stroke:#000;stroke-linecap:round;stroke-linejoin:round;stroke-width:6px"/><rect x="21" y="15" width="102" height="60" style="fill:none;stroke:#000;stroke-linecap:round;stroke-linejoin:round;stroke-width:6px"/><line x1="15" y1="111" x2="51" y2="111" style="fill:none;stroke:#000;stroke-linecap:round;stroke-linejoin:round;stroke-width:6px"/><line x1="15" y1="123" x2="33" y2="123" style="fill:none;stroke:#000;stroke-linecap:round;stroke-linejoin:round;stroke-width:6px"/><rect x="75" y="111" width="54" height="12" style="fill:none;stroke:#000;stroke-linecap:round;stroke-linejoin:round;stroke-width:6px"/><rect width="144" height="144" style="fill:none"/></svg>