<svg xmlns="http://www.w3.org/2000/svg" viewBox="0 0 144 144"><path d="M100.7,87H42.8c-4.6,6-7.3,12.8-7.3,19.9,0,17.5,16.2,32.2,36.3,32.2s36.3-14.9,36.3-32.4C108,99.5,105.3,93,100.7,87Zm-29,27.1c-4,0-7.3-2.8-7.3-6.3s3.2-6.3,7.3-6.3,7.3,2.8,7.3,6.3S75.7,114.1,71.7,114.1Z" style="fill:none;stroke:#000;stroke-linejoin:round;stroke-width:6px"/><line x1="27.1" y1="87" x2="117" y2="87" style="fill:none;stroke:#000;stroke-linecap:round;stroke-linejoin:round;stroke-width:6px"/><path d="M134.9,79.4,120,14.6C118.4,8.2,111.6,3,105,3H39C32.4,3,25.6,8.2,24,14.6L9.1,79.4" style="fill:none;stroke:#000;stroke-linecap:round;stroke-linejoin:round;stroke-width:6px"/><path d="M21,111A12.0353,12.0353,0,0,1,9,99V81A12.0353,12.0353,0,0,1,21,69H123a12.0353,12.0353,0,0,1,12,12V99a12.0353,12.0353,0,0,1-12,12" style="fill:none;stroke:#000;stroke-linecap:round;stroke-linejoin:round;stroke-width:6px"/><line x1="96" y1="57" x2="120" y2="57" style="fill:none;stroke:#000;stroke-linejoin:round;stroke-width:6px"/><rect width="144" height="144" style="fill:none"/></svg>