<svg xmlns="http://www.w3.org/2000/svg" viewBox="0 0 144 144"><path d="M141,119.5a9.2077,9.2077,0,0,1-9,9.5H12a9.2706,9.2706,0,0,1-9-9.5v-89A9.2077,9.2077,0,0,1,12,21H132a9.2706,9.2706,0,0,1,9,9.5Z" style="fill:none;stroke:#000;stroke-linecap:round;stroke-linejoin:round;stroke-width:6px"/><line x1="30" y1="141" x2="114" y2="141" style="fill:none;stroke:#000;stroke-linecap:round;stroke-linejoin:round;stroke-width:6px"/><line x1="72" y1="129" x2="72" y2="141" style="fill:none;stroke:#000;stroke-linecap:round;stroke-linejoin:round;stroke-width:6px"/><circle cx="72" cy="117" r="3" style="fill:none;stroke:#000;stroke-linejoin:round;stroke-width:6px"/><line x1="3" y1="105" x2="141" y2="105" style="fill:none;stroke:#000;stroke-linejoin:round;stroke-width:6px"/><circle cx="72" cy="63" r="12" style="fill:none;stroke:#000;stroke-linejoin:round;stroke-width:6px"/><path d="M95.8,59.7l6.7-3.9-9-15.6-6.7,3.9A23.2943,23.2943,0,0,0,81,40.9V33H63v7.8a23.4541,23.4541,0,0,0-5.7,3.3l-6.8-3.9-9,15.6,6.8,3.9a24.3208,24.3208,0,0,0-.1,6.6l-6.7,3.9,9,15.6,6.7-3.9a24.5465,24.5465,0,0,0,5.7,3.2V93h18V85.2a23.4541,23.4541,0,0,0,5.7-3.3l6.8,3.9,9-15.6-6.8-3.9A21.07,21.07,0,0,0,95.8,59.7Z" style="fill:none;stroke:#000;stroke-linejoin:round;stroke-width:6px"/><rect width="144" height="144" style="fill:none"/></svg>