<svg xmlns="http://www.w3.org/2000/svg" viewBox="0 0 144 144"><line x1="3" y1="93" x2="49.7" y2="139.7" style="fill:none;stroke:#000;stroke-linecap:round;stroke-linejoin:round;stroke-width:6px"/><path d="M130.1,29.6A12.1167,12.1167,0,0,1,133.2,18l3.5-3.5a6.0977,6.0977,0,0,0,0-8.5,6.0977,6.0977,0,0,0-8.5,0l-3.5,3.5a12.1167,12.1167,0,0,1-11.6,3.1A23.8912,23.8912,0,0,0,90,18.8L9.4,99.4l33.9,33.9,80.6-80.6A23.8912,23.8912,0,0,0,130.1,29.6Z" style="fill:none;stroke:#000;stroke-linecap:round;stroke-linejoin:round;stroke-width:6px"/><path d="M112.7,25.3a23.9613,23.9613,0,0,0-18.4,6.9L79.7,46.8" style="fill:none;stroke:#000;stroke-linecap:round;stroke-linejoin:round;stroke-width:6px"/><rect width="144" height="144" style="fill:none"/></svg>