<svg xmlns="http://www.w3.org/2000/svg" viewBox="0 0 144 144"><polygon points="141 140.9 141 21.9 99.2 3 45.5 21.8 3 3 3.1 121.9 45.4 140.7 99.2 121.9 141 140.9" style="fill:none;stroke:#000;stroke-linejoin:round;stroke-width:6px"/><polygon points="15 23.6 15 113.9 45.4 125.9 99.2 107.9 129 119.7 129 32.4 99.2 17.9 45.5 35.9 15 23.6" style="fill:none;stroke:#000;stroke-linejoin:round;stroke-width:6px"/><line x1="87" y1="53.7" x2="87" y2="22" style="fill:none;stroke:#000;stroke-linecap:round;stroke-linejoin:round;stroke-width:6px"/><polyline points="15 86 45.9 97.3 69 89.4 69 118" style="fill:none;stroke:#000;stroke-linecap:round;stroke-linejoin:round;stroke-width:6px"/><polyline points="87 112 87 83.7 98.5 78.3 129 90" style="fill:none;stroke:#000;stroke-linecap:round;stroke-linejoin:round;stroke-width:6px"/><polyline points="15 47.6 45 59.6 68.8 53.6" style="fill:none;stroke:#000;stroke-linecap:round;stroke-linejoin:round;stroke-width:6px"/><line x1="27" y1="52.4" x2="27" y2="41.7" style="fill:none;stroke:#000;stroke-linecap:round;stroke-linejoin:round;stroke-width:6px"/><line x1="51" y1="58.1" x2="51" y2="47.7" style="fill:none;stroke:#000;stroke-linecap:round;stroke-linejoin:round;stroke-width:6px"/><line x1="39" y1="57.2" x2="39" y2="47.7" style="fill:none;stroke:#000;stroke-linecap:round;stroke-linejoin:round;stroke-width:6px"/><rect width="144" height="144" style="fill:none"/></svg>