<svg xmlns="http://www.w3.org/2000/svg" viewBox="0 0 144 144"><polyline points="60 81 3 81 3 114" style="fill:none;stroke:#000;stroke-linejoin:round;stroke-width:6px"/><polyline points="3 84 3 51 78 51" style="fill:none;stroke:#000;stroke-linejoin:round;stroke-width:6px"/><rect x="3" y="21" width="66" height="30" style="fill:none;stroke:#000;stroke-linejoin:round;stroke-width:6px"/><line x1="27" y1="21" x2="27" y2="51" style="fill:none;stroke:#000;stroke-linejoin:round;stroke-width:6px"/><line x1="51" y1="51" x2="51" y2="81" style="fill:none;stroke:#000;stroke-linejoin:round;stroke-width:6px"/><line x1="27" y1="81" x2="27" y2="111" style="fill:none;stroke:#000;stroke-linejoin:round;stroke-width:6px"/><line x1="99" y1="114" x2="99" y2="141" style="fill:none;stroke:#000;stroke-linejoin:round;stroke-width:6px"/><path d="M102,39.9a9.0131,9.0131,0,0,0,12.7.8l23.2-21a8.7693,8.7693,0,0,0,3-6.2A9.5105,9.5105,0,0,0,138.7,7,9.0131,9.0131,0,0,0,126,6.2l-23.2,21a8.7693,8.7693,0,0,0-3,6.2A9.0456,9.0456,0,0,0,102,39.9Z" style="fill:none;stroke:#000;stroke-linecap:round;stroke-linejoin:round;stroke-width:6px"/><polyline points="102.1 39.9 121.3 62.1 98.8 81.9" style="fill:none;stroke:#000;stroke-linecap:round;stroke-linejoin:round;stroke-width:6px"/><path d="M84.2,62.2c1.8-6.7,10.1-7.9,15-3l21,21c4.9,4.9,3.7,13.3-3,15l-54,21Z" style="fill:none;stroke:#000;stroke-linecap:round;stroke-linejoin:round;stroke-width:6px"/><polyline points="111.1 111 141 111 141 141 3 141 3 111 48 111 51 111 51 141" style="fill:none;stroke:#000;stroke-linejoin:round;stroke-width:6px"/><rect width="144" height="144" style="fill:none"/></svg>