<svg xmlns="http://www.w3.org/2000/svg" viewBox="0 0 144 144"><path d="M129,117a23.9424,23.9424,0,0,1-24,24H33A23.9424,23.9424,0,0,1,9,117V87A23.9424,23.9424,0,0,1,33,63h72a23.9424,23.9424,0,0,1,24,24Z" style="fill:none;stroke:#000;stroke-linejoin:round;stroke-width:6px"/><circle cx="99.2" cy="105" r="18" style="fill:none;stroke:#000;stroke-linejoin:round;stroke-width:6px"/><circle cx="39.2" cy="105" r="18" style="fill:none;stroke:#000;stroke-linejoin:round;stroke-width:6px"/><polygon points="75 87 63 87 51 75 87 75 75 87" style="fill:none;stroke:#000;stroke-linejoin:round;stroke-width:6px"/><line x1="60" y1="129" x2="78" y2="129" style="fill:none;stroke:#000;stroke-linejoin:round;stroke-width:6px"/><line x1="99.2" y1="105" x2="112.3" y2="78.2" style="fill:none;stroke:#000;stroke-linecap:round;stroke-linejoin:round;stroke-width:6px"/><line x1="39" y1="105" x2="39" y2="75" style="fill:none;stroke:#000;stroke-linecap:round;stroke-linejoin:round;stroke-width:6px"/><rect x="57" y="51" width="24" height="12" style="fill:none;stroke:#000;stroke-linecap:round;stroke-linejoin:round;stroke-width:6px"/><line x1="69" y1="51" x2="69" y2="21" style="fill:none;stroke:#000;stroke-linecap:round;stroke-linejoin:round;stroke-width:6px"/><path d="M120.5,3a68.52,68.52,0,0,1,.3,36.3" style="fill:none;stroke:#000;stroke-linecap:round;stroke-linejoin:round;stroke-width:6px"/><path d="M102.3,6.2A44.3215,44.3215,0,0,1,105,21.7a45.72,45.72,0,0,1-2.3,14.4" style="fill:none;stroke:#000;stroke-linecap:round;stroke-linejoin:round;stroke-width:6px"/><path d="M83.7,10.3a21.2047,21.2047,0,0,1,3.4,11.4A20.1258,20.1258,0,0,1,84,32.6" style="fill:none;stroke:#000;stroke-linecap:round;stroke-linejoin:round;stroke-width:6px"/><path d="M17.5,3a68.52,68.52,0,0,0-.3,36.3" style="fill:none;stroke:#000;stroke-linecap:round;stroke-linejoin:round;stroke-width:6px"/><path d="M35.7,6.2A44.3215,44.3215,0,0,0,33,21.7a45.72,45.72,0,0,0,2.3,14.4" style="fill:none;stroke:#000;stroke-linecap:round;stroke-linejoin:round;stroke-width:6px"/><path d="M54.3,10.3a21.2047,21.2047,0,0,0-3.4,11.4A20.1258,20.1258,0,0,0,54,32.6" style="fill:none;stroke:#000;stroke-linecap:round;stroke-linejoin:round;stroke-width:6px"/><rect width="144" height="144" style="fill:none"/></svg>