<svg xmlns="http://www.w3.org/2000/svg" viewBox="0 0 144 144"><rect x="45" y="3" width="54" height="36" style="fill:none;stroke:#000;stroke-linejoin:round;stroke-width:6px"/><polygon points="45 39 99 39 141 75 3 75 45 39" style="fill:none;stroke:#000;stroke-linejoin:round;stroke-width:6px"/><rect x="3" y="75" width="138" height="24" style="fill:none;stroke:#000;stroke-linejoin:round;stroke-width:6px"/><line x1="21.3" y1="87" x2="45" y2="87" style="fill:none;stroke:#000;stroke-linecap:round;stroke-linejoin:round;stroke-width:6px"/><line x1="57.3" y1="87" x2="81" y2="87" style="fill:none;stroke:#000;stroke-linecap:round;stroke-linejoin:round;stroke-width:6px"/><path d="M123,84a3,3,0,1,0,3,3,2.9465,2.9465,0,0,0-3-3Z" style="fill:#000"/><path d="M105,84a3,3,0,1,0,3,3,2.9465,2.9465,0,0,0-3-3Z" style="fill:#000"/><path d="M45,116.7c-10.5,10.5,10.4,14,.1,24.3" style="fill:none;stroke:#000;stroke-linecap:round;stroke-linejoin:round;stroke-width:6px"/><path d="M72,116.7c-10.5,10.5,10.4,14,.1,24.3" style="fill:none;stroke:#000;stroke-linecap:round;stroke-linejoin:round;stroke-width:6px"/><path d="M99,116.7c-10.5,10.5,10.4,14,.1,24.3" style="fill:none;stroke:#000;stroke-linecap:round;stroke-linejoin:round;stroke-width:6px"/><rect width="144" height="144" style="fill:none"/></svg>