<svg xmlns="http://www.w3.org/2000/svg" viewBox="0 0 144 144.0375"><path d="M86.8,34.3a12.1332,12.1332,0,0,0-15.4,7.5l-2.7,7.7L63.1,37.1C54.8,19,38.4,8.7,20.2,17,2.1,25.3-.9,44.4,7.4,62.6l28.9,63.3L92,100.5,85.8,86.8l9.1-39.1A12.2442,12.2442,0,0,0,86.8,34.3Z" style="fill:none;stroke:#000;stroke-linecap:round;stroke-linejoin:round;stroke-width:6px"/><rect x="37.0148" y="112.3867" width="61.1983" height="16.6995" transform="translate(-44.0273 38.9736) rotate(-24.5326)" style="fill:none;stroke:#000;stroke-linecap:round;stroke-linejoin:round;stroke-width:5.999835246811882px"/><polyline points="131.7 100.4 138.7 115.6 83 141 76.1 125.8" style="fill:none;stroke:#000;stroke-linejoin:round;stroke-width:6px"/><path d="M109.4,110.6l22.3-10.2-6.2-13.7,9.1-39.1a12.1012,12.1012,0,0,0-23.4-5.8l-2.7,7.7-5.6-12.4C94.6,19,78.2,8.7,60,17a33.6816,33.6816,0,0,0-7.8,5" style="fill:none;stroke:#000;stroke-linecap:round;stroke-linejoin:round;stroke-width:6px"/><rect width="144" height="144" style="fill:none"/></svg>