<svg xmlns="http://www.w3.org/2000/svg" viewBox="0 0 144 144"><path d="M120,42A23.8984,23.8984,0,0,1,97.4,25.8,23.67,23.67,0,0,1,84,30,23.9424,23.9424,0,0,1,60,6a11.0759,11.0759,0,0,1,.2-1.9A68.9618,68.9618,0,1,0,141,72a67.7485,67.7485,0,0,0-8.8-33.5A23.163,23.163,0,0,1,120,42Z" style="fill:none;stroke:#000;stroke-linejoin:round;stroke-width:6px"/><circle cx="48" cy="54" r="12" style="fill:none;stroke:#000;stroke-linejoin:round;stroke-width:6px"/><circle cx="90" cy="84" r="6" style="fill:none;stroke:#000;stroke-linejoin:round;stroke-width:6px"/><circle cx="54" cy="102" r="12" style="fill:none;stroke:#000;stroke-linejoin:round;stroke-width:6px"/><circle cx="96" cy="60" r="3" style="fill:none;stroke:#000;stroke-linejoin:round;stroke-width:6px"/><circle cx="24" cy="78" r="3" style="fill:none;stroke:#000;stroke-linejoin:round;stroke-width:6px"/><circle cx="90" cy="114" r="3" style="fill:none;stroke:#000;stroke-linejoin:round;stroke-width:6px"/><rect width="144" height="144" style="fill:none"/></svg>