<svg xmlns="http://www.w3.org/2000/svg" viewBox="0 0 144 144"><path d="M111,51A29.96,29.96,0,0,0,81,21H63A29.96,29.96,0,0,0,33,51v9l9.1,9.1-9.1,9V96l9.1,9.2-9.1,9V129a12.0353,12.0353,0,0,0,12,12H99a12.0353,12.0353,0,0,0,12-12V114.2l-9.1-9,9.1-9.1v-18l-9-8.8,9-9.3Z" style="fill:none;stroke:#000;stroke-linejoin:round;stroke-width:6px"/><line x1="42" y1="105" x2="102" y2="105" style="fill:none;stroke:#000;stroke-linejoin:round;stroke-width:6px"/><line x1="42" y1="69" x2="102" y2="69" style="fill:none;stroke:#000;stroke-linejoin:round;stroke-width:6px"/><path d="M87,9a6.0176,6.0176,0,0,0-6-6H63a6.0176,6.0176,0,0,0-6,6V21H87Z" style="fill:none;stroke:#000;stroke-linejoin:round;stroke-width:6px"/><rect width="144" height="144" style="fill:none"/></svg>