<svg xmlns="http://www.w3.org/2000/svg" viewBox="0 0 144 144"><path d="M15,24.8a31.5151,31.5151,0,0,0-2.8,47S48.7,90,51,90a11.9344,11.9344,0,0,0,6-1.6L90,71.6a31.406,31.406,0,0,0-3-46.7" style="fill:none;stroke:#000;stroke-linecap:round;stroke-linejoin:round;stroke-width:6px"/><path d="M45,21a15,15,0,0,0-30,0v9a8.9626,8.9626,0,0,0,9,9H36a8.9626,8.9626,0,0,0,9-9Z" style="fill:none;stroke:#000;stroke-linecap:round;stroke-linejoin:round;stroke-width:6px"/><path d="M87,21a15,15,0,0,0-30,0v9a8.9626,8.9626,0,0,0,9,9H78a8.9626,8.9626,0,0,0,9-9Z" style="fill:none;stroke:#000;stroke-linecap:round;stroke-linejoin:round;stroke-width:6px"/><path d="M27,51a6.0176,6.0176,0,0,0-6,6,6.0919,6.0919,0,0,0,3,5.2L51,75,78,62.2A6.0024,6.0024,0,0,0,75,51Z" style="fill:none;stroke:#000;stroke-linecap:round;stroke-linejoin:round;stroke-width:6px"/><line x1="27" y1="18" x2="27" y2="24" style="fill:none;stroke:#000;stroke-linecap:round;stroke-linejoin:round;stroke-width:6px"/><line x1="75" y1="24" x2="75" y2="30" style="fill:none;stroke:#000;stroke-linecap:round;stroke-linejoin:round;stroke-width:6px"/><path d="M80.5,99A29.9868,29.9868,0,1,0,96,83.5L93,102Z" style="fill:none;stroke:#000;stroke-linecap:round;stroke-linejoin:round;stroke-width:6px"/><circle cx="120" cy="108" r="6" style="fill:none;stroke:#000;stroke-linecap:round;stroke-linejoin:round;stroke-width:6px"/><circle cx="99" cy="120" r="6" style="fill:none;stroke:#000;stroke-linecap:round;stroke-linejoin:round;stroke-width:6px"/><line x1="45" y1="24" x2="57" y2="24" style="fill:none;stroke:#000;stroke-linecap:round;stroke-linejoin:round;stroke-width:6px"/><rect width="144" height="144" style="fill:none"/></svg>