<svg xmlns="http://www.w3.org/2000/svg" viewBox="0 0 144 144.1"><path d="M45,83.8,49.6,24a22.4467,22.4467,0,0,1,44.8,0L99,83.8" style="fill:none;stroke:#000;stroke-linecap:round;stroke-linejoin:round;stroke-width:6px"/><line x1="50" y1="27" x2="94" y2="27" style="fill:none;stroke:#000;stroke-linecap:round;stroke-linejoin:round;stroke-width:6px"/><line x1="48" y1="51" x2="96" y2="51" style="fill:none;stroke:#000;stroke-linecap:round;stroke-linejoin:round;stroke-width:6px"/><line x1="46.1" y1="75" x2="97.9" y2="75" style="fill:none;stroke:#000;stroke-linecap:round;stroke-linejoin:round;stroke-width:6px"/><line x1="63" y1="107" x2="63" y2="4.9" style="fill:none;stroke:#000;stroke-linecap:round;stroke-linejoin:round;stroke-width:6px"/><line x1="81" y1="102" x2="81" y2="4.9" style="fill:none;stroke:#000;stroke-linecap:round;stroke-linejoin:round;stroke-width:6px"/><path d="M81,141H72c-9.9,0-22.2-6.9-27.4-15.4L12,72,3,63l24.1,4.8a18.5843,18.5843,0,0,1,9.6,5.9L78,126Z" style="fill:none;stroke:#000;stroke-linecap:round;stroke-linejoin:round;stroke-width:6px"/><path d="M69,114l39-39,9-18,2,22.5c.5,5.8-1.4,14.6-4.4,19.6L94.5,133.3c-2.5,4.3-8.6,7.8-13.6,7.8" style="fill:none;stroke:#000;stroke-linecap:round;stroke-linejoin:round;stroke-width:6px"/><rect width="144" height="144" style="fill:none"/></svg>