<svg xmlns="http://www.w3.org/2000/svg" viewBox="0 0 144 144"><line x1="15" y1="129" x2="15" y2="141" style="fill:none;stroke:#000;stroke-linecap:round;stroke-linejoin:round;stroke-width:6px"/><line x1="129" y1="129" x2="129" y2="141" style="fill:none;stroke:#000;stroke-linecap:round;stroke-linejoin:round;stroke-width:6px"/><path d="M3,93v24a12.0353,12.0353,0,0,0,12,12H129a12.0353,12.0353,0,0,0,12-12V93" style="fill:none;stroke:#000;stroke-linecap:round;stroke-linejoin:round;stroke-width:6px"/><path d="M123,93v6a6.0176,6.0176,0,0,1-6,6H27a6.0176,6.0176,0,0,1-6-6V93" style="fill:none;stroke:#000;stroke-linecap:round;stroke-linejoin:round;stroke-width:6px"/><path d="M129,84.4V81a23.9424,23.9424,0,0,0-24-24H39A23.9424,23.9424,0,0,0,15,81v3.5" style="fill:none;stroke:#000;stroke-linecap:round;stroke-linejoin:round;stroke-width:6px"/><path d="M3,93a9,9,0,0,1,18,0" style="fill:none;stroke:#000;stroke-linecap:round;stroke-linejoin:round;stroke-width:6px"/><path d="M141,93a9,9,0,0,0-18,0" style="fill:none;stroke:#000;stroke-linecap:round;stroke-linejoin:round;stroke-width:6px"/><line x1="69" y1="57" x2="69" y2="105" style="fill:none;stroke:#000;stroke-linecap:round;stroke-linejoin:round;stroke-width:6px"/><rect width="144" height="144" style="fill:none"/></svg>