<svg xmlns="http://www.w3.org/2000/svg" viewBox="0 0 144 144"><path d="M141,90a18,18,0,0,1,0-36V27H3V54A18,18,0,0,1,3,90v27H141Z" style="fill:none;stroke:#000;stroke-linecap:round;stroke-linejoin:round;stroke-width:6px"/><polygon points="114 36 108 36 108 42 114 42 114 36" style="fill:#000"/><polygon points="114 48 108 48 108 54 114 54 114 48" style="fill:#000"/><polygon points="114 60 108 60 108 66 114 66 114 60" style="fill:#000"/><polygon points="114 78 108 78 108 84 114 84 114 78" style="fill:#000"/><polygon points="114 90 108 90 108 96 114 96 114 90" style="fill:#000"/><polygon points="114 102 108 102 108 108 114 108 114 102" style="fill:#000"/><line x1="42" y1="96" x2="90" y2="48" style="fill:none;stroke:#000;stroke-linecap:round;stroke-linejoin:round;stroke-width:6px"/><circle cx="48" cy="54" r="9" style="fill:none;stroke:#000;stroke-linecap:round;stroke-linejoin:round;stroke-width:6px"/><circle cx="84" cy="90" r="9" style="fill:none;stroke:#000;stroke-linecap:round;stroke-linejoin:round;stroke-width:6px"/><rect width="144" height="144" style="fill:none"/></svg>