<svg xmlns="http://www.w3.org/2000/svg" viewBox="0 0 144 144"><path d="M80.8,18.7s16.8,5.4,23.1,16.9c-7.3,1.2-18.3-.1-18.3-.1,8.3,17.2,40.9,26.2,47.9,7.8C140.3,25.4,102-2.7,80.8,18.7Z" style="fill:none;stroke:#000;stroke-linejoin:round;stroke-width:6px"/><path d="M78.3,135H65.7c-27-12.1-32-34.9-41.7-55.2,27.6-18.2,68.1-18.3,96,0C110.3,100.4,105.3,123.3,78.3,135Z" style="fill:none;stroke:#000;stroke-linejoin:round;stroke-width:6px"/><path d="M140.2,114S129,96,112.9,96" style="fill:none;stroke:#000;stroke-linecap:round;stroke-linejoin:round;stroke-width:6px"/><path d="M132.6,127.5s-10-18-26.1-18" style="fill:none;stroke:#000;stroke-linecap:round;stroke-linejoin:round;stroke-width:6px"/><path d="M124.9,141s-11.9-18-28-18" style="fill:none;stroke:#000;stroke-linecap:round;stroke-linejoin:round;stroke-width:6px"/><path d="M3.8,114S15.1,96,31.2,96" style="fill:none;stroke:#000;stroke-linecap:round;stroke-linejoin:round;stroke-width:6px"/><path d="M11.4,127.5s10-18,26.1-18" style="fill:none;stroke:#000;stroke-linecap:round;stroke-linejoin:round;stroke-width:6px"/><path d="M19.1,141s12.2-18,28.3-18" style="fill:none;stroke:#000;stroke-linecap:round;stroke-linejoin:round;stroke-width:6px"/><path d="M109.3,72.9s21.1-8,24.4-30.2" style="fill:none;stroke:#000;stroke-linecap:round;stroke-linejoin:round;stroke-width:6px"/><path d="M63.2,18.7S46.4,24.1,40.1,35.6c7.3,1.2,18.3-.1,18.3-.1-8.3,17.2-40.9,26.2-47.9,7.8C3.7,25.4,42-2.7,63.2,18.7Z" style="fill:none;stroke:#000;stroke-linejoin:round;stroke-width:6px"/><path d="M34.1,73.2S13.6,64.9,10.3,42.6" style="fill:none;stroke:#000;stroke-linecap:round;stroke-linejoin:round;stroke-width:6px"/><line x1="72" y1="79.8" x2="72" y2="91.8" style="fill:none;stroke:#000;stroke-linecap:round;stroke-linejoin:round;stroke-width:6px"/><line x1="91" y1="82.9" x2="85.8" y2="93.8" style="fill:none;stroke:#000;stroke-linecap:round;stroke-linejoin:round;stroke-width:6px"/><line x1="52.8" y1="82.9" x2="58" y2="93.8" style="fill:none;stroke:#000;stroke-linecap:round;stroke-linejoin:round;stroke-width:6px"/><rect width="144" height="144" style="fill:none"/></svg>