<svg xmlns="http://www.w3.org/2000/svg" viewBox="0 0 144 144"><rect x="3" y="33" width="36" height="108" style="fill:none;stroke:#000;stroke-linejoin:round;stroke-width:6px"/><rect x="51" y="33" width="36" height="108" style="fill:none;stroke:#000;stroke-linejoin:round;stroke-width:6px"/><rect x="99" y="33" width="36" height="108" style="fill:none;stroke:#000;stroke-linejoin:round;stroke-width:6px"/><polygon points="27 3 15 3 9 33 33 33 27 3" style="fill:none;stroke:#000;stroke-linejoin:round;stroke-width:6px"/><line x1="3" y1="51" x2="39" y2="51" style="fill:none;stroke:#000;stroke-linejoin:round;stroke-width:6px"/><line x1="3" y1="123" x2="39" y2="123" style="fill:none;stroke:#000;stroke-linejoin:round;stroke-width:6px"/><polygon points="75 3 63 3 57 33 81 33 75 3" style="fill:none;stroke:#000;stroke-linejoin:round;stroke-width:6px"/><line x1="51" y1="51" x2="87" y2="51" style="fill:none;stroke:#000;stroke-linejoin:round;stroke-width:6px"/><line x1="51" y1="123" x2="87" y2="123" style="fill:none;stroke:#000;stroke-linejoin:round;stroke-width:6px"/><polygon points="123 3 111 3 105 33 129 33 123 3" style="fill:none;stroke:#000;stroke-linejoin:round;stroke-width:6px"/><line x1="99" y1="51" x2="135" y2="51" style="fill:none;stroke:#000;stroke-linejoin:round;stroke-width:6px"/><line x1="99" y1="123" x2="135" y2="123" style="fill:none;stroke:#000;stroke-linejoin:round;stroke-width:6px"/><rect width="144" height="144" style="fill:none"/></svg>