<svg xmlns="http://www.w3.org/2000/svg" viewBox="0 0 144 144"><path d="M141,117a12.0353,12.0353,0,0,1-12,12H15A12.0353,12.0353,0,0,1,3,117V81H141Z" style="fill:none;stroke:#000;stroke-linejoin:round;stroke-width:6px"/><path d="M129,75a12.0353,12.0353,0,0,0-12-12H27A12.0353,12.0353,0,0,0,15,75v6H129Z" style="fill:none;stroke:#000;stroke-linejoin:round;stroke-width:6px"/><rect x="27" y="93" width="90" height="24" style="fill:none;stroke:#000;stroke-linejoin:round;stroke-width:6px"/><path d="M30,63s0-33,42-33c24,0,30-12,36-21.8C120,30,120,48,108,63Z" style="fill:none;stroke:#000;stroke-linejoin:round;stroke-width:6px"/><rect width="144" height="144" style="fill:none"/></svg>