<svg xmlns="http://www.w3.org/2000/svg" viewBox="0 0 144 144"><path d="M141,111a12.0353,12.0353,0,0,1-12,12H15A12.0353,12.0353,0,0,1,3,111V33A12.0353,12.0353,0,0,1,15,21H129a12.0353,12.0353,0,0,1,12,12Z" style="fill:none;stroke:#000;stroke-linecap:round;stroke-linejoin:round;stroke-width:6px"/><path d="M33.3,60H25.5L15.2,84h7.2l1.9-6H34.5l1.9,6h7.2L33.3,60ZM26,75l3.5-8.5L32.9,75Z" style="fill:#000"/><polygon points="75 60 67.6 60 60.3 68.8 53.1 60 48 60 48 84 54 84 54 70.4 60 78 60.6 78 66 70.4 66 84 75 84 75 60" style="fill:#000"/><polygon points="96 60 81 60 81 84 99 84 99 78 87 78 87 75 96 75 96 69 87 69 87 66 96 66 96 60" style="fill:#000"/><path d="M127.5,60h-8.9a62.72,62.72,0,0,0-4.8,6.7c-.8-1-3.5-4.7-4.9-6.7h-9l9.5,11.5L99.5,84h8.9c2.5-3,2.9-3.5,5.5-7,1.2,1.7,4.6,5.6,5.7,7h9.1L118.4,71.5,127.5,60Z" style="fill:#000"/><rect width="144" height="144" style="fill:none"/></svg>