<svg xmlns="http://www.w3.org/2000/svg" viewBox="0 0 144 144"><path d="M78,129H33A29.96,29.96,0,0,1,3,99V79C3,45,27,39,39,39H57c5.8,0,12,3,12,9v3c0,6-6,9-12,9H45S39,81,27,81" style="fill:none;stroke:#000;stroke-linecap:round;stroke-linejoin:round;stroke-width:6px"/><path d="M63,93h39a9,9,0,0,1,0,18H78" style="fill:none;stroke:#000;stroke-linecap:round;stroke-linejoin:round;stroke-width:6px"/><path d="M63,111H78a9,9,0,0,1,0,18H69" style="fill:none;stroke:#000;stroke-linecap:round;stroke-linejoin:round;stroke-width:6px"/><line x1="141" y1="45" x2="68.4" y2="45" style="fill:none;stroke:#000;stroke-linecap:round;stroke-linejoin:round;stroke-width:6px"/><path d="M33,39.5V30a8.9626,8.9626,0,0,1,9-9h90a8.9626,8.9626,0,0,1,9,9V84a8.9626,8.9626,0,0,1-9,9H42a8.9626,8.9626,0,0,1-9-9V79.1" style="fill:none;stroke:#000;stroke-linecap:round;stroke-linejoin:round;stroke-width:6px"/><line x1="129" y1="57" x2="111" y2="57" style="fill:none;stroke:#000;stroke-linecap:round;stroke-linejoin:round;stroke-width:6px"/><rect width="144" height="144" style="fill:none"/></svg>