<svg xmlns="http://www.w3.org/2000/svg" viewBox="0 0 144 144"><path d="M141,111a12.0353,12.0353,0,0,1-12,12H15A12.0353,12.0353,0,0,1,3,111V33A12.0353,12.0353,0,0,1,15,21H129a12.0353,12.0353,0,0,1,12,12Z" style="fill:none;stroke:#000;stroke-linecap:round;stroke-linejoin:round;stroke-width:6px"/><polygon points="42 54 36 54 36 60 42 60 42 54" style="fill:#000"/><polygon points="66 54 60 54 60 60 66 60 66 54" style="fill:#000"/><polygon points="66 66 60 66 60 72 66 72 66 66" style="fill:#000"/><polygon points="66 78 60 78 60 84 66 84 66 78" style="fill:#000"/><polygon points="66 90 60 90 60 96 66 96 66 90" style="fill:#000"/><polygon points="42 66 36 66 36 72 42 72 42 66" style="fill:#000"/><polygon points="42 78 36 78 36 84 42 84 42 78" style="fill:#000"/><polygon points="42 90 36 90 36 96 42 96 42 90" style="fill:#000"/><polygon points="54 60 48 60 48 66 54 66 54 60" style="fill:#000"/><polygon points="54 48 48 48 48 54 54 54 54 48" style="fill:#000"/><polygon points="54 72 48 72 48 78 54 78 54 72" style="fill:#000"/><polygon points="78 72 72 72 72 78 78 78 78 72" style="fill:#000"/><polygon points="54 84 48 84 48 90 54 90 54 84" style="fill:#000"/><polygon points="54 96 48 96 48 102 54 102 54 96" style="fill:#000"/><polygon points="30 72 24 72 24 78 30 78 30 72" style="fill:#000"/><circle cx="51" cy="75" r="30" style="fill:none;stroke:#000;stroke-linecap:round;stroke-linejoin:round;stroke-width:6px"/><circle cx="51" cy="75" r="30" style="fill:none;stroke:#000;stroke-linecap:round;stroke-linejoin:round;stroke-width:6px"/><path d="M73.5,94.7a30.0509,30.0509,0,1,0,0-39.3" style="fill:none;stroke:#000;stroke-linejoin:round;stroke-width:6px"/><path d="M42,99H36v1.8a26.5793,26.5793,0,0,0,6,2.6V99Z" style="fill:#000"/><path d="M66,99H60v4.5a32.0027,32.0027,0,0,0,6-2.6V99Z" style="fill:#000"/><path d="M78,84H72v6h4.8c.4-.7.8-1.4,1.2-2.2V84Z" style="fill:#000"/><path d="M76.8,60H72v6h6V62.2c-.4-.8-.8-1.5-1.2-2.2Z" style="fill:#000"/><path d="M30,84H24v3.8c.4.7.8,1.5,1.2,2.2H30V84Z" style="fill:#000"/><path d="M30,60H25.2c-.4.7-.8,1.4-1.2,2.2V66h6V60Z" style="fill:#000"/><rect width="144" height="144" style="fill:none"/></svg>