<svg xmlns="http://www.w3.org/2000/svg" viewBox="0 0 144 144"><path d="M108.2,85.3c14-3.8,14.2-19.6,21.4-19.6s7.4,27.9-9.1,44.5" style="fill:none;stroke:#000;stroke-linejoin:round;stroke-width:6px"/><path d="M88.4,89l16.3-4.4a3.9122,3.9122,0,0,1,4.5,2l10.6,20.8a3.9675,3.9675,0,0,1-1.4,5.1c-4.1,2.6-12,6.9-20.1,7.4" style="fill:none;stroke:#000;stroke-linejoin:round;stroke-width:6px"/><path d="M35.8,85.3c-14-3.8-14.2-19.6-21.4-19.6S7,93.6,23.5,110.2" style="fill:none;stroke:#000;stroke-linejoin:round;stroke-width:6px"/><path d="M55.6,89,39.3,84.6a3.9122,3.9122,0,0,0-4.5,2L24.2,107.4a3.9675,3.9675,0,0,0,1.4,5.1c4.1,2.6,12,6.9,20.1,7.4" style="fill:none;stroke:#000;stroke-linejoin:round;stroke-width:6px"/><path d="M88.3,89.8A3.9919,3.9919,0,0,0,84.5,87H58.8A4.0524,4.0524,0,0,0,55,89.8l-9.9,28.6a4.0029,4.0029,0,0,0,2.4,4.9,66.7844,66.7844,0,0,0,48.2,0,3.9588,3.9588,0,0,0,2.4-4.9Z" style="fill:none;stroke:#000;stroke-linejoin:round;stroke-width:6px"/><polyline points="39 84 39 27 99 27 99 86.1" style="fill:none;stroke:#000;stroke-linecap:round;stroke-linejoin:round;stroke-width:6px"/><path d="M99,33h9a15,15,0,0,1,0,30H99" style="fill:none;stroke:#000;stroke-linecap:round;stroke-linejoin:round;stroke-width:6px"/><rect width="144" height="144" style="fill:none"/></svg>