<svg xmlns="http://www.w3.org/2000/svg" viewBox="0 0 144 144"><path d="M126,135H18c-11.9,0-11.9-18,0-18H126C137.9,117,137.9,135,126,135Z" style="fill:none;stroke:#000;stroke-linecap:round;stroke-linejoin:round;stroke-width:6px"/><path d="M105.9,99.2A35.1468,35.1468,0,0,0,108,87,36,36,0,1,0,38,98.9" style="fill:none;stroke:#000;stroke-linecap:round;stroke-linejoin:round;stroke-width:6px"/><circle cx="72" cy="21" r="18" style="fill:none;stroke:#000;stroke-linejoin:round;stroke-width:6px"/><line x1="54" y1="21" x2="90" y2="21" style="fill:none;stroke:#000;stroke-linecap:round;stroke-linejoin:round;stroke-width:6px"/><line x1="72" y1="39" x2="72" y2="51" style="fill:none;stroke:#000;stroke-linecap:round;stroke-linejoin:round;stroke-width:6px"/><path d="M55.5,55A34.997,34.997,0,0,0,39,51a36,36,0,0,0-19.9,66H124.9A36,36,0,0,0,105,51a35.2919,35.2919,0,0,0-16.5,4" style="fill:none;stroke:#000;stroke-linejoin:round;stroke-width:6px"/><rect width="144" height="144" style="fill:none"/></svg>