<svg xmlns="http://www.w3.org/2000/svg" viewBox="0 0 144 144.025"><polyline points="98.2 20.225 51 66.725 51 93.025 77.5 93.025 124.2 45.925" style="fill:none;stroke:#000;stroke-linejoin:round;stroke-width:6px"/><path d="M95.9,5.6a8.993,8.993,0,0,0,0,12.7L125.6,48a8.98,8.98,0,0,0,12.7-12.7L108.7,5.6A9.1144,9.1144,0,0,0,95.9,5.6Z" transform="translate(0 0.025)" style="fill:none;stroke:#000;stroke-linejoin:round;stroke-width:6px"/><line x1="52.1" y1="92.125" x2="26.8" y2="117.425" style="fill:none;stroke:#000;stroke-linecap:round;stroke-linejoin:round;stroke-width:6px"/><polygon points="22.3 113.425 30.8 121.825 22.3 138.825 5.4 121.825 22.3 113.425" style="fill:none;stroke:#000;stroke-linecap:round;stroke-linejoin:round;stroke-width:6px"/><line x1="69" y1="49.725" x2="94.5" y2="75.225" style="fill:none;stroke:#000;stroke-linecap:round;stroke-linejoin:round;stroke-width:6px"/><rect y="0.025" width="144" height="144" style="fill:none"/></svg>