<svg xmlns="http://www.w3.org/2000/svg" viewBox="0 0 144 144"><polygon points="51 51 30 33 15 57 39 141 75 141 51 51" style="fill:none;stroke:#000;stroke-linejoin:round;stroke-width:6px"/><polyline points="45 79.6 38.6 55.7 33 50.9" style="fill:none;stroke:#000;stroke-linecap:round;stroke-linejoin:round;stroke-width:6px"/><polyline points="101.9 47.7 99 21 84 3 63 27 60 84.8" style="fill:none;stroke:#000;stroke-linejoin:round;stroke-width:6px"/><polyline points="89.7 47.7 88.3 28.9 83.8 23.5" style="fill:none;stroke:#000;stroke-linecap:round;stroke-linejoin:round;stroke-width:6px"/><polyline points="75 141 111 141 141 51 132 21 105 39 72.4 130.8" style="fill:none;stroke:#000;stroke-linejoin:round;stroke-width:6px"/><polyline points="117.2 83.7 128.5 49.6 125.1 38.2" style="fill:none;stroke:#000;stroke-linecap:round;stroke-linejoin:round;stroke-width:6px"/><polygon points="121.3 110.2 141 93 135 141 111 141 121.3 110.2" style="fill:none;stroke:#000;stroke-linejoin:round;stroke-width:6px"/><polyline points="39 141 15 141 3 87 35.9 129.3" style="fill:none;stroke:#000;stroke-linejoin:round;stroke-width:6px"/><rect width="144" height="144" style="fill:none"/></svg>