<svg xmlns="http://www.w3.org/2000/svg" viewBox="0 0 144 144.1"><rect x="15" y="15" width="114" height="114" style="fill:none;stroke:#000;stroke-linejoin:round;stroke-width:6px"/><rect x="3" y="3" width="138" height="12" style="fill:none;stroke:#000;stroke-linejoin:round;stroke-width:6px"/><line x1="15" y1="129" x2="15" y2="141.1" style="fill:none;stroke:#000;stroke-linecap:round;stroke-linejoin:round;stroke-width:6px"/><line x1="129" y1="129" x2="129" y2="141.1" style="fill:none;stroke:#000;stroke-linecap:round;stroke-linejoin:round;stroke-width:6px"/><line x1="15" y1="99" x2="129" y2="99" style="fill:none;stroke:#000;stroke-linejoin:round;stroke-width:6px"/><rect x="27" y="27" width="36" height="60" style="fill:none;stroke:#000;stroke-linejoin:round;stroke-width:6px"/><rect x="81" y="27" width="36" height="60" style="fill:none;stroke:#000;stroke-linejoin:round;stroke-width:6px"/><path d="M72,108a6,6,0,1,0,6,6,6.0176,6.0176,0,0,0-6-6Z" style="fill:#000"/><path d="M96,48a6,6,0,1,0,6,6,6.0176,6.0176,0,0,0-6-6Z" style="fill:#000"/><path d="M48,48a6,6,0,1,0,6,6,6.0176,6.0176,0,0,0-6-6Z" style="fill:#000"/><rect width="144" height="144" style="fill:none"/></svg>