<svg xmlns="http://www.w3.org/2000/svg" viewBox="0 0 144 144"><rect x="9" y="45" width="126" height="84" style="fill:none;stroke:#000;stroke-linecap:round;stroke-linejoin:round;stroke-width:6px"/><line x1="9" y1="129" x2="9" y2="141" style="fill:none;stroke:#000;stroke-linecap:round;stroke-linejoin:round;stroke-width:6px"/><line x1="135" y1="129" x2="135" y2="141" style="fill:none;stroke:#000;stroke-linecap:round;stroke-linejoin:round;stroke-width:6px"/><rect x="3" y="27" width="138" height="18" style="fill:none;stroke:#000;stroke-linecap:round;stroke-linejoin:round;stroke-width:6px"/><rect x="21" y="93" width="102" height="24" style="fill:none;stroke:#000;stroke-linecap:round;stroke-linejoin:round;stroke-width:6px"/><rect x="81" y="57" width="42" height="24" style="fill:none;stroke:#000;stroke-linecap:round;stroke-linejoin:round;stroke-width:6px"/><rect x="21" y="57" width="42" height="24" style="fill:none;stroke:#000;stroke-linecap:round;stroke-linejoin:round;stroke-width:6px"/><path d="M72,102a2.9465,2.9465,0,0,0-3,3,3.0085,3.0085,0,0,0,3,3,3.0759,3.0759,0,0,0,3-3,3.0085,3.0085,0,0,0-3-3Z" style="fill:#000"/><path d="M42,66a2.9465,2.9465,0,0,0-3,3,3,3,0,0,0,6,0,2.9465,2.9465,0,0,0-3-3Z" style="fill:#000"/><path d="M102,66a2.9465,2.9465,0,0,0-3,3,3.0085,3.0085,0,0,0,3,3,3.0759,3.0759,0,0,0,3-3,3.0085,3.0085,0,0,0-3-3Z" style="fill:#000"/><rect width="144" height="144" style="fill:none"/></svg>