<svg xmlns="http://www.w3.org/2000/svg" viewBox="0 0 144 144"><polyline points="115.4 104.5 105 141 39 141 28.4 103.9" style="fill:none;stroke:#000;stroke-linejoin:round;stroke-width:6px"/><line x1="60" y1="141" x2="53.7" y2="96.4" style="fill:none;stroke:#000;stroke-linejoin:round;stroke-width:6px"/><line x1="84" y1="141" x2="90.3" y2="96.7" style="fill:none;stroke:#000;stroke-linejoin:round;stroke-width:6px"/><path d="M89.5,47.2c21.6,5.2,39.6,19.3,39.6,36.8,0,12.4-8.7,21.8-21.1,21.8a22.7582,22.7582,0,0,1-18-9.5,22.2154,22.2154,0,0,1-18,8.9A22.4807,22.4807,0,0,1,54,96a22.3909,22.3909,0,0,1-18,9.1c-12.4,0-21-8.6-21-21,0-17.7,17.5-31.7,38.9-36.8l.8-.3" style="fill:none;stroke:#000;stroke-linejoin:round;stroke-width:6px"/><circle cx="72" cy="42" r="18" style="fill:none;stroke:#000;stroke-linejoin:round;stroke-width:6px"/><path d="M72,24A18.0529,18.0529,0,0,1,90,6" style="fill:none;stroke:#000;stroke-linecap:round;stroke-linejoin:round;stroke-width:6px"/><rect width="144" height="144" style="fill:none"/></svg>