<svg xmlns="http://www.w3.org/2000/svg" viewBox="0 0 144 144"><path d="M48.3,140.9a6.0093,6.0093,0,0,1,5.6-6c32.9-2.7,54.4-29.9,54.4-62.9,0-33.3-21.9-60.5-55.3-62.8a5.1,5.1,0,0,1-4.7-5V3h-12v7.5a11.0586,11.0586,0,0,0,9.9,11c37,3.8,47.1,29.2,47.1,50.6,0,20.2-10.2,46.3-46.9,50.4a11.29,11.29,0,0,0-10.1,11.3V141l12-.1Z" style="fill:none;stroke:#000;stroke-linejoin:round;stroke-width:6px"/><line x1="3.3" y1="69" x2="137.7" y2="69" style="fill:none;stroke:#000;stroke-linecap:round;stroke-linejoin:round;stroke-width:6px"/><polyline points="117.4 48.3 138.2 69.2 117.3 90" style="fill:none;stroke:#000;stroke-linecap:round;stroke-linejoin:round;stroke-width:6px"/><polyline points="40.2 19.5 3 69 39.3 125.8" style="fill:none;stroke:#000;stroke-linejoin:round;stroke-width:6px"/><rect width="144" height="144" style="fill:none"/></svg>