<svg xmlns="http://www.w3.org/2000/svg" viewBox="0 0 144 144"><path d="M135,110.3c-13,3.1-21.1-11.9-21.1-11.9s-6.2,12.3-18.8,12.3c-12.1,0-18.8-12.3-18.8-12.3S69.7,111,57,111" style="fill:none;stroke:#000;stroke-linecap:round;stroke-linejoin:round;stroke-width:6px"/><path d="M135,134.5c-13,3.1-21.1-11.9-21.1-11.9S107.7,135,95.1,135c-12.1,0-18.8-12.3-18.8-12.3a27.829,27.829,0,0,1-8,8.9" style="fill:none;stroke:#000;stroke-linecap:round;stroke-linejoin:round;stroke-width:6px"/><path d="M135,83.3c-13,3.1-21.1-11.9-21.1-11.9s-6.2,12.3-18.8,12.3C83,83.7,76.3,71.4,76.3,71.4S69.7,84,57,84" style="fill:none;stroke:#000;stroke-linecap:round;stroke-linejoin:round;stroke-width:6px"/><path d="M63,141S30,117,30,45H3v96Z" style="fill:none;stroke:#000;stroke-linecap:round;stroke-linejoin:round;stroke-width:6px"/><rect width="144" height="144" style="fill:none"/></svg>