<svg xmlns="http://www.w3.org/2000/svg" viewBox="0 0 144 144"><polyline points="12 18 12 132 125.6 132" style="fill:none;stroke:#000;stroke-linecap:round;stroke-linejoin:round;stroke-width:6px"/><path d="M12,132c0-12.13,9-56,24-56,12.23,0,14.8,20,28,20,21,0,19.07-55,44.27-55C119.9,41,124,49,124,49" style="fill:none;stroke:#000;stroke-linecap:round;stroke-linejoin:round;stroke-width:6px"/><polygon points="12 3 3 18 21 18 12 3" style="fill:none;stroke:#000;stroke-linecap:round;stroke-linejoin:round;stroke-width:6px"/><path d="M33,45a3,3,0,0,0,0,6,3,3,0,0,0,0-6Z" style="fill:#000"/><path d="M61,64a3,3,0,1,0,3,3,2.8343,2.8343,0,0,0-3-3Z" style="fill:#000"/><path d="M39,109a3,3,0,0,0,0,6,3,3,0,0,0,0-6Z" style="fill:#000"/><path d="M81.6,103.2a3,3,0,1,0,3,3,3.2142,3.2142,0,0,0-3-3Z" style="fill:#000"/><path d="M118.8,94.2a3,3,0,1,0,3,3,2.8343,2.8343,0,0,0-3-3Z" style="fill:#000"/><path d="M85,28a2.8343,2.8343,0,0,0-3,3,3,3,0,0,0,6,0,2.8343,2.8343,0,0,0-3-3Z" style="fill:#000"/><path d="M106,51a3,3,0,1,0,3,3,3.2142,3.2142,0,0,0-3-3Z" style="fill:#000"/><path d="M98.4,79.2a3,3,0,1,0,3,3,2.8343,2.8343,0,0,0-3-3Z" style="fill:#000"/><polygon points="141 132 126 123 126 141 141 132" style="fill:none;stroke:#000;stroke-linecap:round;stroke-linejoin:round;stroke-width:6px"/><rect width="144" height="144" style="fill:none"/></svg>