<svg xmlns="http://www.w3.org/2000/svg" viewBox="0 0 144 144"><circle cx="75" cy="18" r="15" style="fill:none;stroke:#000;stroke-linecap:round;stroke-linejoin:round;stroke-width:6px"/><polyline points="96 15 72 15 64.9 29.1" style="fill:none;stroke:#000;stroke-linecap:round;stroke-linejoin:round;stroke-width:6px"/><path d="M117,105a18.0529,18.0529,0,0,1,18,18H69v-9A14.98,14.98,0,0,0,54,99H31.5A16.5163,16.5163,0,0,0,15,115.5V123" style="fill:none;stroke:#000;stroke-linecap:round;stroke-linejoin:round;stroke-width:6px"/><polyline points="108 72 117 72 117 123" style="fill:none;stroke:#000;stroke-linecap:round;stroke-linejoin:round;stroke-width:6px"/><circle cx="39" cy="126" r="12" style="fill:none;stroke:#000;stroke-linecap:round;stroke-linejoin:round;stroke-width:6px"/><path d="M129,126a12,12,0,0,1-24,0" style="fill:none;stroke:#000;stroke-linecap:round;stroke-linejoin:round;stroke-width:6px"/><line x1="54" y1="99" x2="78" y2="99" style="fill:none;stroke:#000;stroke-linecap:round;stroke-linejoin:round;stroke-width:6px"/><rect x="3" y="45" width="42" height="42" style="fill:none;stroke:#000;stroke-linecap:round;stroke-linejoin:round;stroke-width:6px"/><polyline points="15 75 15 69 27 57 33 57" style="fill:none;stroke:#000;stroke-linecap:round;stroke-linejoin:round;stroke-width:6px"/><polyline points="117 78 129 72 129 93 117 87" style="fill:none;stroke:#000;stroke-linecap:round;stroke-linejoin:round;stroke-width:6px"/><line x1="45" y1="9" x2="30" y2="9" style="fill:none;stroke:#000;stroke-linecap:round;stroke-linejoin:round;stroke-width:6px"/><line x1="18" y1="9" x2="12" y2="9" style="fill:none;stroke:#000;stroke-linecap:round;stroke-linejoin:round;stroke-width:6px"/><line x1="45" y1="27" x2="21" y2="27" style="fill:none;stroke:#000;stroke-linecap:round;stroke-linejoin:round;stroke-width:6px"/><line x1="9" y1="27" x2="3" y2="27" style="fill:none;stroke:#000;stroke-linecap:round;stroke-linejoin:round;stroke-width:6px"/><path d="M99,108a6,6,0,0,1-12,0s0-12-2.7-16.7c-1.8-3-5.5-4.4-9.3-4.4H66a8.9626,8.9626,0,0,1-9-9V57A12.0353,12.0353,0,0,1,69,45a29.9449,29.9449,0,0,1,9.1,1.6L108,60a2.99,2.99,0,0,1,1.1,2.3,2.9465,2.9465,0,0,1-3,3L81,57V72h1.5C90,72,99,78,99,85.5Z" style="fill:none;stroke:#000;stroke-linecap:round;stroke-linejoin:round;stroke-width:6px"/><rect width="144" height="144" style="fill:none"/></svg>