<svg xmlns="http://www.w3.org/2000/svg" viewBox="0 0 144 144.2"><circle cx="72.3" cy="51.3" r="23.9" style="fill:none;stroke:#000;stroke-linejoin:round;stroke-width:6px"/><path d="M56.5,69.2h-7a11.7543,11.7543,0,0,0-9.6,4.9,12.0142,12.0142,0,0,0-1.8,10.7l17.4,56.4H89.2l17.4-56.4a12.3849,12.3849,0,0,0-1.8-10.7,11.8921,11.8921,0,0,0-9.6-4.9h-7" style="fill:none;stroke:#000;stroke-linejoin:round;stroke-width:6px"/><path d="M54,9.1a19.4317,19.4317,0,0,0-1.4,25.2L54,36.1" style="fill:none;stroke:#000;stroke-linecap:round;stroke-linejoin:round;stroke-width:6px"/><path d="M90.6,9.1A19.4317,19.4317,0,0,1,92,34.3l-1.4,1.8" style="fill:none;stroke:#000;stroke-linecap:round;stroke-linejoin:round;stroke-width:6px"/><path d="M129,78.1v24a20.9974,20.9974,0,0,1-21,21H94.7" style="fill:none;stroke:#000;stroke-linejoin:round;stroke-width:6px"/><polyline points="27 45 27 75 3 75 3 45" style="fill:none;stroke:#000;stroke-linecap:round;stroke-linejoin:round;stroke-width:6px"/><line x1="15" y1="33" x2="15" y2="141" style="fill:none;stroke:#000;stroke-linecap:round;stroke-linejoin:round;stroke-width:6px"/><polyline points="115.3 88.4 129 78.1 140.7 88.5" style="fill:none;stroke:#000;stroke-linecap:round;stroke-linejoin:round;stroke-width:6px"/><rect width="144" height="144" style="fill:none"/></svg>