<svg xmlns="http://www.w3.org/2000/svg" viewBox="0 0 144 144.1"><path d="M99,52.7c0-11.2-7.3-20.1-16.2-20.1A16.2557,16.2557,0,0,0,69,40.2a16.0847,16.0847,0,0,0-13.7-7.6c-9,0-16.3,8.9-16.3,20.1,0,12.2,3.9,19.9,8.9,24.9A51.0866,51.0866,0,0,0,44,97.7a56.4581,56.4581,0,0,0,1.1,11.1,3.31,3.31,0,0,0,3.2,2.6,3.3743,3.3743,0,0,0,3.4-3C53.1,95.9,60.3,86.5,69,86.5S84.9,96,86.3,108.6a3.2626,3.2626,0,0,0,3.3,2.9,3.5175,3.5175,0,0,0,3.4-2.7,56.2006,56.2006,0,0,0,1.1-11,51.0866,51.0866,0,0,0-3.9-20.1C95.1,72.6,99,64.8,99,52.7Z" transform="translate(0 0)" style="fill:none;stroke:#000;stroke-linejoin:round;stroke-width:6px"/><path d="M69,3h-.1C54,18,9,30.1,9,30.1,9,77.9,12,119.9,69,141c57-21.1,60-63.1,60-110.9C129,30.1,84,18,69,3Z" transform="translate(0 0)" style="fill:none;stroke:#000;stroke-linecap:round;stroke-linejoin:round;stroke-width:6px"/><rect y="0.1" width="144" height="144" style="fill:none"/></svg>