<svg xmlns="http://www.w3.org/2000/svg" viewBox="0 0 144 144"><path d="M123,41.1C123,22,110.6,6.9,95.4,6.9A27.6988,27.6988,0,0,0,72,19.8,27.6988,27.6988,0,0,0,48.6,6.9C33.4,6.9,21,22,21,41.1,21,61.8,27.6,75,36.1,83.4a87.972,87.972,0,0,0-6.6,34.2,96.1133,96.1133,0,0,0,1.9,18.9,5.4952,5.4952,0,0,0,5.5,4.4,5.7682,5.7682,0,0,0,5.8-5.2C45,114.6,57.2,98.5,72,98.5s27.1,16.2,29.4,37.5a5.5537,5.5537,0,0,0,5.6,5,5.8768,5.8768,0,0,0,5.7-4.7,94.0767,94.0767,0,0,0,1.9-18.7A87.972,87.972,0,0,0,108,83.4C116.4,75,123,61.8,123,41.1Z" style="fill:none;stroke:#000;stroke-linejoin:round;stroke-width:6px"/><polygon points="63 69 63 81 81 81 81 69 93 69 93 51 81 51 81 39 63 39 63 51 51 51 51 69 63 69" style="fill:none;stroke:#000;stroke-linejoin:round;stroke-width:6px"/><rect width="144" height="144" style="fill:none"/></svg>