<svg xmlns="http://www.w3.org/2000/svg" viewBox="0 0 144 144"><path d="M108,51.8V60c6,3,3,18-6,18,0,18-21,30-30,30S42,96,42,78c-9,0-12-15-6-18V51.8" style="fill:none;stroke:#000;stroke-linejoin:round;stroke-width:6px"/><line x1="69" y1="93" x2="75" y2="93" style="fill:none;stroke:#000;stroke-linecap:round;stroke-linejoin:round;stroke-width:6px"/><path d="M72,54a308.3982,308.3982,0,0,1-60-6L39,33,54,3,72,15" style="fill:none;stroke:#000;stroke-linecap:round;stroke-linejoin:round;stroke-width:6px"/><path d="M72,54a308.3982,308.3982,0,0,0,60-6L105,33,90,3,72,15" style="fill:none;stroke:#000;stroke-linecap:round;stroke-linejoin:round;stroke-width:6px"/><path d="M66,60a6.0176,6.0176,0,0,1-6,6H54a6.0176,6.0176,0,0,1-6-6V54H66Z" style="fill:none;stroke:#000;stroke-linecap:round;stroke-linejoin:round;stroke-width:6px"/><path d="M96,60a6.0176,6.0176,0,0,1-6,6H84a6.0176,6.0176,0,0,1-6-6V54H96Z" style="fill:none;stroke:#000;stroke-linecap:round;stroke-linejoin:round;stroke-width:6px"/><path d="M27,141l9-18-18,3s3-30,3-45h9c0,33,56.3,60,66,60Z" style="fill:none;stroke:#000;stroke-linecap:round;stroke-linejoin:round;stroke-width:6px"/><path d="M20.4,99.6c-6,3-17.4,7.8-17.4,21.9V141H72" style="fill:none;stroke:#000;stroke-linejoin:round;stroke-width:6px"/><path d="M123.8,99.6c6,3,17.2,7.8,17.2,21.9V141H72" style="fill:none;stroke:#000;stroke-linejoin:round;stroke-width:6px"/><path d="M117,141l-9-18,18,3s-3-30-3-45h-9c-3,24-30.3,51.5-40,51.5" style="fill:none;stroke:#000;stroke-linejoin:round;stroke-width:6px"/><path d="M39,33a99.0255,99.0255,0,0,0,33,6,99.0255,99.0255,0,0,0,33-6" style="fill:none;stroke:#000;stroke-linejoin:round;stroke-width:6px"/><rect width="144" height="144" style="fill:none"/></svg>