<svg xmlns="http://www.w3.org/2000/svg" viewBox="0 0 144 144"><polyline points="87 54 87 36 39 18 39 51" style="fill:none;stroke:#000;stroke-linejoin:round;stroke-width:6px"/><polygon points="57 78 9 60 9 120 57 141 57 78" style="fill:none;stroke:#000;stroke-linecap:round;stroke-linejoin:round;stroke-width:6px"/><polygon points="57 78 105 60 105 120 57 141 57 78" style="fill:none;stroke:#000;stroke-linecap:round;stroke-linejoin:round;stroke-width:6px"/><polyline points="105 60 57 45 9 60" style="fill:none;stroke:#000;stroke-linecap:round;stroke-linejoin:round;stroke-width:6px"/><polyline points="87 36 135 18 135 78 105 90" style="fill:none;stroke:#000;stroke-linejoin:round;stroke-width:6px"/><polyline points="135 18 87 3 39 18" style="fill:none;stroke:#000;stroke-linecap:round;stroke-linejoin:round;stroke-width:6px"/><path d="M90,18a2.9465,2.9465,0,0,1-2.892,3q-.054.001-.108,0h0a2.9465,2.9465,0,0,1-3-2.892q-.001-.054,0-.108h0a2.9465,2.9465,0,0,1,2.892-3q.054-.001.108,0h0a2.9465,2.9465,0,0,1,3,2.892Q90.001,17.946,90,18Z" style="fill:none;stroke:#000;stroke-linejoin:round;stroke-width:6px"/><path d="M123,39a2.9465,2.9465,0,0,1-2.892,3q-.054.0011-.108,0h0a2.9465,2.9465,0,0,1-3-2.892q-.001-.054,0-.108h0a2.9465,2.9465,0,0,1,2.892-3q.054-.0011.108,0h0a2.9465,2.9465,0,0,1,3,2.892Q123.0011,38.946,123,39Z" style="fill:none;stroke:#000;stroke-linejoin:round;stroke-width:6px"/><path d="M123,69a2.9465,2.9465,0,0,1-2.892,3q-.054.001-.108,0h0a2.9465,2.9465,0,0,1-3-2.892q-.001-.054,0-.108h0a2.9465,2.9465,0,0,1,2.892-3q.054-.001.108,0h0a2.9465,2.9465,0,0,1,3,2.892Q123.0011,68.946,123,69Z" style="fill:none;stroke:#000;stroke-linejoin:round;stroke-width:6px"/><path d="M60,60a2.9465,2.9465,0,0,1-2.892,3q-.054.0011-.108,0h0a2.9465,2.9465,0,0,1-3-2.892q-.0011-.054,0-.108h0a2.9465,2.9465,0,0,1,2.892-3q.054-.0011.108,0h0a2.9465,2.9465,0,0,1,3,2.892Q60.0011,59.946,60,60Z" style="fill:none;stroke:#000;stroke-linejoin:round;stroke-width:6px"/><path d="M27,87a2.9465,2.9465,0,0,1-2.892,3q-.054.001-.108,0h0a2.9465,2.9465,0,0,1-3-2.892q-.001-.054,0-.108h0a2.9465,2.9465,0,0,1,2.892-3q.054-.001.108,0h0a2.9465,2.9465,0,0,1,3,2.892Q27.0011,86.946,27,87Z" style="fill:none;stroke:#000;stroke-linejoin:round;stroke-width:6px"/><path d="M45,117a2.9465,2.9465,0,0,1-2.892,3q-.054.001-.108,0h0a2.9465,2.9465,0,0,1-3-2.892q-.0011-.054,0-.108h0a2.9465,2.9465,0,0,1,2.892-3q.054-.001.108,0h0a2.9465,2.9465,0,0,1,3,2.892Q45.0011,116.946,45,117Z" style="fill:none;stroke:#000;stroke-linejoin:round;stroke-width:6px"/><path d="M75,117a2.9465,2.9465,0,0,1-2.892,3q-.054.001-.108,0h0a2.9465,2.9465,0,0,1-3-2.892q-.001-.054,0-.108h0a2.9465,2.9465,0,0,1,2.892-3q.054-.001.108,0h0a2.9465,2.9465,0,0,1,3,2.892Q75.001,116.946,75,117Z" style="fill:none;stroke:#000;stroke-linejoin:round;stroke-width:6px"/><path d="M84,102a2.9465,2.9465,0,0,1-2.892,3q-.054.001-.108,0h0a2.9465,2.9465,0,0,1-3-2.892q-.001-.054,0-.108h0a2.9465,2.9465,0,0,1,2.892-3q.054-.001.108,0h0a2.9465,2.9465,0,0,1,3,2.892Q84.001,101.946,84,102Z" style="fill:none;stroke:#000;stroke-linejoin:round;stroke-width:6px"/><path d="M93,87a2.9465,2.9465,0,0,1-2.892,3q-.054.001-.108,0h0a2.9465,2.9465,0,0,1-3-2.892q-.001-.054,0-.108h0a2.9465,2.9465,0,0,1,2.892-3q.054-.001.108,0h0a2.9465,2.9465,0,0,1,3,2.892Q93.001,86.946,93,87Z" style="fill:none;stroke:#000;stroke-linejoin:round;stroke-width:6px"/><rect width="144" height="144" style="fill:none"/></svg>