<svg xmlns="http://www.w3.org/2000/svg" viewBox="0 0 144 144"><path d="M141,57a12.0353,12.0353,0,0,0-12-12H111A12.0353,12.0353,0,0,1,99,33V15A12.0353,12.0353,0,0,0,87,3H57A12.0353,12.0353,0,0,0,45,15V33A12.0353,12.0353,0,0,1,33,45H15A12.0353,12.0353,0,0,0,3,57V87A12.0353,12.0353,0,0,0,15,99H33a12.0353,12.0353,0,0,1,12,12v18a12.0353,12.0353,0,0,0,12,12H87a12.0353,12.0353,0,0,0,12-12V111a12.0353,12.0353,0,0,1,12-12h18a12.0353,12.0353,0,0,0,12-12Z" style="fill:none;stroke:#000;stroke-linecap:round;stroke-linejoin:round;stroke-width:6px"/><polyline points="57.2 35.7 72 21 86.8 35.7" style="fill:none;stroke:#000;stroke-linecap:round;stroke-linejoin:round;stroke-width:6px"/><polyline points="108.2 57.3 123 72 108.2 86.7" style="fill:none;stroke:#000;stroke-linecap:round;stroke-linejoin:round;stroke-width:6px"/><polyline points="86.8 108.3 72 123 57.2 108.3" style="fill:none;stroke:#000;stroke-linecap:round;stroke-linejoin:round;stroke-width:6px"/><polyline points="35.8 86.7 21 72 35.8 57.3" style="fill:none;stroke:#000;stroke-linecap:round;stroke-linejoin:round;stroke-width:6px"/><rect width="144" height="144" style="fill:none"/></svg>