<svg xmlns="http://www.w3.org/2000/svg" viewBox="0 0 144 144"><circle cx="69" cy="74.9" r="45" style="fill:none;stroke:#000;stroke-linejoin:round;stroke-width:6px"/><path d="M112.6,82.2C105,91.4,88.3,97.8,69,97.8S33.1,91.4,25.5,82.3" style="fill:none;stroke:#000;stroke-linecap:round;stroke-linejoin:round;stroke-width:6px"/><path d="M25,68c7.4-9.5,24.3-16.1,44-16.1,19.3,0,35.9,6.4,43.5,15.5" style="fill:none;stroke:#000;stroke-linecap:round;stroke-linejoin:round;stroke-width:6px"/><path d="M61.8,118.2c-9.2-7.6-15.6-24.3-15.6-43.5,0-19.3,6.4-35.9,15.5-43.5" style="fill:none;stroke:#000;stroke-linecap:round;stroke-linejoin:round;stroke-width:6px"/><path d="M76.6,31.5c9,7.8,15.2,24.2,15.2,43.2,0,19.3-6.4,35.9-15.5,43.5" style="fill:none;stroke:#000;stroke-linecap:round;stroke-linejoin:round;stroke-width:6px"/><line x1="69" y1="30" x2="69" style="fill:none;stroke:#000;stroke-linejoin:round;stroke-width:6px"/><line x1="106.2" y1="17.7" x2="99.4" y2="27.6" style="fill:none;stroke:#000;stroke-linecap:round;stroke-linejoin:round;stroke-width:6px"/><line x1="134.2" y1="65.6" x2="122.2" y2="66.8" style="fill:none;stroke:#000;stroke-linecap:round;stroke-linejoin:round;stroke-width:6px"/><line x1="111.7" y1="127.6" x2="103.8" y2="118.6" style="fill:none;stroke:#000;stroke-linecap:round;stroke-linejoin:round;stroke-width:6px"/><line x1="25.4" y1="127.4" x2="33.3" y2="118.4" style="fill:none;stroke:#000;stroke-linecap:round;stroke-linejoin:round;stroke-width:6px"/><line x1="3.2" y1="65.3" x2="15.1" y2="66.5" style="fill:none;stroke:#000;stroke-linecap:round;stroke-linejoin:round;stroke-width:6px"/><line x1="33.2" y1="16.4" x2="39.7" y2="26.5" style="fill:none;stroke:#000;stroke-linecap:round;stroke-linejoin:round;stroke-width:6px"/><line x1="69" y1="120" x2="69" y2="30" style="fill:none;stroke:#000;stroke-linejoin:round;stroke-width:6px"/><line x1="24" y1="75" x2="114" y2="75" style="fill:none;stroke:#000;stroke-linejoin:round;stroke-width:6px"/><rect width="144" height="144" style="fill:none"/></svg>