<svg xmlns="http://www.w3.org/2000/svg" viewBox="0 0 144 144"><circle cx="70.4" cy="96" r="45" style="fill:none;stroke:#000;stroke-linecap:round;stroke-linejoin:round;stroke-width:6px"/><circle cx="70.4" cy="96" r="11.8" style="fill:none;stroke:#000;stroke-linecap:round;stroke-linejoin:round;stroke-width:6px"/><path d="M70.4,93a2.9465,2.9465,0,0,0-3,3,3,3,0,0,0,6,0,2.9465,2.9465,0,0,0-3-3Z" style="fill:none;stroke:#000;stroke-linejoin:round;stroke-width:6px"/><path d="M70.4,69.9A26.1188,26.1188,0,0,1,96.5,96" style="fill:none;stroke:#000;stroke-linecap:round;stroke-linejoin:round;stroke-width:6px"/><path d="M70.4,122.1A26.1188,26.1188,0,0,1,44.3,96" style="fill:none;stroke:#000;stroke-linecap:round;stroke-linejoin:round;stroke-width:6px"/><path d="M110.6,74.9C130.4,60,112.4,30,112.4,30s-12,12-18.1,12c.1-24-17.9-12-11.9-38.8-25.2,4.2-35.8,15.5-30,38.9-12-.1-24-12.1-24-12.1s-18,24,2,44.1" style="fill:none;stroke:#000;stroke-linecap:round;stroke-linejoin:round;stroke-width:6px"/><rect width="144" height="144" style="fill:none"/></svg>