<svg xmlns="http://www.w3.org/2000/svg" viewBox="0 0 144 144"><circle cx="72" cy="42" r="15" style="fill:none;stroke:#000;stroke-linejoin:round;stroke-width:6px"/><polygon points="15 99 129 99 141 141 3 141 15 99" style="fill:none;stroke:#000;stroke-linejoin:round;stroke-width:6px"/><ellipse cx="42.1" cy="120" rx="15" ry="9" style="fill:none;stroke:#000;stroke-linejoin:round;stroke-width:6px"/><ellipse cx="102" cy="120" rx="15" ry="9" style="fill:none;stroke:#000;stroke-linejoin:round;stroke-width:6px"/><path d="M45,27.1c0-12.1,10.4-24,27-24S99,15,99,27.1" style="fill:none;stroke:#000;stroke-linejoin:round;stroke-width:6px"/><path d="M99,27h6a12,12,0,0,1,0,24H99Z" style="fill:none;stroke:#000;stroke-linejoin:round;stroke-width:6px"/><path d="M45,27H38.8a12.0017,12.0017,0,0,0,0,24H45Z" style="fill:none;stroke:#000;stroke-linejoin:round;stroke-width:6px"/><path d="M45,90A20.9974,20.9974,0,0,1,66,69H78A20.9974,20.9974,0,0,1,99,90v9H45Z" style="fill:none;stroke:#000;stroke-linejoin:round;stroke-width:6px"/><rect width="144" height="144" style="fill:none"/></svg>