<svg xmlns="http://www.w3.org/2000/svg" viewBox="0 0 144 144"><path d="M54,57c0-3.3,2.7-3,6-3s6-.3,6,3" style="fill:none;stroke:#000;stroke-linecap:round;stroke-linejoin:round;stroke-width:6px"/><path d="M78,57c0-3.3,2.7-3,6-3s6-.3,6,3" style="fill:none;stroke:#000;stroke-linecap:round;stroke-linejoin:round;stroke-width:6px"/><path d="M56.3,93C30.5,97.4,3,96.5,3,121.5V141H141V121.5c0-25-26.9-23.9-53.6-28.5" style="fill:none;stroke:#000;stroke-linecap:round;stroke-linejoin:round;stroke-width:6px"/><path d="M72,99c9,0,30-12,30-30,9,0,9-18,0-18L99,36c-24,0-24-9-27-12-3,3-3,12-27,12L42,51c-9,0-9,18,0,18C42,87,63,99,72,99Z" style="fill:none;stroke:#000;stroke-linecap:round;stroke-linejoin:round;stroke-width:6px"/><path d="M108,55.6,111,33S114,3,72,3,33,33,33,33l3,22.5" style="fill:none;stroke:#000;stroke-linecap:round;stroke-linejoin:round;stroke-width:6px"/><circle cx="45" cy="120" r="9" style="fill:none;stroke:#000;stroke-linecap:round;stroke-linejoin:round;stroke-width:6px"/><line x1="45" y1="94.7" x2="45" y2="111" style="fill:none;stroke:#000;stroke-linecap:round;stroke-linejoin:round;stroke-width:6px"/><line x1="102.1" y1="95.1" x2="102" y2="105" style="fill:none;stroke:#000;stroke-linecap:round;stroke-linejoin:round;stroke-width:6px"/><path d="M93,129c-3,0-6-3-6-5.6v-9.6c0-5.9,3-8.8,15-8.8" style="fill:none;stroke:#000;stroke-linecap:round;stroke-linejoin:round;stroke-width:6px"/><path d="M111,129c3,0,6-3,6-5.6v-9.6c0-5.9-3-8.8-15-8.8" style="fill:none;stroke:#000;stroke-linecap:round;stroke-linejoin:round;stroke-width:6px"/><line x1="69" y1="99" x2="69" y2="141" style="fill:none;stroke:#000;stroke-linecap:round;stroke-linejoin:round;stroke-width:6px"/><rect width="144" height="144" style="fill:none"/></svg>