<svg xmlns="http://www.w3.org/2000/svg" viewBox="0 0 144 144"><path d="M89.2,93.6A21.8,21.8,0,1,0,111,71.8,21.8,21.8,0,1,1,132.8,50" style="fill:none;stroke:#000;stroke-linecap:round;stroke-linejoin:round;stroke-width:6px"/><line x1="111" y1="15.3" x2="111" y2="128.4" style="fill:none;stroke:#000;stroke-linecap:round;stroke-linejoin:round;stroke-width:6px"/><path d="M72,141A69,69,0,0,1,72,3h3V141Z" style="fill:none;stroke:#000;stroke-linejoin:round;stroke-width:6px"/><line x1="11.4" y1="105" x2="75" y2="105" style="fill:none;stroke:#000;stroke-linejoin:round;stroke-width:6px"/><line x1="11.4" y1="39" x2="75" y2="39" style="fill:none;stroke:#000;stroke-linejoin:round;stroke-width:6px"/><line x1="3.1" y1="69" x2="75" y2="69" style="fill:none;stroke:#000;stroke-linejoin:round;stroke-width:6px"/><path d="M69.3,140.9A99.5627,99.5627,0,0,1,42,72,99.1388,99.1388,0,0,1,69.4,3.1" style="fill:none;stroke:#000;stroke-linejoin:round;stroke-width:6px"/><rect width="144" height="144" style="fill:none"/></svg>