<svg xmlns="http://www.w3.org/2000/svg" viewBox="0 0 144 144"><path d="M141,141V123c-3,3-11.8,14.2-27-6,0,0-7,12-21,12-14.6,0-21-12-21-12s-6.4,12-21,12c-14,0-21-12-21-12-15.2,20.2-24,9-27,6v18Z" style="fill:none;stroke:#000;stroke-linejoin:round;stroke-width:6px"/><path d="M39,36a3,3,0,1,0,3,3,2.9465,2.9465,0,0,0-3-3Z" style="fill:#000"/><path d="M124.3,81.7c0-36.9-21.3-56.7-41-64.1C84,13,86.1,7,89.5,3.5c-30.9,0-39.5,5.1-44,12.4C22,21.7,10.5,39.6,15.7,53.5L5.5,66.9C2.5,71.1,9,75,13.3,72a121.9273,121.9273,0,0,1,20-11.4C35,63.6,43.6,77.3,59,77.3c-5.4-7.2-6.3-18.9-6.5-22.6C74,51.2,95,58.4,111.1,83.9q-9,7.2-12,20.4a2.1562,2.1562,0,0,0,3.4,2.2l15.1-11.7s8.6,5.1,18.1,10.9a2.2243,2.2243,0,0,0,3.3-2.2C136.9,89,124.3,81.7,124.3,81.7Z" style="fill:none;stroke:#000;stroke-linejoin:round;stroke-width:6px"/><rect width="144" height="144" style="fill:none"/></svg>