<svg xmlns="http://www.w3.org/2000/svg" viewBox="0 0 144 144.05"><path d="M56.5,137.6a11.83,11.83,0,0,1-16.7,0L6.5,104.2a11.83,11.83,0,0,1,0-16.7L81.6,12.4a11.83,11.83,0,0,1,16.7,0l33.4,33.4a11.83,11.83,0,0,1,0,16.7Z" style="fill:none;stroke:#000;stroke-linejoin:round;stroke-width:6px"/><line x1="43.5" y1="49.5" x2="94.5" y2="100.5" style="fill:none;stroke:#000;stroke-linejoin:round;stroke-width:6px"/><path d="M41.4,71.1a5.7563,5.7563,0,0,0-4.2,1.8,6.0977,6.0977,0,0,0,0,8.5,5.923,5.923,0,0,0,4.2,1.8,5.7563,5.7563,0,0,0,4.2-1.8,6.0977,6.0977,0,0,0,0-8.5,5.5978,5.5978,0,0,0-4.2-1.8Z" style="fill:#000"/><path d="M71.1,41.4a5.7563,5.7563,0,0,0-4.2,1.8,6.0977,6.0977,0,0,0,0,8.5,5.923,5.923,0,0,0,4.2,1.8,5.7563,5.7563,0,0,0,4.2-1.8,6.0977,6.0977,0,0,0,0-8.5,5.5978,5.5978,0,0,0-4.2-1.8Z" style="fill:#000"/><path d="M113.6,49.9a5.7563,5.7563,0,0,0-4.2,1.8,6.0977,6.0977,0,0,0,0,8.5,5.923,5.923,0,0,0,4.2,1.8,5.7563,5.7563,0,0,0,4.2-1.8,6.0977,6.0977,0,0,0,0-8.5,5.923,5.923,0,0,0-4.2-1.8Z" style="fill:#000"/><path d="M66.9,96.6a5.7563,5.7563,0,0,0-4.2,1.8,6.0977,6.0977,0,0,0,0,8.5,5.923,5.923,0,0,0,4.2,1.8,5.7563,5.7563,0,0,0,4.2-1.8,6.0977,6.0977,0,0,0,0-8.5,5.923,5.923,0,0,0-4.2-1.8Z" style="fill:#000"/><path d="M24.5,88.1a5.7563,5.7563,0,0,0-4.2,1.8,6.0977,6.0977,0,0,0,0,8.5,5.923,5.923,0,0,0,4.2,1.8,5.7563,5.7563,0,0,0,4.2-1.8,6.0977,6.0977,0,0,0,0-8.5,5.923,5.923,0,0,0-4.2-1.8Z" style="fill:#000"/><path d="M49.9,113.6a5.95,5.95,0,0,0-4.2,10.2,5.923,5.923,0,0,0,4.2,1.8,5.7563,5.7563,0,0,0,4.2-1.8,6.0977,6.0977,0,0,0,0-8.5,5.6567,5.6567,0,0,0-4.2-1.7Z" style="fill:#000"/><rect width="144" height="144" style="fill:none"/></svg>