<svg xmlns="http://www.w3.org/2000/svg" viewBox="0 0 144 144"><polyline points="89.7 51 117 51 117 111 72 111 21 111 21 51 48 51" style="fill:none;stroke:#000;stroke-linecap:round;stroke-linejoin:round;stroke-width:6px"/><path d="M90,39h30a8.9626,8.9626,0,0,1,9,9v75" style="fill:none;stroke:#000;stroke-linecap:round;stroke-linejoin:round;stroke-width:6px"/><path d="M9,123V48a8.9626,8.9626,0,0,1,9-9H48" style="fill:none;stroke:#000;stroke-linecap:round;stroke-linejoin:round;stroke-width:6px"/><path d="M81,123v6H57v-6H3v12a6.0176,6.0176,0,0,0,6,6H129a6.0176,6.0176,0,0,0,6-6V123Z" style="fill:none;stroke:#000;stroke-linecap:round;stroke-linejoin:round;stroke-width:6px"/><line x1="69" y1="90" x2="69" y2="3" style="fill:none;stroke:#000;stroke-linecap:round;stroke-linejoin:round;stroke-width:6px"/><polyline points="45 66 69 90 93 66" style="fill:none;stroke:#000;stroke-linecap:round;stroke-linejoin:round;stroke-width:6px"/><rect width="144" height="144" style="fill:none"/></svg>