<svg xmlns="http://www.w3.org/2000/svg" viewBox="0 0 144 144"><path d="M141,129a12.0353,12.0353,0,0,1-12,12H15A12.0353,12.0353,0,0,1,3,129V105A12.0353,12.0353,0,0,1,15,93H129a12.0353,12.0353,0,0,1,12,12Z" style="fill:none;stroke:#000;stroke-linecap:round;stroke-linejoin:round;stroke-width:6px"/><line x1="21" y1="123" x2="123" y2="123" style="fill:none;stroke:#000;stroke-linecap:round;stroke-linejoin:round;stroke-width:6px"/><path d="M111,108a3,3,0,0,0,0,6,3,3,0,0,0,0-6Z" style="fill:#000"/><path d="M123,108a3,3,0,0,0,0,6,3,3,0,0,0,0-6Z" style="fill:#000"/><line x1="69" y1="75" x2="69" y2="3" style="fill:none;stroke:#000;stroke-linecap:round;stroke-linejoin:round;stroke-width:6px"/><polyline points="102 42 69 75 36 42" style="fill:none;stroke:#000;stroke-linecap:round;stroke-linejoin:round;stroke-width:6px"/><rect width="144" height="144" style="fill:none"/></svg>