<svg xmlns="http://www.w3.org/2000/svg" viewBox="0 0 144 144"><path d="M123,126a15.1092,15.1092,0,0,1-15,15H30a15.1092,15.1092,0,0,1-15-15V18A15.1092,15.1092,0,0,1,30,3h78a15.1092,15.1092,0,0,1,15,15Z" style="fill:none;stroke:#000;stroke-linejoin:round;stroke-width:6px"/><line x1="15.2" y1="45" x2="123" y2="45" style="fill:none;stroke:#000;stroke-linejoin:round;stroke-width:6px"/><line x1="15.2" y1="93" x2="123" y2="93" style="fill:none;stroke:#000;stroke-linejoin:round;stroke-width:6px"/><polygon points="79.7 33 58.7 33 52.7 21 85.7 21 79.7 33" style="fill:none;stroke:#000;stroke-linejoin:round;stroke-width:6px"/><polygon points="79.7 75 58.7 75 52.7 63 85.7 63 79.7 75" style="fill:none;stroke:#000;stroke-linejoin:round;stroke-width:6px"/><polygon points="79.7 129 58.7 129 52.7 117 85.7 117 79.7 129" style="fill:none;stroke:#000;stroke-linejoin:round;stroke-width:6px"/><rect width="144" height="144" style="fill:none"/></svg>