<svg xmlns="http://www.w3.org/2000/svg" viewBox="0 0 144 144"><path d="M75,75h9c23.3,0,39-36,15-48,0,9.9-11.1,16.2-24,18-12.9-1.8-24-8.1-24-18C27,39,42.7,75,66,75h9" style="fill:none;stroke:#000;stroke-linejoin:round;stroke-width:6px"/><line x1="51" y1="27" x2="51" y2="3.1" style="fill:none;stroke:#000;stroke-linecap:round;stroke-linejoin:round;stroke-width:6px"/><line x1="99" y1="27" x2="99" y2="3" style="fill:none;stroke:#000;stroke-linecap:round;stroke-linejoin:round;stroke-width:6px"/><path d="M84,75c36,0,33,57,33,57a105.8775,105.8775,0,0,1-42,9,105.8775,105.8775,0,0,1-42-9S30,75,66,75" style="fill:none;stroke:#000;stroke-linejoin:round;stroke-width:6px"/><rect width="144" height="144" style="fill:none"/></svg>