<svg xmlns="http://www.w3.org/2000/svg" viewBox="0 0 144 144"><rect x="3" y="87" width="138" height="54" style="fill:none;stroke:#000;stroke-linejoin:round;stroke-width:6px"/><path d="M17.6,87,48,111s-23.8,30-23,30" style="fill:none;stroke:#000;stroke-linejoin:round;stroke-width:6px"/><polyline points="82.5 87 92.7 114 70.7 129.3 48 111 57 87" style="fill:none;stroke:#000;stroke-linejoin:round;stroke-width:6px"/><polyline points="92.7 114 117 103.2 141 141" style="fill:none;stroke:#000;stroke-linejoin:round;stroke-width:6px"/><line x1="3" y1="120" x2="33.8" y2="99.7" style="fill:none;stroke:#000;stroke-linejoin:round;stroke-width:6px"/><polyline points="105 141 117 103.2 132.4 87" style="fill:none;stroke:#000;stroke-linejoin:round;stroke-width:6px"/><circle cx="36" cy="30" r="27" style="fill:none;stroke:#000;stroke-linecap:round;stroke-linejoin:round;stroke-width:6px"/><line x1="111" y1="87" x2="111" y2="6" style="fill:none;stroke:#000;stroke-linecap:round;stroke-linejoin:round;stroke-width:6px"/><polyline points="111 42 123 36 129 12" style="fill:none;stroke:#000;stroke-linecap:round;stroke-linejoin:round;stroke-width:6px"/><line x1="123" y1="36" x2="141" y2="24" style="fill:none;stroke:#000;stroke-linecap:round;stroke-linejoin:round;stroke-width:6px"/><polyline points="111 60 99 54 93 30" style="fill:none;stroke:#000;stroke-linecap:round;stroke-linejoin:round;stroke-width:6px"/><line x1="99" y1="54" x2="81" y2="42" style="fill:none;stroke:#000;stroke-linecap:round;stroke-linejoin:round;stroke-width:6px"/><rect width="144" height="144" style="fill:none"/></svg>