<svg xmlns="http://www.w3.org/2000/svg" viewBox="0 0 144 144.2"><path d="M135,24c0,11.6-31,21-65.8,21S3,35.6,3,24,34.4,3,69.2,3,135,12.4,135,24Z" style="fill:none;stroke:#000;stroke-linejoin:round;stroke-width:6px"/><path d="M3,24V42c0,34.8,31.2,63,66,63s66-28.2,66-63V24" style="fill:none;stroke:#000;stroke-linejoin:round;stroke-width:6px"/><line x1="69" y1="141" x2="69" y2="105" style="fill:none;stroke:#000;stroke-linecap:round;stroke-linejoin:round;stroke-width:6px"/><line x1="116.8" y1="141.2" x2="103.2" y2="96" style="fill:none;stroke:#000;stroke-linecap:round;stroke-linejoin:round;stroke-width:6px"/><line x1="21.7" y1="141.2" x2="35.3" y2="96" style="fill:none;stroke:#000;stroke-linecap:round;stroke-linejoin:round;stroke-width:6px"/><path d="M63,45H75V69a6,6,0,0,1-12,0Z" style="fill:none;stroke:#000;stroke-linecap:round;stroke-linejoin:round;stroke-width:6px"/><path d="M4.7,55.9A8.4807,8.4807,0,0,0,8.9,57,6.1042,6.1042,0,0,0,15,51V35.8" style="fill:none;stroke:#000;stroke-linecap:round;stroke-linejoin:round;stroke-width:6px"/><path d="M133.3,55.9a8.4807,8.4807,0,0,1-4.2,1.1,6.1042,6.1042,0,0,1-6.1-6V35.8" style="fill:none;stroke:#000;stroke-linecap:round;stroke-linejoin:round;stroke-width:6px"/><rect width="144" height="144" style="fill:none"/></svg>