<svg xmlns="http://www.w3.org/2000/svg" viewBox="0 0 144 144"><line x1="57" y1="105" x2="87" y2="105" style="fill:none;stroke:#000;stroke-linecap:round;stroke-linejoin:round;stroke-width:6px"/><path d="M27,135a6.0176,6.0176,0,0,0,6,6H51a6.0176,6.0176,0,0,0,6-6V69a6.0176,6.0176,0,0,0-6-6H33a6.0176,6.0176,0,0,0-6,6Z" style="fill:none;stroke:#000;stroke-linecap:round;stroke-linejoin:round;stroke-width:6px"/><path d="M9,117a6.0176,6.0176,0,0,0,6,6H27V81H15a6.0176,6.0176,0,0,0-6,6Z" style="fill:none;stroke:#000;stroke-linecap:round;stroke-linejoin:round;stroke-width:6px"/><line x1="9" y1="102" x2="3" y2="102" style="fill:none;stroke:#000;stroke-linecap:round;stroke-linejoin:round;stroke-width:6px"/><path d="M117,135a6.0176,6.0176,0,0,1-6,6H93a6.0176,6.0176,0,0,1-6-6V69a6.0176,6.0176,0,0,1,6-6h18a6.0176,6.0176,0,0,1,6,6Z" style="fill:none;stroke:#000;stroke-linecap:round;stroke-linejoin:round;stroke-width:6px"/><path d="M135,117a6.0176,6.0176,0,0,1-6,6H117V81h12a6.0176,6.0176,0,0,1,6,6Z" style="fill:none;stroke:#000;stroke-linecap:round;stroke-linejoin:round;stroke-width:6px"/><line x1="135" y1="102" x2="141" y2="102" style="fill:none;stroke:#000;stroke-linecap:round;stroke-linejoin:round;stroke-width:6px"/><rect width="144" height="144" style="fill:none"/></svg>