<svg xmlns="http://www.w3.org/2000/svg" viewBox="0 0 144.025 144.025"><line x1="82.025" y1="49.3" x2="48.125" y2="83.2" style="fill:none;stroke:#000;stroke-linejoin:round;stroke-width:6px"/><line x1="94.725" y1="62" x2="60.825" y2="96" style="fill:none;stroke:#000;stroke-linejoin:round;stroke-width:6px"/><path d="M9.9,96A8.98,8.98,0,0,1,22.6,83.3l38.2,38.2a8.98,8.98,0,1,1-12.7,12.7Z" transform="translate(0.025)" style="fill:none;stroke:#000;stroke-linejoin:round;stroke-width:6px"/><path d="M14.1,74.7A8.98,8.98,0,1,1,26.8,62L82,117.2a8.98,8.98,0,1,1-12.7,12.7Z" transform="translate(0.025)" style="fill:none;stroke:#000;stroke-linejoin:round;stroke-width:6px"/><path d="M60.8,28.1A8.98,8.98,0,0,1,73.5,15.4l55.1,55.2a8.98,8.98,0,0,1-12.7,12.7Z" transform="translate(0.025)" style="fill:none;stroke:#000;stroke-linejoin:round;stroke-width:6px"/><path d="M5.6,117.2a8.98,8.98,0,1,1,12.7-12.7l21.2,21.2a8.98,8.98,0,1,1-12.7,12.7Z" transform="translate(0.025)" style="fill:none;stroke:#000;stroke-linejoin:round;stroke-width:6px"/><path d="M82,23.8A8.98,8.98,0,1,1,94.7,11.1l38.2,38.2A8.98,8.98,0,1,1,120.2,62Z" transform="translate(0.025)" style="fill:none;stroke:#000;stroke-linejoin:round;stroke-width:6px"/><path d="M103.2,19.6A8.98,8.98,0,0,1,115.9,6.9l21.2,21.2a8.98,8.98,0,0,1-12.7,12.7Z" transform="translate(0.025)" style="fill:none;stroke:#000;stroke-linejoin:round;stroke-width:6px"/><rect x="0.025" width="144" height="144" style="fill:none"/></svg>