<svg xmlns="http://www.w3.org/2000/svg" viewBox="0 0 144 144"><path d="M72,24c5.1,20.4,69,40.8,69,75s-34.8,42-69,42S3,133.2,3,99,66.9,44.4,72,24Z" style="fill:none;stroke:#000;stroke-linejoin:round;stroke-width:6px"/><path d="M60,59.2A75.52,75.52,0,0,1,44.6,71.9" style="fill:none;stroke:#000;stroke-linecap:round;stroke-linejoin:round;stroke-width:6px"/><path d="M84,59.2A75.52,75.52,0,0,0,99.4,71.9" style="fill:none;stroke:#000;stroke-linecap:round;stroke-linejoin:round;stroke-width:6px"/><path d="M72,57a22.0418,22.0418,0,0,0,3,18" style="fill:none;stroke:#000;stroke-linecap:round;stroke-linejoin:round;stroke-width:6px"/><path d="M36,5.7c-10.5,10.5,10.4,14,.1,24.3" style="fill:none;stroke:#000;stroke-linecap:round;stroke-linejoin:round;stroke-width:6px"/><path d="M108,5.7c10.5,10.5-10.4,14-.1,24.3" style="fill:none;stroke:#000;stroke-linecap:round;stroke-linejoin:round;stroke-width:6px"/><rect width="144" height="144" style="fill:none"/></svg>