<svg xmlns="http://www.w3.org/2000/svg" viewBox="0 0 144 144"><path d="M135,54a39,39,0,0,0-78,0c0,28.9,24,27.7,24,54a27,27,0,0,0,54,0" style="fill:none;stroke:#000;stroke-linecap:round;stroke-linejoin:round;stroke-width:6px"/><path d="M29.2,11.2a69.0465,69.0465,0,0,0,0,97.6" style="fill:none;stroke:#000;stroke-linecap:round;stroke-linejoin:round;stroke-width:6px"/><path d="M46.2,28.2a44.9045,44.9045,0,0,0,0,63.6" style="fill:none;stroke:#000;stroke-linecap:round;stroke-linejoin:round;stroke-width:6px"/><path d="M114,54a18,18,0,0,0-36,0c0,14.3,12,13,12,24a12,12,0,0,0,24,0" style="fill:none;stroke:#000;stroke-linecap:round;stroke-linejoin:round;stroke-width:6px"/><rect width="144" height="144" style="fill:none"/></svg>