<svg xmlns="http://www.w3.org/2000/svg" viewBox="0 0 144 144"><path d="M112,48A45.26,45.26,0,0,0,67,3C42.35,3,23,23.35,23,48c0,33.13,27,31.85,27,62a31,31,0,0,0,62,0" style="fill:none;stroke:#000;stroke-linecap:round;stroke-linejoin:round;stroke-width:6px"/><path d="M88,48A21.33,21.33,0,0,0,67,27c-11.35,0-20,9.65-20,21,0,16.39,14,14.39,14,27,0,7.57,5.43,14,13,14A14.21,14.21,0,0,0,88,75" style="fill:none;stroke:#000;stroke-linecap:round;stroke-linejoin:round;stroke-width:6px"/><rect width="144" height="144" style="fill:none"/></svg>