<svg xmlns="http://www.w3.org/2000/svg" viewBox="0 0 144 144"><polygon points="54.5 114.3 71.7 99.8 49.7 85 60.1 69 3 69 3 141 65 141 68.5 120 54.5 114.3" style="fill:none;stroke:#000;stroke-linecap:round;stroke-linejoin:round;stroke-width:6px"/><polygon points="84.1 69 73.7 85 95.7 99.8 78.5 114.3 86.5 120 65 141 141 141 141 69 84.1 69" style="fill:none;stroke:#000;stroke-linecap:round;stroke-linejoin:round;stroke-width:6px"/><line x1="27" y1="69" x2="27" y2="51" style="fill:none;stroke:#000;stroke-linecap:round;stroke-linejoin:round;stroke-width:6px"/><polygon points="48 51 6 51 27 3.2 48 51" style="fill:none;stroke:#000;stroke-linecap:round;stroke-linejoin:round;stroke-width:6px"/><line x1="117" y1="69" x2="117" y2="51" style="fill:none;stroke:#000;stroke-linecap:round;stroke-linejoin:round;stroke-width:6px"/><polygon points="138 51 96 51 117 3.2 138 51" style="fill:none;stroke:#000;stroke-linecap:round;stroke-linejoin:round;stroke-width:6px"/><rect width="144" height="144" style="fill:none"/></svg>