<svg xmlns="http://www.w3.org/2000/svg" viewBox="0 0 144 144"><path d="M99.7,8.8a56.0047,56.0047,0,0,1,5.5,2.7" style="fill:none;stroke:#000;stroke-linecap:round;stroke-linejoin:round;stroke-width:6px"/><path d="M76.2,3.1a66.7449,66.7449,0,0,1,12,1.8" style="fill:none;stroke:#000;stroke-linecap:round;stroke-linejoin:round;stroke-width:6px"/><path d="M52.5,5.8A77.1015,77.1015,0,0,1,64.3,3.4" style="fill:none;stroke:#000;stroke-linecap:round;stroke-linejoin:round;stroke-width:6px"/><path d="M31,16.5a70.0894,70.0894,0,0,1,10.5-6.4" style="fill:none;stroke:#000;stroke-linecap:round;stroke-linejoin:round;stroke-width:6px"/><path d="M14.7,33.5a72.6891,72.6891,0,0,1,7.4-9.2" style="fill:none;stroke:#000;stroke-linecap:round;stroke-linejoin:round;stroke-width:6px"/><path d="M5,55.2A70.5938,70.5938,0,0,1,8.9,44" style="fill:none;stroke:#000;stroke-linecap:round;stroke-linejoin:round;stroke-width:6px"/><path d="M3.4,79.1A55.2936,55.2936,0,0,1,3,72c0-1.6.1-3.2.2-4.8" style="fill:none;stroke:#000;stroke-linecap:round;stroke-linejoin:round;stroke-width:6px"/><path d="M9.9,102.1A70.848,70.848,0,0,1,5.6,91" style="fill:none;stroke:#000;stroke-linecap:round;stroke-linejoin:round;stroke-width:6px"/><path d="M23.9,121.5a69.6515,69.6515,0,0,1-7.9-9.2" style="fill:none;stroke:#000;stroke-linecap:round;stroke-linejoin:round;stroke-width:6px"/><path d="M43.6,134.9A59.2623,59.2623,0,0,1,33.2,129" style="fill:none;stroke:#000;stroke-linecap:round;stroke-linejoin:round;stroke-width:6px"/><path d="M66.8,140.8a75.7677,75.7677,0,0,1-11.9-1.9" style="fill:none;stroke:#000;stroke-linecap:round;stroke-linejoin:round;stroke-width:6px"/><path d="M90.7,138.4a65.8455,65.8455,0,0,1-11.9,2.2" style="fill:none;stroke:#000;stroke-linecap:round;stroke-linejoin:round;stroke-width:6px"/><path d="M112.2,128.1a73.17,73.17,0,0,1-10.4,6.2" style="fill:none;stroke:#000;stroke-linecap:round;stroke-linejoin:round;stroke-width:6px"/><path d="M128.9,111.1a67.8828,67.8828,0,0,1-7.7,9.3" style="fill:none;stroke:#000;stroke-linecap:round;stroke-linejoin:round;stroke-width:6px"/><path d="M138.8,89.4a72.07,72.07,0,0,1-4,11.3" style="fill:none;stroke:#000;stroke-linecap:round;stroke-linejoin:round;stroke-width:6px"/><path d="M140.7,65.5c.2,2.1.3,4.3.3,6.5,0,2-.1,3.9-.2,5.9" style="fill:none;stroke:#000;stroke-linecap:round;stroke-linejoin:round;stroke-width:6px"/><path d="M136.7,48.1a52.2259,52.2259,0,0,1,1.8,5.6" style="fill:none;stroke:#000;stroke-linecap:round;stroke-linejoin:round;stroke-width:6px"/><circle cx="72" cy="72" r="45" style="fill:none;stroke:#000;stroke-linecap:round;stroke-linejoin:round;stroke-width:6px"/><path d="M105,42s-16.1,5-14.5,6c15,9-2.5,21.4-2.5,22.9,0,1.9,5.3,10.2,2.5,13.1-10.2,10.2-3.8,18-18,18-1.9,0-9-4.1-9-6,0-9.8,12.1-30-9-30-5.7,0-6.5-7.4-6.5-7.4,0-16.9,19.1-19.4,19.1-13.4,3.8,3.8,11.4-6.3,11.4-6.3l-6-12" style="fill:none;stroke:#000;stroke-linecap:round;stroke-linejoin:round;stroke-width:6px"/><circle cx="123" cy="27" r="12" style="fill:none;stroke:#000;stroke-linecap:round;stroke-linejoin:round;stroke-width:6px"/><rect width="144" height="144" style="fill:none"/></svg>