<svg xmlns="http://www.w3.org/2000/svg" viewBox="0 0 144 144"><path d="M86.2,93H108A36.3622,36.3622,0,0,0,87.8,60.6L78.1,80A14.5284,14.5284,0,0,1,86.2,93Z" style="fill:none;stroke:#000;stroke-linejoin:round;stroke-width:6px"/><path d="M80.7,104.2a14.2557,14.2557,0,0,1-17.4,0L50.2,121.6a35.7115,35.7115,0,0,0,43.5,0Z" style="fill:none;stroke:#000;stroke-linejoin:round;stroke-width:6px"/><path d="M65.9,80.1,56.2,60.7A36.0972,36.0972,0,0,0,36,93H57.8A14.3785,14.3785,0,0,1,65.9,80.1Z" style="fill:none;stroke:#000;stroke-linejoin:round;stroke-width:6px"/><path d="M58.5,18c27-36,54,12,81-12C106.5,51,82.5,3,58.5,18Z" style="fill:none;stroke:#000;stroke-linecap:round;stroke-linejoin:round;stroke-width:6px"/><path d="M27,45h90s3,63,24,96H3C24,108,27,45,27,45Z" style="fill:none;stroke:#000;stroke-linejoin:round;stroke-width:6px"/><path d="M75,93a2.9465,2.9465,0,0,1-3,3h0a2.9465,2.9465,0,0,1-3-3h0a2.9465,2.9465,0,0,1,3-3h0a2.9465,2.9465,0,0,1,3,3Z" style="fill:none;stroke:#000;stroke-linejoin:round;stroke-width:6px"/><rect width="144" height="144" style="fill:none"/></svg>