<svg xmlns="http://www.w3.org/2000/svg" viewBox="0 0 144 144"><path d="M45.3,57.7c-2.8,11.7.9,21.8,20.5,17.3,15.4,12.9,23.1,6.8,26.1-6.1C95,56,85.8,30.4,72.6,21.1,65.5,37.9,48.8,43.1,45.3,57.7Z" style="fill:none;stroke:#000;stroke-linecap:round;stroke-linejoin:round;stroke-width:6px"/><line x1="54" y1="123" x2="84" y2="123" style="fill:none;stroke:#000;stroke-linecap:round;stroke-linejoin:round;stroke-width:6px"/><line x1="54" y1="135" x2="84" y2="135" style="fill:none;stroke:#000;stroke-linecap:round;stroke-linejoin:round;stroke-width:6px"/><line x1="69" y1="135" x2="69" y2="141" style="fill:none;stroke:#000;stroke-linecap:round;stroke-linejoin:round;stroke-width:6px"/><path d="M69,111s-9.3-47.2,3.2-67" style="fill:none;stroke:#000;stroke-linecap:round;stroke-linejoin:round;stroke-width:6px"/><path d="M123,54C123,25.8,98.8,3,69,3S15,25.8,15,54c0,23.2,16.5,42.8,39,49v8H84v-8C106.5,96.8,123,77.2,123,54Z" style="fill:none;stroke:#000;stroke-linecap:round;stroke-linejoin:round;stroke-width:6px"/><rect width="144" height="144" style="fill:none"/></svg>