<svg xmlns="http://www.w3.org/2000/svg" viewBox="0 0 144 144"><path d="M18.7,81.7c-2.8,11.7.9,21.8,20.5,17.3,15.4,12.9,23.1,6.8,26.1-6.1C68.5,80,59.2,54.4,46,45.1,38.9,61.9,22.2,67.1,18.7,81.7Z" style="fill:none;stroke:#000;stroke-linecap:round;stroke-linejoin:round;stroke-width:6px"/><path d="M45.6,68c-4.8,7.6-6.4,19.3-6.5,30.8C38.9,119.4,54.3,135,72,135c21,0,33-12,33-30V66" style="fill:none;stroke:#000;stroke-linecap:round;stroke-linejoin:round;stroke-width:6px"/><path d="M75,39a27,27,0,0,0,54,0V27H75Z" style="fill:none;stroke:#000;stroke-linecap:round;stroke-linejoin:round;stroke-width:6px"/><line x1="87" y1="27" x2="87" y2="9" style="fill:none;stroke:#000;stroke-linecap:round;stroke-linejoin:round;stroke-width:6px"/><line x1="117" y1="27" x2="117" y2="9" style="fill:none;stroke:#000;stroke-linecap:round;stroke-linejoin:round;stroke-width:6px"/><rect width="144" height="144" style="fill:none"/></svg>