<svg xmlns="http://www.w3.org/2000/svg" viewBox="0 0 144 144"><rect x="3" y="87" width="24" height="48" style="fill:none;stroke:#000;stroke-linejoin:round;stroke-width:6px"/><path d="M27,126c64.4,21.5,40.6,21.7,114-15-6.4-6.4-11.4-7.9-18-6l-26.6,8.8" style="fill:none;stroke:#000;stroke-linecap:round;stroke-linejoin:round;stroke-width:6px"/><path d="M27,93H45c14.1,0,24,9,27,12H90c9.6,0,9.6,12,0,12H57" style="fill:none;stroke:#000;stroke-linecap:round;stroke-linejoin:round;stroke-width:6px"/><path d="M41.1,72.6A47.417,47.417,0,0,1,36,51a48,48,0,1,1,72.6,41.3" style="fill:none;stroke:#000;stroke-linecap:round;stroke-linejoin:round;stroke-width:6px"/><path d="M119.5,18.7s-2.1,11.5-10.4,15.6c-8.3-2.1-16.7,4.2-14.6,4.2s4.2,8.4,4.2,8.4c2.1,2.1,6.3,0,6.3,0,5.2,5.2-8.4,14.6-8.4,16.7s5.2,3.1,2.1,6.3a18.4281,18.4281,0,0,1-6.3,4.2c0,10.4-10.4,10.4-12.5,10.4s-6.3-8.4-6.3-10.4,2.1-4.2,2.1-6.3-4.2-6.3-4.2-6.3c0-8.4-6.3-6.3-12.5-6.3-6.3,0-6.3-8.4-6.3-8.4s0-14.6,10.4-16.7,10.4,2.1,10.4,2.1c4.2,4.2,12.5,0,16.7,0,0,0,2.1-14.6-2.1-12.5s-7.9.5-8.3-4.2C79.2,9,98,5.1,98,5.1" style="fill:none;stroke:#000;stroke-linecap:round;stroke-linejoin:round;stroke-width:6px"/><rect width="144" height="144" style="fill:none"/></svg>