<svg xmlns="http://www.w3.org/2000/svg" viewBox="0 0 144 144"><path d="M86.4,3.7c-11.9,1.1-20.4,7.9-9.8,25-7.3,18.7.9,24,14.1,22.8s34.5-18.2,39.1-33.7C111.7,16.4,101.3,2.3,86.4,3.7Z" style="fill:none;stroke:#000;stroke-linecap:round;stroke-linejoin:round;stroke-width:6px"/><path d="M43.5,43.2S85.2,19.3,108,24.8" style="fill:none;stroke:#000;stroke-linecap:round;stroke-linejoin:round;stroke-width:6px"/><line x1="45" y1="111" x2="54" y2="111" style="fill:none;stroke:#000;stroke-linecap:round;stroke-linejoin:round;stroke-width:6px"/><line x1="45" y1="123" x2="54" y2="123" style="fill:none;stroke:#000;stroke-linecap:round;stroke-linejoin:round;stroke-width:6px"/><line x1="81" y1="111" x2="90" y2="111" style="fill:none;stroke:#000;stroke-linecap:round;stroke-linejoin:round;stroke-width:6px"/><line x1="81" y1="123" x2="90" y2="123" style="fill:none;stroke:#000;stroke-linecap:round;stroke-linejoin:round;stroke-width:6px"/><line x1="117" y1="111" x2="126" y2="111" style="fill:none;stroke:#000;stroke-linecap:round;stroke-linejoin:round;stroke-width:6px"/><line x1="117" y1="123" x2="126" y2="123" style="fill:none;stroke:#000;stroke-linecap:round;stroke-linejoin:round;stroke-width:6px"/><polygon points="3 141 3 94.2 11.6 33 26 33 37.5 88.4 69 67.9 69 88.4 105.1 68.1 105.1 88.5 141 67.9 141 141 77.7 141 3 141" style="fill:none;stroke:#000;stroke-linejoin:round;stroke-width:6px"/><rect width="144" height="144" style="fill:none"/></svg>