<svg xmlns="http://www.w3.org/2000/svg" viewBox="0 0 144 144"><path d="M92.9,47.4C85.1,56.5,81,68.6,99.5,76.6c8.5,18.9,21.4,11.9,29.9,1.8,8.6-10.1,11.9-37.2,4.3-51.4C119.8,38.8,102.6,35.9,92.9,47.4Z" style="fill:none;stroke:#000;stroke-linecap:round;stroke-linejoin:round;stroke-width:6px"/><path d="M84,110.5s7.6-35.2,37.6-62.2" style="fill:none;stroke:#000;stroke-linecap:round;stroke-linejoin:round;stroke-width:6px"/><path d="M72,141c-13.3-4.5-23.8-34-23.8-69S58.7,7.5,72,3" style="fill:none;stroke:#000;stroke-linecap:round;stroke-linejoin:round;stroke-width:6px"/><path d="M72,141c-25.9-3.5-47.9-33.3-47.9-69C24.1,36.9,46.8,7.3,72,3" style="fill:none;stroke:#000;stroke-linecap:round;stroke-linejoin:round;stroke-width:6px"/><line x1="11.8" y1="39" x2="75" y2="39" style="fill:none;stroke:#000;stroke-linecap:round;stroke-linejoin:round;stroke-width:6px"/><line x1="3" y1="69" x2="75" y2="69" style="fill:none;stroke:#000;stroke-linecap:round;stroke-linejoin:round;stroke-width:6px"/><line x1="9" y1="99" x2="75" y2="99" style="fill:none;stroke:#000;stroke-linecap:round;stroke-linejoin:round;stroke-width:6px"/><path d="M75,3.1c-1,0-2-.1-3-.1a69,69,0,0,0,0,138c1,0,2-.1,3-.1Z" style="fill:none;stroke:#000;stroke-linecap:round;stroke-linejoin:round;stroke-width:6px"/><rect width="144" height="144" style="fill:none"/></svg>