<svg xmlns="http://www.w3.org/2000/svg" viewBox="0 0 144 144"><path d="M93,44.6c-7.2,4.8-10.9,13.6,0,21,6,15,17.2,11,23.8,4s10.1-26.4,5.2-37C111.4,40.5,102,38.6,93,44.6Z" style="fill:none;stroke:#000;stroke-linecap:round;stroke-linejoin:round;stroke-width:6px"/><path d="M72.1,23.4c7.8,9.1,11.9,21.2-6.6,29.2-8.5,18.9-21.4,11.9-30,1.8S23.7,17.3,31.2,3C45.2,14.8,62.4,11.9,72.1,23.4Z" style="fill:none;stroke:#000;stroke-linecap:round;stroke-linejoin:round;stroke-width:6px"/><path d="M108,53.6c-18,9-27,33-27,33S73.4,51.4,43.4,24.4" style="fill:none;stroke:#000;stroke-linecap:round;stroke-linejoin:round;stroke-width:6px"/><rect x="3" y="87" width="24" height="48" style="fill:none;stroke:#000;stroke-linejoin:round;stroke-width:6px"/><path d="M27,126c64.4,21.5,40.6,21.7,114-15-6.4-6.4-11.4-7.9-18-6l-26.6,8.8" style="fill:none;stroke:#000;stroke-linecap:round;stroke-linejoin:round;stroke-width:6px"/><path d="M27,93H45c14.1,0,24,9,27,12H90c9.6,0,9.6,12,0,12H57" style="fill:none;stroke:#000;stroke-linecap:round;stroke-linejoin:round;stroke-width:6px"/><rect width="144" height="144" style="fill:none"/></svg>