<svg xmlns="http://www.w3.org/2000/svg" viewBox="0 0 144 144"><rect x="9" y="15" width="90" height="126" style="fill:none;stroke:#000;stroke-linecap:round;stroke-linejoin:round;stroke-width:6px"/><polygon points="129 69 117 75 117 57 129 57 129 69" style="fill:none;stroke:#000;stroke-linecap:round;stroke-linejoin:round;stroke-width:6px"/><path d="M117,57V48c0-5,18-21,18-21" style="fill:none;stroke:#000;stroke-linecap:round;stroke-linejoin:round;stroke-width:6px"/><path d="M117,75V93a12.0353,12.0353,0,0,1-12,12H99.2" style="fill:none;stroke:#000;stroke-linecap:round;stroke-linejoin:round;stroke-width:6px"/><line x1="9" y1="63" x2="99" y2="63" style="fill:none;stroke:#000;stroke-linecap:round;stroke-linejoin:round;stroke-width:6px"/><rect x="21" y="27" width="66" height="24" style="fill:none;stroke:#000;stroke-linecap:round;stroke-linejoin:round;stroke-width:6px"/><path d="M42,87c-7.2,4.8-10.9,13.6,0,21,6,15,17.2,11,23.8,4S75.9,85.6,71,75C60.4,83,51,81,42,87Z" style="fill:none;stroke:#000;stroke-linecap:round;stroke-linejoin:round;stroke-width:6px"/><path d="M57,96c-18,9-27,33-27,33" style="fill:none;stroke:#000;stroke-linecap:round;stroke-linejoin:round;stroke-width:6px"/><rect width="144" height="144" style="fill:none"/></svg>