<svg xmlns="http://www.w3.org/2000/svg" viewBox="0 0 144 144"><path d="M39,45c11.6,0,21-6.4,21-18S50.6,9,39,9H21V45Z" style="fill:none;stroke:#000;stroke-linecap:round;stroke-linejoin:round;stroke-width:6px"/><path d="M105,117H42a27,27,0,0,1,0-54h78a18,18,0,0,0,0-36H60" style="fill:none;stroke:#000;stroke-linecap:round;stroke-miterlimit:10;stroke-width:6px"/><line x1="21" y1="21" x2="9" y2="21" style="fill:none;stroke:#000;stroke-linecap:round;stroke-linejoin:round;stroke-width:6px"/><line x1="21" y1="33" x2="9" y2="33" style="fill:none;stroke:#000;stroke-linecap:round;stroke-linejoin:round;stroke-width:6px"/><path d="M108.2,138.9A21.7837,21.7837,0,0,1,99,141H84c-11.6,0-21-12.4-21-24s9.4-24,21-24H99a20.8212,20.8212,0,0,1,9,2l33,22Z" style="fill:none;stroke:#000;stroke-linecap:round;stroke-linejoin:round;stroke-width:6px"/><path d="M82,126a12.0254,12.0254,0,0,1,.1-18" style="fill:none;stroke:#000;stroke-linecap:round;stroke-linejoin:round;stroke-width:6px"/><path d="M96,125a12.0334,12.0334,0,0,1,0-15.9" style="fill:none;stroke:#000;stroke-linecap:round;stroke-linejoin:round;stroke-width:6px"/><line x1="33" y1="9" x2="33" y2="45" style="fill:none;stroke:#000;stroke-linecap:round;stroke-linejoin:round;stroke-width:6px"/><rect width="144" height="144" style="fill:none"/></svg>