<svg xmlns="http://www.w3.org/2000/svg" viewBox="0 0 144 144"><path d="M121.5,50.4C121.5,20.2,93,3,67.2,3,35,3,9.6,28.2,9.6,60.4,9.6,78.7,15,95.8,33,106.5V141H93V120.1c12,.1,18.7-.8,22.9-5,5.4-5.4,5.2-28.1,5.2-28.1s5.3.2,9.1,0c3.9-.2,4-2.6,4.2-5.6C135.1,71.8,121.5,55.2,121.5,50.4Z" style="fill:none;stroke:#000;stroke-linejoin:round;stroke-width:6px"/><path d="M52.9,43.4c-6.5,7.7-9.9,17.7,5.6,24.5,7.1,15.8,17.9,10,25,1.5,7.2-8.4,9.9-31.1,3.6-43C75.4,36.2,61,33.8,52.9,43.4Z" style="fill:none;stroke:#000;stroke-linecap:round;stroke-linejoin:round;stroke-width:6px"/><path d="M45.5,96.2s6.3-29.4,31.4-52" style="fill:none;stroke:#000;stroke-linecap:round;stroke-linejoin:round;stroke-width:6px"/><rect width="144" height="144" style="fill:none"/></svg>