<svg xmlns="http://www.w3.org/2000/svg" viewBox="0 0 144 144"><line x1="51" y1="15" x2="51" y2="129" style="fill:none;stroke:#000;stroke-linejoin:round;stroke-width:6px"/><line x1="93" y1="15" x2="93" y2="129" style="fill:none;stroke:#000;stroke-linejoin:round;stroke-width:6px"/><path d="M9,87a6,6,0,1,1-6,6,6,6,0,0,1,6-6" style="fill:none;stroke:#000;stroke-miterlimit:10;stroke-width:6px"/><path d="M9,45a6,6,0,1,1-6,6,6,6,0,0,1,6-6" style="fill:none;stroke:#000;stroke-miterlimit:10;stroke-width:6px"/><path d="M135,45a6,6,0,1,1-6,6,6,6,0,0,1,6-6" style="fill:none;stroke:#000;stroke-miterlimit:10;stroke-width:6px"/><path d="M135,87a6,6,0,1,1-6,6,6,6,0,0,1,6-6" style="fill:none;stroke:#000;stroke-miterlimit:10;stroke-width:6px"/><path d="M51,3a6,6,0,1,1-6,6,6,6,0,0,1,6-6" style="fill:none;stroke:#000;stroke-miterlimit:10;stroke-width:6px"/><path d="M93,3a6,6,0,1,1-6,6,6,6,0,0,1,6-6" style="fill:none;stroke:#000;stroke-miterlimit:10;stroke-width:6px"/><path d="M93,129a6,6,0,1,1-6,6,6,6,0,0,1,6-6" style="fill:none;stroke:#000;stroke-miterlimit:10;stroke-width:6px"/><path d="M51,129a6,6,0,1,1-6,6,6,6,0,0,1,6-6" style="fill:none;stroke:#000;stroke-miterlimit:10;stroke-width:6px"/><line x1="129" y1="51" x2="15" y2="51" style="fill:none;stroke:#000;stroke-linejoin:round;stroke-width:6px"/><line x1="129" y1="93" x2="15" y2="93" style="fill:none;stroke:#000;stroke-linejoin:round;stroke-width:6px"/><line x1="48" y1="12" x2="11.4" y2="48.6" style="fill:none;stroke:#000;stroke-miterlimit:10;stroke-width:6px"/><line x1="133.2" y1="95.4" x2="95.4" y2="132.6" style="fill:none;stroke:#000;stroke-miterlimit:10;stroke-width:6px"/><line x1="95.4" y1="11.4" x2="132" y2="48" style="fill:none;stroke:#000;stroke-miterlimit:10;stroke-width:6px"/><line x1="48.6" y1="132.6" x2="11.4" y2="95.4" style="fill:none;stroke:#000;stroke-miterlimit:10;stroke-width:6px"/><line x1="54" y1="9" x2="90" y2="9" style="fill:none;stroke:#000;stroke-miterlimit:10;stroke-width:6px"/><line x1="54" y1="135" x2="90" y2="135" style="fill:none;stroke:#000;stroke-miterlimit:10;stroke-width:6px"/><line x1="135" y1="54" x2="135" y2="90" style="fill:none;stroke:#000;stroke-miterlimit:10;stroke-width:6px"/><line x1="9" y1="54" x2="9" y2="90" style="fill:none;stroke:#000;stroke-miterlimit:10;stroke-width:6px"/><line x1="11.4" y1="90.6" x2="90.6" y2="11.4" style="fill:none;stroke:#000;stroke-miterlimit:10;stroke-width:6px"/><line x1="53.4" y1="132.6" x2="132.6" y2="53.4" style="fill:none;stroke:#000;stroke-miterlimit:10;stroke-width:6px"/><line x1="11.4" y1="53.4" x2="90" y2="132" style="fill:none;stroke:#000;stroke-miterlimit:10;stroke-width:6px"/><line x1="53.1" y1="11.4" x2="132" y2="89.76" style="fill:none;stroke:#000;stroke-miterlimit:10;stroke-width:6px"/><rect width="144" height="144" style="fill:none"/></svg>