<svg xmlns="http://www.w3.org/2000/svg" viewBox="0 0 144 144"><circle cx="84" cy="60" r="57" style="fill:none;stroke:#000;stroke-linejoin:round;stroke-width:6px"/><circle cx="84" cy="46.6" r="13.4" style="fill:none;stroke:#000;stroke-linejoin:round;stroke-width:6px"/><path d="M84,19.8A40.2024,40.2024,0,0,0,43.8,60a5.4187,5.4187,0,0,0,2.4,4.5,5.5808,5.5808,0,0,0,5,.6A26.8059,26.8059,0,0,1,87.4,90.2a8.195,8.195,0,0,0,3.4,6.6,7.9094,7.9094,0,0,0,7.3.9A40.2318,40.2318,0,0,0,84,19.8Z" style="fill:none;stroke:#000;stroke-linejoin:round;stroke-width:6px"/><line x1="43.7" y1="100.3" x2="3.7" y2="140.3" style="fill:none;stroke:#000;stroke-linecap:round;stroke-linejoin:round;stroke-width:6px"/><rect width="144" height="144" style="fill:none"/></svg>