<svg xmlns="http://www.w3.org/2000/svg" viewBox="0 0 144 144"><path d="M38.7,99C22.1,125.7,3,141,3,141H27c9-12,18-24,45-24s36,12,45,24h24s-19.1-15.3-35.7-42" style="fill:none;stroke:#000;stroke-linecap:round;stroke-linejoin:round;stroke-width:6px"/><line x1="72" y1="12" x2="72" y2="3" style="fill:none;stroke:#000;stroke-linecap:round;stroke-linejoin:round;stroke-width:6px"/><rect x="51" y="51" width="42" height="12" style="fill:none;stroke:#000;stroke-linecap:round;stroke-linejoin:round;stroke-width:6px"/><rect x="33" y="87" width="78" height="12" style="fill:none;stroke:#000;stroke-linecap:round;stroke-linejoin:round;stroke-width:6px"/><path d="M64.1,87c3-8.5,4.9-12.4,4.9-24" style="fill:none;stroke:#000;stroke-linecap:round;stroke-linejoin:round;stroke-width:6px"/><path d="M99,123c-9-9-13.8-23.9-13.8-23.9" style="fill:none;stroke:#000;stroke-linecap:round;stroke-linejoin:round;stroke-width:6px"/><path d="M45,123c9-9,13.9-23.9,13.9-23.9" style="fill:none;stroke:#000;stroke-linecap:round;stroke-linejoin:round;stroke-width:6px"/><path d="M79.9,87c-3-8.5-4.9-12.4-4.9-24" style="fill:none;stroke:#000;stroke-linecap:round;stroke-linejoin:round;stroke-width:6px"/><path d="M55.7,63A156.7883,156.7883,0,0,1,45.5,87" style="fill:none;stroke:#000;stroke-linecap:round;stroke-linejoin:round;stroke-width:6px"/><path d="M85,51.1S75,36,75,12H69c0,24-10,39-10,39" style="fill:none;stroke:#000;stroke-linecap:round;stroke-linejoin:round;stroke-width:6px"/><path d="M98.4,87A156.7883,156.7883,0,0,1,88.2,63" style="fill:none;stroke:#000;stroke-linecap:round;stroke-linejoin:round;stroke-width:6px"/><rect width="144" height="144" style="fill:none"/></svg>