<svg xmlns="http://www.w3.org/2000/svg" viewBox="0 0 144 144"><circle cx="69" cy="57" r="48" style="fill:none;stroke:#000;stroke-linejoin:round;stroke-width:6px"/><circle cx="69" cy="57" r="12" style="fill:none;stroke:#000;stroke-linejoin:round;stroke-width:6px"/><polyline points="57 103.5 57 123 81 123 81 103.5" style="fill:none;stroke:#000;stroke-linejoin:round;stroke-width:6px"/><path d="M21,132a8.9626,8.9626,0,0,0,9,9h78a9,9,0,0,0,0-18H30A8.9626,8.9626,0,0,0,21,132Z" style="fill:none;stroke:#000;stroke-linejoin:round;stroke-width:6px"/><line x1="57.1" y1="58.2" x2="21.9" y2="66.4" style="fill:none;stroke:#000;stroke-linejoin:round;stroke-width:6px"/><line x1="41.8" y1="96.5" x2="63.2" y2="67.4" style="fill:none;stroke:#000;stroke-linejoin:round;stroke-width:6px"/><line x1="80.9" y1="58.2" x2="116.1" y2="66.3" style="fill:none;stroke:#000;stroke-linejoin:round;stroke-width:6px"/><line x1="96.5" y1="96.4" x2="74.9" y2="67.4" style="fill:none;stroke:#000;stroke-linejoin:round;stroke-width:6px"/><line x1="63.6" y1="46.3" x2="50.1" y2="12.9" style="fill:none;stroke:#000;stroke-linejoin:round;stroke-width:6px"/><line x1="87.6" y1="12.7" x2="74.5" y2="46.3" style="fill:none;stroke:#000;stroke-linejoin:round;stroke-width:6px"/><line x1="93" y1="123" x2="93" y2="129" style="fill:none;stroke:#000;stroke-linecap:round;stroke-linejoin:round;stroke-width:6px"/><line x1="105" y1="123" x2="105" y2="129" style="fill:none;stroke:#000;stroke-linecap:round;stroke-linejoin:round;stroke-width:6px"/><rect width="144" height="144" style="fill:none"/></svg>