<svg xmlns="http://www.w3.org/2000/svg" viewBox="0 0 144 144"><path d="M39,75V90c0,4.9,1.1,9,6,9v30H63V99c4.9,0,6-4.1,6-9V75Z" style="fill:none;stroke:#000;stroke-linejoin:round;stroke-width:6px"/><circle cx="54" cy="60" r="9" style="fill:none;stroke:#000;stroke-linejoin:round;stroke-width:6px"/><path d="M81,75V90c0,4.9,1.1,9,6,9v30h18V99c4.9,0,6-4.1,6-9V75Z" style="fill:none;stroke:#000;stroke-linejoin:round;stroke-width:6px"/><circle cx="96" cy="60" r="9" style="fill:none;stroke:#000;stroke-linejoin:round;stroke-width:6px"/><rect x="21" y="39" width="108" height="102" style="fill:none;stroke:#000;stroke-linejoin:round;stroke-width:6px"/><polyline points="33 15 45 3 57 15" style="fill:none;stroke:#000;stroke-linecap:round;stroke-linejoin:round;stroke-width:6px"/><line x1="45" y1="3" x2="45" y2="27" style="fill:none;stroke:#000;stroke-linecap:round;stroke-linejoin:round;stroke-width:6px"/><polyline points="93 15 105 27 117 15" style="fill:none;stroke:#000;stroke-linecap:round;stroke-linejoin:round;stroke-width:6px"/><line x1="105" y1="27" x2="105" y2="3" style="fill:none;stroke:#000;stroke-linecap:round;stroke-linejoin:round;stroke-width:6px"/><rect width="144" height="144" style="fill:none"/></svg>