<svg xmlns="http://www.w3.org/2000/svg" viewBox="0 0 144 144"><rect x="3" y="57" width="138" height="84" style="fill:none;stroke:#000;stroke-linejoin:round;stroke-width:6px"/><path d="M45,93c0,9.1-6,17.2-6,17.2V129H21V110.2s-6-8.1-6-17.2Z" style="fill:none;stroke:#000;stroke-linejoin:round;stroke-width:6px"/><line x1="33" y1="3" x2="33" y2="45" style="fill:none;stroke:#000;stroke-linecap:round;stroke-linejoin:round;stroke-width:6px"/><polyline points="51 21 33 3 15 21" style="fill:none;stroke:#000;stroke-linecap:round;stroke-linejoin:round;stroke-width:6px"/><line x1="111" y1="45" x2="111" y2="3" style="fill:none;stroke:#000;stroke-linecap:round;stroke-linejoin:round;stroke-width:6px"/><polyline points="93 27 111 45 129 27" style="fill:none;stroke:#000;stroke-linecap:round;stroke-linejoin:round;stroke-width:6px"/><circle cx="30" cy="81" r="9" style="fill:none;stroke:#000;stroke-linejoin:round;stroke-width:6px"/><path d="M87,93c0,9.1-6,17.2-6,17.2V129H63V110.2s-6-8.1-6-17.2Z" style="fill:none;stroke:#000;stroke-linejoin:round;stroke-width:6px"/><circle cx="72" cy="81" r="9" style="fill:none;stroke:#000;stroke-linejoin:round;stroke-width:6px"/><path d="M129,93c0,9.1-6,17.2-6,17.2V129H105V110.2s-6-8.1-6-17.2Z" style="fill:none;stroke:#000;stroke-linejoin:round;stroke-width:6px"/><circle cx="114" cy="81" r="9" style="fill:none;stroke:#000;stroke-linejoin:round;stroke-width:6px"/><rect width="144" height="144" style="fill:none"/></svg>