<svg xmlns="http://www.w3.org/2000/svg" viewBox="0 0 144 144"><path d="M134.2,83.5l6.4-3.7-9-15.6-6.5,3.7a29.7731,29.7731,0,0,0-11.2-6.4V54H96v7.5a29.7731,29.7731,0,0,0-11.2,6.4l-6.5-3.7-9,15.6,6.4,3.7a28.5417,28.5417,0,0,0,0,13l-6.4,3.7,9,15.6,6.5-3.7A29.7731,29.7731,0,0,0,96,118.5V126h18v-7.5a29.7731,29.7731,0,0,0,11.2-6.4l6.5,3.7,9-15.6-6.4-3.7A28.5441,28.5441,0,0,0,134.2,83.5Z" style="fill:none;stroke:#000;stroke-linejoin:round;stroke-width:6px"/><circle cx="105" cy="90" r="12" style="fill:none;stroke:#000;stroke-linejoin:round;stroke-width:6px"/><path d="M57,93H11.8A8.795,8.795,0,0,1,3,84V18a8.8576,8.8576,0,0,1,8.8-9h108a9.1344,9.1344,0,0,1,9.2,9V45" style="fill:none;stroke:#000;stroke-linecap:round;stroke-linejoin:round;stroke-width:6px"/><polyline points="126.2 11.7 65.8 60 5.5 11.7" style="fill:none;stroke:#000;stroke-linecap:round;stroke-linejoin:round;stroke-width:6px"/><rect width="144" height="144" style="fill:none"/></svg>