<svg xmlns="http://www.w3.org/2000/svg" viewBox="0 0 144 144"><path d="M117,52.5,141,69v63a8.9626,8.9626,0,0,1-9,9H12a8.9626,8.9626,0,0,1-9-9V69L27,52.5" style="fill:none;stroke:#000;stroke-linecap:round;stroke-linejoin:round;stroke-width:6px"/><polyline points="21 123 51 99 93 99 123 123" style="fill:none;stroke:#000;stroke-linecap:round;stroke-linejoin:round;stroke-width:6px"/><line x1="141" y1="69" x2="105" y2="93" style="fill:none;stroke:#000;stroke-linecap:round;stroke-linejoin:round;stroke-width:6px"/><line x1="3" y1="69" x2="39" y2="93" style="fill:none;stroke:#000;stroke-linecap:round;stroke-linejoin:round;stroke-width:6px"/><polyline points="117 85 117 3 27 3 27 85" style="fill:none;stroke:#000;stroke-linecap:round;stroke-linejoin:round;stroke-width:6px"/><path d="M63,76.4C63,81,58.6,81,54,81s-9.1-2.1-9.1-9,4.7-9,9.3-9H63Z" style="fill:none;stroke:#000;stroke-linecap:round;stroke-linejoin:round;stroke-width:6px"/><polyline points="63 63 63 39 93 21 93 51" style="fill:none;stroke:#000;stroke-linecap:round;stroke-linejoin:round;stroke-width:6px"/><path d="M93,67.2c0,4.6-5.6,4.6-10.2,4.6s-9.7-3.5-9.7-10.4S77.2,51,81.9,51H93Z" style="fill:none;stroke:#000;stroke-linecap:round;stroke-linejoin:round;stroke-width:6px"/><rect width="144" height="144" style="fill:none"/></svg>