<svg xmlns="http://www.w3.org/2000/svg" viewBox="0 0 144 144"><path d="M129,132a8.9626,8.9626,0,0,1-9,9H24a8.9626,8.9626,0,0,1-9-9V78a8.9626,8.9626,0,0,1,9-9h96a8.9626,8.9626,0,0,1,9,9Z" style="fill:none;stroke:#000;stroke-linecap:round;stroke-linejoin:round;stroke-width:6px"/><polyline points="126.4 71.7 72 114 17.6 71.6" style="fill:none;stroke:#000;stroke-linecap:round;stroke-linejoin:round;stroke-width:6px"/><polyline points="99 6.1 99 21.1 84 21.1" style="fill:none;stroke:#000;stroke-linecap:round;stroke-linejoin:round;stroke-width:6px"/><path d="M45,21C48.7,10.5,60.2,3.1,72,3.1s23.3,7.5,27,18" style="fill:none;stroke:#000;stroke-linecap:round;stroke-linejoin:round;stroke-width:6px"/><polyline points="45 54 45 39 60 39" style="fill:none;stroke:#000;stroke-linecap:round;stroke-linejoin:round;stroke-width:6px"/><path d="M99,39C95.3,49.5,83.8,57,72,57S48.7,49.5,45,39" style="fill:none;stroke:#000;stroke-linecap:round;stroke-linejoin:round;stroke-width:6px"/><rect width="144" height="144" style="fill:none"/></svg>