<svg xmlns="http://www.w3.org/2000/svg" viewBox="0 0 144 144"><path d="M117,52.5,141,69v63a8.9626,8.9626,0,0,1-9,9H12a8.9626,8.9626,0,0,1-9-9V69L27,52.5" style="fill:none;stroke:#000;stroke-linecap:round;stroke-linejoin:round;stroke-width:6px"/><polyline points="21 123 51 99 93 99 123 123" style="fill:none;stroke:#000;stroke-linecap:round;stroke-linejoin:round;stroke-width:6px"/><line x1="141" y1="69" x2="105" y2="93" style="fill:none;stroke:#000;stroke-linecap:round;stroke-linejoin:round;stroke-width:6px"/><line x1="3" y1="69" x2="39" y2="93" style="fill:none;stroke:#000;stroke-linecap:round;stroke-linejoin:round;stroke-width:6px"/><polyline points="117 85 117 3 27 3 27 85" style="fill:none;stroke:#000;stroke-linecap:round;stroke-linejoin:round;stroke-width:6px"/><circle cx="72" cy="48" r="10.6" style="fill:none;stroke:#000;stroke-linecap:round;stroke-linejoin:round;stroke-width:6px"/><path d="M87.3,70.3A26.6471,26.6471,0,0,1,72,75,27,27,0,1,1,99,48v2.4a8.2,8.2,0,0,1-16.4,0V48" style="fill:none;stroke:#000;stroke-linecap:round;stroke-linejoin:round;stroke-width:6px"/><rect width="144" height="144" style="fill:none"/></svg>