<svg xmlns="http://www.w3.org/2000/svg" viewBox="0 0 144 144"><path d="M117,52.5,141,69v63a8.9626,8.9626,0,0,1-9,9H12a8.9626,8.9626,0,0,1-9-9V69L27,52.5" style="fill:none;stroke:#000;stroke-linecap:round;stroke-linejoin:round;stroke-width:6px"/><polyline points="21 123 51 99 93 99 123 123" style="fill:none;stroke:#000;stroke-linecap:round;stroke-linejoin:round;stroke-width:6px"/><line x1="141" y1="69" x2="105" y2="93" style="fill:none;stroke:#000;stroke-linecap:round;stroke-linejoin:round;stroke-width:6px"/><line x1="3" y1="69" x2="39" y2="93" style="fill:none;stroke:#000;stroke-linecap:round;stroke-linejoin:round;stroke-width:6px"/><polyline points="117 85 117 3 27 3 27 85" style="fill:none;stroke:#000;stroke-linecap:round;stroke-linejoin:round;stroke-width:6px"/><path d="M72,74.2S99,54.6,99,40c0-16.8-22.1-22.1-27-1.7-4.9-20.3-27-15-27,1.8C45,54.6,72,74.2,72,74.2Z" style="fill:none;stroke:#000;stroke-linejoin:round;stroke-width:6px"/><rect width="144" height="144" style="fill:none"/></svg>