<svg xmlns="http://www.w3.org/2000/svg" viewBox="0 0 144 144"><path d="M15,63H57V81A12.0353,12.0353,0,0,1,45,93v24H27V93A12.0353,12.0353,0,0,1,15,81Z" style="fill:none;stroke:#000;stroke-linejoin:round;stroke-width:6px"/><circle cx="36" cy="42" r="15" style="fill:none;stroke:#000;stroke-linejoin:round;stroke-width:6px"/><path d="M3,123a6.0176,6.0176,0,0,0,6,6H63a6.0176,6.0176,0,0,0,6-6V21a6.0176,6.0176,0,0,0-6-6H9a6.0176,6.0176,0,0,0-6,6Z" style="fill:none;stroke:#000;stroke-linejoin:round;stroke-width:6px"/><rect x="9" y="129" width="12" height="12" style="fill:none;stroke:#000;stroke-linejoin:round;stroke-width:6px"/><rect x="51" y="129" width="12" height="12" style="fill:none;stroke:#000;stroke-linejoin:round;stroke-width:6px"/><rect x="9" y="3" width="12" height="12" style="fill:none;stroke:#000;stroke-linejoin:round;stroke-width:6px"/><rect x="51" y="3" width="12" height="12" style="fill:none;stroke:#000;stroke-linejoin:round;stroke-width:6px"/><polygon points="135 39 117 39 117 21 99 21 99 39 81 39 81 57 99 57 99 75 117 75 117 57 135 57 135 39" style="fill:none;stroke:#000;stroke-linecap:round;stroke-linejoin:round;stroke-width:6px"/><rect width="144" height="144" style="fill:none"/></svg>