<svg xmlns="http://www.w3.org/2000/svg" viewBox="0 0 144 144"><polyline points="123 75 123 117 15 117 15 39" style="fill:none;stroke:#000;stroke-linejoin:round;stroke-width:6px"/><line x1="123" y1="39" x2="123" y2="63" style="fill:none;stroke:#000;stroke-linejoin:round;stroke-width:6px"/><circle cx="69" cy="33" r="9" style="fill:none;stroke:#000;stroke-linejoin:round;stroke-width:6px"/><circle cx="27" cy="21" r="6" style="fill:none;stroke:#000;stroke-linejoin:round;stroke-width:6px"/><path d="M135,9a6.0176,6.0176,0,0,0-6-6H9A6.0176,6.0176,0,0,0,3,9V33a6.0176,6.0176,0,0,0,6,6H33.4a11.9513,11.9513,0,0,1,11.4,8.2l.5,1.6A11.9513,11.9513,0,0,0,56.7,57H81.4a11.9513,11.9513,0,0,0,11.4-8.2l.5-1.6A11.9513,11.9513,0,0,1,104.7,39H129a6.0176,6.0176,0,0,0,6-6Z" style="fill:none;stroke:#000;stroke-linejoin:round;stroke-width:6px"/><path d="M102,18a3,3,0,1,0,3,3,2.9465,2.9465,0,0,0-3-3Z" style="fill:#000"/><path d="M114,18a3,3,0,1,0,3,3,2.9465,2.9465,0,0,0-3-3Z" style="fill:#000"/><path d="M135,135a6.0176,6.0176,0,0,1-6,6H9a6.0176,6.0176,0,0,1-6-6V123a6.0176,6.0176,0,0,1,6-6H129a6.0176,6.0176,0,0,1,6,6Z" style="fill:none;stroke:#000;stroke-linejoin:round;stroke-width:6px"/><path d="M90,96a21,21,0,0,1-42,0V93H90Z" style="fill:none;stroke:#000;stroke-linejoin:round;stroke-width:6px"/><rect x="57" y="57" width="24" height="18" style="fill:none;stroke:#000;stroke-linejoin:round;stroke-width:6px"/><line x1="69" y1="75" x2="69" y2="81" style="fill:none;stroke:#000;stroke-linecap:round;stroke-linejoin:round;stroke-width:6px"/><line x1="81" y1="69" x2="108" y2="69" style="fill:none;stroke:#000;stroke-linecap:round;stroke-linejoin:round;stroke-width:6px"/><rect x="108" y="63" width="27" height="12" style="fill:none;stroke:#000;stroke-linecap:round;stroke-linejoin:round;stroke-width:6px"/><path d="M90,93h7.5a7.5,7.5,0,0,1,0,15H96" style="fill:none;stroke:#000;stroke-linejoin:round;stroke-width:6px"/><rect width="144" height="144" style="fill:none"/></svg>