<svg xmlns="http://www.w3.org/2000/svg" viewBox="0 0 144 144"><path d="M69,3H21V63H63v60H3v18H141V12a8.9626,8.9626,0,0,0-9-9Z" style="fill:none;stroke:#000;stroke-linejoin:round;stroke-width:6px"/><polyline points="111 141 111 75 141 75" style="fill:none;stroke:#000;stroke-linejoin:round;stroke-width:6px"/><line x1="105" y1="33" x2="141" y2="33" style="fill:none;stroke:#000;stroke-linecap:round;stroke-linejoin:round;stroke-width:6px"/><line x1="105" y1="45" x2="141" y2="45" style="fill:none;stroke:#000;stroke-linecap:round;stroke-linejoin:round;stroke-width:6px"/><line x1="105" y1="57" x2="141" y2="57" style="fill:none;stroke:#000;stroke-linecap:round;stroke-linejoin:round;stroke-width:6px"/><rect x="27" y="81" width="24" height="12" style="fill:none;stroke:#000;stroke-linejoin:round;stroke-width:6px"/><line x1="27" y1="87" x2="3" y2="87" style="fill:none;stroke:#000;stroke-linecap:round;stroke-linejoin:round;stroke-width:6px"/><line x1="45" y1="81" x2="45" y2="63" style="fill:none;stroke:#000;stroke-linejoin:round;stroke-width:6px"/><line x1="33" y1="81" x2="33" y2="63" style="fill:none;stroke:#000;stroke-linejoin:round;stroke-width:6px"/><circle cx="42" cy="24" r="9" style="fill:none;stroke:#000;stroke-linecap:round;stroke-linejoin:round;stroke-width:6px"/><line x1="39" y1="93" x2="39" y2="99" style="fill:none;stroke:#000;stroke-linecap:round;stroke-linejoin:round;stroke-width:6px"/><rect width="144" height="144" style="fill:none"/><rect width="144" height="144" style="fill:none"/></svg>