<svg xmlns="http://www.w3.org/2000/svg" viewBox="0 0 144 144"><line x1="39" y1="69.1" x2="39" y2="81" style="fill:none;stroke:#000;stroke-linecap:round;stroke-linejoin:round;stroke-width:6px"/><line x1="51" y1="69.1" x2="51" y2="81" style="fill:none;stroke:#000;stroke-linecap:round;stroke-linejoin:round;stroke-width:6px"/><line x1="39" y1="117.1" x2="39" y2="129" style="fill:none;stroke:#000;stroke-linecap:round;stroke-linejoin:round;stroke-width:6px"/><line x1="51" y1="117.1" x2="51" y2="129" style="fill:none;stroke:#000;stroke-linecap:round;stroke-linejoin:round;stroke-width:6px"/><path d="M63,90a8.9626,8.9626,0,0,1-9,9H33V81H54A8.9626,8.9626,0,0,1,63,90Z" style="fill:none;stroke:#000;stroke-linecap:round;stroke-linejoin:round;stroke-width:6px"/><path d="M63,108a8.9626,8.9626,0,0,1-9,9H33V99H54A8.9626,8.9626,0,0,1,63,108Z" style="fill:none;stroke:#000;stroke-linecap:round;stroke-linejoin:round;stroke-width:6px"/><circle cx="111" cy="33" r="30" style="fill:none;stroke:#000;stroke-linejoin:round;stroke-width:6px"/><circle cx="45" cy="99" r="42" style="fill:none;stroke:#000;stroke-linejoin:round;stroke-width:6px"/><path d="M104,40a7,7,0,1,0,7-7,6.95,6.95,0,1,1,7-7" style="fill:none;stroke:#000;stroke-linecap:round;stroke-linejoin:round;stroke-width:6px"/><line x1="111" y1="46.9" x2="111" y2="51.5" style="fill:none;stroke:#000;stroke-linecap:round;stroke-linejoin:round;stroke-width:6px"/><line x1="111" y1="14.5" x2="111" y2="19.1" style="fill:none;stroke:#000;stroke-linecap:round;stroke-linejoin:round;stroke-width:6px"/><path d="M54,6A29.96,29.96,0,0,0,24,36v6" style="fill:none;stroke:#000;stroke-linecap:round;stroke-linejoin:round;stroke-width:6px"/><path d="M96,126a29.96,29.96,0,0,0,30-30V90" style="fill:none;stroke:#000;stroke-linecap:round;stroke-linejoin:round;stroke-width:6px"/><polyline points="12 30 24 42 36 30" style="fill:none;stroke:#000;stroke-linecap:round;stroke-linejoin:round;stroke-width:6px"/><polyline points="114 102 126 90 138 102" style="fill:none;stroke:#000;stroke-linecap:round;stroke-linejoin:round;stroke-width:6px"/><rect width="144" height="144" style="fill:none"/></svg>