<svg xmlns="http://www.w3.org/2000/svg" viewBox="0 0 144 144"><circle cx="96" cy="48" r="45" style="fill:none;stroke:#000;stroke-linejoin:round;stroke-width:6px"/><line x1="75.9" y1="7.5" x2="85.5" y2="29.8" style="fill:none;stroke:#000;stroke-linejoin:round;stroke-width:6px"/><line x1="55.4" y1="28.5" x2="77.6" y2="37.9" style="fill:none;stroke:#000;stroke-linejoin:round;stroke-width:6px"/><line x1="116.1" y1="7.5" x2="106.5" y2="29.8" style="fill:none;stroke:#000;stroke-linejoin:round;stroke-width:6px"/><line x1="136.6" y1="28.5" x2="114.4" y2="37.9" style="fill:none;stroke:#000;stroke-linejoin:round;stroke-width:6px"/><line x1="75.9" y1="88.5" x2="85.5" y2="66.2" style="fill:none;stroke:#000;stroke-linejoin:round;stroke-width:6px"/><line x1="55.4" y1="67.5" x2="77.6" y2="58.1" style="fill:none;stroke:#000;stroke-linejoin:round;stroke-width:6px"/><line x1="116.1" y1="88.5" x2="106.5" y2="66.2" style="fill:none;stroke:#000;stroke-linejoin:round;stroke-width:6px"/><line x1="136.6" y1="67.5" x2="114.4" y2="58.1" style="fill:none;stroke:#000;stroke-linejoin:round;stroke-width:6px"/><circle cx="96" cy="48" r="21" style="fill:none;stroke:#000;stroke-linejoin:round;stroke-width:6px"/><line x1="45" y1="117.5" x2="45" y2="124" style="fill:none;stroke:#000;stroke-linecap:round;stroke-linejoin:round;stroke-width:6px"/><line x1="45" y1="72" x2="45" y2="78.5" style="fill:none;stroke:#000;stroke-linecap:round;stroke-linejoin:round;stroke-width:6px"/><path d="M35.2,107.7A9.8,9.8,0,1,0,45,97.9a9.75,9.75,0,1,1,9.8-9.8" style="fill:none;stroke:#000;stroke-linecap:round;stroke-linejoin:round;stroke-width:6px"/><polyline points="6 30 18 42 30 30" style="fill:none;stroke:#000;stroke-linecap:round;stroke-linejoin:round;stroke-width:6px"/><path d="M48,6A29.96,29.96,0,0,0,18,36v6" style="fill:none;stroke:#000;stroke-linecap:round;stroke-linejoin:round;stroke-width:6px"/><polyline points="138 114 126 102 114 114" style="fill:none;stroke:#000;stroke-linecap:round;stroke-linejoin:round;stroke-width:6px"/><path d="M96,138a29.96,29.96,0,0,0,30-30v-6" style="fill:none;stroke:#000;stroke-linecap:round;stroke-linejoin:round;stroke-width:6px"/><path d="M52.1,57.6A42.002,42.002,0,1,0,86.4,91.9" style="fill:none;stroke:#000;stroke-linecap:round;stroke-linejoin:round;stroke-width:6px"/><rect width="144" height="144" style="fill:none"/></svg>