<svg xmlns="http://www.w3.org/2000/svg" viewBox="0 0 144 144"><rect width="144" height="144" style="fill:none"/><line x1="72" y1="103" x2="72" y2="3" style="fill:none;stroke:#000;stroke-linecap:round;stroke-linejoin:round;stroke-width:6px"/><path d="M74.9,137.37a2.85,2.85,0,0,1-2.7889,2.91c-.037.0008-.0741.0009-.1111,0h0a2.85,2.85,0,0,1-2.9-2.7989c-.0006-.037-.0006-.0741,0-.1111h0a2.84,2.84,0,0,1,2.7787-2.9q.0606-.0014.1213,0h0a2.84,2.84,0,0,1,2.9,2.7787Q74.9013,137.3093,74.9,137.37Z" style="fill:none;stroke:#000;stroke-linejoin:round;stroke-width:6px"/><rect width="144" height="144" style="fill:none"/></svg>