<svg xmlns="http://www.w3.org/2000/svg" viewBox="0 0 144 144"><path d="M141,129a12.0353,12.0353,0,0,1-12,12H15A12.0353,12.0353,0,0,1,3,129V15A12.0353,12.0353,0,0,1,15,3H129a12.0353,12.0353,0,0,1,12,12Z" style="fill:none;stroke:#000;stroke-linecap:round;stroke-linejoin:round;stroke-width:6px"/><line x1="138" y1="6" x2="6" y2="138" style="fill:none;stroke:#000;stroke-linejoin:round;stroke-width:6px"/><rect x="21" y="27" width="42" height="18" style="fill:none;stroke:#000;stroke-linejoin:round;stroke-width:6px"/><polygon points="123 93 111 93 111 81 93 81 93 93 81 93 81 111 93 111 93 123 111 123 111 111 123 111 123 93" style="fill:none;stroke:#000;stroke-linejoin:round;stroke-width:6px"/><rect width="144" height="144" style="fill:none"/></svg>