<svg xmlns="http://www.w3.org/2000/svg" viewBox="0 0 144 144"><line x1="45" y1="39" x2="99" y2="39" style="fill:none;stroke:#000;stroke-linecap:round;stroke-linejoin:round;stroke-width:6px"/><path d="M72,3A14.98,14.98,0,0,0,57,18V84a14.965,14.965,0,0,0,9,13.7V111H78V97.7A14.965,14.965,0,0,0,87,84V18A14.98,14.98,0,0,0,72,3Z" style="fill:none;stroke:#000;stroke-linecap:round;stroke-linejoin:round;stroke-width:6px"/><path d="M75,84a3,3,0,0,1-6,0V51h6Z" style="fill:none;stroke:#000;stroke-linecap:round;stroke-linejoin:round;stroke-width:6px"/><path d="M78,135a6,6,0,0,1-12,0c0-3.3,6-12,6-12S78,131.7,78,135Z" style="fill:none;stroke:#000;stroke-linecap:round;stroke-linejoin:round;stroke-width:6px"/><rect width="144" height="144" style="fill:none"/></svg>