<svg xmlns="http://www.w3.org/2000/svg" viewBox="0 0 144 144"><path d="M56.6,93l-38,10.5A24.0067,24.0067,0,0,0,3,126v15H141V126a24.0067,24.0067,0,0,0-15.6-22.5L87.5,93" style="fill:none;stroke:#000;stroke-linecap:round;stroke-linejoin:round;stroke-width:6px"/><path d="M54,57c0-3.3,2.7-3,6-3s6-.3,6,3" style="fill:none;stroke:#000;stroke-linecap:round;stroke-linejoin:round;stroke-width:6px"/><path d="M78,57c0-3.3,2.7-3,6-3s6-.3,6,3" style="fill:none;stroke:#000;stroke-linecap:round;stroke-linejoin:round;stroke-width:6px"/><path d="M102,38.2V51c9,0,9,18,0,18,0,18-21,30.2-30,30.2S42,87,42,69c-9,0-9-18,0-18V38.2" style="fill:none;stroke:#000;stroke-linecap:round;stroke-linejoin:round;stroke-width:6px"/><path d="M35.5,62.4C23.4,59.6,15,55.5,15,51c0-8.3,25.5-15,57-15s57,6.7,57,15c0,4.5-8.4,8.6-20.5,11.4" style="fill:none;stroke:#000;stroke-linecap:round;stroke-linejoin:round;stroke-width:6px"/><path d="M120,42.9c-12.6-8.7-20.9-20.3-24.9-31.8A11.9551,11.9551,0,0,0,83.7,3H60.3A11.8294,11.8294,0,0,0,49,11.1C45,22.7,36.7,34.2,24.1,42.9" style="fill:none;stroke:#000;stroke-linecap:round;stroke-linejoin:round;stroke-width:6px"/><polyline points="30 141 36 123 108 123 114 141" style="fill:none;stroke:#000;stroke-linecap:round;stroke-linejoin:round;stroke-width:6px"/><polyline points="33.1 99.5 36 123 51 123 47.9 95.4" style="fill:none;stroke:#000;stroke-linejoin:round;stroke-width:6px"/><polyline points="110.9 99.5 108 123 93 123 96.1 95.4" style="fill:none;stroke:#000;stroke-linejoin:round;stroke-width:6px"/><rect width="144" height="144" style="fill:none"/></svg>