<svg xmlns="http://www.w3.org/2000/svg" viewBox="0 0 144 144"><polyline points="73.5 57.2 75 45 3 45 15 141 42 141" style="fill:none;stroke:#000;stroke-linecap:round;stroke-linejoin:round;stroke-width:6px"/><path d="M135,105H51V99A23.9424,23.9424,0,0,1,75,75h36a23.9424,23.9424,0,0,1,24,24Z" style="fill:none;stroke:#000;stroke-linejoin:round;stroke-width:6px"/><path d="M141,114a8.9626,8.9626,0,0,1-9,9H54a8.9626,8.9626,0,0,1-9-9h0a8.9626,8.9626,0,0,1,9-9h78a8.9626,8.9626,0,0,1,9,9Z" style="fill:none;stroke:#000;stroke-linejoin:round;stroke-width:6px"/><path d="M135,129a12.0353,12.0353,0,0,1-12,12H63a12.0353,12.0353,0,0,1-12-12v-6h84Z" style="fill:none;stroke:#000;stroke-linejoin:round;stroke-width:6px"/><path d="M29.7,113.8,41.8,9.7a6.0792,6.0792,0,0,1,2-5.2,5.9234,5.9234,0,0,1,5.4-1.3L75,9.3" style="fill:none;stroke:#000;stroke-linecap:round;stroke-linejoin:round;stroke-width:6px"/><path d="M105,84a2.9465,2.9465,0,0,0-3,3,3,3,0,0,0,6,0,2.9465,2.9465,0,0,0-3-3Z" style="fill:#000"/><path d="M81,84a2.9465,2.9465,0,0,0-3,3,3,3,0,0,0,6,0,2.9465,2.9465,0,0,0-3-3Z" style="fill:#000"/><path d="M93,90a2.9465,2.9465,0,0,0-3,3,3,3,0,0,0,6,0,2.9465,2.9465,0,0,0-3-3Z" style="fill:#000"/><rect width="144" height="144" style="fill:none"/></svg>