<svg xmlns="http://www.w3.org/2000/svg" viewBox="0 0 144 144"><polyline points="69 39 69 3 114 3 129 15 129 39" style="fill:none;stroke:#000;stroke-linejoin:round;stroke-width:6px"/><line x1="78" y1="15" x2="105" y2="15" style="fill:none;stroke:#000;stroke-linejoin:round;stroke-width:6px"/><line x1="78" y1="27" x2="120" y2="27" style="fill:none;stroke:#000;stroke-linejoin:round;stroke-width:6px"/><path d="M57,129a12.0353,12.0353,0,0,1-12,12H27a12.0353,12.0353,0,0,1-12-12V33A12.0353,12.0353,0,0,1,27,21H45A12.0353,12.0353,0,0,1,57,33Z" style="fill:none;stroke:#000;stroke-linejoin:round;stroke-width:6px"/><path d="M57,39h78a6.0176,6.0176,0,0,1,6,6v78a6.0176,6.0176,0,0,1-6,6H57" style="fill:none;stroke:#000;stroke-linejoin:round;stroke-width:6px"/><path d="M15,129H9a6.0176,6.0176,0,0,1-6-6V45a6.0176,6.0176,0,0,1,6-6h6" style="fill:none;stroke:#000;stroke-linejoin:round;stroke-width:6px"/><rect x="81" y="51" width="36" height="12" style="fill:none;stroke:#000;stroke-linejoin:round;stroke-width:6px"/><line x1="27" y1="21" x2="27" y2="3" style="fill:none;stroke:#000;stroke-linecap:round;stroke-linejoin:round;stroke-width:6px"/><polygon points="84 78 78 78 78 84 84 84 84 78" style="fill:#000"/><polygon points="102 78 96 78 96 84 102 84 102 78" style="fill:#000"/><polygon points="120 78 114 78 114 84 120 84 120 78" style="fill:#000"/><polygon points="84 90 78 90 78 96 84 96 84 90" style="fill:#000"/><polygon points="102 90 96 90 96 96 102 96 102 90" style="fill:#000"/><polygon points="120 90 114 90 114 96 120 96 120 90" style="fill:#000"/><polygon points="84 102 78 102 78 108 84 108 84 102" style="fill:#000"/><polygon points="102 102 96 102 96 108 102 108 102 102" style="fill:#000"/><polygon points="120 102 114 102 114 108 120 108 120 102" style="fill:#000"/><rect width="144" height="144" style="fill:none"/></svg>