<svg xmlns="http://www.w3.org/2000/svg" viewBox="0 0 144 144"><path d="M88.2,98.1c27,12,52.8,18.9,52.8,39.9v3H3v-3c0-21,25.8-27.9,52.8-39.9" style="fill:none;stroke:#000;stroke-linecap:round;stroke-linejoin:round;stroke-width:6px"/><path d="M41,24.2C16.3,42.9,19.9,84.1,12,90c0,0,25.4,5.7,34.4-3.3" style="fill:none;stroke:#000;stroke-linecap:round;stroke-linejoin:round;stroke-width:6px"/><path d="M103,24.2C127.7,42.9,124,84,132,90c0,0-25.4,5.7-34.4-3.3" style="fill:none;stroke:#000;stroke-linecap:round;stroke-linejoin:round;stroke-width:6px"/><path d="M54,45c0,6-9,21-21,21" style="fill:none;stroke:#000;stroke-linecap:round;stroke-linejoin:round;stroke-width:6px"/><path d="M102,63.1c0,36-21,38.9-30,41.9-9-3-30-5.9-30-41.9" style="fill:none;stroke:#000;stroke-linecap:round;stroke-linejoin:round;stroke-width:6px"/><path d="M90,45c0,6,9,21,21,21" style="fill:none;stroke:#000;stroke-linecap:round;stroke-linejoin:round;stroke-width:6px"/><path d="M54,66c0-3.3,2.7-3,6-3s6-.3,6,3" style="fill:none;stroke:#000;stroke-linecap:round;stroke-linejoin:round;stroke-width:6px"/><path d="M78,66c0-3.3,2.7-3,6-3s6-.3,6,3" style="fill:none;stroke:#000;stroke-linecap:round;stroke-linejoin:round;stroke-width:6px"/><polygon points="72 18 51 3 51 33 72 18 93 33 93 3 72 18" style="fill:none;stroke:#000;stroke-linejoin:round;stroke-width:6px"/><path d="M45,102.8V105c0,9.9,12.1,18,27,18s27-8.1,27-18v-2.2" style="fill:none;stroke:#000;stroke-linejoin:round;stroke-width:6px"/><line x1="33" y1="108" x2="39" y2="141" style="fill:none;stroke:#000;stroke-linejoin:round;stroke-width:6px"/><line x1="111" y1="108" x2="105" y2="141" style="fill:none;stroke:#000;stroke-linejoin:round;stroke-width:6px"/><rect width="144" height="144" style="fill:none"/></svg>