<svg xmlns="http://www.w3.org/2000/svg" viewBox="0 0 144 144"><circle cx="72" cy="65.9" r="12" style="fill:none;stroke:#000;stroke-linejoin:round;stroke-width:6px"/><path d="M87,15A12.0353,12.0353,0,0,0,75,3H69A12.0353,12.0353,0,0,0,57,15V33H87Z" style="fill:none;stroke:#000;stroke-linejoin:round;stroke-width:6px"/><path d="M135,39a12.0353,12.0353,0,0,0-12-12h-6a12.0353,12.0353,0,0,0-12,12V57h30Z" style="fill:none;stroke:#000;stroke-linejoin:round;stroke-width:6px"/><path d="M39,39A12.0353,12.0353,0,0,0,27,27H21A12.0353,12.0353,0,0,0,9,39V57H39Z" style="fill:none;stroke:#000;stroke-linejoin:round;stroke-width:6px"/><path d="M135,87a12.0353,12.0353,0,0,0-12-12h-6a12.0353,12.0353,0,0,0-12,12v18h30Z" style="fill:none;stroke:#000;stroke-linejoin:round;stroke-width:6px"/><path d="M39,87A12.0353,12.0353,0,0,0,27,75H21A12.0353,12.0353,0,0,0,9,87v18H39Z" style="fill:none;stroke:#000;stroke-linejoin:round;stroke-width:6px"/><polyline points="72 77.9 42 141 102 141 72 77.9" style="fill:none;stroke:#000;stroke-linecap:round;stroke-linejoin:round;stroke-width:6px"/><path d="M108.6,30.4A51.0217,51.0217,0,0,0,87,16.8" style="fill:none;stroke:#000;stroke-linecap:round;stroke-linejoin:round;stroke-width:6px"/><path d="M122.3,75a45.362,45.362,0,0,0,.7-9.1,61.2905,61.2905,0,0,0-.7-8.7" style="fill:none;stroke:#000;stroke-linecap:round;stroke-linejoin:round;stroke-width:6px"/><path d="M21.8,57a52.598,52.598,0,0,0-.8,8.9,54.0387,54.0387,0,0,0,.8,9.1" style="fill:none;stroke:#000;stroke-linecap:round;stroke-linejoin:round;stroke-width:6px"/><path d="M56.8,17.2A52.5036,52.5036,0,0,0,35.3,30.4" style="fill:none;stroke:#000;stroke-linecap:round;stroke-linejoin:round;stroke-width:6px"/><path d="M48,111.1a48.7566,48.7566,0,0,1-9.9-6.9" style="fill:none;stroke:#000;stroke-linejoin:round;stroke-width:6px"/><path d="M105.2,104.8a51.6192,51.6192,0,0,1-8.3,5.8" style="fill:none;stroke:#000;stroke-linejoin:round;stroke-width:6px"/><rect width="144" height="144" style="fill:none"/></svg>