<svg xmlns="http://www.w3.org/2000/svg" viewBox="0 0 144 144.1"><line x1="108.6" y1="51.1" x2="117" y2="51.1" style="fill:none;stroke:#000;stroke-linecap:round;stroke-linejoin:round;stroke-width:6px"/><line x1="98.2" y1="21.8" x2="104.5" y2="15.5" style="fill:none;stroke:#000;stroke-linecap:round;stroke-linejoin:round;stroke-width:6px"/><line x1="69" y1="11.5" x2="69" y2="3.1" style="fill:none;stroke:#000;stroke-linecap:round;stroke-linejoin:round;stroke-width:6px"/><line x1="39.8" y1="21.8" x2="33.5" y2="15.5" style="fill:none;stroke:#000;stroke-linecap:round;stroke-linejoin:round;stroke-width:6px"/><line x1="29.3" y1="51.1" x2="21" y2="51.1" style="fill:none;stroke:#000;stroke-linecap:round;stroke-linejoin:round;stroke-width:6px"/><path d="M3,93v48H135V93C102,71.8,36,72.2,3,93Z" style="fill:none;stroke:#000;stroke-linecap:round;stroke-linejoin:round;stroke-width:6px"/><line x1="99.8" y1="141.1" x2="80.2" y2="77.6" style="fill:none;stroke:#000;stroke-linecap:round;stroke-linejoin:round;stroke-width:6px"/><line x1="135.1" y1="135" x2="89" y2="78.4" style="fill:none;stroke:#000;stroke-linecap:round;stroke-linejoin:round;stroke-width:6px"/><line x1="38.2" y1="141" x2="57.8" y2="77.6" style="fill:none;stroke:#000;stroke-linecap:round;stroke-linejoin:round;stroke-width:6px"/><line x1="3.4" y1="135" x2="49.6" y2="78.4" style="fill:none;stroke:#000;stroke-linecap:round;stroke-linejoin:round;stroke-width:6px"/><line x1="69" y1="141.1" x2="69" y2="77.3" style="fill:none;stroke:#000;stroke-linecap:round;stroke-linejoin:round;stroke-width:6px"/><path d="M55.3,77.8A30.0041,30.0041,0,1,1,99,51.1,30.1267,30.1267,0,0,1,82.8,77.8" style="fill:none;stroke:#000;stroke-linecap:round;stroke-linejoin:round;stroke-width:6px"/><rect width="144" height="144" style="fill:none"/></svg>