<svg xmlns="http://www.w3.org/2000/svg" viewBox="0 0 144 144"><path d="M25.6,103.5A7.67,7.67,0,0,0,33,111c4.1,0,7.4-3.6,7.4-8,0-6.5-6.1-6.7-7.4-7-1.3-.4-7.4-.6-7.4-7.1A7.6476,7.6476,0,0,1,33.1,81a7.6512,7.6512,0,0,1,7.4,7.4" style="fill:none;stroke:#000;stroke-linecap:round;stroke-linejoin:round;stroke-width:6px"/><path d="M98.2,87c-1-4.5-3.3-6-8.2-6-7.5,0-9,6.2-9,15s1.5,15,9,15c6.3,0,8.5-5.3,9-12H90" style="fill:none;stroke:#000;stroke-linecap:round;stroke-linejoin:round;stroke-width:6px"/><polyline points="51 81 60 111 69 81" style="fill:none;stroke:#000;stroke-linecap:round;stroke-linejoin:round;stroke-width:6px"/><polygon points="117 141 3 141 3 3 81 3 117 39 117 141" style="fill:none;stroke:#000;stroke-linecap:round;stroke-linejoin:round;stroke-width:6px"/><polyline points="81 3 81 39 117 39" style="fill:none;stroke:#000;stroke-linecap:round;stroke-linejoin:round;stroke-width:6px"/><rect width="144" height="144" style="fill:none"/></svg>