<svg xmlns="http://www.w3.org/2000/svg" viewBox="0 0 144 144"><path d="M110.2,87c-1-4.5-3.3-6-8.2-6-7.5,0-9,6.2-9,15s1.5,15,9,15c6.3,0,8.5-5.3,9-12h-9" style="fill:none;stroke:#000;stroke-linecap:round;stroke-linejoin:round;stroke-width:6px"/><polyline points="57 111 57 81 45 96 33 81 33 111" style="fill:none;stroke:#000;stroke-linecap:round;stroke-linejoin:round;stroke-width:6px"/><polygon points="129 141 15 141 15 3 93 3 129 39 129 141" style="fill:none;stroke:#000;stroke-linecap:round;stroke-linejoin:round;stroke-width:6px"/><polyline points="93 3 93 39 129 39" style="fill:none;stroke:#000;stroke-linecap:round;stroke-linejoin:round;stroke-width:6px"/><path d="M69,111V81h7.5a7.5,7.5,0,0,1,0,15H69" style="fill:none;stroke:#000;stroke-linecap:round;stroke-linejoin:round;stroke-width:6px"/><rect width="144" height="144" style="fill:none"/></svg>