<svg xmlns="http://www.w3.org/2000/svg" viewBox="0 0 144 144"><polygon points="69 141 141 141 105 69 69 141" style="fill:none;stroke:#000;stroke-linecap:round;stroke-linejoin:round;stroke-width:6px"/><line x1="105" y1="99" x2="105" y2="120" style="fill:none;stroke:#000;stroke-linecap:round;stroke-linejoin:round;stroke-width:6px"/><path d="M105,126a3.0085,3.0085,0,0,0-3,3,3,3,0,0,0,6,0,3.0085,3.0085,0,0,0-3-3Z" style="fill:#000"/><path d="M48,99A27,27,0,1,1,74.4,66.2" style="fill:none;stroke:#000;stroke-linecap:round;stroke-linejoin:round;stroke-width:6px"/><polyline points="45 60 45 75 54 75" style="fill:none;stroke:#000;stroke-linecap:round;stroke-linejoin:round;stroke-width:6px"/><polyline points="57 129 3 129 3 3 69 3 99 33 99 57" style="fill:none;stroke:#000;stroke-linecap:round;stroke-linejoin:round;stroke-width:6px"/><polyline points="69 3 69 33 99 33" style="fill:none;stroke:#000;stroke-linecap:round;stroke-linejoin:round;stroke-width:6px"/><rect width="144" height="144" style="fill:none"/></svg>