<svg xmlns="http://www.w3.org/2000/svg" viewBox="0 0 144 144"><path d="M54,75H43.5A4.4813,4.4813,0,0,0,39,79.5v9A4.4813,4.4813,0,0,0,43.5,93H54l21,21V54Z" style="fill:none;stroke:#000;stroke-linecap:round;stroke-linejoin:round;stroke-width:6px"/><path d="M96,66c5,4.1,9,11,9,18s-4,13.9-9,18" style="fill:none;stroke:#000;stroke-linecap:round;stroke-linejoin:round;stroke-width:6px"/><path d="M84,73.5c3.4,2.5,6,6,6,10.5s-2.6,8-6,10.5" style="fill:none;stroke:#000;stroke-linecap:round;stroke-linejoin:round;stroke-width:6px"/><polygon points="129 141 15 141 15 3 93 3 129 39 129 141" style="fill:none;stroke:#000;stroke-linecap:round;stroke-linejoin:round;stroke-width:6px"/><polyline points="93 3 93 39 129 39" style="fill:none;stroke:#000;stroke-linecap:round;stroke-linejoin:round;stroke-width:6px"/><rect width="144" height="144" style="fill:none"/></svg>