<svg xmlns="http://www.w3.org/2000/svg" viewBox="0 0 144 144"><path d="M108,141s33-24,33-41.8c0-20.5-27-27-33-2.1-6-24.9-33-18.5-33,2.1C75,117,108,141,108,141Z" style="fill:none;stroke:#000;stroke-linejoin:round;stroke-width:6px"/><line x1="21" y1="39" x2="48" y2="39" style="fill:none;stroke:#000;stroke-linecap:round;stroke-linejoin:round;stroke-width:6px"/><line x1="21" y1="57" x2="69" y2="57" style="fill:none;stroke:#000;stroke-linecap:round;stroke-linejoin:round;stroke-width:6px"/><line x1="21" y1="75" x2="57" y2="75" style="fill:none;stroke:#000;stroke-linecap:round;stroke-linejoin:round;stroke-width:6px"/><line x1="21" y1="93" x2="51" y2="93" style="fill:none;stroke:#000;stroke-linecap:round;stroke-linejoin:round;stroke-width:6px"/><polyline points="75 129 3 129 3 3 69 3 99 33 99 66" style="fill:none;stroke:#000;stroke-linecap:round;stroke-linejoin:round;stroke-width:6px"/><polyline points="69 3 69 33 99 33" style="fill:none;stroke:#000;stroke-linecap:round;stroke-linejoin:round;stroke-width:6px"/><rect width="144" height="144" style="fill:none"/></svg>