<svg xmlns="http://www.w3.org/2000/svg" viewBox="0 0 144 144"><rect x="3" y="39" width="138" height="72" style="fill:none;stroke:#000;stroke-linecap:round;stroke-linejoin:round;stroke-width:6px"/><path d="M33,93V57h5.6C48,57,51,66.4,51,75S48,93,38.6,93Z" style="fill:none;stroke:#000;stroke-linecap:round;stroke-linejoin:round;stroke-width:6px"/><path d="M114,63a10.6572,10.6572,0,0,0-9-6c-7.2,0-12,9.2-12,18s4.8,18,12,18a10.6572,10.6572,0,0,0,9-6" style="fill:none;stroke:#000;stroke-linecap:round;stroke-linejoin:round;stroke-width:6px"/><path d="M81,75c0,8.8-1.7,18-9.2,18S63,83.8,63,75s1.3-18,8.8-18S81,66.2,81,75Z" style="fill:none;stroke:#000;stroke-linecap:round;stroke-linejoin:round;stroke-width:6px"/><rect width="144" height="144" style="fill:none"/></svg>