<svg xmlns="http://www.w3.org/2000/svg" viewBox="0 0 144 144"><path d="M81,105a6.0176,6.0176,0,0,1-6,6H45a6.0176,6.0176,0,0,1-6-6V75a6.0176,6.0176,0,0,1,6-6H75a6.0176,6.0176,0,0,1,6,6Z" style="fill:none;stroke:#000;stroke-linejoin:round;stroke-width:6px"/><path d="M81,96l18.5,8.8c3,1.3,5.5-.4,5.5-3.7V78.9c0-3.3-2.5-5-5.5-3.7L81,84" style="fill:none;stroke:#000;stroke-linecap:round;stroke-linejoin:round;stroke-width:6px"/><polygon points="129 141 15 141 15 3 93 3 129 39 129 141" style="fill:none;stroke:#000;stroke-linecap:round;stroke-linejoin:round;stroke-width:6px"/><polyline points="93 3 93 39 129 39" style="fill:none;stroke:#000;stroke-linecap:round;stroke-linejoin:round;stroke-width:6px"/><rect width="144" height="144" style="fill:none"/></svg>