<svg xmlns="http://www.w3.org/2000/svg" viewBox="0 0 144 144"><path d="M90,69.4c0,6.9-13.6,12.8-30.1,12.8C43.4,82.1,30,76.5,30,69.6,30,62.6,43.4,57,59.9,57S90,62.4,90,69.4Z" style="fill:none;stroke:#000;stroke-linecap:round;stroke-linejoin:round;stroke-width:6px"/><path d="M90,90.1c0,6.9-13.6,12.8-30.1,12.8S30,97.2,30,90.3" style="fill:none;stroke:#000;stroke-linecap:round;stroke-linejoin:round;stroke-width:6px"/><path d="M30,69.6v40.9c0,6.9,13.4,12.6,29.9,12.6S90,117.2,90,110.2V69.4" style="fill:none;stroke:#000;stroke-linecap:round;stroke-linejoin:round;stroke-width:6px"/><polygon points="117 141 3 141 3 3 81 3 117 39 117 141" style="fill:none;stroke:#000;stroke-linecap:round;stroke-linejoin:round;stroke-width:6px"/><polyline points="81 3 81 39 117 39" style="fill:none;stroke:#000;stroke-linecap:round;stroke-linejoin:round;stroke-width:6px"/><rect width="144" height="144" style="fill:none"/></svg>