<svg xmlns="http://www.w3.org/2000/svg" viewBox="0 0 144 144"><path d="M97.6,88.4C97.7,85.5,99,81,105,81c6.3,0,7.4,5.1,7.4,7.9,0,2.9-1.8,7.1-8.1,7.1,6.3,0,8.1,4.2,8.1,7.1,0,2.8-1.1,7.9-7.4,7.9-6,0-7.3-4.5-7.4-7.4" style="fill:none;stroke:#000;stroke-linecap:round;stroke-linejoin:round;stroke-width:6px"/><polyline points="57 111 57 81 45 96 33 81 33 111" style="fill:none;stroke:#000;stroke-linecap:round;stroke-linejoin:round;stroke-width:6px"/><polygon points="129 141 15 141 15 3 93 3 129 39 129 141" style="fill:none;stroke:#000;stroke-linecap:round;stroke-linejoin:round;stroke-width:6px"/><polyline points="93 3 93 39 129 39" style="fill:none;stroke:#000;stroke-linecap:round;stroke-linejoin:round;stroke-width:6px"/><path d="M69,111V81h7.5a7.5,7.5,0,0,1,0,15H69" style="fill:none;stroke:#000;stroke-linecap:round;stroke-linejoin:round;stroke-width:6px"/><rect width="144" height="144" style="fill:none"/></svg>