<svg xmlns="http://www.w3.org/2000/svg" viewBox="0 0 144 144"><path d="M15,6a2.9465,2.9465,0,0,0-3,3,3,3,0,0,0,6,0,2.9465,2.9465,0,0,0-3-3Z" style="fill:#000"/><path d="M27,6a2.9465,2.9465,0,0,0-3,3,3,3,0,0,0,6,0,2.9465,2.9465,0,0,0-3-3Z" style="fill:#000"/><path d="M39,6a2.9465,2.9465,0,0,0-3,3,3,3,0,0,0,6,0,2.9465,2.9465,0,0,0-3-3Z" style="fill:#000"/><path d="M51,6a2.9465,2.9465,0,0,0-3,3,2.9465,2.9465,0,0,0,3,3,3,3,0,0,0,0-6Z" style="fill:#000"/><path d="M63,6a2.9465,2.9465,0,0,0-3,3,2.9465,2.9465,0,0,0,3,3,3,3,0,0,0,0-6Z" style="fill:#000"/><path d="M75,6a2.9465,2.9465,0,0,0-3,3,2.9465,2.9465,0,0,0,3,3,3,3,0,0,0,0-6Z" style="fill:#000"/><path d="M87,6a2.9465,2.9465,0,0,0-3,3,2.9465,2.9465,0,0,0,3,3,3,3,0,0,0,0-6Z" style="fill:#000"/><path d="M87,18a3,3,0,0,0,0,6,3,3,0,0,0,0-6Z" style="fill:#000"/><path d="M87,30a3,3,0,0,0,0,6,3,3,0,0,0,0-6Z" style="fill:#000"/><path d="M102,18a3,3,0,0,0,0,6,3,3,0,0,0,0-6Z" style="fill:#000"/><path d="M87,42a3,3,0,0,0,0,6,3,3,0,0,0,0-6Z" style="fill:#000"/><path d="M111,27a3,3,0,0,0,0,6,3,3,0,0,0,0-6Z" style="fill:#000"/><path d="M27,138a3,3,0,1,0,3,3,2.9465,2.9465,0,0,0-3-3Z" style="fill:#000"/><path d="M39,138a3,3,0,1,0,3,3,2.9465,2.9465,0,0,0-3-3Z" style="fill:#000"/><path d="M51,138a3,3,0,0,0,0,6,3,3,0,0,0,0-6Z" style="fill:#000"/><path d="M63,138a3,3,0,0,0,0,6,3,3,0,0,0,0-6Z" style="fill:#000"/><path d="M75,138a3,3,0,0,0,0,6,3,3,0,0,0,0-6Z" style="fill:#000"/><path d="M87,138a3,3,0,0,0,0,6,3,3,0,0,0,0-6Z" style="fill:#000"/><path d="M99,138a3,3,0,0,0,0,6,3,3,0,0,0,0-6Z" style="fill:#000"/><path d="M111,138a3,3,0,0,0,0,6,3,3,0,0,0,0-6Z" style="fill:#000"/><path d="M15,18a3,3,0,1,0,3,3,2.9465,2.9465,0,0,0-3-3Z" style="fill:#000"/><path d="M15,30a3,3,0,1,0,3,3,2.9465,2.9465,0,0,0-3-3Z" style="fill:#000"/><path d="M15,42a3,3,0,1,0,3,3,2.9465,2.9465,0,0,0-3-3Z" style="fill:#000"/><path d="M123,42a3,3,0,0,0,0,6,3,3,0,0,0,0-6Z" style="fill:#000"/><path d="M111,42a3,3,0,0,0,0,6,3,3,0,0,0,0-6Z" style="fill:#000"/><path d="M99,42a3,3,0,0,0,0,6,3,3,0,0,0,0-6Z" style="fill:#000"/><path d="M15,54a3,3,0,1,0,3,3,2.9465,2.9465,0,0,0-3-3Z" style="fill:#000"/><path d="M123,54a3,3,0,0,0,0,6,3,3,0,0,0,0-6Z" style="fill:#000"/><path d="M15,66a3,3,0,1,0,3,3,2.9465,2.9465,0,0,0-3-3Z" style="fill:#000"/><path d="M123,66a3,3,0,0,0,0,6,3,3,0,0,0,0-6Z" style="fill:#000"/><path d="M15,78a3,3,0,1,0,3,3,2.9465,2.9465,0,0,0-3-3Z" style="fill:#000"/><path d="M123,78a3,3,0,0,0,0,6,3,3,0,0,0,0-6Z" style="fill:#000"/><path d="M15,90a3,3,0,1,0,3,3,2.9465,2.9465,0,0,0-3-3Z" style="fill:#000"/><path d="M123,90a3,3,0,0,0,0,6,3,3,0,0,0,0-6Z" style="fill:#000"/><path d="M15,102a3,3,0,1,0,3,3,2.9465,2.9465,0,0,0-3-3Z" style="fill:#000"/><path d="M123,102a3,3,0,0,0,0,6,3,3,0,0,0,0-6Z" style="fill:#000"/><path d="M15,114a3,3,0,1,0,3,3,2.9465,2.9465,0,0,0-3-3Z" style="fill:#000"/><path d="M123,114a3,3,0,0,0,0,6,3,3,0,0,0,0-6Z" style="fill:#000"/><path d="M15,126a3,3,0,1,0,3,3,2.9465,2.9465,0,0,0-3-3Z" style="fill:#000"/><path d="M123,126a3,3,0,0,0,0,6,3,3,0,0,0,0-6Z" style="fill:#000"/><path d="M15,138a3,3,0,1,0,3,3,2.9465,2.9465,0,0,0-3-3Z" style="fill:#000"/><path d="M123,138a3,3,0,0,0,0,6,3,3,0,0,0,0-6Z" style="fill:#000"/><rect width="144" height="144" style="fill:none"/></svg>