<svg xmlns="http://www.w3.org/2000/svg" viewBox="0 0 144 144"><rect x="3" y="39" width="138" height="72" style="fill:none;stroke:#000;stroke-linecap:round;stroke-linejoin:round;stroke-width:6px"/><path d="M33,66a9,9,0,1,1,9,9" style="fill:none;stroke:#000;stroke-linecap:round;stroke-linejoin:round;stroke-width:6px"/><path d="M33,84a9,9,0,1,0,9-9" style="fill:none;stroke:#000;stroke-linecap:round;stroke-linejoin:round;stroke-width:6px"/><path d="M63,93V57h8.6C81,57,87,66.4,87,75S81,93,71.6,93Z" style="fill:none;stroke:#000;stroke-linecap:round;stroke-linejoin:round;stroke-width:6px"/><path d="M99,85.5a7.67,7.67,0,0,0,7.4,7.5c4.1,0,7.4-3.6,7.4-8,0-6.5-6.1-10.6-7.4-10.9-1.3-.4-7.5-2.7-7.5-9.1a7.4567,7.4567,0,1,1,14.9-.5" style="fill:none;stroke:#000;stroke-linecap:round;stroke-linejoin:round;stroke-width:6px"/><rect width="144" height="144" style="fill:none"/></svg>