<svg xmlns="http://www.w3.org/2000/svg" viewBox="0 0 144 144.1"><polyline points="57 129 3 129 3 3 69 3 99 33 99 66" style="fill:none;stroke:#000;stroke-linecap:round;stroke-linejoin:round;stroke-width:6px"/><polyline points="69 3 69 33 99 33" style="fill:none;stroke:#000;stroke-linecap:round;stroke-linejoin:round;stroke-width:6px"/><line x1="57" y1="63.1" x2="81" y2="63.1" style="fill:none;stroke:#000;stroke-linecap:round;stroke-linejoin:round;stroke-width:6px"/><line x1="57" y1="87.1" x2="69" y2="87.1" style="fill:none;stroke:#000;stroke-linecap:round;stroke-linejoin:round;stroke-width:6px"/><polyline points="45 51 30 66 21 57" style="fill:none;stroke:#000;stroke-linecap:round;stroke-linejoin:round;stroke-width:6px"/><polyline points="45 75.1 30 90.1 21 81.1" style="fill:none;stroke:#000;stroke-linecap:round;stroke-linejoin:round;stroke-width:6px"/><line x1="68.1" y1="141.1" x2="109.9" y2="99.4" style="fill:none;stroke:#000;stroke-linecap:round;stroke-linejoin:round;stroke-width:6px"/><path d="M99,82.4c-5.9.6-29.8,24.8-13.7,40.9,5.6,5.6,18.3,4.7,33.5-10.4,15.1-15.1,21.9-44.4,21.9-44.4A123.4775,123.4775,0,0,0,112,76.6S111,93,99,93Z" style="fill:none;stroke:#000;stroke-linecap:round;stroke-linejoin:round;stroke-width:6px"/><rect width="144" height="144" style="fill:none"/></svg>