<svg xmlns="http://www.w3.org/2000/svg" viewBox="0 0 144 144"><rect x="3" y="39" width="138" height="72" style="fill:none;stroke:#000;stroke-linecap:round;stroke-linejoin:round;stroke-width:6px"/><path d="M54,63a10.6572,10.6572,0,0,0-9-6c-7.2,0-12,9.2-12,18s4.8,18,12,18a10.6572,10.6572,0,0,0,9-6" style="fill:none;stroke:#000;stroke-linecap:round;stroke-linejoin:round;stroke-width:6px"/><path d="M66,85.6A7.58,7.58,0,0,0,73.4,93c4.1,0,7.4-3.6,7.4-8,0-12.7-14.9-9.2-14.9-20.1a7.4567,7.4567,0,1,1,14.9-.5" style="fill:none;stroke:#000;stroke-linecap:round;stroke-linejoin:round;stroke-width:6px"/><path d="M93.1,85.6a7.58,7.58,0,0,0,7.4,7.4c4.1,0,7.4-3.6,7.4-8,0-12.7-14.9-9.2-14.9-20.1a7.4567,7.4567,0,1,1,14.9-.5" style="fill:none;stroke:#000;stroke-linecap:round;stroke-linejoin:round;stroke-width:6px"/><rect width="144" height="144" style="fill:none"/></svg>