<svg xmlns="http://www.w3.org/2000/svg" viewBox="0 0 144 144"><path d="M93,111a6.0176,6.0176,0,0,1-6,6H33a6.0176,6.0176,0,0,1-6-6V75a6.0176,6.0176,0,0,1,6-6H51l1.3-2.7A6.0456,6.0456,0,0,1,57.7,63H71.3a6.0456,6.0456,0,0,1,5.4,3.3L78,69h9a6.0176,6.0176,0,0,1,6,6Z" style="fill:none;stroke:#000;stroke-linejoin:round;stroke-width:6px"/><circle cx="63" cy="93" r="12" style="fill:none;stroke:#000;stroke-linejoin:round;stroke-width:6px"/><rect x="36" y="63" width="3" height="5.9" style="fill:none;stroke:#000;stroke-linejoin:round;stroke-width:6px"/><polygon points="117 141 3 141 3 3 81 3 117 39 117 141" style="fill:none;stroke:#000;stroke-linecap:round;stroke-linejoin:round;stroke-width:6px"/><polyline points="81 3 81 39 117 39" style="fill:none;stroke:#000;stroke-linecap:round;stroke-linejoin:round;stroke-width:6px"/><rect width="144" height="144" style="fill:none"/></svg>