<svg xmlns="http://www.w3.org/2000/svg" viewBox="0 0 144 144"><path d="M36.1,85.6A7.58,7.58,0,0,0,43.5,93c4.1,0,7.4-3.6,7.4-8C50.9,72.3,36,75.8,36,64.9a7.4567,7.4567,0,1,1,14.9-.5" style="fill:none;stroke:#000;stroke-linecap:round;stroke-linejoin:round;stroke-width:6px"/><rect x="3" y="39" width="138" height="72" style="fill:none;stroke:#000;stroke-linecap:round;stroke-linejoin:round;stroke-width:6px"/><polyline points="114 93 99.1 93 99.1 57" style="fill:none;stroke:#000;stroke-linecap:round;stroke-linejoin:round;stroke-width:6px"/><path d="M87,75c0,8.8-4.3,18-11.8,18S63,83.8,63,75s4.7-18,12.2-18S87,66.2,87,75Z" style="fill:none;stroke:#000;stroke-linecap:round;stroke-linejoin:round;stroke-width:6px"/><path d="M75.2,96C78,93,84,99,87,96" style="fill:none;stroke:#000;stroke-linecap:round;stroke-linejoin:round;stroke-width:6px"/><rect width="144" height="144" style="fill:none"/></svg>