<svg xmlns="http://www.w3.org/2000/svg" viewBox="0 0 144 144"><polygon points="129 141 15 141 15 3 93 3 129 39 129 141" style="fill:none;stroke:#000;stroke-linecap:round;stroke-linejoin:round;stroke-width:6px"/><polyline points="93 3 93 39 129 39" style="fill:none;stroke:#000;stroke-linecap:round;stroke-linejoin:round;stroke-width:6px"/><path d="M109.2,88.4c-1-4.5-3.1-7.4-7.8-7.4-7.2,0-8.5,6.2-8.5,15s1.3,15,8.5,15c4.7,0,6.8-3,7.8-7.4" style="fill:none;stroke:#000;stroke-linecap:round;stroke-linejoin:round;stroke-width:6px"/><path d="M81,96c0,8.8-1.5,15-9,15s-9-6.2-9-15,1.5-15,9-15S81,87.2,81,96Z" style="fill:none;stroke:#000;stroke-linecap:round;stroke-linejoin:round;stroke-width:6px"/><path d="M33,111V81h6c6.9,0,12,6.4,12,15s-5.1,15-12,15Z" style="fill:none;stroke:#000;stroke-linecap:round;stroke-linejoin:round;stroke-width:6px"/><rect width="144" height="144" style="fill:none"/></svg>