<svg xmlns="http://www.w3.org/2000/svg" viewBox="0 0 144 144"><path d="M43.6,103.6A7.58,7.58,0,0,0,51,111c4.1,0,7.4-3.6,7.4-8,0-6.5-6.1-6.7-7.4-7-1.3-.4-7.4-.6-7.4-7.1a7.4567,7.4567,0,1,1,14.9-.5" style="fill:none;stroke:#000;stroke-linecap:round;stroke-linejoin:round;stroke-width:6px"/><path d="M93,96c0,8.8-1.5,15-9,15s-9-6.2-9-15,1.5-15,9-15S93,87.2,93,96Z" style="fill:none;stroke:#000;stroke-linecap:round;stroke-linejoin:round;stroke-width:6px"/><polygon points="117 141 3 141 3 3 81 3 117 39 117 141" style="fill:none;stroke:#000;stroke-linecap:round;stroke-linejoin:round;stroke-width:6px"/><polyline points="81 3 81 39 117 39" style="fill:none;stroke:#000;stroke-linecap:round;stroke-linejoin:round;stroke-width:6px"/><line x1="27" y1="111" x2="27" y2="81" style="fill:none;stroke:#000;stroke-linecap:round;stroke-linejoin:round;stroke-width:6px"/><rect width="144" height="144" style="fill:none"/></svg>