<svg xmlns="http://www.w3.org/2000/svg" viewBox="0 0 144 144"><path d="M33,111V81h6c6.9,0,12,6.4,12,15s-5.1,15-12,15Z" style="fill:none;stroke:#000;stroke-linecap:round;stroke-linejoin:round;stroke-width:6px"/><path d="M116.2,87c-1-4.5-3.3-6-8.2-6-7.5,0-9,6.2-9,15s1.5,15,9,15c6.3,0,8.5-5.3,9-12h-9" style="fill:none;stroke:#000;stroke-linecap:round;stroke-linejoin:round;stroke-width:6px"/><polyline points="87 81 81 111 75 96 69 111 63 81" style="fill:none;stroke:#000;stroke-linecap:round;stroke-linejoin:round;stroke-width:6px"/><polygon points="129 141 15 141 15 3 93 3 129 39 129 141" style="fill:none;stroke:#000;stroke-linecap:round;stroke-linejoin:round;stroke-width:6px"/><polyline points="93 3 93 39 129 39" style="fill:none;stroke:#000;stroke-linecap:round;stroke-linejoin:round;stroke-width:6px"/><rect width="144" height="144" style="fill:none"/></svg>