<svg xmlns="http://www.w3.org/2000/svg" viewBox="0 0 144 144"><path d="M108,141s33-24,33-41.8c0-20.5-27-27-33-2.1-6-24.9-33-18.5-33,2.1C75,117,108,141,108,141Z" style="fill:none;stroke:#000;stroke-linejoin:round;stroke-width:6px"/><polyline points="75 129 3 129 3 3 69 3 99 33 99 69" style="fill:none;stroke:#000;stroke-linecap:round;stroke-linejoin:round;stroke-width:6px"/><polyline points="69 3 69 33 99 33" style="fill:none;stroke:#000;stroke-linecap:round;stroke-linejoin:round;stroke-width:6px"/><rect x="21" y="75" width="12" height="24" style="fill:none;stroke:#000;stroke-linecap:round;stroke-linejoin:round;stroke-width:6px"/><rect x="45" y="63" width="12" height="36" style="fill:none;stroke:#000;stroke-linecap:round;stroke-linejoin:round;stroke-width:6px"/><rect x="33" y="45" width="12" height="54" style="fill:none;stroke:#000;stroke-linecap:round;stroke-linejoin:round;stroke-width:6px"/><line x1="15" y1="99" x2="57" y2="99" style="fill:none;stroke:#000;stroke-linecap:round;stroke-linejoin:round;stroke-width:6px"/><rect width="144" height="144" style="fill:none"/></svg>