<svg xmlns="http://www.w3.org/2000/svg" viewBox="0 0 144 144.2"><path d="M84.1,113.3l7.6-13.2-7.6-4.4a24.04,24.04,0,0,0,0-11l7.6-4.4L84.1,67.1l-7.3,4.4c-2.7-2.5-6.7-4.4-9.2-5.5V57.2H52.4V66c-5.1,1.1-7.1,3-9.8,5.5l-7.8-4.4L27.1,80.3l7.6,4.4a24.04,24.04,0,0,0,0,11l-7.6,4.4,7.6,13.2,7.9-4.4c2.7,2.5,4.8,4.4,9.8,5.5v8.8H67.6v-8.8c2.5-1.1,6.5-3,9.2-5.5Z" style="fill:none;stroke:#000;stroke-linejoin:round;stroke-width:6px"/><circle cx="59.4" cy="90.2" r="10.2" style="fill:none;stroke:#000;stroke-linejoin:round;stroke-width:6px"/><polygon points="117 141.2 3 141.2 3 3.2 81 3.2 117 39.2 117 141.2" style="fill:none;stroke:#000;stroke-linecap:round;stroke-linejoin:round;stroke-width:6px"/><polyline points="81 3.2 81 39.2 117 39.2" style="fill:none;stroke:#000;stroke-linecap:round;stroke-linejoin:round;stroke-width:6px"/><rect width="144" height="144" style="fill:none"/></svg>