<svg xmlns="http://www.w3.org/2000/svg" viewBox="0 0 144 144"><circle cx="60" cy="90" r="33" style="fill:none;stroke:#000;stroke-linecap:round;stroke-linejoin:round;stroke-width:6px"/><polygon points="117 141 3 141 3 3 81 3 117 39 117 141" style="fill:none;stroke:#000;stroke-linecap:round;stroke-linejoin:round;stroke-width:6px"/><polyline points="81 3 81 39 117 39" style="fill:none;stroke:#000;stroke-linecap:round;stroke-linejoin:round;stroke-width:6px"/><path d="M56.4,83.8a6.68,6.68,0,0,0-6.7-4.7C43.8,79.1,42,84,42,90s1.8,10.9,7.7,10.9a6.6023,6.6023,0,0,0,6.7-4.6" style="fill:none;stroke:#000;stroke-linecap:round;stroke-linejoin:round;stroke-width:6px"/><path d="M78,83.8a6.68,6.68,0,0,0-6.7-4.7c-5.8,0-7.7,4.9-7.7,10.9s1.8,10.9,7.7,10.9A6.6023,6.6023,0,0,0,78,96.3" style="fill:none;stroke:#000;stroke-linecap:round;stroke-linejoin:round;stroke-width:6px"/><rect width="144" height="144" style="fill:none"/></svg>