<svg xmlns="http://www.w3.org/2000/svg" viewBox="0 0 144 144"><polygon points="129 63 81 63 81 3 111 3 129 21 129 63" style="fill:none;stroke:#000;stroke-linecap:round;stroke-linejoin:round;stroke-width:6px"/><polyline points="111 3 111 21 129 21" style="fill:none;stroke:#000;stroke-linecap:round;stroke-linejoin:round;stroke-width:6px"/><polygon points="63 63 15 63 15 3 45 3 63 21 63 63" style="fill:none;stroke:#000;stroke-linecap:round;stroke-linejoin:round;stroke-width:6px"/><polyline points="45 3 45 21 63 21" style="fill:none;stroke:#000;stroke-linecap:round;stroke-linejoin:round;stroke-width:6px"/><polygon points="129 141 81 141 81 81 111 81 129 99 129 141" style="fill:none;stroke:#000;stroke-linecap:round;stroke-linejoin:round;stroke-width:6px"/><polyline points="111 81 111 99 129 99" style="fill:none;stroke:#000;stroke-linecap:round;stroke-linejoin:round;stroke-width:6px"/><polygon points="63 141 15 141 15 81 45 81 63 99 63 141" style="fill:none;stroke:#000;stroke-linecap:round;stroke-linejoin:round;stroke-width:6px"/><polyline points="45 81 45 99 63 99" style="fill:none;stroke:#000;stroke-linecap:round;stroke-linejoin:round;stroke-width:6px"/><rect width="144" height="144" style="fill:none"/></svg>