<svg xmlns="http://www.w3.org/2000/svg" viewBox="0 0 144 144"><rect x="3" y="39" width="138" height="72" style="fill:none;stroke:#000;stroke-linecap:round;stroke-linejoin:round;stroke-width:6px"/><path d="M93,93V57h8.6C111,57,117,66.4,117,75s-6,18-15.4,18Z" style="fill:none;stroke:#000;stroke-linecap:round;stroke-linejoin:round;stroke-width:6px"/><path d="M33,93V57h7.5C48,57,51,61.7,51,66s-3,9-10.5,9H33" style="fill:none;stroke:#000;stroke-linecap:round;stroke-linejoin:round;stroke-width:6px"/><path d="M63.1,85.5A7.67,7.67,0,0,0,70.5,93c4.1,0,7.4-3.6,7.4-8,0-6.5-6.1-10.6-7.4-10.9C69.2,73.7,63,71.4,63,65a7.4567,7.4567,0,1,1,14.9-.5" style="fill:none;stroke:#000;stroke-linecap:round;stroke-linejoin:round;stroke-width:6px"/><rect width="144" height="144" style="fill:none"/></svg>