<svg xmlns="http://www.w3.org/2000/svg" viewBox="0 0 144 144"><path d="M91.6,103.5A7.67,7.67,0,0,0,99,111c4.1,0,7.4-3.6,7.4-8,0-6.5-6.1-6.7-7.4-7-1.3-.4-7.4-.6-7.4-7.1a7.4567,7.4567,0,1,1,14.9-.5" style="fill:none;stroke:#000;stroke-linecap:round;stroke-linejoin:round;stroke-width:6px"/><polygon points="129 141 15 141 15 3 93 3 129 39 129 141" style="fill:none;stroke:#000;stroke-linecap:round;stroke-linejoin:round;stroke-width:6px"/><polyline points="93 3 93 39 129 39" style="fill:none;stroke:#000;stroke-linecap:round;stroke-linejoin:round;stroke-width:6px"/><path d="M33,111V81h7.5a7.5,7.5,0,0,1,0,15H33" style="fill:none;stroke:#000;stroke-linecap:round;stroke-linejoin:round;stroke-width:6px"/><path d="M63,111V81h7.5a7.5,7.5,0,0,1,0,15H63" style="fill:none;stroke:#000;stroke-linecap:round;stroke-linejoin:round;stroke-width:6px"/><rect width="144" height="144" style="fill:none"/></svg>