<svg xmlns="http://www.w3.org/2000/svg" viewBox="0 0 144 25.4495"><polyline points="141 15.725 141 18.225 126 18.225" style="fill:none;stroke:#000;stroke-linecap:round;stroke-linejoin:round;stroke-width:2.44950008392334px"/><path d="M87,17.5c3.7-1.7,15.2-3,27-3s23.3,1.3,27,3" transform="translate(0 0.7248)" style="fill:none;stroke:#000;stroke-linecap:round;stroke-linejoin:round;stroke-width:2.44950008392334px"/><polyline points="87 23.725 87 21.225 102 21.225" style="fill:none;stroke:#000;stroke-linecap:round;stroke-linejoin:round;stroke-width:2.44950008392334px"/><path d="M141,20.5c-3.7,1.7-15.2,3-27,3s-23.3-1.3-27-3" transform="translate(0 0.7248)" style="fill:none;stroke:#000;stroke-linecap:round;stroke-linejoin:round;stroke-width:2.44950008392334px"/><polygon points="33 8.225 65.4 11.625 33 14.925 33 8.225" style="fill:none;stroke:#000;stroke-linecap:round;stroke-linejoin:round;stroke-width:2.44950008392334px"/><polyline points="57 22.225 3 22.225 3 1.225 69 1.225 99 6.225 99 10.225" style="fill:none;stroke:#000;stroke-linecap:round;stroke-linejoin:round;stroke-width:2.44950008392334px"/><polyline points="69 1.225 69 6.225 99 6.225" style="fill:none;stroke:#000;stroke-linecap:round;stroke-linejoin:round;stroke-width:2.44950008392334px"/><rect y="0.7248" width="144" height="24" style="fill:none"/></svg>