<svg xmlns="http://www.w3.org/2000/svg" viewBox="0 0 144 144"><path d="M30.1,85.5A7.67,7.67,0,0,0,37.5,93c4.1,0,7.4-3.6,7.4-8C44.9,72.3,30,75.8,30,64.9A7.6476,7.6476,0,0,1,37.5,57a7.6512,7.6512,0,0,1,7.4,7.4" style="fill:none;stroke:#000;stroke-linecap:round;stroke-linejoin:round;stroke-width:6px"/><rect x="3" y="39" width="138" height="72" style="fill:none;stroke:#000;stroke-linecap:round;stroke-linejoin:round;stroke-width:6px"/><path d="M114,63c-1-4.5-4.1-6-9-6-7.5,0-9,9.2-9,18s3,18,9,18c9,0,9-9,9-18h-9" style="fill:none;stroke:#000;stroke-linecap:round;stroke-linejoin:round;stroke-width:6px"/><polyline points="60 57 72 93 84 57" style="fill:none;stroke:#000;stroke-linecap:round;stroke-linejoin:round;stroke-width:6px"/><rect width="144" height="144" style="fill:none"/></svg>