<svg xmlns="http://www.w3.org/2000/svg" viewBox="0 0 144 144"><path d="M79.6,103.5A7.67,7.67,0,0,0,87,111c4.1,0,7.4-3.6,7.4-8,0-6.5-6.1-6.7-7.4-7-1.3-.4-7.4-.6-7.4-7.1a7.4567,7.4567,0,1,1,14.9-.5" style="fill:none;stroke:#000;stroke-linecap:round;stroke-linejoin:round;stroke-width:6px"/><polyline points="36 111 21 111 21 81 36 81" style="fill:none;stroke:#000;stroke-linecap:round;stroke-linejoin:round;stroke-width:6px"/><line x1="21" y1="93" x2="30" y2="93" style="fill:none;stroke:#000;stroke-linecap:round;stroke-linejoin:round;stroke-width:6px"/><polygon points="117 141 3 141 3 3 81 3 117 39 117 141" style="fill:none;stroke:#000;stroke-linecap:round;stroke-linejoin:round;stroke-width:6px"/><polyline points="81 3 81 39 117 39" style="fill:none;stroke:#000;stroke-linecap:round;stroke-linejoin:round;stroke-width:6px"/><path d="M51,111V81h7.5a7.5,7.5,0,0,1,0,15H51" style="fill:none;stroke:#000;stroke-linecap:round;stroke-linejoin:round;stroke-width:6px"/><rect width="144" height="144" style="fill:none"/></svg>