<svg xmlns="http://www.w3.org/2000/svg" viewBox="0 0 144 144"><path d="M98.2,87c-1-4.5-3.3-6-8.2-6-7.5,0-9,6.2-9,15s1.5,15,9,15c6.3,0,8.5-5.3,9-12H90" style="fill:none;stroke:#000;stroke-linecap:round;stroke-linejoin:round;stroke-width:6px"/><polygon points="117 141 3 141 3 3 81 3 117 39 117 141" style="fill:none;stroke:#000;stroke-linecap:round;stroke-linejoin:round;stroke-width:6px"/><polyline points="81 3 81 39 117 39" style="fill:none;stroke:#000;stroke-linecap:round;stroke-linejoin:round;stroke-width:6px"/><path d="M57,111V81h7.5a7.5,7.5,0,0,1,0,15H57" style="fill:none;stroke:#000;stroke-linecap:round;stroke-linejoin:round;stroke-width:6px"/><path d="M21,102a9,9,0,0,0,18,0V81" style="fill:none;stroke:#000;stroke-linecap:round;stroke-linejoin:round;stroke-width:6px"/><rect width="144" height="144" style="fill:none"/></svg>