<svg xmlns="http://www.w3.org/2000/svg" viewBox="0 0 144 144"><path d="M97.6,103.5A7.67,7.67,0,0,0,105,111c4.1,0,7.4-3.6,7.4-8,0-6.5-6.1-6.7-7.4-7-1.3-.4-7.4-.6-7.4-7.1a7.4567,7.4567,0,1,1,14.9-.5" style="fill:none;stroke:#000;stroke-linecap:round;stroke-linejoin:round;stroke-width:6px"/><path d="M37.6,88.4C37.7,85.5,39,81,45,81c6.3,0,7.4,5.1,7.4,7.9,0,2.9-1.8,7.1-8.1,7.1,6.3,0,8.1,4.2,8.1,7.1,0,2.8-1.1,7.9-7.4,7.9-6,0-7.3-4.5-7.4-7.4" style="fill:none;stroke:#000;stroke-linecap:round;stroke-linejoin:round;stroke-width:6px"/><polygon points="129 141 15 141 15 3 93 3 129 39 129 141" style="fill:none;stroke:#000;stroke-linecap:round;stroke-linejoin:round;stroke-width:6px"/><polyline points="93 3 93 39 129 39" style="fill:none;stroke:#000;stroke-linecap:round;stroke-linejoin:round;stroke-width:6px"/><path d="M69,111V81h6c6.9,0,12,6.4,12,15s-5.1,15-12,15Z" style="fill:none;stroke:#000;stroke-linecap:round;stroke-linejoin:round;stroke-width:6px"/><rect width="144" height="144" style="fill:none"/></svg>