<svg xmlns="http://www.w3.org/2000/svg" viewBox="0 0 144 144"><polyline points="75 111 75 81 63 96 51 81 51 111" style="fill:none;stroke:#000;stroke-linecap:round;stroke-linejoin:round;stroke-width:6px"/><path d="M21,93h9c6.3,0,9,4.7,9,9s-2.7,9-9,9H21V81h9c3,0,6,1.7,6,6s-3,6-6,6Z" style="fill:none;stroke:#000;stroke-linecap:round;stroke-linejoin:round;stroke-width:6px"/><polygon points="117 141 3 141 3 3 81 3 117 39 117 141" style="fill:none;stroke:#000;stroke-linecap:round;stroke-linejoin:round;stroke-width:6px"/><polyline points="81 3 81 39 117 39" style="fill:none;stroke:#000;stroke-linecap:round;stroke-linejoin:round;stroke-width:6px"/><path d="M87,111V81h7.5a7.5,7.5,0,0,1,0,15H87" style="fill:none;stroke:#000;stroke-linecap:round;stroke-linejoin:round;stroke-width:6px"/><rect width="144" height="144" style="fill:none"/></svg>