<svg xmlns="http://www.w3.org/2000/svg" viewBox="0 0 144 144"><rect x="21" y="3" width="120" height="120" style="fill:none;stroke:#000;stroke-linecap:round;stroke-linejoin:round;stroke-width:6px"/><polyline points="21 27 3 27 3 141 117 141 117 123" style="fill:none;stroke:#000;stroke-linecap:round;stroke-linejoin:round;stroke-width:6px"/><line x1="63" y1="105" x2="63" y2="21" style="fill:none;stroke:#000;stroke-linecap:round;stroke-linejoin:round;stroke-width:6px"/><line x1="99" y1="21" x2="99" y2="105" style="fill:none;stroke:#000;stroke-linecap:round;stroke-linejoin:round;stroke-width:6px"/><polygon points="114 48 108 48 108 54 114 54 114 48" style="fill:#000"/><polygon points="114 60 108 60 108 66 114 66 114 60" style="fill:#000"/><polygon points="114 72 108 72 108 78 114 78 114 72" style="fill:#000"/><polygon points="54 48 48 48 48 54 54 54 54 48" style="fill:#000"/><polygon points="114 36 108 36 108 42 114 42 114 36" style="fill:#000"/><polygon points="114 24 108 24 108 30 114 30 114 24" style="fill:#000"/><polygon points="54 36 48 36 48 42 54 42 54 36" style="fill:#000"/><polygon points="54 24 48 24 48 30 54 30 54 24" style="fill:#000"/><polygon points="54 60 48 60 48 66 54 66 54 60" style="fill:#000"/><polygon points="54 72 48 72 48 78 54 78 54 72" style="fill:#000"/><polygon points="54 84 48 84 48 90 54 90 54 84" style="fill:#000"/><polygon points="54 96 48 96 48 102 54 102 54 96" style="fill:#000"/><polygon points="114 84 108 84 108 90 114 90 114 84" style="fill:#000"/><polygon points="114 96 108 96 108 102 114 102 114 96" style="fill:#000"/><line x1="39" y1="105" x2="39" y2="21" style="fill:none;stroke:#000;stroke-linecap:round;stroke-linejoin:round;stroke-width:6px"/><line x1="123" y1="21" x2="123" y2="105" style="fill:none;stroke:#000;stroke-linecap:round;stroke-linejoin:round;stroke-width:6px"/><line x1="63" y1="51" x2="99" y2="51" style="fill:none;stroke:#000;stroke-linecap:square;stroke-linejoin:round;stroke-width:6px"/><line x1="63" y1="75" x2="99" y2="75" style="fill:none;stroke:#000;stroke-linecap:square;stroke-linejoin:round;stroke-width:6px"/><line x1="63" y1="27" x2="99" y2="27" style="fill:none;stroke:#000;stroke-linecap:square;stroke-linejoin:round;stroke-width:6px"/><line x1="63" y1="99" x2="99" y2="99" style="fill:none;stroke:#000;stroke-linecap:square;stroke-linejoin:round;stroke-width:6px"/><rect width="144" height="144" style="fill:none"/></svg>