<svg xmlns="http://www.w3.org/2000/svg" viewBox="0 0 144 144"><ellipse cx="60" cy="24" rx="57" ry="21" style="fill:none;stroke:#000;stroke-linecap:round;stroke-linejoin:round;stroke-width:6px"/><path d="M3,24V39c0,6.6,3.8,15.8,8.5,20.5L51,99" style="fill:none;stroke:#000;stroke-linecap:round;stroke-linejoin:round;stroke-width:6px"/><path d="M117,24V39c0,6.6-3.8,15.8-8.5,20.5L69,99" style="fill:none;stroke:#000;stroke-linecap:round;stroke-linejoin:round;stroke-width:6px"/><path d="M69,99v36a6.0176,6.0176,0,0,1-6,6H57a6.0176,6.0176,0,0,1-6-6V99" style="fill:none;stroke:#000;stroke-linecap:round;stroke-linejoin:round;stroke-width:6px"/><path d="M69,111.6A32.9308,32.9308,0,0,0,120,84a33.2476,33.2476,0,0,0-11.2-24.8" style="fill:none;stroke:#000;stroke-linecap:round;stroke-linejoin:round;stroke-width:6px"/><rect width="144" height="144" style="fill:none"/></svg>