<svg xmlns="http://www.w3.org/2000/svg" viewBox="0 0 144 144"><path d="M141,96a8.9626,8.9626,0,0,1-9,9H30a8.9626,8.9626,0,0,1-9-9V12a8.9626,8.9626,0,0,1,9-9H132a8.9626,8.9626,0,0,1,9,9Z" style="fill:none;stroke:#000;stroke-linecap:round;stroke-linejoin:round;stroke-width:6px"/><polyline points="138 6 81 60 24 6" style="fill:none;stroke:#000;stroke-linecap:round;stroke-linejoin:round;stroke-width:6px"/><path d="M21,27.1H9a6.0176,6.0176,0,0,0-6,6v84a6.0176,6.0176,0,0,0,6,6H111a6.0176,6.0176,0,0,0,6-6v-12" style="fill:none;stroke:#000;stroke-linecap:round;stroke-linejoin:round;stroke-width:6px"/><rect width="144" height="144" style="fill:none"/></svg>