<svg xmlns="http://www.w3.org/2000/svg" viewBox="0 0 144 144"><path d="M111,105a6.0176,6.0176,0,0,0,6-6V75H45V99a6.0176,6.0176,0,0,0,6,6Z" style="fill:none;stroke:#000;stroke-linejoin:round;stroke-width:6px"/><line x1="60.5" y1="33" x2="49.2" y2="21" style="fill:none;stroke:#000;stroke-linecap:round;stroke-linejoin:round;stroke-width:6px"/><line x1="102.4" y1="33" x2="113.6" y2="21" style="fill:none;stroke:#000;stroke-linecap:round;stroke-linejoin:round;stroke-width:6px"/><rect x="21" y="3" width="120" height="120" style="fill:none;stroke:#000;stroke-linecap:round;stroke-linejoin:round;stroke-width:6px"/><path d="M117,63a36,36,0,0,0-72,0Z" style="fill:none;stroke:#000;stroke-linejoin:round;stroke-width:6px"/><path d="M69,42a3,3,0,0,0,0,6,3,3,0,0,0,0-6Z" style="fill:#000"/><path d="M93,42a3,3,0,0,0,0,6,3,3,0,0,0,0-6Z" style="fill:#000"/><polyline points="21 27 3 27 3 141 117 141 117 123" style="fill:none;stroke:#000;stroke-linecap:round;stroke-linejoin:round;stroke-width:6px"/><rect width="144" height="144" style="fill:none"/></svg>