<svg xmlns="http://www.w3.org/2000/svg" viewBox="0 0 144 144"><circle cx="63" cy="63" r="60" style="fill:none;stroke:#000;stroke-linecap:round;stroke-linejoin:round;stroke-width:6px"/><line x1="105.4" y1="105.4" x2="141" y2="141" style="fill:none;stroke:#000;stroke-linecap:round;stroke-linejoin:round;stroke-width:6px"/><path d="M69,61.5h6.4c5.5,0,6.4,3,6.4,6.7s-1,6.8-6.4,6.8H69V48h6.4c5.5,0,6.4,3,6.4,6.7s-1,6.8-6.4,6.8Z" style="fill:none;stroke:#000;stroke-linecap:round;stroke-linejoin:round;stroke-width:6px"/><path d="M20.1,68.6S19.6,75,26.5,75c6.8,0,6.4-6.2,6.4-6.2V48" style="fill:none;stroke:#000;stroke-linecap:round;stroke-linejoin:round;stroke-width:6px"/><path d="M58.6,61.5C58.6,69.1,57.5,75,51,75s-7.6-5.9-7.6-13.5S44.5,48,51,48,58.6,53.9,58.6,61.5Z" style="fill:none;stroke:#000;stroke-linecap:round;stroke-linejoin:round;stroke-width:6px"/><path d="M93.6,68.6a6.4094,6.4094,0,1,0,12.8-.5c0-5.6-5.3-6.3-6.4-6.6s-6.4-1-6.4-6.6a6.4094,6.4094,0,1,1,12.8-.5" style="fill:none;stroke:#000;stroke-linecap:round;stroke-linejoin:round;stroke-width:6px"/><rect width="144" height="144" style="fill:none"/></svg>