<svg xmlns="http://www.w3.org/2000/svg" viewBox="0 0 144 144"><path d="M87.9,6c9.4,6.9,8.9,20.3,5.2,25.9-2.5-2.1-4.8-4.3-5.2-7.8C79.3,27.6,75,34.3,75,42.3a20.7,20.7,0,0,0,41.4,0C116.4,25.5,104.4,9.8,87.9,6Z" style="fill:none;stroke:#000;stroke-linejoin:round;stroke-width:6px"/><path d="M129,129a12.0353,12.0353,0,0,1-12,12H63a12.0353,12.0353,0,0,1-12-12V81h78Z" style="fill:none;stroke:#000;stroke-linejoin:round;stroke-width:6px"/><path d="M15,27A23.9424,23.9424,0,0,1,39,3H51V81H39A23.9424,23.9424,0,0,1,15,57Z" style="fill:none;stroke:#000;stroke-linecap:round;stroke-linejoin:round;stroke-width:6px"/><rect x="75" y="63" width="42" height="18" style="fill:none;stroke:#000;stroke-linecap:round;stroke-linejoin:round;stroke-width:6px"/><rect width="144" height="144" style="fill:none"/></svg>