<svg xmlns="http://www.w3.org/2000/svg" viewBox="0 0 144 144"><path d="M64.1,62.2c9.5,7,9,20.6,5.2,26.2-2.6-2.1-4.9-4.4-5.2-7.9C55.4,84.1,51,91,51,99a21,21,0,0,0,42,0C93,82.1,80.8,66.1,64.1,62.2Z" style="fill:none;stroke:#000;stroke-linejoin:round;stroke-width:6px"/><line x1="42" y1="3" x2="102" y2="3" style="fill:none;stroke:#000;stroke-linecap:round;stroke-linejoin:round;stroke-width:6px"/><path d="M21,141H123a18.0529,18.0529,0,0,0-18-18H39A18.0529,18.0529,0,0,0,21,141Z" style="fill:none;stroke:#000;stroke-linejoin:round;stroke-width:6px"/><path d="M86.5,27h-29C46,31.9,12,102,47.6,123H96.4C132,102,96.5,31.2,86.5,27Z" style="fill:none;stroke:#000;stroke-linejoin:round;stroke-width:6px"/><rect x="51" y="3" width="42" height="24" style="fill:none;stroke:#000;stroke-linejoin:round;stroke-width:6px"/><path d="M93,21h17.4a11.9807,11.9807,0,0,1,11.7,9.4L138.5,115a12.0651,12.0651,0,0,1-8.4,14.2l-9.6,2.7" style="fill:none;stroke:#000;stroke-linejoin:round;stroke-width:6px"/><path d="M51,21H33.6a11.9807,11.9807,0,0,0-11.7,9.4L5.5,114.9a12.0651,12.0651,0,0,0,8.4,14.2l9.6,2.7" style="fill:none;stroke:#000;stroke-linejoin:round;stroke-width:6px"/><rect width="144" height="144" style="fill:none"/></svg>