<svg xmlns="http://www.w3.org/2000/svg" viewBox="0 0 144 144"><circle cx="72" cy="96" r="45" style="fill:none;stroke:#000;stroke-linejoin:round;stroke-width:6px"/><path d="M65.8,69c2.1,6.8,6.1,19.3,0,29.1-1.3-1.5-6.2-8.3-6.2-8.3s-6.2,8.8-6.2,14.5a18.7,18.7,0,0,0,37.4,0C90.7,89.2,80.2,73.8,65.8,69Z" style="fill:none;stroke:#000;stroke-linecap:round;stroke-linejoin:round;stroke-width:6px"/><path d="M21,54A33.0326,33.0326,0,0,1,54,21" style="fill:none;stroke:#000;stroke-linecap:round;stroke-linejoin:round;stroke-width:6px"/><path d="M3,54A50.9572,50.9572,0,0,1,54,3" style="fill:none;stroke:#000;stroke-linecap:round;stroke-linejoin:round;stroke-width:6px"/><path d="M123,54A33.0326,33.0326,0,0,0,90,21" style="fill:none;stroke:#000;stroke-linecap:round;stroke-linejoin:round;stroke-width:6px"/><path d="M141,54A50.9572,50.9572,0,0,0,90,3" style="fill:none;stroke:#000;stroke-linecap:round;stroke-linejoin:round;stroke-width:6px"/><rect width="144" height="144" style="fill:none"/></svg>