<svg xmlns="http://www.w3.org/2000/svg" viewBox="0 0 144 144.1"><rect x="33" y="3" width="72" height="12" style="fill:none;stroke:#000;stroke-linecap:round;stroke-linejoin:round;stroke-width:6px"/><path d="M65.1,81c2.3,7.6,6.8,21.4,0,32.3-1.5-1.6-6.9-9.2-6.9-9.2s-6.9,9.7-6.9,16.2a20.8,20.8,0,0,0,41.6,0C92.8,103.5,81.1,86.4,65.1,81Z" style="fill:none;stroke:#000;stroke-linecap:round;stroke-linejoin:round;stroke-width:6px"/><line x1="69" y1="30" x2="69" y2="42" style="fill:none;stroke:#000;stroke-linecap:round;stroke-linejoin:round;stroke-width:6px"/><line x1="69" y1="54" x2="69" y2="66" style="fill:none;stroke:#000;stroke-linecap:round;stroke-linejoin:round;stroke-width:6px"/><line x1="84.5" y1="34" x2="87.5" y2="45.6" style="fill:none;stroke:#000;stroke-linecap:round;stroke-linejoin:round;stroke-width:6px"/><line x1="85.7" y1="63.9" x2="88.7" y2="75.5" style="fill:none;stroke:#000;stroke-linecap:round;stroke-linejoin:round;stroke-width:6px"/><line x1="100.9" y1="53.4" x2="103.9" y2="65.1" style="fill:none;stroke:#000;stroke-linecap:round;stroke-linejoin:round;stroke-width:6px"/><line x1="37.5" y1="53.4" x2="34.5" y2="65.1" style="fill:none;stroke:#000;stroke-linecap:round;stroke-linejoin:round;stroke-width:6px"/><line x1="53.5" y1="33.9" x2="50.6" y2="45.6" style="fill:none;stroke:#000;stroke-linecap:round;stroke-linejoin:round;stroke-width:6px"/><line x1="52.6" y1="63.9" x2="49.7" y2="75.6" style="fill:none;stroke:#000;stroke-linecap:round;stroke-linejoin:round;stroke-width:6px"/><rect x="33" y="3" width="72" height="12" style="fill:none;stroke:#000;stroke-linecap:round;stroke-linejoin:round;stroke-width:6px"/><path d="M65.1,81c2.3,7.6,6.8,21.4,0,32.3-1.5-1.6-6.9-9.2-6.9-9.2s-6.9,9.7-6.9,16.2a20.8,20.8,0,0,0,41.6,0C92.8,103.5,81.1,86.4,65.1,81Z" style="fill:none;stroke:#000;stroke-linecap:round;stroke-linejoin:round;stroke-width:6px"/><line x1="69" y1="30" x2="69" y2="42" style="fill:none;stroke:#000;stroke-linecap:round;stroke-linejoin:round;stroke-width:6px"/><line x1="69" y1="54" x2="69" y2="66" style="fill:none;stroke:#000;stroke-linecap:round;stroke-linejoin:round;stroke-width:6px"/><line x1="84.5" y1="34" x2="87.5" y2="45.6" style="fill:none;stroke:#000;stroke-linecap:round;stroke-linejoin:round;stroke-width:6px"/><line x1="85.7" y1="63.9" x2="88.7" y2="75.5" style="fill:none;stroke:#000;stroke-linecap:round;stroke-linejoin:round;stroke-width:6px"/><line x1="100.9" y1="53.4" x2="103.9" y2="65.1" style="fill:none;stroke:#000;stroke-linecap:round;stroke-linejoin:round;stroke-width:6px"/><line x1="37.5" y1="53.4" x2="34.5" y2="65.1" style="fill:none;stroke:#000;stroke-linecap:round;stroke-linejoin:round;stroke-width:6px"/><line x1="53.5" y1="33.9" x2="50.6" y2="45.6" style="fill:none;stroke:#000;stroke-linecap:round;stroke-linejoin:round;stroke-width:6px"/><line x1="52.6" y1="63.9" x2="49.7" y2="75.6" style="fill:none;stroke:#000;stroke-linecap:round;stroke-linejoin:round;stroke-width:6px"/><rect width="144" height="144" style="fill:none"/></svg>