<svg xmlns="http://www.w3.org/2000/svg" viewBox="0 0 144 144"><path d="M24.7,125.6C-16.9,84,79.9,2.6,125.7,5.9,102.4,20.8,74.8,52.6,74.8,65.3c0,0,23.3-14.9,50.9-33.9C115,50.5,87.5,86.5,87.5,86.5s17,0,31.8-14.9C129,100.7,66.3,167.2,24.7,125.6Z" style="fill:none;stroke:#000;stroke-linecap:round;stroke-linejoin:round;stroke-width:6px"/><path d="M25.9,88.6a27.1,27.1,0,0,0,0,38.2c31.3,31.3,67.3-27.1,46.7-46.7,0,0-6.4,23.3-25.5,21.2l2.1-19.1C40.8,78,31.2,83.4,25.9,88.6Z" style="fill:none;stroke:#000;stroke-linecap:round;stroke-linejoin:round;stroke-width:6px"/><rect width="144" height="144" style="fill:none"/></svg>