<svg xmlns="http://www.w3.org/2000/svg" viewBox="0 0 144 144"><path d="M64.1,68.2c9.5,7,9,20.6,5.2,26.2-2.6-2.1-4.9-4.4-5.2-7.9C55.4,90.1,51,97,51,105a21,21,0,0,0,42,0C93,88.1,80.8,72.1,64.1,68.2Z" style="fill:none;stroke:#000;stroke-linejoin:round;stroke-width:6px"/><polygon points="27 57 117 57 105 129 39 129 27 57" style="fill:none;stroke:#000;stroke-linejoin:round;stroke-width:6px"/><polygon points="57 27 87 27 117 45 27 45 57 27" style="fill:none;stroke:#000;stroke-linejoin:round;stroke-width:6px"/><rect x="27" y="129" width="90" height="12" style="fill:none;stroke:#000;stroke-linejoin:round;stroke-width:6px"/><rect x="15" y="45" width="114" height="12" style="fill:none;stroke:#000;stroke-linejoin:round;stroke-width:6px"/><path d="M60,27s-3-5.6-3-9a15,15,0,0,1,30,0c0,3.4-3,9-3,9" style="fill:none;stroke:#000;stroke-linejoin:round;stroke-width:6px"/><rect width="144" height="144" style="fill:none"/></svg>