<svg xmlns="http://www.w3.org/2000/svg" viewBox="0 0 144 144"><path d="M63.1,72c10.8,8,10.2,23.4,6,29.8-2.9-2.4-5.5-5-6-9-10,3.9-14.9,11.7-14.9,20.9a23.9,23.9,0,0,0,47.8,0C95.9,94.5,82,76.4,63.1,72Z" style="fill:none;stroke:#000;stroke-linejoin:round;stroke-width:6px"/><polygon points="3 27 9 51 15 51 15 141 33 141 33 51 111 51 111 141 129 141 129 51 135 51 141 27 3 27" style="fill:none;stroke:#000;stroke-linecap:round;stroke-linejoin:round;stroke-width:6px"/><line x1="33" y1="141" x2="114" y2="141" style="fill:none;stroke:#000;stroke-linejoin:round;stroke-width:6px"/><line x1="15" y1="51" x2="36" y2="51" style="fill:none;stroke:#000;stroke-linejoin:round;stroke-width:6px"/><line x1="15" y1="69" x2="33" y2="69" style="fill:none;stroke:#000;stroke-linejoin:round;stroke-width:6px"/><line x1="15" y1="87" x2="33" y2="87" style="fill:none;stroke:#000;stroke-linejoin:round;stroke-width:6px"/><line x1="15" y1="105" x2="33" y2="105" style="fill:none;stroke:#000;stroke-linejoin:round;stroke-width:6px"/><line x1="15" y1="123" x2="33" y2="123" style="fill:none;stroke:#000;stroke-linejoin:round;stroke-width:6px"/><line x1="111" y1="69" x2="129" y2="69" style="fill:none;stroke:#000;stroke-linejoin:round;stroke-width:6px"/><line x1="111" y1="87" x2="129" y2="87" style="fill:none;stroke:#000;stroke-linejoin:round;stroke-width:6px"/><line x1="111" y1="105" x2="129" y2="105" style="fill:none;stroke:#000;stroke-linejoin:round;stroke-width:6px"/><line x1="111" y1="123" x2="129" y2="123" style="fill:none;stroke:#000;stroke-linejoin:round;stroke-width:6px"/><line x1="111" y1="51" x2="129" y2="51" style="fill:none;stroke:#000;stroke-linejoin:round;stroke-width:6px"/><rect width="144" height="144" style="fill:none"/></svg>