<svg xmlns="http://www.w3.org/2000/svg" viewBox="0 0 144 144"><line x1="30" y1="141" x2="126" y2="141" style="fill:none;stroke:#000;stroke-linecap:round;stroke-linejoin:round;stroke-width:6px"/><rect x="39" y="51" width="78" height="90" style="fill:none;stroke:#000;stroke-linecap:round;stroke-linejoin:round;stroke-width:6px"/><line x1="30" y1="51" x2="126" y2="51" style="fill:none;stroke:#000;stroke-linecap:round;stroke-linejoin:round;stroke-width:6px"/><line x1="39" y1="69" x2="117" y2="69" style="fill:none;stroke:#000;stroke-linejoin:round;stroke-width:6px"/><line x1="39" y1="87" x2="117" y2="87" style="fill:none;stroke:#000;stroke-linejoin:round;stroke-width:6px"/><line x1="39" y1="105" x2="117" y2="105" style="fill:none;stroke:#000;stroke-linejoin:round;stroke-width:6px"/><line x1="39" y1="123" x2="117" y2="123" style="fill:none;stroke:#000;stroke-linejoin:round;stroke-width:6px"/><path d="M34.4,12.1a19.4785,19.4785,0,0,1,8.4-1.8A20.3146,20.3146,0,0,1,63.1,30.6" style="fill:none;stroke:#000;stroke-linecap:round;stroke-linejoin:round;stroke-width:6px"/><path d="M62.1,3.7A26.03,26.03,0,0,1,71.7,24a25.6064,25.6064,0,0,1-1.8,9.6" style="fill:none;stroke:#000;stroke-linecap:round;stroke-linejoin:round;stroke-width:6px"/><path d="M70,33.2a3.51,3.51,0,0,1-3.3,2.2,3.585,3.585,0,0,1-3.6-3.6" style="fill:none;stroke:#000;stroke-linecap:round;stroke-linejoin:round;stroke-width:6px"/><path d="M42,51l4.4-7.2A24.4238,24.4238,0,0,0,48.8,33c0-8.4-5-15.8-12-20.4" style="fill:none;stroke:#000;stroke-linecap:round;stroke-linejoin:round;stroke-width:6px"/><path d="M63.1,3.1A35.9347,35.9347,0,0,1,99,39l12-14.4V51" style="fill:none;stroke:#000;stroke-linecap:round;stroke-linejoin:round;stroke-width:6px"/><line x1="15" y1="6" x2="15" y2="24" style="fill:none;stroke:#000;stroke-linecap:round;stroke-linejoin:round;stroke-width:6px"/><line x1="6" y1="15" x2="24" y2="15" style="fill:none;stroke:#000;stroke-linecap:round;stroke-linejoin:round;stroke-width:6px"/><line x1="129" y1="18" x2="129" y2="36" style="fill:none;stroke:#000;stroke-linecap:round;stroke-linejoin:round;stroke-width:6px"/><line x1="120" y1="27" x2="138" y2="27" style="fill:none;stroke:#000;stroke-linecap:round;stroke-linejoin:round;stroke-width:6px"/><rect width="144" height="144" style="fill:none"/></svg>