<svg xmlns="http://www.w3.org/2000/svg" viewBox="0 0 144.075 144.075"><path d="M59.3,12.7A33.0219,33.0219,0,0,0,12.6,59.4l72,72a33.0219,33.0219,0,1,0,46.7-46.7Z" transform="translate(0.075)" style="fill:none;stroke:#000;stroke-linecap:round;stroke-linejoin:round;stroke-width:6px"/><rect x="38.9964" y="51.0039" width="65.9994" height="41.9996" transform="translate(-29.7521 71.9983) rotate(-45)" style="fill:none;stroke:#000;stroke-linecap:round;stroke-linejoin:round;stroke-width:6px"/><path d="M25.3,47.8a3,3,0,0,0-2.1,5.1,2.9,2.9,0,0,0,4.2,0,2.9,2.9,0,0,0,0-4.2,2.7235,2.7235,0,0,0-2.1-.9Z" style="fill:#000" transform="translate(0.075)"/><path d="M38.1,35.1A3,3,0,0,0,36,40.2a2.9,2.9,0,0,0,4.2,0,2.9,2.9,0,0,0,0-4.2,3.0494,3.0494,0,0,0-2.1-.9Z" style="fill:#000" transform="translate(0.075)"/><path d="M23.2,32.9A3,3,0,0,0,21.1,38a3.0494,3.0494,0,0,0,2.1.9,3,3,0,0,0,2.1-5.1,2.7235,2.7235,0,0,0-2.1-.9Z" style="fill:#000" transform="translate(0.075)"/><path d="M35.9,20.2a3,3,0,0,0-2.1,5.1,2.9,2.9,0,0,0,4.2,0,2.9,2.9,0,0,0,0-4.2,2.7235,2.7235,0,0,0-2.1-.9Z" style="fill:#000" transform="translate(0.075)"/><path d="M40.2,49.9A3,3,0,0,0,38.1,55a2.9,2.9,0,0,0,4.2,0,2.9,2.9,0,0,0,0-4.2,3.0494,3.0494,0,0,0-2.1-.9Z" style="fill:#000" transform="translate(0.075)"/><path d="M52.9,37.2a3,3,0,0,0-2.1,5.1,3.0494,3.0494,0,0,0,2.1.9,3,3,0,0,0,0-6Z" style="fill:#000" transform="translate(0.075)"/><path d="M50.8,22.3a3,3,0,0,0-2.1,5.1,2.9,2.9,0,0,0,4.2,0,3,3,0,0,0-2.1-5.1Z" style="fill:#000" transform="translate(0.075)"/><path d="M93.2,115.7a3,3,0,0,0-2.1,5.1,3.0494,3.0494,0,0,0,2.1.9,3,3,0,0,0,2.1-5.1,2.7235,2.7235,0,0,0-2.1-.9Z" style="fill:#000" transform="translate(0.075)"/><path d="M105.9,102.9a3,3,0,0,0-2.1,5.1,3.0494,3.0494,0,0,0,2.1.9,3,3,0,0,0,2.1-5.1,2.7235,2.7235,0,0,0-2.1-.9Z" style="fill:#000" transform="translate(0.075)"/><path d="M108.1,117.8a3,3,0,0,0-2.1,5.1,3.0494,3.0494,0,0,0,2.1.9,3,3,0,0,0,2.1-5.1,3.0494,3.0494,0,0,0-2.1-.9Z" style="fill:#000" transform="translate(0.075)"/><path d="M120.8,105.1a3,3,0,0,0-2.1,5.1,2.9,2.9,0,0,0,4.2,0,3,3,0,0,0-2.1-5.1Z" style="fill:#000" transform="translate(0.075)"/><path d="M91.1,100.8a3,3,0,0,0-2.1,5.1,3.0494,3.0494,0,0,0,2.1.9,3,3,0,0,0,0-6Z" style="fill:#000" transform="translate(0.075)"/><path d="M103.8,88.1a3,3,0,0,0-2.1,5.1,2.9,2.9,0,0,0,4.2,0,2.9,2.9,0,0,0,0-4.2,2.7235,2.7235,0,0,0-2.1-.9Z" style="fill:#000" transform="translate(0.075)"/><path d="M118.7,90.2a3,3,0,0,0-2.1,5.1,2.9,2.9,0,0,0,4.2,0,2.9,2.9,0,0,0,0-4.2,3.0494,3.0494,0,0,0-2.1-.9Z" style="fill:#000" transform="translate(0.075)"/><rect x="0.075" width="144" height="144" style="fill:none"/></svg>