<svg xmlns="http://www.w3.org/2000/svg" viewBox="0 0 144 144"><path d="M63,69A30.0726,30.0726,0,0,0,30.1,39.1C14.5,40.6,3,54.6,3,70.3V81a23.9424,23.9424,0,0,0,24,24H39A23.9424,23.9424,0,0,0,63,81Z" style="fill:none;stroke:#000;stroke-linejoin:round;stroke-width:6px"/><path d="M33,39c42,0,64.2,11.2,84,30-8.2,21.9-28.4,35.2-66,36H33" style="fill:none;stroke:#000;stroke-linejoin:round;stroke-width:6px"/><path d="M117,69V63a23.9424,23.9424,0,0,1,24-24v6A23.9424,23.9424,0,0,1,117,69Z" style="fill:none;stroke:#000;stroke-linejoin:round;stroke-width:6px"/><path d="M117,69v6a23.9424,23.9424,0,0,0,24,24V93A23.9424,23.9424,0,0,0,117,69Z" style="fill:none;stroke:#000;stroke-linejoin:round;stroke-width:6px"/><path d="M51,69a18,18,0,0,0-36,0v6a18,18,0,0,0,36,0Z" style="fill:none;stroke:#000;stroke-linejoin:round;stroke-width:6px"/><path d="M39,69a6,6,0,0,0-12,0v6a6,6,0,0,0,12,0Z" style="fill:none;stroke:#000;stroke-linejoin:round;stroke-width:6px"/><rect width="144" height="144" style="fill:none"/></svg>