<svg xmlns="http://www.w3.org/2000/svg" viewBox="0 0 144 144"><path d="M131.5,12.4c4.9,4.9,8.3,42.8-16.9,68s-59.5,25.4-59.5,25.4l-17-17s.5-34.5,25.5-59.4C88.6,4.4,126.6,7.5,131.5,12.4Z" style="fill:none;stroke:#000;stroke-linecap:round;stroke-linejoin:round;stroke-width:6px"/><polygon points="55.2 105.7 38.2 139.6 28.4 117.3 4.3 105.7 38.2 88.7 55.2 105.7" style="fill:none;stroke:#000;stroke-linecap:round;stroke-linejoin:round;stroke-width:6px"/><path d="M121.4,72.3s-.1,19.1-28.1,47.1l-17-17.2" style="fill:none;stroke:#000;stroke-linecap:round;stroke-linejoin:round;stroke-width:6px"/><path d="M40.3,73.9l-17-17S30,31,62.7,30.3" style="fill:none;stroke:#000;stroke-linecap:round;stroke-linejoin:round;stroke-width:6px"/><line x1="96" y1="24" x2="111" y2="39" style="fill:none;stroke:#000;stroke-linecap:round;stroke-linejoin:round;stroke-width:6px"/><line x1="111" y1="24" x2="96" y2="39" style="fill:none;stroke:#000;stroke-linecap:round;stroke-linejoin:round;stroke-width:6px"/><rect width="144" height="144" style="fill:none"/></svg>