<svg xmlns="http://www.w3.org/2000/svg" viewBox="0 0 144.0005 144"><path d="M21,93.2V105a23.9424,23.9424,0,0,0,24,24H99a23.9424,23.9424,0,0,0,24-24V93.2" transform="translate(0.0002)" style="fill:none;stroke:#000;stroke-linejoin:round;stroke-width:6px"/><path d="M72,75a80.5174,80.5174,0,0,1,58.6,25.2A6.0563,6.0563,0,0,0,141,96,69,69,0,0,0,3,96a6.18,6.18,0,0,0,3.8,5.6,6.1874,6.1874,0,0,0,6.6-1.4A80.5174,80.5174,0,0,1,72,75Z" transform="translate(0.0002)" style="fill:none;stroke:#000;stroke-linejoin:round;stroke-width:6px"/><line x1="25.5002" y1="90.2" x2="54.4002" y2="28.9" style="fill:none;stroke:#000;stroke-linejoin:round;stroke-width:6px"/><line x1="68.4002" y1="75.5" x2="90.4002" y2="28.9" style="fill:none;stroke:#000;stroke-linejoin:round;stroke-width:6px"/><line x1="101.9002" y1="80.9" x2="118.7002" y2="45.1" style="fill:none;stroke:#000;stroke-linejoin:round;stroke-width:6px"/><rect x="0.0002" width="144" height="144" style="fill:none"/></svg>