<svg xmlns="http://www.w3.org/2000/svg" viewBox="0 0 144 144"><path d="M141,132a8.9626,8.9626,0,0,1-9,9H12a9,9,0,0,1,0-18H132A8.9626,8.9626,0,0,1,141,132Z" style="fill:none;stroke:#000;stroke-linejoin:round;stroke-width:6px"/><path d="M9,96.7A26.2781,26.2781,0,0,1,41.7,71.2l74.6,18.6a16.7906,16.7906,0,0,1-4,33.1h-77A26.183,26.183,0,0,1,9,96.7Z" style="fill:none;stroke:#000;stroke-linejoin:round;stroke-width:6px"/><path d="M87,3h18a12.0353,12.0353,0,0,1,12,12L106.3,87.3" style="fill:none;stroke:#000;stroke-linecap:round;stroke-linejoin:round;stroke-width:6px"/><line x1="51" y1="73.5" x2="51" y2="51" style="fill:none;stroke:#000;stroke-linecap:round;stroke-linejoin:round;stroke-width:6px"/><line x1="45.1" y1="111" x2="69" y2="111" style="fill:none;stroke:#000;stroke-linecap:round;stroke-linejoin:round;stroke-width:6px"/><line x1="57" y1="111" x2="39.2" y2="87.2" style="fill:none;stroke:#000;stroke-linecap:round;stroke-linejoin:round;stroke-width:6px"/><path d="M27,40.5A10.5189,10.5189,0,0,1,40.1,30.3l29.8,7.5c7.7,1.9,6.3,13.3-1.6,13.3H37.5A10.65,10.65,0,0,1,27,40.5Z" style="fill:none;stroke:#000;stroke-linecap:round;stroke-linejoin:round;stroke-width:6px"/><rect width="144" height="144" style="fill:none"/></svg>