<svg xmlns="http://www.w3.org/2000/svg" viewBox="0 0 144 144"><polygon points="72 6 78 21 93 21 81 31.1 85.5 47.5 72 36.9 58.5 47.3 63 31.2 51 21 66 21 72 6" style="fill:none;stroke:#000;stroke-linejoin:round;stroke-width:6px"/><polygon points="24 42 30 57 45 57 33 67.1 37.5 83.5 24 72.9 10.5 83.3 15 67.2 3 57 18 57 24 42" style="fill:none;stroke:#000;stroke-linejoin:round;stroke-width:6px"/><polygon points="120 42 126 57 141 57 129 67.1 133.5 83.5 120 72.9 106.5 83.3 111 67.2 99 57 114 57 120 42" style="fill:none;stroke:#000;stroke-linejoin:round;stroke-width:6px"/><polygon points="102 96 108 111 123 111 111 121.1 115.5 137.5 102 126.9 88.5 137.3 93 121.2 81 111 96 111 102 96" style="fill:none;stroke:#000;stroke-linejoin:round;stroke-width:6px"/><polygon points="42 96 48 111 63 111 51 121.1 55.5 137.5 42 126.9 28.5 137.3 33 121.2 21 111 36 111 42 96" style="fill:none;stroke:#000;stroke-linejoin:round;stroke-width:6px"/><rect width="144" height="144" style="fill:none"/></svg>