<svg xmlns="http://www.w3.org/2000/svg" viewBox="0 0 144 144"><path d="M129,84A56.992,56.992,0,0,1,15.1,87.1C15,86,15,85,15,84A56.7737,56.7737,0,0,1,35.4,40.3,56.4587,56.4587,0,0,0,46.7,61,56.7228,56.7228,0,0,0,54,33c0-1,0-2-.1-3.1A56.1809,56.1809,0,0,0,46,3.9,73.6812,73.6812,0,0,1,91.8,30.5a73.1438,73.1438,0,0,1,16.2,46,9.1507,9.1507,0,0,1-.1,1.6,55.46,55.46,0,0,0,18.7-10.4A54.47,54.47,0,0,1,129,84Z" style="fill:none;stroke:#000;stroke-linejoin:round;stroke-width:6px"/><path d="M81.9,73.1C70.7,81.3,71.3,97.3,75.7,104c3-2.5,5.7-5.2,6.2-9.2C92.2,98.8,96,107.5,96,117a23.5716,23.5716,0,0,1-24,24c-13.6,0-24-11-24-24.7C48,96.4,62.3,77.6,81.9,73.1Z" style="fill:none;stroke:#000;stroke-linecap:round;stroke-linejoin:round;stroke-width:6px"/><rect width="144" height="144" style="fill:none"/></svg>