<svg xmlns="http://www.w3.org/2000/svg" viewBox="0 0 144 144"><path d="M120,63A48.0095,48.0095,0,0,0,41.9,25.6L17.8,48" style="fill:none;stroke:#000;stroke-linejoin:round;stroke-width:6px"/><path d="M60,108c6,3,7.9,3,12,3a47.8665,47.8665,0,0,0,41.6-24" style="fill:none;stroke:#000;stroke-linecap:round;stroke-linejoin:round;stroke-width:6px"/><path d="M45,111a30.0034,30.0034,0,0,0,6-59.4L3,45v3A20.9974,20.9974,0,0,0,24,69H39.3" style="fill:none;stroke:#000;stroke-linecap:round;stroke-linejoin:round;stroke-width:6px"/><path d="M24,90a20.9974,20.9974,0,0,0,21,21" style="fill:none;stroke:#000;stroke-linecap:round;stroke-linejoin:round;stroke-width:6px"/><path d="M48,90H30A18.0529,18.0529,0,0,1,12,72V66" style="fill:none;stroke:#000;stroke-linecap:round;stroke-linejoin:round;stroke-width:6px"/><path d="M105,30.6A16.5571,16.5571,0,0,0,93,46.5V66" style="fill:none;stroke:#000;stroke-linejoin:round;stroke-width:6px"/><path d="M102,63a12,12,0,0,0,0,24h27a12,12,0,0,0,0-24Z" style="fill:none;stroke:#000;stroke-linecap:round;stroke-linejoin:round;stroke-width:6px"/><line x1="90" y1="75" x2="141" y2="75" style="fill:none;stroke:#000;stroke-linecap:round;stroke-linejoin:round;stroke-width:6px"/><line x1="105" y1="45" x2="105" y2="51" style="fill:none;stroke:#000;stroke-linecap:round;stroke-linejoin:round;stroke-width:6px"/><rect width="144" height="144" style="fill:none"/></svg>