<svg xmlns="http://www.w3.org/2000/svg" viewBox="0 0 144 144"><path d="M117,129a12.0353,12.0353,0,0,1-12,12H33a12.0353,12.0353,0,0,1-12-12V45A12.0353,12.0353,0,0,1,33,33h72a12.0353,12.0353,0,0,1,12,12Z" style="fill:none;stroke:#000;stroke-miterlimit:10;stroke-width:6px"/><line x1="99" y1="126" x2="99" y2="48" style="fill:none;stroke:#000;stroke-linecap:round;stroke-miterlimit:10;stroke-width:6px"/><line x1="39" y1="48" x2="39" y2="126" style="fill:none;stroke:#000;stroke-linecap:round;stroke-miterlimit:10;stroke-width:6px"/><rect x="63" y="21" width="12" height="12" style="fill:none;stroke:#000;stroke-miterlimit:10;stroke-width:6px"/><path d="M87,9a6.0176,6.0176,0,0,0-6-6H57a6.0176,6.0176,0,0,0-6,6V21H87Z" style="fill:none;stroke:#000;stroke-linejoin:round;stroke-width:6px"/><line x1="63" y1="3" x2="63" y2="21" style="fill:none;stroke:#000;stroke-linejoin:round;stroke-width:6px"/><line x1="75" y1="3" x2="75" y2="21" style="fill:none;stroke:#000;stroke-linejoin:round;stroke-width:6px"/><path d="M51,21H48A12.0353,12.0353,0,0,0,36,33" style="fill:none;stroke:#000;stroke-miterlimit:10;stroke-width:6px"/><line x1="60" y1="66" x2="78" y2="48" style="fill:none;stroke:#000;stroke-linecap:round;stroke-miterlimit:10;stroke-width:6px"/><line x1="60" y1="93" x2="78" y2="75" style="fill:none;stroke:#000;stroke-linecap:round;stroke-miterlimit:10;stroke-width:6px"/><line x1="60" y1="120" x2="78" y2="102" style="fill:none;stroke:#000;stroke-linecap:round;stroke-miterlimit:10;stroke-width:6px"/><rect width="144" height="144" style="fill:none"/></svg>