<svg xmlns="http://www.w3.org/2000/svg" viewBox="0 0 144 144"><line x1="63" y1="102" x2="63" y2="141" style="fill:none;stroke:#000;stroke-linecap:round;stroke-linejoin:round;stroke-width:6px"/><line x1="27" y1="141" x2="63" y2="105" style="fill:none;stroke:#000;stroke-linecap:round;stroke-linejoin:round;stroke-width:6px"/><line x1="99" y1="141" x2="63" y2="105" style="fill:none;stroke:#000;stroke-linecap:round;stroke-linejoin:round;stroke-width:6px"/><path d="M69,81V99a3.0759,3.0759,0,0,1-3,3H60a3.0759,3.0759,0,0,1-3-3V78" style="fill:none;stroke:#000;stroke-linecap:round;stroke-linejoin:round;stroke-width:6px"/><path d="M21,33.2V59.6l51,8.8s6.4,5.2,12,8.8c9,5.9,33,2.9,33,2.9s9-5.9,9-35.3-9-35.3-9-35.3S93,6.6,84,12.4c-5.6,3.6-12,8.8-12,8.8Z" style="fill:none;stroke:#000;stroke-linecap:round;stroke-linejoin:round;stroke-width:6px"/><rect width="144" height="144" style="fill:none"/></svg>