<svg xmlns="http://www.w3.org/2000/svg" viewBox="0 0 144 144.4"><line x1="21" y1="141.4" x2="27" y2="69.4" style="fill:none;stroke:#000;stroke-linecap:round;stroke-linejoin:round;stroke-width:6px"/><line x1="57" y1="141.4" x2="51" y2="69.4" style="fill:none;stroke:#000;stroke-linecap:round;stroke-linejoin:round;stroke-width:6px"/><path d="M69,141H9L19.4,21.1a19.691,19.691,0,0,1,39.2,0Z" style="fill:none;stroke:#000;stroke-linecap:round;stroke-linejoin:round;stroke-width:6px"/><path d="M48,24.4a9,9,0,0,0-18,0v12a9,9,0,1,0,18,0Z" style="fill:none;stroke:#000;stroke-linecap:round;stroke-linejoin:round;stroke-width:6px"/><line x1="87" y1="3.4" x2="93" y2="75.4" style="fill:none;stroke:#000;stroke-linecap:round;stroke-linejoin:round;stroke-width:6px"/><line x1="123" y1="3.4" x2="117" y2="75.4" style="fill:none;stroke:#000;stroke-linecap:round;stroke-linejoin:round;stroke-width:6px"/><path d="M135,3H75L85.4,123.2a19.6666,19.6666,0,0,0,39.2-.1Z" style="fill:none;stroke:#000;stroke-linecap:round;stroke-linejoin:round;stroke-width:6px"/><path d="M114,120.4a9,9,0,0,1-18,0v-12a9,9,0,0,1,18,0Z" style="fill:none;stroke:#000;stroke-linecap:round;stroke-linejoin:round;stroke-width:6px"/><rect width="144" height="144" style="fill:none"/></svg>