<svg xmlns="http://www.w3.org/2000/svg" viewBox="0 0 144 144"><path d="M141,141V122.9C126,126,116.6,111,116.6,111h0c-8.9,15.5-32.7,17.2-43.4,0h0c-8.9,15.5-32.7,17.2-43.4,0h0s-12,15.3-26.7,12.1L3,141Z" style="fill:none;stroke:#000;stroke-linejoin:round;stroke-width:6px"/><path d="M141,123V98.9C126,102,116.7,87,116.7,87h0c-8.9,15.5-32.7,17.2-43.4,0h0c-8.9,15.5-32.7,17.2-43.4,0h0s-12,15.3-26.7,12.1L3,123" style="fill:none;stroke:#000;stroke-linejoin:round;stroke-width:6px"/><line x1="123" y1="93.8" x2="123" y2="69" style="fill:none;stroke:#000;stroke-linecap:round;stroke-linejoin:round;stroke-width:6px"/><line x1="21" y1="69" x2="21" y2="94.9" style="fill:none;stroke:#000;stroke-linecap:round;stroke-linejoin:round;stroke-width:6px"/><polyline points="3 66 72 3 141 66" style="fill:none;stroke:#000;stroke-linecap:round;stroke-linejoin:round;stroke-width:6px"/><polyline points="96 9 117 9 117 30" style="fill:none;stroke:#000;stroke-linecap:round;stroke-linejoin:round;stroke-width:6px"/><rect x="63" y="33" width="18" height="18" style="fill:none;stroke:#000;stroke-linecap:round;stroke-linejoin:round;stroke-width:6px"/><rect width="144" height="144" style="fill:none"/></svg>