<svg xmlns="http://www.w3.org/2000/svg" viewBox="0 0 144 144"><path d="M108.2,27.1a13.6253,13.6253,0,0,0-19.8-7.6,13.6912,13.6912,0,1,0-26.8,0,13.6483,13.6483,0,1,0-8.2,25.4A13.6522,13.6522,0,1,0,75,60.6,13.6522,13.6522,0,1,0,96.6,44.9,13.6008,13.6008,0,0,0,108.2,27.1Z" style="fill:none;stroke:#000;stroke-linecap:round;stroke-linejoin:round;stroke-width:6px"/><circle cx="75" cy="37.5" r="10.5" style="fill:none;stroke:#000;stroke-linecap:round;stroke-linejoin:round;stroke-width:6px"/><polygon points="99 141 45 141 33 93 111 93 99 141" style="fill:none;stroke:#000;stroke-linejoin:round;stroke-width:6px"/><path d="M68.7,93S67.1,78.5,75,60.6" style="fill:none;stroke:#000;stroke-linecap:round;stroke-linejoin:round;stroke-width:6px"/><line x1="36" y1="105" x2="108" y2="105" style="fill:none;stroke:#000;stroke-linejoin:round;stroke-width:6px"/><rect width="144" height="144" style="fill:none"/></svg>