<svg xmlns="http://www.w3.org/2000/svg" viewBox="0 0 144 144"><rect x="3" y="87" width="24" height="48" style="fill:none;stroke:#000;stroke-linecap:round;stroke-linejoin:round;stroke-width:6px"/><path d="M27,126.4c63,21,42,21,114-15-6.4-6.4-11.4-7.9-18-6l-25.9,8.2" style="fill:none;stroke:#000;stroke-linecap:round;stroke-linejoin:round;stroke-width:6px"/><path d="M27,93H45c14.1,0,24,12,27,12H93c6,0,6,12,0,12H60" style="fill:none;stroke:#000;stroke-linecap:round;stroke-linejoin:round;stroke-width:6px"/><circle cx="96" cy="49.9" r="10.6" style="fill:none;stroke:#000;stroke-linecap:round;stroke-linejoin:round;stroke-width:6px"/><path d="M129.2,39.1a13.6253,13.6253,0,0,0-19.8-7.6,13.6912,13.6912,0,1,0-26.8,0,13.6483,13.6483,0,1,0-8.2,25.4A13.6522,13.6522,0,1,0,96,72.6a13.6522,13.6522,0,1,0,21.6-15.7A13.6536,13.6536,0,0,0,129.2,39.1Z" style="fill:none;stroke:#000;stroke-linecap:round;stroke-linejoin:round;stroke-width:6px"/><rect width="144" height="144" style="fill:none"/></svg>