<svg xmlns="http://www.w3.org/2000/svg" viewBox="0 0 144 144.0196"><path d="M69,129A41.9948,41.9948,0,0,1,27,87H96" style="fill:none;stroke:#000;stroke-linecap:round;stroke-linejoin:round;stroke-width:6px"/><path d="M60,9c10.9,8,10.3,23.5,6,30-2.9-2.4-5.6-5-6-9C50,34,45,41.8,45,51a24,24,0,0,0,48,0C93,31.6,79.1,13.4,60,9Z" style="fill:none;stroke:#000;stroke-linecap:round;stroke-linejoin:round;stroke-width:6px"/><path d="M136.7,106.5c-3.1-5.1-11-6.1-16.5-1.3,2.2-7.6-2.9-14.7-9.3-14.7-6.5,0-11.4,7.1-9.4,14.5-5.6-4.7-13.2-3.6-16.3,1.4-4,6.5,1.7,15.6,10.2,16-5.8,4.5-6.3,11.9-2.3,16,5.1,5.1,14.9,2.5,17.8-5.6,2.8,8,12.6,10.7,17.8,5.6,4-4,3.6-11.5-2.3-16C135,122.1,140.7,113.1,136.7,106.5Z" style="fill:none;stroke:#000;stroke-linecap:round;stroke-linejoin:round;stroke-width:6px"/><circle cx="111" cy="117.2" r="8.9" style="fill:none;stroke:#000;stroke-linecap:round;stroke-linejoin:round;stroke-width:6px"/><rect width="144" height="144" style="fill:none"/></svg>