<svg xmlns="http://www.w3.org/2000/svg" viewBox="0 0 144 144"><path d="M123,3C109,7.9,99,20.3,99,36h0C99,20.3,89,7.9,75,3h0C61,7.9,51,20.3,51,36h0C51,20.3,41,7.9,27,3V51a48,48,0,0,0,96,0Z" style="fill:none;stroke:#000;stroke-linecap:round;stroke-linejoin:round;stroke-width:6px"/><line x1="51" y1="36" x2="51" y2="48" style="fill:none;stroke:#000;stroke-linecap:round;stroke-linejoin:round;stroke-width:6px"/><line x1="99" y1="36" x2="99" y2="48" style="fill:none;stroke:#000;stroke-linecap:round;stroke-linejoin:round;stroke-width:6px"/><line x1="51" y1="60" x2="51" y2="63" style="fill:none;stroke:#000;stroke-linecap:round;stroke-linejoin:round;stroke-width:6px"/><line x1="99" y1="60" x2="99" y2="63" style="fill:none;stroke:#000;stroke-linecap:round;stroke-linejoin:round;stroke-width:6px"/><line x1="75" y1="99" x2="75" y2="141" style="fill:none;stroke:#000;stroke-linecap:round;stroke-linejoin:round;stroke-width:6px"/><path d="M102,111a15.0559,15.0559,0,0,0-12,6L75,141h27a15.0559,15.0559,0,0,0,12-6l12-24Z" style="fill:none;stroke:#000;stroke-linecap:round;stroke-linejoin:round;stroke-width:6px"/><path d="M48,111a15.0559,15.0559,0,0,1,12,6l15,24H48a15.0559,15.0559,0,0,1-12-6L24,111Z" style="fill:none;stroke:#000;stroke-linecap:round;stroke-linejoin:round;stroke-width:6px"/><rect width="144" height="144" style="fill:none"/></svg>