<svg xmlns="http://www.w3.org/2000/svg" viewBox="0 0 144 144"><path d="M102,39c5.3-3.1,9-8.4,9-15a18,18,0,0,0-36,0,18,18,0,0,0-36,0c0,6.5,3.9,11.8,9,15h0A18.0071,18.0071,0,0,0,22.1,55.2C22.1,71.3,40.4,76.3,48,72h0A17.9677,17.9677,0,1,0,75,87.5a18.05,18.05,0,0,0,36.1,0A17.2078,17.2078,0,0,0,102,72h0c6,3.4,28.1,1.8,28.1-16.8C130.1,40.4,113.6,33,102,39Z" style="fill:none;stroke:#000;stroke-linejoin:round;stroke-width:6px"/><circle cx="75" cy="57" r="21" style="fill:none;stroke:#000;stroke-linejoin:round;stroke-width:6px"/><circle cx="75" cy="57" r="12" style="fill:none;stroke:#000;stroke-linejoin:round;stroke-width:6px"/><line x1="75" y1="87.5" x2="75" y2="141" style="fill:none;stroke:#000;stroke-linecap:round;stroke-linejoin:round;stroke-width:6px"/><path d="M102,111a15.0559,15.0559,0,0,0-12,6L75,141h27a15.0559,15.0559,0,0,0,12-6l12-24Z" style="fill:none;stroke:#000;stroke-linecap:round;stroke-linejoin:round;stroke-width:6px"/><path d="M48,111a15.0559,15.0559,0,0,1,12,6l15,24H48a15.0559,15.0559,0,0,1-12-6L24,111Z" style="fill:none;stroke:#000;stroke-linecap:round;stroke-linejoin:round;stroke-width:6px"/><rect width="144" height="144" style="fill:none"/></svg>