<svg xmlns="http://www.w3.org/2000/svg" viewBox="0 0 144 144"><path d="M105,6c-8.3,0-18,6.7-18,15H84a15,15,0,0,0-30,0H51c0-8.3-9.7-15-18-15V48c0,18.2,17.8,33,36,33s36-14.8,36-33Z" style="fill:none;stroke:#000;stroke-linecap:round;stroke-linejoin:round;stroke-width:6px"/><line x1="69" y1="81" x2="69" y2="141" style="fill:none;stroke:#000;stroke-linecap:round;stroke-linejoin:round;stroke-width:6px"/><path d="M108,129a15,15,0,1,1,0-24l18,12Z" style="fill:none;stroke:#000;stroke-linecap:round;stroke-linejoin:round;stroke-width:6px"/><line x1="84" y1="117" x2="102" y2="117" style="fill:none;stroke:#000;stroke-linecap:round;stroke-linejoin:round;stroke-width:6px"/><path d="M30,117a15,15,0,1,0,0-24L12,105Z" style="fill:none;stroke:#000;stroke-linecap:round;stroke-linejoin:round;stroke-width:6px"/><line x1="54" y1="105" x2="36" y2="105" style="fill:none;stroke:#000;stroke-linecap:round;stroke-linejoin:round;stroke-width:6px"/><rect width="144" height="144" style="fill:none"/></svg>