<svg xmlns="http://www.w3.org/2000/svg" viewBox="0 0 144 144"><path d="M105,35.9c10,8.3,18,22,18,36s-8,27.7-18,36" style="fill:none;stroke:#000;stroke-linecap:round;stroke-linejoin:round;stroke-width:6px"/><path d="M39,35.9c-10,8.3-18,22-18,36s8,27.7,18,36" style="fill:none;stroke:#000;stroke-linecap:round;stroke-linejoin:round;stroke-width:6px"/><circle cx="72" cy="72" r="18" style="fill:none;stroke:#000;stroke-linecap:round;stroke-linejoin:round;stroke-width:6px"/><path d="M3,21A12.0353,12.0353,0,0,1,15,9H129a12.0353,12.0353,0,0,1,12,12V123a12.0353,12.0353,0,0,1-12,12H15A12.0353,12.0353,0,0,1,3,123Z" style="fill:none;stroke:#000;stroke-linecap:round;stroke-linejoin:round;stroke-width:6px"/><rect width="144" height="144" style="fill:none"/></svg>