<svg xmlns="http://www.w3.org/2000/svg" viewBox="0 0 144 144"><path d="M18,129H123a18.0529,18.0529,0,0,0,18-18V39H33v75a15,15,0,0,1-30,0V15H45V27h78V39" style="fill:none;stroke:#000;stroke-linecap:round;stroke-linejoin:round;stroke-width:6px"/><polyline points="105 39 105 51 111 51 111 81 93 81 93 51" style="fill:none;stroke:#000;stroke-linecap:round;stroke-linejoin:round;stroke-width:6px"/><polygon points="102 66 96 66 96 72 102 72 102 66" style="fill:#000"/><line x1="96" y1="93" x2="102" y2="93" style="fill:none;stroke:#000;stroke-linecap:round;stroke-linejoin:round;stroke-width:6px;stroke-dasharray:6,12"/><line x1="96" y1="105" x2="102" y2="105" style="fill:none;stroke:#000;stroke-linecap:round;stroke-linejoin:round;stroke-width:6px;stroke-dasharray:6,12"/><line x1="96" y1="117" x2="102" y2="117" style="fill:none;stroke:#000;stroke-linecap:round;stroke-linejoin:round;stroke-width:6px;stroke-dasharray:6,12"/><line x1="102" y1="99" x2="108" y2="99" style="fill:none;stroke:#000;stroke-linecap:round;stroke-linejoin:round;stroke-width:6px;stroke-dasharray:6,12"/><line x1="102" y1="111" x2="108" y2="111" style="fill:none;stroke:#000;stroke-linecap:round;stroke-linejoin:round;stroke-width:6px;stroke-dasharray:6,12"/><line x1="102" y1="123" x2="108" y2="123" style="fill:none;stroke:#000;stroke-linecap:round;stroke-linejoin:round;stroke-width:6px;stroke-dasharray:6,12"/><rect width="144" height="144" style="fill:none"/></svg>