<svg xmlns="http://www.w3.org/2000/svg" viewBox="0 0 144 144"><polygon points="68.3 66 77.2 87 98.2 87 80.2 102 89.2 126 68.2 111 47.2 126 56.2 102 38.2 87 59.2 87 68.3 66" style="fill:none;stroke:#000;stroke-linejoin:round;stroke-width:6px"/><polyline points="45.4 75.4 39 69 3 69 3 141 105 141 105 102" style="fill:none;stroke:#000;stroke-linecap:round;stroke-linejoin:round;stroke-width:6px"/><polyline points="33 69 33 3 99 3 129 39 129 129 105 129" style="fill:none;stroke:#000;stroke-linecap:round;stroke-linejoin:round;stroke-width:6px"/><polyline points="99 3 99 39 129 39" style="fill:none;stroke:#000;stroke-linecap:round;stroke-linejoin:round;stroke-width:6px"/><line x1="51" y1="39" x2="87" y2="39" style="fill:none;stroke:#000;stroke-linecap:round;stroke-linejoin:round;stroke-width:6px"/><line x1="51" y1="21" x2="87" y2="21" style="fill:none;stroke:#000;stroke-linecap:round;stroke-linejoin:round;stroke-width:6px"/><rect width="144" height="144" style="fill:none"/></svg>