<svg xmlns="http://www.w3.org/2000/svg" viewBox="0 0 144 144"><polyline points="111 39 111 27 45 27 33 15 3 15 3 99" style="fill:none;stroke:#000;stroke-linecap:round;stroke-linejoin:round;stroke-width:6px"/><polyline points="123 51 123 39 15 39 15 111" style="fill:none;stroke:#000;stroke-linecap:round;stroke-linejoin:round;stroke-width:6px"/><rect x="27" y="51" width="108" height="72" style="fill:none;stroke:#000;stroke-linecap:round;stroke-linejoin:round;stroke-width:6px"/><polyline points="75 99 75 75.1 99 63.1 99 87" style="fill:none;stroke:#000;stroke-linecap:round;stroke-linejoin:round;stroke-width:6px"/><path d="M99,93.1c0,6-.3,6-6.3,6C84,99.1,84,87,92.3,87H99Z" style="fill:none;stroke:#000;stroke-linecap:round;stroke-linejoin:round;stroke-width:6px"/><path d="M75,105.1c0,6-.3,6-6.3,6C60,111.1,60,99,68.3,99H75Z" style="fill:none;stroke:#000;stroke-linecap:round;stroke-linejoin:round;stroke-width:6px"/><rect width="144" height="144" style="fill:none"/></svg>