<svg xmlns="http://www.w3.org/2000/svg" viewBox="0 0 144 144"><path d="M135,51V24a8.9626,8.9626,0,0,0-9-9H111" style="fill:none;stroke:#000;stroke-linecap:round;stroke-linejoin:round;stroke-width:6px"/><polyline points="123 3 111 15 123 27" style="fill:none;stroke:#000;stroke-linecap:round;stroke-linejoin:round;stroke-width:6px"/><path d="M54,141h69a18.0529,18.0529,0,0,0,18-18V87H63v45a9,9,0,0,1-18,0V69H69v6h60V87" style="fill:none;stroke:#000;stroke-linecap:round;stroke-linejoin:round;stroke-width:6px"/><path d="M9,99v21a8.9626,8.9626,0,0,0,9,9H33" style="fill:none;stroke:#000;stroke-linecap:round;stroke-linejoin:round;stroke-width:6px"/><polyline points="21 141 33 129 21 117" style="fill:none;stroke:#000;stroke-linecap:round;stroke-linejoin:round;stroke-width:6px"/><line x1="45" y1="75" x2="12" y2="75" style="fill:none;stroke:#000;stroke-linecap:round;stroke-linejoin:round;stroke-width:6px"/><path d="M87,27V15H33V3H3V66a9,9,0,0,0,18,0V27H99V60c0,9.9-8.1,15-18,15H69" style="fill:none;stroke:#000;stroke-linecap:round;stroke-linejoin:round;stroke-width:6px"/><rect width="144" height="144" style="fill:none"/></svg>