<svg xmlns="http://www.w3.org/2000/svg" viewBox="0 0 144 144"><path d="M38.5,117.2s4.3-25.3-8-39.2a1.976,1.976,0,0,1,0-2.6c4.3-4.7,15.1.1,25.9,20.1,2.8,5.2,8.8,4.9,13.9,2,9.8-5.6,22.8-20.2,31.8-22.4,11.8-3,15.9,4.2,13.6,6.5L64.3,133Z" style="fill:none;stroke:#000;stroke-linejoin:round;stroke-width:6px"/><polygon points="56.3 141 64.3 133 38.5 117.2 16.9 141 56.3 141" style="fill:none;stroke:#000;stroke-linecap:round;stroke-linejoin:round;stroke-width:6px"/><line x1="141" y1="69" x2="3.5" y2="69" style="fill:none;stroke:#000;stroke-linecap:round;stroke-linejoin:round;stroke-width:6px"/><path d="M128.9,69c.1-1,.1-2,.1-3A57,57,0,0,0,15,66c0,1,.1,2,.2,3Z" style="fill:none;stroke:#000;stroke-linecap:round;stroke-linejoin:round;stroke-width:6px"/><path d="M72,24A42.7233,42.7233,0,0,0,31.3,53.7" style="fill:none;stroke:#000;stroke-linecap:round;stroke-linejoin:round;stroke-width:6px"/><line x1="69" y1="9" x2="69" y2="3" style="fill:none;stroke:#000;stroke-linecap:round;stroke-linejoin:round;stroke-width:6px"/><rect width="144" height="144" style="fill:none"/></svg>