<svg xmlns="http://www.w3.org/2000/svg" viewBox="0 0 144 144.1"><path d="M94.4,66.6c-19.7,26.6-5,34.1-5,57.7,0,12.2-9.6,16.8-15.6,16.8S55,139.3,55,123.7C55,91.8,42.1,84,51,60.6,62.9,29.6,111.8,43.1,94.4,66.6Z" style="fill:none;stroke:#000;stroke-linejoin:round;stroke-width:6px"/><ellipse cx="66.4823" cy="18.2763" rx="13.2001" ry="8.5" transform="translate(47.244 84.4866) rotate(-89.1692)" style="fill:none;stroke:#000;stroke-linejoin:round;stroke-width:6.000030674254786px"/><ellipse cx="92.4736" cy="18.2699" rx="13.2001" ry="8.5" transform="translate(72.8648 110.4689) rotate(-89.1692)" style="fill:none;stroke:#000;stroke-linejoin:round;stroke-width:6.000030674254786px"/><ellipse cx="44.8964" cy="32.7959" rx="6.7999" ry="10.4999" transform="translate(-7.0057 12.8602) rotate(-15.1355)" style="fill:none;stroke:#000;stroke-linejoin:round;stroke-width:5.999932026931639px"/><ellipse cx="33.7923" cy="54.9947" rx="5.6998" ry="8.7997" transform="translate(-24.7135 27.7292) rotate(-33.4437)" style="fill:none;stroke:#000;stroke-linejoin:round;stroke-width:5.999803749435054px"/><path d="M94.4,66.6c-19.7,26.6-5,34.1-5,57.7,0,12.2-9.6,16.8-15.6,16.8S55,139.3,55,123.7C55,91.8,42.1,84,51,60.6,62.9,29.6,111.8,43.1,94.4,66.6Z" style="fill:none;stroke:#000;stroke-linejoin:round;stroke-width:6px"/><ellipse cx="66.4823" cy="18.2763" rx="13.2001" ry="8.5" transform="translate(47.244 84.4866) rotate(-89.1692)" style="fill:none;stroke:#000;stroke-linejoin:round;stroke-width:6.000030674254786px"/><ellipse cx="92.4736" cy="18.2699" rx="13.2001" ry="8.5" transform="translate(72.8648 110.4689) rotate(-89.1692)" style="fill:none;stroke:#000;stroke-linejoin:round;stroke-width:6.000030674254786px"/><ellipse cx="44.8964" cy="32.7959" rx="6.7999" ry="10.4999" transform="translate(-7.0057 12.8602) rotate(-15.1355)" style="fill:none;stroke:#000;stroke-linejoin:round;stroke-width:5.999932026931639px"/><ellipse cx="33.7923" cy="54.9947" rx="5.6998" ry="8.7997" transform="translate(-24.7135 27.7292) rotate(-33.4437)" style="fill:none;stroke:#000;stroke-linejoin:round;stroke-width:5.999803749435054px"/><rect width="144" height="144" style="fill:none"/></svg>