<svg xmlns="http://www.w3.org/2000/svg" viewBox="0 0 144 144"><path d="M83.5,70.7c5.6,5.5,13.6-3.5,7.5-8.4l-19-21-18.9,21c-6.1,4.9,2,13.9,7.6,8.4L44.7,90c-5.3,5.3,2.8,13.3,8.1,7.9L40.7,113.4a5.6932,5.6932,0,0,0,4,9.7H99.4a5.6932,5.6932,0,0,0,4-9.7L91,97.9c5.3,5.3,13.3-2.8,8-8Z" style="fill:none;stroke:#000;stroke-linecap:round;stroke-linejoin:round;stroke-width:6px"/><line x1="81" y1="123" x2="81" y2="141" style="fill:none;stroke:#000;stroke-linecap:round;stroke-linejoin:round;stroke-width:6px"/><line x1="63" y1="123" x2="63" y2="141" style="fill:none;stroke:#000;stroke-linecap:round;stroke-linejoin:round;stroke-width:6px"/><path d="M34.7,22.5c3.7,3.6,9-2.3,5-5.6L27,3.1,14.2,16.9c-4,3.3,1.3,9.2,5,5.5L9.1,35.2C5.6,38.7,11,44,14.4,40.4l-8,10.2A3.7822,3.7822,0,0,0,9.1,57H44.9a3.7193,3.7193,0,0,0,2.6-6.4L39.7,40.4c3.5,3.5,8.8-1.8,5.2-5.3Z" style="fill:none;stroke:#000;stroke-linecap:round;stroke-linejoin:round;stroke-width:6px"/><line x1="27" y1="57" x2="27" y2="66.1" style="fill:none;stroke:#000;stroke-linecap:round;stroke-linejoin:round;stroke-width:6px"/><path d="M124.7,22.5c3.7,3.6,9-2.3,5-5.6L117,3.1,104.2,16.9c-4,3.3,1.3,9.2,5,5.5L99.1,35.2c-3.5,3.5,1.9,8.8,5.3,5.2l-8,10.2A3.7822,3.7822,0,0,0,99.1,57h35.8a3.7193,3.7193,0,0,0,2.6-6.4l-7.8-10.1c3.5,3.5,8.8-1.8,5.2-5.3Z" style="fill:none;stroke:#000;stroke-linecap:round;stroke-linejoin:round;stroke-width:6px"/><line x1="117" y1="57" x2="117" y2="66.1" style="fill:none;stroke:#000;stroke-linecap:round;stroke-linejoin:round;stroke-width:6px"/><rect width="144" height="144" style="fill:none"/></svg>