<svg xmlns="http://www.w3.org/2000/svg" viewBox="0 0 144.0417 144"><polyline points="51.501 111 114.001 111 87.001 75 105.001 75 81.001 39 93.001 39 69.001 3 45.001 39 57.001 39 33.001 75 51.001 75 41.601 87.6" style="fill:none;stroke:#000;stroke-linecap:round;stroke-linejoin:round;stroke-width:6px"/><line x1="69.001" y1="111" x2="69.001" y2="141" style="fill:none;stroke:#000;stroke-linecap:round;stroke-linejoin:round;stroke-width:6px"/><polyline points="126.101 111 141.001 111 117.001 75 135.001 75 111.001 39 123.001 39 99.001 3 90.901 15.1" style="fill:none;stroke:#000;stroke-linecap:round;stroke-linejoin:round;stroke-width:6px"/><line x1="99.001" y1="111" x2="99.001" y2="141" style="fill:none;stroke:#000;stroke-linecap:round;stroke-linejoin:round;stroke-width:6px"/><path d="M15.5,87c2.1,6.8,6.1,19.3,0,29.1-1.3-1.5-6.2-8.3-6.2-8.3S3,116.5,3,122.3a18.7,18.7,0,1,0,37.4,0C40.4,107.2,29.9,91.8,15.5,87Z" transform="translate(0.001)" style="fill:none;stroke:#000;stroke-linecap:round;stroke-linejoin:round;stroke-width:6px"/><path d="M6.1,9C16.5,19.5-4.3,23,5.9,33.3" transform="translate(0.001)" style="fill:none;stroke:#000;stroke-linecap:round;stroke-linejoin:round;stroke-width:6px"/><path d="M24,32.7c10.5,10.5-10.4,14-.1,24.3" transform="translate(0.001)" style="fill:none;stroke:#000;stroke-linecap:round;stroke-linejoin:round;stroke-width:6px"/><path d="M138,3c10.5,10.5-10.4,14-.1,24.3" transform="translate(0.001)" style="fill:none;stroke:#000;stroke-linecap:round;stroke-linejoin:round;stroke-width:6px"/><rect x="0.001" width="144" height="144" style="fill:none"/></svg>