<svg xmlns="http://www.w3.org/2000/svg" viewBox="0 0 144 144"><path d="M99,39A18.0529,18.0529,0,0,0,81,21H57A18.0529,18.0529,0,0,0,39,39H99Z" style="fill:none;stroke:#000;stroke-linejoin:round;stroke-width:6px"/><circle cx="69" cy="9" r="6" style="fill:none;stroke:#000;stroke-linejoin:round;stroke-width:6px"/><polyline points="39 39 24 39 39 54 39 129 99 129 99 39 39 39" style="fill:none;stroke:#000;stroke-linejoin:round;stroke-width:6px"/><path d="M135,81a29.96,29.96,0,0,1-30,30H99V51h6A29.96,29.96,0,0,1,135,81Z" style="fill:none;stroke:#000;stroke-linejoin:round;stroke-width:6px"/><line x1="42" y1="141" x2="51" y2="129" style="fill:none;stroke:#000;stroke-linecap:round;stroke-linejoin:round;stroke-width:6px"/><line x1="96" y1="141" x2="87" y2="129" style="fill:none;stroke:#000;stroke-linecap:round;stroke-linejoin:round;stroke-width:6px"/><rect x="51" y="39" width="36" height="18" style="fill:none;stroke:#000;stroke-linecap:round;stroke-linejoin:round;stroke-width:6px"/><line x1="69" y1="57" x2="69" y2="105" style="fill:none;stroke:#000;stroke-linecap:round;stroke-linejoin:round;stroke-width:6px"/><line x1="48" y1="105" x2="90" y2="105" style="fill:none;stroke:#000;stroke-linecap:round;stroke-linejoin:round;stroke-width:6px"/><line x1="39" y1="117" x2="99" y2="117" style="fill:none;stroke:#000;stroke-linecap:round;stroke-linejoin:round;stroke-width:6px"/><rect width="144" height="144" style="fill:none"/></svg>