<svg xmlns="http://www.w3.org/2000/svg" viewBox="0 0 144 144"><path d="M123,123a12.0353,12.0353,0,0,1-12,12H39a12.0353,12.0353,0,0,1-12-12V75h96Z" style="fill:none;stroke:#000;stroke-linecap:round;stroke-linejoin:round;stroke-width:6px"/><line x1="39" y1="135" x2="39" y2="141" style="fill:none;stroke:#000;stroke-linecap:round;stroke-linejoin:round;stroke-width:6px"/><line x1="111" y1="135" x2="111" y2="141" style="fill:none;stroke:#000;stroke-linecap:round;stroke-linejoin:round;stroke-width:6px"/><path d="M39,27h72V51A12.0353,12.0353,0,0,1,99,63H51A12.0353,12.0353,0,0,1,39,51Z" style="fill:none;stroke:#000;stroke-linecap:round;stroke-linejoin:round;stroke-width:6px"/><path d="M39,27V15A12.0353,12.0353,0,0,0,27,3H3" style="fill:none;stroke:#000;stroke-linecap:round;stroke-linejoin:round;stroke-width:6px"/><polyline points="57 99 57 93 93 93 93 99" style="fill:none;stroke:#000;stroke-linecap:round;stroke-linejoin:round;stroke-width:6px"/><line x1="57" y1="27" x2="57" y2="63" style="fill:none;stroke:#000;stroke-linecap:round;stroke-linejoin:round;stroke-width:6px"/><line x1="75" y1="27" x2="75" y2="63" style="fill:none;stroke:#000;stroke-linecap:round;stroke-linejoin:round;stroke-width:6px"/><line x1="93" y1="27" x2="93" y2="63" style="fill:none;stroke:#000;stroke-linecap:round;stroke-linejoin:round;stroke-width:6px"/><rect width="144" height="144" style="fill:none"/></svg>