<svg xmlns="http://www.w3.org/2000/svg" viewBox="0 0 144 144"><path d="M107.1,58C118.5,53.9,126,32.2,126,19.2,103.7,20.7,92.8,29,90.7,35.4" style="fill:none;stroke:#000;stroke-linejoin:round;stroke-width:6px"/><path d="M27.3,57.6C15.9,53.4,9,32.2,9,19.1c22.3,1.5,33,9.3,35.1,15.7" style="fill:none;stroke:#000;stroke-linejoin:round;stroke-width:6px"/><path d="M97.9,123.3c7.7-5.7,14.6-17.3,14.6-36.2C112.5,50.7,90.7,27,67,27S21.5,50.7,21.5,87.1c0,20,6.9,30.9,15.1,36.4" style="fill:none;stroke:#000;stroke-linejoin:round;stroke-width:6px"/><path d="M53.6,128.6c4.9.4,10.1.3,13.4.3,3.5,0,9.2.2,14.5-.3" style="fill:none;stroke:#000;stroke-linejoin:round;stroke-width:6px"/><path d="M22.5,141a18,18,0,0,1,36,0Z" style="fill:none;stroke:#000;stroke-linejoin:round;stroke-width:6px"/><path d="M76.5,141a18,18,0,0,1,36,0Z" style="fill:none;stroke:#000;stroke-linejoin:round;stroke-width:6px"/><path d="M82.5,93c0,6-6.7,15-15,15s-15-9-15-15Z" style="fill:none;stroke:#000;stroke-linejoin:round;stroke-width:6px"/><path d="M49.5,93c0-6,8.1-18,18-18s18,12,18,18Z" style="fill:none;stroke:#000;stroke-linejoin:round;stroke-width:6px"/><circle cx="49.5" cy="60" r="9" style="fill:none;stroke:#000;stroke-linejoin:round;stroke-width:6px"/><circle cx="85.5" cy="60" r="9" style="fill:none;stroke:#000;stroke-linejoin:round;stroke-width:6px"/><rect width="144" height="144" style="fill:none"/></svg>