<svg xmlns="http://www.w3.org/2000/svg" viewBox="0 0 144 144"><path d="M141,111c0,16.3-138,16.3-138,0V45A12.0353,12.0353,0,0,1,15,33H35.8a12.3368,12.3368,0,0,0,10.1-5.4l4.6-7.1A12.05,12.05,0,0,1,60.6,15h23a11.9128,11.9128,0,0,1,10,5.4l4.8,7.2a11.9128,11.9128,0,0,0,10,5.4H129a12.0353,12.0353,0,0,1,12,12Z" style="fill:none;stroke:#000;stroke-linejoin:round;stroke-width:6px"/><rect x="51" y="51" width="54" height="48" style="fill:none;stroke:#000;stroke-linejoin:round;stroke-width:6px"/><line x1="119.4" y1="63.2" x2="128.2" y2="54.4" style="fill:none;stroke:#000;stroke-linecap:round;stroke-linejoin:round;stroke-width:6px"/><line x1="119.4" y1="81.2" x2="128.2" y2="72.4" style="fill:none;stroke:#000;stroke-linecap:round;stroke-linejoin:round;stroke-width:6px"/><line x1="119.4" y1="99.2" x2="128.2" y2="90.4" style="fill:none;stroke:#000;stroke-linecap:round;stroke-linejoin:round;stroke-width:6px"/><line x1="15" y1="69" x2="39" y2="69" style="fill:none;stroke:#000;stroke-linecap:round;stroke-linejoin:round;stroke-width:6px"/><line x1="27" y1="57" x2="27" y2="80.9" style="fill:none;stroke:#000;stroke-linecap:round;stroke-linejoin:round;stroke-width:6px"/><line x1="21.1" y1="99" x2="32.9" y2="99" style="fill:none;stroke:#000;stroke-linecap:round;stroke-linejoin:round;stroke-width:6px"/><rect width="144" height="144" style="fill:none"/></svg>