<svg xmlns="http://www.w3.org/2000/svg" viewBox="0 0 144 144"><path d="M113.5,132.5c-4.7,4.7-13.9,8.5-20.5,8.5H33a12.0353,12.0353,0,0,1-12-12V15A12.0353,12.0353,0,0,1,33,3h78a12.0353,12.0353,0,0,1,12,12v96c0,6.6-3.8,15.8-8.5,20.5Z" style="fill:none;stroke:#000;stroke-linecap:round;stroke-linejoin:round;stroke-width:6px"/><path d="M105,63a6.0176,6.0176,0,0,1-6,6H45a6.0176,6.0176,0,0,1-6-6V27a6.0176,6.0176,0,0,1,6-6H99a6.0176,6.0176,0,0,1,6,6Z" style="fill:none;stroke:#000;stroke-linecap:round;stroke-linejoin:round;stroke-width:6px"/><circle cx="108" cy="90" r="3" style="fill:none;stroke:#000;stroke-linecap:round;stroke-linejoin:round;stroke-width:6px"/><circle cx="90" cy="99" r="3" style="fill:none;stroke:#000;stroke-linecap:round;stroke-linejoin:round;stroke-width:6px"/><line x1="57" y1="99" x2="33" y2="99" style="fill:none;stroke:#000;stroke-linecap:round;stroke-linejoin:round;stroke-width:6px"/><line x1="45" y1="87" x2="45" y2="111" style="fill:none;stroke:#000;stroke-linecap:round;stroke-linejoin:round;stroke-width:6px"/><line x1="75" y1="126" x2="81" y2="123" style="fill:none;stroke:#000;stroke-linecap:round;stroke-linejoin:round;stroke-width:6px"/><line x1="57" y1="126" x2="63" y2="123" style="fill:none;stroke:#000;stroke-linecap:round;stroke-linejoin:round;stroke-width:6px"/><rect width="144" height="144" style="fill:none"/></svg>