<svg xmlns="http://www.w3.org/2000/svg" viewBox="0 0 144 144"><path d="M57,21,54,3,41.6,22.5a2.9985,2.9985,0,0,1-5.3-.2L24,3,21.1,21.1,3,24,22.4,36.4A3.0765,3.0765,0,0,1,24,39a2.8134,2.8134,0,0,1-1.3,2.4L3,54l17.9,2.8,3.2,17.6L36.7,55A3.2553,3.2553,0,0,1,39,54a2.7921,2.7921,0,0,1,2,.8L54.1,74.5,57,57.8" style="fill:none;stroke:#000;stroke-linecap:round;stroke-linejoin:round;stroke-width:6px"/><path d="M123,57.8l-2.9,16.6L107,54.8a2.7921,2.7921,0,0,0-2-.8,3.2553,3.2553,0,0,0-2.3,1L90.1,74.4,86.9,56.8,69,54,88.7,41.4A2.8134,2.8134,0,0,0,90,39a2.8827,2.8827,0,0,0-1.6-2.6L69,24l18.1-2.9L90,3l12.3,19.3a2.9985,2.9985,0,0,0,5.3.2L120,3l3,18,18,3L121.6,36.4A3.0765,3.0765,0,0,0,120,39a2.8134,2.8134,0,0,0,1.3,2.4L141,54Z" style="fill:none;stroke:#000;stroke-linecap:round;stroke-linejoin:round;stroke-width:6px"/><line x1="33" y1="33" x2="45" y2="45" style="fill:none;stroke:#000;stroke-linecap:round;stroke-linejoin:round;stroke-width:6px"/><line x1="45" y1="33" x2="33" y2="45" style="fill:none;stroke:#000;stroke-linecap:round;stroke-linejoin:round;stroke-width:6px"/><line x1="99" y1="33" x2="111" y2="45" style="fill:none;stroke:#000;stroke-linecap:round;stroke-linejoin:round;stroke-width:6px"/><line x1="111" y1="33" x2="99" y2="45" style="fill:none;stroke:#000;stroke-linecap:round;stroke-linejoin:round;stroke-width:6px"/><path d="M39,54s9,36,9,87" style="fill:none;stroke:#000;stroke-linecap:round;stroke-linejoin:round;stroke-width:6px"/><path d="M105,54s-9,36-9,87" style="fill:none;stroke:#000;stroke-linecap:round;stroke-linejoin:round;stroke-width:6px"/><path d="M24.2,126.9a9.2613,9.2613,0,0,0,8.1.4l13.4-9.2L33,111a9.2613,9.2613,0,0,0-8.1-.4L13.1,120.7Z" style="fill:none;stroke:#000;stroke-linecap:round;stroke-linejoin:round;stroke-width:6px"/><path d="M66.7,100.2a9.2613,9.2613,0,0,1-8.1.4L45.2,91.4l12.7-7A9.2613,9.2613,0,0,1,66,84L77.8,94Z" style="fill:none;stroke:#000;stroke-linecap:round;stroke-linejoin:round;stroke-width:6px"/><path d="M120.9,104a9.2613,9.2613,0,0,1-8.1.4L99.4,95.2l12.7-7.1a9.2613,9.2613,0,0,1,8.1-.4l11.8,10Z" style="fill:none;stroke:#000;stroke-linecap:round;stroke-linejoin:round;stroke-width:6px"/><path d="M74.5,128a9.2613,9.2613,0,0,0,8.1.4L96,119.2l-12.7-7.1a9.2613,9.2613,0,0,0-8.1-.4l-11.8,10Z" style="fill:none;stroke:#000;stroke-linecap:round;stroke-linejoin:round;stroke-width:6px"/><rect width="144" height="144" style="fill:none"/></svg>