<svg xmlns="http://www.w3.org/2000/svg" viewBox="0 0 144 144"><path d="M111,63A23.9424,23.9424,0,0,0,87,39H51A23.9424,23.9424,0,0,0,27,63V99a23.9424,23.9424,0,0,0,24,24H87a23.9424,23.9424,0,0,0,24-24Z" style="fill:none;stroke:#000;stroke-linecap:round;stroke-linejoin:round;stroke-width:6px"/><line x1="45" y1="39.8" x2="45" y2="3" style="fill:none;stroke:#000;stroke-linecap:round;stroke-linejoin:round;stroke-width:6px"/><line x1="93" y1="39.8" x2="93" y2="3" style="fill:none;stroke:#000;stroke-linecap:round;stroke-linejoin:round;stroke-width:6px"/><path d="M61.6,54c8.9,6.5,8.4,19.2,4.9,24.5-2.4-2-4.5-4.1-4.9-7.4-8.2,3.2-12.3,9.7-12.3,17.2a19.6,19.6,0,1,0,39.2,0C88.6,72.5,77.2,57.6,61.6,54Z" style="fill:none;stroke:#000;stroke-linecap:round;stroke-linejoin:round;stroke-width:6px"/><path d="M21,141h96a18.0529,18.0529,0,0,0-18-18H39A18.0529,18.0529,0,0,0,21,141Z" style="fill:none;stroke:#000;stroke-linecap:round;stroke-linejoin:round;stroke-width:6px"/><line x1="30" y1="3" x2="108" y2="3" style="fill:none;stroke:#000;stroke-linecap:round;stroke-linejoin:round;stroke-width:6px"/><line x1="69" y1="39" x2="69" y2="21" style="fill:none;stroke:#000;stroke-linecap:round;stroke-linejoin:round;stroke-width:6px"/><line x1="60" y1="21" x2="78" y2="21" style="fill:none;stroke:#000;stroke-linecap:round;stroke-linejoin:round;stroke-width:6px"/><rect width="144" height="144" style="fill:none"/></svg>