<svg xmlns="http://www.w3.org/2000/svg" viewBox="0 0 144 144"><rect x="3" y="69" width="138" height="72" style="fill:none;stroke:#000;stroke-linejoin:round;stroke-width:6px"/><rect x="33" y="99" width="78" height="42" style="fill:none;stroke:#000;stroke-linejoin:round;stroke-width:6px"/><path d="M95.5,3.5c7.8,5.8,7.4,16.9,4.3,21.6-2.1-1.7-4-3.6-4.3-6.5-7.2,2.9-10.8,8.5-10.8,15.1a17.3,17.3,0,0,0,34.6,0C119.3,19.8,109.2,6.7,95.5,3.5Z" style="fill:none;stroke:#000;stroke-linejoin:round;stroke-width:6px"/><rect x="81" y="57" width="42" height="12" style="fill:none;stroke:#000;stroke-linejoin:round;stroke-width:6px"/><path d="M35.5,3.5c7.8,5.8,7.4,16.9,4.3,21.6-2.1-1.7-4-3.6-4.3-6.5-7.2,2.9-10.8,8.5-10.8,15.1a17.3,17.3,0,1,0,34.6,0C59.3,19.8,49.2,6.7,35.5,3.5Z" style="fill:none;stroke:#000;stroke-linejoin:round;stroke-width:6px"/><rect x="21" y="57" width="42" height="12" style="fill:none;stroke:#000;stroke-linejoin:round;stroke-width:6px"/><line x1="54" y1="111" x2="90" y2="111" style="fill:none;stroke:#000;stroke-linecap:round;stroke-linejoin:round;stroke-width:6px"/><circle cx="42" cy="84" r="6" style="fill:none;stroke:#000;stroke-linejoin:round;stroke-width:6px"/><circle cx="102" cy="84" r="6" style="fill:none;stroke:#000;stroke-linejoin:round;stroke-width:6px"/><rect width="144" height="144" style="fill:none"/></svg>