<svg xmlns="http://www.w3.org/2000/svg" viewBox="0 0 144 144"><path d="M39.6,109.1,22,84.7c-3.9-5.4-7-15.1-7-21.7V60a57,57,0,0,1,114,0v3c0,6.6-3.1,16.4-6.9,21.8l-16.9,24.1" style="fill:none;stroke:#000;stroke-linejoin:round;stroke-width:6px"/><circle cx="72" cy="108" r="33" style="fill:none;stroke:#000;stroke-linejoin:round;stroke-width:6px"/><circle cx="72" cy="90" r="3" style="fill:none;stroke:#000;stroke-linejoin:round;stroke-width:6px"/><circle cx="90" cy="108" r="3" style="fill:none;stroke:#000;stroke-linejoin:round;stroke-width:6px"/><circle cx="72" cy="126" r="3" style="fill:none;stroke:#000;stroke-linejoin:round;stroke-width:6px"/><circle cx="54" cy="108" r="3" style="fill:none;stroke:#000;stroke-linejoin:round;stroke-width:6px"/><circle cx="72" cy="108" r="3" style="fill:none;stroke:#000;stroke-linejoin:round;stroke-width:6px"/><circle cx="48" cy="48" r="15" style="fill:none;stroke:#000;stroke-linejoin:round;stroke-width:6px"/><circle cx="96" cy="48" r="15" style="fill:none;stroke:#000;stroke-linejoin:round;stroke-width:6px"/><path d="M39.6,109.1,22,84.7c-3.9-5.4-7-15.1-7-21.7V60a57,57,0,0,1,114,0v3c0,6.6-3.1,16.4-6.9,21.8l-16.9,24.1" style="fill:none;stroke:#000;stroke-linejoin:round;stroke-width:6px"/><circle cx="72" cy="108" r="33" style="fill:none;stroke:#000;stroke-linejoin:round;stroke-width:6px"/><circle cx="72" cy="90" r="3" style="fill:none;stroke:#000;stroke-linejoin:round;stroke-width:6px"/><circle cx="90" cy="108" r="3" style="fill:none;stroke:#000;stroke-linejoin:round;stroke-width:6px"/><circle cx="72" cy="126" r="3" style="fill:none;stroke:#000;stroke-linejoin:round;stroke-width:6px"/><circle cx="54" cy="108" r="3" style="fill:none;stroke:#000;stroke-linejoin:round;stroke-width:6px"/><circle cx="72" cy="108" r="3" style="fill:none;stroke:#000;stroke-linejoin:round;stroke-width:6px"/><circle cx="48" cy="48" r="15" style="fill:none;stroke:#000;stroke-linejoin:round;stroke-width:6px"/><circle cx="96" cy="48" r="15" style="fill:none;stroke:#000;stroke-linejoin:round;stroke-width:6px"/><rect width="144" height="144" style="fill:none"/></svg>