<svg xmlns="http://www.w3.org/2000/svg" viewBox="0 0 144 144"><path d="M15,51h0A23.9211,23.9211,0,0,0,39,74.9l84,.1" style="fill:none;stroke:#000;stroke-linecap:round;stroke-linejoin:round;stroke-width:6px"/><line x1="51" y1="99" x2="51" y2="51" style="fill:none;stroke:#000;stroke-linecap:round;stroke-linejoin:round;stroke-width:6px"/><line x1="87" y1="99" x2="87" y2="51" style="fill:none;stroke:#000;stroke-linecap:round;stroke-linejoin:round;stroke-width:6px"/><line x1="123" y1="99" x2="123" y2="51" style="fill:none;stroke:#000;stroke-linecap:round;stroke-linejoin:round;stroke-width:6px"/><path d="M9,27.9V3h6c5.1,0,5.9,2.8,5.9,6.2S20,15,15,15H9" style="fill:none;stroke:#000;stroke-linecap:round;stroke-linejoin:round;stroke-width:6px"/><line x1="15" y1="15.4" x2="20.9" y2="27.9" style="fill:none;stroke:#000;stroke-linecap:round;stroke-linejoin:round;stroke-width:6px"/><polyline points="51 27 51 3 45 6" style="fill:none;stroke:#000;stroke-linecap:round;stroke-linejoin:round;stroke-width:6px"/><polyline points="87 141 87 116.1 75 131.9 90 131.9" style="fill:none;stroke:#000;stroke-linecap:round;stroke-linejoin:round;stroke-width:6px"/><path d="M123.5,126.3c5.5,0,6.5,4.7,6.5,7.3s-1,7.4-6.5,7.4-6.5-4.7-6.5-7.4C117,131,118,126.3,123.5,126.3Z" style="fill:none;stroke:#000;stroke-linecap:round;stroke-linejoin:round;stroke-width:6px"/><path d="M126.6,115.8c-8.2,0-9.6,7-9.6,10.9v6.9" style="fill:none;stroke:#000;stroke-linecap:round;stroke-linejoin:round;stroke-width:6px"/><path d="M127.8,3H117V15h5.4c4.6,0,5.4,3.8,5.4,6s-.8,6-5.4,6H117" style="fill:none;stroke:#000;stroke-linecap:round;stroke-linejoin:round;stroke-width:6px"/><path d="M46.2,122.3a5.8705,5.8705,0,0,1,5.9-5.7,5.9976,5.9976,0,0,1,6,5.9A6.5281,6.5281,0,0,1,57,126L46.2,141H58.1" style="fill:none;stroke:#000;stroke-linecap:round;stroke-linejoin:round;stroke-width:6px"/><path d="M81.1,9c.1-2.3,1.2-6,5.9-6,5.1,0,6,4.1,6,6.4s-.9,6.4-6,6.4" style="fill:none;stroke:#000;stroke-linecap:round;stroke-linejoin:round;stroke-width:6px"/><path d="M81.1,22.5c.1,2.3,1.2,5.9,5.9,5.9,5.1,0,6-4.1,6-6.4s-.9-6.4-6-6.4" style="fill:none;stroke:#000;stroke-linecap:round;stroke-linejoin:round;stroke-width:6px"/><rect width="144" height="144" style="fill:none"/></svg>