<svg xmlns="http://www.w3.org/2000/svg" viewBox="0 0 144 144"><path d="M48,39v9c-6,0-3,12,0,12a22.5,22.5,0,0,0,9,18V96c-24,9-45.6,14.3-48,24-6,12-6,21-6,21H141s0-9-6-21c-2.4-9.7-24-15-48-24V78a22.5,22.5,0,0,0,9-18c3,0,6-12,0-12V39" style="fill:none;stroke:#000;stroke-linejoin:round;stroke-width:6px"/><line x1="33" y1="39" x2="111" y2="39" style="fill:none;stroke:#000;stroke-linecap:round;stroke-linejoin:round;stroke-width:6px"/><path d="M45,39,57,6l7.3,4.4c4.2,2.5,11.2,2.5,15.4,0L87,6,99,39" style="fill:none;stroke:#000;stroke-linecap:round;stroke-linejoin:round;stroke-width:6px"/><polygon points="72 102 62.5 110.3 72 120 81.6 110.4 72 102" style="fill:none;stroke:#000;stroke-linejoin:round;stroke-width:6px"/><polygon points="72 120 63 141 81 141 72 120" style="fill:none;stroke:#000;stroke-linejoin:round;stroke-width:6px"/><line x1="57" y1="141" x2="44.5" y2="100.3" style="fill:none;stroke:#000;stroke-linejoin:round;stroke-width:6px"/><line x1="87" y1="141" x2="99.5" y2="100.3" style="fill:none;stroke:#000;stroke-linejoin:round;stroke-width:6px"/><line x1="72" y1="102" x2="57" y2="96" style="fill:none;stroke:#000;stroke-linejoin:round;stroke-width:6px"/><line x1="72" y1="102" x2="87" y2="96" style="fill:none;stroke:#000;stroke-linejoin:round;stroke-width:6px"/><line x1="108" y1="129" x2="123" y2="129" style="fill:none;stroke:#000;stroke-linejoin:round;stroke-width:6px"/><line x1="72" y1="102" x2="50.7" y2="120.5" style="fill:none;stroke:#000;stroke-linejoin:round;stroke-width:6px"/><line x1="72" y1="102" x2="93.3" y2="120.5" style="fill:none;stroke:#000;stroke-linejoin:round;stroke-width:6px"/><path d="M72,102" style="fill:none;stroke:#000;stroke-linejoin:round;stroke-width:6px"/><rect width="144" height="144" style="fill:none"/></svg>