<svg xmlns="http://www.w3.org/2000/svg" viewBox="0 0 144 144"><path d="M39,87v30a12,12,0,0,0,24,0V87" style="fill:none;stroke:#000;stroke-linecap:round;stroke-linejoin:round;stroke-width:6px"/><line x1="33" y1="87" x2="69" y2="87" style="fill:none;stroke:#000;stroke-linecap:round;stroke-linejoin:round;stroke-width:6px"/><line x1="51" y1="87" x2="51" y2="111" style="fill:none;stroke:#000;stroke-linecap:round;stroke-linejoin:round;stroke-width:6px"/><path d="M63,117l12,3c12,3,13.5,3,17.8,3A26.9738,26.9738,0,0,0,117,108l21-42L111.9,87.8A7.5661,7.5661,0,0,1,99,82.5a7.8328,7.8328,0,0,1,1.5-4.5L116,56.2a3.0294,3.0294,0,0,0,1-2.2,2.9465,2.9465,0,0,0-3-3,2.7667,2.7667,0,0,0-1.6.5L99,57V51a39,39,0,0,0-78,0v6L7.7,51.5A3.3711,3.3711,0,0,0,6,51a2.9465,2.9465,0,0,0-3,3,2.7919,2.7919,0,0,0,.6,1.8L21,78a39.1827,39.1827,0,0,0,18,32.9" style="fill:none;stroke:#000;stroke-linecap:round;stroke-linejoin:round;stroke-width:6px"/><line x1="60" y1="57" x2="78" y2="45" style="fill:none;stroke:#000;stroke-linecap:round;stroke-linejoin:round;stroke-width:6px"/><line x1="48" y1="57" x2="30" y2="45" style="fill:none;stroke:#000;stroke-linecap:round;stroke-linejoin:round;stroke-width:6px"/><line x1="69" y1="51" x2="69" y2="63" style="fill:none;stroke:#000;stroke-linecap:round;stroke-linejoin:round;stroke-width:6px"/><line x1="39" y1="51" x2="39" y2="63" style="fill:none;stroke:#000;stroke-linecap:round;stroke-linejoin:round;stroke-width:6px"/><rect width="144" height="144" style="fill:none"/></svg>