<svg xmlns="http://www.w3.org/2000/svg" viewBox="0 0 144 144"><rect x="3" y="87" width="24" height="48" style="fill:none;stroke:#000;stroke-linejoin:round;stroke-width:6px"/><path d="M27,126c64.4,21.5,40.6,21.7,114-15-6.4-6.4-11.4-7.9-18-6l-26.6,8.8" style="fill:none;stroke:#000;stroke-linecap:round;stroke-linejoin:round;stroke-width:6px"/><path d="M27,93H45c14.1,0,24,9,27,12H90c9.6,0,9.6,12,0,12H57" style="fill:none;stroke:#000;stroke-linecap:round;stroke-linejoin:round;stroke-width:6px"/><polyline points="81 45 63 45 63 81 123 81 123 45 99 45" style="fill:none;stroke:#000;stroke-linecap:round;stroke-linejoin:round;stroke-width:6px"/><rect x="57" y="27" width="72" height="18" style="fill:none;stroke:#000;stroke-linecap:round;stroke-linejoin:round;stroke-width:6px"/><line x1="93" y1="81" x2="93" y2="27" style="fill:none;stroke:#000;stroke-linecap:round;stroke-linejoin:round;stroke-width:6px"/><path d="M110.1,18.5c-5.3,5.3-17,8.5-17,8.5s3.2-11.7,8.5-17,8.3-4.5,10.6-2.1S115.3,13.2,110.1,18.5Z" style="fill:none;stroke:#000;stroke-linecap:round;stroke-linejoin:round;stroke-width:6px"/><path d="M75.9,18.5c5.3,5.3,17,8.5,17,8.5s-3.2-11.7-8.5-17S76.1,5.5,73.8,7.9C71.5,10.2,70.7,13.2,75.9,18.5Z" style="fill:none;stroke:#000;stroke-linecap:round;stroke-linejoin:round;stroke-width:6px"/><rect width="144" height="144" style="fill:none"/></svg>