<svg xmlns="http://www.w3.org/2000/svg" viewBox="0 0 144 144.0932"><path d="M128.1,57h-35a33.68,33.68,0,0,0,9.1-22.7C102.2,17.6,88.7,3.5,72,3.5S41.8,18,41.8,34.6A32.94,32.94,0,0,0,50.9,57h-35C8.8,57,3,61.9,3,69S8.8,81,15.9,81H47.5l-9.7,44.5a12.8325,12.8325,0,0,0,9.9,15.3,13.01,13.01,0,0,0,15.4-9.9l3.4-15.7s1.2-8.6,5.5-8.6,5.5,8.6,5.5,8.6l3.4,15.7a12.9336,12.9336,0,0,0,15.4,9.9,12.7321,12.7321,0,0,0,9.9-15.2L96.5,81h31.6c7.1,0,12.9-4.9,12.9-12S135.2,57,128.1,57Z" style="fill:none;stroke:#000;stroke-linejoin:round;stroke-width:6px"/><circle cx="60" cy="27" r="3" style="fill:none;stroke:#000;stroke-linejoin:round;stroke-width:6px"/><circle cx="84" cy="27" r="3" style="fill:none;stroke:#000;stroke-linejoin:round;stroke-width:6px"/><circle cx="72" cy="69" r="3" style="fill:none;stroke:#000;stroke-linejoin:round;stroke-width:6px"/><circle cx="72" cy="87" r="3" style="fill:none;stroke:#000;stroke-linejoin:round;stroke-width:6px"/><line x1="123" y1="57" x2="123" y2="81" style="fill:none;stroke:#000;stroke-linejoin:round;stroke-width:6px"/><line x1="21" y1="57" x2="21" y2="81" style="fill:none;stroke:#000;stroke-linejoin:round;stroke-width:6px"/><line x1="64.7" y1="123.5" x2="39.6" y2="117.1" style="fill:none;stroke:#000;stroke-linejoin:round;stroke-width:6px"/><line x1="79.3" y1="123.5" x2="104.4" y2="117.2" style="fill:none;stroke:#000;stroke-linejoin:round;stroke-width:6px"/><rect width="144" height="144" style="fill:none"/></svg>