<svg xmlns="http://www.w3.org/2000/svg" viewBox="0 0 144 144"><path d="M63,105a9,9,0,0,1,18,0" style="fill:none;stroke:#000;stroke-linejoin:round;stroke-width:6px"/><path d="M15,99V30a8.9626,8.9626,0,0,1,9-9" style="fill:none;stroke:#000;stroke-linecap:round;stroke-linejoin:round;stroke-width:6px"/><path d="M129,99V30a8.9626,8.9626,0,0,0-9-9" style="fill:none;stroke:#000;stroke-linecap:round;stroke-linejoin:round;stroke-width:6px"/><path d="M63,117a12.0353,12.0353,0,0,1-12,12H27a12.0353,12.0353,0,0,1-12-12V99A12.0353,12.0353,0,0,1,27,87H51A12.0353,12.0353,0,0,1,63,99Z" style="fill:none;stroke:#000;stroke-linejoin:round;stroke-width:6px"/><path d="M129,117a12.0353,12.0353,0,0,1-12,12H93a12.0353,12.0353,0,0,1-12-12V99A12.0353,12.0353,0,0,1,93,87h24a12.0353,12.0353,0,0,1,12,12Z" style="fill:none;stroke:#000;stroke-linejoin:round;stroke-width:6px"/><rect width="144" height="144" style="fill:none"/></svg>