<svg xmlns="http://www.w3.org/2000/svg" viewBox="0 0 144 144"><path d="M9,66s1,33.1,9.6,37.4c9.6,4.8,31.2,4.8,31.2,4.8,9.6,0,8.5-24.2,22.7-24.2s13.1,24.2,22.7,24.2c0,0,20.5,0,30.1-4.8C134,99.1,135,66,135,66,123,46.9,21,46.9,9,66Z" style="fill:none;stroke:#000;stroke-linejoin:round;stroke-width:6px"/><line x1="12" y1="63" x2="132" y2="63" style="fill:none;stroke:#000;stroke-linecap:round;stroke-linejoin:round;stroke-width:6px"/><line x1="9.6" y1="75" x2="134.4" y2="75" style="fill:none;stroke:#000;stroke-linecap:round;stroke-linejoin:round;stroke-width:6px"/><line x1="80" y1="87" x2="132.8" y2="87" style="fill:none;stroke:#000;stroke-linecap:round;stroke-linejoin:round;stroke-width:6px"/><line x1="11.2" y1="87" x2="65.1" y2="87" style="fill:none;stroke:#000;stroke-linecap:round;stroke-linejoin:round;stroke-width:6px"/><line x1="86.9" y1="99" x2="129.1" y2="99" style="fill:none;stroke:#000;stroke-linecap:round;stroke-linejoin:round;stroke-width:6px"/><line x1="14.8" y1="99" x2="58.2" y2="99" style="fill:none;stroke:#000;stroke-linecap:round;stroke-linejoin:round;stroke-width:6px"/><rect width="144" height="144" style="fill:none"/></svg>