<svg xmlns="http://www.w3.org/2000/svg" viewBox="0 0 144 144"><path d="M8.4,59.3s1,33.1,9.6,37.4c9.6,4.8,31.2,4.8,31.2,4.8,9.6,0,8.5-24.2,22.7-24.2S85,101.5,94.6,101.5c0,0,20.5,0,30.1-4.8,8.6-4.3,9.6-37.4,9.6-37.4C122.4,40.2,20.4,40.2,8.4,59.3Z" style="fill:none;stroke:#000;stroke-linejoin:round;stroke-width:6px"/><path d="M35.6,59.3c-6.1,1.4-10.6,3.4-12.3,6a101.08,101.08,0,0,0,1.1,11.1" style="fill:none;stroke:#000;stroke-linecap:round;stroke-linejoin:round;stroke-width:6px"/><path d="M107.3,59.3c6.1,1.4,10.6,3.4,12.3,6a101.08,101.08,0,0,1-1.1,11.1" style="fill:none;stroke:#000;stroke-linecap:round;stroke-linejoin:round;stroke-width:6px"/><rect width="144" height="144" style="fill:none"/></svg>