<svg xmlns="http://www.w3.org/2000/svg" viewBox="0 0 144 144"><path d="M63,72A27.015,27.015,0,0,1,36,99C21.1,99,12,86.9,12,72A14.98,14.98,0,0,1,27,57H54a8.9626,8.9626,0,0,1,9,9Z" style="fill:none;stroke:#000;stroke-linejoin:round;stroke-width:6px"/><path d="M81,72a27.015,27.015,0,0,0,27,27c14.9,0,24-12.1,24-27a14.98,14.98,0,0,0-15-15H90a8.9626,8.9626,0,0,0-9,9Z" style="fill:none;stroke:#000;stroke-linejoin:round;stroke-width:6px"/><path d="M3,63a6.0176,6.0176,0,0,1,6-6" style="fill:none;stroke:#000;stroke-linecap:round;stroke-linejoin:round;stroke-width:6px"/><path d="M141,63a6.0176,6.0176,0,0,0-6-6" style="fill:none;stroke:#000;stroke-linecap:round;stroke-linejoin:round;stroke-width:6px"/><path d="M63,66V60a9,9,0,0,1,18,0v6" style="fill:none;stroke:#000;stroke-linejoin:round;stroke-width:6px"/><rect width="144" height="144" style="fill:none"/></svg>