<svg xmlns="http://www.w3.org/2000/svg" viewBox="0 0 144 144"><circle cx="72" cy="48" r="42" style="fill:none;stroke:#000;stroke-linecap:round;stroke-linejoin:round;stroke-width:6px"/><path d="M74,6.1s5.8,8.4,3.2,16.1c-6.4,3.9-7.7,12.9-6.4,11.6s7.7,2.6,7.7,2.6c2.6,0,3.9-3.9,3.9-3.9,6.5,0,3.9,14.2,5.2,15.5s5.2-1.3,5.2,2.6A14.9988,14.9988,0,0,1,91.5,57c6.5,6.5,0,12.9-1.3,14.2s-9-1.3-10.3-2.6-1.3-3.9-2.6-5.2-6.4-1.3-6.4-1.3c-5.2-5.2-7.7,0-11.6,3.9s-9-1.3-9-1.3-9-9.1-3.9-16.8c5.2-7.8,7.8-5.2,7.8-5.2,5.2,0,7.7-7.8,10.3-10.3,0,0-7.7-10.3-9-6.4s-4.6,5.2-7.7,2.6c-4.4-3.7,4.8-17.7,4.8-17.7" style="fill:none;stroke:#000;stroke-linecap:round;stroke-linejoin:round;stroke-width:6px"/><line x1="42" y1="18" x2="27" y2="3" style="fill:none;stroke:#000;stroke-linecap:round;stroke-linejoin:round;stroke-width:6px"/><path d="M33,141c0-8.3,18.8-18,42-18s42,9.7,42,18Z" style="fill:none;stroke:#000;stroke-linecap:round;stroke-linejoin:round;stroke-width:6px"/><path d="M102,78l18,18c0,30-45,27-45,27" style="fill:none;stroke:#000;stroke-linecap:round;stroke-linejoin:round;stroke-width:6px"/><path d="M112.3,88.3A56.9928,56.9928,0,0,1,31.7,7.7" style="fill:none;stroke:#000;stroke-linecap:round;stroke-linejoin:round;stroke-width:6px"/><rect width="144" height="144" style="fill:none"/></svg>