<svg xmlns="http://www.w3.org/2000/svg" viewBox="0 0 144 144"><circle cx="72" cy="72" r="69" style="fill:none;stroke:#000;stroke-linecap:round;stroke-linejoin:round;stroke-width:6px"/><path d="M123,25.5S120,42,108,48c-12-3-24,6-21,6s6,12,6,12c3,3,9,0,9,0,7.5,7.5-12,21-12,24s7.5,4.5,3,9a25.7384,25.7384,0,0,1-9,6c0,15-15,15-18,15s-9-12-9-15,3-6,3-9-6-9-6-9c0-12-9-9-18-9s-9-12-9-12,0-21,15-24,15,3,15,3c6,6,18,0,24,0,0,0,3-21-3-18s-11.4.7-12-6C65.1,11.6,92.2,6,92.2,6" style="fill:none;stroke:#000;stroke-linecap:round;stroke-linejoin:round;stroke-width:6px"/><rect width="144" height="144" style="fill:none"/></svg>