<svg xmlns="http://www.w3.org/2000/svg" viewBox="0 0 144.6 144.6"><polyline points="123.6 90.3 141.6 72.3 123.6 54.3" style="fill:none;stroke:#000;stroke-linecap:round;stroke-linejoin:round;stroke-width:6px"/><polyline points="54.3 123.6 72.3 141.6 90.3 123.6" style="fill:none;stroke:#000;stroke-linecap:round;stroke-linejoin:round;stroke-width:6px"/><polyline points="21 54.3 3 72.3 21 90.3" style="fill:none;stroke:#000;stroke-linecap:round;stroke-linejoin:round;stroke-width:6px"/><polyline points="90.3 21 72.3 3 54.3 21" style="fill:none;stroke:#000;stroke-linecap:round;stroke-linejoin:round;stroke-width:6px"/><path d="M111,71.9A39.0927,39.0927,0,0,1,71.9,111C50.3,111,33,92.8,33,71.1c0-21,16.5-37.2,37.3-38.1H72A38.774,38.774,0,0,1,111,71.9Z" style="fill:none;stroke:#000;stroke-linejoin:round;stroke-width:6px"/><path d="M70.3,33C50,55.1,50,83.8,70.3,111" style="fill:none;stroke:#000;stroke-linejoin:round;stroke-width:6px"/><path d="M73.7,33c20.4,22,20.4,50.8,0,77.9" style="fill:none;stroke:#000;stroke-linejoin:round;stroke-width:6px"/><line x1="38.7" y1="51" x2="105" y2="51" style="fill:none;stroke:#000;stroke-linejoin:round;stroke-width:6px"/><line x1="33" y1="69" x2="110.9" y2="69" style="fill:none;stroke:#000;stroke-linejoin:round;stroke-width:6px"/><line x1="39.4" y1="93" x2="104.8" y2="93" style="fill:none;stroke:#000;stroke-linejoin:round;stroke-width:6px"/><rect width="144" height="144" style="fill:none"/></svg>