<svg xmlns="http://www.w3.org/2000/svg" viewBox="0 0 144 144"><polyline points="141 90 141 105 126 105" style="fill:none;stroke:#000;stroke-linecap:round;stroke-linejoin:round;stroke-width:6px"/><path d="M87,105c3.7-10.5,15.2-18,27-18s23.3,7.5,27,18" style="fill:none;stroke:#000;stroke-linecap:round;stroke-linejoin:round;stroke-width:6px"/><polyline points="87 138 87 123 102 123" style="fill:none;stroke:#000;stroke-linecap:round;stroke-linejoin:round;stroke-width:6px"/><path d="M141,123c-3.7,10.5-15.2,18-27,18s-23.3-7.5-27-18" style="fill:none;stroke:#000;stroke-linecap:round;stroke-linejoin:round;stroke-width:6px"/><path d="M72,141a69,69,0,1,1,69-69" style="fill:none;stroke:#000;stroke-linecap:round;stroke-linejoin:round;stroke-width:6px"/><polyline points="57 105 57 90 27 66 40.5 45 75 45 75 27 66 21 92.2 6" style="fill:none;stroke:#000;stroke-linecap:round;stroke-linejoin:round;stroke-width:6px"/><polyline points="123 25.5 112.5 45 102 45 91.5 55.5" style="fill:none;stroke:#000;stroke-linecap:round;stroke-linejoin:round;stroke-width:6px"/><rect width="144" height="144" style="fill:none"/></svg>