<svg xmlns="http://www.w3.org/2000/svg" viewBox="0 0 144 144"><path d="M141,71.7A69.2446,69.2446,0,0,1,71.8,141C33.6,141,3,108.8,3,70.5,3,33.3,32.2,4.5,69,3.1,70,3,71,3,72,3A68.6273,68.6273,0,0,1,141,71.7Z" style="fill:none;stroke:#000;stroke-linejoin:round;stroke-width:6px"/><path d="M69,3.1C33,42.1,33,93,69,141" style="fill:none;stroke:#000;stroke-linejoin:round;stroke-width:6px"/><path d="M75,3.1c36,39,36,89.9,0,137.9" style="fill:none;stroke:#000;stroke-linejoin:round;stroke-width:6px"/><line x1="14.3" y1="33" x2="129.1" y2="33" style="fill:none;stroke:#000;stroke-linejoin:round;stroke-width:6px"/><line x1="3" y1="69" x2="141" y2="69" style="fill:none;stroke:#000;stroke-linejoin:round;stroke-width:6px"/><line x1="11.9" y1="105" x2="132.5" y2="105" style="fill:none;stroke:#000;stroke-linejoin:round;stroke-width:6px"/><rect width="144" height="144" style="fill:none"/></svg>