<svg xmlns="http://www.w3.org/2000/svg" viewBox="0 0 144 144"><polyline points="93 121.3 93 141 33 141 33 121.3" style="fill:none;stroke:#000;stroke-linejoin:round;stroke-width:6px"/><polyline points="27 30 48 21 63 30 78 21 99 30" style="fill:none;stroke:#000;stroke-linejoin:round;stroke-width:6px"/><polyline points="27 54 48 45 63 54 78 45 99 54" style="fill:none;stroke:#000;stroke-linecap:round;stroke-linejoin:round;stroke-width:6px"/><polyline points="27 78 48 69 63 78 78 69 99 78 114 69 120 72" style="fill:none;stroke:#000;stroke-linejoin:round;stroke-width:6px"/><polyline points="27 102 48 93 63 102 78 93 99 102" style="fill:none;stroke:#000;stroke-linejoin:round;stroke-width:6px"/><path d="M27,110.8A12.2083,12.2083,0,0,0,39,123H87a12.1874,12.1874,0,0,0,12-12.1V98.4l24.5-31.9a12.1468,12.1468,0,0,0-4.3-17.3c-4.9-2.8-11.1-1.4-15,2.6L99,57V36C99,17.8,81.2,3,63,3S27,17.8,27,33Z" style="fill:none;stroke:#000;stroke-linecap:round;stroke-linejoin:round;stroke-width:6px"/><rect width="144" height="144" style="fill:none"/></svg>