<svg xmlns="http://www.w3.org/2000/svg" viewBox="0 0 144 144"><path d="M57,76.9a12,12,0,1,0,12-12,12,12,0,1,1,12-12" style="fill:none;stroke:#000;stroke-linecap:round;stroke-linejoin:round;stroke-width:6px"/><line x1="69" y1="33" x2="69" y2="99" style="fill:none;stroke:#000;stroke-linecap:round;stroke-linejoin:round;stroke-width:6px"/><path d="M5.6,89.5C18.9,102.4,42.3,111,69,111s50.1-8.6,63.4-21.5" style="fill:none;stroke:#000;stroke-linecap:round;stroke-linejoin:round;stroke-width:6px"/><path d="M105.1,105.3C123.7,74,93.1,3,69,3S14.3,73.9,32.9,105.3" style="fill:none;stroke:#000;stroke-linecap:round;stroke-linejoin:round;stroke-width:6px"/><path d="M27.3,74.7C12.5,79.6,3,87.8,3,99c0,27,29.6,42,66,42s66-15,66-42c0-11.2-9.5-19.4-24.3-24.3" style="fill:none;stroke:#000;stroke-linecap:round;stroke-linejoin:round;stroke-width:6px"/><rect width="144" height="144" style="fill:none"/></svg>