<svg xmlns="http://www.w3.org/2000/svg" viewBox="0 0 144 144"><circle cx="72" cy="72" r="39" style="fill:none;stroke:#000;stroke-linecap:round;stroke-linejoin:round;stroke-width:6px"/><path d="M72,64.5a13.5,13.5,0,0,0-27,0v15a13.5,13.5,0,0,0,27,0" style="fill:none;stroke:#000;stroke-linecap:round;stroke-linejoin:round;stroke-width:6px"/><path d="M72,79.5a13.5,13.5,0,0,0,27,0v-15a13.5,13.5,0,0,0-27,0" style="fill:none;stroke:#000;stroke-linecap:round;stroke-linejoin:round;stroke-width:6px"/><line x1="57" y1="66" x2="57" y2="75" style="fill:none;stroke:#000;stroke-linecap:round;stroke-linejoin:round;stroke-width:6px"/><line x1="81" y1="66" x2="81" y2="75" style="fill:none;stroke:#000;stroke-linecap:round;stroke-linejoin:round;stroke-width:6px"/><circle cx="72" cy="72" r="48" style="fill:none;stroke:#000;stroke-linecap:round;stroke-linejoin:round;stroke-width:6px"/><polyline points="57 27 72 3 87 27" style="fill:none;stroke:#000;stroke-linejoin:round;stroke-width:6px"/><polyline points="57 117 72 141 87 117" style="fill:none;stroke:#000;stroke-linejoin:round;stroke-width:6px"/><polyline points="27 57 3 72 27 87" style="fill:none;stroke:#000;stroke-linejoin:round;stroke-width:6px"/><polyline points="117 57 141 72 117 87" style="fill:none;stroke:#000;stroke-linejoin:round;stroke-width:6px"/><polyline points="30 48 21 21 48 30" style="fill:none;stroke:#000;stroke-linejoin:round;stroke-width:6px"/><polyline points="96 30 123 21 114 48" style="fill:none;stroke:#000;stroke-linejoin:round;stroke-width:6px"/><polyline points="30 96 21 123 48 114" style="fill:none;stroke:#000;stroke-linejoin:round;stroke-width:6px"/><polyline points="96 114 123 123 114 96" style="fill:none;stroke:#000;stroke-linejoin:round;stroke-width:6px"/><rect width="144" height="144" style="fill:none"/></svg>