<svg xmlns="http://www.w3.org/2000/svg" viewBox="0 0 144 144"><path d="M111,66s30,51,30,54v9a12.0353,12.0353,0,0,1-12,12H114.7a13.46,13.46,0,0,0-1.6-17L72,87" style="fill:none;stroke:#000;stroke-linecap:round;stroke-linejoin:round;stroke-width:6px"/><path d="M58.5,111A10.4987,10.4987,0,0,1,69,121.5V141H91.5a4.4813,4.4813,0,0,0,4.5-4.5,4.3444,4.3444,0,0,0-2.5-4L89,128.3a4.5069,4.5069,0,0,1-2-3.7,4.3758,4.3758,0,0,1,.8-2.5l8.2-11" style="fill:none;stroke:#000;stroke-linecap:round;stroke-linejoin:round;stroke-width:6px"/><path d="M66,105,30,129l5.1,4.8a4.8451,4.8451,0,0,1,.9,2.7,4.4813,4.4813,0,0,1-4.5,4.5h-21A7.5546,7.5546,0,0,1,3,133.5a7.1376,7.1376,0,0,1,1.7-4.7L24,107.7A21.0507,21.0507,0,0,1,18,93c0-10.9,8.4-21.1,22-21a30.8339,30.8339,0,0,1-1-7.5A28.5515,28.5515,0,0,1,67.5,36H75c0-12.4,10.1-21,22.5-21a22.5444,22.5444,0,0,1,21.2,15H123a18,18,0,0,1,0,36H103.5A16.5163,16.5163,0,0,1,87,49.5C87,44.3,89.3,39,93,36V18" style="fill:none;stroke:#000;stroke-linecap:round;stroke-linejoin:round;stroke-width:6px"/><line x1="105" y1="33" x2="105" y2="39" style="fill:none;stroke:#000;stroke-linecap:round;stroke-linejoin:round;stroke-width:6px"/><line x1="138" y1="51" x2="120" y2="51" style="fill:none;stroke:#000;stroke-linecap:round;stroke-linejoin:round;stroke-width:6px"/><rect width="144" height="144" style="fill:none"/></svg>