<svg xmlns="http://www.w3.org/2000/svg" viewBox="0 0 144 144"><rect x="3" y="3" width="138" height="138" style="fill:none;stroke:#000;stroke-linejoin:round;stroke-width:6px"/><rect x="9" y="129" width="6" height="6" style="fill:none;stroke:#000;stroke-linejoin:round;stroke-width:6px"/><rect x="33" y="129" width="6" height="6" style="fill:none;stroke:#000;stroke-linejoin:round;stroke-width:6px"/><rect x="57" y="129" width="6" height="6" style="fill:none;stroke:#000;stroke-linejoin:round;stroke-width:6px"/><rect x="81" y="129" width="6" height="6" style="fill:none;stroke:#000;stroke-linejoin:round;stroke-width:6px"/><rect x="105" y="129" width="6" height="6" style="fill:none;stroke:#000;stroke-linejoin:round;stroke-width:6px"/><rect x="129" y="129" width="6" height="6" style="fill:none;stroke:#000;stroke-linejoin:round;stroke-width:6px"/><rect x="9" y="105" width="6" height="6" style="fill:none;stroke:#000;stroke-linejoin:round;stroke-width:6px"/><rect x="33" y="105" width="6" height="6" style="fill:none;stroke:#000;stroke-linejoin:round;stroke-width:6px"/><rect x="57" y="105" width="6" height="6" style="fill:none;stroke:#000;stroke-linejoin:round;stroke-width:6px"/><rect x="81" y="105" width="6" height="6" style="fill:none;stroke:#000;stroke-linejoin:round;stroke-width:6px"/><rect x="105" y="105" width="6" height="6" style="fill:none;stroke:#000;stroke-linejoin:round;stroke-width:6px"/><rect x="129" y="105" width="6" height="6" style="fill:none;stroke:#000;stroke-linejoin:round;stroke-width:6px"/><rect x="21" y="117" width="6" height="6" style="fill:none;stroke:#000;stroke-linejoin:round;stroke-width:6px"/><rect x="45" y="117" width="6" height="6" style="fill:none;stroke:#000;stroke-linejoin:round;stroke-width:6px"/><rect x="69" y="117" width="6" height="6" style="fill:none;stroke:#000;stroke-linejoin:round;stroke-width:6px"/><rect x="93" y="117" width="6" height="6" style="fill:none;stroke:#000;stroke-linejoin:round;stroke-width:6px"/><rect x="117" y="117" width="6" height="6" style="fill:none;stroke:#000;stroke-linejoin:round;stroke-width:6px"/><rect x="21" y="93" width="6" height="6" style="fill:none;stroke:#000;stroke-linejoin:round;stroke-width:6px"/><rect x="45" y="93" width="6" height="6" style="fill:none;stroke:#000;stroke-linejoin:round;stroke-width:6px"/><rect x="69" y="93" width="6" height="6" style="fill:none;stroke:#000;stroke-linejoin:round;stroke-width:6px"/><rect x="93" y="93" width="6" height="6" style="fill:none;stroke:#000;stroke-linejoin:round;stroke-width:6px"/><rect x="117" y="93" width="6" height="6" style="fill:none;stroke:#000;stroke-linejoin:round;stroke-width:6px"/><rect x="9" y="81" width="6" height="6" style="fill:none;stroke:#000;stroke-linejoin:round;stroke-width:6px"/><rect x="33" y="81" width="6" height="6" style="fill:none;stroke:#000;stroke-linejoin:round;stroke-width:6px"/><rect x="57" y="81" width="6" height="6" style="fill:none;stroke:#000;stroke-linejoin:round;stroke-width:6px"/><rect x="81" y="81" width="6" height="6" style="fill:none;stroke:#000;stroke-linejoin:round;stroke-width:6px"/><rect x="105" y="81" width="6" height="6" style="fill:none;stroke:#000;stroke-linejoin:round;stroke-width:6px"/><rect x="129" y="81" width="6" height="6" style="fill:none;stroke:#000;stroke-linejoin:round;stroke-width:6px"/><rect x="21" y="69" width="6" height="6" style="fill:none;stroke:#000;stroke-linejoin:round;stroke-width:6px"/><rect x="45" y="69" width="6" height="6" style="fill:none;stroke:#000;stroke-linejoin:round;stroke-width:6px"/><rect x="69" y="69" width="6" height="6" style="fill:none;stroke:#000;stroke-linejoin:round;stroke-width:6px"/><rect x="93" y="69" width="6" height="6" style="fill:none;stroke:#000;stroke-linejoin:round;stroke-width:6px"/><rect x="117" y="69" width="6" height="6" style="fill:none;stroke:#000;stroke-linejoin:round;stroke-width:6px"/><rect width="144" height="144" style="fill:none"/></svg>