<svg xmlns="http://www.w3.org/2000/svg" viewBox="0 0 144 144"><polyline points="141 135 3 135 3 15" style="fill:none;stroke:#000;stroke-linecap:round;stroke-linejoin:round;stroke-width:6px"/><path d="M77.2,96.1c1.1,6,2.7,20.9,18.8,20.9" style="fill:none;stroke:#000;stroke-linecap:round;stroke-linejoin:round;stroke-width:6px"/><path d="M18,117a18.0024,18.0024,0,0,0,17.7-14.8l7.2-39.4a14.3691,14.3691,0,0,1,22.8-8.9" style="fill:none;stroke:#000;stroke-linecap:round;stroke-linejoin:round;stroke-width:6px"/><path d="M48,117a18.0024,18.0024,0,0,0,17.7-14.8l7.2-39.4c2.8-15.7,25.4-15.7,28.3,0l7.2,39.4A18.0983,18.0983,0,0,0,126.1,117" style="fill:none;stroke:#000;stroke-linecap:round;stroke-linejoin:round;stroke-width:6px"/><rect width="144" height="144" style="fill:none"/></svg>