<svg xmlns="http://www.w3.org/2000/svg" viewBox="0 0 144 144"><path d="M129,123a12.0353,12.0353,0,0,1-12,12H21A12.0353,12.0353,0,0,1,9,123V21A12.0353,12.0353,0,0,1,21,9h96a12.0353,12.0353,0,0,1,12,12Z" style="fill:none;stroke:#000;stroke-linejoin:round;stroke-width:6px"/><polyline points="9 87 39 54 69 68.4 99 44.4 129 36" style="fill:none;stroke:#000;stroke-linejoin:round;stroke-width:6px"/><line x1="39" y1="54" x2="39" y2="135" style="fill:none;stroke:#000;stroke-linejoin:round;stroke-width:6px"/><line x1="69" y1="68.4" x2="69" y2="135" style="fill:none;stroke:#000;stroke-linejoin:round;stroke-width:6px"/><line x1="99" y1="44.4" x2="99" y2="135" style="fill:none;stroke:#000;stroke-linejoin:round;stroke-width:6px"/><line x1="9" y1="87" x2="129" y2="87" style="fill:none;stroke:#000;stroke-linejoin:round;stroke-width:6px"/><line x1="75.7" y1="63" x2="129" y2="63" style="fill:none;stroke:#000;stroke-linecap:round;stroke-linejoin:round;stroke-width:6px"/><line x1="9" y1="111" x2="129" y2="111" style="fill:none;stroke:#000;stroke-linejoin:round;stroke-width:6px"/><rect width="144" height="144" style="fill:none"/></svg>