<svg xmlns="http://www.w3.org/2000/svg" viewBox="0 0 144 144"><path d="M117,27a6.0176,6.0176,0,0,0-6-6A12.0353,12.0353,0,0,0,99,33a18.0529,18.0529,0,0,0,18,18,24,24,0,0,0,0-48H27a24,24,0,0,0,0,48A18.0529,18.0529,0,0,0,45,33,12.0353,12.0353,0,0,0,33,21a6.0176,6.0176,0,0,0-6,6" style="fill:none;stroke:#000;stroke-linecap:round;stroke-linejoin:round;stroke-width:6px"/><line x1="45" y1="45" x2="45" y2="141" style="fill:none;stroke:#000;stroke-linecap:round;stroke-linejoin:round;stroke-width:6px"/><line x1="99" y1="45" x2="99" y2="141" style="fill:none;stroke:#000;stroke-linecap:round;stroke-linejoin:round;stroke-width:6px"/><line x1="63" y1="45" x2="63" y2="141" style="fill:none;stroke:#000;stroke-linecap:round;stroke-linejoin:round;stroke-width:6px"/><line x1="81" y1="45" x2="81" y2="141" style="fill:none;stroke:#000;stroke-linecap:round;stroke-linejoin:round;stroke-width:6px"/><line x1="40.3" y1="45" x2="103.7" y2="45" style="fill:none;stroke:#000;stroke-linejoin:round;stroke-width:6px"/><line x1="45" y1="33" x2="99" y2="33" style="fill:none;stroke:#000;stroke-linecap:round;stroke-linejoin:round;stroke-width:6px"/><rect width="144" height="144" style="fill:none"/></svg>