<svg xmlns="http://www.w3.org/2000/svg" viewBox="0 0 144 144"><path d="M131.4,132.7l6-10.4-6-3.5a19.9021,19.9021,0,0,0,0-9.7l6-3.5-6-10.4-6,3.5a21.9532,21.9532,0,0,0-8.4-4.8v-7H105v7a21.9532,21.9532,0,0,0-8.4,4.8l-6-3.5-6,10.4,6,3.5a19.9021,19.9021,0,0,0,0,9.7l-6,3.5,6,10.4,6-3.5A21.9532,21.9532,0,0,0,105,134v7h12v-7a21.9532,21.9532,0,0,0,8.4-4.8Z" style="fill:none;stroke:#000;stroke-linejoin:round;stroke-width:6px"/><circle cx="111" cy="114" r="9" style="fill:none;stroke:#000;stroke-linejoin:round;stroke-width:6px"/><path d="M72,117H15A12.0353,12.0353,0,0,1,3,105V15A12.0353,12.0353,0,0,1,15,3H99a12.0353,12.0353,0,0,1,12,12V72.1" style="fill:none;stroke:#000;stroke-linecap:round;stroke-linejoin:round;stroke-width:6px"/><line x1="3" y1="39" x2="111" y2="39" style="fill:none;stroke:#000;stroke-linecap:round;stroke-linejoin:round;stroke-width:6px"/><line x1="3" y1="81" x2="75" y2="81" style="fill:none;stroke:#000;stroke-linecap:round;stroke-linejoin:round;stroke-width:6px"/><line x1="75" y1="3" x2="75" y2="81" style="fill:none;stroke:#000;stroke-linecap:round;stroke-linejoin:round;stroke-width:6px"/><line x1="39" y1="3" x2="39" y2="117" style="fill:none;stroke:#000;stroke-linecap:round;stroke-linejoin:round;stroke-width:6px"/><rect width="144" height="144" style="fill:none"/></svg>