<svg xmlns="http://www.w3.org/2000/svg" viewBox="0 0 144 144"><path d="M69,117H15A12.0353,12.0353,0,0,1,3,105V15A12.0353,12.0353,0,0,1,15,3H99a12.0353,12.0353,0,0,1,12,12V66" style="fill:none;stroke:#000;stroke-linecap:round;stroke-linejoin:round;stroke-width:6px"/><line x1="3" y1="39" x2="111" y2="39" style="fill:none;stroke:#000;stroke-linecap:round;stroke-linejoin:round;stroke-width:6px"/><line x1="3" y1="81" x2="75" y2="81" style="fill:none;stroke:#000;stroke-linecap:round;stroke-linejoin:round;stroke-width:6px"/><line x1="75" y1="3" x2="75" y2="81" style="fill:none;stroke:#000;stroke-linecap:round;stroke-linejoin:round;stroke-width:6px"/><line x1="39" y1="3" x2="39" y2="117" style="fill:none;stroke:#000;stroke-linecap:round;stroke-linejoin:round;stroke-width:6px"/><path d="M105,87v27a9,9,0,0,0,18,0V87h18v27a27,27,0,0,1-54,0V87Z" style="fill:none;stroke:#000;stroke-linecap:round;stroke-linejoin:round;stroke-width:6px"/><line x1="87" y1="105" x2="105" y2="105" style="fill:none;stroke:#000;stroke-linejoin:round;stroke-width:6px"/><line x1="123" y1="105" x2="141" y2="105" style="fill:none;stroke:#000;stroke-linejoin:round;stroke-width:6px"/><rect width="144" height="144" style="fill:none"/></svg>