<svg xmlns="http://www.w3.org/2000/svg" viewBox="0 0 144 144"><path d="M117,24a8.9626,8.9626,0,0,1-9,9H42a9,9,0,0,1,0-18h66A8.9626,8.9626,0,0,1,117,24Z" style="fill:none;stroke:#000;stroke-linecap:round;stroke-miterlimit:10;stroke-width:6px"/><line x1="75" y1="45" x2="75" y2="141" style="fill:none;stroke:#000;stroke-linecap:round;stroke-miterlimit:10;stroke-width:6px"/><path d="M45,39a6.0176,6.0176,0,0,0,6,6H99a6.0176,6.0176,0,0,0,6-6V33H45Z" style="fill:none;stroke:#000;stroke-linecap:round;stroke-miterlimit:10;stroke-width:6px"/><line x1="93" y1="45" x2="111" y2="141" style="fill:none;stroke:#000;stroke-linecap:round;stroke-miterlimit:10;stroke-width:6px"/><line x1="57" y1="45" x2="39" y2="141" style="fill:none;stroke:#000;stroke-linecap:round;stroke-miterlimit:10;stroke-width:6px"/><line x1="42" y1="123" x2="108" y2="123" style="fill:none;stroke:#000;stroke-miterlimit:10;stroke-width:6px"/><line x1="45" y1="111" x2="105" y2="111" style="fill:none;stroke:#000;stroke-miterlimit:10;stroke-width:6px"/><rect width="144" height="144" style="fill:none"/></svg>