<svg xmlns="http://www.w3.org/2000/svg" viewBox="0 0 144 144"><polyline points="78 80.6 60 74.2 60 61.9" style="fill:none;stroke:#000;stroke-linecap:round;stroke-linejoin:round;stroke-width:6px"/><path d="M36,61.9V74.2L12.4,82.7A14.1307,14.1307,0,0,0,3,96.1V105H75" style="fill:none;stroke:#000;stroke-linecap:round;stroke-linejoin:round;stroke-width:6px"/><ellipse cx="48" cy="37.4" rx="23.7" ry="28.4" style="fill:none;stroke:#000;stroke-linecap:round;stroke-linejoin:round;stroke-width:6px"/><path d="M71.5,34.9a16.3523,16.3523,0,0,0-2.2.2c-8.1,1.5-13.2-1.4-17.7-9.2-2.7,5.1-11,9.2-17.8,9.2a19.2289,19.2289,0,0,1-9.2-2.2" style="fill:none;stroke:#000;stroke-linecap:round;stroke-linejoin:round;stroke-width:6px"/><path d="M87,9c13.1,0,23.7,12.7,23.7,28.4S100.1,65.8,87,65.8" style="fill:none;stroke:#000;stroke-linecap:round;stroke-linejoin:round;stroke-width:6px"/><path d="M110.5,34.9a16.3523,16.3523,0,0,0-2.2.2c-8.1,1.5-13.2-1.4-17.7-9.2" style="fill:none;stroke:#000;stroke-linecap:round;stroke-linejoin:round;stroke-width:6px"/><line x1="99" y1="69" x2="99" y2="61.9" style="fill:none;stroke:#000;stroke-linecap:round;stroke-linejoin:round;stroke-width:6px"/><line x1="93" y1="86.1" x2="93" y2="141" style="fill:none;stroke:#000;stroke-linecap:round;stroke-linejoin:round;stroke-width:6px"/><path d="M141,89.1s-21,15-21-3-27,0-27,0v33s27-18,27,0,21,6,21,6Z" style="fill:none;stroke:#000;stroke-linecap:round;stroke-linejoin:round;stroke-width:6px"/><rect width="144" height="144" style="fill:none"/></svg>