<svg xmlns="http://www.w3.org/2000/svg" viewBox="0 0 144 144"><path d="M131.4,132.7l6-10.4-6-3.5a19.9021,19.9021,0,0,0,0-9.7l6-3.5-6-10.4-6,3.5a21.2367,21.2367,0,0,0-8.4-4.8v-7H105v7a20.7364,20.7364,0,0,0-8.4,4.8l-6-3.5-6,10.4,6,3.5a19.9021,19.9021,0,0,0,0,9.7l-6,3.5,6,10.4,6-3.5A21.2367,21.2367,0,0,0,105,134v7h12v-7a21.9532,21.9532,0,0,0,8.4-4.8Z" style="fill:none;stroke:#000;stroke-linejoin:round;stroke-width:6px"/><circle cx="111" cy="114" r="9" style="fill:none;stroke:#000;stroke-linejoin:round;stroke-width:6px"/><polyline points="83.6 82.7 60 74.2 60 61.9" style="fill:none;stroke:#000;stroke-linecap:round;stroke-linejoin:round;stroke-width:6px"/><path d="M36,61.9V74.2L12.4,82.7A14.1307,14.1307,0,0,0,3,96.1V105H66" style="fill:none;stroke:#000;stroke-linecap:round;stroke-linejoin:round;stroke-width:6px"/><path d="M71.7,37.4c0,15.7-10.6,28.4-23.7,28.4S24.3,53.1,24.3,37.4,34.9,9,48,9,71.7,21.7,71.7,37.4Z" style="fill:none;stroke:#000;stroke-linecap:round;stroke-linejoin:round;stroke-width:6px"/><path d="M71.5,34.9a16.3523,16.3523,0,0,0-2.2.2c-8.1,1.5-13.2-1.4-17.7-9.2-2.7,5.1-11,9.2-17.8,9.2a19.2289,19.2289,0,0,1-9.2-2.2" style="fill:none;stroke:#000;stroke-linecap:round;stroke-linejoin:round;stroke-width:6px"/><path d="M87,9c13.1,0,23.7,12.7,23.7,28.4S100.1,65.8,87,65.8" style="fill:none;stroke:#000;stroke-linecap:round;stroke-linejoin:round;stroke-width:6px"/><path d="M110.5,34.9a16.3523,16.3523,0,0,0-2.2.2c-8.1,1.5-13.2-1.4-17.7-9.2" style="fill:none;stroke:#000;stroke-linecap:round;stroke-linejoin:round;stroke-width:6px"/><line x1="99" y1="72" x2="99" y2="61.9" style="fill:none;stroke:#000;stroke-linecap:round;stroke-linejoin:round;stroke-width:6px"/><rect width="144" height="144" style="fill:none"/></svg>