<svg xmlns="http://www.w3.org/2000/svg" viewBox="0 0 144.1 144"><path d="M36,97.9v12.3l-23.6,8.5A14.1307,14.1307,0,0,0,3,132.1V141H93v-8.9a14.1307,14.1307,0,0,0-9.4-13.4L60,110.2V97.9" style="fill:none;stroke:#000;stroke-linejoin:round;stroke-width:6px"/><path d="M71.7,73.4c0,15.7-10.6,28.4-23.7,28.4S24.3,89.1,24.3,73.4,34.9,45,48,45,71.7,57.7,71.7,73.4Z" style="fill:none;stroke:#000;stroke-linejoin:round;stroke-width:6px"/><path d="M71.5,70.9a16.3523,16.3523,0,0,0-2.2.2c-8.1,1.5-13.2-1.4-17.7-9.1-2.7,5.1-11,9.1-17.8,9.1a19.2289,19.2289,0,0,1-9.2-2.2" style="fill:none;stroke:#000;stroke-linejoin:round;stroke-width:6px"/><path d="M84,45c13.1,0,23.7,12.7,23.7,28.4S97.1,101.8,84,101.8" style="fill:none;stroke:#000;stroke-linecap:round;stroke-linejoin:round;stroke-width:6px"/><path d="M107.5,70.9a16.3523,16.3523,0,0,0-2.2.2c-8.1,1.5-13.2-1.4-17.7-9.1" style="fill:none;stroke:#000;stroke-linecap:round;stroke-linejoin:round;stroke-width:6px"/><path d="M108.2,141H129v-8.9a14.1307,14.1307,0,0,0-9.4-13.4L96,110.2V97.9" style="fill:none;stroke:#000;stroke-linecap:round;stroke-linejoin:round;stroke-width:6px"/><line x1="105.1" y1="27" x2="141.1" y2="27" style="fill:none;stroke:#000;stroke-linecap:round;stroke-linejoin:round;stroke-width:6px"/><rect width="144" height="144" style="fill:none"/></svg>