<svg xmlns="http://www.w3.org/2000/svg" viewBox="0 0 144 144"><path d="M111,41.9A39.0927,39.0927,0,0,1,71.9,81C50.3,81,33,62.8,33,41.1,33,20.1,49.5,3.9,70.3,3H72A38.774,38.774,0,0,1,111,41.9Z" style="fill:none;stroke:#000;stroke-linejoin:round;stroke-width:6px"/><path d="M70.3,3C50,25.1,50,53.8,70.3,81" style="fill:none;stroke:#000;stroke-linejoin:round;stroke-width:6px"/><path d="M73.7,3c20.4,22,20.4,50.8,0,77.9" style="fill:none;stroke:#000;stroke-linejoin:round;stroke-width:6px"/><line x1="39.4" y1="63" x2="104.8" y2="63" style="fill:none;stroke:#000;stroke-linejoin:round;stroke-width:6px"/><line x1="38.7" y1="21" x2="105" y2="21" style="fill:none;stroke:#000;stroke-linejoin:round;stroke-width:6px"/><line x1="33" y1="42" x2="111" y2="42" style="fill:none;stroke:#000;stroke-linejoin:round;stroke-width:6px"/><circle cx="27" cy="102.1" r="15" style="fill:none;stroke:#000;stroke-linecap:round;stroke-linejoin:round;stroke-width:6px"/><circle cx="72" cy="102.1" r="15" style="fill:none;stroke:#000;stroke-linecap:round;stroke-linejoin:round;stroke-width:6px"/><circle cx="117" cy="102.1" r="15" style="fill:none;stroke:#000;stroke-linecap:round;stroke-linejoin:round;stroke-width:6px"/><path d="M117,117a23.9656,23.9656,0,0,0-22.5,15.9,23.87,23.87,0,0,0-45,0A23.9656,23.9656,0,0,0,27,117c-13.3,0-24,12-24,24H141C141,129,130.3,117,117,117Z" style="fill:none;stroke:#000;stroke-linecap:round;stroke-linejoin:round;stroke-width:6px"/><rect width="144" height="144" style="fill:none"/></svg>