<svg xmlns="http://www.w3.org/2000/svg" viewBox="0 0 144.0204 144"><circle cx="62.5204" cy="79.3" r="12" style="fill:none;stroke:#000;stroke-linecap:round;stroke-linejoin:round;stroke-width:6px"/><line x1="20.1204" y1="104.8" x2="37.0204" y2="121.8" style="fill:none;stroke:#000;stroke-linecap:round;stroke-linejoin:round;stroke-width:6px"/><path d="M123.8,3l-24,24,3,3-24,24c-17-11.8-37-3.3-39,15-37-7.9-48.2,32.8-24,57,24.4,24.4,64.9,12.8,57-24,18.2-2,26.9-21.9,15-39l24-24,3,3,24-24Z" transform="translate(0.0204)" style="fill:none;stroke:#000;stroke-linecap:round;stroke-linejoin:round;stroke-width:6px"/><line x1="111.8204" y1="3" x2="117.8204" y2="9" style="fill:none;stroke:#000;stroke-linecap:round;stroke-linejoin:round;stroke-width:6px"/><line x1="102.8204" y1="12" x2="108.8204" y2="18" style="fill:none;stroke:#000;stroke-linecap:round;stroke-linejoin:round;stroke-width:6px"/><line x1="138.8204" y1="30" x2="132.8204" y2="24" style="fill:none;stroke:#000;stroke-linecap:round;stroke-linejoin:round;stroke-width:6px"/><line x1="129.8204" y1="39" x2="123.8204" y2="33" style="fill:none;stroke:#000;stroke-linecap:round;stroke-linejoin:round;stroke-width:6px"/><rect x="0.0204" width="144" height="144" style="fill:none"/></svg>