<svg xmlns="http://www.w3.org/2000/svg" viewBox="0 0 144 144"><path d="M39,63l66,12a30,30,0,0,0,0-60L39,27Z" style="fill:none;stroke:#000;stroke-linejoin:round;stroke-width:6px"/><polygon points="39 63 9 69 9 21 39 27 39 63" style="fill:none;stroke:#000;stroke-linejoin:round;stroke-width:6px"/><path d="M135,48l-10.5,70.8A11.9619,11.9619,0,0,1,112.6,129H99c-6.6,0-10.9-5.3-9.5-11.7l9.1-43.4" style="fill:none;stroke:#000;stroke-linejoin:round;stroke-width:6px"/><circle cx="108" cy="45" r="15" style="fill:none;stroke:#000;stroke-linejoin:round;stroke-width:6px"/><polyline points="87 72 84 90 95.2 90" style="fill:none;stroke:#000;stroke-linejoin:round;stroke-width:6px"/><line x1="90.8" y1="111" x2="108" y2="111" style="fill:none;stroke:#000;stroke-linecap:round;stroke-linejoin:round;stroke-width:6px"/><line x1="93.3" y1="99" x2="111" y2="99" style="fill:none;stroke:#000;stroke-linecap:round;stroke-linejoin:round;stroke-width:6px"/><rect width="144" height="144" style="fill:none"/></svg>