<svg xmlns="http://www.w3.org/2000/svg" viewBox="0 0 144 144"><path d="M135,75H9V66A39.05,39.05,0,0,1,48,27H96a39.05,39.05,0,0,1,39,39Z" style="fill:none;stroke:#000;stroke-linejoin:round;stroke-width:6px"/><path d="M141,90a8.9626,8.9626,0,0,1-9,9H12a8.9626,8.9626,0,0,1-9-9V84a8.9626,8.9626,0,0,1,9-9H132a8.9626,8.9626,0,0,1,9,9Z" style="fill:none;stroke:#000;stroke-linejoin:round;stroke-width:6px"/><path d="M135,105a12.0353,12.0353,0,0,1-12,12H21A12.0353,12.0353,0,0,1,9,105V99H135Z" style="fill:none;stroke:#000;stroke-linejoin:round;stroke-width:6px"/><path d="M45,42a3,3,0,1,0,3,3,2.9465,2.9465,0,0,0-3-3Z" style="fill:#000"/><path d="M57,36a3,3,0,1,0,3,3,2.9465,2.9465,0,0,0-3-3Z" style="fill:#000"/><path d="M87,36a3,3,0,1,0,3,3,2.9465,2.9465,0,0,0-3-3Z" style="fill:#000"/><path d="M72,42a3,3,0,1,0,3,3,2.9465,2.9465,0,0,0-3-3Z" style="fill:#000"/><path d="M99.3,42a3,3,0,1,0,3,3,3.0085,3.0085,0,0,0-3-3Z" style="fill:#000"/><rect width="144" height="144" style="fill:none"/></svg>