<svg xmlns="http://www.w3.org/2000/svg" viewBox="0 0 144 144"><path d="M138,141l3-19.7c0-2.6-1.1-5.1-3.5-5.8L105,103.9V75c0-3.2-1.3-6-4.5-6H91.8c-3.2,0-4.8,2.8-4.8,6v52.1L76.7,114.7a6.2337,6.2337,0,0,0-4.8-2.2l-6,.1a5.7953,5.7953,0,0,0-5,2.9,5.984,5.984,0,0,0-.1,5.8L71.6,141" style="fill:none;stroke:#000;stroke-linecap:round;stroke-linejoin:round;stroke-width:6px"/><path d="M27,105H15A12.0353,12.0353,0,0,1,3,93V15A12.0353,12.0353,0,0,1,15,3H63A12.0353,12.0353,0,0,1,75,15V39" style="fill:none;stroke:#000;stroke-linecap:round;stroke-linejoin:round;stroke-width:6px"/><line x1="3" y1="81" x2="27" y2="81" style="fill:none;stroke:#000;stroke-linecap:round;stroke-linejoin:round;stroke-width:6px"/><path d="M141,105V63a12.0353,12.0353,0,0,0-12-12" style="fill:none;stroke:#000;stroke-linecap:round;stroke-linejoin:round;stroke-width:6px"/><path d="M51,123a12.0353,12.0353,0,0,1-12-12V63A12.0353,12.0353,0,0,1,51,51H75" style="fill:none;stroke:#000;stroke-linecap:round;stroke-linejoin:round;stroke-width:6px"/><line x1="63" y1="51" x2="63" y2="102" style="fill:none;stroke:#000;stroke-linecap:round;stroke-linejoin:round;stroke-width:6px"/><path d="M117,51a6.0176,6.0176,0,0,1-6,6H93a6.0176,6.0176,0,0,1-6-6V9a6.0176,6.0176,0,0,1,6-6h18a6.0176,6.0176,0,0,1,6,6Z" style="fill:none;stroke:#000;stroke-linecap:round;stroke-linejoin:round;stroke-width:6px"/><line x1="87" y1="45" x2="117" y2="45" style="fill:none;stroke:#000;stroke-linecap:round;stroke-linejoin:round;stroke-width:6px"/><line x1="87" y1="15" x2="117" y2="15" style="fill:none;stroke:#000;stroke-linecap:round;stroke-linejoin:round;stroke-width:6px"/><line x1="3" y1="21" x2="75" y2="21" style="fill:none;stroke:#000;stroke-linecap:round;stroke-linejoin:round;stroke-width:6px"/><line x1="123" y1="66" x2="123" y2="99" style="fill:none;stroke:#000;stroke-linecap:round;stroke-linejoin:round;stroke-width:6px"/><rect width="144" height="144" style="fill:none"/></svg>