<svg xmlns="http://www.w3.org/2000/svg" viewBox="0 0 144.1 144"><polyline points="21 72 3 66 9 48" style="fill:none;stroke:#000;stroke-linecap:round;stroke-linejoin:round;stroke-width:6px"/><path d="M105.3,48.5c16,3.6,28.7,9.8,35.8,17.3" style="fill:none;stroke:#000;stroke-linecap:round;stroke-linejoin:round;stroke-width:6px"/><polyline points="33 63 15 57 21 39" style="fill:none;stroke:#000;stroke-linecap:round;stroke-linejoin:round;stroke-width:6px"/><path d="M15,57a98.8486,98.8486,0,0,1,24-8.5" style="fill:none;stroke:#000;stroke-linecap:round;stroke-linejoin:round;stroke-width:6px"/><path d="M63,38.9a6,6,0,0,1,12,0V67.4l23.5,7a7.707,7.707,0,0,1,5.4,9.1c-.8,3.4-4.5,24-5.1,27.5H62.1L43.7,83.5c-7.3-11.1,11-15,19.3,3.5Z" style="fill:none;stroke:#000;stroke-linejoin:round;stroke-width:6px"/><rect width="144" height="144" style="fill:none"/></svg>