<svg xmlns="http://www.w3.org/2000/svg" viewBox="0 0 144 144"><line x1="18" y1="51" x2="39" y2="51" style="fill:none;stroke:#000;stroke-linecap:round;stroke-linejoin:round;stroke-width:6px"/><polyline points="30 66 18 51 30 36" style="fill:none;stroke:#000;stroke-linecap:round;stroke-linejoin:round;stroke-width:6px"/><line x1="126" y1="51" x2="105" y2="51" style="fill:none;stroke:#000;stroke-linecap:round;stroke-linejoin:round;stroke-width:6px"/><polyline points="114 66 126 51 114 36" style="fill:none;stroke:#000;stroke-linecap:round;stroke-linejoin:round;stroke-width:6px"/><polyline points="129 36 141 51 129 66" style="fill:none;stroke:#000;stroke-linecap:round;stroke-linejoin:round;stroke-width:6px"/><polyline points="15 36 3 51 15 66" style="fill:none;stroke:#000;stroke-linecap:round;stroke-linejoin:round;stroke-width:6px"/><path d="M63,38.9a6,6,0,0,1,12,0V67.4l23.5,7a7.707,7.707,0,0,1,5.4,9.1c-.8,3.4-4.5,24-5.1,27.5H62.1L43.7,83.5c-7.3-11.1,11-15,19.3,3.5Z" style="fill:none;stroke:#000;stroke-linejoin:round;stroke-width:6px"/><rect width="144" height="144" style="fill:none"/></svg>