<svg xmlns="http://www.w3.org/2000/svg" viewBox="0 0 144 144"><path d="M45,63H21L15,87a30,30,0,1,0,48,24c0-10.5-4.9-18.2-12-23.7Z" style="fill:none;stroke:#000;stroke-linejoin:round;stroke-width:6px"/><circle cx="33" cy="111" r="15" style="fill:none;stroke:#000;stroke-linejoin:round;stroke-width:6px"/><path d="M123,63H99L93,87a30,30,0,1,0,48,24c0-10.5-4.9-18.2-12-23.7Z" style="fill:none;stroke:#000;stroke-linejoin:round;stroke-width:6px"/><circle cx="111" cy="111" r="15" style="fill:none;stroke:#000;stroke-linejoin:round;stroke-width:6px"/><path d="M33,63V48a39,39,0,0,1,78,0V63" style="fill:none;stroke:#000;stroke-linejoin:round;stroke-width:6px"/><path d="M45,63H21L15,87a30,30,0,1,0,48,24c0-10.5-4.9-18.2-12-23.7Z" style="fill:none;stroke:#000;stroke-linejoin:round;stroke-width:6px"/><circle cx="33" cy="111" r="15" style="fill:none;stroke:#000;stroke-linejoin:round;stroke-width:6px"/><path d="M123,63H99L93,87a30,30,0,1,0,48,24c0-10.5-4.9-18.2-12-23.7Z" style="fill:none;stroke:#000;stroke-linejoin:round;stroke-width:6px"/><circle cx="111" cy="111" r="15" style="fill:none;stroke:#000;stroke-linejoin:round;stroke-width:6px"/><path d="M33,63V48a39,39,0,0,1,78,0V63" style="fill:none;stroke:#000;stroke-linejoin:round;stroke-width:6px"/><rect width="144" height="144" style="fill:none"/></svg>