<svg xmlns="http://www.w3.org/2000/svg" viewBox="0 0 144 144"><path d="M47.6,68.2a4.1171,4.1171,0,0,1,2.7,5.2L31.4,132.3A8.259,8.259,0,0,1,21,137.6L9.2,133.8a8.259,8.259,0,0,1-5.3-10.4L22.8,64.5A4.1171,4.1171,0,0,1,28,61.8Z" style="fill:none;stroke:#000;stroke-linejoin:round;stroke-width:6px"/><path d="M90.4,68.2a4.1171,4.1171,0,0,0-2.7,5.2l18.9,58.9a8.259,8.259,0,0,0,10.4,5.3l11.8-3.8a8.259,8.259,0,0,0,5.3-10.4L115.2,64.5a4.1171,4.1171,0,0,0-5.2-2.7Z" style="fill:none;stroke:#000;stroke-linejoin:round;stroke-width:6px"/><circle cx="69" cy="30" r="12" style="fill:none;stroke:#000;stroke-linejoin:round;stroke-width:6px"/><path d="M106,63.2,96,30A27.015,27.015,0,0,0,69,3h0A27.015,27.015,0,0,0,42,30L32,63.2" style="fill:none;stroke:#000;stroke-linejoin:round;stroke-width:6px"/><path d="M44.2,67.1l6.1-17.6a27.1348,27.1348,0,0,0,37.3,0l6.1,17.6" style="fill:none;stroke:#000;stroke-linejoin:round;stroke-width:6px"/><rect width="144" height="144" style="fill:none"/></svg>