<svg xmlns="http://www.w3.org/2000/svg" viewBox="0 0 144 144"><polyline points="105 15 105 27 111 27" style="fill:none;stroke:#000;stroke-linecap:round;stroke-linejoin:round;stroke-width:6px"/><circle cx="105" cy="24" r="18" style="fill:none;stroke:#000;stroke-linecap:round;stroke-linejoin:round;stroke-width:6px"/><path d="M45,62.9c0-7.9,12-7.9,12,0V91.4l6,1.5L72,64c1.9-6.9,12.5-4.4,10.8,2.7L75,95.9c6.1,2.8,12.5,4.7,10.9,11.7-.8,3.4-4.5,24-5.1,27.5H44.1L25.7,107.6c-7.3-11.1,11-15,19.3,3.5Z" style="fill:none;stroke:#000;stroke-linejoin:round;stroke-width:6px"/><path d="M30,60c0-20.3,26.1-28.7,38-12.4" style="fill:none;stroke:#000;stroke-linecap:round;stroke-linejoin:round;stroke-width:6px"/><path d="M78,45c18.6,0,27.9,22.5,15,35.7" style="fill:none;stroke:#000;stroke-linecap:round;stroke-linejoin:round;stroke-width:6px"/><rect width="144" height="144" style="fill:none"/></svg>