<svg xmlns="http://www.w3.org/2000/svg" viewBox="0 0 144 144"><polyline points="129 72 141 57 129 42" style="fill:none;stroke:#000;stroke-linecap:round;stroke-linejoin:round;stroke-width:6px"/><path d="M9,86.7C-7.2,60.8,11.4,27,42,27c30.8,0,49.2,34,33,59.8" style="fill:none;stroke:#000;stroke-linecap:round;stroke-linejoin:round;stroke-width:6px"/><line x1="93" y1="57" x2="141" y2="57" style="fill:none;stroke:#000;stroke-linecap:round;stroke-linejoin:round;stroke-width:6px"/><path d="M33,62.9a6,6,0,0,1,12,0V91.4l23.5,7a7.707,7.707,0,0,1,5.4,9.1c-.8,3.4-4.5,23.9-5.1,27.5H32.1L13.7,107.4c-7.3-11.1,11-15,19.3,3.6Z" style="fill:none;stroke:#000;stroke-linejoin:round;stroke-width:6px"/><rect width="144" height="144" style="fill:none"/></svg>