<svg xmlns="http://www.w3.org/2000/svg" viewBox="0 0 144 144.1"><line x1="93.1" y1="18.1" x2="93.1" y2="39.1" style="fill:none;stroke:#000;stroke-linecap:round;stroke-linejoin:round;stroke-width:6px"/><polyline points="78.1 30.1 93.1 18.1 108.1 30.1" style="fill:none;stroke:#000;stroke-linecap:round;stroke-linejoin:round;stroke-width:6px"/><line x1="93.1" y1="126.1" x2="93.1" y2="105.1" style="fill:none;stroke:#000;stroke-linecap:round;stroke-linejoin:round;stroke-width:6px"/><polyline points="78.1 114.1 93.1 126.1 108.1 114.1" style="fill:none;stroke:#000;stroke-linecap:round;stroke-linejoin:round;stroke-width:6px"/><polyline points="108.1 129.1 93.1 141.1 78.1 129.1" style="fill:none;stroke:#000;stroke-linecap:round;stroke-linejoin:round;stroke-width:6px"/><polyline points="108.1 15.1 93.1 3.1 78.1 15.1" style="fill:none;stroke:#000;stroke-linecap:round;stroke-linejoin:round;stroke-width:6px"/><path d="M105.2,63a6,6,0,0,1,0,12H76.6l-7,23.5a7.707,7.707,0,0,1-9.1,5.4c-3.6-.8,1.8.2-27.5-5.1V62.1L60.5,43.7c11.1-7.3,15,11-3.5,19.3Z" style="fill:none;stroke:#000;stroke-linejoin:round;stroke-width:6px"/><rect width="144" height="144" style="fill:none"/></svg>