<svg xmlns="http://www.w3.org/2000/svg" viewBox="0 0 144 144"><path d="M99.2,57c7.9,0,7.9,12,0,12H70.6l-1.5,6L98,84c6.9,1.9,4.4,12.4-2.7,10.8L66.2,87c-2.8,6.1-4.6,12.5-11.7,10.9-3.4-.8-24-4.5-27.5-5.1V56.1L54.5,37.7c11.1-7.3,15,11-3.5,19.3Z" style="fill:none;stroke:#000;stroke-linejoin:round;stroke-width:6px"/><polyline points="102 17.9 108 3 126 5.9" style="fill:none;stroke:#000;stroke-linecap:round;stroke-linejoin:round;stroke-width:6px"/><path d="M108.4,141c10.7-15.9,17.6-40.9,17.6-69.1s-7.2-53-18-68.9" style="fill:none;stroke:#000;stroke-linecap:round;stroke-linejoin:round;stroke-width:6px"/><rect width="144" height="144" style="fill:none"/></svg>