<svg xmlns="http://www.w3.org/2000/svg" viewBox="0 0 144 144"><polyline points="78 129 93 141 108 129" style="fill:none;stroke:#000;stroke-linecap:round;stroke-linejoin:round;stroke-width:6px"/><path d="M63.4,8.9C89.8-7,123,11.3,123,42c0,30.9-34.1,49.2-59.8,33" style="fill:none;stroke:#000;stroke-linecap:round;stroke-linejoin:round;stroke-width:6px"/><line x1="93" y1="93" x2="93" y2="141" style="fill:none;stroke:#000;stroke-linecap:round;stroke-linejoin:round;stroke-width:6px"/><path d="M87.2,33a6,6,0,0,1,0,12H58.6l-7,23.5a7.707,7.707,0,0,1-9.1,5.4c-3.4-.8-24-4.5-27.5-5.1V32.1L42.5,13.7c11.1-7.3,15,11-3.5,19.3Z" style="fill:none;stroke:#000;stroke-linejoin:round;stroke-width:6px"/><rect width="144" height="144" style="fill:none"/></svg>