<svg xmlns="http://www.w3.org/2000/svg" viewBox="0 0 144 144"><rect x="39" y="21" width="66" height="54" style="fill:none;stroke:#000;stroke-linecap:round;stroke-linejoin:round;stroke-width:6px"/><rect x="105" y="33" width="18" height="18" style="fill:none;stroke:#000;stroke-linecap:round;stroke-linejoin:round;stroke-width:6px"/><polyline points="15.6 39 39 39 39 57 15.6 57" style="fill:none;stroke:#000;stroke-linejoin:round;stroke-width:6px"/><polygon points="141 57 123 51 123 33 141 27 141 57" style="fill:none;stroke:#000;stroke-linecap:round;stroke-linejoin:round;stroke-width:6px"/><polygon points="12 63 3 63 3 33 12 33 21 48 12 63" style="fill:none;stroke:#000;stroke-linecap:round;stroke-linejoin:round;stroke-width:6px"/><path d="M81,75v6a8.9626,8.9626,0,0,1-9,9,14.98,14.98,0,0,0-15,15v15a9,9,0,0,1-18,0V75" style="fill:none;stroke:#000;stroke-linejoin:round;stroke-width:6px"/><circle cx="60" cy="42" r="9" style="fill:none;stroke:#000;stroke-linejoin:round;stroke-width:6px"/><line x1="93" y1="63" x2="81" y2="63" style="fill:none;stroke:#000;stroke-linecap:round;stroke-linejoin:round;stroke-width:6px"/><rect width="144" height="144" style="fill:none"/></svg>