<svg xmlns="http://www.w3.org/2000/svg" viewBox="0 0 144 144.1"><path d="M141,84.1a27.015,27.015,0,0,0-27-27H30a27.015,27.015,0,0,0-27,27v39a18.0529,18.0529,0,0,0,18,18H123a18.0529,18.0529,0,0,0,18-18Z" style="fill:none;stroke:#000;stroke-linecap:round;stroke-linejoin:round;stroke-width:6px"/><path d="M33,141.1a29.96,29.96,0,0,0-30-30" style="fill:none;stroke:#000;stroke-linecap:round;stroke-linejoin:round;stroke-width:6px"/><path d="M111,141.1a29.96,29.96,0,0,1,30-30" style="fill:none;stroke:#000;stroke-linecap:round;stroke-linejoin:round;stroke-width:6px"/><line x1="129" y1="87" x2="15" y2="87" style="fill:none;stroke:#000;stroke-linecap:round;stroke-linejoin:round;stroke-width:6px"/><line x1="27" y1="96" x2="27" y2="102" style="fill:none;stroke:#000;stroke-linecap:round;stroke-linejoin:round;stroke-width:6px"/><path d="M99,69V30a27,27,0,0,0-54,0V69" style="fill:none;stroke:#000;stroke-linecap:round;stroke-linejoin:round;stroke-width:6px"/><rect width="144" height="144" style="fill:none"/></svg>