<svg xmlns="http://www.w3.org/2000/svg" viewBox="0 0 144 144"><line x1="93.2" y1="3" x2="93.2" y2="21" style="fill:none;stroke:#000;stroke-linecap:round;stroke-linejoin:round;stroke-width:6px"/><polyline points="78.2 15 93.2 3 108.2 15" style="fill:none;stroke:#000;stroke-linecap:round;stroke-linejoin:round;stroke-width:6px"/><line x1="93.2" y1="141" x2="93.2" y2="123" style="fill:none;stroke:#000;stroke-linecap:round;stroke-linejoin:round;stroke-width:6px"/><polyline points="78.2 129 93.2 141 108.2 129" style="fill:none;stroke:#000;stroke-linecap:round;stroke-linejoin:round;stroke-width:6px"/><path d="M69.5,38.9c25.8-16.1,59.7,2.3,59.7,33.1s-34,49.2-59.8,33" style="fill:none;stroke:#000;stroke-linecap:round;stroke-linejoin:round;stroke-width:6px"/><path d="M93.2,63a6,6,0,0,1,0,12H64.6l-7,23.5a7.707,7.707,0,0,1-9.1,5.4c-3.4-.8-24-4.5-27.5-5.1V62.1L48.5,43.7c11.1-7.3,15,11-3.5,19.3Z" style="fill:none;stroke:#000;stroke-linejoin:round;stroke-width:6px"/><rect width="144" height="144" style="fill:none"/></svg>