<svg xmlns="http://www.w3.org/2000/svg" viewBox="0 0 144 144"><path d="M93.2,57c7.9,0,7.9,12,0,12H64.6l-1.5,6L92,84c6.9,1.9,4.4,12.4-2.7,10.8L60.2,87c-2.8,6.1-4.6,12.5-11.7,10.9-3.4-.8-24-4.5-27.5-5.1V56.1L48.5,37.7c11.1-7.3,15,11-3.5,19.3Z" style="fill:none;stroke:#000;stroke-linejoin:round;stroke-width:6px"/><polyline points="96 126.1 102 141 120 138.1" style="fill:none;stroke:#000;stroke-linecap:round;stroke-linejoin:round;stroke-width:6px"/><path d="M102.4,3C113.1,18.9,120,43.9,120,72.1s-7.2,53-18,68.9" style="fill:none;stroke:#000;stroke-linecap:round;stroke-linejoin:round;stroke-width:6px"/><rect width="144" height="144" style="fill:none"/></svg>