<svg xmlns="http://www.w3.org/2000/svg" viewBox="0 0 144 144"><path d="M104,56s-20.89-5.72-25-7-8.13-2.57-13,0S55.57,57.43,53,60s-1.11,10.74,3,9,9.43-3,12-4,4.92-1,8,1,27,19,27,19l10-3" style="fill:none;stroke:#000;stroke-linecap:round;stroke-linejoin:round;stroke-width:6px"/><polygon points="117 90 141 82 125 35 101.29 43 117 90" style="fill:none;stroke:#000;stroke-linecap:round;stroke-linejoin:round;stroke-width:6px"/><polygon points="27 94 3 85 19 39 43 47 27 94" style="fill:none;stroke:#000;stroke-linecap:round;stroke-linejoin:round;stroke-width:6px"/><line x1="40" y1="56" x2="56" y2="56" style="fill:none;stroke:#000;stroke-linecap:round;stroke-linejoin:round;stroke-width:6px"/><path d="M102.81,84.91,107,87s-2,8.08-10,5S76,80,76,80" style="fill:none;stroke:#000;stroke-linecap:round;stroke-linejoin:round;stroke-width:6px"/><path d="M70,88s9.78,5.94,13,8,9.52,2.68,14-4" style="fill:none;stroke:#000;stroke-linecap:round;stroke-linejoin:round;stroke-width:6px"/><path d="M60,94s7.23,4.77,11,7,11.22,3,14-3" style="fill:none;stroke:#000;stroke-linecap:round;stroke-linejoin:round;stroke-width:6px"/><path d="M31,86s24.89,17.41,29,20,11,5.62,15-3" style="fill:none;stroke:#000;stroke-linecap:round;stroke-linejoin:round;stroke-width:6px"/><rect width="144" height="144" style="fill:none"/></svg>