<svg xmlns="http://www.w3.org/2000/svg" viewBox="0 0 144.1 144"><path d="M45,105H15A12.0353,12.0353,0,0,1,3,93V15A12.0353,12.0353,0,0,1,15,3H129a12.0353,12.0353,0,0,1,12,12V69" style="fill:none;stroke:#000;stroke-linecap:round;stroke-linejoin:round;stroke-width:6px"/><polyline points="45 93 27 93 27 15 123 15 123 69" style="fill:none;stroke:#000;stroke-linecap:round;stroke-linejoin:round;stroke-width:6px"/><path d="M132,51a3,3,0,0,0,0,6,3,3,0,0,0,0-6Z" style="fill:#000"/><path d="M105,79.9v-32c0-3.2-1.3-5.8-4.5-5.8H91.8c-3.2,0-4.8,2.6-4.8,5.8v55.3L76.7,90.8a6.2337,6.2337,0,0,0-4.8-2.2l-6,.1a5.7953,5.7953,0,0,0-5,2.9,5.984,5.984,0,0,0-.1,5.8L83.2,138a5.6165,5.6165,0,0,0,5.1,3h38.3a5.874,5.874,0,0,0,5.4-3.6l9.1-40.1c0-2.6-1.1-5.1-3.5-5.8Z" style="fill:none;stroke:#000;stroke-linejoin:round;stroke-width:6px"/><path d="M18,54a2.9465,2.9465,0,0,1-3,3h0a2.9465,2.9465,0,0,1-3-3h0a2.9465,2.9465,0,0,1,3-3h0a2.9465,2.9465,0,0,1,3,3Z" style="fill:none;stroke:#000;stroke-linejoin:round;stroke-width:6px"/><rect width="144" height="144" style="fill:none"/></svg>