<svg xmlns="http://www.w3.org/2000/svg" viewBox="0 0 144 144.1"><path d="M38.9,92.7C22.8,66.8,41.3,33,72,33c30.8,0,49.2,34,33,59.8" style="fill:none;stroke:#000;stroke-linecap:round;stroke-linejoin:round;stroke-width:6px"/><path d="M30,110.6C-3.2,74.4,22.2,15,72,15c49.6,0,75.2,59.1,42.1,95.4" style="fill:none;stroke:#000;stroke-linecap:round;stroke-linejoin:round;stroke-width:6px"/><path d="M63,69a6,6,0,0,1,12,0V97.5l23.5,7a7.707,7.707,0,0,1,5.4,9.1c-.8,3.4-4.5,24-5.1,27.5H62L43.6,113.6c-7.3-11.1,11-15,19.3,3.5V69Z" style="fill:none;stroke:#000;stroke-linejoin:round;stroke-width:6px"/><rect width="144" height="144" style="fill:none"/></svg>