<svg xmlns="http://www.w3.org/2000/svg" viewBox="0 0 144 144.1"><path d="M132,140.95l-15-21V92.55c0-10.2-12.5-15.2-24-25.1" transform="translate(0 0.0501)" style="fill:none;stroke:#000;stroke-linecap:round;stroke-linejoin:round;stroke-width:6px"/><path d="M102,104.95,85.5,88.45a6.364,6.364,0,0,0-9,9L93,116.95v9.2c0,5.8,9,14.9,9,14.9" transform="translate(0 0.0501)" style="fill:none;stroke:#000;stroke-linecap:round;stroke-linejoin:round;stroke-width:6px"/><path d="M75,128.95H42a9.0266,9.0266,0,0,1-9-9v-66a9.0264,9.0264,0,0,1,9-9H84a9.0264,9.0264,0,0,1,9,9v30" transform="translate(0 0.0501)" style="fill:none;stroke:#000;stroke-linecap:round;stroke-linejoin:round;stroke-width:6px"/><path d="M51,59.95a3,3,0,1,0,3,3h0A3,3,0,0,0,51,59.95Z" style="fill:#000" transform="translate(0 0.0501)"/><path d="M63,59.95a3,3,0,1,0,3,3h0A3,3,0,0,0,63,59.95Z" style="fill:#000" transform="translate(0 0.0501)"/><path d="M75,59.95a3,3,0,1,0,3,3h0A3,3,0,0,0,75,59.95Z" style="fill:#000" transform="translate(0 0.0501)"/><path d="M51,71.95a3,3,0,1,0,3,3A3,3,0,0,0,51,71.95Z" style="fill:#000" transform="translate(0 0.0501)"/><path d="M51,83.95a3,3,0,1,0,3,3A3,3,0,0,0,51,83.95Z" style="fill:#000" transform="translate(0 0.0501)"/><path d="M51,95.95a3,3,0,1,0,3,3A3,3,0,0,0,51,95.95Z" style="fill:#000" transform="translate(0 0.0501)"/><path d="M51,107.95a3,3,0,1,0,3,3A3,3,0,0,0,51,107.95Z" style="fill:#000" transform="translate(0 0.0501)"/><path d="M63,71.95a3,3,0,1,0,3,3A3,3,0,0,0,63,71.95Z" style="fill:#000" transform="translate(0 0.0501)"/><path d="M63,83.95a3,3,0,1,0,3,3A3,3,0,0,0,63,83.95Z" style="fill:#000" transform="translate(0 0.0501)"/><path d="M63,95.95a3,3,0,1,0,3,3A3,3,0,0,0,63,95.95Z" style="fill:#000" transform="translate(0 0.0501)"/><path d="M63,107.95a3,3,0,1,0,3,3A3,3,0,0,0,63,107.95Z" style="fill:#000" transform="translate(0 0.0501)"/><path d="M75,71.95a3,3,0,1,0,3,3A3,3,0,0,0,75,71.95Z" style="fill:#000" transform="translate(0 0.0501)"/><path d="M91.7,11.55a50.8631,50.8631,0,0,0-56.6,0" transform="translate(0 0.0501)" style="fill:none;stroke:#000;stroke-linecap:round;stroke-linejoin:round;stroke-width:6px"/><path d="M85,21.45a39.06,39.06,0,0,0-21.6-6.6,38.2733,38.2733,0,0,0-21.6,6.6" transform="translate(0 0.0501)" style="fill:none;stroke:#000;stroke-linecap:round;stroke-linejoin:round;stroke-width:6px"/><path d="M78.4,31.45a26.5224,26.5224,0,0,0-15-4.5,27.5685,27.5685,0,0,0-15,4.5" transform="translate(0 0.0501)" style="fill:none;stroke:#000;stroke-linecap:round;stroke-linejoin:round;stroke-width:6px"/><rect y="0.0998" width="144" height="144" style="fill:none"/></svg>