<svg xmlns="http://www.w3.org/2000/svg" viewBox="0 0 144 144"><path d="M117,66.1v39a29.96,29.96,0,0,1-30,30H67a30.05,30.05,0,0,1-25.3-13.9C31.4,104.9,18.5,78.1,18.5,78.1a7.1285,7.1285,0,0,1,.8-9.2,7.24,7.24,0,0,1,9.8-.4L45,87.1v-60a9,9,0,1,1,18,0v36" style="fill:none;stroke:#000;stroke-linecap:round;stroke-linejoin:round;stroke-width:6px"/><path d="M63,51.1v-36a9,9,0,0,1,18,0v36" style="fill:none;stroke:#000;stroke-linecap:round;stroke-linejoin:round;stroke-width:6px"/><path d="M81,63.1v-36a9,9,0,1,1,18,0v36" style="fill:none;stroke:#000;stroke-linecap:round;stroke-linejoin:round;stroke-width:6px"/><path d="M99,72.1v-27a9,9,0,1,1,18,0v36" style="fill:none;stroke:#000;stroke-linecap:round;stroke-linejoin:round;stroke-width:6px"/><circle cx="78" cy="99.1" r="6" style="fill:none;stroke:#000;stroke-linecap:round;stroke-linejoin:round;stroke-width:6px"/><path d="M108,99.1s-9,18-30,18-30-18-30-18,9-18,30-18S108,99.1,108,99.1Z" style="fill:none;stroke:#000;stroke-linecap:round;stroke-linejoin:round;stroke-width:6px"/><rect width="144" height="144" style="fill:none"/></svg>