<svg xmlns="http://www.w3.org/2000/svg" viewBox="0 0 144 144"><polyline points="121.9 3 103.9 9 109.9 24" style="fill:none;stroke:#000;stroke-linecap:round;stroke-linejoin:round;stroke-width:6px"/><polyline points="41 141 58.9 135 53 120" style="fill:none;stroke:#000;stroke-linecap:round;stroke-linejoin:round;stroke-width:6px"/><path d="M31.9,108c6,16.3,15.8,27,27,27" style="fill:none;stroke:#000;stroke-linecap:round;stroke-linejoin:round;stroke-width:6px"/><path d="M132,38.9C126.2,21,115.8,9,103.9,9" style="fill:none;stroke:#000;stroke-linecap:round;stroke-linejoin:round;stroke-width:6px"/><path d="M63,38.9c0-7.9,12-7.9,12,0V67.4l6,1.5L90,40c1.9-6.9,12.5-4.4,10.8,2.7L93,71.9c6.1,2.8,12.5,4.7,10.9,11.7-.8,3.4-4.5,24-5.1,27.5H62.1L43.7,83.5c-7.3-11.1,11-15,19.3,3.5Z" style="fill:none;stroke:#000;stroke-linejoin:round;stroke-width:6px"/><rect width="144" height="144" style="fill:none"/></svg>