<svg xmlns="http://www.w3.org/2000/svg" viewBox="0 0 144 144"><path d="M51,141H27A24.0706,24.0706,0,0,1,3,117V27A24.0706,24.0706,0,0,1,27,3H39A24.0706,24.0706,0,0,1,63,27V72" style="fill:none;stroke:#000;stroke-linecap:round;stroke-linejoin:round;stroke-width:6px"/><path d="M75,63h54a12.0353,12.0353,0,0,0,12-12V27a12.0353,12.0353,0,0,0-12-12H75" style="fill:none;stroke:#000;stroke-linecap:round;stroke-linejoin:round;stroke-width:6px"/><line x1="75" y1="15" x2="75" y2="63" style="fill:none;stroke:#000;stroke-linecap:round;stroke-linejoin:round;stroke-width:6px"/><line x1="63" y1="39" x2="75" y2="39" style="fill:none;stroke:#000;stroke-linecap:round;stroke-linejoin:round;stroke-width:6px"/><circle cx="33" cy="33" r="18" style="fill:none;stroke:#000;stroke-linecap:round;stroke-linejoin:round;stroke-width:6px"/><line x1="51" y1="72" x2="63" y2="72" style="fill:none;stroke:#000;stroke-linecap:round;stroke-linejoin:round;stroke-width:6px"/><line x1="51" y1="141" x2="51" y2="72" style="fill:none;stroke:#000;stroke-linecap:round;stroke-linejoin:round;stroke-width:6px"/><path d="M19,63H29c5.5,0,10,5.4,10,12v51" style="fill:none;stroke:#000;stroke-linecap:round;stroke-linejoin:round;stroke-width:6px"/><rect width="144" height="144" style="fill:none"/></svg>