<svg xmlns="http://www.w3.org/2000/svg" viewBox="0 0 144 144.053"><polyline points="84 15 99 3 114 15" style="fill:none;stroke:#000;stroke-linecap:round;stroke-linejoin:round;stroke-width:6px"/><path d="M69.4,135.1c25.8,16.1,59.7-2.3,59.7-33.1,0-30.9-34.1-49.2-59.8-33" style="fill:none;stroke:#000;stroke-linecap:round;stroke-linejoin:round;stroke-width:6px"/><line x1="99" y1="51" x2="99" y2="3" style="fill:none;stroke:#000;stroke-linecap:round;stroke-linejoin:round;stroke-width:6px"/><path d="M93.2,93a6,6,0,0,1,0,12H64.6l-7,23.5a7.707,7.707,0,0,1-9.1,5.4c-3.4-.8-24-4.5-27.5-5.1V92.1L48.5,73.7c11.1-7.3,15,11-3.5,19.3Z" style="fill:none;stroke:#000;stroke-linejoin:round;stroke-width:6px"/><rect width="144" height="144" style="fill:none"/></svg>