<svg xmlns="http://www.w3.org/2000/svg" viewBox="0 0 144 144"><path d="M57,62.9c0-7.9,12-7.9,12,0V91.4l6,1.5L84,64c1.9-6.9,12.5-4.4,10.8,2.7L87,95.9c6.1,2.8,12.5,4.7,10.9,11.7-.8,3.4-4.5,24-5.1,27.5H56.1L37.7,107.6c-7.3-11.1,11-15,19.3,3.5Z" style="fill:none;stroke:#000;stroke-linejoin:round;stroke-width:6px"/><path d="M42,60c0-20.3,26.1-28.7,38-12.4" style="fill:none;stroke:#000;stroke-linecap:round;stroke-linejoin:round;stroke-width:6px"/><path d="M90,45c18.6,0,27.9,22.5,15,35.7" style="fill:none;stroke:#000;stroke-linecap:round;stroke-linejoin:round;stroke-width:6px"/><path d="M27,60c0-33.1,41-48.4,62.9-24" style="fill:none;stroke:#000;stroke-linecap:round;stroke-linejoin:round;stroke-width:6px"/><path d="M101.8,32c26,9,32.7,42.6,12.2,60.9" style="fill:none;stroke:#000;stroke-linecap:round;stroke-linejoin:round;stroke-width:6px"/><rect width="144" height="144" style="fill:none"/></svg>