<svg xmlns="http://www.w3.org/2000/svg" viewBox="0 0 144 144.1"><polyline points="72.1 123 78.1 141 96.1 135" style="fill:none;stroke:#000;stroke-linecap:round;stroke-linejoin:round;stroke-width:6px"/><path d="M95.6,38.7C92,22.7,85.8,10,78.3,2.9" transform="translate(0 0.1)" style="fill:none;stroke:#000;stroke-linecap:round;stroke-linejoin:round;stroke-width:6px"/><polyline points="81.1 111 87 129.1 105.1 123" style="fill:none;stroke:#000;stroke-linecap:round;stroke-linejoin:round;stroke-width:6px"/><path d="M87,129a100.3993,100.3993,0,0,0,8.5-24" transform="translate(0 0.1)" style="fill:none;stroke:#000;stroke-linecap:round;stroke-linejoin:round;stroke-width:6px"/><path d="M105.2,63a6,6,0,0,1,0,12H76.6l-7,23.5a7.707,7.707,0,0,1-9.1,5.4c-3.1-.7-24.3-4.5-27.5-5.1V62.1L60.5,43.7c11.1-7.3,15,11-3.5,19.3Z" transform="translate(0 0.1)" style="fill:none;stroke:#000;stroke-linejoin:round;stroke-width:6px"/><rect y="0.1" width="144" height="144" style="fill:none"/></svg>