<svg xmlns="http://www.w3.org/2000/svg" viewBox="0 0 144 144.1"><path d="M102,128.9H12a9.0919,9.0919,0,0,1-9-9V11.9a9.0264,9.0264,0,0,1,9-9H90a9.0264,9.0264,0,0,1,9,9V93" transform="translate(0 0.1)" style="fill:none;stroke:#000;stroke-linejoin:round;stroke-width:6px"/><polyline points="89.6 105 15 105 15 15 87 15 87 83.6" style="fill:none;stroke:#000;stroke-linecap:round;stroke-linejoin:round;stroke-width:6px"/><path d="M141,140.9l-18-24V89.5c0-10.2-12.5-19.8-24-29.6" transform="translate(0 0.1)" style="fill:none;stroke:#000;stroke-linecap:round;stroke-linejoin:round;stroke-width:6px"/><path d="M105,98.9,91.5,85.4a6.3375,6.3375,0,0,0-9,0c-2.5,2.5-1.5,7.5,0,9L99,113.9v6c0,6,12,21,12,21" transform="translate(0 0.1)" style="fill:none;stroke:#000;stroke-linecap:round;stroke-linejoin:round;stroke-width:6px"/><line x1="36.2" y1="117" x2="59.8" y2="117" style="fill:none;stroke:#000;stroke-linejoin:round;stroke-width:6px"/><path d="M27,113.9a3.0085,3.0085,0,0,0-3,3,3,3,0,1,0,3-3Z"  style="fill:#000" transform="translate(0 0.1)"/><path d="M69,113.9a3.0085,3.0085,0,0,0-3,3,3,3,0,1,0,3-3Z"  style="fill:#000" transform="translate(0 0.1)"/><line x1="30" y1="81" x2="72" y2="81" style="fill:none;stroke:#000;stroke-linejoin:round;stroke-width:6px"/><line x1="30" y1="69" x2="72" y2="69" style="fill:none;stroke:#000;stroke-linejoin:round;stroke-width:6px"/><line x1="30" y1="57" x2="72" y2="57" style="fill:none;stroke:#000;stroke-linejoin:round;stroke-width:6px"/><line x1="30" y1="45" x2="72" y2="45" style="fill:none;stroke:#000;stroke-linejoin:round;stroke-width:6px"/><line x1="30" y1="33" x2="54" y2="33" style="fill:none;stroke:#000;stroke-linejoin:round;stroke-width:6px"/><rect y="0.1" width="144" height="144" style="fill:none"/></svg>