<svg xmlns="http://www.w3.org/2000/svg" viewBox="0 0 144 144"><path d="M78,24c20.2,1.9,40.4,10.3,48.6,21.1" style="fill:none;stroke:#000;stroke-linecap:round;stroke-linejoin:round;stroke-width:6px"/><path d="M17.4,45C25.7,34.2,45.7,25.8,66,24" style="fill:none;stroke:#000;stroke-linecap:round;stroke-linejoin:round;stroke-width:6px"/><polyline points="57 15 66 24 60 36" style="fill:none;stroke:#000;stroke-linecap:round;stroke-linejoin:round;stroke-width:6px"/><polyline points="87 15 78 24 84 36" style="fill:none;stroke:#000;stroke-linecap:round;stroke-linejoin:round;stroke-width:6px"/><path d="M57,62.9c0-7.9,12-7.9,12,0V91.4l6,1.5L84,64c1.9-6.9,12.5-4.4,10.8,2.7L87,95.9c6.1,2.8,12.5,4.7,10.9,11.7-.8,3.4-4.5,24-5.1,27.5H56.1L37.7,107.6c-7.3-11.1,11-15,19.3,3.5Z" style="fill:none;stroke:#000;stroke-linejoin:round;stroke-width:6px"/><rect width="144" height="144" style="fill:none"/></svg>