<svg xmlns="http://www.w3.org/2000/svg" viewBox="0 0 144 144"><polyline points="126.1 48 141 42 138.1 24" style="fill:none;stroke:#000;stroke-linecap:round;stroke-linejoin:round;stroke-width:6px"/><path d="M3,41.6C18.9,30.9,44,24,72.1,24c28.2,0,53,7.2,68.9,18" style="fill:none;stroke:#000;stroke-linecap:round;stroke-linejoin:round;stroke-width:6px"/><path d="M57,50.9c0-7.9,12-7.9,12,0V79.4l6,1.5L84,52c1.9-6.9,12.5-4.4,10.8,2.7L87,83.9c6.1,2.8,12.5,4.7,10.9,11.7-.8,3.4-4.5,24-5.1,27.5H56.1L37.7,95.5c-7.3-11.1,11-15,19.3,3.5Z" style="fill:none;stroke:#000;stroke-linejoin:round;stroke-width:6px"/><rect width="144" height="144" style="fill:none"/></svg>