<svg xmlns="http://www.w3.org/2000/svg" viewBox="0 0 144 144"><polyline points="36 3 54 9 48 24" style="fill:none;stroke:#000;stroke-linecap:round;stroke-linejoin:round;stroke-width:6px"/><polyline points="117 141 99 135 105 120" style="fill:none;stroke:#000;stroke-linecap:round;stroke-linejoin:round;stroke-width:6px"/><path d="M126,108c-6,16.3-15.8,27-27,27" style="fill:none;stroke:#000;stroke-linecap:round;stroke-linejoin:round;stroke-width:6px"/><path d="M25.9,38.9C31.8,21,42.2,9,54,9" style="fill:none;stroke:#000;stroke-linecap:round;stroke-linejoin:round;stroke-width:6px"/><path d="M57,38.9c0-7.9,12-7.9,12,0V67.4l6,1.5L84,40c1.9-6.9,12.5-4.4,10.8,2.7L87,71.9c6.1,2.8,12.5,4.7,10.9,11.7-.8,3.4-4.5,24-5.1,27.5H56.1L37.7,83.5c-7.3-11.1,11-15,19.3,3.5Z" style="fill:none;stroke:#000;stroke-linejoin:round;stroke-width:6px"/><rect width="144" height="144" style="fill:none"/></svg>