<svg xmlns="http://www.w3.org/2000/svg" viewBox="0 0 144 144.1"><path d="M103.1,59.8a39.4963,39.4963,0,0,1-4,33" style="fill:none;stroke:#000;stroke-linecap:round;stroke-linejoin:round;stroke-width:6px"/><path d="M32.9,92.7C16.8,66.8,35.3,33,66,33" style="fill:none;stroke:#000;stroke-linecap:round;stroke-linejoin:round;stroke-width:6px"/><polyline points="99 18 99 27 105 27" style="fill:none;stroke:#000;stroke-linecap:round;stroke-linejoin:round;stroke-width:6px"/><circle cx="99" cy="27" r="18" style="fill:none;stroke:#000;stroke-linecap:round;stroke-linejoin:round;stroke-width:6px"/><path d="M57,69a6,6,0,0,1,12,0V97.5l23.5,7a7.707,7.707,0,0,1,5.4,9.1c-.8,3.4-4.5,24-5.1,27.5H56L37.6,113.6c-7.3-11.1,11-15,19.3,3.5V69Z" style="fill:none;stroke:#000;stroke-linejoin:round;stroke-width:6px"/><rect width="144" height="144" style="fill:none"/></svg>