<svg xmlns="http://www.w3.org/2000/svg" viewBox="0 0 144 144"><rect x="117" y="9" width="24" height="48" style="fill:none;stroke:#000;stroke-linejoin:round;stroke-width:6px"/><path d="M117,17.7C52.6-3.8,76.4-4,3,32.7c6.4,6.4,11.4,7.9,18,6l36-13,22.8,5.5C72.9,37.4,52,49.3,55.5,55.7c3.3,6,6.3,2.5,36.4-10L116.7,54" style="fill:none;stroke:#000;stroke-linecap:round;stroke-linejoin:round;stroke-width:6px"/><line x1="45.2" y1="72.6" x2="33.5" y2="84.3" style="fill:none;stroke:#000;stroke-linecap:round;stroke-linejoin:round;stroke-width:6px"/><line x1="75.3" y1="66.7" x2="87.3" y2="78.1" style="fill:none;stroke:#000;stroke-linecap:round;stroke-linejoin:round;stroke-width:6px"/><line x1="106.8" y1="82.3" x2="103.9" y2="98.6" style="fill:none;stroke:#000;stroke-linecap:round;stroke-linejoin:round;stroke-width:6px"/><line x1="63.6" y1="90.5" x2="75.1" y2="102.4" style="fill:none;stroke:#000;stroke-linecap:round;stroke-linejoin:round;stroke-width:6px"/><line x1="44.8" y1="100.1" x2="45.8" y2="116.7" style="fill:none;stroke:#000;stroke-linecap:round;stroke-linejoin:round;stroke-width:6px"/><line x1="76" y1="121.6" x2="62.6" y2="131.3" style="fill:none;stroke:#000;stroke-linecap:round;stroke-linejoin:round;stroke-width:6px"/><line x1="47.4" y1="134.4" x2="31.3" y2="130.5" style="fill:none;stroke:#000;stroke-linecap:round;stroke-linejoin:round;stroke-width:6px"/><line x1="91.3" y1="118.4" x2="95.4" y2="134.5" style="fill:none;stroke:#000;stroke-linecap:round;stroke-linejoin:round;stroke-width:6px"/><line x1="20.1" y1="107.7" x2="10.5" y2="121.2" style="fill:none;stroke:#000;stroke-linecap:round;stroke-linejoin:round;stroke-width:6px"/><line x1="14.1" y1="58.2" x2="16.5" y2="74.6" style="fill:none;stroke:#000;stroke-linecap:round;stroke-linejoin:round;stroke-width:6px"/><rect width="144" height="144" style="fill:none"/></svg>