<svg xmlns="http://www.w3.org/2000/svg" viewBox="0 0 144 144.4126"><path d="M102.2,114c0,36.4-66,36.7-66,0,0-21.5,33-45,33-45S102.2,92.5,102.2,114Z" style="fill:none;stroke:#000;stroke-linejoin:round;stroke-width:6px"/><line x1="69" y1="24" x2="69" style="fill:none;stroke:#000;stroke-linejoin:round;stroke-width:6px"/><path d="M83.4,50.4a5.954,5.954,0,0,1-1.2,8.4L63.1,73.3a6,6,0,1,1-7.2-9.6L75,49.2A5.954,5.954,0,0,1,83.4,50.4Z" style="fill:none;stroke:#000;stroke-linecap:round;stroke-linejoin:round;stroke-width:6px"/><path d="M83.4,35.3a5.954,5.954,0,0,1-1.2,8.4L63.1,58.2a6,6,0,1,1-7.2-9.6L75,34.1A6.1379,6.1379,0,0,1,83.4,35.3Z" style="fill:none;stroke:#000;stroke-linecap:round;stroke-linejoin:round;stroke-width:6px"/><path d="M83.4,20.4a5.954,5.954,0,0,1-1.2,8.4L63.1,43.3a6,6,0,0,1-7.2-9.6L75,19.2A5.954,5.954,0,0,1,83.4,20.4Z" style="fill:none;stroke:#000;stroke-linecap:round;stroke-linejoin:round;stroke-width:6px"/><rect width="144" height="144" style="fill:none"/></svg>