<svg xmlns="http://www.w3.org/2000/svg" viewBox="0 0 144 144"><path d="M75,69H15V51A48.0124,48.0124,0,0,1,63,3H87a23.9424,23.9424,0,0,1,24,24v7" style="fill:none;stroke:#000;stroke-linejoin:round;stroke-width:6px"/><path d="M75,60a27,27,0,0,1,54,0v9a12.0353,12.0353,0,0,1-12,12H75Z" style="fill:none;stroke:#000;stroke-linejoin:round;stroke-width:6px"/><path d="M15,69V90a8.9626,8.9626,0,0,0,9,9,8.9626,8.9626,0,0,1,9,9v12a21,21,0,0,0,42,0V69Z" style="fill:none;stroke:#000;stroke-linejoin:round;stroke-width:6px"/><path d="M84,132a23.49,23.49,0,0,0,6,.7c11.6,0,21-10.2,21-21.8V81" style="fill:none;stroke:#000;stroke-linejoin:round;stroke-width:6px"/><path d="M39,69H63V81a12,12,0,0,1-24,0Z" style="fill:none;stroke:#000;stroke-linejoin:round;stroke-width:6px"/><rect width="144" height="144" style="fill:none"/></svg>