<svg xmlns="http://www.w3.org/2000/svg" viewBox="0 0 144 144"><path d="M21,74.8a48,48,0,0,1,96,0V87c-31.3,16.2-63.2,16.4-96,0Z" style="fill:none;stroke:#000;stroke-linecap:round;stroke-linejoin:round;stroke-width:6px"/><path d="M56.1,128.3c20.9-15.4,51.7-24.3,78.2-27.1" style="fill:none;stroke:#000;stroke-linecap:round;stroke-linejoin:round;stroke-width:6px"/><path d="M54.1,29.2S59.9,12,69.1,12,84,29.2,84,29.2" style="fill:none;stroke:#000;stroke-linecap:round;stroke-linejoin:round;stroke-width:6px"/><line x1="69" y1="99" x2="69" y2="27" style="fill:none;stroke:#000;stroke-linecap:round;stroke-linejoin:round;stroke-width:6px"/><polyline points="34.1 41.9 69 98.6 103.7 41.9" style="fill:none;stroke:#000;stroke-linecap:round;stroke-linejoin:round;stroke-width:6px"/><path d="M117.4,73.6C128.3,79.4,135,87.3,135,96c0,18.2-29.5,33-66,33S3,114.2,3,96c0-8.8,6.9-16.8,18-22.7" style="fill:none;stroke:#000;stroke-linejoin:round;stroke-width:6px"/><rect width="144" height="144" style="fill:none"/></svg>