<svg xmlns="http://www.w3.org/2000/svg" viewBox="0 0 144 144"><path d="M141,132a8.9626,8.9626,0,0,1-9,9H12a8.9626,8.9626,0,0,1-9-9v-6a8.9626,8.9626,0,0,1,9-9H132a8.9626,8.9626,0,0,1,9,9Z" style="fill:none;stroke:#000;stroke-linejoin:round;stroke-width:6px"/><path d="M15,117c0-49.7,25.5-90,57-90s57,40.3,57,90" style="fill:none;stroke:#000;stroke-linejoin:round;stroke-width:6px"/><line x1="54" y1="21" x2="90" y2="21" style="fill:none;stroke:#000;stroke-linecap:round;stroke-linejoin:round;stroke-width:6px"/><line x1="72" y1="3" x2="72" y2="21" style="fill:none;stroke:#000;stroke-linecap:round;stroke-linejoin:round;stroke-width:6px"/><polyline points="84 9 72 21 60 9" style="fill:none;stroke:#000;stroke-linecap:round;stroke-linejoin:round;stroke-width:6px"/><rect width="144" height="144" style="fill:none"/></svg>