<svg xmlns="http://www.w3.org/2000/svg" viewBox="0 0 144 144.1859"><path d="M13.7,125.9c42.4,17,70,2.1,97.6-25.5L39.1,28.3C11.5,55.9-3.3,83.4,13.7,125.9Z" transform="translate(0 0.1859)" style="fill:none;stroke:#000;stroke-linejoin:round;stroke-width:6px"/><path d="M115.5,104.7a54.018,54.018,0,0,0,0-76.4l-4.2-4.2A54.1089,54.1089,0,0,0,34.9,24Z" transform="translate(0 0.1859)" style="fill:none;stroke:#000;stroke-linejoin:round;stroke-width:6px"/><rect x="109.8975" y="8.6633" width="23.9998" height="17.9998" transform="translate(23.2131 91.5538) rotate(-45)" style="fill:none;stroke:#000;stroke-linejoin:round;stroke-width:5.999942240425611px"/><line x1="67.9" y1="57.1859" x2="130.5" y2="57.1859" style="fill:none;stroke:#000;stroke-linejoin:round;stroke-width:6px"/><line x1="119.7" y1="33.1859" x2="43.9" y2="33.1859" style="fill:none;stroke:#000;stroke-linejoin:round;stroke-width:6px"/><line x1="129.3" y1="81.1859" x2="91.9" y2="81.1859" style="fill:none;stroke:#000;stroke-linejoin:round;stroke-width:6px"/><line x1="111" y1="24.1859" x2="111" y2="100.5859" style="fill:none;stroke:#000;stroke-linejoin:round;stroke-width:6px"/><line x1="87" y1="10.2859" x2="87" y2="76.3859" style="fill:none;stroke:#000;stroke-linejoin:round;stroke-width:6px"/><line x1="63" y1="9.3859" x2="63" y2="52.3859" style="fill:none;stroke:#000;stroke-linejoin:round;stroke-width:6px"/><rect y="0.1859" width="144" height="144" style="fill:none"/></svg>