<svg xmlns="http://www.w3.org/2000/svg" viewBox="0 0 144 144"><line x1="6" y1="6" x2="132" y2="132" style="fill:none;stroke:#000;stroke-linecap:round;stroke-linejoin:round;stroke-width:6px"/><path d="M102,117H27A24.0062,24.0062,0,0,1,3,93V57A24.2,24.2,0,0,1,14.8,36.3" style="fill:none;stroke:#000;stroke-linecap:round;stroke-linejoin:round;stroke-width:6px"/><path d="M48,33h63a23.9424,23.9424,0,0,1,24,24V93a23.5645,23.5645,0,0,1-6.9,16.8" style="fill:none;stroke:#000;stroke-linecap:round;stroke-linejoin:round;stroke-width:6px"/><line x1="21" y1="57" x2="21" y2="93" style="fill:none;stroke:#000;stroke-linecap:round;stroke-linejoin:round;stroke-width:6px"/><line x1="45" y1="57" x2="45" y2="93" style="fill:none;stroke:#000;stroke-linecap:round;stroke-linejoin:round;stroke-width:6px"/><line x1="93" y1="57" x2="93" y2="93" style="fill:none;stroke:#000;stroke-linecap:round;stroke-linejoin:round;stroke-width:6px"/><line x1="101.9" y1="75" x2="117" y2="93" style="fill:none;stroke:#000;stroke-linecap:round;stroke-linejoin:round;stroke-width:6px"/><line x1="21" y1="75" x2="45" y2="75" style="fill:none;stroke:#000;stroke-linecap:round;stroke-linejoin:round;stroke-width:6px"/><path d="M117,66a8.9626,8.9626,0,0,1-9,9H93V57h15A8.9626,8.9626,0,0,1,117,66Z" style="fill:none;stroke:#000;stroke-linecap:round;stroke-linejoin:round;stroke-width:6px"/><path d="M81,75A18.0529,18.0529,0,0,0,63,57H57V93h6A18.0529,18.0529,0,0,0,81,75Z" style="fill:none;stroke:#000;stroke-linecap:round;stroke-linejoin:round;stroke-width:6px"/><rect width="144" height="144" style="fill:none"/></svg>