<svg xmlns="http://www.w3.org/2000/svg" viewBox="0 0 144 144"><path d="M15,87a12,12,0,0,1,0-24" style="fill:none;stroke:#000;stroke-linecap:round;stroke-linejoin:round;stroke-width:6px"/><path d="M87,129H99c11.6,0,21-6.4,21-18v-6.4" style="fill:none;stroke:#000;stroke-linecap:round;stroke-linejoin:round;stroke-width:6px"/><circle cx="78" cy="129" r="9" style="fill:none;stroke:#000;stroke-linecap:round;stroke-linejoin:round;stroke-width:6px"/><path d="M39,105H27A12.0353,12.0353,0,0,1,15,93V57A12.0353,12.0353,0,0,1,27,45H39Z" style="fill:none;stroke:#000;stroke-linecap:round;stroke-linejoin:round;stroke-width:6px"/><path d="M129,87a12,12,0,0,0,0-24" style="fill:none;stroke:#000;stroke-linecap:round;stroke-linejoin:round;stroke-width:6px"/><path d="M105,105h12a12.0353,12.0353,0,0,0,12-12V57a12.0353,12.0353,0,0,0-12-12H105Z" style="fill:none;stroke:#000;stroke-linecap:round;stroke-linejoin:round;stroke-width:6px"/><path d="M30,45a42,42,0,0,1,84,0" style="fill:none;stroke:#000;stroke-linejoin:round;stroke-width:6px"/><rect width="144" height="144" style="fill:none"/></svg>