<svg xmlns="http://www.w3.org/2000/svg" viewBox="0 0 144 144"><path d="M39,102.4a33.0024,33.0024,0,1,1,66,0" style="fill:none;stroke:#000;stroke-linecap:round;stroke-linejoin:round;stroke-width:6px"/><path d="M39,102.4c-12,0-17.8,8-17.8,17.8S27,138,39,138Z" style="fill:none;stroke:#000;stroke-linecap:round;stroke-linejoin:round;stroke-width:6px"/><path d="M105,102.4c12,0,17.8,8,17.8,17.8S117,138,105,138Z" style="fill:none;stroke:#000;stroke-linecap:round;stroke-linejoin:round;stroke-width:6px"/><path d="M34.1,39.8a53.5957,53.5957,0,0,1,75.9,0" style="fill:none;stroke:#000;stroke-linecap:round;stroke-linejoin:round;stroke-width:6px"/><path d="M125.1,25.2a75.0519,75.0519,0,0,0-106.2,0" style="fill:none;stroke:#000;stroke-linecap:round;stroke-linejoin:round;stroke-width:6px"/><path d="M49.2,54.3a32.23,32.23,0,0,1,45.6,0" style="fill:none;stroke:#000;stroke-linecap:round;stroke-linejoin:round;stroke-width:6px"/><path d="M110,39.8a53.5957,53.5957,0,0,0-75.9,0" style="fill:none;stroke:#000;stroke-linecap:round;stroke-linejoin:round;stroke-width:6px"/><path d="M94.8,54.3a32.23,32.23,0,0,0-45.6,0" style="fill:none;stroke:#000;stroke-linecap:round;stroke-linejoin:round;stroke-width:6px"/><rect width="144" height="144" style="fill:none"/></svg>