<svg xmlns="http://www.w3.org/2000/svg" viewBox="0 0 144 144"><path d="M15,105a12,12,0,0,1,0-24" style="fill:none;stroke:#000;stroke-linecap:round;stroke-linejoin:round;stroke-width:6px"/><path d="M39,123H27a12.0353,12.0353,0,0,1-12-12V75A12.0353,12.0353,0,0,1,27,63H39Z" style="fill:none;stroke:#000;stroke-linecap:round;stroke-linejoin:round;stroke-width:6px"/><path d="M129,105a12,12,0,0,0,0-24" style="fill:none;stroke:#000;stroke-linecap:round;stroke-linejoin:round;stroke-width:6px"/><path d="M105,123h12a12.0353,12.0353,0,0,0,12-12V75a12.0353,12.0353,0,0,0-12-12H105Z" style="fill:none;stroke:#000;stroke-linecap:round;stroke-linejoin:round;stroke-width:6px"/><path d="M30,63a42,42,0,0,1,84,0" style="fill:none;stroke:#000;stroke-linejoin:round;stroke-width:6px"/><rect width="144" height="144" style="fill:none"/></svg>