<svg xmlns="http://www.w3.org/2000/svg" viewBox="0 0 144 144"><polyline points="135 84 135 99 120 99" style="fill:none;stroke:#000;stroke-linecap:round;stroke-linejoin:round;stroke-width:6px"/><path d="M81,99c3.7-10.5,15.2-18,27-18s23.3,7.5,27,18" style="fill:none;stroke:#000;stroke-linecap:round;stroke-linejoin:round;stroke-width:6px"/><polyline points="81 132 81 117 96 117" style="fill:none;stroke:#000;stroke-linecap:round;stroke-linejoin:round;stroke-width:6px"/><path d="M135,117c-3.7,10.5-15.2,18-27,18s-23.3-7.5-27-18" style="fill:none;stroke:#000;stroke-linecap:round;stroke-linejoin:round;stroke-width:6px"/><path d="M126,56.6a50.3335,50.3335,0,0,0,2.9-16.5C128.9-2,72.4-10.2,66,31.9,59.5-10.2,3-5.3,3,40.1c0,36.6,41,71.1,56.8,83.1" style="fill:none;stroke:#000;stroke-linecap:round;stroke-linejoin:round;stroke-width:6px"/><rect width="144" height="144" style="fill:none"/></svg>