<svg xmlns="http://www.w3.org/2000/svg" viewBox="0 0 144 144"><path d="M69,137.7s63-48.8,63-94.9c0-46.2-55.9-49.7-63-3.6C61.9-6.9,6-3.4,6,46.3S69,137.7,69,137.7Z" style="fill:none;stroke:#000;stroke-linejoin:round;stroke-width:6px"/><path d="M87,105H51V93H45L39,63A12.0353,12.0353,0,0,1,51,51H87A12.0353,12.0353,0,0,1,99,63L93,93H87Z" style="fill:none;stroke:#000;stroke-linecap:round;stroke-linejoin:round;stroke-width:6px"/><line x1="63" y1="105" x2="63" y2="90" style="fill:none;stroke:#000;stroke-linecap:round;stroke-linejoin:round;stroke-width:6px"/><line x1="75" y1="105" x2="75" y2="90" style="fill:none;stroke:#000;stroke-linecap:round;stroke-linejoin:round;stroke-width:6px"/><circle cx="60" cy="72" r="3" style="fill:none;stroke:#000;stroke-linecap:round;stroke-linejoin:round;stroke-width:6px"/><circle cx="78" cy="72" r="3" style="fill:none;stroke:#000;stroke-linecap:round;stroke-linejoin:round;stroke-width:6px"/><rect width="144" height="144" style="fill:none"/></svg>