<svg xmlns="http://www.w3.org/2000/svg" viewBox="0 0 144 144.0495"><path d="M75.5,58.5c-5.1-8-20.6-5.2-20.6,9.2.3,13.1,20.6,23,20.6,23s20.2-9.9,20.6-23C96,53.3,80.6,50.5,75.5,58.5Z" transform="translate(0 0.0495)" style="fill:none;stroke:#000;stroke-linejoin:round;stroke-width:6px"/><rect x="3" y="93.0495" width="24" height="42" style="fill:none;stroke:#000;stroke-linejoin:round;stroke-width:6px"/><path d="M27,126.4c63,21,42,21,114-15-6.4-6.4-11.4-7.9-18-6l-26.6,8.8" transform="translate(0 0.0495)" style="fill:none;stroke:#000;stroke-linecap:round;stroke-linejoin:round;stroke-width:6px"/><path d="M27,99H45c14.1,0,24,9,27,12H90c9.6,0,9.6,12,0,12H57" transform="translate(0 0.0495)" style="fill:none;stroke:#000;stroke-linecap:round;stroke-linejoin:round;stroke-width:6px"/><rect x="117" y="9.0495" width="24" height="42" style="fill:none;stroke:#000;stroke-linejoin:round;stroke-width:6px"/><path d="M117,45H99c-14.1,0-24-9-27-12H54c-9.6,0-9.6-12,0-12H87" transform="translate(0 0.0495)" style="fill:none;stroke:#000;stroke-linecap:round;stroke-linejoin:round;stroke-width:6px"/><path d="M117,17.2c-63-21-42-21-114,15,6.4,6.4,11.4,7.9,18,6l26.5-8.8" transform="translate(0 0.0495)" style="fill:none;stroke:#000;stroke-linecap:round;stroke-linejoin:round;stroke-width:6px"/><rect y="0.0495" width="144" height="144" style="fill:none"/></svg>