<svg xmlns="http://www.w3.org/2000/svg" viewBox="0 0 144 144"><path d="M134.2,95.5l6.4-3.7-9-15.6-6.5,3.7a29.7725,29.7725,0,0,0-11.2-6.4V66H96v7.5a29.7725,29.7725,0,0,0-11.2,6.4l-6.5-3.7-9,15.6,6.4,3.7a28.5417,28.5417,0,0,0,0,13l-6.4,3.7,9,15.6,6.5-3.7A29.7725,29.7725,0,0,0,96,130.5V138h18v-7.5a29.7725,29.7725,0,0,0,11.2-6.4l6.5,3.7,9-15.6-6.4-3.7A28.5439,28.5439,0,0,0,134.2,95.5Z" style="fill:none;stroke:#000;stroke-linejoin:round;stroke-width:6px"/><circle cx="105" cy="102" r="12" style="fill:none;stroke:#000;stroke-linejoin:round;stroke-width:6px"/><path d="M124.9,59.6a54.3737,54.3737,0,0,0,4-19.5C128.9-2,72.4-10.2,66,31.9,59.5-10.2,3-5.3,3,40.1c0,39.5,47.7,76.5,60,85.5" style="fill:none;stroke:#000;stroke-linecap:round;stroke-linejoin:round;stroke-width:6px"/><rect width="144" height="144" style="fill:none"/></svg>