<svg xmlns="http://www.w3.org/2000/svg" viewBox="0 0 144 144"><path d="M120,63.2c9.7,1.5,15,10.2,15,20.8v42c0,6.6-2.4,12-9,12s-9-5.4-9-12V111a9,9,0,0,1-18,0v-6" style="fill:none;stroke:#000;stroke-linecap:round;stroke-linejoin:round;stroke-width:6px"/><path d="M24,63.2C14.3,64.7,9,73.4,9,84v42c0,6.6,2.4,12,9,12s9-5.4,9-12V111a9,9,0,0,0,18,0v-6" style="fill:none;stroke:#000;stroke-linecap:round;stroke-linejoin:round;stroke-width:6px"/><path d="M72,114s36.1-23.8,36.1-49.2c0-25.3-32-28.6-36.1-3.3-4.1-25.3-36.1-24-36.1,3.3S72,114,72,114Z" style="fill:none;stroke:#000;stroke-linecap:round;stroke-linejoin:round;stroke-width:6px"/><ellipse cx="72" cy="18" rx="33" ry="9" style="fill:none;stroke:#000;stroke-linecap:round;stroke-linejoin:round;stroke-width:6px"/><path d="M72,114s36.1-23.8,36.1-49.2c0-25.3-32-28.6-36.1-3.3-4.1-25.3-36.1-24-36.1,3.3S72,114,72,114Z" style="fill:none;stroke:#000;stroke-linecap:round;stroke-linejoin:round;stroke-width:6px"/><rect width="144" height="144" style="fill:none"/></svg>