<svg xmlns="http://www.w3.org/2000/svg" viewBox="0 0 144 144"><path d="M44.6,83.8S86.2,53.5,86.2,31.1c0-25.9-34-34.1-41.6-2.6C37-3,3,5.2,3,31.1,3,53.5,44.6,83.8,44.6,83.8Z" style="fill:none;stroke:#000;stroke-linejoin:round;stroke-width:6px"/><path d="M23.1,21c-4.5,2.3-8,7.2-8,14a16.0483,16.0483,0,0,0,.3,3" style="fill:none;stroke:#000;stroke-linecap:round;stroke-linejoin:round;stroke-width:6px"/><path d="M76,54.5c4.7,14.4,13.3,28.2,13.3,28.2s39.8-9.9,46.5-26.4c7.7-19.1-14.9-35.3-29.9-14.4,2.7-18.3-10.7-25.6-21.3-21.2" style="fill:none;stroke:#000;stroke-linejoin:round;stroke-width:6px"/><path d="M43.9,83.5C42.2,131.9,64,123.2,77,141" style="fill:none;stroke:#000;stroke-linecap:round;stroke-linejoin:round;stroke-width:6px"/><path d="M89.2,82.7s-18.1,8.1-18.1,29.1S77,141,77,141" style="fill:none;stroke:#000;stroke-linecap:round;stroke-linejoin:round;stroke-width:6px"/><rect width="144" height="144" style="fill:none"/></svg>