<svg xmlns="http://www.w3.org/2000/svg" viewBox="0 0 144 144"><path d="M54.3,133.4A66.0257,66.0257,0,1,1,135,69H93A23.9424,23.9424,0,0,0,69,93" style="fill:none;stroke:#000;stroke-linecap:round;stroke-linejoin:round;stroke-width:6px"/><line x1="141" y1="123" x2="69" y2="123" style="fill:none;stroke:#000;stroke-linecap:round;stroke-linejoin:round;stroke-width:6px"/><path d="M123,105v24a12.0353,12.0353,0,0,1-12,12h-6" style="fill:none;stroke:#000;stroke-linecap:round;stroke-linejoin:round;stroke-width:6px"/><circle cx="51" cy="105" r="9" style="fill:none;stroke:#000;stroke-linejoin:round;stroke-width:6px"/><path d="M51,96V87A35.9773,35.9773,0,0,1,87,51h54" style="fill:none;stroke:#000;stroke-linecap:round;stroke-linejoin:round;stroke-width:6px"/><path d="M60,105h81v24a12.0353,12.0353,0,0,1-12,12H101.9a35.9461,35.9461,0,0,1-25.5-10.6L57.2,111.2" style="fill:none;stroke:#000;stroke-linejoin:round;stroke-width:6px"/><path d="M99,105v24a12.0082,12.0082,0,0,1-6.6,10.7" style="fill:none;stroke:#000;stroke-linecap:round;stroke-linejoin:round;stroke-width:6px"/><rect width="144" height="144" style="fill:none"/></svg>