<svg xmlns="http://www.w3.org/2000/svg" viewBox="0 0 144 144"><path d="M18,63c0,6,3,24.1,6,24L48,63Z" style="fill:none;stroke:#000;stroke-linecap:round;stroke-linejoin:round;stroke-width:6px"/><path d="M21,27a18,18,0,0,0,0,36H132a8.9626,8.9626,0,0,0,9-9c0-9.9-25.9-51-72-51C54,3,33.3,6.4,18,15a6.3622,6.3622,0,0,0-3,6l.2,7" style="fill:none;stroke:#000;stroke-linecap:round;stroke-linejoin:round;stroke-width:6px"/><path d="M41.5,27.7a68.3677,68.3677,0,0,1,38.9-12c20.6,0,40.7,8.6,53.4,22.9" style="fill:none;stroke:#000;stroke-linecap:round;stroke-linejoin:round;stroke-width:6px"/><line x1="75" y1="63" x2="75" y2="78" style="fill:none;stroke:#000;stroke-linecap:round;stroke-linejoin:round;stroke-width:6px"/><circle cx="75" cy="87" r="9" style="fill:none;stroke:#000;stroke-linecap:round;stroke-linejoin:round;stroke-width:6px"/><line x1="75" y1="96" x2="75" y2="123" style="fill:none;stroke:#000;stroke-linecap:round;stroke-linejoin:round;stroke-width:6px"/><line x1="24" y1="87" x2="66" y2="87" style="fill:none;stroke:#000;stroke-linecap:round;stroke-linejoin:round;stroke-width:6px"/><rect x="69" y="123" width="12" height="18" style="fill:none;stroke:#000;stroke-linecap:round;stroke-linejoin:round;stroke-width:6px"/><rect width="144" height="144" style="fill:none"/></svg>