<svg xmlns="http://www.w3.org/2000/svg" viewBox="0 0 144 144"><path d="M141,99H9a6.0176,6.0176,0,0,1-6-6V87a6.0176,6.0176,0,0,1,6-6H69" style="fill:none;stroke:#000;stroke-linecap:round;stroke-linejoin:round;stroke-width:6px"/><path d="M9,81a51,51,0,0,1,96-24" style="fill:none;stroke:#000;stroke-linecap:round;stroke-linejoin:round;stroke-width:6px"/><path d="M123,99V81A63.0163,63.0163,0,0,0,68.4,18.6a17.97,17.97,0,0,0-13.9,4L41.6,33.5" style="fill:none;stroke:#000;stroke-linejoin:round;stroke-width:6px"/><path d="M15,99v21a9,9,0,0,0,18,0,8.9626,8.9626,0,0,1,9-9h63a12.0353,12.0353,0,0,0,12-12" style="fill:none;stroke:#000;stroke-linecap:round;stroke-linejoin:round;stroke-width:6px"/><rect width="144" height="144" style="fill:none"/></svg>