<svg xmlns="http://www.w3.org/2000/svg" viewBox="0 0 144 144"><path d="M117.1,49.7A134.5407,134.5407,0,0,1,141,72s-30.9,39-69,39a59.9581,59.9581,0,0,1-18-2.8" style="fill:none;stroke:#000;stroke-linecap:round;stroke-linejoin:round;stroke-width:6px"/><path d="M26.8,94.2A133.3118,133.3118,0,0,1,3,72S33.9,33,72,33a61.6406,61.6406,0,0,1,15,1.9" style="fill:none;stroke:#000;stroke-linecap:round;stroke-linejoin:round;stroke-width:6px"/><path d="M48,72A23.9424,23.9424,0,0,1,72,48" style="fill:none;stroke:#000;stroke-linecap:round;stroke-linejoin:round;stroke-width:6px"/><path d="M96,72A23.9424,23.9424,0,0,1,72,96" style="fill:none;stroke:#000;stroke-linecap:round;stroke-linejoin:round;stroke-width:6px"/><line x1="130.5" y1="13.5" x2="13.5" y2="130.5" style="fill:none;stroke:#000;stroke-linecap:round;stroke-linejoin:round;stroke-width:6px"/><rect width="144" height="144" style="fill:none"/></svg>