<svg xmlns="http://www.w3.org/2000/svg" viewBox="0 0 144 144"><rect x="21" y="87" width="12" height="18" style="fill:none;stroke:#000;stroke-linecap:round;stroke-linejoin:round;stroke-width:6px"/><path d="M118.7,25.8A17.9334,17.9334,0,0,0,102.2,15H41.8A17.9334,17.9334,0,0,0,25.3,25.8L9,63V87H45V63l9-18H90l9,18V87h36V63Z" style="fill:none;stroke:#000;stroke-linecap:round;stroke-linejoin:round;stroke-width:6px"/><rect x="111" y="87" width="12" height="18" style="fill:none;stroke:#000;stroke-linecap:round;stroke-linejoin:round;stroke-width:6px"/><line x1="45" y1="75" x2="99" y2="75" style="fill:none;stroke:#000;stroke-linecap:round;stroke-linejoin:round;stroke-width:6px"/><polyline points="11.2 87 3 120 3 135 141 135 141 120 132.8 87" style="fill:none;stroke:#000;stroke-linecap:round;stroke-linejoin:round;stroke-width:6px"/><line x1="3" y1="123" x2="141" y2="123" style="fill:none;stroke:#000;stroke-linecap:round;stroke-linejoin:round;stroke-width:6px"/><rect width="144" height="144" style="fill:none"/></svg>