<svg xmlns="http://www.w3.org/2000/svg" viewBox="0 0 144 144"><polyline points="15 93 15 141 129 141 129 93" style="fill:none;stroke:#000;stroke-linejoin:round;stroke-width:6px"/><polyline points="51 93 3 93 21 51 57.9 51" style="fill:none;stroke:#000;stroke-linejoin:round;stroke-width:6px"/><polyline points="86.1 51 123 51 141 93 93 93" style="fill:none;stroke:#000;stroke-linejoin:round;stroke-width:6px"/><rect x="27" y="27" width="12" height="24" style="fill:none;stroke:#000;stroke-linejoin:round;stroke-width:6px"/><line x1="21.1" y1="27" x2="45" y2="27" style="fill:none;stroke:#000;stroke-linecap:round;stroke-linejoin:round;stroke-width:6px"/><rect x="105" y="27" width="12" height="24" style="fill:none;stroke:#000;stroke-linejoin:round;stroke-width:6px"/><line x1="99.1" y1="27" x2="123" y2="27" style="fill:none;stroke:#000;stroke-linecap:round;stroke-linejoin:round;stroke-width:6px"/><rect x="51" y="75" width="42" height="66" style="fill:none;stroke:#000;stroke-linecap:round;stroke-linejoin:round;stroke-width:6px"/><polygon points="72 33.1 105 75 39 75 72 33.1" style="fill:none;stroke:#000;stroke-linecap:round;stroke-linejoin:round;stroke-width:6px"/><rect x="105" y="105" width="12" height="12" style="fill:none;stroke:#000;stroke-linejoin:round;stroke-width:6px"/><rect x="27" y="105" width="12" height="12" style="fill:none;stroke:#000;stroke-linejoin:round;stroke-width:6px"/><rect x="63" y="105" width="18" height="36" style="fill:none;stroke:#000;stroke-linejoin:round;stroke-width:6px"/><rect width="144" height="144" style="fill:none"/></svg>