<svg xmlns="http://www.w3.org/2000/svg" viewBox="0 0 144 144"><path d="M27,33h90a6.0176,6.0176,0,0,0,6-6V15a6.0176,6.0176,0,0,0-6-6H27a6.0176,6.0176,0,0,0-6,6V27A6.0176,6.0176,0,0,0,27,33Z" style="fill:none;stroke:#000;stroke-linejoin:round;stroke-width:6px"/><path d="M117,33s18,10.5,18,30c0,23-15,72-36,72H45C24,135,9,86,9,63,9,43.5,27,33,27,33" style="fill:none;stroke:#000;stroke-linejoin:round;stroke-width:6px"/><polygon points="81 51 90 66 81 81 63 81 54 66 63 51 81 51" style="fill:none;stroke:#000;stroke-linejoin:round;stroke-width:6px"/><polygon points="81 81 90 96 81 111 63 111 54 96 63 81 81 81" style="fill:none;stroke:#000;stroke-linejoin:round;stroke-width:6px"/><polygon points="108 66 117 81 108 96 90 96 81 81 90 66 108 66" style="fill:none;stroke:#000;stroke-linejoin:round;stroke-width:6px"/><polygon points="54 66 63 81 54 96 36 96 27 81 36 66 54 66" style="fill:none;stroke:#000;stroke-linejoin:round;stroke-width:6px"/><rect width="144" height="144" style="fill:none"/></svg>