<svg xmlns="http://www.w3.org/2000/svg" viewBox="0 0 144 144"><path d="M23.2,59.3C6.5,96,41.1,135,53.5,135H90.3c9.3,0,47.9-39,29.8-76.4" style="fill:none;stroke:#000;stroke-linejoin:round;stroke-width:6px"/><path d="M105,21a6.0176,6.0176,0,0,0-6-6H45a6.0176,6.0176,0,0,0-6,6V33h66Z" style="fill:none;stroke:#000;stroke-linecap:round;stroke-linejoin:round;stroke-width:6px"/><path d="M40.5,33a2.8653,2.8653,0,0,0-2.2,1L20,54.5a3.02,3.02,0,0,0,3.2,4.9C36.1,55,38.4,51.1,45,51.2c12.1.1,15,11.8,27,11.7,12.2,0,14.3-11.9,26.7-11.7,6,.1,8.9,3.7,22.5,8.3a3.1826,3.1826,0,0,0,3.5-1.2,3.0145,3.0145,0,0,0-.3-3.6L105.9,34a3.2117,3.2117,0,0,0-2.2-1Z" style="fill:none;stroke:#000;stroke-linecap:round;stroke-linejoin:round;stroke-width:6px"/><circle cx="54" cy="102" r="6" style="fill:none;stroke:#000;stroke-linecap:round;stroke-linejoin:round;stroke-width:6px"/><circle cx="72" cy="114" r="6" style="fill:none;stroke:#000;stroke-linecap:round;stroke-linejoin:round;stroke-width:6px"/><circle cx="78" cy="96" r="6" style="fill:none;stroke:#000;stroke-linecap:round;stroke-linejoin:round;stroke-width:6px"/><rect width="144" height="144" style="fill:none"/></svg>