<svg xmlns="http://www.w3.org/2000/svg" viewBox="0 0 144 144"><line x1="77.1" y1="37" x2="129.7" y2="11.8" style="fill:none;stroke:#000;stroke-linecap:round;stroke-linejoin:round;stroke-width:6px"/><path d="M63.5,23.8a6.0535,6.0535,0,0,1,8.1,2.5L82.7,47.6a5.9942,5.9942,0,0,1-10.6,5.6L61,31.9A5.9926,5.9926,0,0,1,63.5,23.8Z" style="fill:none;stroke:#000;stroke-linejoin:round;stroke-width:6px"/><path d="M48,59.1l-8.3-16a5.9942,5.9942,0,1,1,10.6-5.6L60,56.1" style="fill:none;stroke:#000;stroke-linecap:round;stroke-linejoin:round;stroke-width:6px"/><path d="M60,56.1,47.5,32.2a5.9942,5.9942,0,1,1,10.6-5.6L72,53.2" style="fill:none;stroke:#000;stroke-linejoin:round;stroke-width:6px"/><circle cx="135" cy="9" r="6" style="fill:none;stroke:#000;stroke-linejoin:round;stroke-width:6px"/><path d="M99,105a6.0176,6.0176,0,0,1-6,6H9a6.0176,6.0176,0,0,1-6-6V99a6.0176,6.0176,0,0,1,6-6H93a6.0176,6.0176,0,0,1,6,6Z" style="fill:none;stroke:#000;stroke-linejoin:round;stroke-width:6px"/><path d="M87,111H15v.3A29.7037,29.7037,0,0,0,44.7,141H57.3A29.7037,29.7037,0,0,0,87,111.3Z" style="fill:none;stroke:#000;stroke-linejoin:round;stroke-width:6px"/><path d="M75,66v5.1a6.0176,6.0176,0,0,1-6,6c-3.3,0-6-4.8-6-8.1a12,12,0,0,1-24,0V66" style="fill:none;stroke:#000;stroke-linecap:round;stroke-linejoin:round;stroke-width:6px"/><rect width="144" height="144" style="fill:none"/></svg>