<svg xmlns="http://www.w3.org/2000/svg" viewBox="0 0 144 144"><path d="M57,117a6.0176,6.0176,0,0,1-6,6H39a6.0176,6.0176,0,0,1-6-6V57H57Z" style="fill:none;stroke:#000;stroke-linejoin:round;stroke-width:6px"/><line x1="45" y1="123" x2="45" y2="144" style="fill:none;stroke:#000;stroke-linejoin:round;stroke-width:6px"/><path d="M63,45A23.9424,23.9424,0,0,0,87,69h18a6.0176,6.0176,0,0,0,6-6V15a6.0176,6.0176,0,0,0-6-6H87A23.9424,23.9424,0,0,0,63,33Z" style="fill:none;stroke:#000;stroke-linejoin:round;stroke-width:6px"/><path d="M63,45V33a23.5138,23.5138,0,0,1,3.5-12.3v-.2L21,27V57H66.2v-.2A23.6831,23.6831,0,0,1,63,45Z" style="fill:none;stroke:#000;stroke-linejoin:round;stroke-width:6px"/><line x1="93" y1="9" x2="93" y2="69" style="fill:none;stroke:#000;stroke-linejoin:round;stroke-width:6px"/><line x1="123" y1="39" x2="134.9" y2="39" style="fill:none;stroke:#000;stroke-linecap:round;stroke-linejoin:round;stroke-width:6px"/><line x1="123.7" y1="23.8" x2="134.2" y2="18.2" style="fill:none;stroke:#000;stroke-linecap:round;stroke-linejoin:round;stroke-width:6px"/><line x1="123.7" y1="54.2" x2="134.2" y2="59.8" style="fill:none;stroke:#000;stroke-linecap:round;stroke-linejoin:round;stroke-width:6px"/><path d="M3,45A18.0529,18.0529,0,0,1,21,27V87A18.0529,18.0529,0,0,1,3,105Z" style="fill:none;stroke:#000;stroke-linejoin:round;stroke-width:6px"/><rect width="144" height="144" style="fill:none"/></svg>