<svg xmlns="http://www.w3.org/2000/svg" viewBox="0 0 144 144"><path d="M54,75c-10.9,8-10.3,23.5-6,30,2.9-2.4,5.6-5,6-9,10,4,15,11.8,15,21a24,24,0,0,1-48,0C21,97.6,34.9,79.4,54,75Z" style="fill:none;stroke:#000;stroke-linejoin:round;stroke-width:6px"/><path d="M48.6,114.6c-1.8,5.5,6,10.8,6,16.8a9.6,9.6,0,0,1-19.2,0A17.619,17.619,0,0,1,48.6,114.6Z" style="fill:none;stroke:#000;stroke-linejoin:round;stroke-width:6px"/><polyline points="23.7 83.8 17.7 77.9 89.9 5.7 132.3 48.2 76.8 103.6" style="fill:none;stroke:#000;stroke-linecap:round;stroke-linejoin:round;stroke-width:6px"/><circle cx="75" cy="63" r="12" style="fill:none;stroke:#000;stroke-linecap:round;stroke-linejoin:round;stroke-width:6px"/><line x1="81.4" y1="31.2" x2="89.9" y2="22.7" style="fill:none;stroke:#000;stroke-linecap:round;stroke-linejoin:round;stroke-width:6px"/><rect width="144" height="144" style="fill:none"/></svg>