<svg xmlns="http://www.w3.org/2000/svg" viewBox="0 0 144 144.0257"><path d="M118.2,25.8a6.01,6.01,0,0,0-8.5,8.5,5.9171,5.9171,0,0,1,0,8.5,6.0054,6.0054,0,0,1-8.5,0,6.01,6.01,0,0,0-8.5,8.5,6.01,6.01,0,0,1-8.5,8.5,6.01,6.01,0,0,0-8.5,8.5,6.01,6.01,0,0,1-8.5,8.5,6.01,6.01,0,0,0-8.5,8.5,6.0977,6.0977,0,0,1,0,8.5,5.9171,5.9171,0,0,1-8.5,0,6.0977,6.0977,0,0,0-8.5,0,5.9171,5.9171,0,0,0,0,8.5,6.01,6.01,0,0,1-8.5,8.5,5.9171,5.9171,0,0,0-8.5,0,6.0977,6.0977,0,0,0,0,8.5" style="fill:none;stroke:#000;stroke-linecap:round;stroke-linejoin:round;stroke-width:6px"/><path d="M16.4,102.2a18.0312,18.0312,0,0,0,25.5,25.5l84.9-84.9a18.0312,18.0312,0,0,0-25.5-25.5Z" style="fill:none;stroke:#000;stroke-linecap:round;stroke-linejoin:round;stroke-width:6px"/><path d="M131.4,34.7c12.4,12.9,10.2,27.2,1.7,35.7L69.4,134c-8.6,8.6-23.5,10.7-35.6-1.7" style="fill:none;stroke:#000;stroke-linejoin:round;stroke-width:6px"/><path d="M11.7,110.3C-.7,97.6,1.5,83.1,10,74.6L73.7,11C82.1,2.5,95.2.1,109.5,12.6" style="fill:none;stroke:#000;stroke-linecap:round;stroke-linejoin:round;stroke-width:6px"/><rect width="144" height="144" style="fill:none"/></svg>