<svg xmlns="http://www.w3.org/2000/svg" viewBox="0 0 144 144"><line x1="126" y1="141" x2="18" y2="141" style="fill:none;stroke:#000;stroke-linecap:round;stroke-linejoin:round;stroke-width:6px"/><rect x="51" y="81" width="42" height="60" style="fill:none;stroke:#000;stroke-linecap:round;stroke-linejoin:round;stroke-width:6px"/><polygon points="72 51 87 81 57 81 72 51" style="fill:none;stroke:#000;stroke-linecap:round;stroke-linejoin:round;stroke-width:6px"/><polygon points="72 3 78 15 90 15 80.3 22.4 84 36 72 27 60 36 64.8 22.4 54 15 66 15 72 3" style="fill:none;stroke:#000;stroke-linejoin:round;stroke-width:6px"/><polygon points="117 27 123 39 135 39 125.3 46.4 129 60 117 51 105 60 109.8 46.4 99 39 111 39 117 27" style="fill:none;stroke:#000;stroke-linejoin:round;stroke-width:6px"/><polygon points="123 75 129 87 141 87 131.3 94.4 135 108 123 99 111 108 115.8 94.4 105 87 117 87 123 75" style="fill:none;stroke:#000;stroke-linejoin:round;stroke-width:6px"/><polygon points="21 75 27 87 39 87 29.3 94.4 33 108 21 99 9 108 13.8 94.4 3 87 15 87 21 75" style="fill:none;stroke:#000;stroke-linejoin:round;stroke-width:6px"/><polygon points="27 27 33 39 45 39 35.3 46.4 39 60 27 51 15 60 19.8 46.4 9 39 21 39 27 27" style="fill:none;stroke:#000;stroke-linejoin:round;stroke-width:6px"/><polyline points="63 141 63 123 81 123 81 141" style="fill:none;stroke:#000;stroke-linecap:round;stroke-linejoin:round;stroke-width:6px"/><line x1="63" y1="93" x2="63" y2="96" style="fill:none;stroke:#000;stroke-linecap:round;stroke-linejoin:round;stroke-width:6px"/><line x1="81" y1="93" x2="81" y2="96" style="fill:none;stroke:#000;stroke-linecap:round;stroke-linejoin:round;stroke-width:6px"/><line x1="63" y1="108" x2="63" y2="111" style="fill:none;stroke:#000;stroke-linecap:round;stroke-linejoin:round;stroke-width:6px"/><line x1="81" y1="108" x2="81" y2="111" style="fill:none;stroke:#000;stroke-linecap:round;stroke-linejoin:round;stroke-width:6px"/><rect width="144" height="144" style="fill:none"/></svg>