<svg xmlns="http://www.w3.org/2000/svg" viewBox="0 0 144 144"><polyline points="21 81 21 141 123 141 123 84" style="fill:none;stroke:#000;stroke-linecap:round;stroke-linejoin:round;stroke-width:6px"/><polyline points="3 78 72 9 141 78" style="fill:none;stroke:#000;stroke-linecap:round;stroke-linejoin:round;stroke-width:6px"/><polyline points="96 15 117 15 117 36" style="fill:none;stroke:#000;stroke-linecap:round;stroke-linejoin:round;stroke-width:6px"/><path d="M102,84.6c0,15.6-25.2,34.2-28.2,36.6a3,3,0,0,1-3.6,0c-3-1.8-28.2-21-28.2-36.6,0-11.4,8.4-18,16.2-18C63,66.6,68.4,69,72,75c3.6-6,9-8.4,13.8-8.4C93.6,66.6,102,73.2,102,84.6Z" style="fill:none;stroke:#000;stroke-linejoin:round;stroke-width:6px"/><rect width="144" height="144" style="fill:none"/></svg>