<svg xmlns="http://www.w3.org/2000/svg" viewBox="0 0 144 144"><polyline points="21 75 21 141 123 141" style="fill:none;stroke:#000;stroke-linecap:round;stroke-linejoin:round;stroke-width:6px"/><polyline points="3 72 72 9 141 72" style="fill:none;stroke:#000;stroke-linecap:round;stroke-linejoin:round;stroke-width:6px"/><polyline points="96 15 117 15 117 36" style="fill:none;stroke:#000;stroke-linecap:round;stroke-linejoin:round;stroke-width:6px"/><rect x="63" y="39" width="18" height="18" style="fill:none;stroke:#000;stroke-linecap:round;stroke-linejoin:round;stroke-width:6px"/><path d="M116.7,119.7V96.3h4.2c5.2,0,8,5.3,8,11.7,0,6.5-2.8,11.7-8,11.7Z" style="fill:none;stroke:#000;stroke-linecap:round;stroke-linejoin:round;stroke-width:6px"/><polyline points="108 119.5 99 119.5 99 96" style="fill:none;stroke:#000;stroke-linecap:round;stroke-linejoin:round;stroke-width:6px"/><path d="M89.9,108c0,6.6-1,12-6.6,12-5.7,0-6.6-5.4-6.6-12s1-12,6.6-12S89.9,101.4,89.9,108Z" style="fill:none;stroke:#000;stroke-linecap:round;stroke-linejoin:round;stroke-width:6px"/><path d="M54,114.4a5.6069,5.6069,0,1,0,11.2-.4c0-4.9-4.6-5.7-5.6-6s-5.6-1.1-5.6-6a5.6069,5.6069,0,1,1,11.2-.4" style="fill:none;stroke:#000;stroke-linecap:round;stroke-linejoin:round;stroke-width:6px"/><rect width="144" height="144" style="fill:none"/></svg>