<svg xmlns="http://www.w3.org/2000/svg" viewBox="0 0 144 144"><path d="M131.4,132.7l6-10.4-6-3.5a19.9021,19.9021,0,0,0,0-9.7l6-3.5-6-10.4-6,3.5a21.9532,21.9532,0,0,0-8.4-4.8v-7H105v7a21.9532,21.9532,0,0,0-8.4,4.8l-6-3.5-6,10.4,6,3.5a19.9021,19.9021,0,0,0,0,9.7l-6,3.5,6,10.4,6-3.5A21.9532,21.9532,0,0,0,105,134v7h12v-7a21.9532,21.9532,0,0,0,8.4-4.8Z" style="fill:none;stroke:#000;stroke-linejoin:round;stroke-width:6px"/><circle cx="111" cy="114" r="9" style="fill:none;stroke:#000;stroke-linejoin:round;stroke-width:6px"/><polyline points="21 75 21 141 69 141" style="fill:none;stroke:#000;stroke-linecap:round;stroke-linejoin:round;stroke-width:6px"/><polyline points="3 72 72 9 141 72" style="fill:none;stroke:#000;stroke-linecap:round;stroke-linejoin:round;stroke-width:6px"/><polyline points="96 15 117 15 117 36" style="fill:none;stroke:#000;stroke-linecap:round;stroke-linejoin:round;stroke-width:6px"/><rect x="63" y="39" width="18" height="18" style="fill:none;stroke:#000;stroke-linecap:round;stroke-linejoin:round;stroke-width:6px"/><rect width="144" height="144" style="fill:none"/></svg>