<svg xmlns="http://www.w3.org/2000/svg" viewBox="0 0 144 144"><polyline points="51 51 51 81 105 81 105 51" style="fill:none;stroke:#000;stroke-linecap:round;stroke-linejoin:round;stroke-width:6px"/><polyline points="33 42 78 3 123 42" style="fill:none;stroke:#000;stroke-linecap:round;stroke-linejoin:round;stroke-width:6px"/><polyline points="96 3 111 3 111 18" style="fill:none;stroke:#000;stroke-linecap:round;stroke-linejoin:round;stroke-width:6px"/><rect x="3" y="87" width="24" height="48" style="fill:none;stroke:#000;stroke-linejoin:round;stroke-width:6px"/><path d="M27,126.4c63,21,42,21,114-15-6.4-6.4-11.4-7.9-18-6l-25.9,8.2" style="fill:none;stroke:#000;stroke-linecap:round;stroke-linejoin:round;stroke-width:6px"/><path d="M27,93H45c14.1,0,24,12,27,12H93c6,0,6,12,0,12H60" style="fill:none;stroke:#000;stroke-linecap:round;stroke-linejoin:round;stroke-width:6px"/><rect x="69" y="57" width="18" height="24" style="fill:none;stroke:#000;stroke-linecap:round;stroke-linejoin:round;stroke-width:6px"/><rect width="144" height="144" style="fill:none"/></svg>