<svg xmlns="http://www.w3.org/2000/svg" viewBox="0 0 144 144"><circle cx="102" cy="132" r="9" style="fill:none;stroke:#000;stroke-linecap:round;stroke-linejoin:round;stroke-width:6px"/><path d="M105,123H39V99A12.0353,12.0353,0,0,1,51,87h54Z" style="fill:none;stroke:#000;stroke-linecap:round;stroke-linejoin:round;stroke-width:6px"/><line x1="105" y1="87" x2="125.2" y2="70.8" style="fill:none;stroke:#000;stroke-linecap:round;stroke-linejoin:round;stroke-width:6px"/><line x1="45" y1="123" x2="45" y2="141" style="fill:none;stroke:#000;stroke-linecap:round;stroke-linejoin:round;stroke-width:6px"/><path d="M120.7,57A51.749,51.749,0,1,0,17.3,57s-.1-9,11.2-9S42,57,42,57s2.3-9,13.5-9S69,57,69,57s4.5-9,13.5-9S96,57,96,57s4.5-9,13.5-9S120.7,57,120.7,57Z" style="fill:none;stroke:#000;stroke-linejoin:round;stroke-width:6px"/><line x1="69" y1="87" x2="69" y2="57" style="fill:none;stroke:#000;stroke-linecap:round;stroke-linejoin:round;stroke-width:6px"/><rect width="144" height="144" style="fill:none"/></svg>