<svg xmlns="http://www.w3.org/2000/svg" viewBox="0 0 144 144"><path d="M21,24V99a12.0353,12.0353,0,0,0,12,12h78a12.0353,12.0353,0,0,0,12-12A23.9424,23.9424,0,0,0,99,75H93A23.9424,23.9424,0,0,1,69,51V6Z" style="fill:none;stroke:#000;stroke-linejoin:round;stroke-width:6px"/><path d="M39,111v12H18a9,9,0,0,0,0,18H126a9,9,0,0,0,0-18H105V111" style="fill:none;stroke:#000;stroke-linejoin:round;stroke-width:6px"/><polyline points="51 111 51 123 93 123 93 111" style="fill:none;stroke:#000;stroke-linejoin:round;stroke-width:6px"/><path d="M69,33H51V69A23.9424,23.9424,0,0,0,75,93h47.1A24.0044,24.0044,0,0,0,99,75H93A23.9424,23.9424,0,0,1,69,51Z" style="fill:none;stroke:#000;stroke-linejoin:round;stroke-width:6px"/><line x1="51" y1="51" x2="69" y2="51" style="fill:none;stroke:#000;stroke-linejoin:round;stroke-width:6px"/><line x1="51" y1="69" x2="77.1" y2="69" style="fill:none;stroke:#000;stroke-linejoin:round;stroke-width:6px"/><rect width="144" height="144" style="fill:none"/></svg>