<svg xmlns="http://www.w3.org/2000/svg" viewBox="0 0 144 144"><path d="M27,33v84H51v-4.5a10.5,10.5,0,0,1,21,0V117H96v-4.5a10.5,10.5,0,0,1,21,0V117h24V33Z" style="fill:none;stroke:#000;stroke-linejoin:round;stroke-width:6px"/><polyline points="117 21 117 9 3 9 3 93 15 93" style="fill:none;stroke:#000;stroke-linecap:round;stroke-linejoin:round;stroke-width:6px"/><circle cx="63" cy="59.6" r="9" style="fill:none;stroke:#000;stroke-linejoin:round;stroke-width:6px"/><path d="M63,68.5c-12.9,0-18,10.9-18,18.6H81C81,79.4,75.9,68.5,63,68.5Z" style="fill:none;stroke:#000;stroke-linejoin:round;stroke-width:6px"/><line x1="96" y1="81" x2="126" y2="81" style="fill:none;stroke:#000;stroke-linejoin:round;stroke-width:6px"/><line x1="96" y1="69" x2="126" y2="69" style="fill:none;stroke:#000;stroke-linejoin:round;stroke-width:6px"/><line x1="96" y1="57" x2="111" y2="57" style="fill:none;stroke:#000;stroke-linejoin:round;stroke-width:6px"/><rect width="144" height="144" style="fill:none"/></svg>