<svg xmlns="http://www.w3.org/2000/svg" viewBox="0 0 144 144"><path d="M3,21V123H27v-9a10.5,10.5,0,0,1,21,0v9H96v-9a10.5,10.5,0,0,1,21,0v9h24V21Z" style="fill:none;stroke:#000;stroke-linejoin:round;stroke-width:6px"/><line x1="78" y1="81" x2="126" y2="81" style="fill:none;stroke:#000;stroke-linejoin:round;stroke-width:6px"/><line x1="78" y1="69" x2="126" y2="69" style="fill:none;stroke:#000;stroke-linejoin:round;stroke-width:6px"/><line x1="78" y1="57" x2="126" y2="57" style="fill:none;stroke:#000;stroke-linejoin:round;stroke-width:6px"/><line x1="78" y1="45" x2="102" y2="45" style="fill:none;stroke:#000;stroke-linejoin:round;stroke-width:6px"/><path d="M42,87H15V75s9-9,21-9V60s-6-3-6-12c0-6,0-12,12-12s12,6,12,12c0,9-6,12-6,12v6c12,0,21,9,21,9V87Z" style="fill:none;stroke:#000;stroke-linecap:round;stroke-linejoin:round;stroke-width:6px"/><rect width="144" height="144" style="fill:none"/></svg>