<svg xmlns="http://www.w3.org/2000/svg" viewBox="0 0 144 144"><path d="M3,21v96H27v-4.5a10.5,10.5,0,0,1,21,0V117H96v-4.5a10.5,10.5,0,0,1,21,0V117h24V21Z" style="fill:none;stroke:#000;stroke-linejoin:round;stroke-width:6px"/><circle cx="42" cy="51" r="12" style="fill:none;stroke:#000;stroke-linejoin:round;stroke-width:6px"/><path d="M42,63c-15,0-21,9-21,18H63C63,72,57,63,42,63Z" style="fill:none;stroke:#000;stroke-linejoin:round;stroke-width:6px"/><line x1="78" y1="81" x2="126" y2="81" style="fill:none;stroke:#000;stroke-linejoin:round;stroke-width:6px"/><line x1="78" y1="69" x2="126" y2="69" style="fill:none;stroke:#000;stroke-linejoin:round;stroke-width:6px"/><line x1="78" y1="57" x2="126" y2="57" style="fill:none;stroke:#000;stroke-linejoin:round;stroke-width:6px"/><line x1="78" y1="45" x2="102" y2="45" style="fill:none;stroke:#000;stroke-linejoin:round;stroke-width:6px"/><rect width="144" height="144" style="fill:none"/></svg>