<svg xmlns="http://www.w3.org/2000/svg" viewBox="0 0 144 144"><path d="M63,93.6V102l-18,4.4a8.5651,8.5651,0,0,0-6,7.6v3" style="fill:none;stroke:#000;stroke-linejoin:round;stroke-width:6px"/><path d="M81,93.6V102l18,4.4a8.4578,8.4578,0,0,1,6,7.6v3" style="fill:none;stroke:#000;stroke-linejoin:round;stroke-width:6px"/><ellipse cx="72" cy="76.6" rx="18" ry="19.6" style="fill:none;stroke:#000;stroke-linejoin:round;stroke-width:6px"/><path d="M89.7,73.3c-3,3-11.5,2.8-14.7-3.3-6,6-15.8,6-20.6,2.6" style="fill:none;stroke:#000;stroke-linejoin:round;stroke-width:6px"/><polyline points="87 27 123 27 123 141 21 141 21 27 57 27" style="fill:none;stroke:#000;stroke-linejoin:round;stroke-width:6px"/><path d="M87,45H57V18a15,15,0,0,1,30,0Z" style="fill:none;stroke:#000;stroke-linejoin:round;stroke-width:6px"/><line x1="21" y1="117" x2="123" y2="117" style="fill:none;stroke:#000;stroke-linejoin:round;stroke-width:6px"/><line x1="84" y1="129" x2="108" y2="129" style="fill:none;stroke:#000;stroke-linejoin:round;stroke-width:6px"/><path d="M75,18a2.9465,2.9465,0,0,1-3,3h0a2.9465,2.9465,0,0,1-3-3h0a2.9465,2.9465,0,0,1,3-3h0a2.9465,2.9465,0,0,1,3,3Z" style="fill:none;stroke:#000;stroke-linejoin:round;stroke-width:6px"/><rect width="144" height="144" style="fill:none"/></svg>