<svg xmlns="http://www.w3.org/2000/svg" viewBox="0 0 144 144"><path d="M62.8,108H81.1" style="fill:none;stroke:#000;stroke-linecap:round;stroke-linejoin:round;stroke-width:6px"/><path d="M81.2,108h53.7a6.56,6.56,0,0,0,6.1-6.1V24.4a6.0557,6.0557,0,0,0-6.1-6.1H9.1A6.0557,6.0557,0,0,0,3,24.4v77.5A6.0557,6.0557,0,0,0,9.1,108H62.8" style="fill:none;stroke:#000;stroke-linecap:round;stroke-linejoin:round;stroke-width:6px"/><rect x="15.2" y="29.9" width="113.6" height="65.9" style="fill:none;stroke:#000;stroke-linecap:round;stroke-linejoin:round;stroke-width:6px"/><line x1="62.8" y1="125.7" x2="42.1" y2="125.7" style="fill:none;stroke:#000;stroke-linecap:round;stroke-linejoin:round;stroke-width:6px"/><line x1="101.9" y1="125.7" x2="81.2" y2="125.7" style="fill:none;stroke:#000;stroke-linecap:round;stroke-linejoin:round;stroke-width:6px"/><line x1="81.2" y1="125.7" x2="62.8" y2="125.7" style="fill:none;stroke:#000;stroke-linecap:round;stroke-linejoin:round;stroke-width:6px"/><line x1="62.8" y1="108" x2="62.8" y2="125.7" style="fill:none;stroke:#000;stroke-linecap:round;stroke-linejoin:round;stroke-width:6px"/><line x1="81.2" y1="108" x2="81.2" y2="125.7" style="fill:none;stroke:#000;stroke-linecap:round;stroke-linejoin:round;stroke-width:6px"/><path d="M56.7,64.7c0,7.3,4.9,13.4,12.2,15.9v3.1h7.9V80c8.5-2.4,14-11,11.6-19.5s-11-14-19.5-11.6A16.0781,16.0781,0,0,0,56.7,64.7Z" style="fill:none;stroke:#000;stroke-linecap:round;stroke-linejoin:round;stroke-width:6px"/><line x1="76.9" y1="88.5" x2="68.9" y2="88.5" style="fill:none;stroke:#000;stroke-linecap:round;stroke-linejoin:round;stroke-width:6px"/><line x1="72.6" y1="43.3" x2="72.6" y2="37.8" style="fill:none;stroke:#000;stroke-linecap:round;stroke-linejoin:round;stroke-width:6px"/><line x1="99.5" y1="64.7" x2="94" y2="64.7" style="fill:none;stroke:#000;stroke-linecap:round;stroke-linejoin:round;stroke-width:6px"/><line x1="51.2" y1="64.7" x2="45.7" y2="64.7" style="fill:none;stroke:#000;stroke-linecap:round;stroke-linejoin:round;stroke-width:6px"/><line x1="57.3" y1="49.4" x2="51.8" y2="43.9" style="fill:none;stroke:#000;stroke-linecap:round;stroke-linejoin:round;stroke-width:6px"/><line x1="87.9" y1="49.4" x2="93.4" y2="43.9" style="fill:none;stroke:#000;stroke-linecap:round;stroke-linejoin:round;stroke-width:6px"/><rect width="144" height="144" style="fill:none"/></svg>