<svg xmlns="http://www.w3.org/2000/svg" viewBox="0 0 144 144"><polyline points="21 108 3 96 21 84 3 72 21 60 3 48 21 36" style="fill:none;stroke:#000;stroke-linecap:round;stroke-linejoin:round;stroke-width:6px"/><polyline points="123 108 141 96 123 84 141 72 123 60 141 48 123 36" style="fill:none;stroke:#000;stroke-linecap:round;stroke-linejoin:round;stroke-width:6px"/><path d="M54,45l8.2-12H81.8L90,45h12c5,0,9,5.1,9,10.1V90a9.0264,9.0264,0,0,1-9,9H42a9.0919,9.0919,0,0,1-9-9V55.1c0-5,4.1-10.1,9-10.1H54" style="fill:none;stroke:#000;stroke-linecap:round;stroke-linejoin:round;stroke-width:6px"/><circle cx="72" cy="72" r="15" style="fill:none;stroke:#000;stroke-linejoin:round;stroke-width:6px"/><path d="M99,54a3,3,0,1,0,3,3,2.9465,2.9465,0,0,0-3-3Z" style="fill:#000"/><rect width="144" height="144" style="fill:none"/></svg>