<svg xmlns="http://www.w3.org/2000/svg" viewBox="0 0 144 144"><path d="M93.7,59.6C93.9,55.1,96,48,105.4,48c9.9,0,11.6,8,11.6,12.4S114.9,75,105,75" style="fill:none;stroke:#000;stroke-linecap:round;stroke-linejoin:round;stroke-width:6px"/><path d="M93.7,87.4C93.9,91.9,96,99,105.3,99c9.9,0,11.6-8,11.6-12.4S114.8,75,104.9,75" style="fill:none;stroke:#000;stroke-linecap:round;stroke-linejoin:round;stroke-width:6px"/><path d="M141,93a23.9424,23.9424,0,0,1-24,24H27A23.9424,23.9424,0,0,1,3,93V57A23.9424,23.9424,0,0,1,27,33h90a23.9424,23.9424,0,0,1,24,24Z" style="fill:none;stroke:#000;stroke-linejoin:round;stroke-width:6px"/><polyline points="45 99 45 48 24 87 54 87" style="fill:none;stroke:#000;stroke-linecap:round;stroke-linejoin:round;stroke-width:6px"/><circle cx="72" cy="60" r="6" style="fill:none;stroke:#000;stroke-linecap:round;stroke-linejoin:round;stroke-width:6px"/><circle cx="72" cy="90" r="6" style="fill:none;stroke:#000;stroke-linecap:round;stroke-linejoin:round;stroke-width:6px"/><rect width="144" height="144" style="fill:none"/></svg>