<svg xmlns="http://www.w3.org/2000/svg" viewBox="0 0 144 144"><path d="M141,93a23.9424,23.9424,0,0,1-24,24H27A23.9424,23.9424,0,0,1,3,93V57A23.9424,23.9424,0,0,1,27,33h90a23.9424,23.9424,0,0,1,24,24Z" style="fill:none;stroke:#000;stroke-linejoin:round;stroke-width:6px"/><circle cx="81" cy="60" r="6" style="fill:none;stroke:#000;stroke-linecap:round;stroke-linejoin:round;stroke-width:6px"/><circle cx="81" cy="90" r="6" style="fill:none;stroke:#000;stroke-linecap:round;stroke-linejoin:round;stroke-width:6px"/><polyline points="27 98.4 27 54 15 63" style="fill:none;stroke:#000;stroke-linecap:round;stroke-linejoin:round;stroke-width:6px"/><path d="M50.9,72.1c10.1,0,11.9,8.7,11.9,13.5C62.8,90.3,61,99,50.9,99S39,90.3,39,85.5,40.8,72.1,50.9,72.1Z" style="fill:none;stroke:#000;stroke-linecap:round;stroke-linejoin:round;stroke-width:6px"/><path d="M56.8,54C41.8,54,39,65.7,39,72.8V85.5" style="fill:none;stroke:#000;stroke-linecap:round;stroke-linejoin:round;stroke-width:6px"/><path d="M111.1,80.9c-10.1,0-11.9-8.7-11.9-13.5s1.8-13.5,11.9-13.5S123,62.6,123,67.4C123,72.3,121.2,80.9,111.1,80.9Z" style="fill:none;stroke:#000;stroke-linecap:round;stroke-linejoin:round;stroke-width:6px"/><path d="M105,99c15,0,18-11.7,18-18.8V67.5" style="fill:none;stroke:#000;stroke-linecap:round;stroke-linejoin:round;stroke-width:6px"/><rect width="144" height="144" style="fill:none"/></svg>