<svg xmlns="http://www.w3.org/2000/svg" viewBox="0 0 144 144"><path d="M114,27H94.9L81.8,15H62.2L49.1,27H30c-4.9,0-9,5.1-9,10.1V78a9.0919,9.0919,0,0,0,9,9H54l18,33L90,87h24a9.0264,9.0264,0,0,0,9-9V37.1C123,32.1,119,27,114,27Z" style="fill:none;stroke:#000;stroke-linecap:round;stroke-linejoin:round;stroke-width:6px"/><circle cx="72" cy="54" r="18" style="fill:none;stroke:#000;stroke-linejoin:round;stroke-width:6px"/><path d="M105,42a3,3,0,1,0,3,3,2.9465,2.9465,0,0,0-3-3Z" style="fill:#000"/><rect width="144" height="144" style="fill:none"/></svg>