<svg xmlns="http://www.w3.org/2000/svg" viewBox="0 0 144 144"><path d="M72,26.9a27.015,27.015,0,0,0-27,27v3a12.0353,12.0353,0,0,0,12,12v6a12.0353,12.0353,0,0,0,12,12h6a12.0353,12.0353,0,0,0,12-12v-6a12.0353,12.0353,0,0,0,12-12v-3A26.9511,26.9511,0,0,0,72,26.9Z" style="fill:none;stroke:#000;stroke-linecap:round;stroke-linejoin:round;stroke-width:6px"/><circle cx="60" cy="47.9" r="6" style="fill:none;stroke:#000;stroke-linecap:round;stroke-linejoin:round;stroke-width:6px"/><circle cx="84" cy="47.9" r="6" style="fill:none;stroke:#000;stroke-linecap:round;stroke-linejoin:round;stroke-width:6px"/><polyline points="111 87 111 9 33 9 33 87" style="fill:none;stroke:#000;stroke-linecap:round;stroke-linejoin:round;stroke-width:6px"/><path d="M141,141H3V99H48v6a12.0353,12.0353,0,0,0,12,12H87a12.0353,12.0353,0,0,0,12-12V99h42Z" style="fill:none;stroke:#000;stroke-linecap:round;stroke-linejoin:round;stroke-width:6px"/><polyline points="3 99 24 63 33 63" style="fill:none;stroke:#000;stroke-linecap:round;stroke-linejoin:round;stroke-width:6px"/><polyline points="111 63 120 63 141 99" style="fill:none;stroke:#000;stroke-linecap:round;stroke-linejoin:round;stroke-width:6px"/><rect width="144" height="144" style="fill:none"/></svg>