<svg xmlns="http://www.w3.org/2000/svg" viewBox="0 0 144 144"><path d="M141,141H3V99H48v6a12.0353,12.0353,0,0,0,12,12H87a12.0353,12.0353,0,0,0,12-12V99h42Z" style="fill:none;stroke:#000;stroke-linecap:round;stroke-linejoin:round;stroke-width:6px"/><polyline points="3 99 24 63 33 63" style="fill:none;stroke:#000;stroke-linecap:round;stroke-linejoin:round;stroke-width:6px"/><polyline points="111 63 120 63 141 99" style="fill:none;stroke:#000;stroke-linecap:round;stroke-linejoin:round;stroke-width:6px"/><polyline points="33 86.9 33 9 111 9 111 86.9" style="fill:none;stroke:#000;stroke-linecap:round;stroke-linejoin:round;stroke-width:6px"/><polygon points="98.7 75 85.9 43.8 72 64.5 57.4 52.5 45.8 75 98.7 75" style="fill:none;stroke:#000;stroke-linejoin:round;stroke-width:6px"/><circle cx="58.1" cy="31.3" r="5.2" style="fill:none;stroke:#000;stroke-linejoin:round;stroke-width:6px"/><rect width="144" height="144" style="fill:none"/></svg>