<svg xmlns="http://www.w3.org/2000/svg" viewBox="0 0 144 144"><polyline points="111 87 111 9 33 9 33 87" style="fill:none;stroke:#000;stroke-linecap:round;stroke-linejoin:round;stroke-width:6px"/><path d="M141,141H3V99H48v6a12.0353,12.0353,0,0,0,12,12H87a12.0353,12.0353,0,0,0,12-12V99h42Z" style="fill:none;stroke:#000;stroke-linecap:round;stroke-linejoin:round;stroke-width:6px"/><polyline points="3 99 24 63 33 63" style="fill:none;stroke:#000;stroke-linecap:round;stroke-linejoin:round;stroke-width:6px"/><polyline points="111 63 120 63 141 99" style="fill:none;stroke:#000;stroke-linecap:round;stroke-linejoin:round;stroke-width:6px"/><path d="M72,72.9s23.7-17.2,23.7-30c0-14.7-19.4-19.4-23.7-1.5-4.3-17.9-23.7-13.3-23.7,1.5C48.3,55.7,72,72.9,72,72.9Z" style="fill:none;stroke:#000;stroke-linejoin:round;stroke-width:6px"/><rect width="144" height="144" style="fill:none"/></svg>