<svg xmlns="http://www.w3.org/2000/svg" viewBox="0 0 144 144"><rect x="3" y="87.1" width="23.8" height="48.1" style="fill:none;stroke:#000;stroke-linecap:round;stroke-linejoin:round;stroke-width:6px"/><path d="M27.4,126.1C91.5,148,67.7,148,141,110.8c-6.7-6.1-11.6-7.9-17.7-6.1l-26.9,8.5" style="fill:none;stroke:#000;stroke-linecap:round;stroke-linejoin:round;stroke-width:6px"/><path d="M27.4,93.2H45.1c10.4.6,20.2,4.9,26.9,12.2H89.7c9.8,0,9.8,12.2,0,12.2H57.3" style="fill:none;stroke:#000;stroke-linecap:round;stroke-linejoin:round;stroke-width:6px"/><path d="M105.6,43.8c0-13.4-11-23.8-24.4-23.8A24.0735,24.0735,0,0,0,57.3,44.4,22.7772,22.7772,0,0,0,75,66.9v4.9H87.2V67A24.28,24.28,0,0,0,105.6,43.8Z" style="fill:none;stroke:#000;stroke-linecap:round;stroke-linejoin:round;stroke-width:6px"/><line x1="83" y1="88.3" x2="79.3" y2="88.3" style="fill:none;stroke:#000;stroke-linecap:round;stroke-linejoin:round;stroke-width:6px"/><line x1="87.3" y1="79.8" x2="75.1" y2="79.8" style="fill:none;stroke:#000;stroke-linecap:round;stroke-linejoin:round;stroke-width:6px"/><line x1="81.2" y1="3" x2="81.2" y2="11.5" style="fill:none;stroke:#000;stroke-linecap:round;stroke-linejoin:round;stroke-width:6px"/><line x1="121.5" y1="43.8" x2="113.5" y2="43.8" style="fill:none;stroke:#000;stroke-linecap:round;stroke-linejoin:round;stroke-width:6px"/><line x1="40.9" y1="43.8" x2="48.8" y2="43.8" style="fill:none;stroke:#000;stroke-linecap:round;stroke-linejoin:round;stroke-width:6px"/><line x1="50" y1="12.1" x2="58.6" y2="20.7" style="fill:none;stroke:#000;stroke-linecap:round;stroke-linejoin:round;stroke-width:6px"/><line x1="112.9" y1="12.1" x2="104.4" y2="20.7" style="fill:none;stroke:#000;stroke-linecap:round;stroke-linejoin:round;stroke-width:6px"/><rect width="144" height="144" style="fill:none"/></svg>