<svg xmlns="http://www.w3.org/2000/svg" viewBox="0 0 144 144"><polygon points="39 39 57 39 57 54 72 39 105 39 105 3 39 3 39 39" style="fill:none;stroke:#000;stroke-linejoin:round;stroke-width:6px"/><line x1="51" y1="27" x2="81" y2="27" style="fill:none;stroke:#000;stroke-linecap:round;stroke-linejoin:round;stroke-width:6px"/><line x1="51" y1="15" x2="93" y2="15" style="fill:none;stroke:#000;stroke-linecap:round;stroke-linejoin:round;stroke-width:6px"/><polyline points="62 124 83 125 127 108 66 106 51 111" style="fill:none;stroke:#000;stroke-linecap:round;stroke-linejoin:round;stroke-width:6px"/><path d="M117,108V87H81v19" style="fill:none;stroke:#000;stroke-linejoin:round;stroke-width:6px"/><path d="M99,50c6.06,0,11,5.57,11,11.63S105.06,73,99,73,88,67.68,88,61.63,92.94,50,99,50Z" style="fill:none;stroke:#000;stroke-linejoin:round;stroke-width:6px"/><path d="M23,111v19c0,6,1.91,11,8,11H52c6,0,8-5,8-11V111Z" style="fill:none;stroke:#000;stroke-linejoin:round;stroke-width:6px"/><ellipse cx="41.61" cy="86" rx="10.96" ry="11" style="fill:none;stroke:#000;stroke-linejoin:round;stroke-width:6px"/><rect width="144" height="144" style="fill:none"/></svg>