<svg xmlns="http://www.w3.org/2000/svg" viewBox="0 0 144 144"><path d="M75,51A12.0353,12.0353,0,0,0,63,39H15A12.0353,12.0353,0,0,0,3,51v78a12.0353,12.0353,0,0,0,12,12H63a12.0353,12.0353,0,0,0,12-12Z" style="fill:none;stroke:#000;stroke-linejoin:round;stroke-width:6px"/><rect x="15" y="57" width="48" height="24" style="fill:none;stroke:#000;stroke-linejoin:round;stroke-width:6px"/><circle cx="39" cy="111" r="18" style="fill:none;stroke:#000;stroke-linejoin:round;stroke-width:6px"/><circle cx="39" cy="111" r="3" style="fill:none;stroke:#000;stroke-linejoin:round;stroke-width:6px"/><path d="M57,39V24a8.9626,8.9626,0,0,1,9-9h63a12,12,0,0,1,0,24H105a12,12,0,0,0,0,24h24a12,12,0,0,1,0,24H111A12.0353,12.0353,0,0,0,99,99v12" style="fill:none;stroke:#000;stroke-linejoin:round;stroke-width:6px"/><polyline points="113.4 129 93 129 93 111 113.4 111" style="fill:none;stroke:#000;stroke-linejoin:round;stroke-width:6px"/><path d="M129,138a18,18,0,0,1,0-36Z" style="fill:none;stroke:#000;stroke-linejoin:round;stroke-width:6px"/><rect width="144" height="144" style="fill:none"/></svg>