<svg xmlns="http://www.w3.org/2000/svg" viewBox="0 0 144 144"><path d="M110.5,141c0-21-31.4-27-53.7-27C34.4,114,3,120,3,141Z" style="fill:none;stroke:#000;stroke-linejoin:round;stroke-width:6px"/><polyline points="36.5 115.7 72 51 69.1 114.6" style="fill:none;stroke:#000;stroke-linejoin:round;stroke-width:6px"/><path d="M72,51C51,66,30,66,5.7,64.7,18,36,57,39,72,45Z" style="fill:none;stroke:#000;stroke-linejoin:round;stroke-width:6px"/><path d="M27,27c21.6-14.4,45,3,45,18Z" style="fill:none;stroke:#000;stroke-linejoin:round;stroke-width:6px"/><path d="M72,51c15,18,42,15,66.3,13.7C126,36,87,39,72,45Z" style="fill:none;stroke:#000;stroke-linejoin:round;stroke-width:6px"/><path d="M117,27C95.4,12.6,72,30,72,45Z" style="fill:none;stroke:#000;stroke-linejoin:round;stroke-width:6px"/><line x1="60" y1="102" x2="69.6" y2="102" style="fill:none;stroke:#000;stroke-linecap:round;stroke-linejoin:round;stroke-width:6px"/><line x1="63" y1="90" x2="70.1" y2="90" style="fill:none;stroke:#000;stroke-linecap:round;stroke-linejoin:round;stroke-width:6px"/><rect width="144" height="144" style="fill:none"/></svg>