<svg xmlns="http://www.w3.org/2000/svg" viewBox="0 0 144 144"><path d="M111,57v72a12.0353,12.0353,0,0,1-12,12H45a12.0353,12.0353,0,0,1-12-12V57" style="fill:none;stroke:#000;stroke-linejoin:round;stroke-width:6px"/><path d="M117,39l3,12a15.0559,15.0559,0,0,1-12,6,14.8419,14.8419,0,0,1-9-3.1,14.6145,14.6145,0,0,1-18,0,14.6145,14.6145,0,0,1-18,0,14.6145,14.6145,0,0,1-18,0A14.8419,14.8419,0,0,1,36,57a15.0559,15.0559,0,0,1-12-6l3-12a6.0176,6.0176,0,0,1-6-6V27a6.0176,6.0176,0,0,1,6-6h90a6.0176,6.0176,0,0,1,6,6v6A6.0176,6.0176,0,0,1,117,39Z" style="fill:none;stroke:#000;stroke-linejoin:round;stroke-width:6px"/><line x1="27" y1="39" x2="117" y2="39" style="fill:none;stroke:#000;stroke-linejoin:round;stroke-width:6px"/><rect x="51" y="87" width="42" height="30" style="fill:none;stroke:#000;stroke-linejoin:round;stroke-width:6px"/><rect width="144" height="144" style="fill:none"/></svg>