<svg xmlns="http://www.w3.org/2000/svg" viewBox="0 0 144 144"><path d="M112.4,29.1a27.1,27.1,0,0,0-38.2,0" style="fill:none;stroke:#000;stroke-linecap:round;stroke-linejoin:round;stroke-width:6px"/><path d="M120.9,75.8A39.0323,39.0323,0,0,0,65.7,20.6L44.3,42.1a8.6912,8.6912,0,0,0,0,12.3L87.2,97.3a8.6912,8.6912,0,0,0,12.3,0Z" style="fill:none;stroke:#000;stroke-linecap:round;stroke-linejoin:round;stroke-width:6px"/><path d="M64,74S57.4,88.4,48.9,96.9s-16.8,9-27.1,19.4" style="fill:none;stroke:#000;stroke-linecap:round;stroke-linejoin:round;stroke-width:6px"/><path d="M76.7,86.8s-6.6,14.4-15.1,22.9-16.8,9-27.1,19.4" style="fill:none;stroke:#000;stroke-linecap:round;stroke-linejoin:round;stroke-width:6px"/><path d="M51.3,61.3S44.7,75.7,36.2,84.2s-16.8,9-27.1,19.4" style="fill:none;stroke:#000;stroke-linecap:round;stroke-linejoin:round;stroke-width:6px"/><rect width="144" height="144" style="fill:none"/></svg>