<svg xmlns="http://www.w3.org/2000/svg" viewBox="0 0 144 144"><polygon points="108 141 36 141 42 117 102 117 108 141" style="fill:none;stroke:#000;stroke-linecap:round;stroke-linejoin:round;stroke-width:6px"/><path d="M78,27l6-12a12,12,0,0,0-24,0l6,12" style="fill:none;stroke:#000;stroke-linecap:round;stroke-linejoin:round;stroke-width:6px"/><path d="M87,51v66H57V51H31.4c-7.3,0-8.6-3.8-19.4-18,39,0,39-6,60-6s21,6,60,6c-10.8,14.2-12.1,18-19.4,18Z" style="fill:none;stroke:#000;stroke-linecap:round;stroke-linejoin:round;stroke-width:6px"/><path d="M57,81S72,96,87,96" style="fill:none;stroke:#000;stroke-linecap:round;stroke-linejoin:round;stroke-width:6px"/><path d="M57,60A86.7537,86.7537,0,0,0,74.8,71.1" style="fill:none;stroke:#000;stroke-linecap:round;stroke-linejoin:round;stroke-width:6px"/><path d="M43.3,31S60,45,75,45" style="fill:none;stroke:#000;stroke-linecap:round;stroke-linejoin:round;stroke-width:6px"/><line x1="127.5" y1="39" x2="138" y2="39" style="fill:none;stroke:#000;stroke-linecap:round;stroke-linejoin:round;stroke-width:6px"/><line x1="16.5" y1="39" x2="6" y2="39" style="fill:none;stroke:#000;stroke-linecap:round;stroke-linejoin:round;stroke-width:6px"/><polyline points="75 27 75 78 87 78 87 28.3" style="fill:none;stroke:#000;stroke-linecap:round;stroke-linejoin:round;stroke-width:6px"/><rect width="144" height="144" style="fill:none"/></svg>