<svg xmlns="http://www.w3.org/2000/svg" viewBox="0 0 144.1 144"><path d="M27,123H13.4c-5.8,0-10.5-6.2-10.5-12A10.43,10.43,0,0,1,6,103.6L54,55.3l3-32.8c3-12,15-18,15-18s12,6,15,18l3,32.8,48,48.4a10.3446,10.3446,0,0,1,3,7.4c0,5.8-4.7,12-10.5,12H117" transform="translate(0.1)" style="fill:none;stroke:#000;stroke-linecap:round;stroke-linejoin:round;stroke-width:6px"/><path d="M78,28.5a6,6,0,0,0-12,0v24a6,6,0,0,0,12,0Z" transform="translate(0.1)" style="fill:none;stroke:#000;stroke-linecap:round;stroke-linejoin:round;stroke-width:6px"/><line x1="60.1" y1="15" x2="84.1" y2="15" style="fill:none;stroke:#000;stroke-linejoin:round;stroke-width:6px"/><rect x="27.1" y="105" width="24" height="24" style="fill:none;stroke:#000;stroke-linecap:round;stroke-linejoin:round;stroke-width:6px"/><rect x="93.1" y="105" width="24" height="24" style="fill:none;stroke:#000;stroke-linecap:round;stroke-linejoin:round;stroke-width:6px"/><path d="M72,133.5A10.4987,10.4987,0,0,0,61.5,123H51" transform="translate(0.1)" style="fill:none;stroke:#000;stroke-linecap:round;stroke-linejoin:round;stroke-width:6px"/><path d="M72,133.5A10.4987,10.4987,0,0,1,82.5,123H93" transform="translate(0.1)" style="fill:none;stroke:#000;stroke-linecap:round;stroke-linejoin:round;stroke-width:6px"/><line x1="39.1" y1="105" x2="39.1" y2="114" style="fill:none;stroke:#000;stroke-linecap:round;stroke-linejoin:round;stroke-width:6px"/><line x1="105.1" y1="105" x2="105.1" y2="114" style="fill:none;stroke:#000;stroke-linecap:round;stroke-linejoin:round;stroke-width:6px"/><line x1="51.1" y1="78" x2="51.1" y2="93" style="fill:none;stroke:#000;stroke-linecap:round;stroke-linejoin:round;stroke-width:6px"/><line x1="93.1" y1="78" x2="93.1" y2="93" style="fill:none;stroke:#000;stroke-linecap:round;stroke-linejoin:round;stroke-width:6px"/><line x1="39.1" y1="129" x2="39.1" y2="141" style="fill:none;stroke:#000;stroke-linecap:round;stroke-linejoin:round;stroke-width:6px"/><line x1="105.1" y1="129" x2="105.1" y2="141" style="fill:none;stroke:#000;stroke-linecap:round;stroke-linejoin:round;stroke-width:6px"/><line x1="27.1" y1="129" x2="27.1" y2="135" style="fill:none;stroke:#000;stroke-linecap:round;stroke-linejoin:round;stroke-width:6px"/><line x1="51.1" y1="129" x2="51.1" y2="135" style="fill:none;stroke:#000;stroke-linecap:round;stroke-linejoin:round;stroke-width:6px"/><line x1="93.1" y1="129" x2="93.1" y2="135" style="fill:none;stroke:#000;stroke-linecap:round;stroke-linejoin:round;stroke-width:6px"/><line x1="117.1" y1="127.5" x2="117.1" y2="135" style="fill:none;stroke:#000;stroke-linecap:round;stroke-linejoin:round;stroke-width:6px"/><rect x="0.1" width="144" height="144" style="fill:none"/></svg>