<svg xmlns="http://www.w3.org/2000/svg" viewBox="0 0 144 144"><path d="M141,141V129c-14.7,3.1-27-12-27-12h0s-7,12-21,12c-14.6,0-21-12-21-12s-6.4,12-21,12c-14,0-21-12-21-12h0S17.7,132.1,3,129v12Z" style="fill:none;stroke:#000;stroke-linejoin:round;stroke-width:6px"/><polyline points="22.9 123.5 9 105 135 105 121.1 123.5" style="fill:none;stroke:#000;stroke-linejoin:round;stroke-width:6px"/><path d="M135,105H9C9,72.3,30.1,51.5,39,51.5L63,81h51C129,81,135,90.3,135,105Z" style="fill:none;stroke:#000;stroke-linejoin:round;stroke-width:6px"/><polyline points="84 57 68.2 57 54.5 70.6" style="fill:none;stroke:#000;stroke-linecap:round;stroke-linejoin:round;stroke-width:6px"/><line x1="11.2" y1="87" x2="30" y2="87" style="fill:none;stroke:#000;stroke-linecap:round;stroke-linejoin:round;stroke-width:6px"/><line x1="73.1" y1="81" x2="97.4" y2="105" style="fill:none;stroke:#000;stroke-linecap:round;stroke-linejoin:round;stroke-width:6px"/><rect width="144" height="144" style="fill:none"/></svg>