<svg xmlns="http://www.w3.org/2000/svg" viewBox="0 0 144 144"><path d="M72,141a14.98,14.98,0,0,0,15-15v-9a6.0176,6.0176,0,0,1,6-6c0,9.3,6.5,18,21,18a27.015,27.015,0,0,0,27-27,29.96,29.96,0,0,1-30-30V42a39,39,0,0,0-78,0V72A29.96,29.96,0,0,1,3,102a27.015,27.015,0,0,0,27,27c14.5,0,21-8.7,21-18a6.0176,6.0176,0,0,1,6,6v9a14.98,14.98,0,0,0,15,15" style="fill:none;stroke:#000;stroke-linecap:round;stroke-linejoin:round;stroke-width:6px"/><path d="M99,54c0,21.5-12.1,39-27,39S45,75.5,45,54s6-39,27-39S99,32.5,99,54Z" style="fill:none;stroke:#000;stroke-linecap:round;stroke-linejoin:round;stroke-width:6px"/><line x1="50.3" y1="27" x2="93.7" y2="27" style="fill:none;stroke:#000;stroke-linecap:round;stroke-linejoin:round;stroke-width:6px"/><line x1="45.4" y1="45" x2="98.6" y2="45" style="fill:none;stroke:#000;stroke-linecap:round;stroke-linejoin:round;stroke-width:6px"/><line x1="45.8" y1="63" x2="98.3" y2="63" style="fill:none;stroke:#000;stroke-linecap:round;stroke-linejoin:round;stroke-width:6px"/><line x1="52.5" y1="81" x2="91.5" y2="81" style="fill:none;stroke:#000;stroke-linecap:round;stroke-linejoin:round;stroke-width:6px"/><rect width="144" height="144" style="fill:none"/></svg>