<svg xmlns="http://www.w3.org/2000/svg" viewBox="0 0 144 144"><path d="M141,93a12.0353,12.0353,0,0,0-12-12H15A12.0353,12.0353,0,0,0,3,93v36a12.0353,12.0353,0,0,0,12,12H129a12.0353,12.0353,0,0,0,12-12Z" style="fill:none;stroke:#000;stroke-linecap:round;stroke-linejoin:round;stroke-width:6px"/><polygon points="66 90 60 90 60 96 66 96 66 90" style="fill:#000"/><polygon points="84 90 78 90 78 96 84 96 84 90" style="fill:#000"/><polygon points="102 90 96 90 96 96 102 96 102 90" style="fill:#000"/><polygon points="120 90 114 90 114 96 120 96 120 90" style="fill:#000"/><polygon points="48 90 42 90 42 96 48 96 48 90" style="fill:#000"/><polygon points="30 90 24 90 24 96 30 96 30 90" style="fill:#000"/><polygon points="66 102 60 102 60 108 66 108 66 102" style="fill:#000"/><polygon points="84 102 78 102 78 108 84 108 84 102" style="fill:#000"/><polygon points="102 102 96 102 96 108 102 108 102 102" style="fill:#000"/><polygon points="120 102 114 102 114 108 120 108 120 102" style="fill:#000"/><polygon points="48 102 42 102 42 108 48 108 48 102" style="fill:#000"/><polygon points="30 102 24 102 24 108 30 108 30 102" style="fill:#000"/><polygon points="66 114 60 114 60 120 66 120 66 114" style="fill:#000"/><polygon points="84 114 78 114 78 120 84 120 84 114" style="fill:#000"/><polygon points="102 114 96 114 96 120 102 120 102 114" style="fill:#000"/><polygon points="120 114 114 114 114 120 120 120 120 114" style="fill:#000"/><polygon points="48 114 42 114 42 120 48 120 48 114" style="fill:#000"/><polygon points="30 114 24 114 24 120 30 120 30 114" style="fill:#000"/><path d="M21,81V75A18.0529,18.0529,0,0,1,39,57h81a21,21,0,0,0,0-42H81a8.9626,8.9626,0,0,1-9-9V3" style="fill:none;stroke:#000;stroke-linecap:round;stroke-linejoin:round;stroke-width:6px"/><line x1="30" y1="129" x2="114" y2="129" style="fill:none;stroke:#000;stroke-linejoin:round;stroke-width:6px"/><rect width="144" height="144" style="fill:none"/></svg>