<svg xmlns="http://www.w3.org/2000/svg" viewBox="0 0 144 144"><path d="M81,54A33,33,0,1,0,39,85.7V93l-6,6,6,6v6l-6,6,6,6v9l9,9,9-9V85.7A32.994,32.994,0,0,0,81,54Z" style="fill:none;stroke:#000;stroke-linecap:round;stroke-linejoin:round;stroke-width:6px"/><circle cx="48" cy="42" r="9" style="fill:none;stroke:#000;stroke-linecap:round;stroke-linejoin:round;stroke-width:6px"/><path d="M57,90.1a33.2125,33.2125,0,0,0,32.6.2L96,96v9h9l3,3.1V117h7.9l6.4,6H135V110.3L102.3,77.6A33.0181,33.0181,0,0,0,69.2,28.8" style="fill:none;stroke:#000;stroke-linecap:round;stroke-linejoin:round;stroke-width:6px"/><path d="M48,42V15a12,12,0,0,1,24,0V28.5" style="fill:none;stroke:#000;stroke-linecap:round;stroke-linejoin:round;stroke-width:6px"/><rect width="144" height="144" style="fill:none"/></svg>