<svg xmlns="http://www.w3.org/2000/svg" viewBox="0 0 144 144"><path d="M73.5,123l41.6-12a55.9041,55.9041,0,0,0,13.4-24h-67L57,81" style="fill:none;stroke:#000;stroke-linecap:round;stroke-linejoin:round;stroke-width:6px"/><path d="M3,126a25.4786,25.4786,0,0,0,25.5-25.5L25.5,63a36.0172,36.0172,0,0,1,30-35.5L98.9,21a56.6962,56.6962,0,0,1,24.7,24" style="fill:none;stroke:#000;stroke-linecap:round;stroke-linejoin:round;stroke-width:6px"/><path d="M93,118.1l16.4,11.7a5.967,5.967,0,0,1-2.9,11.2h-42" style="fill:none;stroke:#000;stroke-linecap:round;stroke-linejoin:round;stroke-width:6px"/><path d="M57.1,71.8A7.5331,7.5331,0,0,0,67.9,82.2L85.5,66a14.76,14.76,0,0,1,9-3h36a9,9,0,0,0,0-18h-42a15.0559,15.0559,0,0,0-12,6Z" style="fill:none;stroke:#000;stroke-linecap:round;stroke-linejoin:round;stroke-width:6px"/><line x1="121.5" y1="63" x2="115.5" y2="87" style="fill:none;stroke:#000;stroke-linecap:round;stroke-linejoin:round;stroke-width:6px"/><path d="M100.5,21l9-18-45,3A53.9718,53.9718,0,0,0,13.6,78l11.9,30" style="fill:none;stroke:#000;stroke-linecap:round;stroke-linejoin:round;stroke-width:6px"/><path d="M64.5,121a13.5038,13.5038,0,1,0-24-8.5l3,28.5Z" style="fill:none;stroke:#000;stroke-linecap:round;stroke-linejoin:round;stroke-width:6px"/><rect width="144" height="144" style="fill:none"/></svg>