<svg xmlns="http://www.w3.org/2000/svg" viewBox="0 0 144 144"><path d="M105.7,63.9A40.532,40.532,0,0,0,35.2,75.3" style="fill:none;stroke:#000;stroke-linecap:round;stroke-linejoin:round;stroke-width:6px"/><path d="M60,126.7a40.5393,40.5393,0,0,0,54-38.2,38.6625,38.6625,0,0,0-.3-4.8" style="fill:none;stroke:#000;stroke-linecap:round;stroke-linejoin:round;stroke-width:6px"/><path d="M48.4,102.6a14.9863,14.9863,0,1,0-23.2,18.8l15.9,15.4a10.6561,10.6561,0,0,0,8.4,4.2A10.4987,10.4987,0,0,0,60,130.5a10.91,10.91,0,0,0-2-6.2Z" style="fill:none;stroke:#000;stroke-linecap:round;stroke-linejoin:round;stroke-width:6px"/><path d="M90,126l7.3,11.7a7.4911,7.4911,0,0,0,13.7-4.2L108,114" style="fill:none;stroke:#000;stroke-linecap:round;stroke-linejoin:round;stroke-width:6px"/><path d="M29.9,97.4A26.961,26.961,0,0,1,21,51.9L39,66" style="fill:none;stroke:#000;stroke-linecap:round;stroke-linejoin:round;stroke-width:6px"/><path d="M96,69l39-18a35.9873,35.9873,0,0,1-21,32.7" style="fill:none;stroke:#000;stroke-linecap:round;stroke-linejoin:round;stroke-width:6px"/><path d="M33,18c0,3-12,33-12,33S9,21,9,18,18,3,21,3,33,15,33,18Z" style="fill:none;stroke:#000;stroke-linecap:round;stroke-linejoin:round;stroke-width:6px"/><line x1="9" y1="48" x2="33" y2="48" style="fill:none;stroke:#000;stroke-linecap:round;stroke-linejoin:round;stroke-width:6px"/><path d="M63,30.5A107.5159,107.5159,0,0,1,135,3L111,51" style="fill:none;stroke:#000;stroke-linecap:round;stroke-linejoin:round;stroke-width:6px"/><path d="M32,60.6a43.5026,43.5026,0,0,1,82.8-.9" style="fill:none;stroke:#000;stroke-linecap:round;stroke-linejoin:round;stroke-width:6px"/><path d="M69,102A14.98,14.98,0,0,0,84,87H63" style="fill:none;stroke:#000;stroke-linecap:round;stroke-linejoin:round;stroke-width:6px"/><line x1="75" y1="69" x2="75" y2="75" style="fill:none;stroke:#000;stroke-linecap:round;stroke-linejoin:round;stroke-width:6px"/><line x1="57" y1="69" x2="57" y2="75" style="fill:none;stroke:#000;stroke-linecap:round;stroke-linejoin:round;stroke-width:6px"/><rect width="144" height="144" style="fill:none"/></svg>