<svg xmlns="http://www.w3.org/2000/svg" viewBox="0 0 144 144"><path d="M121.5,69A19.48,19.48,0,0,0,132,33.1L85.8,6A33.24,33.24,0,0,0,58.2,6L12,33.1A19.48,19.48,0,0,0,22.5,69Z" style="fill:none;stroke:#000;stroke-linecap:round;stroke-linejoin:round;stroke-width:6px"/><path d="M88.2,7.4a19.4891,19.4891,0,1,0,31.5,18.5" style="fill:none;stroke:#000;stroke-linecap:round;stroke-linejoin:round;stroke-width:6px"/><path d="M24.3,25.9A19.5037,19.5037,0,1,0,55.9,7.4" style="fill:none;stroke:#000;stroke-linecap:round;stroke-linejoin:round;stroke-width:6px"/><path d="M36,67.5A16.5163,16.5163,0,0,0,19.5,51,16.3342,16.3342,0,0,0,5.4,58.9" style="fill:none;stroke:#000;stroke-linecap:round;stroke-linejoin:round;stroke-width:6px"/><path d="M138.6,58.9A16.5118,16.5118,0,0,0,108,67.5" style="fill:none;stroke:#000;stroke-linecap:round;stroke-linejoin:round;stroke-width:6px"/><path d="M45,69l-6,48c-2.3,16-12.7,24-24,24H129c-11.1,0-21.2-7.3-24-24L99,69" style="fill:none;stroke:#000;stroke-linecap:round;stroke-linejoin:round;stroke-width:6px"/><path d="M81,114a9,9,0,0,1-18,0" style="fill:none;stroke:#000;stroke-linecap:round;stroke-linejoin:round;stroke-width:6px"/><line x1="63" y1="87" x2="63" y2="93" style="fill:none;stroke:#000;stroke-linecap:round;stroke-linejoin:round;stroke-width:6px"/><line x1="81" y1="87" x2="81" y2="93" style="fill:none;stroke:#000;stroke-linecap:round;stroke-linejoin:round;stroke-width:6px"/><rect width="144" height="144" style="fill:none"/></svg>