<svg xmlns="http://www.w3.org/2000/svg" viewBox="0 0 144 144"><path d="M45,30,3,15,25.1,59.7a49.3692,49.3692,0,0,0-.9,9.5,47.8,47.8,0,0,0,95.6,0,43.4431,43.4431,0,0,0-1-9.6L141,15,99,30" style="fill:none;stroke:#000;stroke-linecap:round;stroke-linejoin:round;stroke-width:6px"/><path d="M35,38.9a47.903,47.903,0,0,1,74.2.2" style="fill:none;stroke:#000;stroke-linecap:round;stroke-linejoin:round;stroke-width:6px"/><path d="M36,100.2a15.027,15.027,0,0,0-8.7,10.7l-3.1,15a7.7191,7.7191,0,0,0-.2,1.5,7.5546,7.5546,0,0,0,7.5,7.5,6.7225,6.7225,0,0,0,2.4-.4l14.3-6.9A15.0564,15.0564,0,0,0,57,113.9" style="fill:none;stroke:#000;stroke-linejoin:round;stroke-width:6px"/><path d="M107.4,99.8a14.7288,14.7288,0,0,1,9.8,11.2l3.1,15a7.7411,7.7411,0,0,1-7.4,9,6.7225,6.7225,0,0,1-2.4-.4l-14.3-6.9A15.0564,15.0564,0,0,1,87.4,114" style="fill:none;stroke:#000;stroke-linejoin:round;stroke-width:6px"/><line x1="57" y1="57" x2="57" y2="66" style="fill:none;stroke:#000;stroke-linecap:round;stroke-linejoin:round;stroke-width:6px"/><line x1="87" y1="57" x2="87" y2="66" style="fill:none;stroke:#000;stroke-linecap:round;stroke-linejoin:round;stroke-width:6px"/><line x1="99" y1="75" x2="105" y2="81" style="fill:none;stroke:#000;stroke-linecap:round;stroke-linejoin:round;stroke-width:6px"/><line x1="45" y1="75" x2="39" y2="81" style="fill:none;stroke:#000;stroke-linecap:round;stroke-linejoin:round;stroke-width:6px"/><path d="M87,87a15,15,0,0,1-30,0Z" style="fill:none;stroke:#000;stroke-linecap:round;stroke-linejoin:round;stroke-width:6px"/><rect width="144" height="144" style="fill:none"/></svg>