<svg xmlns="http://www.w3.org/2000/svg" viewBox="0 0 144 144"><path d="M16.5,51.6A15.8412,15.8412,0,0,0,15,58.5,16.5163,16.5163,0,0,0,31.5,75,18.8842,18.8842,0,0,0,45,69H93a18.33,18.33,0,0,0,13.5,6A16.5163,16.5163,0,0,0,123,58.5a15.684,15.684,0,0,0-1.8-7.5" style="fill:none;stroke:#000;stroke-linecap:round;stroke-linejoin:round;stroke-width:6px"/><path d="M16.5,51a13.4808,13.4808,0,0,1-2.1-26.8" style="fill:none;stroke:#000;stroke-linecap:round;stroke-linejoin:round;stroke-width:6px"/><path d="M123.4,24.1A13.5184,13.5184,0,0,1,121.5,51" style="fill:none;stroke:#000;stroke-linecap:round;stroke-linejoin:round;stroke-width:6px"/><path d="M15,24a20.9792,20.9792,0,0,1,40.9-6.6" style="fill:none;stroke:#000;stroke-linecap:round;stroke-linejoin:round;stroke-width:6px"/><path d="M82,17.6A20.9994,20.9994,0,0,1,123,24" style="fill:none;stroke:#000;stroke-linecap:round;stroke-linejoin:round;stroke-width:6px"/><path d="M55.8,16.9a14.9778,14.9778,0,0,1,26.4,0" style="fill:none;stroke:#000;stroke-linecap:round;stroke-linejoin:round;stroke-width:6px"/><rect x="51" y="69" width="42" height="72" style="fill:none;stroke:#000;stroke-linecap:round;stroke-linejoin:round;stroke-width:6px"/><line x1="63" y1="99" x2="33" y2="99" style="fill:none;stroke:#000;stroke-linecap:round;stroke-linejoin:round;stroke-width:6px"/><line x1="63" y1="81" x2="63" y2="87" style="fill:none;stroke:#000;stroke-linecap:round;stroke-linejoin:round;stroke-width:6px"/><line x1="75" y1="81" x2="75" y2="87" style="fill:none;stroke:#000;stroke-linecap:round;stroke-linejoin:round;stroke-width:6px"/><ellipse cx="72" cy="118.5" rx="9" ry="7.5" style="fill:none;stroke:#000;stroke-linecap:round;stroke-linejoin:round;stroke-width:6px"/><rect width="144" height="144" style="fill:none"/></svg>