<svg xmlns="http://www.w3.org/2000/svg" viewBox="0 0 144 144"><rect x="3" y="81" width="138" height="12" style="fill:none;stroke:#000;stroke-linejoin:round;stroke-width:6px"/><path d="M3,93a48.0124,48.0124,0,0,0,48,48H93a48.0124,48.0124,0,0,0,48-48Z" style="fill:none;stroke:#000;stroke-linejoin:round;stroke-width:6px"/><path d="M99,15.1A62.9475,62.9475,0,0,1,135,72v9" style="fill:none;stroke:#000;stroke-linejoin:round;stroke-width:6px"/><path d="M9,81V72A62.9475,62.9475,0,0,1,45,15.1" style="fill:none;stroke:#000;stroke-linejoin:round;stroke-width:6px"/><path d="M96.4,20.5a57.3312,57.3312,0,0,0-48.9,0L42.4,9.6a69.6758,69.6758,0,0,1,59.2,0Z" style="fill:none;stroke:#000;stroke-linejoin:round;stroke-width:6px"/><line x1="18" y1="93" x2="66" y2="141" style="fill:none;stroke:#000;stroke-linejoin:round;stroke-width:6px"/><line x1="51" y1="93" x2="99" y2="141" style="fill:none;stroke:#000;stroke-linejoin:round;stroke-width:6px"/><line x1="84" y1="93" x2="123" y2="132" style="fill:none;stroke:#000;stroke-linejoin:round;stroke-width:6px"/><line x1="132" y1="93" x2="84" y2="141" style="fill:none;stroke:#000;stroke-linejoin:round;stroke-width:6px"/><line x1="99" y1="93" x2="51" y2="141" style="fill:none;stroke:#000;stroke-linejoin:round;stroke-width:6px"/><line x1="66" y1="93" x2="27" y2="132" style="fill:none;stroke:#000;stroke-linejoin:round;stroke-width:6px"/><rect width="144" height="144" style="fill:none"/></svg>