<svg xmlns="http://www.w3.org/2000/svg" viewBox="0 0 144.025 144"><path d="M75,70.3c4.4-3.7,8.7-7.6,13-11.6L66.8,37.5,50.5,54" style="fill:none;stroke:#000;stroke-linecap:round;stroke-linejoin:round;stroke-width:6px"/><path d="M111.4,18.4A8.98,8.98,0,1,0,98.7,5.7L66.8,37.5,79.5,50.2Z" style="fill:none;stroke:#000;stroke-linecap:round;stroke-linejoin:round;stroke-width:6px"/><path d="M99,106.7c5.4-4.4,10.8-9.2,16-14.1L93.8,71.4,84,81.2" style="fill:none;stroke:#000;stroke-linecap:round;stroke-linejoin:round;stroke-width:6px"/><path d="M138.4,52.3a8.98,8.98,0,1,0-12.7-12.7L93.8,71.4l12.7,12.7Z" style="fill:none;stroke:#000;stroke-linecap:round;stroke-linejoin:round;stroke-width:6px"/><path d="M3,141H105A96.0248,96.0248,0,0,0,9,45H3Z" style="fill:none;stroke:#000;stroke-linejoin:round;stroke-width:6px"/><line x1="24" y1="96" x2="48" y2="72" style="fill:none;stroke:#000;stroke-linecap:round;stroke-linejoin:round;stroke-width:6px"/><line x1="51" y1="123" x2="75" y2="99" style="fill:none;stroke:#000;stroke-linecap:round;stroke-linejoin:round;stroke-width:6px"/><rect width="144" height="144" style="fill:none"/></svg>