<svg xmlns="http://www.w3.org/2000/svg" viewBox="0 0 144 144"><path d="M101.4,72c0,15,27.6,24,36.6,3-27,0-6-93-66-63C12-18,33,75,6,75c9,21,36.7,12,36.7-3" style="fill:none;stroke:#000;stroke-linecap:round;stroke-linejoin:round;stroke-width:6px"/><path d="M72,99c9-3,27-12,30-30,9,0,9-18,0-18L99,39c-24,0-24-9-27-12-3,3-3,12-27,12L42,51c-9,0-9,18,0,18C45,87,63,96,72,99Z" style="fill:none;stroke:#000;stroke-linecap:round;stroke-linejoin:round;stroke-width:6px"/><path d="M86.8,91.4c27,12,54.2,19.5,54.2,40.5v9H3v-9c0-21,27.2-28.5,54.2-40.5" style="fill:none;stroke:#000;stroke-linecap:round;stroke-linejoin:round;stroke-width:6px"/><path d="M33,102c0,18,39,21,39,39" style="fill:none;stroke:#000;stroke-linecap:round;stroke-linejoin:round;stroke-width:6px"/><path d="M111,102c0,18-39,21-39,39" style="fill:none;stroke:#000;stroke-linecap:round;stroke-linejoin:round;stroke-width:6px"/><path d="M54,54c0-3.3,2.7-3,6-3s6-.3,6,3" style="fill:none;stroke:#000;stroke-linecap:round;stroke-linejoin:round;stroke-width:6px"/><path d="M78,54c0-3.3,2.7-3,6-3s6-.3,6,3" style="fill:none;stroke:#000;stroke-linecap:round;stroke-linejoin:round;stroke-width:6px"/><rect width="144" height="144" style="fill:none"/></svg>