<svg xmlns="http://www.w3.org/2000/svg" viewBox="0 0 144 144"><path d="M141,141s-3-23.9-15-32.9-39,0-39-21V72c3,9,21,15.1,33,.1-18,0,0-90-48-60-48-30-30,60-48,60,12,15,30,8.9,33-.1V87.1c0,21-27,12-39,21S3,141,3,141Z" style="fill:none;stroke:#000;stroke-linecap:round;stroke-linejoin:round;stroke-width:6px"/><line x1="110.2" y1="103.3" x2="84" y2="141" style="fill:none;stroke:#000;stroke-linejoin:round;stroke-width:6px"/><line x1="33.8" y1="103.3" x2="60" y2="141" style="fill:none;stroke:#000;stroke-linejoin:round;stroke-width:6px"/><path d="M60,102.1a3,3,0,1,0,3,3,2.9465,2.9465,0,0,0-3-3Z" style="fill:#000"/><path d="M72,105.1a3,3,0,1,0,3,3,2.9465,2.9465,0,0,0-3-3Z" style="fill:#000"/><path d="M84,102.1a3,3,0,1,0,3,3,2.9465,2.9465,0,0,0-3-3Z" style="fill:#000"/><path d="M57,72s-9-3.2-6-24.6" style="fill:none;stroke:#000;stroke-linecap:round;stroke-linejoin:round;stroke-width:6px"/><path d="M54,39.1c0,3-3,12-9,12" style="fill:none;stroke:#000;stroke-linecap:round;stroke-linejoin:round;stroke-width:6px"/><path d="M87,72s9-3.2,6-24.6" style="fill:none;stroke:#000;stroke-linecap:round;stroke-linejoin:round;stroke-width:6px"/><path d="M90,39.1c0,3,3,12,9,12" style="fill:none;stroke:#000;stroke-linecap:round;stroke-linejoin:round;stroke-width:6px"/><rect width="144" height="144" style="fill:none"/></svg>