<svg xmlns="http://www.w3.org/2000/svg" viewBox="0 0 144 144"><path d="M45,135a18.0529,18.0529,0,0,1,18-18H87a18.0529,18.0529,0,0,1,18,18v6H45Z" style="fill:none;stroke:#000;stroke-linecap:round;stroke-linejoin:round;stroke-width:6px"/><path d="M75,117V99H87A48,48,0,0,0,87,3H63A12.0353,12.0353,0,0,0,51,15v6" style="fill:none;stroke:#000;stroke-linejoin:round;stroke-width:6px"/><path d="M81,51a30,30,0,0,0-60,0Z" style="fill:none;stroke:#000;stroke-linejoin:round;stroke-width:6px"/><line x1="51" y1="63" x2="51" y2="69" style="fill:none;stroke:#000;stroke-linecap:round;stroke-miterlimit:10;stroke-width:6px"/><line x1="69" y1="60" x2="72" y2="66" style="fill:none;stroke:#000;stroke-linecap:round;stroke-miterlimit:10;stroke-width:6px"/><line x1="33" y1="60" x2="30" y2="66" style="fill:none;stroke:#000;stroke-linecap:round;stroke-miterlimit:10;stroke-width:6px"/><rect width="144" height="144" style="fill:none"/></svg>