<svg xmlns="http://www.w3.org/2000/svg" viewBox="0 0 144 144"><path d="M117,45V57a42,42,0,0,1-84,0V45" style="fill:none;stroke:#000;stroke-linecap:round;stroke-linejoin:round;stroke-width:6px"/><line x1="75" y1="45" x2="75" y2="141" style="fill:none;stroke:#000;stroke-linecap:round;stroke-linejoin:round;stroke-width:6px"/><line x1="48" y1="141" x2="102" y2="141" style="fill:none;stroke:#000;stroke-linecap:round;stroke-linejoin:round;stroke-width:6px"/><path d="M46.1,31.9a13.1,13.1,0,1,1-26.2,0C19.9,24.7,33,3,33,3S46.1,24.6,46.1,31.9Z" style="fill:none;stroke:#000;stroke-linecap:round;stroke-linejoin:round;stroke-width:6px"/><path d="M88.1,31.9a13.1,13.1,0,1,1-26.2,0C61.9,24.7,75,3,75,3S88.1,24.6,88.1,31.9Z" style="fill:none;stroke:#000;stroke-linecap:round;stroke-linejoin:round;stroke-width:6px"/><path d="M130.1,31.9a13.1,13.1,0,1,1-26.2,0C103.9,24.7,117,3,117,3S130.1,24.6,130.1,31.9Z" style="fill:none;stroke:#000;stroke-linecap:round;stroke-linejoin:round;stroke-width:6px"/><rect width="144" height="144" style="fill:none"/></svg>