<svg xmlns="http://www.w3.org/2000/svg" viewBox="0 0 144 144"><path d="M141,57l-9.4-14.1A49.1292,49.1292,0,0,0,90.7,21H53.3A49.1292,49.1292,0,0,0,12.4,42.9L3,57Z" style="fill:none;stroke:#000;stroke-linejoin:round;stroke-width:6px"/><polyline points="81 57 81 129 63 129 63 57" style="fill:none;stroke:#000;stroke-linejoin:round;stroke-width:6px"/><path d="M111,141a12.0353,12.0353,0,0,0-12-12H45a12.0353,12.0353,0,0,0-12,12Z" style="fill:none;stroke:#000;stroke-linejoin:round;stroke-width:6px"/><line x1="51" y1="129" x2="51" y2="120" style="fill:none;stroke:#000;stroke-linecap:round;stroke-linejoin:round;stroke-width:6px"/><path d="M90,21a18,18,0,0,0-36,0Z" style="fill:none;stroke:#000;stroke-linecap:round;stroke-linejoin:round;stroke-width:6px"/><line x1="21" y1="33" x2="123" y2="33" style="fill:none;stroke:#000;stroke-linejoin:round;stroke-width:6px"/><rect width="144" height="144" style="fill:none"/></svg>