<svg xmlns="http://www.w3.org/2000/svg" viewBox="0 0 144 144"><line x1="45" y1="111" x2="45" y2="126" style="fill:none;stroke:#000;stroke-linecap:round;stroke-linejoin:round;stroke-width:6px"/><line x1="57" y1="111" x2="57" y2="126" style="fill:none;stroke:#000;stroke-linecap:round;stroke-linejoin:round;stroke-width:6px"/><line x1="69" y1="111" x2="69" y2="126" style="fill:none;stroke:#000;stroke-linecap:round;stroke-linejoin:round;stroke-width:6px"/><line x1="81" y1="111" x2="81" y2="126" style="fill:none;stroke:#000;stroke-linecap:round;stroke-linejoin:round;stroke-width:6px"/><line x1="93" y1="111" x2="93" y2="126" style="fill:none;stroke:#000;stroke-linecap:round;stroke-linejoin:round;stroke-width:6px"/><polygon points="69 123 75 141 63 141 69 123" style="fill:none;stroke:#000;stroke-linecap:round;stroke-linejoin:round;stroke-width:6px"/><line x1="69" y1="21" x2="69" y2="3" style="fill:none;stroke:#000;stroke-linecap:round;stroke-linejoin:round;stroke-width:6px"/><line x1="126" y1="63" x2="138" y2="63" style="fill:none;stroke:#000;stroke-linecap:round;stroke-miterlimit:10;stroke-width:6px"/><line x1="123" y1="36" x2="132" y2="27" style="fill:none;stroke:#000;stroke-linecap:round;stroke-miterlimit:10;stroke-width:6px"/><line x1="123" y1="90" x2="132" y2="99" style="fill:none;stroke:#000;stroke-linecap:round;stroke-miterlimit:10;stroke-width:6px"/><line x1="15" y1="63" x2="3" y2="63" style="fill:none;stroke:#000;stroke-linecap:round;stroke-miterlimit:10;stroke-width:6px"/><line x1="18" y1="36" x2="9" y2="27" style="fill:none;stroke:#000;stroke-linecap:round;stroke-miterlimit:10;stroke-width:6px"/><line x1="18" y1="90" x2="9" y2="99" style="fill:none;stroke:#000;stroke-linecap:round;stroke-miterlimit:10;stroke-width:6px"/><path d="M54.6,99a36.0083,36.0083,0,0,1,0-66" style="fill:none;stroke:#000;stroke-miterlimit:10;stroke-width:6px"/><path d="M83.4,33a36.0083,36.0083,0,0,1,0,66" style="fill:none;stroke:#000;stroke-miterlimit:10;stroke-width:6px"/><line x1="69" y1="33" x2="69" y2="99" style="fill:none;stroke:#000;stroke-miterlimit:10;stroke-width:6px"/><rect x="45" y="21" width="48" height="12" style="fill:none;stroke:#000;stroke-linejoin:round;stroke-width:6px"/><path d="M78.6,99C83.7,92.1,87,79.9,87,66s-3.4-26.1-8.4-33H59.4c-5,6.9-8.4,19.1-8.4,33s3.4,26.1,8.4,33Z" style="fill:none;stroke:#000;stroke-miterlimit:10;stroke-width:6px"/><rect x="45" y="99" width="48" height="12" style="fill:none;stroke:#000;stroke-linejoin:round;stroke-width:6px"/><line x1="33.1" y1="63" x2="104.9" y2="63" style="fill:none;stroke:#000;stroke-miterlimit:10;stroke-width:6px"/><rect width="144" height="144" style="fill:none"/></svg>