<svg xmlns="http://www.w3.org/2000/svg" viewBox="0 0 144 144"><polygon points="96 117 48 117 51 105 93 105 96 117" style="fill:none;stroke:#000;stroke-linejoin:round;stroke-width:6px"/><path d="M129,18a8.9626,8.9626,0,0,0-9-9H24a8.9626,8.9626,0,0,0-9,9V87L3,129v3a8.9626,8.9626,0,0,0,9,9H132a8.9626,8.9626,0,0,0,9-9v-3L129,84Z" style="fill:none;stroke:#000;stroke-linejoin:round;stroke-width:6px"/><line x1="15" y1="87" x2="129" y2="87" style="fill:none;stroke:#000;stroke-linejoin:round;stroke-width:6px"/><line x1="3" y1="129" x2="141" y2="129" style="fill:none;stroke:#000;stroke-linejoin:round;stroke-width:6px"/><path d="M105,60a8.9626,8.9626,0,0,1-9,9H48a8.9626,8.9626,0,0,1-9-9V36a8.9626,8.9626,0,0,1,9-9H96a8.9626,8.9626,0,0,1,9,9Z" style="fill:none;stroke:#000;stroke-linecap:round;stroke-linejoin:round;stroke-width:6px"/><polyline points="90 39 72 54 54 39" style="fill:none;stroke:#000;stroke-linecap:round;stroke-linejoin:round;stroke-width:6px"/><line x1="54" y1="57" x2="63.8" y2="47.2" style="fill:none;stroke:#000;stroke-linecap:round;stroke-linejoin:round;stroke-width:6px"/><line x1="90" y1="57" x2="80.2" y2="47.2" style="fill:none;stroke:#000;stroke-linecap:round;stroke-linejoin:round;stroke-width:6px"/><rect width="144" height="144" style="fill:none"/></svg>