<svg xmlns="http://www.w3.org/2000/svg" viewBox="0 0 144 144"><path d="M63,129a12.0353,12.0353,0,0,1-12,12H15A12.0353,12.0353,0,0,1,3,129V93A12.0353,12.0353,0,0,1,15,81H51A12.0353,12.0353,0,0,1,63,93Z" style="fill:none;stroke:#000;stroke-linecap:round;stroke-linejoin:round;stroke-width:6px"/><path d="M141,129a12.0353,12.0353,0,0,1-12,12H93a12.0353,12.0353,0,0,1-12-12V93A12.0353,12.0353,0,0,1,93,81h36a12.0353,12.0353,0,0,1,12,12Z" style="fill:none;stroke:#000;stroke-linecap:round;stroke-linejoin:round;stroke-width:6px"/><path d="M99,57A12.0353,12.0353,0,0,1,87,69H51A12.0353,12.0353,0,0,1,39,57V21A12.0353,12.0353,0,0,1,51,9H87A12.0353,12.0353,0,0,1,99,21Z" style="fill:none;stroke:#000;stroke-linecap:round;stroke-linejoin:round;stroke-width:6px"/><path d="M21,93H36a9,9,0,0,1,0,18H21Z" style="fill:none;stroke:#000;stroke-linejoin:round;stroke-width:6px"/><path d="M21,111H36a9,9,0,0,1,0,18H21Z" style="fill:none;stroke:#000;stroke-linejoin:round;stroke-width:6px"/><polyline points="54 56.9 69.5 21.1 84 56.9" style="fill:none;stroke:#000;stroke-linecap:round;stroke-linejoin:round;stroke-width:6px"/><line x1="59.2" y1="45" x2="79.1" y2="45" style="fill:none;stroke:#000;stroke-linecap:round;stroke-linejoin:round;stroke-width:6px"/><path d="M126.4,123.7A17.9836,17.9836,0,1,1,113.7,93,18.2064,18.2064,0,0,1,126,97.8" style="fill:none;stroke:#000;stroke-linecap:round;stroke-linejoin:round;stroke-width:6px"/><rect width="144" height="144" style="fill:none"/></svg>