<svg xmlns="http://www.w3.org/2000/svg" viewBox="0 0 144 144"><path d="M33,21A12.0353,12.0353,0,0,1,45,9H99a12.0353,12.0353,0,0,1,12,12V39c0,15,7.4,30,24,30v66H9V69c16.6,0,24-15.2,24-30Z" style="fill:none;stroke:#000;stroke-linecap:round;stroke-linejoin:round;stroke-width:6px"/><path d="M57,9H87V42a15,15,0,0,1-30,0Z" style="fill:none;stroke:#000;stroke-linecap:round;stroke-linejoin:round;stroke-width:6px"/><rect x="33" y="75" width="12" height="48" style="fill:none;stroke:#000;stroke-linecap:round;stroke-linejoin:round;stroke-width:6px"/><rect x="99" y="75" width="12" height="48" style="fill:none;stroke:#000;stroke-linecap:round;stroke-linejoin:round;stroke-width:6px"/><line x1="9" y1="87" x2="33" y2="87" style="fill:none;stroke:#000;stroke-linejoin:round;stroke-width:6px"/><line x1="111" y1="87" x2="135" y2="87" style="fill:none;stroke:#000;stroke-linejoin:round;stroke-width:6px"/><line x1="45" y1="87" x2="99" y2="87" style="fill:none;stroke:#000;stroke-linejoin:round;stroke-width:6px"/><line x1="9" y1="111" x2="33" y2="111" style="fill:none;stroke:#000;stroke-linejoin:round;stroke-width:6px"/><line x1="111" y1="111" x2="135" y2="111" style="fill:none;stroke:#000;stroke-linejoin:round;stroke-width:6px"/><line x1="45" y1="111" x2="99" y2="111" style="fill:none;stroke:#000;stroke-linejoin:round;stroke-width:6px"/><rect width="144" height="144" style="fill:none"/></svg>