<svg xmlns="http://www.w3.org/2000/svg" viewBox="0 0 144 144"><path d="M81,87A12.0353,12.0353,0,0,0,93,99h30a18.0529,18.0529,0,0,0,18-18V69a18.0529,18.0529,0,0,0-18-18H93A12.0353,12.0353,0,0,0,81,63" style="fill:none;stroke:#000;stroke-linecap:round;stroke-linejoin:round;stroke-width:6px"/><path d="M63,87A12.0353,12.0353,0,0,1,51,99H21A18.0529,18.0529,0,0,1,3,81V69A18.0529,18.0529,0,0,1,21,51H51A12.0353,12.0353,0,0,1,63,63" style="fill:none;stroke:#000;stroke-linecap:round;stroke-linejoin:round;stroke-width:6px"/><line x1="39" y1="75" x2="105" y2="75" style="fill:none;stroke:#000;stroke-linecap:round;stroke-linejoin:round;stroke-width:6px"/><rect width="144" height="144" style="fill:none"/></svg>