<svg xmlns="http://www.w3.org/2000/svg" viewBox="0 0 144 144"><path d="M87,75l.5.5a12.0107,12.0107,0,0,0,17,0l23.8-23.8a18.107,18.107,0,0,0,0-25.5L117.8,15.7a18.1071,18.1071,0,0,0-25.5,0L68.5,39.5a12.0107,12.0107,0,0,0,0,17l.5.5" style="fill:none;stroke:#000;stroke-linecap:round;stroke-linejoin:round;stroke-width:6px"/><path d="M57,69l-.5-.5a12.0107,12.0107,0,0,0-17,0L15.7,92.3a18.1071,18.1071,0,0,0,0,25.5l10.5,10.5a18.1071,18.1071,0,0,0,25.5,0l23.8-23.8a12.0107,12.0107,0,0,0,0-17L75,87" style="fill:none;stroke:#000;stroke-linecap:round;stroke-linejoin:round;stroke-width:6px"/><line x1="48.7" y1="95.3" x2="95.3" y2="48.7" style="fill:none;stroke:#000;stroke-linecap:round;stroke-linejoin:round;stroke-width:6px"/><rect width="144" height="144" style="fill:none"/></svg>