<svg xmlns="http://www.w3.org/2000/svg" viewBox="0 0 144 144"><path d="M74.1,99.6,55,118.7a18.107,18.107,0,0,1-25.5,0l-4.2-4.2a17.986,17.986,0,0,1,0-25.4L52.9,61.5a18.107,18.107,0,0,1,25.5,0l4.2,4.2" style="fill:none;stroke:#000;stroke-linecap:round;stroke-linejoin:round;stroke-width:6px"/><path d="M69.9,44.4,89,25.3a18.107,18.107,0,0,1,25.5,0l4.2,4.2a18.107,18.107,0,0,1,0,25.5L91.1,82.6a18.107,18.107,0,0,1-25.5,0" style="fill:none;stroke:#000;stroke-linecap:round;stroke-linejoin:round;stroke-width:6px"/><rect width="144" height="144" style="fill:none"/></svg>