<svg xmlns="http://www.w3.org/2000/svg" viewBox="0 0 144 144"><path d="M3,72S26.55,60.1,35,57s10.52-5,17-5,13,4,21,4,12.27-3.72,21-4,13.5,2.47,18,5,29,15,29,15S116,99,72,99,3,72,3,72Z" style="fill:none;stroke:#000;stroke-linecap:round;stroke-linejoin:round;stroke-width:6px"/><path d="M141,72s-23.24,1.44-30,1-17.09-4.26-23-4-10.93,3.86-16,4-11.06-3.72-15-4-20.52,3.32-27,4S3,72,3,72" style="fill:none;stroke:#000;stroke-linecap:round;stroke-linejoin:round;stroke-width:6px"/><path d="M0,0H144V144H0Z" style="fill:none"/></svg>