<svg xmlns="http://www.w3.org/2000/svg" viewBox="0 0 144 144"><path d="M75,48a18.4032,18.4032,0,0,1,4.1.4L87.9,4.3a64.6538,64.6538,0,0,0-25.8,0l8.8,44.1A18.4032,18.4032,0,0,1,75,48Z" style="fill:none;stroke:#000;stroke-linejoin:round;stroke-width:6px"/><path d="M60.1,54.1a19.1987,19.1987,0,0,1,3.2-2.6l-25-37.4A65.6981,65.6981,0,0,0,20.1,32.3l37.4,25A40.3093,40.3093,0,0,1,60.1,54.1Z" style="fill:none;stroke:#000;stroke-linejoin:round;stroke-width:6px"/><path d="M54,69a18.4032,18.4032,0,0,1,.4-4.1L10.3,56.1A68.8162,68.8162,0,0,0,9,69a61.3732,61.3732,0,0,0,1.3,12.9l44.1-8.8A18.4032,18.4032,0,0,1,54,69Z" style="fill:none;stroke:#000;stroke-linejoin:round;stroke-width:6px"/><path d="M60.1,83.9a19.1987,19.1987,0,0,1-2.6-3.2l-37.4,25a65.6981,65.6981,0,0,0,18.2,18.2l25-37.4A25.9992,25.9992,0,0,1,60.1,83.9Z" style="fill:none;stroke:#000;stroke-linejoin:round;stroke-width:6px"/><path d="M75,90a18.4032,18.4032,0,0,1-4.1-.4l-8.8,44.1A68.8162,68.8162,0,0,0,75,135a68.8162,68.8162,0,0,0,12.9-1.3L79.1,89.6A18.4032,18.4032,0,0,1,75,90Z" style="fill:none;stroke:#000;stroke-linejoin:round;stroke-width:6px"/><path d="M89.9,83.9a19.1987,19.1987,0,0,1-3.2,2.6l25,37.4a65.6981,65.6981,0,0,0,18.2-18.2l-37.4-25A25.9992,25.9992,0,0,1,89.9,83.9Z" style="fill:none;stroke:#000;stroke-linejoin:round;stroke-width:6px"/><path d="M96,69a18.4032,18.4032,0,0,1-.4,4.1l44.1,8.8A68.8162,68.8162,0,0,0,141,69a61.3732,61.3732,0,0,0-1.3-12.9L95.6,64.9A18.4032,18.4032,0,0,1,96,69Z" style="fill:none;stroke:#000;stroke-linejoin:round;stroke-width:6px"/><path d="M89.9,54.2a19.1987,19.1987,0,0,1,2.6,3.2l37.4-25a65.6981,65.6981,0,0,0-18.2-18.2l-25,37.4A19.1987,19.1987,0,0,1,89.9,54.2Z" style="fill:none;stroke:#000;stroke-linejoin:round;stroke-width:6px"/><rect width="144" height="144" style="fill:none"/></svg>