<svg xmlns="http://www.w3.org/2000/svg" viewBox="0 0 144 144"><path d="M85.9,24.8C85.9,36.9,64,63,64,63S42.2,36.9,42.2,24.8a21.85,21.85,0,0,1,43.7,0Z" style="fill:none;stroke:#000;stroke-linecap:round;stroke-linejoin:round;stroke-width:6px"/><circle cx="64" cy="24.8" r="8.2" style="fill:none;stroke:#000;stroke-linecap:round;stroke-linejoin:round;stroke-width:6px"/><path d="M137.7,64.6C137.7,75.5,118,99,118,99S98.4,75.5,98.4,64.6a19.65,19.65,0,0,1,39.3,0Z" style="fill:none;stroke:#000;stroke-linecap:round;stroke-linejoin:round;stroke-width:6px"/><circle cx="118" cy="64.6" r="7.4" style="fill:none;stroke:#000;stroke-linecap:round;stroke-linejoin:round;stroke-width:6px"/><path d="M52.6,91.9C50.4,105.1,28,127.6,28,141c0-13.4-21.7-33.7-24.5-49.1C.7,76.7,10.2,63,28,63,45.9,63,55.2,76.4,52.6,91.9Z" style="fill:none;stroke:#000;stroke-linecap:round;stroke-linejoin:round;stroke-width:6px"/><circle cx="28" cy="86.4" r="11.2" style="fill:none;stroke:#000;stroke-linecap:round;stroke-linejoin:round;stroke-width:6px"/><line x1="69.5" y1="72" x2="99" y2="91.6" style="fill:none;stroke:#000;stroke-linecap:round;stroke-linejoin:round;stroke-width:6px"/><line x1="43.3" y1="133.9" x2="103" y2="106" style="fill:none;stroke:#000;stroke-linecap:round;stroke-linejoin:round;stroke-width:6px"/><rect width="144" height="144" style="fill:none"/></svg>