<svg xmlns="http://www.w3.org/2000/svg" viewBox="0 0 144 144"><path d="M102,53.9A33.054,33.054,0,0,1,69,87C50.7,87,36,71.6,36,53.3,36,35.5,50,21.7,67.6,21H69A32.82,32.82,0,0,1,102,53.9Z" style="fill:none;stroke:#000;stroke-linejoin:round;stroke-width:6px"/><path d="M67.6,21c-17.2,18.7-17.2,43,0,65.9" style="fill:none;stroke:#000;stroke-linejoin:round;stroke-width:6px"/><path d="M70.5,21c17.2,18.6,17.2,43,0,65.9" style="fill:none;stroke:#000;stroke-linejoin:round;stroke-width:6px"/><line x1="37" y1="45" x2="101" y2="45" style="fill:none;stroke:#000;stroke-linejoin:round;stroke-width:6px"/><line x1="37.5" y1="63" x2="100.8" y2="63" style="fill:none;stroke:#000;stroke-linejoin:round;stroke-width:6px"/><path d="M117,51A48,48,0,1,0,54.2,96.7L69,141,83.8,96.7A48.1112,48.1112,0,0,0,117,51Z" style="fill:none;stroke:#000;stroke-linecap:round;stroke-linejoin:round;stroke-width:6px"/><rect width="144" height="144" style="fill:none"/></svg>