<svg xmlns="http://www.w3.org/2000/svg" viewBox="0 0 144.0094 144"><line x1="75" y1="132.7" x2="75" y2="140.7" style="fill:none;stroke:#000;stroke-linecap:round;stroke-linejoin:round;stroke-width:6px"/><path d="M104.5,73.7c-2.7,15.9-29.5,42.9-29.5,59,0-16.1-26.1-40.5-29.5-59C42.2,55.4,53.6,39,75,39,96.5,39,107.6,55.1,104.5,73.7Z" style="fill:none;stroke:#000;stroke-linecap:round;stroke-linejoin:round;stroke-width:6px"/><circle cx="75" cy="67.2" r="13.5" style="fill:none;stroke:#000;stroke-linecap:round;stroke-linejoin:round;stroke-width:6px"/><line x1="111" y1="96.7" x2="111" y2="104.7" style="fill:none;stroke:#000;stroke-linecap:round;stroke-linejoin:round;stroke-width:6px"/><path d="M82,39.6a12.86,12.86,0,0,1-.4-1.9C78.2,19.4,89.6,3,111,3s32.6,16.1,29.5,34.7c-2.7,15.9-29.5,42.9-29.5,59,0-5.6-3.2-12.3-7.5-19.3" style="fill:none;stroke:#000;stroke-linecap:round;stroke-linejoin:round;stroke-width:6px"/><circle cx="111" cy="31.2" r="13.5" style="fill:none;stroke:#000;stroke-linecap:round;stroke-linejoin:round;stroke-width:6px"/><line x1="33.1" y1="96.7" x2="33.1" y2="104.7" style="fill:none;stroke:#000;stroke-linecap:round;stroke-linejoin:round;stroke-width:6px"/><path d="M45.2,69.6c-6.4,9.9-12.1,19.7-12.1,27.1,0-16.1-26.1-40.5-29.5-59C.2,19.4,11.6,3,33.1,3S65.7,19.1,62.6,37.7a37.4581,37.4581,0,0,1-1,3.9" style="fill:none;stroke:#000;stroke-linecap:round;stroke-linejoin:round;stroke-width:6px"/><circle cx="33.1" cy="31.2" r="13.5" style="fill:none;stroke:#000;stroke-linecap:round;stroke-linejoin:round;stroke-width:6px"/><rect width="144" height="144" style="fill:none"/></svg>