<svg xmlns="http://www.w3.org/2000/svg" viewBox="0 0 144 144"><circle cx="72" cy="72" r="69" style="fill:none;stroke:#000;stroke-linecap:round;stroke-linejoin:round;stroke-width:6px"/><path d="M134.7,59c2.1-3,3.3-5,3.3-5" style="fill:none;stroke:#000;stroke-linecap:round;stroke-linejoin:round;stroke-width:6px"/><path d="M119.6,76.1a101.4586,101.4586,0,0,0,8-8.1" style="fill:none;stroke:#000;stroke-linecap:round;stroke-linejoin:round;stroke-width:6px"/><path d="M100.1,86.8a31.8134,31.8134,0,0,0,10.4-4.1" style="fill:none;stroke:#000;stroke-linecap:round;stroke-linejoin:round;stroke-width:6px"/><path d="M78,83.7a58.85,58.85,0,0,0,10.7,3" style="fill:none;stroke:#000;stroke-linecap:round;stroke-linejoin:round;stroke-width:6px"/><path d="M56.7,75.9a101.0939,101.0939,0,0,1,10.6,3.5" style="fill:none;stroke:#000;stroke-linecap:round;stroke-linejoin:round;stroke-width:6px"/><path d="M34.6,77.5A18.5676,18.5676,0,0,1,42,75a19.5292,19.5292,0,0,1,3.4-.3" style="fill:none;stroke:#000;stroke-linecap:round;stroke-linejoin:round;stroke-width:6px"/><path d="M20.4,94.6a48.8387,48.8387,0,0,1,5.7-9.5" style="fill:none;stroke:#000;stroke-linecap:round;stroke-linejoin:round;stroke-width:6px"/><path d="M15,111a48.3535,48.3535,0,0,1,1.5-5.9" style="fill:none;stroke:#000;stroke-linecap:round;stroke-linejoin:round;stroke-width:6px"/><path d="M109.6,40.6C109.6,51.5,90,75,90,75S70.4,51.5,70.4,40.6a19.6,19.6,0,1,1,39.2,0Z" style="fill:none;stroke:#000;stroke-linecap:round;stroke-linejoin:round;stroke-width:6px"/><circle cx="90" cy="40.6" r="7.4" style="fill:none;stroke:#000;stroke-linecap:round;stroke-linejoin:round;stroke-width:6px"/><rect width="144" height="144" style="fill:none"/></svg>