<svg xmlns="http://www.w3.org/2000/svg" viewBox="0 0 144 144"><path d="M141,140.3c-15,3.1-24.4-11.9-24.4-11.9h0s-7.1,12.3-21.7,12.3c-14,0-21.7-12.3-21.7-12.3h0s-7.1,12.3-21.7,12.3c-14,0-21.7-12.3-21.7-12.3h0s-12,15.3-26.7,12.1" style="fill:none;stroke:#000;stroke-linecap:round;stroke-linejoin:round;stroke-width:6px"/><path d="M141,116.3c-15,3.1-24.4-11.9-24.4-11.9h0s-7.1,12.3-21.7,12.3c-14,0-21.7-12.3-21.7-12.3h0s-7.1,12.3-21.7,12.3c-14,0-21.7-12.3-21.7-12.3h0s-12,15.3-26.7,12.1" style="fill:none;stroke:#000;stroke-linecap:round;stroke-linejoin:round;stroke-width:6px"/><path d="M120,93a20.9974,20.9974,0,0,1,21-21" style="fill:none;stroke:#000;stroke-linecap:round;stroke-linejoin:round;stroke-width:6px"/><path d="M3,72A20.9974,20.9974,0,0,1,24,93" style="fill:none;stroke:#000;stroke-linecap:round;stroke-linejoin:round;stroke-width:6px"/><line x1="20.2" y1="81" x2="123.8" y2="81" style="fill:none;stroke:#000;stroke-linecap:round;stroke-linejoin:round;stroke-width:6px"/><path d="M135,72.9S129,15,102,15H42C15,15,9,72.9,9,72.9" style="fill:none;stroke:#000;stroke-linecap:round;stroke-linejoin:round;stroke-width:6px"/><polyline points="117.9 23.1 96 81 72 15 51 81 26.1 23.1" style="fill:none;stroke:#000;stroke-linecap:round;stroke-linejoin:round;stroke-width:6px"/><rect width="144" height="144" style="fill:none"/></svg>