<svg xmlns="http://www.w3.org/2000/svg" viewBox="0 0 144 144"><path d="M51.5,54.5,38.9,48.9l-9.5,5.5L51,68.4l21.6-8.5L63.5,83.6,74.2,78,87.3,54l16.4-7.2a6.2626,6.2626,0,0,0,3.2-3.4,6.3651,6.3651,0,0,0-.1-4.7A6.0324,6.0324,0,0,0,99,35.6Z" style="fill:none;stroke:#000;stroke-linecap:round;stroke-linejoin:round;stroke-width:6px"/><polyline points="81.6 42.5 62.3 30.4 52.6 35.4 70.2 47.1" style="fill:none;stroke:#000;stroke-linecap:round;stroke-linejoin:round;stroke-width:6px"/><path d="M123,60c0,42-54,81-54,81S15,102,15,60C15,28.5,37.5,3,69,3S123,28.5,123,60Z" style="fill:none;stroke:#000;stroke-linecap:round;stroke-linejoin:round;stroke-width:6px"/><rect width="144" height="144" style="fill:none"/></svg>