<svg xmlns="http://www.w3.org/2000/svg" viewBox="0 0 144 144"><path d="M123,60c0,42-54,81-54,81S15,102,15,60C15,28.5,37.5,3,69,3S123,28.5,123,60Z" style="fill:none;stroke:#000;stroke-linecap:round;stroke-linejoin:round;stroke-width:6px"/><path d="M102.8,53.9A33.0752,33.0752,0,0,1,69.7,87C51.4,87,36.8,71.6,36.8,53.3c0-17.8,14-31.5,31.6-32.3h1.4A32.8834,32.8834,0,0,1,102.8,53.9Z" style="fill:none;stroke:#000;stroke-linejoin:round;stroke-width:6px"/><path d="M68.3,21c-17.2,18.7-17.2,43,0,65.9" style="fill:none;stroke:#000;stroke-linejoin:round;stroke-width:6px"/><path d="M71.2,21c17.2,18.6,17.2,43,0,65.9" style="fill:none;stroke:#000;stroke-linejoin:round;stroke-width:6px"/><line x1="37.7" y1="45" x2="101.7" y2="45" style="fill:none;stroke:#000;stroke-linejoin:round;stroke-width:6px"/><line x1="38.2" y1="63" x2="101.5" y2="63" style="fill:none;stroke:#000;stroke-linejoin:round;stroke-width:6px"/><rect width="144" height="144" style="fill:none"/></svg>