<svg xmlns="http://www.w3.org/2000/svg" viewBox="0 0 144 144"><path d="M123,60c0,42-54,81-54,81S15,102,15,60C15,28.5,37.5,3,69,3S123,28.5,123,60Z" style="fill:none;stroke:#000;stroke-linecap:round;stroke-linejoin:round;stroke-width:6px"/><path d="M54,65.9a38.8528,38.8528,0,0,1,14.9-3,40.2576,40.2576,0,0,1,15.1,3" style="fill:none;stroke:#000;stroke-linecap:round;stroke-linejoin:round;stroke-width:6px"/><path d="M43.6,54.2a54.3039,54.3039,0,0,1,50.2-.3" style="fill:none;stroke:#000;stroke-linecap:round;stroke-linejoin:round;stroke-width:6px"/><path d="M34.5,42.1a69.1509,69.1509,0,0,1,68.4-.3" style="fill:none;stroke:#000;stroke-linecap:round;stroke-linejoin:round;stroke-width:6px"/><circle cx="69" cy="81" r="6" style="fill:none;stroke:#000;stroke-linecap:round;stroke-linejoin:round;stroke-width:6px"/><rect width="144" height="144" style="fill:none"/></svg>