<svg xmlns="http://www.w3.org/2000/svg" viewBox="0 0 144 144"><path d="M93,69H45V27a6.0176,6.0176,0,0,1,6-6H87a6.0176,6.0176,0,0,1,6,6Z" style="fill:none;stroke:#000;stroke-linecap:round;stroke-linejoin:round;stroke-width:6px"/><rect x="45" y="33" width="48" height="12" style="fill:none;stroke:#000;stroke-linecap:round;stroke-linejoin:round;stroke-width:6px"/><path d="M57,54.1a3,3,0,0,0,0,6,3,3,0,0,0,0-6Z" style="fill:#000"/><path d="M81,54.1a3,3,0,0,0,0,6,3,3,0,0,0,0-6Z" style="fill:#000"/><line x1="54" y1="69" x2="38.9" y2="88.4" style="fill:none;stroke:#000;stroke-linecap:round;stroke-linejoin:round;stroke-width:6px"/><line x1="84" y1="69" x2="99.1" y2="88.4" style="fill:none;stroke:#000;stroke-linecap:round;stroke-linejoin:round;stroke-width:6px"/><path d="M117,51A48,48,0,1,0,54.2,96.7L69,141,83.8,96.7A48.1112,48.1112,0,0,0,117,51Z" style="fill:none;stroke:#000;stroke-linecap:round;stroke-linejoin:round;stroke-width:6px"/><rect width="144" height="144" style="fill:none"/></svg>