<svg xmlns="http://www.w3.org/2000/svg" viewBox="0 0 144 144"><path d="M123,60c0,42-54,81-54,81S15,102,15,60C15,28.5,37.5,3,69,3S123,28.5,123,60Z" style="fill:none;stroke:#000;stroke-linecap:round;stroke-linejoin:round;stroke-width:6px"/><path d="M87,75H51V63H45V45A12.0353,12.0353,0,0,1,57,33H81A12.0353,12.0353,0,0,1,93,45V63H87Z" style="fill:none;stroke:#000;stroke-linecap:round;stroke-linejoin:round;stroke-width:6px"/><line x1="63" y1="75" x2="63" y2="60" style="fill:none;stroke:#000;stroke-linecap:round;stroke-linejoin:round;stroke-width:6px"/><line x1="75" y1="75" x2="75" y2="60" style="fill:none;stroke:#000;stroke-linecap:round;stroke-linejoin:round;stroke-width:6px"/><circle cx="60" cy="48" r="3" style="fill:none;stroke:#000;stroke-linecap:round;stroke-linejoin:round;stroke-width:6px"/><circle cx="78" cy="48" r="3" style="fill:none;stroke:#000;stroke-linecap:round;stroke-linejoin:round;stroke-width:6px"/><rect width="144" height="144" style="fill:none"/></svg>