<svg xmlns="http://www.w3.org/2000/svg" viewBox="0 0 144 144"><line x1="3" y1="7.7" x2="131.7" y2="136.3" style="fill:none;stroke:#000;stroke-linecap:round;stroke-linejoin:round;stroke-width:6px"/><path d="M31.5,16.7A52.5048,52.5048,0,0,1,67.3,3c31.5,0,54,25.5,54,57,0,12.6-4.9,25-11.7,36.1" style="fill:none;stroke:#000;stroke-linecap:round;stroke-linejoin:round;stroke-width:6px"/><path d="M91.4,119.5a183.3747,183.3747,0,0,1-24,21.5s-54-39-54-81A63.5409,63.5409,0,0,1,16,41.8" style="fill:none;stroke:#000;stroke-linecap:round;stroke-linejoin:round;stroke-width:6px"/><path d="M49.2,33.1A29.9818,29.9818,0,0,1,88.9,77.8" style="fill:none;stroke:#000;stroke-linecap:round;stroke-linejoin:round;stroke-width:6px"/><path d="M67.3,87a29.96,29.96,0,0,1-30-30" style="fill:none;stroke:#000;stroke-linecap:round;stroke-linejoin:round;stroke-width:6px"/><rect width="144" height="144" style="fill:none"/></svg>