<svg xmlns="http://www.w3.org/2000/svg" viewBox="0 0 144 144"><path d="M51.2,54.5,38.6,48.9l-9.5,5.5,21.6,14,21.6-8.5L63.2,83.6,73.9,78,87,54l16.4-7.2a5.95,5.95,0,0,0,3.2-3.4,6.3651,6.3651,0,0,0-.1-4.7,6.0324,6.0324,0,0,0-7.8-3.1Z" style="fill:none;stroke:#000;stroke-linecap:round;stroke-linejoin:round;stroke-width:6px"/><polyline points="81.3 42.5 62 30.4 52.4 35.4 69.9 47.1" style="fill:none;stroke:#000;stroke-linecap:round;stroke-linejoin:round;stroke-width:6px"/><path d="M117,51A48,48,0,1,0,54.2,96.7L69,141,83.8,96.7A48.1112,48.1112,0,0,0,117,51Z" style="fill:none;stroke:#000;stroke-linecap:round;stroke-linejoin:round;stroke-width:6px"/><rect width="144" height="144" style="fill:none"/></svg>