<svg xmlns="http://www.w3.org/2000/svg" viewBox="0 0 144 144"><path d="M94.7,58.7C94.7,69.6,75,93.3,75,93.3S55.3,69.6,55.3,58.7a19.7,19.7,0,1,1,39.4,0Z" style="fill:none;stroke:#000;stroke-linecap:round;stroke-linejoin:round;stroke-width:6px"/><path d="M82.4,58.7A7.4,7.4,0,1,1,75,51.3,7.3833,7.3833,0,0,1,82.4,58.7Z" style="fill:none;stroke:#000;stroke-linecap:round;stroke-linejoin:round;stroke-width:6px"/><path d="M110.9,33A51.0106,51.0106,0,0,0,21,66V81" style="fill:none;stroke:#000;stroke-linecap:round;stroke-linejoin:round;stroke-width:6px"/><polyline points="39 57 21 81 3 57" style="fill:none;stroke:#000;stroke-linecap:round;stroke-linejoin:round;stroke-width:6px"/><path d="M33.1,99A51.0106,51.0106,0,0,0,123,66V51" style="fill:none;stroke:#000;stroke-linecap:round;stroke-linejoin:round;stroke-width:6px"/><polyline points="105 75 123 51 141 75" style="fill:none;stroke:#000;stroke-linecap:round;stroke-linejoin:round;stroke-width:6px"/><rect width="144" height="144" style="fill:none"/></svg>