<svg xmlns="http://www.w3.org/2000/svg" viewBox="0 0 144 144"><circle cx="72" cy="21" r="18" style="fill:none;stroke:#000;stroke-linecap:round;stroke-linejoin:round;stroke-width:6px"/><path d="M99,51H45c0,12.5,6,30,18,34.2V111H81V85.2C93,81,99,63.5,99,51Z" style="fill:none;stroke:#000;stroke-linecap:round;stroke-linejoin:round;stroke-width:6px"/><path d="M96.1,106.9c10.8,1.9,17.9,5,17.9,8.6,0,5.8-18.8,10.5-42,10.5s-42-4.7-42-10.5c0-3.6,7.1-6.7,18-8.6" style="fill:none;stroke:#000;stroke-linecap:round;stroke-linejoin:round;stroke-width:6px"/><path d="M96,94.5c26.3,3.4,45,12.2,45,22.5,0,13.3-30.9,24-69,24S3,130.3,3,117c0-10.3,18.7-19.1,45-22.5" style="fill:none;stroke:#000;stroke-linecap:round;stroke-linejoin:round;stroke-width:6px"/><rect width="144" height="144" style="fill:none"/></svg>