<svg xmlns="http://www.w3.org/2000/svg" viewBox="0 0 144 144"><path d="M45,99H86c0,22.3-18.6,42-41.5,42S3,122.9,3,100.6,22.1,60.2,45,60.2Zm96-57c0,21.9-18.3,39-40.9,39H63V41.8S64,3,101.8,3C124.3,3,141,20.1,141,42M105,63a6.0034,6.0034,0,1,0-6.2034,5.7966Q98.8983,68.8,99,68.8a5.9134,5.9134,0,0,0,6-5.8" style="fill:none;stroke:#000;stroke-linejoin:round;stroke-width:6px"/><line x1="99" y1="18" x2="99" y2="48" style="fill:none;stroke:#000;stroke-linecap:round;stroke-linejoin:round;stroke-width:6px"/><rect width="144" height="144" style="fill:none"/></svg>