<svg xmlns="http://www.w3.org/2000/svg" viewBox="0 0 144 144"><circle cx="72" cy="72" r="69" style="fill:none;stroke:#000;stroke-linecap:round;stroke-linejoin:round;stroke-width:6px"/><path d="M90.1,58.6a12.1016,12.1016,0,0,0,.7,11.8l.1.2c2.8,4.1,7.3,8.4,7.9,10.3,2.1,7.6-9,10.8-11.1,3.2-1-3.6,1.2-3.9-2.2-7.9-1.8-2.1-5.5,1.9-6.7,5.9-3.4,11.4.8,15.1-4.1,17.8-3.2,1.7-7.6,1.7-8.8-2.8-1-4.4,7.8-24.1,7.8-24.1-2.8,6-14.5,16.8-20.2,9.4a6.0645,6.0645,0,0,1,.8-8.3S57,76,70.6,65.3C66.5,67.6,55.7,68.8,53,65a5.4712,5.4712,0,0,1,1.2-7.4,4.997,4.997,0,0,1,3.1-1c3.9.1,16.6,3.4,22.5-8,0,0,1.9-3.4,4.2-7.7s2.1-8.9-.4-10.3L79.1,28a8.925,8.925,0,0,0-8.4,0L37.2,46.5A9.6573,9.6573,0,0,0,33,54V90a9.6573,9.6573,0,0,0,4.2,7.5L70.7,116a8.925,8.925,0,0,0,8.4,0l33.3-18.5c2.3-1.4,4.6-4.7,4.6-7.5V53.9c0-2.8-2.3-6.1-4.6-7.5,0,0-2.3-1.4-5.2-3.1C100.9,39.7,92.9,53.5,90.1,58.6Z" style="fill:none;stroke:#000;stroke-linejoin:round;stroke-width:6px"/><rect width="144" height="144" style="fill:none"/></svg>