<svg xmlns="http://www.w3.org/2000/svg" viewBox="0 0 144 144"><path d="M54.9,88.3c-.9,3.6,4.7,3.9,5.5.6A2.4134,2.4134,0,0,0,58,86a3.0438,3.0438,0,0,0-3.1,2.3Zm-4.5,12.2c.9-4.3-2.6-7.5-6.8-7.3-4,.3-7.3,3.1-7.9,6.5-1,4.4,2.6,7.6,6.8,7.3a8.18,8.18,0,0,0,7.9-6.5Zm63.7-26.1a26.1119,26.1119,0,0,0-7.4-3.3c-2.7-.9-3.1-1.3-2.1-4a20.7063,20.7063,0,0,0,1.4-5.7c1.2-9.9-6.8-12.9-16-12.1a48.6813,48.6813,0,0,0-11.7,2.6c-2.4.8-6.9,3.3-7.9,1.8-.6-.8.1-2,.3-2.8,1.4-5.4,2-12.9-3.3-16.2-3.9-2.4-10.6-1.8-14.7-.3C30.7,41.9-2.9,73.6,3.9,98.9A29.0185,29.0185,0,0,0,11.7,112c9.1,9.1,23.4,14.2,36.5,16.1a91.6938,91.6938,0,0,0,29.1-.6c15.7-2.9,30.6-9.9,40.4-22.5,6.5-8.4,8.6-20.3,0-27.9-1.2-1-2.3-1.8-3.6-2.7Z" style="fill:none;stroke:#000;stroke-linejoin:round;stroke-width:6px"/><path d="M89.9,18.1A40.3122,40.3122,0,0,1,102,16.2a39.05,39.05,0,0,1,39,39,44.573,44.573,0,0,1-.5,6.3" style="fill:none;stroke:#000;stroke-linecap:round;stroke-linejoin:round;stroke-width:6px"/><path d="M98.5,35.6a17.8139,17.8139,0,0,1,6.1-1.1,18.0683,18.0683,0,0,1,17.1,23.7" style="fill:none;stroke:#000;stroke-linecap:round;stroke-linejoin:round;stroke-width:6px"/><path d="M88.7,81.2c-13.7-8.6-32-8.7-46.8-3.9-7.4,2.4-15.2,7.1-19.8,12.9-5.4,6.8-7.6,15.7-2,24.1,8.3,12.3,27.5,14.6,48.9,13,11.5-2.7,23.7-9,28.9-20.1,4.9-10-.4-20.4-9.2-26Z" style="fill:none;stroke:#000;stroke-linejoin:round;stroke-width:6px"/><rect width="144" height="144" style="fill:none"/></svg>