<svg xmlns="http://www.w3.org/2000/svg" viewBox="0 0 144 144"><path d="M113.8,102c0-35.8-24.8-21.2-45-21.2s-45-14.2-45,21.2a20.9974,20.9974,0,0,0,21,21h48A20.9974,20.9974,0,0,0,113.8,102Z" style="fill:none;stroke:#000;stroke-linecap:round;stroke-linejoin:round;stroke-width:6px"/><path d="M125.9,61.3l.2.1S142,34,122.5,18c-12,0-30.4,19.8-30.4,19.8l.1.1a85.1887,85.1887,0,0,0-46.7-.1c0-.1-18.3-19.8-30.2-19.8-19,15.6-4.4,42.1-3.7,43.3C5.5,70.5,2.2,81.9,3.2,95.8,4.6,114.5,20.3,135,39.1,135H98.4c18.8,0,34.5-20.5,35.9-39.2C135.4,81.9,132,70.4,125.9,61.3Z" style="fill:none;stroke:#000;stroke-linecap:round;stroke-linejoin:round;stroke-width:6px"/><ellipse cx="89.9" cy="102" rx="6" ry="9" style="fill:none;stroke:#000;stroke-linecap:round;stroke-linejoin:round;stroke-width:6px"/><ellipse cx="47.9" cy="102" rx="6" ry="9" style="fill:none;stroke:#000;stroke-linecap:round;stroke-linejoin:round;stroke-width:6px"/><rect width="144" height="144" style="fill:none"/></svg>