<svg xmlns="http://www.w3.org/2000/svg" viewBox="0 0 144.05 144"><path d="M101,105.4c-1.4,0-7.9,7.9-9.1,9.1-3.1,3.2-9.5,9.6-13.9,9.3-2-.5-2.3-2.2-2.3-3.9.2-8,13.7-35.7,18.5-47.1,3.2-7.2,6.8-14.3,9.3-21.7a23.2341,23.2341,0,0,0,1.8-8.6c.1-4.7-3.1-7.8-7.5-8.5,0,0-2.5,9.3-3,10.8-3.1,9.8-8.3,19.9-14.2,31.3-.9-6.2-6.3-9.4-11.9-9.4-14.1,0-28.3,18.4-33.2,33.1-4.8,15.5-6.4,34.8,11,35.1,6.9,0,12.2-6.1,16.6-11.3-.1,7.9,3.8,11.1,7.9,11.1,6,0,12.9-5.4,23.3-17,1.6-1.8,7.6-8.5,7.6-10.9.3-.9-.2-1.4-.9-1.4" transform="translate(0.05)" style="fill:none;stroke:#000;stroke-linecap:round;stroke-linejoin:round;stroke-width:6px"/><path d="M37.1,81.8,32.4,63.7a10.2842,10.2842,0,0,0-6.8-6.8L5.2,51.5c-3-.8-3-2.1,0-2.8l20.3-5.3a10.49,10.49,0,0,0,6.8-6.8l5.3-20.4c.8-3,2.1-3,2.8,0l5.3,20.4a10.2842,10.2842,0,0,0,6.8,6.8l20.3,5.3c3,.8,3,2.1,0,2.8L52.5,56.8a10.7083,10.7083,0,0,0-6.8,6.8L43.4,73a70.0609,70.0609,0,0,0-6.3,8.8" transform="translate(0.05)" style="fill:none;stroke:#000;stroke-linecap:round;stroke-linejoin:round;stroke-width:6px"/><path d="M59,27l7.6-2a3.9738,3.9738,0,0,0,2.6-2.6l2-7.6c.3-1.1.8-1.1,1.1,0l2,7.6A3.9738,3.9738,0,0,0,76.9,25l7.6,2c1.1.3,1.1.8,0,1.1l-7.6,2a3.9738,3.9738,0,0,0-2.6,2.6l-2,7.6c-.3,1.1-.8,1.1-1.1,0l-2-7.6a3.9738,3.9738,0,0,0-2.6-2.6L59,28c-1.1-.3-1.1-.8,0-1" transform="translate(0.05)" style="fill:none;stroke:#000;stroke-linecap:round;stroke-linejoin:round;stroke-width:6px"/><path d="M127.6,90.3l12,3.2c1.8.5,1.8,1.2,0,1.7l-12,3.1a6.0842,6.0842,0,0,0-4,4.1l-3.1,12.1c-.5,1.8-1.2,1.8-1.7,0l-3.2-12.1a6.5207,6.5207,0,0,0-4-4.1l-12-3.1c-1.8-.5-1.8-1.2,0-1.7l12-3.2a6.0842,6.0842,0,0,0,4-4.1l3.2-12.1c.5-1.8,1.2-1.8,1.7,0l3.1,12.1a6.0894,6.0894,0,0,0,4,4.1" transform="translate(0.05)" style="fill:none;stroke:#000;stroke-linecap:round;stroke-linejoin:round;stroke-width:6px"/><path d="M62.2,111.4c-1.9,3.4-7.4,10.8-11.4,10.8-2.7,0-4.5-2.8-4.4-6.9.4-10.5,5.2-21.2,12.3-29.6,2.1-2.4,4.5-5.4,8-5.4,3,0,4.5,1.8,4.4,5.2-.1,9.2-4.1,18-8.9,25.9" transform="translate(0.05)" style="fill:none;stroke:#000;stroke-linecap:round;stroke-linejoin:round;stroke-width:6px"/><rect x="0.05" width="144" height="144" style="fill:none"/></svg>