<svg xmlns="http://www.w3.org/2000/svg" viewBox="0 0 144 144"><circle cx="72" cy="72" r="69" style="fill:none;stroke:#000;stroke-linecap:round;stroke-linejoin:round;stroke-width:6px"/><path d="M81.9,59.6c1.9-2.1,16.5-13.9,19.5-14.6,4.4-1,7.1,3.7,3.9,7.1-1.9,2-18.8,8.9-22,9.5-.7.2-1.8.3-2.1-.1-.3-.5.2-1.4.7-1.9Zm30.6,8.3a4.1425,4.1425,0,0,1,3,3.8v.1h0a4.1636,4.1636,0,0,1-3,3.9c-2.1.7-15.6-.6-22-2.2-1.8-.5-3-.9-3.1-1.7.1-.7,1.3-1.2,3.1-1.7,6.3-1.6,19.8-2.9,22-2.2ZM81.2,82.5c.3-.5,1.3-.3,2.1-.1,3.2.6,20,7.5,22,9.5,3.2,3.3.5,8.1-3.9,7.1-3-.7-17.6-12.5-19.5-14.6-.5-.6-1-1.4-.7-1.9Z" style="fill:none;stroke:#000;stroke-linejoin:round;stroke-width:6px"/><path d="M71.4,39.5,51.9,96.9A11.9551,11.9551,0,0,1,40.5,105H30" style="fill:none;stroke:#000;stroke-linecap:round;stroke-linejoin:round;stroke-width:6px"/><line x1="36.3" y1="39.5" x2="53.8" y2="91.3" style="fill:none;stroke:#000;stroke-linecap:round;stroke-linejoin:round;stroke-width:6px"/><rect width="144" height="144" style="fill:none"/></svg>