<svg xmlns="http://www.w3.org/2000/svg" viewBox="0 0 144 144"><circle cx="72" cy="72" r="69" style="fill:none;stroke:#000;stroke-linecap:round;stroke-linejoin:round;stroke-width:6px"/><circle cx="69.4" cy="93.3" r="21.2" style="fill:none;stroke:#000;stroke-linejoin:round;stroke-width:6px"/><path d="M74.6,72.9A19.55,19.55,0,0,1,91.5,63a19.3,19.3,0,1,1,0,38.6,19.4812,19.4812,0,0,1-2.5-.2" style="fill:none;stroke:#000;stroke-linejoin:round;stroke-width:6px"/><path d="M63.8,73S66.7,46.4,47,39.6" style="fill:none;stroke:#000;stroke-linejoin:round;stroke-width:6px"/><path d="M38.8,42.6c3.2.6,11.8-1.1,10.5-12.1" style="fill:none;stroke:#000;stroke-linecap:round;stroke-linejoin:round;stroke-width:6px"/><path d="M50.1,40.8c21.7-8,35.6,23.1,35.6,23.1" style="fill:none;stroke:#000;stroke-linejoin:round;stroke-width:6px"/><path d="M62.2,81.5a3.7571,3.7571,0,0,0-3.7,3.7,3.7,3.7,0,0,0,7.4,0,3.7571,3.7571,0,0,0-3.7-3.7Z" style="fill:#000"/><rect width="144" height="144" style="fill:none"/></svg>