<svg xmlns="http://www.w3.org/2000/svg" viewBox="0 0 144 144"><path d="M109,81a31.8006,31.8006,0,1,0,0-63.6c-16.1,0-30.8,11.8-33.1,27.1,0,0-5.3-27.1-31.3-27.1a31.8594,31.8594,0,0,0-32,31.8C12.5,66.2,26,81,45,81V92.8L3,82.9v42.2l42-11V129H99L83.2,81ZM44.6,58.2a8.9626,8.9626,0,0,1-9-9,9,9,0,0,1,18,0,8.9626,8.9626,0,0,1-9,9Zm56-9a9.05,9.05,0,1,1,9,9A9.0264,9.0264,0,0,1,100.6,49.2Z" style="fill:none;stroke:#000;stroke-linejoin:round;stroke-width:6px"/><rect width="144" height="144" style="fill:none"/></svg>