<svg xmlns="http://www.w3.org/2000/svg" viewBox="0 0 144 144"><circle cx="72" cy="72" r="69" style="fill:none;stroke:#000;stroke-linecap:round;stroke-linejoin:round;stroke-width:6px"/><path d="M73.6,36a34.7925,34.7925,0,0,0-28.4-2.2A29.2638,29.2638,0,0,0,30.3,45.5a21.6147,21.6147,0,0,0-2.7,16.8A25.4427,25.4427,0,0,0,38.8,77.4c-1,2.9-2,5.8-2.9,8.8,3.4-1.8,6.7-3.6,10-5.4a37.8573,37.8573,0,0,0,12.5,1.8,21.5706,21.5706,0,0,1-.9-10.1,21.2156,21.2156,0,0,1,6.9-12.2c5.9-5.5,14.3-7.9,22.2-7.3-1.4-7.3-6.5-13.4-13-17Z" style="fill:none;stroke:#000;stroke-linejoin:round;stroke-width:6px"/><path d="M115.4,76.2a22.6774,22.6774,0,0,0-10.6-10.8,28.9134,28.9134,0,0,0-26.1.1c-5.6,2.9-10.2,8-11.6,14.2a18.5244,18.5244,0,0,0,2.3,13.6c3.6,6,10.2,9.9,17,11.1a31.4067,31.4067,0,0,0,14.9-1c2.9,1.1,5.4,2.9,8.2,4.3-.7-2.4-1.5-4.8-2.3-7.2a23.31,23.31,0,0,0,7.7-8.5,17.9053,17.9053,0,0,0,.5-15.8Z" style="fill:none;stroke:#000;stroke-linejoin:round;stroke-width:6px"/><path d="M100.8,73.9h-.3a2.9431,2.9431,0,0,0-1.8,5,2.5677,2.5677,0,0,0,2,.8,2.7773,2.7773,0,0,0,2.6-1.6,2.8937,2.8937,0,0,0-2.5-4.2Z" style="fill:#000"/><path d="M84.2,73.8a3.553,3.553,0,0,0-1,.2,3.0248,3.0248,0,0,0-1.1,4.9,2.7235,2.7235,0,0,0,2.1.9,3.0486,3.0486,0,0,0,2.9-1.9c.8-1.9-1-4.1-2.9-4.1Z" style="fill:#000"/><path d="M62.7,45.3a3.553,3.553,0,0,0-1,.2,2.9547,2.9547,0,0,0-.8,5.1,2.41,2.41,0,0,0,1.8.7,3.0017,3.0017,0,1,0,0-6Z" style="fill:#000"/><path d="M46.6,45.2a4.401,4.401,0,0,0-1,.2,3.0036,3.0036,0,0,0-.8,5.2,2.7919,2.7919,0,0,0,1.8.6,3.0093,3.0093,0,0,0,3-2.3,3.1374,3.1374,0,0,0-3-3.7Z" style="fill:#000"/><rect width="144" height="144" style="fill:none"/></svg>