<svg xmlns="http://www.w3.org/2000/svg" viewBox="0 0 144.0084 144"><path d="M81,45a6,6,0,0,0,0,12h6V99a6,6,0,0,0,12,0V57h6a6,6,0,0,0,0-12Z" transform="translate(0.0084)" style="fill:none;stroke:#000;stroke-linejoin:round;stroke-width:6px"/><path d="M135,51a6,6,0,0,0-12,0V99a6,6,0,0,0,12,0Z" transform="translate(0.0084)" style="fill:none;stroke:#000;stroke-linejoin:round;stroke-width:6px"/><path d="M63,99a6,6,0,0,1-12,0V72L16,103a7.702,7.702,0,0,1-10.8-.4A7.6026,7.6026,0,0,1,3,96.9a7.7633,7.7633,0,0,1,2.6-5.5L63,41.1Z" transform="translate(0.0084)" style="fill:none;stroke:#000;stroke-linejoin:round;stroke-width:6px"/><rect x="0.0084" width="144" height="144" style="fill:none"/></svg>