<svg xmlns="http://www.w3.org/2000/svg" viewBox="0 0 144 144"><circle cx="132" cy="45" r="9" style="fill:none;stroke:#000;stroke-linejoin:round;stroke-width:6px"/><circle cx="66" cy="27" r="6" style="fill:none;stroke:#000;stroke-linejoin:round;stroke-width:6px"/><circle cx="120" cy="90" r="6" style="fill:none;stroke:#000;stroke-linejoin:round;stroke-width:6px"/><circle cx="9" cy="96" r="6" style="fill:none;stroke:#000;stroke-linejoin:round;stroke-width:6px"/><circle cx="51" cy="75" r="6" style="fill:none;stroke:#000;stroke-linejoin:round;stroke-width:6px"/><circle cx="69" cy="114" r="9" style="fill:none;stroke:#000;stroke-linejoin:round;stroke-width:6px"/><line x1="66" y1="33" x2="69.8" y2="105.1" style="fill:none;stroke:#000;stroke-linejoin:round;stroke-width:6px"/><line x1="56.9" y1="74.8" x2="123.4" y2="47.5" style="fill:none;stroke:#000;stroke-linejoin:round;stroke-width:6px"/><line x1="13.9" y1="92.5" x2="46.6" y2="79.1" style="fill:none;stroke:#000;stroke-linejoin:round;stroke-width:6px"/><line x1="72" y1="27" x2="123.4" y2="43.9" style="fill:none;stroke:#000;stroke-linejoin:round;stroke-width:6px"/><line x1="130.4" y1="54" x2="123.5" y2="85.2" style="fill:none;stroke:#000;stroke-linejoin:round;stroke-width:6px"/><line x1="60.8" y1="30.9" x2="10.6" y2="89.9" style="fill:none;stroke:#000;stroke-linejoin:round;stroke-width:6px"/><line x1="14.3" y1="98.8" x2="60.6" y2="110.7" style="fill:none;stroke:#000;stroke-linejoin:round;stroke-width:6px"/><line x1="78" y1="110.7" x2="115.4" y2="93.8" style="fill:none;stroke:#000;stroke-linejoin:round;stroke-width:6px"/><line x1="70.8" y1="30.6" x2="115.4" y2="86.2" style="fill:none;stroke:#000;stroke-linejoin:round;stroke-width:6px"/><line x1="63.4" y1="32.5" x2="53.7" y2="69.6" style="fill:none;stroke:#000;stroke-linejoin:round;stroke-width:6px"/><line x1="53.7" y1="80.3" x2="65.5" y2="105.7" style="fill:none;stroke:#000;stroke-linejoin:round;stroke-width:6px"/><line x1="74.9" y1="107.2" x2="125.8" y2="51.5" style="fill:none;stroke:#000;stroke-linejoin:round;stroke-width:6px"/><rect width="144" height="144" style="fill:none"/></svg>