<svg xmlns="http://www.w3.org/2000/svg" viewBox="0 0 144 144"><circle cx="72" cy="72" r="69" style="fill:none;stroke:#000;stroke-linecap:round;stroke-linejoin:round;stroke-width:6px"/><path d="M33,61.5l3.2,4.1s6.5-5.1,8.7-2.6c2.2,2.6,10.5,33.7,13.3,39.4,2.4,5,9.1,11.7,16.4,6.9,7.3-4.7,31.7-25.5,36-50.1,4.4-24.5-29.3-19.4-32.9,2,8.9-5.4,13.7,2.2,9.1,10.7C82.3,80.5,78.1,86,76,86c-2.2,0-3.8-5.7-6.3-15.6C67,60.1,67.1,41.5,56.4,43.6,46.3,45.6,33,61.5,33,61.5Z" style="fill:none;stroke:#000;stroke-linejoin:round;stroke-width:6px"/><rect width="144" height="144" style="fill:none"/></svg>