<svg xmlns="http://www.w3.org/2000/svg" viewBox="0 0 144.019 144"><path d="M74.5,25A52.9579,52.9579,0,0,0,31,21.6a43.7186,43.7186,0,0,0-22.8,18A33.402,33.402,0,0,0,4,65.4c2.3,9.7,9,17.7,17.1,23.2-1.5,4.5-3,8.9-4.5,13.4,5.2-2.7,10.3-5.5,15.4-8.2a56.8536,56.8536,0,0,0,19.2,2.7,31.5784,31.5784,0,0,1,9.2-34.2c9.1-8.5,21.9-12.1,34.1-11.2C92.2,39.9,84.4,30.4,74.5,25ZM36.1,44.5A2.9851,2.9851,0,1,1,32.2,41,2.9975,2.9975,0,0,1,36.1,44.5Zm31.7-.6a3.0443,3.0443,0,0,1-4.9,2.2,2.9851,2.9851,0,0,1,.8-5.1A3.047,3.047,0,0,1,67.8,43.9Z" style="fill:none;stroke:#000;stroke-linejoin:round;stroke-width:6px"/><path d="M138.6,86.7a34.5991,34.5991,0,0,0-16.2-16.5,44.69,44.69,0,0,0-40,.1c-8.6,4.4-15.7,12.3-17.7,21.9A27.6976,27.6976,0,0,0,68.3,113c5.6,9.2,15.6,15.1,26.1,17,7.6,1.5,15.4.6,22.8-1.5,4.4,1.7,8.4,4.5,12.6,6.5-1.1-3.7-2.3-7.4-3.5-11a36.8121,36.8121,0,0,0,11.8-13,29.0634,29.0634,0,0,0,.5-24.3Zm-45,1.9a2.9722,2.9722,0,1,1-3.8-3.8c2.2-1,4.7,1.6,3.8,3.8Zm25.1.3a2.9693,2.9693,0,0,1-4.6.8,4.44,4.44,0,0,1-1-2.2c.3-1.4,1.2-2.8,2.8-2.8a2.9474,2.9474,0,0,1,2.8,4.2Z" style="fill:none;stroke:#000;stroke-linejoin:round;stroke-width:6px"/><rect width="144" height="144" style="fill:none"/></svg>