<svg xmlns="http://www.w3.org/2000/svg" viewBox="0 0 144 144"><path d="M40.91,83.96c-4.55,5.11-4.15,5.51-11.25,4.95-6.36-.5-7.32-1.11-9.78-4.77-2.89-4.31-2.57-4.58.16-9.98,2.65-5.24,3.15-5.82,9.29-6.62,7.7-1,7.48-.73,10.71,3.98C45.45,79.37,44.13,80.35,40.91,83.96ZM37.93,102.1c-3.39,1.79-2.59,1.66-8.58.46-5.52-1.1-5.86-2.28-7.55-3.91-1.55-1.5-1.64-2.54-.73-4.12,1.92-3.35,1.52-3.85,8.47-2.77,6.39.99,6.1.84,8.8,4.65C40.44,99.36,40.49,100.75,37.93,102.1ZM18.79,92.31c-1.24,2.41-1.88,2.63-4.32,2.01-2.45-.62-3.01-.99-4.59-3.24-2.32-3.3-2.31-3.55-1.89-6.59.36-2.67,1.02-3,3.22-2.89,2.6.12,3.38.28,5.8,3.57C19.76,88.91,20.23,89.5,18.79,92.31ZM6.88,68.92c1.19-3.99,1.44-4.58,4.84-6.39,3.24-1.72,4.31-1.27,5.74,1.64,1.43,2.9,2.13,3.85-.56,9.36-2.55,5.23-2.35,5.28-5.61,5.44-2.82.14-3.19-.9-4.19-3S5.71,72.84,6.88,68.92ZM6.04,84.06c-.48,2.49-.78,2.52-1.62,2.16s-.98-.94-1.77-2.64a8.652,8.652,0,0,1-.99-5.35c.15-2.43.59-2.83,1.41-3.15.81-.33.99-.12,2.32,2.79C6.7,80.76,6.52,81.57,6.04,84.06Zm14.7-31.28c2.3-4.7,3.83-5.83,9.1-8.45,4.61-2.29,6.31-3.36,10.38-1.13,5.12,2.82,4.74,3.16.26,11.96-3.65,7.17-4.5,8.14-11.79,9.47-5.09.93-6.68.66-8.37-2.19C18.17,58.83,18.21,57.96,20.74,52.78ZM45.45,72.11c-.82-1.47-2.33-3.87-2.99-4.98a7.5478,7.5478,0,0,1,.07-8.21c.67-1.17,1.86-3.35,2.77-5.19,1-2.04,1.44-3.14,1.77-3.79,2.72-5.33,1.86-6.48-.05-7.81a28.9578,28.9578,0,0,0-5.61-3.05,7.559,7.559,0,0,0-7.06-.12c-2.5,1.07-8.88,4.48-10.39,5.36a8.69,8.69,0,0,0-3.14,3.31c-.78,1.29-4.31,8.31-4.73,8.95a4.4292,4.4292,0,0,1-1.82,1.53c-.91.49-4.88,2.38-5.89,3.03a4.8762,4.8762,0,0,0-2,2.56c-.49,1.19-2.34,7.09-2.55,7.55-.21.47-.33.75-.71.96a11.6973,11.6973,0,0,0-1.55.76A3.41,3.41,0,0,0,.31,75.23a26.6844,26.6844,0,0,0-.3,4.67,8.7563,8.7563,0,0,0,.6,3,25.1979,25.1979,0,0,0,1.56,3.56,3.082,3.082,0,0,0,1.66,1.38c.7.27,1.01.36,1.52.54.46.17,1.08,1.14,1.52,1.76s2.42,3.42,3.09,4.35a5.6146,5.6146,0,0,0,2.39,1.89c.94.42,2.36.39,4.54.88a3.6673,3.6673,0,0,1,2.62,1.6c.86.93,2.29,2.48,3.17,3.26a8.4714,8.4714,0,0,0,3.4,1.76c1.61.47,4.68,1.21,6.99,1.6,3.81.65,4.63.45,6.28-.43a20.5549,20.5549,0,0,0,3.08-1.85c1.7-1.2,2.78-2.05,1.06-5.28-.63-1.19-1.39-2.59-2.43-4.19-1.12-1.74-1.27-2.52-.21-4.09.45-.66.97-.95,2.7-2.78,1.28-1.34,2.06-2.22,2.91-3.28,1.07-1.34,2.6-3.11,1.77-6.06A30.4014,30.4014,0,0,0,45.45,72.11Z" style="fill-rule:evenodd;fill:#000"/><path d="M84.78,80.82a2.2969,2.2969,0,0,1,.01,1.42L82.3,88.73a.4887.4887,0,0,0,.49.71h3.09a1.2033,1.2033,0,0,0,1.04-.71l2.5-6.49a3.6691,3.6691,0,0,1,.86-1.21L101.8,70.98c.47-.41.79-.51,1.03-.46.33.07.48.3.52.77l1.29,17.39a.8516.8516,0,0,0,.83.76h3.57a1.926,1.926,0,0,0,1.27-.58l15.44-17.78a1.2833,1.2833,0,0,1,1-.56c.31,0,.5.3.35.7l-6.73,17.51a.4887.4887,0,0,0,.49.71h15.19a1.2033,1.2033,0,0,0,1.04-.71l.76-1.97a.4887.4887,0,0,0-.49-.71H126.77a.4887.4887,0,0,1-.49-.71l1.55-4.03a1.2033,1.2033,0,0,1,1.04-.71l9.68.06a1.2033,1.2033,0,0,0,1.04-.71l.75-1.95a.4887.4887,0,0,0-.49-.71l-9.68-.06a.4887.4887,0,0,1-.49-.71l1.34-3.51a1.2033,1.2033,0,0,1,1.04-.71h10.12a1.2033,1.2033,0,0,0,1.04-.71l.73-1.9a.4888.4888,0,0,0-.49-.71H123.48a1.8485,1.8485,0,0,0-1.26.59L110.03,84.13a.5.5,0,0,1-.88-.33l-.88-14.05a.825.825,0,0,0-.81-.76H99.8a2.4222,2.4222,0,0,0-1.34.5l-8.8,7.7a.4727.4727,0,0,1-.82-.22l-2.45-7.25A1.1307,1.1307,0,0,0,85.38,69H76.2a1.2033,1.2033,0,0,0-1.04.71l-2.6,6.83a1.2033,1.2033,0,0,1-1.04.71H62.18a.4963.4963,0,0,1-.5-.71l2.59-6.84a.4907.4907,0,0,0-.5-.71h-3.4a1.2033,1.2033,0,0,0-1.04.71L52.04,88.75a.4887.4887,0,0,0,.49.71h3.39a1.2033,1.2033,0,0,0,1.04-.71l2.85-7.41a1.2033,1.2033,0,0,1,1.04-.71H70.2a.4887.4887,0,0,1,.49.71l-2.85,7.42a.4887.4887,0,0,0,.49.71h3.16a1.2033,1.2033,0,0,0,1.04-.71l6.73-17.51a.9977.9977,0,0,1,.83-.7.9815.9815,0,0,1,.85.7Z" style="fill:#000"/><rect width="144" height="144" style="fill:none"/></svg>