<svg xmlns="http://www.w3.org/2000/svg" viewBox="0 0 144 144"><path d="M134.4,117.4c-73.8,40.3-129.6-.5-129.6-.5" style="fill:none;stroke:#000;stroke-linecap:round;stroke-linejoin:round;stroke-width:6px"/><path d="M120.3,140.2c8.6-4.5,15.9-17.6,14.2-22.7v-.1c-1.6-3.4-15.5-8.5-26.3-4.2" style="fill:none;stroke:#000;stroke-linecap:round;stroke-linejoin:round;stroke-width:6px"/><path d="M74.3,47.6c-27.3,2-51.8,6.6-51.8,34.7,0,18,11.6,27.1,26.2,27.1,12.5,0,19.7-3.1,28.9-12.8,3.4,4.6,4.3,6.7,10.1,11.6a4.383,4.383,0,0,0,4.3-.3c3.7-3,10.1-8.5,13.4-11.6,1.5-1.2,1.2-3.1.3-4.6-3.3-4.3-6.7-7.9-6.7-16.2V48.2c0-11.6.9-22.2-7.6-30.2-7-6.4-18-8.8-26.5-8.8-19.5,0-35.7,8-39.3,26.8-.6,2.4,1.2,3.3,2.4,3.7l17.1,2.1a3.8166,3.8166,0,0,0,3-3.3c1.6-6.9,7.7-10.7,14.3-10.7,3.7,0,7.6,1.5,9.8,4.6C74.7,36.2,74.3,41.1,74.3,47.6ZM71,83.8c-5.8,11.6-22.9,11.6-22.9-4.6,0-9.8,5.8-14.3,13.1-16.5a60.783,60.783,0,0,1,13.1-1.2v3.7C74.3,72.3,74.6,77.7,71,83.8Z" style="fill:none;stroke:#000;stroke-linejoin:round;stroke-width:6px"/><rect width="144" height="144" style="fill:none"/></svg>