<svg xmlns="http://www.w3.org/2000/svg" viewBox="0 0 144 144"><path d="M93.3,73.2c2.9,3.9,2.3,6,3.3,10.8,3,14.4,21.6,16.7,32.5,10.6,8.3-4.5,14.2-13.1,10.9-23.3-1.6-5-6.7-9.6-12.4-10.9-6.7-1.5-12.2-1-19.3,2-5.2,2.2-11.4,4-17.7,2.6-16.3-3.4-13.8-22.6,1.5-30.9,10.9-5.8,15.6-2.4,24.9-7.6,9.3-5.1,12.9-15.4,5.1-19.5-3-1.7-6.2-1.9-9.7-1.4-7.6.9-14.4,4.1-18.5,11.3-3.2,5.7.4,8.4-4.8,15.3C77.2,47.8,53.2,46,58.8,30.7c1.5-4.1,7.7-9.4,5.6-14.3a4.9281,4.9281,0,0,0-2.2-2.3c-1.9-1.1-6.1-.8-8.5.1a26.5831,26.5831,0,0,0-6.5,3.3c-4.4,3.3-8.2,8.3-7.1,12.9,1,4.4,4.7,3.4,9.2,3.9,8.9.9,7.7,10.4,4,16.3-5,7.7-18,16-24.8,10.6-2.8-2.2-3.6-4.8-9.7-4C3.1,59.6-4,86.1,12.2,82.6c7.1-1.4,9.7-6.2,12.6-9.5,14.2-16,32.1-7.8,27,8.5-2.6,8.8-7.7,12.6-14.8,17-8.7,5.4-14.9,14.1-13.3,25.1,1.3,9.4,10.5,13,19.6,10.5,14.7-4,16.6-18.7,11.9-31.5-3-8.2-3.8-13,.1-20a25.4924,25.4924,0,0,1,4.2-6.1c9.1-10.5,25.3-15.2,33.8-3.4Z" style="fill:none;stroke:#000;stroke-linejoin:round;stroke-width:6px"/><path d="M118.1,70.8c5.1-1.4,10.4,1.5,11,6,.6,4.9-3.4,8.2-7.3,9.2-12.2,3.2-16.3-12-3.7-15.2Z" style="fill:none;stroke:#000;stroke-linejoin:round;stroke-width:6px"/><path d="M110.3,19.8c-5.4.8-4.3-4.9,1.1-5.8,5.3-.9,4,5-1.1,5.8Z" style="fill:none;stroke:#000;stroke-linejoin:round;stroke-width:6px"/><path d="M41.5,108.6c5.2-.7,7.4,4.4,5.9,8.9-3.5,10.9-16.9,8.8-13.6-1.6,1-3.3,4.1-6.9,7.7-7.3Z" style="fill:none;stroke:#000;stroke-linejoin:round;stroke-width:6px"/><path d="M15.8,67.2a1.2683,1.2683,0,0,0-.6.1c-2.7.6-4.8,4.1-3.3,5.5a1.5039,1.5039,0,0,0,1.1.4A4.76,4.76,0,0,0,17.2,69c.2-1.2-.4-1.8-1.4-1.8Z" style="fill:#000"/><path d="M54.4,19.9a3.7513,3.7513,0,0,0-1,.1c-4.5,1.2-5.8,5.9-2.8,5.9a5.16,5.16,0,0,0,1.1-.2c4.2-1,5.7-5.8,2.7-5.8Z" style="fill:#000"/><rect width="144" height="144" style="fill:none"/></svg>