<svg xmlns="http://www.w3.org/2000/svg" viewBox="0 0 144 144"><circle cx="72" cy="72" r="69" style="fill:none;stroke:#000;stroke-linecap:round;stroke-linejoin:round;stroke-width:6px"/><path d="M108,35.8c-.6,1.7-5.2,2.5-6.2,3.8-1.8,2.2-1.1,9.1-1.1,13.8V90.6c0,2.1-.3,6.2.4,6.9s3,.2,4,.5c19.3,6.2-26.6,22.6-24.1,5.5.2-1.4,1.3-2.1,2.9-2.7,1.1-.4,3.5-.2,4.4-1.1,1.1-1.1.3-5.9.2-8.5,0-.5.1-8.7-.2-9.1C86.7,80,58.8,85,56.6,88.3c-1,1.6,0,14.7.2,15,.7,1.2,3.8.6,4.5.9,1.8.6,4.3,3.3,4,6-.7,5.9-28.1,11.5-26.9.2.2-2,3-3.1,4.9-3.8.6-.2,1.8-.3,2.1-.7.7-.9.3-4.6,0-6.9-.8-6.7-1-14.7-1.1-21.6-.1-8.2-.5-13.9-.5-22.4,0-2.4.2-6.3-.4-7.1-.7-.8-2.9-.7-4.2-1.2-22.5-9.7,35.1-22,24.6-4.6-1.3,2.2-6.4,1.7-7.5,3.5-.5.7-.4,3.4-.4,5.8,0,7.1-.9,12-.4,19.2.1,1,.4,4.4,1.1,4.7l31.3-5.1c1.5-1.2.6-4.9.4-6.7a58.6216,58.6216,0,0,1,0-14.5c.2-2,.9-5.8-.2-6.9-.7-.7-3.2-.8-4-1.1C61.4,31.5,114.2,17.8,108,35.8Z" style="fill:none;stroke:#000;stroke-linejoin:round;stroke-width:6px"/><rect width="144" height="144" style="fill:none"/></svg>