<svg xmlns="http://www.w3.org/2000/svg" viewBox="0 0 144 144.0897"><path d="M24.5,139.3c11.6-.5,25.7,0,39.5,0,14.2,0,28.8-.9,40.2,0,4.6.4,8.9,3.1,12.7.7,2.9-3.8.8-8.9,1.4-14,1.2-9.7,10.2-21.3-2.8-23.8-5.5,5-1.8,9.8-4.9,16.1-3.8,7.6-17.4,10.2-30.3,11.2-11.1.9-30.6,2-34.6-5.6-3.4-6.4-1.4-16.3-1.4-24.5,0-9.2-1-18.1,1.4-25.2,14.1,1,32.4-4.7,42.3,1.4,6.7,4.1,2.9,12.1,10.6,14.7,5.3-1.4,2.5-8.3,2.1-14.7-.2-4.1-.2-9.9,0-14.7.3-6.4,2.8-13.9-4.2-14-5.5,4.3-1.4,11.4-7.1,15.4-1.8,1.3-5.8,1.8-8.5,2.1-10.6,1.1-27.2.2-36-1.4a272.1544,272.1544,0,0,1,0-43.3c4.8-4.8,15.8-4.9,23.3-4.9,13.1,0,33.5,1.1,37.4,7.7,2.1,3.6.4,11,4.2,11.9,7.6,1.7,3.9-11.9,4.2-18.2.2-4.7,2.3-7.8,1.4-11.2-2.5-3.4-6.2-1.7-8.5-1.4C82.9,6.6,46.4,5,20.8,5c-3.1,0-8.4-1.5-10.6,2.1C9,15.2,20,11.9,23.8,16.3c1.3,1.4,3.1,7.7,3.5,11.9,1.1,11.2,0,28.3,0,44.7,0,17.4,1.3,34.9,0,45.4-.5,3.7-2.7,9.6-3.5,10.5-4.8,4.8-17.5-.5-16.2,9.8,4.5,3,10.9,1,16.9.7" transform="translate(0 0.0897)" style="fill:none;stroke:#000;stroke-linejoin:round;stroke-width:6px"/><rect y="0.0897" width="144" height="144" style="fill:none"/></svg>