<svg xmlns="http://www.w3.org/2000/svg" viewBox="0 0 144 144"><circle cx="72" cy="72" r="69" style="fill:none;stroke:#000;stroke-linecap:round;stroke-linejoin:round;stroke-width:6px"/><path d="M93,102.1a40.6753,40.6753,0,0,0,19-34.5C112,45.2,94.1,27,72,27S32,45.2,32,67.5,49.9,108,72,108a41.6852,41.6852,0,0,0,9.4-1.1c3.8,6.9,9.6,11.8,21.9,9.5v-6.9S95.4,107.6,93,102.1Zm-.3-29.2A28.239,28.239,0,0,1,87,90.4a25.165,25.165,0,0,0-20-8v8s5.9.2,10,7.2a14.8744,14.8744,0,0,1-4.7.7C61,98.3,51.9,87,51.9,73V62.5c0-14,9.1-25.3,20.4-25.3S92.7,48.5,92.7,62.5V72.9Z" style="fill:none;stroke:#000;stroke-linejoin:round;stroke-width:6px"/><rect width="144" height="144" style="fill:none"/></svg>