<svg xmlns="http://www.w3.org/2000/svg" viewBox="0 0 144 144"><circle cx="72" cy="72" r="69" style="fill:none;stroke:#000;stroke-linecap:round;stroke-linejoin:round;stroke-width:6px"/><path d="M108.7,63.8c-1.6-1.2-9.9.1-12-1.8-1.5-1.4-1.7-1-2.2-4.3-.8-6.5-.8-7.9-1.8-10.1C88.9,39.7,78.9,33.8,72.1,33H59.6A26.7171,26.7171,0,0,0,33,59.6V84.4A26.7171,26.7171,0,0,0,59.6,111H84a27.39,27.39,0,0,0,27-26.9V67.4C110.4,64.8,110,64.8,108.7,63.8Z" style="fill:none;stroke:#000;stroke-linejoin:round;stroke-width:6px"/><path d="M51.1,87c0,3,2.5,6,5.5,6H87.5c3,0,5.5-3,5.5-6s-2.4-6-5.5-6H56.6C53.6,81,51.1,84,51.1,87Z" style="fill:none;stroke:#000;stroke-linejoin:round;stroke-width:6px"/><path d="M51.1,57c0,3,2.5,6,5.5,6H75.5c3,0,5.5-3,5.5-6s-2.5-6-5.5-6H56.6C53.6,51,51.1,54,51.1,57Z" style="fill:none;stroke:#000;stroke-linejoin:round;stroke-width:6px"/><rect width="144" height="144" style="fill:none"/></svg>