<svg xmlns="http://www.w3.org/2000/svg" viewBox="0 0 144 144"><circle cx="72" cy="72" r="69" style="fill:none;stroke:#000;stroke-linecap:round;stroke-linejoin:round;stroke-width:6px"/><path d="M37.2,57H24.9l3.3-18H40c7.7,0,9.5,5.1,9.5,8.1C49.5,51.3,46.8,57,37.2,57Z" style="fill:none;stroke:#000;stroke-linejoin:round;stroke-width:6px"/><path d="M74.6,51H62.3l3.3-18H77.4c7.6,0,9.5,5.1,9.5,8.1C87,45.3,84.2,51,74.6,51Z" style="fill:none;stroke:#000;stroke-linejoin:round;stroke-width:6px"/><path d="M110.6,63H98.3l3.3-18h11.8c7.7,0,9.5,5.1,9.5,8.1C123,57.3,120.3,63,110.6,63Z" style="fill:none;stroke:#000;stroke-linejoin:round;stroke-width:6px"/><path d="M106.7,93H94.4l3.3-18h11.8c7.6,0,9.5,5.1,9.5,8.1C119.1,87.3,116.3,93,106.7,93Z" style="fill:none;stroke:#000;stroke-linejoin:round;stroke-width:6px"/><path d="M33.3,87H21l3.3-18H36.1c7.7,0,9.5,5.1,9.5,8.1C45.6,81.3,42.9,87,33.3,87Z" style="fill:none;stroke:#000;stroke-linejoin:round;stroke-width:6px"/><path d="M70.7,81H58.4l3.3-18H73.5c7.7,0,9.5,5.1,9.5,8.1C83,75.3,80.3,81,70.7,81Z" style="fill:none;stroke:#000;stroke-linejoin:round;stroke-width:6px"/><path d="M66.8,111H54.5l3.3-18H69.6c7.7,0,9.5,5.1,9.5,8.1C79.1,105.3,76.4,111,66.8,111Z" style="fill:none;stroke:#000;stroke-linejoin:round;stroke-width:6px"/><rect width="144" height="144" style="fill:none"/></svg>