<svg xmlns="http://www.w3.org/2000/svg" viewBox="0 0 144 144"><circle cx="72" cy="72" r="69" style="fill:none;stroke:#000;stroke-linecap:round;stroke-linejoin:round;stroke-width:6px"/><path d="M30,34.7V82.8h.1c.7,16.6,20.5,29.9,44.9,29.9,24.9,0,45-13.8,45-30.8S99.9,51.1,75,51.1c-10.9,0-21.6,2.6-29.4,7V34.7ZM75,61.4c15.8,0,28.6,9.2,28.6,20.5S90.8,102.4,75,102.4,46.4,93.2,46.4,81.9,59.2,61.4,75,61.4M63,81.9c0-4.7,5.4-8.6,12-8.6s12,3.8,12,8.6-5.4,8.6-12,8.6-12-3.8-12-8.6" style="fill:none;stroke:#000;stroke-linejoin:round;stroke-width:6px"/><rect width="144" height="144" style="fill:none"/></svg>