<svg xmlns="http://www.w3.org/2000/svg" viewBox="0 0 144.1 144"><path d="M88.9,135c-10.7,0-25-8.8-24.9-8.8L76.2,83.9c3.7,3,12.3,8.6,26.4,8.6a68.3154,68.3154,0,0,0,23.1-4.4l-11.7,41c-10.2,4.2-18.3,5.9-25.1,5.9" transform="translate(0.1)" style="fill:#000;stroke:#000;stroke-linejoin:round;stroke-width:6px"/><path d="M50.2,121.7c-6.8-4.5-13.9-8.5-24.3-8.5-6.3,0-13.7,1.5-23,5.2L15.1,76c9.7-4,18.7-5.6,24.2-5.6,9.7,0,17.4,4.3,23.5,8.1C61.3,84.1,52.7,113.2,50.2,121.7Z" transform="translate(0.1)" style="fill:#000;stroke:#000;stroke-linejoin:round;stroke-width:6px"/><path d="M77.6,18.5h0c-2.5,8.6-9.9,34.1-12.4,42.6-6.5-4.3-13.5-8.3-23.5-8.4-8.1,0-16.1,2.4-23.7,5.5L30,15.9c9.1-3.7,16.5-5.2,22.7-5.3C60.7,10.6,66.8,12.1,77.6,18.5Z" transform="translate(0.1)" style="fill:#000;stroke:#000;stroke-linejoin:round;stroke-width:6px"/><path d="M105.3,75A47.4579,47.4579,0,0,1,79,66.8l-.1-.1L91.3,24a42.2478,42.2478,0,0,0,26.1,8.7A57.8,57.8,0,0,0,141,27.3L128.8,69.2h-.1v.1A53.354,53.354,0,0,1,105.3,75" transform="translate(0.1)" style="fill:#000stroke:#000;stroke-linejoin:round;stroke-width:6px"/><rect x="0.1" width="144" height="144" style="fill:none"/></svg>