<svg xmlns="http://www.w3.org/2000/svg" viewBox="0 0 144 144"><path d="M46.1,93.1c-8.6,16.4-14.9,22-32.4,26,3.3,7.8,4.6,10.7,9.5,21a83.4843,83.4843,0,0,0,44.5-30c14.6,3.8,25.3,13.1,34.2,30.1,9.2-7.7,10.2-8.5,18-14.8-6.1-14.7-21-27.4-35.3-34.3.1-3.5.2-4.4.4-7.1,20.9,5.5,38.6-12,38.6-12s-4.5-8.4-10.1-17.1c-19.4,17.6-28.5-2.1-50-9.1C50.6,53.6,45.5,73.2,46.1,93.1Z" style="fill:none;stroke:#000;stroke-linejoin:round;stroke-width:6px"/><path d="M106.8,22.5a19.701,19.701,0,0,0-39.4,0,19.701,19.701,0,0,0,39.4,0Z" style="fill:none;stroke:#000;stroke-linejoin:round;stroke-width:6px"/><rect width="144" height="144" style="fill:none"/></svg>