<svg xmlns="http://www.w3.org/2000/svg" viewBox="0 0 144 144.0254"><path d="M27,47.5,67.9,23,87.3,34.2A9.34,9.34,0,1,0,96.6,18L76.5,6.4c-7.8-4.5-9.1-4.6-17-.1L17.7,31.8h-.1C9.5,36.4,9,37.6,9,46.6V97.3c0,9.1.5,10.2,8.7,14.9l41.9,25.4c7.8,4.5,9.1,4.4,16.9-.1l20.7-11.9a9.35,9.35,0,0,0-9.8-15.9L67.9,121,27,96.5v-49Z" transform="translate(0 0.0254)" style="fill:none;stroke:#000;stroke-linejoin:round;stroke-width:6px"/><path d="M111,98.9c0,3.1,3,5.7,6.1,5.7h6.2a5.7626,5.7626,0,0,0,5.7-5.7V44a5.51,5.51,0,0,0-5.7-5.4h-6.2c-3.1,0-6.1,2.3-6.1,5.4Z" transform="translate(0 0.0254)" style="fill:none;stroke:#000;stroke-linejoin:round;stroke-width:6px"/><path d="M39,55.9v24c0,3.6,2.1,6.6,5.7,6.6A6.3435,6.3435,0,0,0,51,79.9V63.5l15.1-8.1a6.6671,6.6671,0,0,0-5.7-12Z" transform="translate(0 0.0254)" style="fill:none;stroke:#000;stroke-linejoin:round;stroke-width:6px"/><rect y="0.0254" width="144" height="144" style="fill:none"/></svg>