<svg xmlns="http://www.w3.org/2000/svg" viewBox="0 0 144 144"><path d="M135,117a23.9424,23.9424,0,0,1-24,24H27A23.9424,23.9424,0,0,1,3,117V99A23.9424,23.9424,0,0,1,27,75h84a23.9424,23.9424,0,0,1,24,24Z" style="fill:none;stroke:#000;stroke-linejoin:round;stroke-width:6px"/><polyline points="20.8 6.4 39 29.8 39 57" style="fill:none;stroke:#000;stroke-linecap:round;stroke-linejoin:round;stroke-width:6px"/><polyline points="57.1 6.4 39 29.8 39 57" style="fill:none;stroke:#000;stroke-linecap:round;stroke-linejoin:round;stroke-width:6px"/><path d="M75,48a9,9,0,0,1-18,0V30a9,9,0,0,1,18,0Z" style="fill:none;stroke:#000;stroke-linecap:round;stroke-linejoin:round;stroke-width:6px"/><path d="M111,21V45a12,12,0,0,1-24,0V21" style="fill:none;stroke:#000;stroke-linecap:round;stroke-linejoin:round;stroke-width:6px"/><line x1="111" y1="21" x2="111" y2="56.4" style="fill:none;stroke:#000;stroke-linecap:round;stroke-linejoin:round;stroke-width:6px"/><line x1="63" y1="99" x2="63" y2="122.4" style="fill:none;stroke:#000;stroke-linecap:round;stroke-linejoin:round;stroke-width:6px"/><line x1="20.9" y1="93" x2="45.1" y2="93" style="fill:none;stroke:#000;stroke-linecap:round;stroke-linejoin:round;stroke-width:6px"/><line x1="33" y1="93" x2="33" y2="122.9" style="fill:none;stroke:#000;stroke-linecap:round;stroke-linejoin:round;stroke-width:6px"/><line x1="75" y1="87" x2="75" y2="122.9" style="fill:none;stroke:#000;stroke-linecap:round;stroke-linejoin:round;stroke-width:6px"/><path d="M87,117a6,6,0,0,1-12,0V105a6,6,0,0,1,12,0Z" style="fill:none;stroke:#000;stroke-linecap:round;stroke-linejoin:round;stroke-width:6px"/><path d="M51,99v18a6,6,0,0,0,12,0V99" style="fill:none;stroke:#000;stroke-linecap:round;stroke-linejoin:round;stroke-width:6px"/><path d="M112,118.5c0,3.3-3.2,5.2-6.5,5.2s-6.5-3.4-6.5-6.8v-12a6,6,0,0,1,12,0v6H99" style="fill:none;stroke:#000;stroke-linecap:round;stroke-linejoin:round;stroke-width:6px"/><rect width="144" height="144" style="fill:none"/></svg>