<svg xmlns="http://www.w3.org/2000/svg" viewBox="0 0 144 144"><path d="M129,84A57,57,0,0,1,15,84C15,43.8,65,26.7,69.8,9.1,75.8,26.6,129,37.3,129,84Z" style="fill:none;stroke:#000;stroke-linejoin:round;stroke-width:6px"/><path d="M55.9,73.9c11.3,0,23.3,13.6,29.8,13.6s19.3-11.1,26-11.1,9.6,23-3.8,33.1c-5.9,1-17.4-15.1-22.2-15.1s-23.8,16.1-32.9,16.1C27.1,110.6,32.1,73.9,55.9,73.9Z" style="fill:none;stroke:#000;stroke-linejoin:round;stroke-width:6px"/><path d="M76.3,115.3a11.8235,11.8235,0,0,1,10-5.8c3,0,5.2,2.7,6.4,4.8" style="fill:none;stroke:#000;stroke-linecap:round;stroke-linejoin:round;stroke-width:6px"/><path d="M65.4,123.5c3.4,2.5,15.2,9.8,29.2.3" style="fill:none;stroke:#000;stroke-linecap:round;stroke-linejoin:round;stroke-width:6px"/><rect width="144" height="144" style="fill:none"/></svg>