<svg xmlns="http://www.w3.org/2000/svg" viewBox="0 0 144 144"><circle cx="72" cy="72" r="69" style="fill:none;stroke:#000;stroke-linecap:round;stroke-linejoin:round;stroke-width:6px"/><path d="M48,67.3a18.5253,18.5253,0,0,1-1.5-7.5c0-13.9,10.4-26.4,27.2-26.4,14.8,0,22.9,9.1,22.9,21.1,0,15.9-7,29.3-17.5,29.3-5.8,0-10.1-4.8-8.7-10.6,1.7-7,4.9-14.5,4.9-19.6,0-4.5-2.4-8.3-7.4-8.3-5.9,0-10.6,6.1-10.6,14.3a20.644,20.644,0,0,0,1.8,8.7s-6,25.6-7.1,30c-2.1,8.9-.3,19.9-.2,21a.7116.7116,0,0,0,1.3.3c.5-.7,7.6-9.4,10-18,.7-2.5,3.9-15.2,3.9-15.2,1.9,3.7,7.5,6.9,13.5,6.9,17.7,0,29.8-16.2,29.8-37.8,0-16.4-13.8-31.6-34.9-31.6C49,24,35.8,42.8,35.8,58.4A27.4751,27.4751,0,0,0,39,72.1Z" style="fill:none;stroke:#000;stroke-linejoin:round;stroke-width:6px"/><rect width="144" height="144" style="fill:none"/></svg>