<svg xmlns="http://www.w3.org/2000/svg" viewBox="0 0 144 144"><circle cx="72" cy="72" r="69" style="fill:none;stroke:#000;stroke-linecap:round;stroke-linejoin:round;stroke-width:6px"/><path d="M34.3,98.2c8,6.2,18.7,8.8,28.9,9.6a110.7053,110.7053,0,0,0,19.1-.1c21.7-2.3,34.2-13.3,34.6-18.3a13.9453,13.9453,0,0,0-.4-4.1c-7.7-38-29.7-52-43.6-52H70.1C48.4,33.2,27,66.9,27,88.6,27,91.9,31.8,96.2,34.3,98.2Z" style="fill:none;stroke:#000;stroke-linejoin:round;stroke-width:6px"/><path d="M34.4,98.1c-1.6-2.3-1.1-2.6-.9-3.6,1.4-5.8,10.2-21.5,16-23.4,5.9-1.9,8.6,9,14.6,8.6,5.1-.3,15.2-18.1,19.1-19.4a3.0955,3.0955,0,0,1,1.9.1c3.9,1.8,14.1,11.4,23.8,28.9,1.5,2.6,2.7,5.3,1.7,7.9" style="fill:none;stroke:#000;stroke-linejoin:round;stroke-width:6px"/><rect width="144" height="144" style="fill:none"/></svg>