<svg xmlns="http://www.w3.org/2000/svg" viewBox="0 0 144 144.1"><path d="M15.6,27,39,4.3V27Zm101.6-5.7c-2.4-4.1-14.9-8.8-21.3-8.8H79.2S75.6,2.9,63,2.9,51,8.3,51,13.1V32.5l-6.5,6.3H18.1A18.1428,18.1428,0,0,0,9.9,54.2c0,10.7,3.3,47.6,25.4,51.1C61.5,109.4,66,97.2,66,95.7c0-6.2.2-15.5.2-15.5s7.7,14.7,19.3,14.7,18.3,6.7,18.3,13.5v12.7s-.4,7.9-7.2,7.9H82s-4.8-3.7-4.8-8.8,2.3-6.5,5.1-6.5a43.3381,43.3381,0,0,1,5,.3V103s-21.9-.1-21.9,16.7,11.5,21.1,20.7,21.1h15s27.1-3.5,27.1-56.9c-.2-53.5-8.6-58.5-11-62.6M90.3,69.2s1.3-8.8,6.4-8.8,12.1,11.8,12.1,11.8S92.8,69.2,90.3,69.2Z" transform="translate(0 0.1)" style="fill:none;stroke:#000;stroke-linejoin:round;stroke-width:6px"/><rect y="0.1" width="144" height="144" style="fill:none"/></svg>