<svg xmlns="http://www.w3.org/2000/svg" viewBox="0 0 144 144.0335"><path d="M128.2,16.5c-.9,2.7-7.9,3.9-9.5,5.9-2.7,3.4-1.7,14-1.7,21.2v57.1c0,3.2-.4,9.6.6,10.6s4.7.4,6.1.8c29.6,9.5-40.8,34.7-37,8.3.3-2.1,2.1-3.2,4.5-4.2,1.6-.6,5.3-.3,6.7-1.7,1.8-1.7.4-9,.3-13.1,0-.7.1-13.4-.3-14-2.5-3.2-45.2,4.4-48.6,9.5-1.6,2.4,0,22.5.3,23.1,1.1,1.8,5.8,1,6.9,1.4,2.7.9,6.7,5.1,6.2,9.2-1.1,9.1-43.1,17.6-41.3.3.3-3,4.6-4.8,7.6-5.9.9-.3,2.8-.5,3.3-1.1,1.1-1.4.5-7.1,0-10.6-1.2-10.2-1.5-22.6-1.7-33.1-.2-12.5-.8-21.3-.8-34.3,0-3.7.4-9.6-.5-10.9-1.1-1.3-4.4-1.1-6.4-1.9-34.4-14.8,53.8-33.8,37.7-7-2,3.3-9.8,2.6-11.4,5.3-.7,1.1-.6,5.3-.6,8.9,0,10.8-1.4,18.4-.5,29.5.1,1.6.6,6.7,1.7,7.2l48-7.8c2.3-1.9.9-7.6.5-10.3a87.5913,87.5913,0,0,1,0-22.3c.3-3.1,1.3-9-.3-10.6-1-1-5-1.2-6.1-1.7C56.6,9.9,137.6-11.2,128.2,16.5Z" transform="translate(0 0.0335)" style="fill:none;stroke:#000;stroke-linejoin:round;stroke-width:6px"/><rect y="0.0335" width="144" height="144" style="fill:none"/></svg>