<svg xmlns="http://www.w3.org/2000/svg" viewBox="0 0 144 144"><path d="M63,87H75v54h51.2a2.9,2.9,0,0,0,2.6-1.4,3.2034,3.2034,0,0,0,.3-3L71.9,4.9A3.0486,3.0486,0,0,0,69,3h0a3.0486,3.0486,0,0,0-2.9,1.9L8.8,136.6a3.2034,3.2034,0,0,0,.3,3,3.143,3.143,0,0,0,2.6,1.4H63Z" style="fill:none;stroke:#000;stroke-linejoin:round;stroke-width:6px"/><line x1="75" y1="103.4" x2="89.6" y2="95.5" style="fill:none;stroke:#000;stroke-linejoin:round;stroke-width:6px"/><line x1="63" y1="109.1" x2="49.1" y2="101.6" style="fill:none;stroke:#000;stroke-linejoin:round;stroke-width:6px"/><line x1="75" y1="117.8" x2="99" y2="105.5" style="fill:none;stroke:#000;stroke-linejoin:round;stroke-width:6px"/><rect width="144" height="144" style="fill:none"/></svg>