<svg xmlns="http://www.w3.org/2000/svg" viewBox="0 0 144 144"><circle cx="72" cy="72" r="69" style="fill:none;stroke:#000;stroke-linecap:round;stroke-linejoin:round;stroke-width:6px"/><path d="M38,77.5a39.4961,39.4961,0,0,1,78.9-2.7A26.2021,26.2021,0,0,0,117,72a45,45,0,1,0-45,45c.9,0,1.9-.1,2.8-.1A39.55,39.55,0,0,1,38,77.5Z" style="fill:none;stroke:#000;stroke-linecap:round;stroke-linejoin:round;stroke-width:6px"/><path d="M79.9,52.3a27,27,0,1,0,27,27,35.7311,35.7311,0,0,0-.4-4.7A12.2935,12.2935,0,1,1,92.6,55.5a26.0317,26.0317,0,0,0-12.7-3.2Z" style="fill:none;stroke:#000;stroke-linecap:round;stroke-linejoin:round;stroke-width:6px"/><rect width="144" height="144" style="fill:none"/></svg>