<svg xmlns="http://www.w3.org/2000/svg" viewBox="0 0 144 144"><circle cx="72" cy="72" r="69" style="fill:none;stroke:#000;stroke-linecap:round;stroke-linejoin:round;stroke-width:6px"/><path d="M57.5,72.7C53.4,74.9,44.8,56.8,43,52.3a3.8874,3.8874,0,0,0-1.1-1.5,6.195,6.195,0,0,0-2.1-.8l-12.9.1s-1.9.1-2.6.9c-.6.7,0,2.3,0,2.3S34.3,76,45.7,87.9C56.2,98.8,68,97.3,68,97.3c.6,0,7.4.1,7.8-.3,2.2-2.3-.6-8.6,4-10,3.3-1,7.5,7.1,12,10.2,3.4,2.3,6,1.9,6,1.9l12-.1s6.3-.4,3.3-5.3c-.2-.4-1.7-3.6-8.9-10.3-7.5-7-6.5-5.9,2.6-18,5.5-7.4,7.7-11.9,7-13.8-.7-1.8-4.7-1.4-4.7-1.4l-13.5.1a3.3151,3.3151,0,0,0-1.7.3,3.856,3.856,0,0,0-1.2,1.5c-1.9,4.9-10.8,23-14.4,20.7-4.9-3.2,2.4-22.5-4.6-24.2a24.7006,24.7006,0,0,0-6.3-.6c-4.8,0-8.9,0-11.2,1.1-1.5.8-2.7,2.4-2,2.5a5.8548,5.8548,0,0,1,4,2C59.9,56,60.3,71.2,57.5,72.7Z" style="fill:none;stroke:#000;stroke-linejoin:round;stroke-width:6px"/><rect width="144" height="144" style="fill:none"/></svg>