<svg xmlns="http://www.w3.org/2000/svg" viewBox="0 0 144 144"><circle cx="72" cy="72" r="69" style="fill:none;stroke:#000;stroke-linecap:round;stroke-linejoin:round;stroke-width:6px"/><path d="M49.3,31.5C37.8,36.1,29.9,45,27.7,56.9c-2.1,11.5.8,22.3,6.6,28.3a20.1844,20.1844,0,0,0,3-1.4c3.9-2.2,6.8-5.6,10.1-8.5-11.2-13,.7-29.1,15.5-32.6,13.8-3.3,32.6,2.4,36.8,16.6,4,13.7-8,24.1-22.6,20.6-1.8-.4-3.2-.4-3.2-2.4V54.2c0-1.6-.1-1.2-1.5-1.4-1-.1-2.1-.2-3.1-.3a45.76,45.76,0,0,0-11.1.1c-1.4.2-1.5,0-1.5,1.5,0,10.4.3,38.2.3,38.4-.1,2.6-.2,8.8-3.1,10.1-3.4,1.5-6.3-1.7-9.4-2.3.4,4.4-2.3,13,2.8,15.2,4.7,2,10,2.8,14.9,1.1,10.3-3.5,13.6-14.9,12.3-24.3,15.9,4.7,33-3.2,39.8-17.5,4.8-10.2,2.8-22.9-4.5-31.5C96.3,27,68.6,23.9,49.3,31.5" style="fill:none;stroke:#000;stroke-linejoin:round;stroke-width:6px"/><rect width="144" height="144" style="fill:none"/></svg>