<svg xmlns="http://www.w3.org/2000/svg" viewBox="0 0 144 144"><path d="M76.8,99h47a17,17,0,1,0,0-34,18.4686,18.4686,0,0,0-6.6,1.3A29.9964,29.9964,0,0,0,87.4,39a32.4473,32.4473,0,0,0-10.9,2c-1.3.5-1.6,1-1.6,2V97A2.1416,2.1416,0,0,0,76.8,99Z" style="fill:none;stroke:#000;stroke-linejoin:round;stroke-width:6px"/><line x1="63" y1="44.9" x2="63" y2="99" style="fill:none;stroke:#000;stroke-linecap:round;stroke-linejoin:round;stroke-width:6px"/><line x1="51" y1="50.9" x2="51" y2="99" style="fill:none;stroke:#000;stroke-linecap:round;stroke-linejoin:round;stroke-width:6px"/><line x1="39" y1="53.9" x2="39" y2="99" style="fill:none;stroke:#000;stroke-linecap:round;stroke-linejoin:round;stroke-width:6px"/><line x1="27" y1="65.9" x2="27" y2="99" style="fill:none;stroke:#000;stroke-linecap:round;stroke-linejoin:round;stroke-width:6px"/><line x1="15" y1="65.9" x2="15" y2="99" style="fill:none;stroke:#000;stroke-linecap:round;stroke-linejoin:round;stroke-width:6px"/><line x1="3" y1="72" x2="3" y2="95.9" style="fill:none;stroke:#000;stroke-linecap:round;stroke-linejoin:round;stroke-width:6px"/><rect width="144" height="144" style="fill:none"/></svg>