<svg xmlns="http://www.w3.org/2000/svg" viewBox="0 0 144 144"><circle cx="72" cy="72" r="69" style="fill:none;stroke:#000;stroke-linecap:round;stroke-linejoin:round;stroke-width:6px"/><path d="M45,56,71.3,40,84,47.3a6.1782,6.1782,0,0,0,8.4-2.2,6.0076,6.0076,0,0,0-2.3-8.3L77,29.2c-5.1-2.9-5.9-3-11.1-.1L38.5,45.8h0c-5.3,3.1-5.5,3.8-5.5,9.7V88.6c0,5.9.2,6.7,5.6,9.8L65.9,115c5.1,2.9,5.9,2.8,11-.1l13.5-7.8A6.1256,6.1256,0,0,0,92.2,99,5.9869,5.9869,0,0,0,84,96.6L71.3,104,45,88V56Z" style="fill:none;stroke:#000;stroke-linejoin:round;stroke-width:6px"/><path d="M99,89.5c0,2,2.3,3.7,4.4,3.7h4a3.6914,3.6914,0,0,0,3.7-3.7v-35a3.5881,3.5881,0,0,0-3.7-3.5h-4c-2.1,0-4.4,1.5-4.4,3.5Z" style="fill:none;stroke:#000;stroke-linejoin:round;stroke-width:6px"/><polyline points="70.1 57.2 57 64.3 57 81" style="fill:none;stroke:#000;stroke-linecap:round;stroke-linejoin:round;stroke-width:6px"/><rect width="144" height="144" style="fill:none"/></svg>