<svg xmlns="http://www.w3.org/2000/svg" viewBox="0 0 144 144"><circle cx="72" cy="72" r="69" style="fill:none;stroke:#000;stroke-linecap:round;stroke-linejoin:round;stroke-width:6px"/><path d="M61.1,98.8A55.9629,55.9629,0,0,0,72,99.9c10,0,19.6-2.7,27.1-7.7C108.6,86,114,76.6,114,66.5S108.6,47,99.1,40.7C91.6,35.7,82,33,72,33s-19.6,2.7-27.1,7.7C35.4,46.9,30,56.3,30,66.5,30,76.6,35.4,86,44.8,92.2l-6.4,16.4ZM72,49.8c13.9,0,25.2,7.5,25.2,16.7S85.9,83.2,72,83.2,46.8,75.7,46.8,66.5,58.1,49.8,72,49.8Z" style="fill:none;stroke:#000;stroke-linejoin:round;stroke-width:6px"/><rect width="144" height="144" style="fill:none"/></svg>