<svg xmlns="http://www.w3.org/2000/svg" viewBox="0 0 144 144"><circle cx="72" cy="72" r="69" style="fill:none;stroke:#000;stroke-linecap:round;stroke-linejoin:round;stroke-width:6px"/><path d="M111,97a14.0412,14.0412,0,0,1-14,14H47A14.0412,14.0412,0,0,1,33,97V47A14.0412,14.0412,0,0,1,47,33H97a14.0412,14.0412,0,0,1,14,14Z" style="fill:none;stroke:#000;stroke-linejoin:round;stroke-width:6px"/><line x1="33" y1="57" x2="58.6" y2="57" style="fill:none;stroke:#000;stroke-linejoin:round;stroke-width:6px"/><line x1="85.4" y1="57" x2="111" y2="57" style="fill:none;stroke:#000;stroke-linejoin:round;stroke-width:6px"/><circle cx="72" cy="69" r="18" style="fill:none;stroke:#000;stroke-linejoin:round;stroke-width:6px"/><polygon points="102 42 96 42 96 48 102 48 102 42" style="fill:#000"/><line x1="45" y1="33" x2="45" y2="57" style="fill:none;stroke:#000;stroke-linejoin:round;stroke-width:6px"/><line x1="57" y1="33" x2="57" y2="57" style="fill:none;stroke:#000;stroke-linejoin:round;stroke-width:6px"/><rect width="144" height="144" style="fill:none"/></svg>