<svg xmlns="http://www.w3.org/2000/svg" viewBox="0 0 144 144.7"><circle cx="72" cy="72" r="69" style="fill:none;stroke:#000;stroke-linecap:round;stroke-linejoin:round;stroke-width:6px"/><circle cx="72" cy="72" r="24" style="fill:none;stroke:#000;stroke-linecap:round;stroke-linejoin:round;stroke-width:6px"/><path d="M81,36.4a36.3,36.3,0,0,1,25.9,25.9h21.4A57.1088,57.1088,0,0,0,81,15ZM63,15A57.1088,57.1088,0,0,0,15.7,62.3H37.1A36.1693,36.1693,0,0,1,63,36.5ZM81,127.6a57.1088,57.1088,0,0,0,47.3-47.3H106.9a35.874,35.874,0,0,1-25.8,25.8ZM63,106.2A36.3,36.3,0,0,1,37.1,80.3H15.7A56.8866,56.8866,0,0,0,63,127.5Z" transform="translate(0 0.7)" style="fill:none;stroke:#000;stroke-linejoin:round;stroke-width:6px"/><rect y="0.7" width="144" height="144" style="fill:none"/></svg>