<svg xmlns="http://www.w3.org/2000/svg" viewBox="0 0 144 144"><circle cx="72" cy="72" r="69" style="fill:none;stroke:#000;stroke-linecap:round;stroke-linejoin:round;stroke-width:6px"/><path d="M23.3,77.1s-2.4-19-1.8-19c.7,0,9.9,17.8,10.9,17.8.9,0,2.5-19.7,4.6-19.5,1.1-.1,5.7,21.8,5.7,21.8" style="fill:none;stroke:#000;stroke-linejoin:round;stroke-width:6px"/><path d="M49.8,70.7s6.5,1.6,6.8.9c.3-.6,1.8-8,0-8.8C51.5,60.5,43.5,76.2,52.3,79a6.5756,6.5756,0,0,0,7.2-2.3" style="fill:none;stroke:#000;stroke-linejoin:round;stroke-width:6px"/><path d="M64.9,70.7s6.5,1.6,6.8.9c.3-.6,1.8-8,0-8.8C66.6,60.5,58.6,76.2,67.4,79a6.5756,6.5756,0,0,0,7.2-2.3" style="fill:none;stroke:#000;stroke-linejoin:round;stroke-width:6px"/><path d="M83.1,49.4c-.6,2.6,0,12.7,0,16.7s1.1,15.2,1.1,15.2" style="fill:none;stroke:#000;stroke-linejoin:round;stroke-width:6px"/><path d="M76.9,68.1c2.8.5,10.8.5,13.6-.5" style="fill:none;stroke:#000;stroke-linejoin:round;stroke-width:6px"/><path d="M94.8,65.7s-1.6,8.6,2.3,12.4c2.8-.6,6.8-2.8,7.7-12.4" style="fill:none;stroke:#000;stroke-linejoin:round;stroke-width:6px"/><path d="M110.3,78.1c32.4-6.4-6.3-43.6,1.4,13.3" style="fill:none;stroke:#000;stroke-linejoin:round;stroke-width:6px"/><rect width="144" height="144" style="fill:none"/></svg>