<svg xmlns="http://www.w3.org/2000/svg" viewBox="0 0 144 144"><circle cx="72" cy="72" r="69" style="fill:none;stroke:#000;stroke-linecap:round;stroke-linejoin:round;stroke-width:6px"/><path d="M72,26.9a48.0408,48.0408,0,0,0-15.2,93.6c2.4.4,3.2-1,3.2-2.3v-8.3c-13.4,2.9-16.1-6.3-16.1-6.3-2.2-5.5-5.3-7-5.3-7-4.4-3,.3-2.9.3-2.9,4.8.3,7.4,4.9,7.4,4.9,4.3,7.3,11.2,5.2,14,4a9.9131,9.9131,0,0,1,3.1-6.4C52.7,95,41.5,90.9,41.5,72.5a19.0583,19.0583,0,0,1,4.9-12.9c-.5-1.2-2.1-6.1.5-12.7,0,0,4-1.3,13.2,4.9a43.4411,43.4411,0,0,1,12-1.6,47.5784,47.5784,0,0,1,12,1.6c9.2-6.2,13.2-4.9,13.2-4.9,2.6,6.6,1,11.5.5,12.7a18.4141,18.4141,0,0,1,4.9,12.9c0,18.4-11.2,22.5-21.9,23.7,1.7,1.5,3.3,4.4,3.3,8.8v13.3c0,1.3.8,2.7,3.2,2.2A48.0408,48.0408,0,0,0,72,26.9Z" style="fill:none;stroke:#000;stroke-linejoin:round;stroke-width:6px"/><rect width="144" height="144" style="fill:none"/></svg>