<svg xmlns="http://www.w3.org/2000/svg" viewBox="0 0 144 144"><path d="M111,44.1s-8.1.9-11.7,1.6A15.7773,15.7773,0,0,0,72,56.5a14.7227,14.7227,0,0,0,.4,3.6A44.2514,44.2514,0,0,1,39.9,43.6a15.0552,15.0552,0,0,0-2.1,7.9,15.7037,15.7037,0,0,0,7,13.1,16.1682,16.1682,0,0,1-7.2-2v.2A15.8538,15.8538,0,0,0,50.3,78.3a17.0354,17.0354,0,0,1-7.1.3,15.834,15.834,0,0,0,14.7,11,31.5911,31.5911,0,0,1-23.4,6.5,44.5872,44.5872,0,0,0,24.2,7.1c29,0,44.9-24.1,44.9-44.9v-2C106.7,54.1,108.9,47.3,111,44.1Z" style="fill:none;stroke:#000;stroke-linejoin:round;stroke-width:6px"/><circle cx="72" cy="72" r="69" style="fill:none;stroke:#000;stroke-linecap:round;stroke-linejoin:round;stroke-width:6px"/><rect width="144" height="144" style="fill:none"/></svg>