<svg xmlns="http://www.w3.org/2000/svg" viewBox="0 0 144 144"><circle cx="72" cy="72" r="69" style="fill:none;stroke:#000;stroke-linecap:round;stroke-linejoin:round;stroke-width:6px"/><path d="M73.8,71.4c-10.5.4-10.3-18.9-3.6-20.8C80.5,47.7,81.9,71.1,73.8,71.4Z" style="fill:none;stroke:#000;stroke-linejoin:round;stroke-width:6px"/><path d="M80,107c-40.9,0-17.4-42.3-56-42.3V51.9c51.5,0,23.2,40.1,56.5,41.9,20.7,1.1,22.9-23,25.2-32.2,1.1-4.4,3.1-8.4,8.5-7.6,4.9.7,5.7,5,5.8,9.1C120.7,85.5,108.5,107,80,107Z" style="fill:none;stroke:#000;stroke-linejoin:round;stroke-width:6px"/><path d="M91.4,42.3c10,.7,9.7,24.5,1.2,24.2S83.4,41.7,91.4,42.3Z" style="fill:none;stroke:#000;stroke-linejoin:round;stroke-width:6px"/><rect width="144" height="144" style="fill:none"/></svg>