<svg xmlns="http://www.w3.org/2000/svg" viewBox="0 0 144 144"><circle cx="72" cy="72" r="69" style="fill:none;stroke:#000;stroke-linecap:round;stroke-linejoin:round;stroke-width:6px"/><path d="M60.9,74.6C50.6,89.4,39.6,91.3,39.6,102.1c0,5.3,3,14.2,11.7,14.2s12.8-1.9,19.7-1.9,11.4,2.7,20,2.7,12.6-8.2,12.3-13.5c-.8-11.2-11.6-10.3-22.5-29.7-2.9-4-6.3-4.6-9.8-4.6a11.747,11.747,0,0,0-10.1,5.3" style="fill:none;stroke:#000;stroke-linejoin:round;stroke-width:6px"/><path d="M49.7,60.7c.5,6.7-3.2,12.4-8.1,12.8S32.3,68.7,31.8,62,35,49.6,39.9,49.2c5-.4,9.4,4.8,9.8,11.5" style="fill:none;stroke:#000;stroke-linejoin:round;stroke-width:6px"/><path d="M61,28.3c-5,0-9,5.6-9,12.4,0,6.9,4,12.4,9,12.4s9-5.6,9-12.4-4.1-12.4-9-12.4" style="fill:none;stroke:#000;stroke-linejoin:round;stroke-width:6px"/><path d="M89.5,30.8c-4.7-1.2-9.9,3-11.5,9.4s.9,12.6,5.6,13.7c4.7,1.2,9.9-3,11.5-9.4,2.1-8.3-4.5-13.4-5.6-13.7" style="fill:none;stroke:#000;stroke-linejoin:round;stroke-width:6px"/><path d="M102.8,55.8c-5,.1-8.9,4.8-8.8,12.1s4.2,10.6,9.2,10.6c5-.1,8.9-3.5,8.8-10.9-.1-9.5-8-11.8-9.2-11.8" style="fill:none;stroke:#000;stroke-linejoin:round;stroke-width:6px"/><rect width="144" height="144" style="fill:none"/></svg>