<svg xmlns="http://www.w3.org/2000/svg" viewBox="0 0 144 144"><path d="M38.9,80.7a39.0186,39.0186,0,1,1,66.1.1" style="fill:none;stroke:#000;stroke-linecap:round;stroke-linejoin:round;stroke-width:6px"/><path d="M30,98.6A57.018,57.018,0,1,1,129,60a56.46,56.46,0,0,1-14.9,38.4" style="fill:none;stroke:#000;stroke-linecap:round;stroke-linejoin:round;stroke-width:6px"/><path d="M91.5,94.3a11.718,11.718,0,0,0-3-9.3,12.1321,12.1321,0,0,0-8.9-4H64.4a11.9676,11.9676,0,0,0-8.9,4,11.718,11.718,0,0,0-3,9.3l3.3,30A12.0063,12.0063,0,0,0,67.7,135h8.5a12.0063,12.0063,0,0,0,11.9-10.7Z" style="fill:none;stroke:#000;stroke-linecap:round;stroke-linejoin:round;stroke-width:6px"/><circle cx="72" cy="54.3" r="15" style="fill:none;stroke:#000;stroke-linecap:round;stroke-linejoin:round;stroke-width:6px"/><rect width="144" height="144" style="fill:none"/></svg>