<svg xmlns="http://www.w3.org/2000/svg" viewBox="0 0 144 144"><circle cx="72" cy="72" r="69" style="fill:none;stroke:#000;stroke-linecap:round;stroke-linejoin:round;stroke-width:6px"/><path d="M90.3,74.9a35.8733,35.8733,0,0,1-13.9,2.7c-10.5,0-19.6-4.2-23.8-10.4" style="fill:none;stroke:#000;stroke-linecap:round;stroke-linejoin:round;stroke-width:6px"/><path d="M61.3,44.6a34.5738,34.5738,0,0,1,15.1-3.3c14.6,0,26.4,8.1,26.4,18.1v.9" style="fill:none;stroke:#000;stroke-linecap:round;stroke-linejoin:round;stroke-width:6px"/><path d="M63.4,33.2c3.9-3.7,10.2-6,17.3-6,6.9,0,13.1,2.2,17,5.7" style="fill:none;stroke:#000;stroke-linecap:round;stroke-linejoin:round;stroke-width:6px"/><path d="M42.9,74.2c0,10.3,12.6,18.6,28,18.6,15.5,0,28-8.3,28-18.6,0-13.7-20-19.7-33.2-19.7-19.6,0-35.6,13.2-35.6,27.8,0,19.9,25.4,34.7,48.3,25.5l20.3,7-7.6-13.9A26.3627,26.3627,0,0,0,99,92" style="fill:none;stroke:#000;stroke-linecap:round;stroke-linejoin:round;stroke-width:6px"/><rect width="144" height="144" style="fill:none"/></svg>