<svg xmlns="http://www.w3.org/2000/svg" viewBox="0 0 144 144"><circle cx="72" cy="72" r="69" style="fill:none;stroke:#000;stroke-linecap:round;stroke-linejoin:round;stroke-width:6px"/><path d="M105,45H99l-6-6H81l-6,6H69A12.0353,12.0353,0,0,0,57,57V75A12.0353,12.0353,0,0,0,69,87h36a12.0353,12.0353,0,0,0,12-12V57A12.0353,12.0353,0,0,0,105,45Z" style="fill:none;stroke:#000;stroke-linejoin:round;stroke-width:6px"/><rect x="33" y="45" width="12" height="42" style="fill:none;stroke:#000;stroke-linejoin:round;stroke-width:6px"/><circle cx="87" cy="66" r="9" style="fill:none;stroke:#000;stroke-linejoin:round;stroke-width:6px"/><polyline points="46.5 117.8 46.5 99.8 54.3 99.8" style="fill:none;stroke:#000;stroke-linecap:round;stroke-linejoin:round;stroke-width:6px"/><line x1="46.5" y1="108.8" x2="52.2" y2="108.8" style="fill:none;stroke:#000;stroke-linecap:round;stroke-linejoin:round;stroke-width:6px"/><line x1="96.2" y1="117.8" x2="96.2" y2="99.8" style="fill:none;stroke:#000;stroke-linecap:round;stroke-linejoin:round;stroke-width:6px"/><path d="M96.2,112.4c0,2.9-.8,5.3-3.5,5.3s-3.5-2.4-3.5-5.3c0-3,.8-5.3,3.5-5.3S96.2,109.5,96.2,112.4Z" style="fill:none;stroke:#000;stroke-linecap:round;stroke-linejoin:round;stroke-width:6px"/><path d="M59.9,112.4c0,2.9.8,5.3,3.5,5.3s3.5-2.4,3.5-5.3c0-3-.8-5.3-3.5-5.3C60.8,107.1,59.9,109.5,59.9,112.4Z" style="fill:none;stroke:#000;stroke-linecap:round;stroke-linejoin:round;stroke-width:6px"/><path d="M74.4,112.4c0,2.9.8,5.3,3.5,5.3s3.5-2.4,3.5-5.3c0-3-.8-5.3-3.5-5.3C75.3,107.1,74.4,109.5,74.4,112.4Z" style="fill:none;stroke:#000;stroke-linecap:round;stroke-linejoin:round;stroke-width:6px"/><rect width="144" height="144" style="fill:none"/></svg>