<svg xmlns="http://www.w3.org/2000/svg" viewBox="0 0 144 144"><circle cx="72" cy="72" r="69" style="fill:none;stroke:#000;stroke-linecap:round;stroke-linejoin:round;stroke-width:6px"/><path d="M72.4,96.9c5.7,0-1.7,20.1,13,20.1,8.1,0,21-9.3,12.8-23.9-2.6-4.7,14.1-9.3,14.1-16.1-4,1.7-15.2,6.7-29.8,6.7-8.4,0-10.1,4-10.1,4s-1.7-4-10.1-4c-14.6,0-26.5-5.1-30.5-6.8,0,6.8,17.5,11.5,14.8,16.2C38.4,107.8,51.3,117,59.4,117,74,117,66.7,96.9,72.4,96.9Z" style="fill:none;stroke:#000;stroke-linejoin:round;stroke-width:6px"/><path d="M105,80.9V40.3A7.192,7.192,0,0,0,97.8,33H46.5A7.5157,7.5157,0,0,0,39,40.3V80.8" style="fill:none;stroke:#000;stroke-linejoin:round;stroke-width:6px"/><circle cx="85" cy="66" r="11" style="fill:none;stroke:#000;stroke-linejoin:round;stroke-width:6px"/><circle cx="59.4" cy="66" r="11" style="fill:none;stroke:#000;stroke-linejoin:round;stroke-width:6px"/><rect width="144" height="144" style="fill:none"/></svg>