<svg xmlns="http://www.w3.org/2000/svg" viewBox="0 0 144 144"><circle cx="72" cy="72" r="69" style="fill:none;stroke:#000;stroke-linecap:round;stroke-linejoin:round;stroke-width:6px"/><circle cx="72" cy="72" r="51" style="fill:none;stroke:#000;stroke-linecap:round;stroke-linejoin:round;stroke-width:6px"/><circle cx="72" cy="72" r="9" style="fill:none;stroke:#000;stroke-linecap:round;stroke-linejoin:round;stroke-width:6px"/><path d="M77.8,49.7A23.1474,23.1474,0,0,1,94.3,66.2H108A36.5194,36.5194,0,0,0,77.8,36ZM66.2,36A36.7491,36.7491,0,0,0,36,66.2H49.7A23.8438,23.8438,0,0,1,66.2,49.7Zm11.6,72A36.4059,36.4059,0,0,0,108,77.8H94.3A22.981,22.981,0,0,1,77.8,94.3ZM66.2,94.3A23.6651,23.6651,0,0,1,49.7,77.8H36A36.6335,36.6335,0,0,0,66.2,108Z" style="fill:none;stroke:#000;stroke-linejoin:round;stroke-width:6px"/><rect width="144" height="144" style="fill:none"/></svg>