<svg xmlns="http://www.w3.org/2000/svg" viewBox="0 0 144 144"><circle cx="72" cy="72" r="69" style="fill:none;stroke:#000;stroke-linecap:round;stroke-linejoin:round;stroke-width:6px"/><path d="M117,95.7A15.3,15.3,0,0,1,101.7,111H42A15.132,15.132,0,0,1,27,95.6V84.2A14.9617,14.9617,0,0,1,42,69h59.6a15.3,15.3,0,0,1,15.3,15.3Z" style="fill:none;stroke:#000;stroke-linejoin:round;stroke-width:6px"/><polyline points="39.4 25 51 39.9 51 57.3" style="fill:none;stroke:#000;stroke-linecap:round;stroke-linejoin:round;stroke-width:6px"/><polyline points="62.6 25 51 39.9 51 57.3" style="fill:none;stroke:#000;stroke-linecap:round;stroke-linejoin:round;stroke-width:6px"/><path d="M75,51.1A6.0643,6.0643,0,0,1,69,57a5.9622,5.9622,0,0,1-6-5.7V45a5.8943,5.8943,0,0,1,6-5.7,5.8118,5.8118,0,0,1,6,5.6Z" style="fill:none;stroke:#000;stroke-linecap:round;stroke-linejoin:round;stroke-width:6px"/><line x1="39.2" y1="81" x2="51.4" y2="81" style="fill:none;stroke:#000;stroke-linecap:round;stroke-linejoin:round;stroke-width:6px"/><line x1="45" y1="81" x2="45" y2="99" style="fill:none;stroke:#000;stroke-linecap:round;stroke-linejoin:round;stroke-width:6px"/><line x1="81" y1="81" x2="81" y2="99" style="fill:none;stroke:#000;stroke-linecap:round;stroke-linejoin:round;stroke-width:6px"/><path d="M69,87v6a6,6,0,0,1-12,0V87" style="fill:none;stroke:#000;stroke-linecap:round;stroke-linejoin:round;stroke-width:6px"/><path d="M99,42v9a6,6,0,0,1-12,0V42" style="fill:none;stroke:#000;stroke-linecap:round;stroke-linejoin:round;stroke-width:6px"/><path d="M87,96a3.0085,3.0085,0,0,0-3-3H81v5.5a.5357.5357,0,0,0,.5.5H84A3.0085,3.0085,0,0,0,87,96Z" style="fill:none;stroke:#000;stroke-linecap:round;stroke-linejoin:round;stroke-width:6px"/><path d="M105,99h-3a3.0085,3.0085,0,0,1-3-3V90a3,3,0,1,1,3,3H99" style="fill:none;stroke:#000;stroke-linecap:round;stroke-linejoin:round;stroke-width:6px"/><rect width="144" height="144" style="fill:none"/></svg>