<svg xmlns="http://www.w3.org/2000/svg" viewBox="0 0 144.1402 144"><path d="M74.5,73.1c-15.1.5-14.8-27.1-5.2-29.9C84.3,38.9,86.2,72.7,74.5,73.1Z" style="fill:none;stroke:#000;stroke-linejoin:round;stroke-width:6px"/><path d="M83.5,124.2c-58.8,0-25-60.9-80.5-60.9V45c74.1,0,33.4,57.7,81.3,60.3,29.8,1.6,33-33.1,36.3-46.4,1.6-6.4,4.5-12.1,12.2-10.9,7,1,8.2,7.1,8.3,13C142.1,93.3,124.5,124.2,83.5,124.2Z" style="fill:none;stroke:#000;stroke-linejoin:round;stroke-width:6px"/><path d="M99.9,31.2c14.4,1.1,14,35.3,1.7,34.8C89.4,65.6,88.4,30.4,99.9,31.2Z" style="fill:none;stroke:#000;stroke-linejoin:round;stroke-width:6px"/><rect width="144" height="144" style="fill:none"/></svg>