<svg xmlns="http://www.w3.org/2000/svg" viewBox="0 0 144 144"><path d="M3,9V82.7h.1c1,25.5,31.4,45.9,68.9,45.9,38.1,0,69-21.1,69-47.2S110.1,34.2,72,34.2c-16.7,0-33.1,4-45,10.8V9ZM72,49.9c24.3,0,43.9,14.1,43.9,31.5S96.3,112.9,72,112.9c-24.2,0-43.9-14.1-43.9-31.5S47.8,49.9,72,49.9M45.8,81.4C45.8,71,57.5,62.6,72,62.6S98.2,71,98.2,81.4,86.5,100.2,72,100.2,45.8,91.8,45.8,81.4" style="fill:none;stroke:#000;stroke-linejoin:round;stroke-width:6px"/><rect width="144" height="144" style="fill:none"/></svg>