<svg xmlns="http://www.w3.org/2000/svg" viewBox="0 0 144 144"><path d="M140.4,29c-4.9,2.2-9,2.2-13.4.1,5.6-3.4,5.9-5.7,7.9-12.1a54.9151,54.9151,0,0,1-17.3,6.6A27.3072,27.3072,0,0,0,70.4,42.3a25.6361,25.6361,0,0,0,.7,6.2A77.8048,77.8048,0,0,1,15,20a27.2994,27.2994,0,0,0,8.4,36.4A28.608,28.608,0,0,1,11.1,53v.3A27.2468,27.2468,0,0,0,33,80a26.9078,26.9078,0,0,1-12.3.5A27.2767,27.2767,0,0,0,46.2,99.4,54.9217,54.9217,0,0,1,5.8,110.7a77.5368,77.5368,0,0,0,41.8,12.2c50.1,0,77.6-41.5,77.6-77.6,0-1.2,0-2.4-.1-3.5C130.4,38.1,136.8,34.5,140.4,29Z" style="fill:none;stroke:#000;stroke-linejoin:round;stroke-width:6px"/><rect width="144" height="144" style="fill:none"/></svg>