<svg xmlns="http://www.w3.org/2000/svg" viewBox="0 0 144.1177 144"><path d="M62.5,100.7c-1.9-2.2-2.5-5.6-1.7-10.6,1.8-12,3.9-28,3.9-28a2.3621,2.3621,0,0,1,2.3-2c4.9,0,9.8-1.1,13.2,2.8C82,65,82.7,68,82.2,72c-.2.8-4.2,28.9-4.2,29.5a2.2915,2.2915,0,0,1-2.3,2.1C71,103.7,65.5,104.2,62.5,100.7Z" transform="translate(0.0097)" style="fill:none;stroke:#000;stroke-linejoin:round;stroke-width:6px"/><path d="M74.4,51.2c-4.5,0-8.2-2.6-9.3-6.5-1.3-4.8,2.2-9.9,7.6-11.3s11,1.4,12.2,6.1a8.7066,8.7066,0,0,1-1.4,7.1,11.3541,11.3541,0,0,1-6.2,4.2A15.505,15.505,0,0,1,74.4,51.2Z" transform="translate(0.0097)" style="fill:none;stroke:#000;stroke-linejoin:round;stroke-width:6px"/><path d="M125.1,104.1c-8.2,0-12-6.9-15.4-13.9-.7,4.9-1.5,10.5-1.6,11.4a2.2915,2.2915,0,0,1-2.3,2.1c-4.7,0-10.2.6-13.2-2.9-1.9-2.2-2.5-5.6-1.7-10.6C92.7,78.1,97.1,47,97.1,47a2.3621,2.3621,0,0,1,2.3-2c5,0,9.7-1.2,13.2,2.8,1.8,2.1,2.5,5.1,2,9.1-.4,3.3-1.1,8.2-1.9,13.5,2.2-2.7,4.8-5.7,6.6-7.6,4.9-5.2,20.7-4.5,21.6-2.3a2.3173,2.3173,0,0,1-.4,2.5c-.5.6-11.5,12.4-16.1,17.2,3.8,8.6,8,12,10,12.2a2.2394,2.2394,0,0,1,2.1,2.4A11.4593,11.4593,0,0,1,125.1,104.1Z" transform="translate(0.0097)" style="fill:none;stroke:#000;stroke-linejoin:round;stroke-width:6px"/><path d="M47.4,63.6c-3.8-4.7-9.2-6.2-15.1-6.2-7.6,0-25.8,2.4-29,24.6-3.1,21.6,17.9,25.4,26.2,21.4-.4,4,.2,7,1.9,9.1,3,3.9,7.9,3.5,12.7,3.4a2.446,2.446,0,0,0,2.3-2S48.8,95.7,51,80.8C52,73.7,50.8,67.9,47.4,63.6ZM24.9,93.5c-12.9-.7-7.1-27.4,5.5-24.7C43.3,71.6,37.3,93.9,24.9,93.5Z" transform="translate(0.0097)" style="fill:none;stroke:#000;stroke-linejoin:round;stroke-width:6px"/><rect x="0.0097" width="144" height="144" style="fill:none"/></svg>