<svg xmlns="http://www.w3.org/2000/svg" viewBox="0 0 144 144"><path d="M40.5,54.5c.8,11.7-5.5,21.7-14.2,22.3S9.9,68.4,9.1,56.7C8.2,45,14.6,35,23.3,34.4c8.6-.6,16.3,8.4,17.2,20.1M100.1,5.9c-8.4-2.2-17.6,5.3-20.5,16.7s1.6,22.4,10,24.5,17.6-5.4,20.5-16.7c3.8-14.8-7.9-24-10-24.5m19.8,38.4c-8.9.1-15.9,8.6-15.7,21.6.2,13.1,7.5,19,16.4,18.9s15.9-6.3,15.7-19.4c-.3-17-14.3-21.1-16.4-21.1M55.7,3c-8.4,0-15.3,9.5-15.3,21.1s6.8,21.1,15.3,21.1S71,35.7,71,24.1,64.1,3,55.7,3M53.8,68.5C36.2,93.8,17.4,97,17.4,115.5c0,9.1,5.2,24.2,20,24.2s21.9-3.3,33.6-3.3,19.5,4.6,34.3,4.6,21.6-14,20.9-23.1c-1.3-19.1-19.8-17.7-38.5-50.7-5-6.9-10.7-7.8-16.7-7.8a19.8494,19.8494,0,0,0-17.2,9.1" style="fill:none;stroke:#000;stroke-linejoin:round;stroke-width:6px"/><rect width="144" height="144" style="fill:none"/></svg>