<svg xmlns="http://www.w3.org/2000/svg" viewBox="0 0 144 144"><circle cx="72" cy="72" r="69" style="fill:none;stroke:#000;stroke-linecap:round;stroke-linejoin:round;stroke-width:6px"/><path d="M114.2,51.1C114.2,64.5,105.7,72,92,72H71.8V50.6s0-20.7,21.2-20.7c13.7,0,21.2,7.9,21.2,21.2" style="fill:none;stroke:#000;stroke-linejoin:round;stroke-width:6px"/><path d="M77.9,87c.1,1,.2,2.1.2,3.1a24,24,0,1,1-24-24,28.2522,28.2522,0,0,1,2.9.2V87Z" style="fill:none;stroke:#000;stroke-linejoin:round;stroke-width:6px"/><line x1="93" y1="41.9" x2="93" y2="53.9" style="fill:none;stroke:#000;stroke-linecap:round;stroke-linejoin:round;stroke-width:6px"/><path d="M93,60.1a3.0085,3.0085,0,0,0-3,3,2.9465,2.9465,0,0,0,3,3,3.0085,3.0085,0,0,0,3-3,3.0759,3.0759,0,0,0-3-3Z" style="fill:#000"/><rect width="144" height="144" style="fill:none"/></svg>