<svg xmlns="http://www.w3.org/2000/svg" viewBox="0 0 144 144"><circle cx="72" cy="72" r="69" style="fill:none;stroke:#000;stroke-linecap:round;stroke-linejoin:round;stroke-width:6px"/><path d="M68,85.1c-1.2-1.5-1.6-3.6-1.1-6.9,1.2-7.9,2.6-18.3,2.6-18.3A1.4348,1.4348,0,0,1,71,58.6c3.2,0,6.4-.7,8.6,1.8,1.2,1.3,1.6,3.4,1.3,5.9-.1.5-2.6,18.8-2.7,19.2A1.6985,1.6985,0,0,1,76.6,87C73.6,87,70,87.4,68,85.1Z" style="fill:none;stroke:#000;stroke-linejoin:round;stroke-width:6px"/><path d="M75.7,52.8a5.9327,5.9327,0,0,1-6-4.2c-.8-3.1,1.4-6.4,5-7.4,3.5-.9,7.1.9,8,4a5.4494,5.4494,0,0,1-.9,4.6,7.5918,7.5918,0,0,1-4.1,2.8A13.5523,13.5523,0,0,1,75.7,52.8Z" style="fill:none;stroke:#000;stroke-linejoin:round;stroke-width:6px"/><path d="M112.8,87.3c-5.4,0-7.8-4.5-10-9.1-.5,3.2-1,6.8-1,7.4a1.52,1.52,0,0,1-1.5,1.4c-3,0-6.6.4-8.6-1.9-1.3-1.5-1.6-3.6-1.1-6.9,1.2-7.9,4-28.2,4-28.2a1.5145,1.5145,0,0,1,1.5-1.3c3.2,0,6.3-.8,8.6,1.8,1.2,1.3,1.6,3.4,1.3,5.9-.3,2.2-.7,5.3-1.2,8.8,1.4-1.8,3.1-3.7,4.3-5,3.2-3.4,13.5-2.9,14.1-1.5a1.5254,1.5254,0,0,1-.3,1.6c-.3.4-7.5,8.1-10.5,11.2,2.5,5.6,5.2,7.8,6.5,7.9a1.6167,1.6167,0,0,1,1.4,1.6A7.5975,7.5975,0,0,1,112.8,87.3Z" style="fill:none;stroke:#000;stroke-linejoin:round;stroke-width:6px"/><path d="M55.9,60.9c-2.5-3.1-6-4-9.9-4-5,0-16.8,1.6-18.9,16-2,14.1,11.7,16.6,17.1,14q-.3,3.9,1.2,6c1.9,2.5,5.1,2.3,8.3,2.2a1.5145,1.5145,0,0,0,1.5-1.3s1.6-11.9,3-21.6C59,67.5,58.2,63.7,55.9,60.9ZM42.2,76c-3.9-.2-2.1-8.2,1.6-7.4C47.8,69.5,46,76.1,42.2,76Z" style="fill:none;stroke:#000;stroke-linejoin:round;stroke-width:6px"/><rect width="144" height="144" style="fill:none"/></svg>