<svg xmlns="http://www.w3.org/2000/svg" viewBox="0 0 144 144"><circle cx="72" cy="72" r="69" style="fill:none;stroke:#000;stroke-linecap:round;stroke-linejoin:round;stroke-width:6px"/><path d="M84,49.4,51.9,81.6A14.5664,14.5664,0,0,1,31.3,61L54.8,37.5a14.5457,14.5457,0,0,1,20.6,0l.9.9" style="fill:none;stroke:#000;stroke-linecap:round;stroke-linejoin:round;stroke-width:6px"/><path d="M40.8,72.3,71.5,41.6a14.5457,14.5457,0,0,1,20.6,0" style="fill:none;stroke:#000;stroke-linecap:round;stroke-linejoin:round;stroke-width:6px"/><path d="M59.8,94.7,92.1,62.4A14.5664,14.5664,0,1,1,112.7,83L89.2,106.5a14.5457,14.5457,0,0,1-20.6,0l-.9-.9" style="fill:none;stroke:#000;stroke-linecap:round;stroke-linejoin:round;stroke-width:6px"/><path d="M103,72,72.6,102.4a14.5457,14.5457,0,0,1-20.6,0" style="fill:none;stroke:#000;stroke-linecap:round;stroke-linejoin:round;stroke-width:6px"/><rect width="144" height="144" style="fill:none"/></svg>