<svg xmlns="http://www.w3.org/2000/svg" viewBox="0 0 144 144"><circle cx="72" cy="72" r="69" style="fill:none;stroke:#000;stroke-linecap:round;stroke-linejoin:round;stroke-width:6px"/><path d="M108.3,74.7a36.3,36.3,0,0,1-72.6,0c0-25.6,31.9-36.5,34.9-47.7C74.4,38.2,108.3,45,108.3,74.7Z" style="fill:none;stroke:#000;stroke-linejoin:round;stroke-width:6px"/><path d="M62.7,63.2c6.6,0,13.7,8,17.5,8s11.3-6.5,15.3-6.5,5.6,13.6-2.2,19.5c-3.5.6-10.2-8.9-13.1-8.9-2.8,0-14,9.5-19.4,9.5C45.8,84.8,48.7,63.2,62.7,63.2Z" style="fill:none;stroke:#000;stroke-linejoin:round;stroke-width:6px"/><path d="M74.7,90.5A7.3078,7.3078,0,0,1,81,86.8c1.9,0,3.3,1.7,4.1,3.1" style="fill:none;stroke:#000;stroke-linecap:round;stroke-linejoin:round;stroke-width:6px"/><path d="M67.8,97.1a15.5726,15.5726,0,0,0,18.6.2" style="fill:none;stroke:#000;stroke-linecap:round;stroke-linejoin:round;stroke-width:6px"/><rect width="144" height="144" style="fill:none"/></svg>