<svg xmlns="http://www.w3.org/2000/svg" viewBox="0 0 144 144"><circle cx="72" cy="72" r="69" style="fill:none;stroke:#000;stroke-linecap:round;stroke-linejoin:round;stroke-width:6px"/><path d="M76.2,93h29.7a11.1,11.1,0,0,0,0-22.2,10.3564,10.3564,0,0,0-4.3.9A19.5051,19.5051,0,0,0,82.1,53.9,15.1281,15.1281,0,0,0,76,55.2c-.8.3-1.1.7-1.1,1.3V91.6A1.4983,1.4983,0,0,0,76.2,93Z" style="fill:none;stroke:#000;stroke-linejoin:round;stroke-width:6px"/><line x1="63" y1="57.8" x2="63" y2="93" style="fill:none;stroke:#000;stroke-linecap:round;stroke-linejoin:round;stroke-width:6px"/><line x1="51" y1="63" x2="51" y2="92.4" style="fill:none;stroke:#000;stroke-linecap:round;stroke-linejoin:round;stroke-width:6px"/><line x1="39" y1="68.6" x2="39" y2="90.2" style="fill:none;stroke:#000;stroke-linecap:round;stroke-linejoin:round;stroke-width:6px"/><line x1="27" y1="75.4" x2="27" y2="91" style="fill:none;stroke:#000;stroke-linecap:round;stroke-linejoin:round;stroke-width:6px"/><rect width="144" height="144" style="fill:none"/></svg>