<svg xmlns="http://www.w3.org/2000/svg" viewBox="0 0 144 144"><circle cx="72" cy="72" r="69" style="fill:none;stroke:#000;stroke-linecap:round;stroke-linejoin:round;stroke-width:6px"/><path d="M46.3,51.4A42.6606,42.6606,0,0,1,35.6,39.9c-3.2-4,2-10.6,7.6-6.6S53.8,43.5,51,46.2c-2.9,2.6-5.1-2.2-4.6-8.2s2.9-11.1,6.5-10.6,5.7,4.1,2.9,21.5c0,.1,32.7,3.3,32.4,32.9,0,5.4-8.2,9-9.7,9,1.2,1.2,6,10.2-3.8,15.4-9.9,5.1-23.2,7.9-25.2,1.6S60.6,94.3,68.2,96.3c-2.5-3.5-6.5-12.4.8-19.5,7.2-7.1,20.7,3,26.6,6.8,5.9,3.7,6.2,4.2,12.7,1.8,6.5-2.5,8.1-2.8,10.9-3.8,2.7-1,6.7.5,1.2,5.8-5.5,5.2-21.2,14.9-47.5,16.5-11.5.4-18.5-9.1-19.2-15.9s1-12.6,3.9-14.6,7,3.6,1.9,4.5a28.2576,28.2576,0,0,1-11.7-.5c0,2.5-1,7.9-5.4,4.9s1-6.7,2.9-8,12.1-6.9,7.6-16C51,61.9,46,69.6,40.3,71.6c-6.9,2.4-9.6-6-4.9-11.1A64.8382,64.8382,0,0,1,46.3,51.4Z" style="fill:none;stroke:#000;stroke-linejoin:round;stroke-width:6px"/><rect width="144" height="144" style="fill:none"/></svg>