<svg xmlns="http://www.w3.org/2000/svg" viewBox="0 0 144 144"><circle cx="72" cy="72" r="69" style="fill:none;stroke:#000;stroke-linecap:round;stroke-linejoin:round;stroke-width:6px"/><path d="M74.2,115.1c-26.3,0-34.7-15.5-34.7-23.8,0-6.9,8.8-10.3,13.8-6.1a14.334,14.334,0,0,1,3.5,5.1,27.88,27.88,0,0,0,3.4,6c5.4,7.2,19.3,6.5,25.5,2.3,2.9-2,4.4-4.4,4.4-7.4,0-17.5-48.9-5.7-48.9-35.7,0-16.1,16.2-22.7,32.8-22.7,27.8,0,35.5,18.6,28.7,25.6a8.0715,8.0715,0,0,1-6.1,2.5c-11.6,0-5.4-15.1-23.8-15.1-12.2,0-16.2,7.4-12.7,11.6,8.1,10,48.7,4,48.7,32C108.8,106.6,93,115.1,74.2,115.1Z" style="fill:none;stroke:#000;stroke-linejoin:round;stroke-width:6px"/><rect width="144" height="144" style="fill:none"/></svg>