<svg xmlns="http://www.w3.org/2000/svg" viewBox="0 0 144 144"><circle cx="72" cy="72" r="69" style="fill:none;stroke:#000;stroke-linecap:round;stroke-linejoin:round;stroke-width:6px"/><circle cx="99.5" cy="95.7" r="11" style="fill:none;stroke:#000;stroke-linejoin:round;stroke-width:6px"/><path d="M86.9,82.8a.9015.9015,0,0,1-.1-.5c-7.3-20.5-37-18.7-37-31.8,0-6.4,6.7-9.4,13.1-9.4a16.8025,16.8025,0,0,1,7.4,1.4,9.0946,9.0946,0,1,0,17.4,3.7C87.7,40,76.9,30,61.9,30c-12.4,0-23.5,8.4-23.5,20.4,0,24.8,35.7,20.9,35.7,39.8,0,12-14.9,17.5-24.7,6.1a8.8937,8.8937,0,0,0,2.8-6.5,9.1006,9.1006,0,0,0-18.2,0c0,4.8,7.9,24.2,29.5,24.2a24.1693,24.1693,0,0,0,19.4-9.2,17.001,17.001,0,0,1,4-22Z" style="fill:none;stroke:#000;stroke-linejoin:round;stroke-width:6px"/><rect width="144" height="144" style="fill:none"/></svg>