<svg xmlns="http://www.w3.org/2000/svg" viewBox="0 0 144 144"><circle cx="72" cy="36.7" r="33.7" style="fill:none;stroke:#000;stroke-linejoin:round;stroke-width:6px"/><circle cx="72" cy="36.7" r="15" style="fill:none;stroke:#000;stroke-linejoin:round;stroke-width:6px"/><path d="M89.4,101.9a62.7556,62.7556,0,0,0,22.4-11.5,8.8409,8.8409,0,0,0,.6-13l-.7-.7a9.1437,9.1437,0,0,0-12.1-.6A44.3529,44.3529,0,0,1,72,85.6a45.2512,45.2512,0,0,1-27.7-9.5,8.9,8.9,0,0,0-12,.5l-.8.8a8.7314,8.7314,0,0,0,.6,12.9A63.3608,63.3608,0,0,0,54.9,102L35.1,121.8A11.243,11.243,0,1,0,51,137.7l21.2-21.2,21.2,21.2a11.243,11.243,0,0,0,15.9-15.9Z" style="fill:none;stroke:#000;stroke-linejoin:round;stroke-width:6px"/><rect width="144" height="144" style="fill:none"/></svg>