<svg xmlns="http://www.w3.org/2000/svg" viewBox="0 0 144 144"><circle cx="72" cy="72" r="69" style="fill:none;stroke:#000;stroke-linecap:round;stroke-linejoin:round;stroke-width:6px"/><path d="M42.5,99.7l-3.1-1.8c-.6-.3-1.1-.1-1.2.6l-.5,4.6c-.1.6.3.9.8.5l3.9-2.7C43.1,100.5,43.1,100,42.5,99.7Z" style="fill:none;stroke:#000;stroke-linejoin:round;stroke-width:6px"/><path d="M103,99.7l3-1.8c.6-.3,1.1-.1,1.2.6l.5,4.6c.1.6-.3.9-.8.5l-4-2.7C102.4,100.5,102.4,100,103,99.7Z" style="fill:none;stroke:#000;stroke-linejoin:round;stroke-width:6px"/><line x1="101.2" y1="90.6" x2="73.8" y2="34.9" style="fill:none;stroke:#000;stroke-linecap:round;stroke-linejoin:round;stroke-width:6px"/><line x1="43.9" y1="91.9" x2="68.2" y2="49.3" style="fill:none;stroke:#000;stroke-linecap:round;stroke-linejoin:round;stroke-width:6px"/><polyline points="36 81 27 81 27 63 48 63" style="fill:none;stroke:#000;stroke-linejoin:round;stroke-width:6px"/><line x1="84" y1="81" x2="60" y2="81" style="fill:none;stroke:#000;stroke-linejoin:round;stroke-width:6px"/><polyline points="96 63 117 63 117 81 108 81" style="fill:none;stroke:#000;stroke-linejoin:round;stroke-width:6px"/><rect width="144" height="144" style="fill:none"/></svg>