<svg xmlns="http://www.w3.org/2000/svg" viewBox="0 0 144 144"><path d="M27.7,51H9l5.1-24h18c11.7,0,14.5,6.1,14.5,10.6C46.6,44.1,42.4,51,27.7,51Z" style="fill:none;stroke:#000;stroke-linejoin:round;stroke-width:6px"/><path d="M75.7,51H57l5.1-24h18c11.7,0,14.5,6.1,14.5,10.6C94.6,44.1,90.4,51,75.7,51Z" style="fill:none;stroke:#000;stroke-linejoin:round;stroke-width:6px"/><path d="M121.6,69H102.9L108,45h18c11.7,0,14.5,6.1,14.5,10.6C140.5,62.1,136.3,69,121.6,69Z" style="fill:none;stroke:#000;stroke-linejoin:round;stroke-width:6px"/><path d="M115.6,105H96.9L102,81h18c11.7,0,14.5,6.1,14.5,10.6C134.5,98.1,130.3,105,115.6,105Z" style="fill:none;stroke:#000;stroke-linejoin:round;stroke-width:6px"/><path d="M21.7,87H3L8.1,63h18c11.7,0,14.5,6.1,14.5,10.6C40.6,80.1,36.4,87,21.7,87Z" style="fill:none;stroke:#000;stroke-linejoin:round;stroke-width:6px"/><path d="M69.7,87H51l5.1-24h18c11.7,0,14.5,6.1,14.5,10.6C88.6,80.1,84.4,87,69.7,87Z" style="fill:none;stroke:#000;stroke-linejoin:round;stroke-width:6px"/><path d="M63.7,123H45l5.1-24h18c11.7,0,14.5,6.1,14.5,10.6C82.6,116.1,78.4,123,63.7,123Z" style="fill:none;stroke:#000;stroke-linejoin:round;stroke-width:6px"/><rect width="144" height="144" style="fill:none"/></svg>