<svg xmlns="http://www.w3.org/2000/svg" viewBox="0 0 144 144.0147"><path d="M126.4,112.8c-1.8,6-7.5,9.6-12.7,8s-8-7.7-6.2-13.7,7.5-9.6,12.7-8C125.4,100.6,128.2,106.8,126.4,112.8Zm-21.9,28c-12.9-1.4-22.3-12.3-24.6-24.7-1.4-7.8.2-13.5-4.9-15.4-9-3.4-20.7,2.6-32,1.2-10.4-1.3-18.1-9.1-18.5-22.2-.3-12,8.5-28.4-3.7-33.9,5.2,1.1,9.4,2.2,11.7,6.8,4.8,9.8-2.8,28.7,5.5,33.9,4.1,2.6,11.5,1.3,16.6.6,5.8-.7,9.9-2.6,15.4-2.5-3.2-4.4-8.2-5.4-11.7-8-4.2-3.1-10.2-8.8-12.9-14.2-4.9-9.5-4-26.5-11.1-32.7-5.4-4.6-14.3-4.7-23.4-3,6.3-5.3,22.3-6.2,28.3-1.9,8.1,5.9,6.3,22.3,13.5,30.8,3.3,3.9,8.1,5.3,11.7,6.8a49.136,49.136,0,0,0,14.8,3.7c4.7-20.3-11.1-23.1-20.9-32C51,27.5,46.1,19.6,47.2,3.2c1.6,8.5,3.2,15.6,9.2,20.4,4,3.2,9.7,4.3,14.1,6.8,10.7,6.1,20.5,16,23.4,30.8,2.3-1.3,4-4.5,6.2-7.4,2.1-2.8,4.8-5.3,4.9-9.3.2-5.7-3.9-10.2-7.4-12.9-8.6-6.8-24.3-5-20.9-23.4,1.5,4.6,1.9,9.7,5.5,12.3,5.3,3.8,13.6,3.8,19.7,7.4,5.4,3.2,13.6,10.3,13.5,19.7,0,10.7-10.7,14.9-6.2,27.1,10.6,2.9,15.9,3.2,21.5,8,22.1,19.1,6.1,61.7-26.2,58.1Z" style="fill:none;stroke:#000;stroke-linejoin:round;stroke-width:6px"/><rect width="144" height="144" style="fill:none"/></svg>