<svg xmlns="http://www.w3.org/2000/svg" viewBox="0 0 144 144"><circle cx="72" cy="72" r="69" style="fill:none;stroke:#000;stroke-linecap:round;stroke-linejoin:round;stroke-width:6px"/><path d="M68.9,100.7c-1.9-.3-29.7,9.9-29.7,9.9,6.8-6.5,10.3-12.8,9.5-18.9C40.8,85.5,36,76.9,36,67.3,36,48.4,54.8,33,78,33s42,15.3,42,34.3-18.8,34.3-42,34.3A45.3021,45.3021,0,0,1,68.9,100.7Z" style="fill:none;stroke:#000;stroke-linejoin:round;stroke-width:6px"/><path d="M85.1,44.9c12.7,2.6,22.1,12,22.1,23.1,0,7.1-3.9,13.5-9.9,17.9" style="fill:none;stroke:#000;stroke-linecap:round;stroke-linejoin:round;stroke-width:6px"/><rect width="144" height="144" style="fill:none"/></svg>