<svg xmlns="http://www.w3.org/2000/svg" viewBox="0 0 144 144"><path d="M114.2,51h13.1l5.3-12H79.1l2.1,12H95.9L71.1,72.8C66.1,65.8,54.2,51,46,39H63V27H3V39H21.2C28.3,44.5,57,82,57,82v23s-15.8,3.1-18.7,3.4l-1,8.6H93l6.2-8.6L81,105V81.8Z" style="fill:none;stroke:#000;stroke-linejoin:round;stroke-width:6px"/><path d="M123.1,101.3l8.3.7L141,64.8c-1.6-.1-16-1.4-17.9-1.8v38.3Z" style="fill:none;stroke:#000;stroke-linejoin:round;stroke-width:6px"/><polygon points="123.7 111.2 123.8 116.6 128.9 117 129.7 111.7 123.7 111.2" style="fill:none;stroke:#000;stroke-linejoin:round;stroke-width:6px"/><rect width="144" height="144" style="fill:none"/></svg>