<svg xmlns="http://www.w3.org/2000/svg" viewBox="0 0 144 144"><circle cx="72" cy="72" r="69" style="fill:none;stroke:#000;stroke-linecap:round;stroke-linejoin:round;stroke-width:6px"/><path d="M49.5,80a26.0763,26.0763,0,0,1-4-14.1A26.6,26.6,0,1,1,94.6,80.1" style="fill:none;stroke:#000;stroke-linecap:round;stroke-linejoin:round;stroke-width:6px"/><path d="M43.4,92.2a38.8457,38.8457,0,1,1,57.4-.1" style="fill:none;stroke:#000;stroke-linecap:round;stroke-linejoin:round;stroke-width:6px"/><path d="M85.3,89.3a8.0994,8.0994,0,0,0-8.1-9.1H66.8a8.4154,8.4154,0,0,0-6.1,2.7,7.789,7.789,0,0,0-2,6.4L61,109.7a8.2874,8.2874,0,0,0,8.1,7.3h5.8a8.06,8.06,0,0,0,8.1-7.3Z" style="fill:none;stroke:#000;stroke-linecap:round;stroke-linejoin:round;stroke-width:6px"/><circle cx="72" cy="62" r="10.2" style="fill:none;stroke:#000;stroke-linecap:round;stroke-linejoin:round;stroke-width:6px"/><rect width="144" height="144" style="fill:none"/></svg>