<svg xmlns="http://www.w3.org/2000/svg" viewBox="0 0 144 144"><path d="M19.9,80.4a60.52,60.52,0,0,1,120.9-4.1c.1-1.4.2-2.9.2-4.3a69,69,0,1,0-69,69c1.4,0,3-.1,4.3-.2A60.4927,60.4927,0,0,1,19.9,80.4Z" style="fill:none;stroke:#000;stroke-linecap:round;stroke-linejoin:round;stroke-width:6px"/><path d="M84,38.1a45,45,0,1,0,45,45,51.5561,51.5561,0,0,0-.7-7.9,20.3929,20.3929,0,1,1-23-31.7A44.5912,44.5912,0,0,0,84,38.1Z" style="fill:none;stroke:#000;stroke-linecap:round;stroke-linejoin:round;stroke-width:6px"/><rect width="144" height="144" style="fill:none"/></svg>