<svg xmlns="http://www.w3.org/2000/svg" viewBox="0 0 144.1 144"><path d="M68.2,77.6c-4.4-3.1-8.4-7.6-8.4-9,0-2.6.2-3.8,5.9-8.2C73.1,54.6,77.1,47,77.1,39c0-7.3-2.2-13.7-6-18.3H74a3.3711,3.3711,0,0,0,1.7-.5l8.2-5.9A3.0027,3.0027,0,0,0,85,11.1a2.8822,2.8822,0,0,0-2.7-2H45.6a36.6973,36.6973,0,0,0-12.1,2.1c-13.3,4.6-22.7,16-22.7,27.6,0,16.5,12.8,29.1,29.9,29.5a17.3733,17.3733,0,0,0-.5,3.9,13.6261,13.6261,0,0,0,2,7.3h-.5c-16.3,0-31.1,8-36.6,19.9a21.1145,21.1145,0,0,0-2.2,9.3,17.59,17.59,0,0,0,2.3,8.6c3.5,6.3,11.1,11.2,21.3,13.7a70.2921,70.2921,0,0,0,16.8,2,56.0357,56.0357,0,0,0,15-2c14.5-4.2,23.9-14.9,23.9-27.2C82.2,91.9,78.4,84.8,68.2,77.6ZM22,104.7c0-8.6,10.9-16.2,23.4-16.2h.3a26.0774,26.0774,0,0,1,7.9,1.2c.9.6,1.7,1.2,2.5,1.7,5.8,3.9,9.6,6.5,10.6,10.7a16.4549,16.4549,0,0,1,.4,3.1c0,10.7-8,16.2-23.8,16.2C31.3,121.4,22,114,22,104.7ZM33.3,23.3a9.601,9.601,0,0,1,7.4-3.4H41c8.1.2,15.8,9.3,17.3,20.1.8,6.1-.6,11.8-3.6,15.3a9.8064,9.8064,0,0,1-7.5,3.4h-.1c-7.9-.2-15.8-9.6-17.2-20.4C29,32.2,30.3,26.8,33.3,23.3Z" transform="translate(0.1)" style="fill:none;stroke:#000;stroke-linejoin:round;stroke-width:6px"/><polygon points="141.1 57 123.1 57 123.1 39 111.1 39 111.1 57 93.1 57 93.1 69 111.1 69 111.1 87 123.1 87 123.1 69 141.1 69 141.1 57" style="fill:none;stroke:#000;stroke-linejoin:round;stroke-width:6px"/><rect x="0.1" width="144" height="144" style="fill:none"/></svg>