<svg xmlns="http://www.w3.org/2000/svg" viewBox="0 0 144 144"><circle cx="72" cy="72" r="69" style="fill:none;stroke:#000;stroke-linecap:round;stroke-linejoin:round;stroke-width:6px"/><path d="M21,77.5h0c-.1,4.4,5.6,11.7,16.3,12.5,0-4.8,8-22.2,20.5-28.4a21.77,21.77,0,0,0-6.4-3.7,12.6015,12.6015,0,1,0-15.6,0C34.1,58.6,22.5,63.5,21,77.5Z" style="fill:none;stroke:#000;stroke-linejoin:round;stroke-width:6px"/><path d="M101.3,52.4a18.9043,18.9043,0,0,0-37.8,0,18.3,18.3,0,0,0,7,14.4h0c-2.5,1-19.8,8.3-22,29.1-.8,26,68.8,27.5,68.5.1-.1-12.3-8.7-24.4-22.5-29.2A18.1231,18.1231,0,0,0,101.3,52.4Z" style="fill:none;stroke:#000;stroke-linejoin:round;stroke-width:6px"/><rect width="144" height="144" style="fill:none"/></svg>