<svg xmlns="http://www.w3.org/2000/svg" viewBox="0 0 144 144"><circle cx="72" cy="72" r="69" style="fill:none;stroke:#000;stroke-linecap:round;stroke-linejoin:round;stroke-width:6px"/><path d="M84,74.8c-.6-4-4.9-7.9-8.5-7.9-9.2,0-18.5,12-21.6,21.6-3.1,10.1-4.2,22.7,7.2,22.9,4.5,0,8-3.9,10.9-7.3,0,5.1,2.5,7.2,5.1,7.2,3.9,0,8.4-3.5,15.2-11.1m2.1-54.6c-4.2,15.9-22.5,58.5-22.5,58.5" style="fill:none;stroke:#000;stroke-linecap:round;stroke-linejoin:round;stroke-width:6px"/><path d="M47.2,76.8,44.1,65a7.2713,7.2713,0,0,0-4.4-4.5L26.5,57c-1.9-.5-1.9-1.3,0-1.9l13.2-3.5a6.8251,6.8251,0,0,0,4.4-4.5L47.5,34c.5-1.9,1.3-1.9,1.8,0l3.5,13.3a7.1879,7.1879,0,0,0,4.5,4.5l13.2,3.5c1.9.5,1.9,1.3,0,1.9L57.3,60.7A6.4654,6.4654,0,0,0,52.8,65l-1.6,6.1a41.1229,41.1229,0,0,0-4,5.7" style="fill:none;stroke:#000;stroke-linecap:round;stroke-linejoin:round;stroke-width:6px"/><path d="M72.5,35l5-1.3A2.6218,2.6218,0,0,0,79.2,32l1.3-5c.2-.7.5-.7.7,0l1.3,5a2.6216,2.6216,0,0,0,1.7,1.7l5,1.3c.7.2.7.5,0,.7l-5,1.3a2.6216,2.6216,0,0,0-1.7,1.7l-1.3,5c-.2.7-.5.7-.7,0l-1.3-5A2.6218,2.6218,0,0,0,77.5,37l-5-1.3c-.7-.2-.7-.5,0-.7" style="fill:none;stroke:#000;stroke-linecap:round;stroke-linejoin:round;stroke-width:6px"/><path d="M111.3,82.4l7.9,2.1c1.1.3,1.1.8,0,1.1l-7.9,2.1a3.974,3.974,0,0,0-2.6,2.6l-2.1,7.9c-.3,1.2-.8,1.2-1.1,0l-2.1-7.9a3.7769,3.7769,0,0,0-2.6-2.6L93,85.5c-1.1-.3-1.1-.8,0-1.1l7.9-2.1a4.1249,4.1249,0,0,0,2.6-2.7l2.1-7.9c.3-1.1.8-1.1,1.1,0l2.1,7.9a3.5736,3.5736,0,0,0,2.5,2.8" style="fill:none;stroke:#000;stroke-linecap:round;stroke-linejoin:round;stroke-width:6px"/><rect width="144" height="144" style="fill:none"/></svg>