<svg xmlns="http://www.w3.org/2000/svg" viewBox="0 0 144 144"><circle cx="72" cy="72" r="69" style="fill:none;stroke:#000;stroke-linecap:round;stroke-linejoin:round;stroke-width:6px"/><ellipse cx="71.7" cy="80.9" rx="10.4" ry="8.3" style="fill:none;stroke:#000;stroke-linejoin:round;stroke-width:6px"/><line x1="71.7" y1="56.1" x2="71.7" y2="72.6" style="fill:none;stroke:#000;stroke-linejoin:round;stroke-width:6px"/><circle cx="71.7" cy="47.8" r="8.3" style="fill:none;stroke:#000;stroke-linejoin:round;stroke-width:6px"/><circle cx="115.6" cy="80.9" r="6.3" style="fill:none;stroke:#000;stroke-linejoin:round;stroke-width:6px"/><line x1="89.3" y1="94.3" x2="80.1" y2="85.9" style="fill:none;stroke:#000;stroke-linejoin:round;stroke-width:6px"/><circle cx="92.6" cy="96.9" r="4.2" style="fill:none;stroke:#000;stroke-linejoin:round;stroke-width:6px"/><line x1="105.7" y1="60.4" x2="80.5" y2="76.4" style="fill:none;stroke:#000;stroke-linejoin:round;stroke-width:6px"/><circle cx="109.2" cy="58.2" r="4.2" style="fill:none;stroke:#000;stroke-linejoin:round;stroke-width:6px"/><path d="M32.1,74.7a6.2529,6.2529,0,0,1,6.3,6.2,6.318,6.318,0,0,1-6.2,6.3A6.2529,6.2529,0,0,1,25.9,81,6.1284,6.1284,0,0,1,32.1,74.7Z" style="fill:none;stroke:#000;stroke-linejoin:round;stroke-width:6px"/><line x1="49.8" y1="95.2" x2="63.4" y2="85.9" style="fill:none;stroke:#000;stroke-linejoin:round;stroke-width:6px"/><circle cx="46.2" cy="97.3" r="4.2" style="fill:none;stroke:#000;stroke-linejoin:round;stroke-width:6px"/><line x1="42.4" y1="61" x2="63.8" y2="75.5" style="fill:none;stroke:#000;stroke-linejoin:round;stroke-width:6px"/><circle cx="38.9" cy="58.6" r="4.2" style="fill:none;stroke:#000;stroke-linejoin:round;stroke-width:6px"/><line x1="61.3" y1="81" x2="38.3" y2="80.9" style="fill:none;stroke:#000;stroke-linejoin:round;stroke-width:6px"/><line x1="82.2" y1="80.9" x2="109.3" y2="81" style="fill:none;stroke:#000;stroke-linejoin:round;stroke-width:6px"/><rect width="144" height="144" style="fill:none"/></svg>