<svg xmlns="http://www.w3.org/2000/svg" viewBox="0 0 144 144.0129"><path d="M106.9,79.7c-.2-16.6,13.5-24.5,14.1-24.9-7.7-11.2-19.7-12.8-23.9-13-10.2-1-19.9,6-25,6C67,47.9,59,42,50.5,42.2c-11.1.2-21.3,6.5-27.1,16.4-11.5,20-2.9,49.6,8.3,65.9,5.5,7.9,12,16.9,20.6,16.5,8.3-.3,11.4-5.4,21.4-5.4s12.8,5.4,21.6,5.2c8.9-.2,14.6-8.1,20-16.1a74.25,74.25,0,0,0,9.1-18.6C124.3,106.1,107.1,99.5,106.9,79.7Z" style="fill:none;stroke:#000;stroke-linejoin:round;stroke-width:6px"/><path d="M91.5,25c4.8-5.8,8.1-13.9,7.2-22-6.9.3-15.4,4.6-20.3,10.4-4.5,5.2-8.4,13.4-7.3,21.4C78.8,35.4,86.7,30.9,91.5,25Z" style="fill:none;stroke:#000;stroke-linejoin:round;stroke-width:6px"/><rect width="144" height="144" style="fill:none"/></svg>