<svg xmlns="http://www.w3.org/2000/svg" viewBox="0 0 144 144"><circle cx="72" cy="72" r="69" style="fill:none;stroke:#000;stroke-linecap:round;stroke-linejoin:round;stroke-width:6px"/><path d="M47.4,113c7.1-.3,15.7,0,24,0,8.6,0,17.5-.6,24.5,0,2.8.2,5.4,1.9,7.7.4,1.8-2.3.5-5.4.9-8.5.8-5.9,6.2-13-1.7-14.5-3.4,3.1-1.1,6-3,9.8-2.3,4.6-10.6,6.2-18.5,6.8-6.8.5-18.6,1.2-21-3.4-2-3.9-.9-9.9-.9-14.9,0-5.6-.6-11,.9-15.3,8.5.6,19.7-2.9,25.7.8,4.1,2.5,1.7,7.4,6.4,8.9,3.2-.9,1.5-5,1.3-8.9-.1-2.5-.1-6,0-8.9.2-3.9,1.7-8.5-2.6-8.5-3.3,2.6-.8,6.9-4.3,9.4-1.1.8-3.5,1.1-5.1,1.3a92.2879,92.2879,0,0,1-21.9-.9,166.204,166.204,0,0,1,0-26.4c2.9-2.9,9.6-3,14.2-3,8,0,20.4.7,22.8,4.7,1.3,2.2.3,6.7,2.6,7.2,4.6,1.1,2.4-7.2,2.6-11.1.1-2.9,1.4-4.7.9-6.8-1.5-2.1-3.7-1-5.2-.9-14.6,1.8-36.8.9-52.4.9-1.9,0-5.1-.9-6.4,1.3-.9,4.9,5.8,2.9,8.2,5.5.8.9,1.9,4.7,2.1,7.2.7,6.8,0,17.2,0,27.2,0,10.6.8,21.2,0,27.7-.3,2.2-1.6,5.9-2.1,6.4-2.9,2.9-10.7-.3-9.9,6,2.6,1.9,6.5.6,10.2.5" style="fill:none;stroke:#000;stroke-linejoin:round;stroke-width:6px"/><rect width="144" height="144" style="fill:none"/></svg>