<svg xmlns="http://www.w3.org/2000/svg" viewBox="0 0 144 144"><path d="M72,141a68.9857,68.9857,0,1,1,57.6-31h0l10.1,24.3-24.2-8.7A69.0221,69.0221,0,0,1,72,141ZM33.8,54c-3.3.8-5.2,4.4-4.4,8.1l9.4,40c.9,3.7,4.2,6.1,7.5,5.3l64.5-15.1c3.3-.8,5.2-4.4,4.4-8.1l-9.4-40c-.9-3.7-4.2-6.1-7.5-5.3L84.4,42.2a23.9614,23.9614,0,0,0-14.5-4.7A24.3616,24.3616,0,0,0,48.2,50.7L33.8,54ZM73.4,89.9A17.4,17.4,0,1,1,90.8,72.5,17.4125,17.4125,0,0,1,73.4,89.9Z" style="fill:none;stroke:#000;stroke-linejoin:round;stroke-width:6px"/><rect width="144" height="144" style="fill:none"/></svg>