<svg xmlns="http://www.w3.org/2000/svg" viewBox="0 0 144 144"><path d="M106.8,105a1.7632,1.7632,0,0,0,1.5-.8,2.0163,2.0163,0,0,0,.2-1.7L76.1,28.1A1.7139,1.7139,0,0,0,74.5,27h0a1.6223,1.6223,0,0,0-1.6,1.1L40.5,102.5a2.0072,2.0072,0,0,0,.1,1.7,1.7632,1.7632,0,0,0,1.5.8Z" style="fill:none;stroke:#000;stroke-linejoin:round;stroke-width:6px"/><line x1="75" y1="85" x2="86.1" y2="77.5" style="fill:none;stroke:#000;stroke-linejoin:round;stroke-width:6px"/><line x1="75" y1="88.8" x2="63.2" y2="82.7" style="fill:none;stroke:#000;stroke-linejoin:round;stroke-width:6px"/><line x1="75" y1="95.9" x2="86.6" y2="88.2" style="fill:none;stroke:#000;stroke-linejoin:round;stroke-width:6px"/><circle cx="72" cy="72" r="69" style="fill:none;stroke:#000;stroke-linecap:round;stroke-linejoin:round;stroke-width:6px"/><line x1="75" y1="105" x2="75" y2="72" style="fill:none;stroke:#000;stroke-linejoin:round;stroke-width:6px"/><rect width="144" height="144" style="fill:none"/></svg>