<svg xmlns="http://www.w3.org/2000/svg" viewBox="0 0 144 144"><path d="M117,27H105L99,15H81L75,27H63A12.0353,12.0353,0,0,0,51,39V75A12.0353,12.0353,0,0,0,63,87h54a12.0353,12.0353,0,0,0,12-12V39A12.0353,12.0353,0,0,0,117,27Z" style="fill:none;stroke:#000;stroke-linejoin:round;stroke-width:6px"/><circle cx="90" cy="57" r="18" style="fill:none;stroke:#000;stroke-linejoin:round;stroke-width:6px"/><circle cx="90" cy="57" r="6" style="fill:none;stroke:#000;stroke-linejoin:round;stroke-width:6px"/><rect x="15" y="27" width="18" height="60" style="fill:none;stroke:#000;stroke-linejoin:round;stroke-width:6px"/><polyline points="21 141 21 105 36.7 105" style="fill:none;stroke:#000;stroke-linecap:round;stroke-linejoin:round;stroke-width:6px"/><line x1="21" y1="123" x2="32.4" y2="123" style="fill:none;stroke:#000;stroke-linecap:round;stroke-linejoin:round;stroke-width:6px"/><line x1="117" y1="141" x2="117" y2="105" style="fill:none;stroke:#000;stroke-linecap:round;stroke-linejoin:round;stroke-width:6px"/><path d="M117,130.3c0,5.9-1.7,10.7-7.1,10.7s-7-4.8-7-10.7,1.7-10.7,7-10.7C115.3,119.7,117,124.4,117,130.3Z" style="fill:none;stroke:#000;stroke-linecap:round;stroke-linejoin:round;stroke-width:6px"/><path d="M47.8,130.3c0,5.9,1.7,10.7,7,10.7s7-4.8,7-10.7-1.7-10.7-7-10.7S47.8,124.4,47.8,130.3Z" style="fill:none;stroke:#000;stroke-linecap:round;stroke-linejoin:round;stroke-width:6px"/><path d="M76.9,130.3c0,5.9,1.7,10.7,7.1,10.7s7-4.8,7-10.7-1.7-10.7-7-10.7C78.6,119.7,76.9,124.4,76.9,130.3Z" style="fill:none;stroke:#000;stroke-linecap:round;stroke-linejoin:round;stroke-width:6px"/><rect width="144" height="144" style="fill:none"/></svg>