<svg xmlns="http://www.w3.org/2000/svg" viewBox="0 0 144 144"><circle cx="72" cy="72" r="69" style="fill:none;stroke:#000;stroke-linecap:round;stroke-linejoin:round;stroke-width:6px"/><path d="M104.6,98.7c-1.2,3.9-4.9,6.3-8.3,5.2-3.4-1-5.2-5-4-8.9s4.9-6.3,8.3-5.2S105.8,94.8,104.6,98.7ZM90.2,117c-8.4-1-14.6-8-16.1-16.1-.9-5.1.1-8.8-3.2-10.1-5.9-2.2-13.5,1.7-20.9.8-6.8-.8-11.8-6-12.1-14.5-.2-7.8,5.5-18.6-2.4-22.2,3.4.7,6.2,1.5,7.6,4.4,3.2,6.4-1.8,18.7,3.6,22.2,2.7,1.7,7.5.8,10.9.4,3.8-.5,6.4-1.7,10.1-1.6-2.1-2.9-5.4-3.5-7.6-5.2-2.7-2.1-6.6-5.7-8.4-9.3-3.2-6.2-2.6-17.3-7.3-21.4-3.5-3.1-9.3-3.1-15.3-2,4.1-3.5,14.6-4.1,18.5-1.2,5.3,3.8,4.1,14.6,8.9,20.1,2.1,2.5,5.3,3.5,7.6,4.4a29.9179,29.9179,0,0,0,9.6,2.4C76.8,54.8,66.4,53,60,47.1c-4.8-4.3-8-9.4-7.2-20.1,1,5.6,2.1,10.2,6,13.3,2.6,2.1,6.3,2.8,9.3,4.4,7,4,13.4,10.5,15.3,20.1,1.5-.9,2.6-2.9,4-4.8s3.1-3.5,3.2-6.1c.1-3.7-2.5-6.7-4.8-8.5C80.2,41,69.9,42.1,72.1,30.1c1,3,1.2,6.3,3.6,8.1,3.4,2.5,8.9,2.5,12.9,4.8,3.5,2.1,8.9,6.7,8.8,12.9,0,7-7,9.7-4,17.7,6.9,1.9,10.4,2.1,14.1,5.2,14.3,12.7,3.9,40.6-17.3,38.2Z" style="fill:none;stroke:#000;stroke-linejoin:round;stroke-width:6px"/><rect width="144" height="144" style="fill:none"/></svg>