<svg xmlns="http://www.w3.org/2000/svg" viewBox="0 0 144 144"><path d="M27.4,99H45V73.7c0-7.3-2.8-10.9-7.3-10.9-4.6,0-8.2,2.5-10.7,7.2V45H3V57H9V87H3V99H27V84" style="fill:none;stroke:#000;stroke-linejoin:round;stroke-width:6px"/><path d="M94.2,39,89.1,71.2,102.9,73c.6-1.7,2-2.8,4.7-2.8,3.7,0,5.5,3.3,5.5,7.7,0,5-.7,9.7-5.4,9.7-6.2,0-5.2-2.5-5.2-7.1,0-3.3-2.2-6.1-6.4-6.1-4.7,0-8.2.9-9,6.2-.6,6.1.3,8,4.1,12.4,4.1,3.6,10.6,6.1,19.1,6.1,16,0,24.7-9.7,24.7-21.7,0-8.2-6-17-17.4-17-6.5,0-11.5,2.1-13.1,4.5l1.3-13.8h24.3l.7-12H94.2Z" style="fill:none;stroke:#000;stroke-linejoin:round;stroke-width:6px"/><rect x="63" y="45" width="12" height="12" style="fill:none;stroke:#000;stroke-linejoin:round;stroke-width:6px"/><polygon points="51 57 51 75 57.2 75 57.2 87 51 87 51 99 80.4 99 80.4 87 75 87 75 57 51 57" style="fill:none;stroke:#000;stroke-linejoin:round;stroke-width:6px"/><rect width="144" height="144" style="fill:none"/></svg>