<svg xmlns="http://www.w3.org/2000/svg" viewBox="0 0 144.2 144"><path d="M22.4,120C12.2,108.8,4,94.4,3,75V69.3A72.0355,72.0355,0,0,1,8.1,46.9c3.4-8.8,8.6-17.1,14.8-22.4a81.3791,81.3791,0,0,0,.5,10.8A42.1706,42.1706,0,0,0,34.5,57.1c4.3,4.4,10.2,7.3,16.2,10.5,12,6.4,23.4,12,35.3,18.3,7.7,4.1,15.6,9.1,17.8,17.2,3.2,11.5-3.5,22.1-8.9,27.8a32.8893,32.8893,0,0,1-19.1,10H66.6c-18.9-2-33.9-9.7-44.2-20.9ZM68,50.7c11.1,5.8,22.5,11.7,33.7,17.5,5.8,3,11.1,6.1,15.1,10.5,7.4,8,11.9,18.4,11.1,33.4a31.3116,31.3116,0,0,0,4.9-6.7,69.5927,69.5927,0,0,0,8.1-27.5c0-.3.1-.5.3-.5V66.6C136.3,28.7,110.4,5.9,74.2,3H70.7c-7.1,1.2-14,3.2-18.1,7.8a25.88,25.88,0,0,0-5.4,12.7C45.9,39.3,57.3,45.1,68,50.7Z" style="fill:none;stroke:#000;stroke-linejoin:round;stroke-width:6px"/><rect width="144" height="144" style="fill:none"/></svg>