<svg xmlns="http://www.w3.org/2000/svg" viewBox="0 0 144.0297 144.0651"><path d="M129,98.7v30.5c-27.2,13.7-69.5,17.6-95.5.1C17.7,118.6,2.2,97.5,3,70.8c.8-25.4,17.3-48.1,39.9-59.6C68.9-2,108.2.5,131.1,19.5L117.6,33.3l-8.7,2.5,4.6-8.4A56.367,56.367,0,0,0,90.7,13.1c-13.5-4.3-25.9-1.9-36.2,3.1C33.3,26.5,20.8,51.7,25.7,78.3c5.1,28,26.8,50.5,55.2,52.8a79.146,79.146,0,0,0,25.7-1.8c5.8-1.9,4.4-2.4,4.4-5.9V99H83.8L98.5,87h39.6Z" transform="translate(0.0297 0.0651)" style="fill:none;stroke:#000;stroke-linejoin:round;stroke-width:6px"/><rect x="0.0297" y="0.0651" width="144" height="144" style="fill:none"/></svg>