<svg xmlns="http://www.w3.org/2000/svg" viewBox="0 0 144 144"><circle cx="72" cy="72" r="69" style="fill:none;stroke:#000;stroke-linecap:round;stroke-linejoin:round;stroke-width:6px"/><path d="M108.5,63.9l.1.1s10.1-17.5-2.3-27.7C98.7,36.3,86.9,49,86.9,49H87a54.8527,54.8527,0,0,0-29.8-.1c-.1-.1-11.7-12.7-19.4-12.7C25.7,46.3,35,63.2,35.5,64c-3.9,5.9-6,13.2-5.4,22C31,98,41,111,53,111H90.9c12,0,22-13.1,22.9-25.1A33.4079,33.4079,0,0,0,108.5,63.9Z" style="fill:none;stroke:#000;stroke-linecap:round;stroke-linejoin:round;stroke-width:6px"/><path d="M100.7,85.6c0-22.9-15.8-13.5-28.7-13.5S43.3,63,43.3,85.6A13.4008,13.4008,0,0,0,56.7,99H87.4A13.38,13.38,0,0,0,100.7,85.6Z" style="fill:none;stroke:#000;stroke-linecap:round;stroke-linejoin:round;stroke-width:6px"/><line x1="87" y1="78" x2="87" y2="90" style="fill:none;stroke:#000;stroke-linejoin:round;stroke-width:6px"/><line x1="57" y1="78" x2="57" y2="90" style="fill:none;stroke:#000;stroke-linejoin:round;stroke-width:6px"/><rect width="144" height="144" style="fill:none"/></svg>