<svg xmlns="http://www.w3.org/2000/svg" viewBox="0 0 144 144"><path d="M74.5,59.2A20.1359,20.1359,0,0,0,77.4,57a17.4112,17.4112,0,0,0,5.1-8.5c1.4-4.9-.2-9.1-3.5-11.5a11.0668,11.0668,0,0,0-6.4-2H58.3l-.4,2L52.1,61.9H65.8A16.2019,16.2019,0,0,0,74.5,59.2Z" style="fill:none;stroke:#000;stroke-linecap:round;stroke-linejoin:round;stroke-width:6px"/><path d="M9.7,116.9,33.5,15H83.4c15,0,31.6,10.7,26.6,33.5C105.6,68.4,89.1,81,68.8,81H47.9l-9,35.9Z" style="fill:none;stroke:#000;stroke-linecap:round;stroke-linejoin:round;stroke-width:6px"/><path d="M125.9,46.1c3.5,6.3,3.7,13.5,2.2,20.4C123.8,86,108,98.7,87.8,99H66.1L57,135H27.8l2-9.1" style="fill:none;stroke:#000;stroke-linecap:round;stroke-linejoin:round;stroke-width:6px"/><rect width="144" height="144" style="fill:none"/></svg>