<svg xmlns="http://www.w3.org/2000/svg" viewBox="0 0 144 144"><path d="M78.6,26l-30,76.6c-5.8,14.7-10.4,29.8-29.5,30.2-3.4,0-8.2.1-10.7-1.4-4.4-2.7-3.6-8.9,0-11.1a7.6785,7.6785,0,0,1,5.1-.9c13.4.9,16.8-7.5,20.8-18.2L3.9,26c-1.7-4.2-1.1-8.4,3.4-10.2,5-2,8.8.5,10.6,5.1,8,19.9,16.3,40.7,24,60.8.2.3.7.5.9,0L49.7,63C55,49.3,60.6,35.5,65.4,21.6c1.1-3.3,3.2-5.6,7.2-5.6a5.482,5.482,0,0,1,3.1.7c3.1,1.5,4.7,5.1,2.9,9.3ZM84,54.4c3.2-3.6,28-23.5,33-24.7,7.4-1.7,12,6.3,6.6,12-3.3,3.4-31.9,15-37.2,16-1.2.4-3.1.6-3.5-.1-.6-.9.3-2.3,1.1-3.2Zm51.9,14.1A6.9586,6.9586,0,0,1,141,75v.1h0a6.9818,6.9818,0,0,1-5.1,6.6c-3.6,1.1-26.5-1-37.2-3.8-3.1-.9-5.1-1.6-5.2-2.9.1-1.2,2.2-2,5.2-2.8,10.7-2.8,33.5-4.9,37.2-3.7Zm-53,24.7c.5-.8,2.3-.5,3.5-.2,5.4,1,33.9,12.6,37.2,16.2,5.4,5.6.8,13.7-6.6,12-5-1.1-29.8-21.2-33-24.7-.8-1.1-1.7-2.4-1.1-3.3Z" style="fill:none;stroke:#000;stroke-linejoin:round;stroke-width:6px"/><rect width="144" height="144" style="fill:none"/></svg>