<svg xmlns="http://www.w3.org/2000/svg" viewBox="0 0 144 144"><circle cx="72" cy="72" r="69" style="fill:none;stroke:#000;stroke-linecap:round;stroke-linejoin:round;stroke-width:6px"/><circle cx="71.9" cy="71.7" r="9.2" style="fill:none;stroke:#000;stroke-linejoin:round;stroke-width:6px"/><path d="M68,63.4a152.635,152.635,0,0,1-2.7-23C65,28.2,92.5,20.1,89.9,48.5c-5,6.2-10.4,12.8-12.9,15.6" style="fill:none;stroke:#000;stroke-linejoin:round;stroke-width:6px"/><path d="M89.9,48.5c8.4-9,29.3-1,8.7,15.6-9.2,2-14.9,3.5-18.1,4.3" style="fill:none;stroke:#000;stroke-linejoin:round;stroke-width:6px"/><path d="M98.6,64.1c16.1-1.6,16.1,15.6,13.9,19.6s-8.9,11.2-19.1,2.9c-6.1-5.2-10.7-8.8-13.2-10.8" style="fill:none;stroke:#000;stroke-linejoin:round;stroke-width:6px"/><path d="M93.3,86.6c9.6,15.3-10.3,26.2-15.6,9.9L74.3,80.6" style="fill:none;stroke:#000;stroke-linejoin:round;stroke-width:6px"/><path d="M65.7,79.1c-1.8,2.5-5.2,7-11.4,15.2-13,17.1,16,27.2,21.1,10.1,1.2-4.1,2.3-7.9,2.3-7.9" style="fill:none;stroke:#000;stroke-linejoin:round;stroke-width:6px"/><path d="M63.4,75.3c-3,.9-8.9,2.7-17.6,5.6-13.5,4.4-8.8,21.9,8.5,13.4" style="fill:none;stroke:#000;stroke-linejoin:round;stroke-width:6px"/><path d="M62.8,70.3C56.4,66,53.2,59.5,44.5,60.2c-9.7.7-14.8,6.5-14.8,12.9s10,9.7,16.1,7.9" style="fill:none;stroke:#000;stroke-linejoin:round;stroke-width:6px"/><path d="M68.4,63.2c-.8-3.9-2.4-10.3-5-14.4-3.9-6.2-10.4-11.1-14.8-8s-7.5,11.8,4.8,21.7" style="fill:none;stroke:#000;stroke-linejoin:round;stroke-width:6px"/><rect width="144" height="144" style="fill:none"/></svg>