<svg xmlns="http://www.w3.org/2000/svg" viewBox="0 0 144 144"><path d="M72,4.1C34,4.1,3,34.8,3,72.6a67.7583,67.7583,0,0,0,13.1,40.1L7.5,138.1,34,129.7A69.5559,69.5559,0,0,0,72,141c38,0,69-30.7,69-68.5,0-37.7-31-68.4-69-68.4m41.4,87.2c-.5-.8-1.8-1.3-3.9-2.3-2-1-11.9-5.8-13.7-6.5s-3.2-1-4.5,1a92.4156,92.4156,0,0,1-6.4,7.8c-1.2,1.3-2.4,1.5-4.4.5a55.3289,55.3289,0,0,1-16.2-9.9A60.7055,60.7055,0,0,1,53.1,68.1c-1.2-2-.1-3.1.9-4.1a20.6066,20.6066,0,0,0,5-6.8,3.5919,3.5919,0,0,0-.2-3.5c-.5-1-4.5-10.8-6.2-14.8-1.9-4.5-10.3-4.7-13.8-1C28.1,49.5,30.5,62.7,40,75.2c1,1.3,13.9,22.1,34.4,30.1,20.4,8,20.4,5.3,24.1,5,10.8-1,18-14,14.9-19" style="fill:none;stroke:#000;stroke-linejoin:round;stroke-width:6px"/><rect width="144" height="144" style="fill:none"/></svg>