<svg xmlns="http://www.w3.org/2000/svg" viewBox="0 0 144.1 144.7"><path d="M126.1,20.1ZM3,57V88.3a53.0957,53.0957,0,0,0,18,39.9,52.4476,52.4476,0,0,0,35.4,13.5h72.8a11.8646,11.8646,0,0,0,11.9-11.9V57a53.2122,53.2122,0,0,0-14.9-36.9h0A53.4629,53.4629,0,0,0,87.7,3.7H56.3A53.4761,53.4761,0,0,0,3,57Z" style="fill:none;stroke:#000;stroke-linejoin:round;stroke-width:6px"/><path d="M84,39.1a57.5367,57.5367,0,0,1,2.8,69.4" style="fill:none;stroke:#000;stroke-linecap:round;stroke-linejoin:round;stroke-width:6px"/><line x1="43.3" y1="108.5" x2="58.5" y2="83.4" style="fill:none;stroke:#000;stroke-linecap:round;stroke-linejoin:round;stroke-width:6px"/><path d="M55.4,46.1a5.954,5.954,0,0,1,6,6,6,6,0,1,1-6-6Z" style="fill:none;stroke:#000;stroke-linejoin:round;stroke-width:6px"/><rect width="144" height="144" style="fill:none"/></svg>