<svg xmlns="http://www.w3.org/2000/svg" viewBox="0 0 144 144"><circle cx="72" cy="72" r="69" style="fill:none;stroke:#000;stroke-linecap:round;stroke-linejoin:round;stroke-width:6px"/><path d="M80.1,60.3a11.0518,11.0518,0,0,0,3.3-5.6C84.8,49.8,81.5,45,77,45H67.7c-.5,3.6-3.2,14.3-4.1,18h8.9C75.8,63,77.8,62.5,80.1,60.3Z" style="fill:none;stroke:#000;stroke-linecap:round;stroke-linejoin:round;stroke-width:6px"/><path d="M36.2,99,51.7,33H84c9.7,0,20.5,7,17.3,21.7C98.4,67.7,87.7,75,74.6,75H61L55.2,99Z" style="fill:none;stroke:#000;stroke-linecap:round;stroke-linejoin:round;stroke-width:6px"/><path d="M111.6,53.2c2.3,4.1,2.4,8.8,1.4,13.3C110.2,79.2,100,86.8,86.8,87H72.7l-5.9,24h-19" style="fill:none;stroke:#000;stroke-linecap:round;stroke-linejoin:round;stroke-width:6px"/><rect width="144" height="144" style="fill:none"/></svg>