<svg xmlns="http://www.w3.org/2000/svg" viewBox="0 0 144 144"><circle cx="72" cy="72" r="69" style="fill:none;stroke:#000;stroke-linecap:round;stroke-linejoin:round;stroke-width:6px"/><path d="M87,72.7c1.9,2.5,1.5,3.9,2.2,7.1,1.9,9.4,14.1,10.9,21.2,6.9,5.4-3,9.3-8.6,7.1-15.2a11.6442,11.6442,0,0,0-8.1-7.1c-4.4-1-8-.6-12.6,1.3-3.4,1.4-7.4,2.6-11.6,1.7-10.6-2.2-9-14.7,1-20.1,7.1-3.8,10.1-1.6,16.3-5,6-3.3,8.4-10.1,3.3-12.7a9.6244,9.6244,0,0,0-6.3-.9c-5,.6-9.5,2.7-12.2,7.3-2.1,3.7.3,5.5-3.2,10-7.7,10.1-23.4,9-19.7-1,1-2.7,5-6.1,3.7-9.4a4.094,4.094,0,0,0-1.4-1.5c-1.2-.7-4-.5-5.5.1A14.1712,14.1712,0,0,0,57,36.4c-2.9,2.2-5.3,5.4-4.6,8.4.6,2.9,3.1,2.2,6,2.5,5.8.6,5,6.8,2.6,10.6-3.2,5-11.7,10.4-16.2,6.9-1.8-1.4-2.4-3.2-6.3-2.6-10.2,1.6-14.9,18.9-4.3,16.6,4.6-.9,6.3-4,8.2-6.2,9.3-10.4,20.9-5.1,17.6,5.5-1.7,5.7-5,8.2-9.6,11.1-5.7,3.5-9.7,9.2-8.7,16.4.9,6.1,6.8,8.5,12.8,6.8,9.6-2.6,10.9-12.2,7.8-20.6-1.9-5.3-2.4-8.5.1-13a17.589,17.589,0,0,1,2.7-4C70.9,68.1,81.5,65,87,72.7Z" style="fill:none;stroke:#000;stroke-linejoin:round;stroke-width:6px"/><path d="M104.6,73.6a1.95,1.95,0,0,0-.8.1c-3.7.9-2.9,5,.2,5a3.4019,3.4019,0,0,0,1-.1,2.8235,2.8235,0,0,0,2.3-2.9,2.6107,2.6107,0,0,0-2.7-2.1Z" style="fill:#000"/><path d="M99.2,34.5h-.5c-2.5.4-3.2,3-1.1,3h.5c2.4-.4,3.2-3,1.1-3Z" style="fill:#000"/><path d="M53.3,98H53a3.8318,3.8318,0,0,0-2.8,2.7c-.7,2.1.5,3.3,1.9,3.3a3.3745,3.3745,0,0,0,3.1-2.7c.4-1.5-.2-3.3-1.9-3.3Z" style="fill:#000"/><path d="M36.4,68.8H36c-1.7.4-3.1,2.7-2.2,3.6a.9078.9078,0,0,0,.7.3,3.2674,3.2674,0,0,0,2.8-2.8c.2-.7-.2-1.1-.9-1.1Z" style="fill:#000"/><path d="M61.6,38a1.2683,1.2683,0,0,0-.6.1c-3,.8-3.8,3.8-1.8,3.8a1.9523,1.9523,0,0,0,.7-.1c2.7-.7,3.7-3.8,1.7-3.8Z" style="fill:#000"/><rect width="144" height="144" style="fill:none"/></svg>