<svg xmlns="http://www.w3.org/2000/svg" viewBox="0 0 144 144"><circle cx="72" cy="72" r="69" style="fill:none;stroke:#000;stroke-linecap:round;stroke-linejoin:round;stroke-width:6px"/><path d="M40,39,51,27V39Zm66.5.1c-1.6-2.7-9.7-5.8-13.9-5.8h-11S79.3,27,71,27c-8.2,0-7.8,3.6-7.8,6.7V46.4L59,51H41.8a10.5834,10.5834,0,0,0-5.3,9.5c0,6.9,2.1,31.1,16.6,33.3,17.1,2.6,20-5.3,20-6.2,0-4,.1-10.1.1-10.1s5,9.6,12.6,9.6,11.9,4.3,11.9,8.8v8.3s-.3,5.2-4.7,5.2H83.5a4.4872,4.4872,0,0,1-3.1-4.3H72.6c0,11,7.5,12,13.5,12h9.8s17.7-2.3,17.7-37.1-5.6-38.2-7.1-40.9" style="fill:none;stroke:#000;stroke-linejoin:round;stroke-width:6px"/><line x1="91.1" y1="63.4" x2="103.1" y2="69.8" style="fill:none;stroke:#000;stroke-linejoin:round;stroke-width:6px"/><rect width="144" height="144" style="fill:none"/></svg>