<svg xmlns="http://www.w3.org/2000/svg" viewBox="0 0 144 144"><path d="M15,126.9V17.1C15,9.3,20.6,3,27.4,3,34.3,3,39,10.1,39,18V79.7L71,45.4c3.6-3.9,6.5-6.3,11-6.3,6.7,0,11,6.1,11,12.6,0,4.8-2.3,8.6-5.7,12.3L67.5,83.1,90.9,119c2.1,3.4,3.1,6,3.1,9.1,0,7.6-5.4,12.8-11.6,12.8-4.9,0-7.9-1.9-10.8-6.5l-21.8-34-10.9,11v16.2c0,7.8-4.7,13.3-11.6,13.3-6.7.1-12.3-6.2-12.3-14m100-16.7a15,15,0,1,0-14.9-15,14.895,14.895,0,0,0,14.9,15" style="fill:none;stroke:#000;stroke-linejoin:round;stroke-width:6px"/><rect width="144" height="144" style="fill:none"/></svg>