<svg xmlns="http://www.w3.org/2000/svg" viewBox="0 0 144 144"><circle cx="72" cy="72" r="69" style="fill:none;stroke:#000;stroke-linecap:round;stroke-linejoin:round;stroke-width:6px"/><path d="M102.9,81.2c1-21.4-11.5-26.8-19.4-30.9,1.2,13.4-7.8,14.2-14.2,14.9,10.5-23.3-5.1-24.8-5.1-42.7C41,38.4,40.7,67.4,42,80.8c-7.4,3.1-12,7.3-12,12,0,9.5,18.8,17.2,42,17.2s42-7.7,42-17.2C114,88.3,109.8,84.3,102.9,81.2Z" style="fill:none;stroke:#000;stroke-linejoin:round;stroke-width:6px"/><path d="M88.5,63.4C85.6,75,76.4,82.9,67.4,81.1c-6.9-1.4-11.7-7.9-12.8-16.2a22.1567,22.1567,0,0,0-2.9,10.9c0,11.6,9.1,21.1,20.4,21.1s20.4-9.4,20.4-21.1A22.33,22.33,0,0,0,88.5,63.4Z" style="fill:none;stroke:#000;stroke-linejoin:round;stroke-width:6px"/><rect width="144" height="144" style="fill:none"/></svg>