<svg xmlns="http://www.w3.org/2000/svg" viewBox="0 0 144.1 144"><path d="M13.9,111h5.2a20.7477,20.7477,0,0,1-2.6,12.7S31.1,123,34.1,111h96.1a10.9256,10.9256,0,0,0,10.9-10.9V31.9A10.9256,10.9256,0,0,0,130.2,21H13.9A10.9256,10.9256,0,0,0,3,31.9v68.2A10.8616,10.8616,0,0,0,13.9,111M118.6,67.5a5.2,5.2,0,1,1-5.2,5.2,5.2942,5.2942,0,0,1,5.2-5.2M87.7,83.2v1.1a13.0179,13.0179,0,0,1-25.4,4.1ZM25.9,67.5a5.2,5.2,0,1,1-5.2,5.2,5.2281,5.2281,0,0,1,5.2-5.2" style="fill:none;stroke:#000;stroke-linejoin:round;stroke-width:6px"/><rect width="144" height="144" style="fill:none"/></svg>