<svg xmlns="http://www.w3.org/2000/svg" viewBox="0 0 144 144.0081"><path d="M22.9,112h4.2c43.8,0,42.9,25.3,73.1,28.8,16.3,1.9,22.8-17.8,20.1-30.5-23.7,19.1-48-16.6-70.1-15.6,0-9.8,61.6-69.6,62.3-75.7.5-3.9.9-7.8,1.4-11.7.3-2.7-2.5-2.1-2.5-2.1h0A141.4216,141.4216,0,0,1,74.7,8.5c-9-.4-16.5-1.3-23.3-5a3.1005,3.1005,0,0,0-3.7.2c-4,5-7.7,10.7-8.3,17-.4,3.9.4,5.4.4,5.4,3.4,8.7,27.4,5.4,36.6,3.6q-27,31.8-53.9,63.6h0C20.5,95.7,20.3,111.7,22.9,112Z" transform="translate(0 0.0081)" style="fill:none;stroke:#000;stroke-linejoin:round;stroke-width:6px"/><rect y="0.0081" width="144" height="144" style="fill:none"/></svg>