<svg xmlns="http://www.w3.org/2000/svg" viewBox="0 0 144 144"><path d="M93.7,51.4a18.5466,18.5466,0,0,0,1.1,18.1l.2.3c4.3,6.3,11.3,12.9,12,15.8a9.0643,9.0643,0,0,1-6.1,11.2A8.8419,8.8419,0,0,1,90,90.5c-1.5-5.5,1.9-6-3.4-12.1-2.8-3.2-8.4,2.8-10.3,9.1C74.4,94,73.2,99.4,73.6,100a10.5605,10.5605,0,0,1-3.5,14.9,9.7114,9.7114,0,0,1-13.4-4.2,10.3979,10.3979,0,0,1,4.8-14.2c1.4-.7,8.7-29,9.1-30.6C63,82.3,58.3,74.3,52.2,86.5A8.6063,8.6063,0,0,1,37.7,88,9.2188,9.2188,0,0,1,39,75.3a9.3872,9.3872,0,0,1,3.6-1.8c5.7-1.3,19.9-13.1,24.7-16.9-13.8,7.7-17.8,5-17.8,5a8.0807,8.0807,0,0,1-1.6,1.6A7.6557,7.6557,0,0,1,37,61.4a8.3156,8.3156,0,0,1,1.8-11.3,7.2175,7.2175,0,0,1,4.8-1.5c6,.2,25.5,5.2,34.5-12.2,0,0,2.9-5.3,6.4-11.7,3.5-6.6,3.3-13.7-.6-16l-7-4.1A13.9942,13.9942,0,0,0,64,4.6L15.5,32.9C11.9,34.9,9,40.1,9,44.3V99.6c0,4.2,2.9,9.4,6.5,11.5L64,139.4a13.9942,13.9942,0,0,0,12.9,0L128,111c3.6-2.1,7-7.2,7-11.5V44.3c0-4.2-3.5-9.4-7-11.5,0,0-3.6-2.1-8-4.7C110.3,22.4,98,43.7,93.7,51.4Z" style="fill:none;stroke:#000;stroke-linejoin:round;stroke-width:6px"/><rect width="144" height="144" style="fill:none"/></svg>