<svg xmlns="http://www.w3.org/2000/svg" viewBox="0 0 144.2234 144"><path d="M37.3,9.1C19.5,16.1,7.5,29.7,4.1,47.9.8,65.5,5.3,82.1,14.2,91.3a38.1832,38.1832,0,0,0,4.6-2.1c6-3.4,10.4-8.6,15.6-13-17.2-19.9,1-44.6,23.8-50.1,21.2-5.1,49.9,3.7,56.4,25.5,6.2,21.1-12.3,36.9-34.6,31.6-2.8-.7-4.9-.6-4.9-3.7V43.9c0-2.4-.2-1.9-2.2-2.2-1.6-.2-3.2-.4-4.8-.5-5.6-.4-11.5-.7-17.1.2-2.1.4-2.2,0-2.2,2.3,0,15.9.5,58.5.4,59-.2,4-.3,13.5-4.7,15.4-5.1,2.3-9.7-2.5-14.4-3.5.6,6.7-3.5,19.9,4.3,23.3,7.1,3.1,15.3,4.2,22.9,1.7,15.8-5.3,20.9-22.9,18.9-37.3,24.3,7.3,50.6-4.9,61-26.9,7.4-15.6,4.3-35.1-6.9-48.4C109.2,2.2,66.8-2.6,37.3,9.1" style="fill:none;stroke:#000;stroke-linejoin:round;stroke-width:6px"/><rect width="144" height="144" style="fill:none"/></svg>