<svg xmlns="http://www.w3.org/2000/svg" viewBox="0 0 144 144.0132"><path d="M102.9,118.1A62.3536,62.3536,0,0,0,132,65.2C132,30.8,104.5,3,70.7,3S9.3,30.8,9.3,65.2c0,34.3,27.5,62.2,61.3,62.2a58.186,58.186,0,0,0,14.5-1.8c5.8,10.6,14.7,18.1,33.5,14.5V129.6S106.6,126.5,102.9,118.1Zm-.4-44.7a43.8708,43.8708,0,0,1-8.7,26.8A38.9632,38.9632,0,0,0,63.1,87.8V100s9.1.4,15.3,11.1a25.2952,25.2952,0,0,1-7.3,1.1c-17.3,0-31.3-17.4-31.3-38.8v-16c0-21.4,14-38.8,31.3-38.8S102.4,36,102.4,57.4l.1,16Z" style="fill:none;stroke:#000;stroke-linejoin:round;stroke-width:6px"/><rect width="144" height="144" style="fill:none"/></svg>