<svg xmlns="http://www.w3.org/2000/svg" viewBox="0 0 144 144"><circle cx="72" cy="72" r="69" style="fill:none;stroke:#000;stroke-linecap:round;stroke-linejoin:round;stroke-width:6px"/><path d="M57.9,89.7c.6-2.8-1.7-4.9-4.5-4.7a5.7112,5.7112,0,0,0-5.2,4.2c-.6,2.9,1.7,5,4.5,4.7a5.3023,5.3023,0,0,0,5.2-4.2ZM99.4,72.6a19.1068,19.1068,0,0,0-4.8-2.2c-1.7-.6-2-.9-1.4-2.6a14.3224,14.3224,0,0,0,.9-3.7c.8-6.5-4.5-8.4-10.4-7.9a30.1541,30.1541,0,0,0-7.6,1.7c-1.6.5-4.5,2.1-5.2,1.1-.4-.5.1-1.3.2-1.8.9-3.5,1.3-8.4-2.2-10.6-2.5-1.6-6.9-1.2-9.6-.2C44.9,51.3,23,72,27.4,88.5a20.1127,20.1127,0,0,0,5.1,8.6c6,6,15.2,9.3,23.8,10.5a57.7332,57.7332,0,0,0,19-.4c10.2-1.9,20-6.5,26.3-14.7,4.2-5.5,5.6-13.2,0-18.2a14.0239,14.0239,0,0,0-2.2-1.7Z" style="fill:none;stroke:#000;stroke-linejoin:round;stroke-width:6px"/><path d="M83.7,35.9A25.5593,25.5593,0,0,1,117,60.1a27.2774,27.2774,0,0,1-.3,4.1" style="fill:none;stroke:#000;stroke-linecap:round;stroke-linejoin:round;stroke-width:6px"/><path d="M89.3,47.3a12.9013,12.9013,0,0,1,4-.7A11.715,11.715,0,0,1,105,58.3a11.044,11.044,0,0,1-.6,3.7" style="fill:none;stroke:#000;stroke-linecap:round;stroke-linejoin:round;stroke-width:6px"/><path d="M82.9,77C74,71.4,62,71.4,52.4,74.5c-4.8,1.6-9.9,4.6-12.9,8.4-3.5,4.5-5,10.2-1.3,15.8,5.4,8,17.9,9.5,31.9,8.5,7.5-1.7,15.5-5.9,18.8-13.1,3.2-6.6-.3-13.4-6-17.1Z" style="fill:none;stroke:#000;stroke-linejoin:round;stroke-width:6px"/><rect width="144" height="144" style="fill:none"/></svg>