<svg xmlns="http://www.w3.org/2000/svg" viewBox="0 0 144.0083 144"><path d="M3,79.2H3c-.2,6.1,3.3,7.3,3.3,7.3,7,9.4,8.8,9.8,20.2,10.6,0-7,11.5-31.9,29.5-40.9a30.4152,30.4152,0,0,0-9.1-5.4,18.07,18.07,0,0,0,7-13.9,18.2007,18.2007,0,0,0-36.4.1,17.8692,17.8692,0,0,0,6.9,14C21.9,51.9,5.2,59,3,79.2Z" transform="translate(0.0083)" style="fill:none;stroke:#000;stroke-linejoin:round;stroke-width:6px"/><path d="M118.5,43.1c0-14.7-12.2-26.6-27.2-26.6S64.1,28.4,64.1,43.1A26.21,26.21,0,0,0,74.2,63.8h0c-3.6,1.4-28.4,11.9-31.7,41.8-.3,9,4.8,10.9,4.8,10.9h0a12.9379,12.9379,0,0,0,5.4,2.8c6.8,21.5,72.5,20.3,79,0,11.5-2.3,10.2-15.9,6.8-26.5-4.8-14.6-17.1-24.6-29.9-29.1A25.9807,25.9807,0,0,0,118.5,43.1Z" transform="translate(0.0083)" style="fill:none;stroke:#000;stroke-linejoin:round;stroke-width:6px"/><rect x="0.0083" width="144" height="144" style="fill:none"/></svg>