<svg xmlns="http://www.w3.org/2000/svg" viewBox="0 0 144 144"><circle cx="72" cy="72" r="69" style="fill:none;stroke:#000;stroke-linecap:round;stroke-linejoin:round;stroke-width:6px"/><path d="M102,37ZM27,59.5V78.6a32.47,32.47,0,0,0,32.4,32.5h44.3a7.17,7.17,0,0,0,7.2-7.2V59.5a32.5357,32.5357,0,0,0-9-22.5h0A32.1482,32.1482,0,0,0,78.5,27h-19A32.5633,32.5633,0,0,0,27,59.5Z" style="fill:none;stroke:#000;stroke-linejoin:round;stroke-width:6px"/><path d="M76.3,48.6A34.8461,34.8461,0,0,1,78,90.8" style="fill:none;stroke:#000;stroke-linecap:round;stroke-linejoin:round;stroke-width:6px"/><line x1="51.5" y1="90.8" x2="60.8" y2="75.5" style="fill:none;stroke:#000;stroke-linecap:round;stroke-linejoin:round;stroke-width:6px"/><path d="M58.9,52.8a3.65,3.65,0,1,1,0,7.3,3.65,3.65,0,0,1,0-7.3Z" style="fill:none;stroke:#000;stroke-linejoin:round;stroke-width:6px"/><rect width="144" height="144" style="fill:none"/></svg>