<svg xmlns="http://www.w3.org/2000/svg" viewBox="0 0 144 144"><circle cx="117" cy="111" r="18" style="fill:none;stroke:#000;stroke-linejoin:round;stroke-width:6px"/><path d="M96.3,89.8c-.1-.3-.1-.6-.2-.8C84.2,55.2,35.4,58.3,35.4,36.7c0-10.5,11-15.4,21.5-15.4,5.1,0,9.1.8,12.1,2.3a14.9417,14.9417,0,1,0,28.6,6.1C97.7,19.4,79.9,3,55.3,3,35,3,16.7,16.9,16.7,36.5c0,40.7,58.6,34.3,58.6,65.4,0,19.8-24.4,28.8-40.6,10.1A14.9379,14.9379,0,1,0,9.3,101.3c0,7.9,12.9,39.7,48.5,39.7a39.8673,39.8673,0,0,0,31.9-15,27.9515,27.9515,0,0,1-4-14.3A28.7733,28.7733,0,0,1,96.3,89.8Z" style="fill:none;stroke:#000;stroke-linejoin:round;stroke-width:6px"/><rect width="144" height="144" style="fill:none"/></svg>