<svg xmlns="http://www.w3.org/2000/svg" viewBox="0 0 144 144"><circle cx="72" cy="72" r="69" style="fill:none;stroke:#000;stroke-linecap:round;stroke-linejoin:round;stroke-width:6px"/><circle cx="72" cy="47.5" r="23.5" style="fill:none;stroke:#000;stroke-linejoin:round;stroke-width:6px"/><circle cx="72" cy="47.5" r="10.4" style="fill:none;stroke:#000;stroke-linejoin:round;stroke-width:6px"/><path d="M84.1,92.8a44.4585,44.4585,0,0,0,15.6-8,6.0878,6.0878,0,0,0,.4-9l-.5-.5a6.2719,6.2719,0,0,0-8.4-.4A30.97,30.97,0,0,1,72,81.5a31.4738,31.4738,0,0,1-19.3-6.6,6.2834,6.2834,0,0,0-8.4.4l-.5.5a6.0918,6.0918,0,0,0,.4,9A45.39,45.39,0,0,0,60.1,93L46.3,106.8a7.7867,7.7867,0,0,0,0,11.1,7.97,7.97,0,0,0,11.1,0L72.2,103l14.7,14.8a7.97,7.97,0,0,0,11.1,0,7.7867,7.7867,0,0,0,0-11.1Z" style="fill:none;stroke:#000;stroke-linejoin:round;stroke-width:6px"/><rect width="144" height="144" style="fill:none"/></svg>