<svg xmlns="http://www.w3.org/2000/svg" viewBox="0 0 144 144"><path d="M71.4,49.5a3.18,3.18,0,0,0-1.2-4.4l-8.3-4.8a3.2669,3.2669,0,0,0-4.4,1.2L22.9,102.4a3.1262,3.1262,0,0,0,1.2,4.3l8.3,4.8a3.2669,3.2669,0,0,0,4.4-1.2Z" style="fill:none;stroke:#000;stroke-linejoin:round;stroke-width:6px"/><path d="M25.9,121.4l-8.3-4.8c-1.5-.9-2.9-.2-3.1,1.6L13,130.8c-.2,1.7.8,2.4,2.3,1.4L26,124.9C27.4,123.8,27.4,122.3,25.9,121.4Z" style="fill:none;stroke:#000;stroke-linejoin:round;stroke-width:6px"/><path d="M123.9,103.2C121.4,98.6,73.1,5.6,68.5,7.9c-5.1,2.5,40.7,101.3,44.4,103.2,3.3,1.7,4.6.7,6.8-.2C122,110,126,106.9,123.9,103.2Z" style="fill:none;stroke:#000;stroke-linejoin:round;stroke-width:6px"/><path d="M124.9,119.2c-1.2,1.2-4.2,3.8-.6,8.8s11.6,5.3,12.6,8.6C136.9,136.7,139.4,111.1,124.9,119.2Z" style="fill:none;stroke:#000;stroke-linejoin:round;stroke-width:6px"/><line x1="60" y1="87" x2="90" y2="87" style="fill:none;stroke:#000;stroke-linejoin:round;stroke-width:6px"/><polyline points="36 63 3 63 3 87 18 87" style="fill:none;stroke:#000;stroke-linejoin:round;stroke-width:6px"/><polyline points="126 87 141 87 141 63 114 63" style="fill:none;stroke:#000;stroke-linejoin:round;stroke-width:6px"/><rect width="144" height="144" style="fill:none"/></svg>