<svg xmlns="http://www.w3.org/2000/svg" viewBox="0 0 144 144"><path d="M39,144V45c18.7,15.9,38.7,16.1,60,0v99" style="fill:none;stroke:#000;stroke-linejoin:round;stroke-width:6px"/><path d="M51,21a6.0176,6.0176,0,0,1-6,6h0a6.0176,6.0176,0,0,1-6-6h0a6.0176,6.0176,0,0,1,6-6h0a6.0176,6.0176,0,0,1,6,6Z" style="fill:none;stroke:#000;stroke-linejoin:round;stroke-width:6px"/><path d="M99,21a6.0176,6.0176,0,0,1-6,6h0a6.0176,6.0176,0,0,1-6-6h0a6.0176,6.0176,0,0,1,6-6h0a6.0176,6.0176,0,0,1,6,6Z" style="fill:none;stroke:#000;stroke-linejoin:round;stroke-width:6px"/><rect width="144" height="144" style="fill:none"/></svg>