<svg xmlns="http://www.w3.org/2000/svg" viewBox="0 0 144 144"><circle cx="72" cy="72" r="69" style="fill:none;stroke:#000;stroke-linecap:round;stroke-linejoin:round;stroke-width:6px"/><path d="M34.1,99h3.4c.2,1.2-1.6,7.7-3.7,11.2,0,0,12.3-2,13.5-11.2H110c3.9,0,7.1-4.5,7.1-8.4V46.1A7.1273,7.1273,0,0,0,110,39H34.1A7.1273,7.1273,0,0,0,27,46.1V90.6c0,3.9,3.2,8.4,7.1,8.4m68.3-29.3a3,3,0,0,1,0,6,3.0759,3.0759,0,0,1-3-3,3.0085,3.0085,0,0,1,3-3M82.2,79.6v.7a8.5043,8.5043,0,0,1-16.6,2.6ZM41.9,69.7a3,3,0,0,1,0,6,3,3,0,1,1,0-6" style="fill:none;stroke:#000;stroke-linejoin:round;stroke-width:6px"/><rect width="144" height="144" style="fill:none"/></svg>