<svg xmlns="http://www.w3.org/2000/svg" viewBox="0 0 144 144"><path d="M117.5,95.7C119.1,62,99.4,53.6,87,47.3c1.9,21-12.2,22.3-22.3,23.4,16.5-36.6-8.1-39-8.1-67.1C20.3,28.5,19.8,74,21.8,95.1,10.2,100,3,106.7,3,114c0,14.9,29.6,27,66,27s66-12.1,66-27C135,106.9,128.3,100.5,117.5,95.7Z" style="fill:none;stroke:#000;stroke-linejoin:round;stroke-width:6px"/><path d="M94.9,67.7C90.4,86,75.9,98.4,61.7,95.6,50.9,93.5,43.3,83.1,41.6,70.1A33.8812,33.8812,0,0,0,37,87.2c0,18.3,14.3,33.1,32,33.1s32-14.8,32-33.1A34.1836,34.1836,0,0,0,94.9,67.7Z" style="fill:none;stroke:#000;stroke-linejoin:round;stroke-width:6px"/><rect width="144" height="144" style="fill:none"/></svg>