<svg xmlns="http://www.w3.org/2000/svg" viewBox="0 0 144 144"><circle cx="71.8" cy="73.1" r="15" style="fill:none;stroke:#000;stroke-linejoin:round;stroke-width:6px"/><path d="M66.1,59.3c-1-5-4.5-20.9-5-37.4C60.6,2,105.6-11.3,101.3,35.2c-8,10.1-17,20.8-21,25.5" style="fill:none;stroke:#000;stroke-linejoin:round;stroke-width:6px"/><path d="M101.2,35.2c13.7-14.6,47.8-1.6,14.2,25.5-15,3.3-24.4,5.7-29.7,7.1" style="fill:none;stroke:#000;stroke-linejoin:round;stroke-width:6px"/><path d="M115.5,60.7c26.2-2.6,26.2,25.5,22.7,32.1-3.6,6.6-14.6,18.4-31.3,4.7C96.9,89,89.4,83.1,85.2,79.8" style="fill:none;stroke:#000;stroke-linejoin:round;stroke-width:6px"/><path d="M106.9,97.5c15.8,24.9-16.8,42.8-25.5,16.1L75.9,87.5" style="fill:none;stroke:#000;stroke-linejoin:round;stroke-width:6px"/><path d="M62.3,84.7c-3,4-9,11.9-19.2,25.3-21.2,27.9,26.1,44.5,34.5,16.5,2-6.8,3.7-12.9,3.7-12.9" style="fill:none;stroke:#000;stroke-linejoin:round;stroke-width:6px"/><path d="M58,79c-4.9,1.5-14.5,4.5-28.8,9.1C7.1,95.2,14.8,123.9,43.1,110" style="fill:none;stroke:#000;stroke-linejoin:round;stroke-width:6px"/><path d="M57,70.8c-10.5-7-15.7-17.6-29.8-16.6C11.3,55.3,3,64.7,3,75.2,3,85.6,19.3,91,29.2,88.1" style="fill:none;stroke:#000;stroke-linejoin:round;stroke-width:6px"/><path d="M66.1,59.3c-1.3-6.4-4-16.8-8.2-23.5C51.5,25.7,40.8,17.6,33.7,22.7S21.5,42,41.6,58.1" style="fill:none;stroke:#000;stroke-linejoin:round;stroke-width:6px"/><rect width="144" height="144" style="fill:none"/></svg>