<svg xmlns="http://www.w3.org/2000/svg" viewBox="0 0 144 144"><path d="M85.3,41.4,38.8,87.8A20.9659,20.9659,0,1,1,9.2,58.1L43.1,24.2a21.0037,21.0037,0,0,1,29.7,0l1.4,1.3" style="fill:none;stroke:#000;stroke-linecap:round;stroke-linejoin:round;stroke-width:6px"/><path d="M22.9,74.4,67.1,30.2a21.0037,21.0037,0,0,1,29.7,0" style="fill:none;stroke:#000;stroke-linecap:round;stroke-linejoin:round;stroke-width:6px"/><path d="M50.3,106.8,96.9,60.2a21.0011,21.0011,0,0,1,29.7,29.7L92.7,123.8a21.0037,21.0037,0,0,1-29.7,0l-1.4-1.4" style="fill:none;stroke:#000;stroke-linecap:round;stroke-linejoin:round;stroke-width:6px"/><path d="M112.5,73.9,68.7,117.8a21.0037,21.0037,0,0,1-29.7,0" style="fill:none;stroke:#000;stroke-linecap:round;stroke-linejoin:round;stroke-width:6px"/><rect width="144" height="144" style="fill:none"/></svg>