<svg xmlns="http://www.w3.org/2000/svg" viewBox="0 0 144 144"><path d="M106.6,105.2c-3.3-2.6-6.8-5-10.3-7.4-6.9-4.8-13.2-5.2-18.4,2.6C75,104.8,71,105,66.7,103,55,97.7,46,89.6,40.8,77.7,38.5,72.5,38.5,67.8,44,64c2.9-2,5.8-4.3,5.6-8.6-.3-5.6-13.9-24.3-19.2-26.2a9.651,9.651,0,0,0-6.7,0C11.1,33.4,5.9,43.8,10.9,56c14.9,36.5,41,61.9,77.1,77.4a47.039,47.039,0,0,0,5.5,1.6c8.2.1,17.8-7.8,20.6-15.7,2.6-7.5-3.1-10.5-7.5-14.1Z" style="fill:none;stroke:#000;stroke-linejoin:round;stroke-width:6px"/><path d="M136.4,71.5c-7.9-28.9-31.7-52.7-60.6-60.7" style="fill:none;stroke:#000;stroke-linecap:round;stroke-linejoin:round;stroke-width:6px"/><path d="M68.7,44.2c17.9,1,33.3,16.3,34.3,34.3" style="fill:none;stroke:#000;stroke-linecap:round;stroke-linejoin:round;stroke-width:6px"/><path d="M120.1,75.7C115.5,52,96,32.2,72.3,27.3" style="fill:none;stroke:#000;stroke-linecap:round;stroke-linejoin:round;stroke-width:6px"/><path d="M103,78.5c-1-17.9-16.3-33.3-34.3-34.3" style="fill:none;stroke:#000;stroke-linecap:round;stroke-linejoin:round;stroke-width:6px"/><rect width="144" height="144" style="fill:none"/></svg>