<svg xmlns="http://www.w3.org/2000/svg" viewBox="0 0 144 144"><circle cx="72" cy="72" r="69" style="fill:none;stroke:#000;stroke-linecap:round;stroke-linejoin:round;stroke-width:6px"/><path d="M108.9,94.1a32.5536,32.5536,0,0,1-3.7,3.3c-3.8,3.1-25.4,19.1-30.7,22.4-5.2,3.3-7.2,2.5-7.7,1.1-.6-1.4,1.1-4.7,1.9-8.3s.2-5-3.3-5.5a2.3535,2.3535,0,0,1-.8-.2C40,103.9,21,86.1,21,64.6,21,41,43.8,21.9,72,21.9S123,41,123,64.6C123,76,117.6,86.4,108.9,94.1Z" style="fill:none;stroke:#000;stroke-linejoin:round;stroke-width:6px"/><polyline points="39 57.2 39 75 45 75" style="fill:none;stroke:#000;stroke-linecap:round;stroke-linejoin:round;stroke-width:6px"/><line x1="57" y1="57.2" x2="57" y2="75" style="fill:none;stroke:#000;stroke-linecap:round;stroke-linejoin:round;stroke-width:6px"/><polyline points="69 75 69 57.2 81 75 81 57.2" style="fill:none;stroke:#000;stroke-linecap:round;stroke-linejoin:round;stroke-width:6px"/><polyline points="104.9 57 93 57 93 75 104.9 75" style="fill:none;stroke:#000;stroke-linecap:round;stroke-linejoin:round;stroke-width:6px"/><line x1="93" y1="66" x2="104.9" y2="66" style="fill:none;stroke:#000;stroke-linecap:round;stroke-linejoin:round;stroke-width:6px"/><rect width="144" height="144" style="fill:none"/></svg>