<svg xmlns="http://www.w3.org/2000/svg" viewBox="0 0 144 144"><circle cx="72" cy="72" r="69" style="fill:none;stroke:#000;stroke-linecap:round;stroke-linejoin:round;stroke-width:6px"/><path d="M41.8,101.2C35.6,94.4,30.6,85.6,30,73.8V70.4a44.4266,44.4266,0,0,1,3.1-13.6c2.1-5.3,5.2-10.4,9-13.6a58.6368,58.6368,0,0,0,.3,6.6,26.7556,26.7556,0,0,0,6.7,13.3c2.6,2.6,6.2,4.5,9.8,6.4,7.3,3.9,14.2,7.3,21.5,11.2C85.2,83,90,86.1,91.4,91c1.9,7-2.1,13.5-5.4,16.9A20.1767,20.1767,0,0,1,74.4,114H68.8c-11.6-1.3-20.7-6-27-12.8ZM69.5,59c6.7,3.5,13.7,7.1,20.5,10.7a32.1946,32.1946,0,0,1,9.2,6.4c4.5,4.9,7.3,11.2,6.7,20.4a21.6925,21.6925,0,0,0,3-4.1,42.105,42.105,0,0,0,4.9-16.7c0-.2,0-.3.2-.3V68.8c-2.9-23.2-18.6-37-40.7-38.8H71.2c-4.3.7-8.5,2-11,4.8a16.303,16.303,0,0,0-3.3,7.7C56.1,52.1,63,55.6,69.5,59Z" style="fill:none;stroke:#000;stroke-linejoin:round;stroke-width:6px"/><rect width="144" height="144" style="fill:none"/></svg>