<svg xmlns="http://www.w3.org/2000/svg" viewBox="0 0 144 144"><path d="M72.8,3C35.2,3,16.2,30,16.2,52.5c0,13.6,5.2,25.8,16.2,30.3a2.8114,2.8114,0,0,0,4-2c.4-1.4,1.2-4.9,1.6-6.4.5-2,.3-2.7-1.1-4.4-3.2-3.8-5.2-8.6-5.2-15.5,0-20,15-38,39-38,21.3,0,33,13,33,30.4C103.7,69.8,93.6,89,78.6,89,70.2,89,64,82.2,66,73.8c2.4-10.1,7-20.9,7-28.1,0-6.5-3.5-11.9-10.7-11.9C53.8,33.8,47,42.6,47,54.3a30.333,30.333,0,0,0,2.5,12.5S40.8,103.6,39.3,110c-3,12.8-.5,28.5-.2,30.1a1.0821,1.0821,0,0,0,1.9.5c.8-1,10.9-13.5,14.3-26,1-3.5,5.6-21.8,5.6-21.8,2.8,5.3,10.8,9.9,19.4,9.9,25.5,0,42.8-23.2,42.8-54.3C123,24.9,103.1,3,72.8,3Z" style="fill:none;stroke:#000;stroke-linejoin:round;stroke-width:6px"/><rect width="144" height="144" style="fill:none"/></svg>