<svg xmlns="http://www.w3.org/2000/svg" viewBox="0 0 144 144"><circle cx="72" cy="72" r="69" style="fill:none;stroke:#000;stroke-linecap:round;stroke-linejoin:round;stroke-width:6px"/><path d="M75,58.8c-24.9-7-31.7,30.7-7.3,30.7,16.4,0,19.3-15,19.3-15V40.4c15.9,7.8,17.1,12.9,29.4,12.6,0,0,1.6-.3,1.6,2.8a7.9671,7.9671,0,0,1-2.3,5.5,21.083,21.083,0,0,1-9.9,7.2,43.8157,43.8157,0,0,1,.4,5.2c0,20.7-17.5,37.5-39.1,37.5S28,94.4,28,73.7c0-24.5,24-41.6,47-37V58.8Z" style="fill:none;stroke:#000;stroke-linejoin:round;stroke-width:6px"/><rect width="144" height="144" style="fill:none"/></svg>