<svg xmlns="http://www.w3.org/2000/svg" viewBox="0 0 144 144"><circle cx="72" cy="72" r="69" style="fill:none;stroke:#000;stroke-linecap:round;stroke-linejoin:round;stroke-width:6px"/><path d="M79.3,48.3a3.65,3.65,0,1,0,0,7.3,3.65,3.65,0,0,0,0-7.3Z" style="fill:#000"/><path d="M62.9,48.3a3.65,3.65,0,1,0,0,7.3,3.6082,3.6082,0,0,0,3.6-3.7,3.65,3.65,0,0,0-3.6-3.6Z" style="fill:#000"/><path d="M88.4,30.8A3.65,3.65,0,1,0,92,34.5a3.5482,3.5482,0,0,0-3.6-3.7Z" style="fill:#000"/><path d="M55.6,30.8a3.65,3.65,0,1,0,3.6,3.7,3.6082,3.6082,0,0,0-3.6-3.7Z" style="fill:#000"/><path d="M88.4,107.4a3.65,3.65,0,1,0,3.6,3.7,3.6082,3.6082,0,0,0-3.6-3.7Z" style="fill:#000"/><path d="M55.6,107.4a3.65,3.65,0,1,0,3.6,3.7,3.6712,3.6712,0,0,0-3.6-3.7Z" style="fill:#000"/><path d="M110.3,85.5a3.65,3.65,0,0,0,0,7.3,3.65,3.65,0,1,0,0-7.3Z" style="fill:#000"/><path d="M110.3,52.7a3.585,3.585,0,0,0-3.6,3.6,3.65,3.65,0,1,0,7.3.1,3.63,3.63,0,0,0-3.7-3.7Z" style="fill:#000"/><path d="M33.6,85.5a3.65,3.65,0,0,0,0,7.3,3.65,3.65,0,1,0,0-7.3Z" style="fill:#000"/><path d="M33.6,52.7A3.585,3.585,0,0,0,30,56.3a3.65,3.65,0,1,0,7.3,0,3.6082,3.6082,0,0,0-3.7-3.6Z" style="fill:#000"/><path d="M79.3,88.5a3.6712,3.6712,0,0,0-3.7,3.6,3.65,3.65,0,0,0,7.3,0,3.5236,3.5236,0,0,0-3.6-3.6Z" style="fill:#000"/><path d="M62.9,88.5a3.6712,3.6712,0,0,0-3.7,3.6,3.65,3.65,0,1,0,3.7-3.6Z" style="fill:#000"/><path d="M91.2,76.6a3.65,3.65,0,0,0,0,7.3,3.6712,3.6712,0,0,0,3.7-3.6,3.8263,3.8263,0,0,0-3.7-3.7Z" style="fill:#000"/><path d="M91.2,60.2a3.65,3.65,0,0,0,0,7.3,3.6712,3.6712,0,0,0,3.7-3.6,3.7561,3.7561,0,0,0-3.7-3.7Z" style="fill:#000"/><path d="M51,76.6a3.6914,3.6914,0,0,0-3.7,3.7A3.6082,3.6082,0,0,0,51,83.9a3.5236,3.5236,0,0,0,3.6-3.6A3.6712,3.6712,0,0,0,51,76.6Z" style="fill:#000"/><path d="M51,60.2a3.6914,3.6914,0,0,0-3.7,3.7A3.6082,3.6082,0,0,0,51,67.5a3.5236,3.5236,0,0,0,3.6-3.6A3.6712,3.6712,0,0,0,51,60.2Z" style="fill:#000"/><rect width="144" height="144" style="fill:none"/></svg>