<svg xmlns="http://www.w3.org/2000/svg" viewBox="0 0 144.3 144"><path d="M72.3,120.9c-19.9-24-69-26.1-69-26.1V113c44.4.2,69,27.8,69,27.8h0s24.5-27.6,69-27.8V94.7S92.2,96.9,72.3,120.9Z" style="fill:none;stroke:#000;stroke-linejoin:round;stroke-width:6px"/><path d="M15,71.8a57,57,0,0,1,114,0" style="fill:none;stroke:#000;stroke-linejoin:round;stroke-width:6px"/><path d="M36.1,87A38.5932,38.5932,0,0,1,33,71.8a39,39,0,0,1,78,0,40.2576,40.2576,0,0,1-3,15.1" style="fill:none;stroke:#000;stroke-linecap:round;stroke-linejoin:round;stroke-width:6px"/><path d="M141,68.8a12.0353,12.0353,0,0,1-12,12v-30a12.0353,12.0353,0,0,1,12,12Z" style="fill:none;stroke:#000;stroke-linejoin:round;stroke-width:6px"/><path d="M3,68.8a12.0353,12.0353,0,0,0,12,12v-30a12.0353,12.0353,0,0,0-12,12Z" style="fill:none;stroke:#000;stroke-linejoin:round;stroke-width:6px"/><line x1="132" y1="21" x2="132" y2="51.2" style="fill:none;stroke:#000;stroke-linejoin:round;stroke-width:6px"/><circle cx="132" cy="12" r="9" style="fill:none;stroke:#000;stroke-linejoin:round;stroke-width:6px"/><rect width="144" height="144" style="fill:none"/></svg>