<svg xmlns="http://www.w3.org/2000/svg" viewBox="0 0 144 144"><circle cx="72" cy="72" r="69" style="fill:none;stroke:#000;stroke-linecap:round;stroke-linejoin:round;stroke-width:6px"/><path d="M117,81.2A17.7541,17.7541,0,0,1,99.3,99H44.7a17.8207,17.8207,0,0,1-2.8-35.4,11.2443,11.2443,0,0,1,11-13.2,10.6836,10.6836,0,0,1,7.2,2.7c3.5-7.9,8-15.1,20.5-15.1,15.2,0,22.3,11.8,22.3,24.2a7.5687,7.5687,0,0,1-.1,1.5A17.9088,17.9088,0,0,1,117,81.2" style="fill:none;stroke:#000;stroke-linejoin:round;stroke-width:6px"/><rect width="144" height="144" style="fill:none"/></svg>