<svg xmlns="http://www.w3.org/2000/svg" viewBox="0 0 144 144"><path d="M69.7,108.2C79,108.2,67,141,91,141c13.2,0,34.4-15.1,20.9-39.2C107.6,94.1,135,86.6,135,75.5c-6.5,2.8-24.9,11-48.7,10.9-13.8,0-16.6,6.5-16.6,6.5s-2.8-6.5-16.6-6.5c-23.9,0-43.4-8.3-49.9-11.1,0,11.1,28.6,18.8,24.3,26.5C14,125.9,35.1,141,48.4,141,72.4,141,60.4,108.2,69.7,108.2Z" style="fill:none;stroke:#000;stroke-linejoin:round;stroke-width:6px"/><path d="M123.4,80V15.5a12.0353,12.0353,0,0,0-12-12h-84a12.0353,12.0353,0,0,0-12,12V80" style="fill:none;stroke:#000;stroke-linejoin:round;stroke-width:6px"/><circle cx="90.4" cy="57.5" r="18" style="fill:none;stroke:#000;stroke-linejoin:round;stroke-width:6px"/><circle cx="48.4" cy="57.5" r="18" style="fill:none;stroke:#000;stroke-linejoin:round;stroke-width:6px"/><rect width="144" height="144" style="fill:none"/></svg>