<svg xmlns="http://www.w3.org/2000/svg" viewBox="0 0 144.6586 144"><path d="M22.7,46S13.9,40.3,6.3,28.4C1.3,22.3,9.4,12.1,18,18.3S34.2,34,29.9,38c-4.4,4-7.8-3.4-7.1-12.6.8-9.2,4.4-17,9.9-16.3,5.5.8,8.8,6.3,4.4,32.9,0,.2,50.1,5,49.5,50.3,0,8.2-12.6,13.8-14.8,13.8,1.8,1.9,9.2,15.7-5.9,23.5s-35.6,12-38.6,2.5c-3.1-9.6,17-20.6,28.7-17.6-3.8-5.3-9.9-18.9,1.1-29.8C68.2,73.8,88.8,89.3,97.8,95s9.6,6.5,19.5,2.7,12.4-4.2,16.6-5.7,10.3.8,1.9,8.8S103.3,123.6,63.1,126c-17.6.6-28.3-14-29.4-24.3s1.5-19.3,5.9-22.4,10.7,5.5,2.9,6.9a42.5825,42.5825,0,0,1-18-.8c0,3.8-1.5,12.1-8.2,7.5s1.5-10.3,4.4-12.2S39.3,70.2,32.4,56.2C29.9,62,22.3,73.8,13.5,76.9,2.9,80.6-1.3,67.7,6,59.9A103.1882,103.1882,0,0,1,22.7,46Z" transform="translate(0.6586)" style="fill:none;stroke:#000;stroke-linejoin:round;stroke-width:6px"/><rect x="0.6586" width="144" height="144" style="fill:none"/></svg>