<svg xmlns="http://www.w3.org/2000/svg" viewBox="0 0 144 144"><circle cx="72" cy="72" r="69" style="fill:none;stroke:#000;stroke-linecap:round;stroke-linejoin:round;stroke-width:6px"/><path d="M55.3,82.1c-5.2,10-9.1,13.4-19.9,15.9,2,4.8,2.8,6.6,5.8,12.9A51.7681,51.7681,0,0,0,68.4,92.6c9,2.3,15.5,8,20.9,18.4,5.6-4.7,6.2-5.2,11-9.1-3.7-9-12.9-16.8-21.6-21,.1-2.1.1-2.7.2-4.3,12.8,3.4,23.6-7.4,23.6-7.4s-2.7-5.1-6.2-10.5C84.6,69.5,79,57.5,65.9,53.2,58.1,58,54.9,69.9,55.3,82.1Z" style="fill:none;stroke:#000;stroke-linejoin:round;stroke-width:6px"/><path d="M92.4,38.9a12.05,12.05,0,1,0-12.1,12A12.101,12.101,0,0,0,92.4,38.9Z" style="fill:none;stroke:#000;stroke-linejoin:round;stroke-width:6px"/><rect width="144" height="144" style="fill:none"/></svg>