<svg xmlns="http://www.w3.org/2000/svg" viewBox="0 0 144 144"><circle cx="72" cy="72" r="69" style="fill:none;stroke:#000;stroke-linecap:round;stroke-linejoin:round;stroke-width:6px"/><path d="M72.3,114a41.95,41.95,0,1,1,35.1-18.9h0l6.1,14.8-14.7-5.3A41.978,41.978,0,0,1,72.3,114ZM49,61.1A4.027,4.027,0,0,0,46.3,66L52,90.4a3.978,3.978,0,0,0,4.6,3.2l39.3-9.2a4.027,4.027,0,0,0,2.7-4.9L92.9,55.1a3.9033,3.9033,0,0,0-4.6-3.2l-8.5,2A14.1024,14.1024,0,0,0,71,51a14.7179,14.7179,0,0,0-13.2,8.1l-8.8,2ZM73.1,79.8a7.5,7.5,0,1,1,7.5-7.5,7.4271,7.4271,0,0,1-7.5,7.5Z" style="fill:none;stroke:#000;stroke-linejoin:round;stroke-width:6px"/><rect width="144" height="144" style="fill:none"/></svg>