<svg xmlns="http://www.w3.org/2000/svg" viewBox="0 0 144 144.6"><path d="M137.5,56.6c-2.5-2-15.4.1-18.9-3-2.5-2.3-2.8-6.3-3.6-11.8-1.4-10.7-2.3-11.3-3.9-14.9C105,14,88.6,4.3,77.3,3H46.7A43.8949,43.8949,0,0,0,3,46.8V97.9a43.8738,43.8738,0,0,0,43.7,43.7H97a43.8738,43.8738,0,0,0,43.7-43.7l.3-35.4C140.1,58.2,139.7,58.3,137.5,56.6Z" style="fill:none;stroke:#000;stroke-linejoin:round;stroke-width:6px"/><path d="M39,48a8.9626,8.9626,0,0,0,9,9H72a9,9,0,0,0,0-18H48A8.9626,8.9626,0,0,0,39,48Z" style="fill:none;stroke:#000;stroke-linejoin:round;stroke-width:6px"/><path d="M39,96a8.9626,8.9626,0,0,0,9,9H96a9,9,0,0,0,0-18H48A8.9626,8.9626,0,0,0,39,96Z" style="fill:none;stroke:#000;stroke-linejoin:round;stroke-width:6px"/><rect width="144" height="144" style="fill:none"/></svg>