<svg xmlns="http://www.w3.org/2000/svg" viewBox="0 0 144.1 144"><path d="M75.1,49.6a31.5749,31.5749,0,0,0-27.3,4.7c-16,11.5-13,23.5-13,23.5s.7,19,23.3,19c25.2,0,29-22.9,29-22.9V21.4c24.3,12,32.6,19.8,51.6,19.3,0,0,2.4-.5,2.4,4.3a12.303,12.303,0,0,1-3.6,8.5,31.799,31.799,0,0,1-15.2,11,52.868,52.868,0,0,1,.6,8c0,31.8-26.8,57.5-59.9,57.5S3.1,104.3,3.1,72.5,29.9,15,63,15c4.2,0,8.1-.1,12.1.7V49.6Z" style="fill:none;stroke:#000;stroke-linejoin:round;stroke-width:6px"/><rect width="144" height="144" style="fill:none"/></svg>