<svg xmlns="http://www.w3.org/2000/svg" viewBox="0 0 144 144"><path d="M135.2,86.7a63.6624,63.6624,0,0,0,1.5-13.9A64.9555,64.9555,0,0,0,71.8,7.9a67.4152,67.4152,0,0,0-11.1.9A37.222,37.222,0,0,0,40.6,3,37.5381,37.5381,0,0,0,8.2,59.6a62.3219,62.3219,0,0,0-1.3,13,64.9555,64.9555,0,0,0,64.9,64.9,66.6715,66.6715,0,0,0,11.9-1.1,38.2034,38.2034,0,0,0,17.8,4.5,37.5388,37.5388,0,0,0,33.7-54.2Zm-30.2,17a29.7575,29.7575,0,0,1-13.2,10c-5.7,2.4-12.5,3.6-20.3,3.6-9.3,0-17.1-1.6-23.2-4.9a29.6832,29.6832,0,0,1-10.7-9.5q-4.2-6-4.2-11.7a8.05,8.05,0,0,1,2.7-6.1,9.53,9.53,0,0,1,6.8-2.5,8.607,8.607,0,0,1,5.7,2,14.1568,14.1568,0,0,1,3.8,5.6,36.0956,36.0956,0,0,0,3.7,6.6,14.5184,14.5184,0,0,0,5.4,4.2,22.5715,22.5715,0,0,0,9.4,1.7c5.4,0,9.8-1.1,13.1-3.4q4.8-3.3,4.8-8.1a7.64,7.64,0,0,0-2.5-6.1,17.6661,17.6661,0,0,0-6.9-3.8c-3-.9-7-1.9-11.9-3a86.653,86.653,0,0,1-17-5.1A27.938,27.938,0,0,1,39.3,65a20.2782,20.2782,0,0,1-4.2-13,21.1193,21.1193,0,0,1,4.4-13.1q4.35-5.7,12.6-8.7a54.91,54.91,0,0,1,19-3,51.6311,51.6311,0,0,1,15.1,2,30.7282,30.7282,0,0,1,10.7,5.4,21.6852,21.6852,0,0,1,6.3,7.1,14.9971,14.9971,0,0,1,2,7.4,8.9709,8.9709,0,0,1-2.7,6.3,9.1289,9.1289,0,0,1-6.7,2.8,8.5089,8.5089,0,0,1-5.6-1.7,22.4286,22.4286,0,0,1-3.9-5.2,21.36,21.36,0,0,0-5.8-7.2c-2.2-1.7-5.8-2.5-10.8-2.5-4.6,0-8.4.9-11.2,2.8-2.7,1.8-4,3.8-4,6.2a5.6633,5.6633,0,0,0,1.3,3.8,11.0441,11.0441,0,0,0,3.9,2.9,27.7736,27.7736,0,0,0,5.2,2c1.8.5,4.8,1.2,9,2.2a127.2727,127.2727,0,0,1,14.3,3.8,45.7748,45.7748,0,0,1,11.1,5.1,21.4977,21.4977,0,0,1,7.3,7.7,22.6127,22.6127,0,0,1,2.6,11.4A20.9152,20.9152,0,0,1,105,103.7Z" style="fill:none;stroke:#000;stroke-linejoin:round;stroke-width:6px"/><rect width="144" height="144" style="fill:none"/></svg>