<svg xmlns="http://www.w3.org/2000/svg" viewBox="0 0 144 144"><path d="M81,39.3A46.4984,46.4984,0,1,0,49.5,120C81,120,93,97.5,93,73.5c0-1.5-.1-3-.2-4.5H51V81H79.9c0,13.3-11.1,27-30.4,27a34.5,34.5,0,0,1,0-69,33.9713,33.9713,0,0,1,22.6,8.5Z" style="fill:none;stroke:#000;stroke-linecap:round;stroke-linejoin:round;stroke-width:6px"/><polygon points="141 69 129 69 129 57 117 57 117 69 105 69 105 81 117 81 117 93 129 93 129 81 141 81 141 69" style="fill:none;stroke:#000;stroke-linecap:round;stroke-linejoin:round;stroke-width:6px"/><rect width="144" height="144" style="fill:none"/></svg>