<svg xmlns="http://www.w3.org/2000/svg" viewBox="0 0 144 144"><circle cx="72" cy="72" r="69" style="fill:none;stroke:#000;stroke-linecap:round;stroke-linejoin:round;stroke-width:6px"/><path d="M89.9,77.6c-.1-9.3,7.6-13.8,7.9-14-4.3-6.3-11.4-6.4-13.8-6.5-5.7-.6-11.5,4.8-14.4,4.8s-7.1-4.7-11.8-4.6c-6.3.1-11.7,2.8-14.9,8.4-6.5,11.3-1.7,28,4.7,37.1,3.1,4.5,6.4,8.6,11.2,8.5,4.7-.2,6.4-3,12.1-3s7.2,3,12.2,2.9,8.6-3.7,11.7-8.2a38.7774,38.7774,0,0,0,5.1-10.5C99.7,92.4,90,88.7,89.9,77.6Z" style="fill:none;stroke:#000;stroke-linejoin:round;stroke-width:6px"/><path d="M81.2,43.8a17.7466,17.7466,0,0,0,4.1-12.4,17.91,17.91,0,0,0-11.5,5.9c-2.5,2.9-4.7,7.6-4.1,12C74.1,49.7,78.5,47.1,81.2,43.8Z" style="fill:none;stroke:#000;stroke-linejoin:round;stroke-width:6px"/><rect width="144" height="144" style="fill:none"/></svg>