<svg xmlns="http://www.w3.org/2000/svg" viewBox="0 0 144.0532 144"><path d="M14.2,113.7c12.3,9.6,28.7,13.4,44.3,14.7a160.4153,160.4153,0,0,0,29.4-.2c33.3-3.5,52.5-20.4,53.1-28.1a22.4617,22.4617,0,0,0-.6-6.3C128.6,35.6,94.9,14,73.5,14H69.3C35.9,14,3,65.7,3,99,3,104,10.3,110.7,14.2,113.7Z" style="fill:none;stroke:#000;stroke-linejoin:round;stroke-width:6px"/><path d="M14.3,113.6c-2.5-3.5-1.7-4-1.4-5.5,2.1-8.8,15.6-33,24.5-35.9,9-2.9,13.3,13.8,22.3,13.2C67.5,84.9,83,57.6,89,55.6a4.1256,4.1256,0,0,1,2.9.2c6,2.7,21.7,17.5,36.6,44.4,2.2,4,4.1,8.1,2.7,12.1" style="fill:none;stroke:#000;stroke-linejoin:round;stroke-width:6px"/><rect width="144" height="144" style="fill:none"/></svg>