<svg xmlns="http://www.w3.org/2000/svg" viewBox="0 0 144.1 144"><path d="M72,3A69.02,69.02,0,0,0,50.2,137.5c3.4.6,4.5-1.4,4.5-3.2v-12c-19.2,4.2-23.2-9.1-23.2-9.1-3.1-8-7.7-10.1-7.7-10.1-6.3-4.3.5-4.2.5-4.2,6.9.5,10.6,7.1,10.6,7.1,6.2,10.5,16.1,7.5,20.1,5.7.6-4.5,2.4-7.5,4.4-9.2C44.1,100.8,28,94.8,28,68.4a26.71,26.71,0,0,1,7.1-18.5c-.7-1.7-3.1-8.8.7-18.3,0,0,5.8-1.9,19,7.1a66.213,66.213,0,0,1,34.6,0c13.2-8.9,19-7.1,19-7.1,3.8,9.5,1.4,16.5.7,18.3a26.71,26.71,0,0,1,7.1,18.5c0,26.5-16.1,32.3-31.5,34,2.5,2.1,4.7,6.3,4.7,12.7v19.1c0,1.8,1.1,3.9,4.6,3.2A68.9813,68.9813,0,0,0,72,3Z" style="fill:none;stroke:#000;stroke-linejoin:round;stroke-width:6px"/><rect width="144" height="144" style="fill:none"/></svg>