<svg xmlns="http://www.w3.org/2000/svg" viewBox="0 0 144 144"><path d="M96.3,69.1a52.719,52.719,0,0,1-23.1,5.1c-18.3,0-33.7-8.4-38.5-20" transform="translate(0)" style="fill:none;stroke:#000;stroke-linecap:round;stroke-linejoin:round;stroke-width:6px"/><path d="M43.4,28.2c7.3-5.6,17.9-9.1,29.7-9.1,22.1,0,40,12.3,40,27.5v1.3" transform="translate(0)" style="fill:none;stroke:#000;stroke-linecap:round;stroke-linejoin:round;stroke-width:6px"/><path d="M53.4,12.2C59.4,6.6,68.9,3,79.7,3c10.5,0,19.8,3.4,25.8,8.7" transform="translate(0)" style="fill:none;stroke:#000;stroke-linecap:round;stroke-linejoin:round;stroke-width:6px"/><path d="M22.3,69c0,15.6,19.1,28.3,42.6,28.3S107.5,84.6,107.5,69c0-20.8-30.3-29.9-50.5-29.9-29.8,0-54,20-54,42.2,0,30.2,38.6,52.8,73.3,38.7l30.9,10.6L95.6,109.5a39.1047,39.1047,0,0,0,12-13.5" transform="translate(0)" style="fill:none;stroke:#000;stroke-linecap:round;stroke-linejoin:round;stroke-width:6px"/><rect width="144" height="144" style="fill:none"/></svg>