<svg xmlns="http://www.w3.org/2000/svg" viewBox="0 0 144 144"><circle cx="72" cy="72" r="69" style="fill:none;stroke:#000;stroke-linecap:round;stroke-linejoin:round;stroke-width:6px"/><path d="M61.7,74a.71.71,0,0,0-.2-1.1c-1.7-1.4-3.5-3.7-5.8-5.8a8.7307,8.7307,0,0,0-5.4-2.4,8.4319,8.4319,0,0,0-8.8,5.4,10.1227,10.1227,0,0,0,2.3,10.3,7.8415,7.8415,0,0,0,7.8,1.9Z" style="fill:none;stroke:#000;stroke-linejoin:round;stroke-width:6px"/><path d="M70.6,81.3c6.4,9,15,13.7,24.2,12.9,11.9-1.7,20.9-8.6,22.1-21.6.6-6.8-1.4-18.9-18.6-18.9-10.5,0-19.2,6.3-24.9,12.5-6.4-9-15.1-13.7-24.2-12.8-12,1.7-21,8.6-22.1,21.5-.6,6.9,1.4,18.9,18.6,18.9,10.5,0,19.2-6.3,24.9-12.5Z" style="fill:none;stroke:#000;stroke-linejoin:round;stroke-width:6px"/><path d="M81.8,73.7c.3.5,10.6,8.4,10.9,8.4a7.6294,7.6294,0,0,0,7-2.1A10.5047,10.5047,0,0,0,102,69.7a8.4319,8.4319,0,0,0-8.8-5.4,9.6138,9.6138,0,0,0-5.4,2.4c-2.3,2.1-4.1,4.5-5.8,5.8-.3.5-.5.7-.2,1.2Z" style="fill:none;stroke:#000;stroke-linejoin:round;stroke-width:6px"/><rect width="144" height="144" style="fill:none"/></svg>