<svg xmlns="http://www.w3.org/2000/svg" viewBox="0 0 144 144"><circle cx="72" cy="72" r="69" style="fill:none;stroke:#000;stroke-linecap:round;stroke-linejoin:round;stroke-width:6px"/><path d="M116.9,97.4s-31.9,1.4-44.8,17c-12.9-15.6-44.8-17-44.8-17" style="fill:none;stroke:#000;stroke-linecap:round;stroke-linejoin:round;stroke-width:6px"/><path d="M51.2,85a22.9284,22.9284,0,0,1-1.8-8.7,22.4,22.4,0,0,1,44.8,0A22.8644,22.8644,0,0,1,92.5,85" style="fill:none;stroke:#000;stroke-linecap:round;stroke-linejoin:round;stroke-width:6px"/><path d="M37.3,63c-14.7,0-12.2,18.8-2.4,18.8V76a37,37,0,0,1,74,0v5.8c10.6,0,10.6-19.5,0-19.5h-2.6" style="fill:none;stroke:#000;stroke-linejoin:round;stroke-width:6px"/><line x1="110.9" y1="40.4" x2="110.9" y2="62.4" style="fill:none;stroke:#000;stroke-linejoin:round;stroke-width:6px"/><circle cx="110.9" cy="37.2" r="3.2" style="fill:none;stroke:#000;stroke-linejoin:round;stroke-width:6px"/><rect width="144" height="144" style="fill:none"/></svg>