<svg xmlns="http://www.w3.org/2000/svg" viewBox="0 0 144 144"><circle cx="72" cy="72" r="69" style="fill:none;stroke:#000;stroke-linecap:round;stroke-linejoin:round;stroke-width:6px"/><path d="M75,21.3A44.8763,44.8763,0,0,0,30,66a44.2043,44.2043,0,0,0,8.6,26.2L33,108.8l17.3-5.5A45.06,45.06,0,0,0,120.1,66c0-24.7-20.3-44.7-45.1-44.7m27,56.9a6.3367,6.3367,0,0,0-2.5-1.5c-1.3-.6-7.8-3.8-9-4.2s-2.1-.7-3,.6-3.4,4.2-4.2,5.1-1.5,1-2.8.3a35.9855,35.9855,0,0,1-10.6-6.4,39.2739,39.2739,0,0,1-7.3-9c-.8-1.3-.1-2,.6-2.7a13.63,13.63,0,0,0,3.3-4.5,2.6211,2.6211,0,0,0-.1-2.3c-.3-.6-3-7.1-4.1-9.7-1.2-3-6.7-3.1-9-.7-7,7.6-5.4,16.2.8,24.3.7.9,9.1,14.4,22.4,19.7C90,92.6,90,90.8,92.4,90.6c6.9-.6,11.6-9.1,9.6-12.4" style="fill:none;stroke:#000;stroke-linejoin:round;stroke-width:6px"/><rect width="144" height="144" style="fill:none"/></svg>