<svg xmlns="http://www.w3.org/2000/svg" viewBox="0 0 144.3367 144"><path d="M79.8,68.4c3.8,6.7,10.7,7.1,18.2,4.5a1.2536,1.2536,0,0,1,1.8.9c.5,4.1.2,8.6.3,10.5,0,1.2,1.5,1.5,2.6,1.8a16.3629,16.3629,0,0,0,14.7-4.4A21.8248,21.8248,0,0,0,122.2,60c-2.4-7.1-10.3-12.1-18.5-11.2a18.8512,18.8512,0,0,0-11.2,5.1c-4.8,4.5-8.6,9.4-12.2,12.2-.9.7-1.1,1.3-.5,2.3ZM98,61.7a3,3,0,1,1,6,0,3,3,0,0,1-6,0ZM38.8,78.8c8.6-.2,19.6-2,23.9-9.7.6-1,.3-1.6-.5-2.3-3.6-2.9-7.3-7.7-12.2-12.2a18.8512,18.8512,0,0,0-11.2-5.1c-8.2-.8-16.1,4.3-18.5,11.3a21.7264,21.7264,0,0,0,4.8,21.7,16.2349,16.2349,0,0,0,16.4,3.9c1-.3,1.7-.7.6-1.7-.9-.9-3.5-2.8-4-4.3-.2-.9-.3-1.6.7-1.6Zm2.7-13.4a3.0085,3.0085,0,0,1-3-3,3,3,0,0,1,6,0,3.0085,3.0085,0,0,1-3,3Z" transform="translate(0.3367)" style="fill:none;stroke:#000;stroke-linejoin:round;stroke-width:6px"/><path d="M69.5,79.9c9.8,13.8,23,21,37.2,19.8,18.2-2.6,32.1-13.2,33.8-33.1.9-10.5-2.1-28.9-28.6-28.9-16.1,0-29.4,9.6-38.2,19.2C63.9,43.1,50.6,36,36.6,37.2,18.3,39.8,4.4,50.4,2.8,70.2c-.9,10.5,2,28.9,28.4,28.9,16.3,0,29.5-9.7,38.3-19.2Z" transform="translate(0.3367)" style="fill:none;stroke:#000;stroke-linejoin:round;stroke-width:6px"/><rect x="0.3367" width="144" height="144" style="fill:none"/></svg>