<svg xmlns="http://www.w3.org/2000/svg" viewBox="0 0 144 144"><circle cx="72" cy="72" r="69" style="fill:none;stroke:#000;stroke-linecap:round;stroke-linejoin:round;stroke-width:6px"/><path d="M53.5,38A10.65,10.65,0,1,1,42.9,48.7,10.6484,10.6484,0,0,1,53.5,38ZM67.8,68.7c17.4-2.1,37.7.4,51.1,7.6,1.9,1.1.9,2.4-1.4,1.7a98.1542,98.1542,0,0,0-27.8-4.4c-24-.8-36.7,7.2-47.3,18.2-6.4,6.6-15,1.1-11.9-5.6,3.8-8.5,23-15.8,37.3-17.5Z" style="fill:none;stroke:#000;stroke-linejoin:round;stroke-width:6px"/><rect width="144" height="144" style="fill:none"/></svg>