<svg xmlns="http://www.w3.org/2000/svg" viewBox="0 0 144.0725 144"><path d="M54.4,73.6C48,77.1,34.8,49.3,32.1,42.5a5.9906,5.9906,0,0,0-1.7-2.3,8.1281,8.1281,0,0,0-3.2-1.3L7.5,39s-3,.1-4.1,1.4c-1,1.1-.1,3.5-.1,3.5S18.8,78.8,36.3,97c16,16.7,34.2,14.4,34.2,14.4.9,0,11.4.2,12-.4,3.3-3.5-.9-13.2,6.1-15.4,5.1-1.6,11.6,10.9,18.5,15.6,5.2,3.6,9.2,2.9,9.2,2.9l18.4-.2s9.6-.6,5.1-8.2c-.4-.6-2.7-5.6-13.7-15.8-11.6-10.7-10-9,3.9-27.5,8.5-11.3,11.9-18.2,10.8-21.1-1-2.8-7.2-2.1-7.2-2.1l-20.7.1a4.781,4.781,0,0,0-2.7.5,5.99,5.99,0,0,0-1.8,2.2c-2.9,7.6-16.5,35.4-22.1,31.7-7.6-5,3.6-34.7-7.3-37.3a38.4254,38.4254,0,0,0-9.7-1c-7.4-.1-13.7,0-17.2,1.8-2.4,1.2-4.2,3.7-3.1,3.9,1.4.2,4.5.8,6.1,3.1C58.1,48,58.6,71.3,54.4,73.6Z" transform="translate(0.0719)" style="fill:none;stroke:#000;stroke-linejoin:round;stroke-width:6px"/><rect x="0.0719" width="144" height="144" style="fill:none"/></svg>