<svg xmlns="http://www.w3.org/2000/svg" viewBox="0 0 144 144"><circle cx="72" cy="72" r="69" style="fill:none;stroke:#000;stroke-linecap:round;stroke-linejoin:round;stroke-width:6px"/><path d="M97.3,81c10.8,0,19.7-7.9,19.7-18.6A19.3553,19.3553,0,0,0,97.5,43.1c-9.8,0-18.8,7.2-20.1,16.5,0,0-3.2-16.5-19.1-16.5A19.4192,19.4192,0,0,0,38.8,62.4c0,10.3,6.5,18.6,18,18.6l.2,7.9-24-6v25.7l24-6.7v9H91.5l-9.8-30H97.3V81Zm-39-13.1a5.484,5.484,0,0,1-5.5-5.5,5.5488,5.5488,0,0,1,5.5-5.5,5.5,5.5,0,1,1,0,11Zm34.1-5.5a5.5488,5.5488,0,0,1,5.5-5.5,5.484,5.484,0,0,1,5.5,5.5,5.5488,5.5488,0,0,1-5.5,5.5A5.484,5.484,0,0,1,92.4,62.4Z" style="fill:none;stroke:#000;stroke-linejoin:round;stroke-width:6px"/><rect width="144" height="144" style="fill:none"/></svg>