<svg xmlns="http://www.w3.org/2000/svg" viewBox="0 0 144 144"><circle cx="72" cy="72" r="69" style="fill:none;stroke:#000;stroke-linecap:round;stroke-linejoin:round;stroke-width:6px"/><path d="M83.3,111.3c-6.5,0-15.2-5.4-15.2-5.3l7.4-25.7a25.3923,25.3923,0,0,0,16.1,5.2,40.2793,40.2793,0,0,0,14-2.7l-7.1,25c-6.1,2.5-11.1,3.5-15.2,3.5" style="fill:#000;stroke:#000;stroke-linejoin:round;stroke-width:6px"/><path d="M58.7,103.2C54.6,100.4,50.3,98,44,98a37.1716,37.1716,0,0,0-14,3.2l7.4-25.8A42.6161,42.6161,0,0,1,52.2,72c5.9,0,10.6,2.6,14.3,4.9C65.5,80.3,60.3,98,58.7,103.2Z" style="fill:#000;stroke:#000;stroke-linejoin:round;stroke-width:6px"/><path d="M75.4,37.6h0c-1.5,5.2-6.1,20.7-7.6,25.9-4-2.6-8.2-5-14.3-5.1-4.9,0-9.8,1.5-14.4,3.4L46.5,36a36.3007,36.3007,0,0,1,13.8-3.2C65.1,32.8,68.9,33.7,75.4,37.6Z" style="fill:#000;stroke:#000;stroke-linejoin:round;stroke-width:6px"/><path d="M93.3,72a28.1667,28.1667,0,0,1-16-5,.0979.0979,0,0,1-.1-.1l7.5-26a25.2575,25.2575,0,0,0,15.9,5.3A35.95,35.95,0,0,0,115,42.9l-7.4,25.5h0A31.7439,31.7439,0,0,1,93.3,72" style="fill:#000;stroke:#000;stroke-linejoin:round;stroke-width:6px"/><rect width="144" height="144" style="fill:none"/></svg>