<svg xmlns="http://www.w3.org/2000/svg" viewBox="0 0 144 144"><circle cx="72" cy="72" r="69" style="fill:none;stroke:#000;stroke-linecap:round;stroke-linejoin:round;stroke-width:6px"/><path d="M95.3,93.5c-2.3-1.9-4.8-3.6-7.2-5.3-4.9-3.4-9.3-3.7-13,1.8-2,3.1-4.9,3.2-7.9,1.9C59,88.2,52.6,82.4,48.9,74c-1.6-3.7-1.6-7,2.2-9.6,2-1.4,4.1-3,3.9-6.1-.2-3.9-9.8-17.2-13.6-18.5a6.9,6.9,0,0,0-4.7,0c-8.9,3-12.6,10.3-9,18.9,10.5,25.8,29,43.8,54.5,54.7a24.2888,24.2888,0,0,0,3.9,1.1c5.8.1,12.6-5.5,14.6-11.1,1.7-5.3-2.3-7.4-5.4-9.9Z" style="fill:none;stroke:#000;stroke-linejoin:round;stroke-width:6px"/><path d="M116.3,69.7A62.1776,62.1776,0,0,0,73.4,26.8" style="fill:none;stroke:#000;stroke-linecap:round;stroke-linejoin:round;stroke-width:6px"/><path d="M68.5,50.3c12.7.7,23.6,11.6,24.3,24.3" style="fill:none;stroke:#000;stroke-linecap:round;stroke-linejoin:round;stroke-width:6px"/><path d="M104.8,72.6A44.2021,44.2021,0,0,0,71,38.3" style="fill:none;stroke:#000;stroke-linecap:round;stroke-linejoin:round;stroke-width:6px"/><path d="M92.8,74.6C92.1,61.9,81.2,51,68.5,50.3" style="fill:none;stroke:#000;stroke-linecap:round;stroke-linejoin:round;stroke-width:6px"/><rect width="144" height="144" style="fill:none"/></svg>