<svg xmlns="http://www.w3.org/2000/svg" viewBox="0 0 144.1 144"><path d="M117.1,3H27A23.9211,23.9211,0,0,0,3.1,27v90.1A23.9,23.9,0,0,0,27,141h90.1a23.9851,23.9851,0,0,0,24-23.9V27A24.0062,24.0062,0,0,0,117.1,3Zm-7.4,91.5c-1,1-2.2,2.1-3.7,3.4-3.9,3.1-25.9,19.4-31.3,22.8s-7.3,2.5-7.9,1.1,1.1-4.8,2-8.4c.9-3.7.3-5.1-3.4-5.6a2.3535,2.3535,0,0,1-.8-.2c-25.2-3-44.5-21.1-44.5-43.1,0-24,23.3-43.5,52-43.5s52,19.5,52,43.5C124,76.1,118.6,86.7,109.7,94.5Z" style="fill:none;stroke:#000;stroke-linejoin:round;stroke-width:6px"/><polyline points="39.1 57.2 39.1 75 45.1 75" style="fill:none;stroke:#000;stroke-linecap:round;stroke-linejoin:round;stroke-width:6px"/><line x1="57.1" y1="57.2" x2="57.1" y2="75" style="fill:none;stroke:#000;stroke-linecap:round;stroke-linejoin:round;stroke-width:6px"/><polyline points="69.1 75 69.1 57.2 81.1 75 81.1 57.2" style="fill:none;stroke:#000;stroke-linecap:round;stroke-linejoin:round;stroke-width:6px"/><polyline points="104.9 57 93.1 57 93.1 75 104.9 75" style="fill:none;stroke:#000;stroke-linecap:round;stroke-linejoin:round;stroke-width:6px"/><line x1="93.1" y1="66" x2="104.9" y2="66" style="fill:none;stroke:#000;stroke-linecap:round;stroke-linejoin:round;stroke-width:6px"/><rect width="144" height="144" style="fill:none"/></svg>