<svg xmlns="http://www.w3.org/2000/svg" viewBox="0 0 144.1309 144"><path d="M6.7,80.8S3.4,55.3,4.3,55.3,17.6,79.2,18.9,79.2,22.3,52.8,25,53c1.5-.2,7.6,29.3,7.6,29.3" style="fill:none;stroke:#000;stroke-linejoin:round;stroke-width:6px"/><path d="M42.2,72.2s8.7,2.1,9.2,1.3c.4-.8,2.5-10.7,0-11.8-6.9-3.1-17.6,18-5.8,21.7,6.1,1.9,9.7-3.2,9.7-3.2" style="fill:none;stroke:#000;stroke-linejoin:round;stroke-width:6px"/><path d="M62.5,72.2s8.7,2.1,9.1,1.3,2.5-10.7,0-11.8c-6.9-3.1-17.6,18-5.8,21.7,6.1,1.9,9.7-3.2,9.7-3.2" style="fill:none;stroke:#000;stroke-linejoin:round;stroke-width:6px"/><path d="M87,43.6c-.8,3.5,0,17,0,22.4s1.4,20.4,1.4,20.4" style="fill:none;stroke:#000;stroke-linejoin:round;stroke-width:6px"/><path d="M78.7,68.8c3.8.7,14.5.7,18.3-.7" style="fill:none;stroke:#000;stroke-linejoin:round;stroke-width:6px"/><path d="M102.7,65.5s-2.1,11.6,3.1,16.7c3.8-.8,9.1-3.7,10.4-16.7" style="fill:none;stroke:#000;stroke-linejoin:round;stroke-width:6px"/><path d="M123.5,82.2c43.5-8.7-8.5-58.5,1.9,17.9" style="fill:none;stroke:#000;stroke-linejoin:round;stroke-width:6px"/><rect width="144" height="144" style="fill:none"/></svg>