<svg xmlns="http://www.w3.org/2000/svg" viewBox="0 0 144 144"><path d="M108.4,81a44.9627,44.9627,0,0,0-84.8,0L12.9,119.3a17.6812,17.6812,0,0,0-.8,5.2A16.5163,16.5163,0,0,0,28.6,141h75a16.5163,16.5163,0,0,0,16.5-16.5,17.6812,17.6812,0,0,0-.8-5.2Z" style="fill:none;stroke:#000;stroke-linecap:round;stroke-linejoin:round;stroke-width:6px"/><path d="M78,52.6c.5-8.9,3.6-20.4,8.3-27.3" style="fill:none;stroke:#000;stroke-linecap:round;stroke-linejoin:round;stroke-width:6px"/><path d="M46.1,25.5c4.7,6.9,7.3,18.2,7.8,27.1" style="fill:none;stroke:#000;stroke-linecap:round;stroke-linejoin:round;stroke-width:6px"/><path d="M33,9c0,8.6,9.4,18,21,18H78c11.6,0,21-9.4,21-18Z" style="fill:none;stroke:#000;stroke-linecap:round;stroke-linejoin:round;stroke-width:6px"/><line x1="51.6" y1="39" x2="80.4" y2="39" style="fill:none;stroke:#000;stroke-linejoin:round;stroke-width:6px"/><polygon points="66 66 78 78 78 114 66 126 54 114 54 78 66 66" style="fill:none;stroke:#000;stroke-linecap:round;stroke-linejoin:round;stroke-width:6px"/><line x1="54" y1="78" x2="66" y2="84" style="fill:none;stroke:#000;stroke-linecap:round;stroke-linejoin:round;stroke-width:6px"/><line x1="78" y1="78" x2="66" y2="84" style="fill:none;stroke:#000;stroke-linecap:round;stroke-linejoin:round;stroke-width:6px"/><line x1="66" y1="84" x2="66" y2="105" style="fill:none;stroke:#000;stroke-linecap:round;stroke-linejoin:round;stroke-width:6px"/><line x1="66" y1="105" x2="54" y2="111" style="fill:none;stroke:#000;stroke-linecap:round;stroke-linejoin:round;stroke-width:6px"/><line x1="66" y1="105" x2="78" y2="111" style="fill:none;stroke:#000;stroke-linecap:round;stroke-linejoin:round;stroke-width:6px"/><rect width="144" height="144" style="fill:none"/></svg>