<svg xmlns="http://www.w3.org/2000/svg" viewBox="0 0 144 144"><path d="M38.8,129.1s22.8-16.6,22.8-28.9c0-14.2-18.7-18.7-22.8-1.4C34.7,81.5,16,86,16,100.2,16,112.5,38.8,129.1,38.8,129.1Z" style="fill:none;stroke:#000;stroke-linejoin:round;stroke-width:6px"/><line x1="55.2" y1="88.8" x2="126.2" y2="17.8" style="fill:none;stroke:#000;stroke-linecap:round;stroke-linejoin:round;stroke-width:6px"/><path d="M71.5,89.5l65.4-65.4a12.0208,12.0208,0,0,0-17-17L54.5,72.5a35.9918,35.9918,0,1,0,17,17Z" style="fill:none;stroke:#000;stroke-linecap:round;stroke-linejoin:round;stroke-width:6px"/><line x1="127.6" y1="46.9" x2="131.7" y2="51" style="fill:none;stroke:#000;stroke-linecap:round;stroke-linejoin:round;stroke-width:6px"/><line x1="106.4" y1="68.1" x2="110.7" y2="72.3" style="fill:none;stroke:#000;stroke-linecap:round;stroke-linejoin:round;stroke-width:6px"/><line x1="85.2" y1="89.3" x2="89.5" y2="93.5" style="fill:none;stroke:#000;stroke-linecap:round;stroke-linejoin:round;stroke-width:6px"/><rect width="144" height="144" style="fill:none"/></svg>