<svg xmlns="http://www.w3.org/2000/svg" viewBox="0 0 144 144"><path d="M109.7,50.2s18-13.1,18-22.8c0-11.2-14.7-14.7-18-1.1-3.3-13.6-18-10.1-18,1.1C91.7,37.1,109.7,50.2,109.7,50.2Z" style="fill:none;stroke:#000;stroke-linejoin:round;stroke-width:6px"/><path d="M73,26s5.6-12.7,2.5-18C72,2,62.9,4.8,65.4,13.1c-6.1-6.3-12.9.3-9.3,6.3C59.1,24.6,73,26,73,26Z" style="fill:none;stroke:#000;stroke-linejoin:round;stroke-width:6px"/><path d="M108.9,90.4s22,3.5,28.8-3.4c7.9-7.9,0-20.8-11.9-13.5,7.3-11.9-5.6-19.9-13.5-11.9C105.4,68.4,108.9,90.4,108.9,90.4Z" style="fill:none;stroke:#000;stroke-linejoin:round;stroke-width:6px"/><path d="M27,127.2c0,6.9-4.4,13.8-12,13.8S3.2,137.6,3.2,129.9c0-7.6,6-12.9,13.6-12.9H27Z" style="fill:none;stroke:#000;stroke-linejoin:round;stroke-width:6px"/><path d="M81,112.2c0,6.9-6.1,13.8-13.7,13.8a14.0224,14.0224,0,0,1-13.8-14.1c0-7.6,6.2-12.9,13.8-12.9H80.9C81,105,81,107.6,81,112.2Z" style="fill:none;stroke:#000;stroke-linejoin:round;stroke-width:6px"/><polyline points="27 121.5 27 58.2 81 37.5 81 106.9" style="fill:none;stroke:#000;stroke-linejoin:round;stroke-width:6px"/><line x1="27.1" y1="76" x2="81.2" y2="53.6" style="fill:none;stroke:#000;stroke-linejoin:round;stroke-width:6px"/><rect width="144" height="144" style="fill:none"/></svg>