<svg xmlns="http://www.w3.org/2000/svg" viewBox="0 0 144 144"><path d="M69,57.3S99,35.7,99,19.7C99,1.2,74.5-4.6,69,17.9,63.5-4.6,39,1.2,39,19.7,39,35.7,69,57.3,69,57.3Z" style="fill:none;stroke:#000;stroke-linejoin:round;stroke-width:6px"/><path d="M54,78a21,21,0,0,0-42,0,21.4167,21.4167,0,0,0,4.1,12.4L9,141H54L35.7,98.7A20.8641,20.8641,0,0,0,54,78Z" style="fill:none;stroke:#000;stroke-linejoin:round;stroke-width:6px"/><line x1="39" y1="72" x2="39" y2="69" style="fill:none;stroke:#000;stroke-linecap:round;stroke-linejoin:round;stroke-width:6px"/><path d="M50.5,90A20.8606,20.8606,0,0,1,36,84" style="fill:none;stroke:#000;stroke-linecap:round;stroke-linejoin:round;stroke-width:6px"/><path d="M84,78a21,21,0,0,1,42,0,21.4167,21.4167,0,0,1-4.1,12.4L129,141H84l18.3-42.3A20.8641,20.8641,0,0,1,84,78Z" style="fill:none;stroke:#000;stroke-linejoin:round;stroke-width:6px"/><line x1="99" y1="72" x2="99" y2="69" style="fill:none;stroke:#000;stroke-linecap:round;stroke-linejoin:round;stroke-width:6px"/><path d="M87.5,90A20.8606,20.8606,0,0,0,102,84" style="fill:none;stroke:#000;stroke-linecap:round;stroke-linejoin:round;stroke-width:6px"/><rect width="144" height="144" style="fill:none"/></svg>