<svg xmlns="http://www.w3.org/2000/svg" viewBox="0 0 144 144"><path d="M141,45a12.0353,12.0353,0,0,0-12-12H15A12.0353,12.0353,0,0,0,3,45v72a12.0353,12.0353,0,0,0,12,12H129a12.0353,12.0353,0,0,0,12-12Z" style="fill:none;stroke:#000;stroke-linecap:round;stroke-linejoin:round;stroke-width:6px"/><path d="M51,33V24a9.0264,9.0264,0,0,1,9-9H84a9.0264,9.0264,0,0,1,9,9v9" style="fill:none;stroke:#000;stroke-linecap:round;stroke-linejoin:round;stroke-width:6px"/><path d="M90,66a17.9044,17.9044,0,0,0-15.6,9H39l-9,9,9,9H74.4A18.0042,18.0042,0,1,0,90,66Z" style="fill:none;stroke:#000;stroke-linecap:round;stroke-linejoin:round;stroke-width:6px"/><path d="M93,84a2.9465,2.9465,0,0,1-3,3h0a2.9465,2.9465,0,0,1-3-3h0a2.9465,2.9465,0,0,1,3-3h0a2.9465,2.9465,0,0,1,3,3Z" style="fill:none;stroke:#000;stroke-linejoin:round;stroke-width:6px"/><rect width="144" height="144" style="fill:none"/></svg>