<svg xmlns="http://www.w3.org/2000/svg" viewBox="0 0 144 144"><path d="M123,93a18.0529,18.0529,0,0,0-18-18H39A18.0529,18.0529,0,0,0,21,93v30a18.0529,18.0529,0,0,0,18,18h66a18.0529,18.0529,0,0,0,18-18Z" style="fill:none;stroke:#000;stroke-linecap:round;stroke-linejoin:round;stroke-width:6px"/><path d="M57,75V69A12.0353,12.0353,0,0,1,69,57h6A12.0353,12.0353,0,0,1,87,69v6" style="fill:none;stroke:#000;stroke-linecap:round;stroke-linejoin:round;stroke-width:6px"/><line x1="105" y1="75" x2="105" y2="141" style="fill:none;stroke:#000;stroke-linejoin:round;stroke-width:6px"/><line x1="87" y1="75" x2="87" y2="141" style="fill:none;stroke:#000;stroke-linejoin:round;stroke-width:6px"/><line x1="57" y1="75" x2="57" y2="141" style="fill:none;stroke:#000;stroke-linejoin:round;stroke-width:6px"/><line x1="39" y1="75" x2="39" y2="141" style="fill:none;stroke:#000;stroke-linejoin:round;stroke-width:6px"/><circle cx="30" cy="27.1" r="9" style="fill:none;stroke:#000;stroke-linecap:round;stroke-linejoin:round;stroke-width:6px"/><path d="M53.2,33a23.7109,23.7109,0,1,1,.1-12H135a6,6,0,0,1,0,12H123V45H111V33H99V45H87V33Z" style="fill:none;stroke:#000;stroke-linecap:round;stroke-linejoin:round;stroke-width:6px"/><rect width="144" height="144" style="fill:none"/></svg>