<svg xmlns="http://www.w3.org/2000/svg" viewBox="0 0 144 144"><path d="M105,106.5A13.4439,13.4439,0,0,0,91.5,93h-45A13.4439,13.4439,0,0,0,33,106.5v21A13.4439,13.4439,0,0,0,46.5,141h45A13.4439,13.4439,0,0,0,105,127.5Z" style="fill:none;stroke:#000;stroke-linecap:round;stroke-linejoin:round;stroke-width:6px"/><circle cx="69" cy="33.1" r="29.9" style="fill:none;stroke:#000;stroke-linecap:round;stroke-linejoin:round;stroke-width:6px"/><line x1="79.1" y1="20.7" x2="69" y2="36" style="fill:none;stroke:#000;stroke-linecap:round;stroke-linejoin:round;stroke-width:6px"/><line x1="48" y1="111" x2="90" y2="111" style="fill:none;stroke:#000;stroke-linecap:round;stroke-linejoin:round;stroke-width:6px"/><line x1="48" y1="123" x2="90" y2="123" style="fill:none;stroke:#000;stroke-linecap:round;stroke-linejoin:round;stroke-width:6px"/><path d="M87,87A12.0353,12.0353,0,0,0,75,75H63A12.0353,12.0353,0,0,0,51,87v6H87Z" style="fill:none;stroke:#000;stroke-linecap:round;stroke-linejoin:round;stroke-width:6px"/><line x1="6" y1="141" x2="138" y2="141" style="fill:none;stroke:#000;stroke-linecap:round;stroke-linejoin:round;stroke-width:6px"/><rect width="144" height="144" style="fill:none"/></svg>