<svg xmlns="http://www.w3.org/2000/svg" viewBox="0 0 144.0222 144.0222"><line x1="15.0222" y1="116.3" x2="59.3222" y2="72" style="fill:none;stroke:#000;stroke-linejoin:round;stroke-width:6px"/><line x1="72.0222" y1="84.7" x2="27.7222" y2="129" style="fill:none;stroke:#000;stroke-linejoin:round;stroke-width:6px"/><path d="M26.8,138.4c-5.9,5.9-21.2,0-21.2,0s-5.9-15.4,0-21.2c5.9-5.9,11.1-1.6,17,4.2C28.4,127.3,32.7,132.5,26.8,138.4Z" transform="translate(0.0222)" style="fill:none;stroke:#000;stroke-linejoin:round;stroke-width:6px"/><circle cx="90.0222" cy="54" r="36" style="fill:none;stroke:#000;stroke-linejoin:round;stroke-width:6px"/><polyline points="99.022 39 90.022 30 81.022 39" style="fill:none;stroke:#000;stroke-linejoin:round;stroke-width:6px"/><polyline points="81.022 69 90.022 78 99.022 69" style="fill:none;stroke:#000;stroke-linejoin:round;stroke-width:6px"/><polyline points="105.022 63 114.022 54 105.022 45" style="fill:none;stroke:#000;stroke-linejoin:round;stroke-width:6px"/><polyline points="75.022 45 66.022 54 75.022 63" style="fill:none;stroke:#000;stroke-linejoin:round;stroke-width:6px"/><line x1="31.1222" y1="100.1" x2="43.9222" y2="112.9" style="fill:none;stroke:#000;stroke-linejoin:round;stroke-width:6px"/><line x1="90.0222" y1="18" x2="90.0222" y2="6" style="fill:none;stroke:#000;stroke-linecap:round;stroke-linejoin:round;stroke-width:6px"/><line x1="115.5222" y1="28.5" x2="123.9222" y2="20.1" style="fill:none;stroke:#000;stroke-linecap:round;stroke-linejoin:round;stroke-width:6px"/><line x1="126.0222" y1="54" x2="138.0222" y2="54" style="fill:none;stroke:#000;stroke-linecap:round;stroke-linejoin:round;stroke-width:6px"/><line x1="115.5222" y1="79.5" x2="123.9222" y2="87.9" style="fill:none;stroke:#000;stroke-linecap:round;stroke-linejoin:round;stroke-width:6px"/><line x1="90.0222" y1="90" x2="90.0222" y2="102" style="fill:none;stroke:#000;stroke-linecap:round;stroke-linejoin:round;stroke-width:6px"/><line x1="54.0222" y1="54" x2="42.0222" y2="54" style="fill:none;stroke:#000;stroke-linecap:round;stroke-linejoin:round;stroke-width:6px"/><line x1="64.5222" y1="28.5" x2="56.1222" y2="20.1" style="fill:none;stroke:#000;stroke-linecap:round;stroke-linejoin:round;stroke-width:6px"/><rect x="0.0222" width="144" height="144" style="fill:none"/></svg>