<svg xmlns="http://www.w3.org/2000/svg" viewBox="0 0 144 144"><path d="M42,51V65.8c-9,0-9,18,0,18,0,18,21,30.2,30,30.2" style="fill:none;stroke:#000;stroke-linecap:round;stroke-linejoin:round;stroke-width:6px"/><path d="M102,51V65.8c9,0,9,18,0,18,0,18-21,30.2-30,30.2" style="fill:none;stroke:#000;stroke-linecap:round;stroke-linejoin:round;stroke-width:6px"/><line x1="48" y1="141" x2="42" y2="108" style="fill:none;stroke:#000;stroke-linejoin:round;stroke-width:6px"/><line x1="96" y1="141" x2="102" y2="108" style="fill:none;stroke:#000;stroke-linejoin:round;stroke-width:6px"/><path d="M52.8,105l-34.3,9C9.2,117.5,3,131,3,141H141c0-10-6.2-23.5-15.6-27l-34.2-9" style="fill:none;stroke:#000;stroke-linejoin:round;stroke-width:6px"/><path d="M102,51l6-42C88,1,56,1,36,9l6,42" style="fill:none;stroke:#000;stroke-linejoin:round;stroke-width:6px"/><path d="M54,72c0-3.3,2.7-3,6-3s6-.3,6,3" style="fill:none;stroke:#000;stroke-linecap:round;stroke-linejoin:round;stroke-width:6px"/><path d="M78,72c0-3.3,2.7-3,6-3s6-.3,6,3" style="fill:none;stroke:#000;stroke-linecap:round;stroke-linejoin:round;stroke-width:6px"/><path d="M108.7,74.4C120.8,71.6,129,67.5,129,63c0-8.3-25.5-15-57-15S15,54.7,15,63c0,4.5,8.2,8.6,20.3,11.4" style="fill:none;stroke:#000;stroke-linecap:round;stroke-linejoin:round;stroke-width:6px"/><path d="M39.8,35.6A191.63,191.63,0,0,1,72,33a191.63,191.63,0,0,1,32.2,2.6" style="fill:none;stroke:#000;stroke-linejoin:round;stroke-width:6px"/><polygon points="72 126 57 120 57 138 72 126 87 138 87 120 72 126" style="fill:none;stroke:#000;stroke-linejoin:round;stroke-width:6px"/><rect width="144" height="144" style="fill:none"/></svg>