<svg xmlns="http://www.w3.org/2000/svg" viewBox="0 0 144 144"><path d="M99,129a12.0353,12.0353,0,0,1-12,12H51a12.0353,12.0353,0,0,1-12-12V87H99Z" style="fill:none;stroke:#000;stroke-linecap:round;stroke-linejoin:round;stroke-width:6px"/><line x1="18" y1="87" x2="120" y2="87" style="fill:none;stroke:#000;stroke-linecap:round;stroke-linejoin:round;stroke-width:6px"/><line x1="39" y1="105" x2="99" y2="105" style="fill:none;stroke:#000;stroke-linecap:round;stroke-linejoin:round;stroke-width:6px"/><path d="M106.3,12.6a15.3114,15.3114,0,0,0-9.8-8.3A15.1263,15.1263,0,0,0,77.4,17.4L72,69.3a23.4048,23.4048,0,0,1,11.7,5.1l22.6-49A15.084,15.084,0,0,0,106.3,12.6Z" style="fill:none;stroke:#000;stroke-linecap:round;stroke-linejoin:round;stroke-width:6px"/><path d="M64.4,69.4,61.8,18a15.2683,15.2683,0,0,0-6-11.4A15.5232,15.5232,0,0,0,43.3,3.8,15.3329,15.3329,0,0,0,32.4,24.4L52.8,75.3A24.241,24.241,0,0,1,64.4,69.4Z" style="fill:none;stroke:#000;stroke-linecap:round;stroke-linejoin:round;stroke-width:6px"/><path d="M91.9,87a23.8225,23.8225,0,0,0-46.2,0Z" style="fill:none;stroke:#000;stroke-linecap:round;stroke-linejoin:round;stroke-width:6px"/><rect width="144" height="144" style="fill:none"/></svg>