<svg xmlns="http://www.w3.org/2000/svg" viewBox="0 0 144 144"><path d="M141,129a12.0353,12.0353,0,0,1-12,12H15A12.0353,12.0353,0,0,1,3,129V15A12.0353,12.0353,0,0,1,15,3H129a12.0353,12.0353,0,0,1,12,12Z" style="fill:none;stroke:#000;stroke-linejoin:round;stroke-width:6px"/><path d="M129,40a4.9514,4.9514,0,0,1-5,5H104a4.9514,4.9514,0,0,1-5-5V20a4.9514,4.9514,0,0,1,5-5h20a4.9514,4.9514,0,0,1,5,5Z" style="fill:none;stroke:#000;stroke-linejoin:round;stroke-width:6px"/><path d="M87,40a4.9514,4.9514,0,0,1-5,5H62a4.9514,4.9514,0,0,1-5-5V20a4.9514,4.9514,0,0,1,5-5H82a4.9514,4.9514,0,0,1,5,5Z" style="fill:none;stroke:#000;stroke-linejoin:round;stroke-width:6px"/><path d="M129,82a4.9514,4.9514,0,0,1-5,5H104a4.9514,4.9514,0,0,1-5-5V62a4.9514,4.9514,0,0,1,5-5h20a4.9514,4.9514,0,0,1,5,5Z" style="fill:none;stroke:#000;stroke-linejoin:round;stroke-width:6px"/><path d="M87,82a4.9514,4.9514,0,0,1-5,5H62a4.9514,4.9514,0,0,1-5-5V62a4.9514,4.9514,0,0,1,5-5H82a4.9514,4.9514,0,0,1,5,5Z" style="fill:none;stroke:#000;stroke-linejoin:round;stroke-width:6px"/><path d="M129,124a4.9514,4.9514,0,0,1-5,5H104a4.9514,4.9514,0,0,1-5-5V104a4.9514,4.9514,0,0,1,5-5h20a4.9514,4.9514,0,0,1,5,5Z" style="fill:none;stroke:#000;stroke-linejoin:round;stroke-width:6px"/><path d="M87,124a4.9514,4.9514,0,0,1-5,5H62a4.9514,4.9514,0,0,1-5-5V104a4.9514,4.9514,0,0,1,5-5H82a4.9514,4.9514,0,0,1,5,5Z" style="fill:none;stroke:#000;stroke-linejoin:round;stroke-width:6px"/><path d="M39,51H21v69a9,9,0,0,0,18,0Z" style="fill:none;stroke:#000;stroke-linejoin:round;stroke-width:6px"/><path d="M15,21c0-7.8,30-7.8,30,0L39,51H21Z" style="fill:none;stroke:#000;stroke-linejoin:round;stroke-width:6px"/><rect width="144" height="144" style="fill:none"/></svg>