<svg xmlns="http://www.w3.org/2000/svg" viewBox="0 0 144 144"><path d="M51.1,22.6,15,37l6,23,24-9,6,14.7L31.7,108.2A6.0284,6.0284,0,0,0,37,117h64a5.8365,5.8365,0,0,0,5.1-2.9,6.1772,6.1772,0,0,0,.2-5.9L87,65.7,93,51l24,9,6-23L87.1,22.7" style="fill:none;stroke:#000;stroke-linecap:round;stroke-linejoin:round;stroke-width:6px"/><path d="M57,3H81l6,18c0,23.7-36,23.7-36,0Z" style="fill:none;stroke:#000;stroke-linecap:round;stroke-linejoin:round;stroke-width:6px"/><line x1="69" y1="117" x2="69" y2="141" style="fill:none;stroke:#000;stroke-linecap:round;stroke-linejoin:round;stroke-width:6px"/><line x1="24" y1="141" x2="114" y2="141" style="fill:none;stroke:#000;stroke-linecap:round;stroke-linejoin:round;stroke-width:6px"/><rect width="144" height="144" style="fill:none"/></svg>