<svg xmlns="http://www.w3.org/2000/svg" viewBox="0 0 144 144"><path d="M18,45,34.6,9A12.0133,12.0133,0,0,1,55.4,9L66.1,26.2A6.02,6.02,0,0,1,77.7,25L87,45Z" style="fill:none;stroke:#000;stroke-linecap:round;stroke-linejoin:round;stroke-width:6px"/><path d="M60,58.5s0,1.1.2,3" style="fill:none;stroke:#000;stroke-linecap:round;stroke-linejoin:round;stroke-width:6px"/><path d="M62.5,73.2c2.6,8.9,7.8,19.8,18.2,27,18.5,12.8,51.1,4.6,56.8,31.7" style="fill:none;stroke:#000;stroke-linecap:round;stroke-linejoin:round;stroke-width:6px;stroke-dasharray:6.001200199127197,12.001799583435059"/><path d="M138.3,138c.1,1,.1,2,.1,3" style="fill:none;stroke:#000;stroke-linecap:round;stroke-linejoin:round;stroke-width:6px"/><path d="M34.7,88.5c3.7,3.6,9-2.3,5-5.6L27,69.1,14.2,82.9c-4,3.3,1.3,9.2,5,5.5L9.1,101.2c-3.5,3.5,1.9,8.8,5.3,5.2l-8,10.2A3.7822,3.7822,0,0,0,9.1,123H44.9a3.7193,3.7193,0,0,0,2.6-6.4l-7.8-10.1c3.5,3.5,8.8-1.8,5.2-5.3Z" style="fill:none;stroke:#000;stroke-linecap:round;stroke-linejoin:round;stroke-width:6px"/><line x1="27" y1="123" x2="27" y2="135.1" style="fill:none;stroke:#000;stroke-linecap:round;stroke-linejoin:round;stroke-width:6px"/><path d="M124.7,46.5c3.7,3.6,9-2.3,5-5.6L117,27.1,104.2,40.9c-4,3.3,1.3,9.2,5,5.5L99.1,59.2c-3.5,3.5,1.9,8.8,5.3,5.2l-8,10.2A3.7822,3.7822,0,0,0,99.1,81h35.8a3.7193,3.7193,0,0,0,2.6-6.4l-7.8-10.1c3.5,3.5,8.8-1.8,5.2-5.3Z" style="fill:none;stroke:#000;stroke-linecap:round;stroke-linejoin:round;stroke-width:6px"/><line x1="117" y1="81" x2="117" y2="93.1" style="fill:none;stroke:#000;stroke-linecap:round;stroke-linejoin:round;stroke-width:6px"/><rect width="144" height="144" style="fill:none"/></svg>