<svg xmlns="http://www.w3.org/2000/svg" viewBox="0 0 144 144"><circle cx="36" cy="48" r="30" style="fill:none;stroke:#000;stroke-linejoin:round;stroke-width:6px"/><polyline points="9 60.7 33.9 62.9 27.5 39.5 50.9 45.9 48.7 21" style="fill:none;stroke:#000;stroke-linejoin:round;stroke-width:6px"/><circle cx="108" cy="48" r="30" style="fill:none;stroke:#000;stroke-linejoin:round;stroke-width:6px"/><polyline points="135 60.7 110.1 62.9 116.5 39.5 93.1 45.9 95.3 21" style="fill:none;stroke:#000;stroke-linejoin:round;stroke-width:6px"/><path d="M97,75.9,57.1,115.8a12.0208,12.0208,0,0,1-17-17L80.1,59" style="fill:none;stroke:#000;stroke-linejoin:round;stroke-width:6px"/><line x1="72" y1="67" x2="63.9" y2="59" style="fill:none;stroke:#000;stroke-linejoin:round;stroke-width:6px"/><path d="M72,101l14.9,14.9a12.0208,12.0208,0,0,0,17-17L89,84" style="fill:none;stroke:#000;stroke-linejoin:round;stroke-width:6px"/><line x1="47" y1="75.9" x2="55" y2="84" style="fill:none;stroke:#000;stroke-linejoin:round;stroke-width:6px"/><rect width="144" height="144" style="fill:none"/></svg>