<svg xmlns="http://www.w3.org/2000/svg" viewBox="0 0 144 144"><path d="M114,123a27,27,0,0,0,0-54h-9V60a33,33,0,0,0-66,0v9H30a27,27,0,0,0,0,54h3.6a16.5572,16.5572,0,0,0,15.9,12h36a16.5572,16.5572,0,0,0,15.9-12Z" style="fill:none;stroke:#000;stroke-linecap:round;stroke-linejoin:round;stroke-width:6px"/><path d="M44.8,96a27.0213,27.0213,0,0,0,48.4,0" style="fill:none;stroke:#000;stroke-linecap:round;stroke-linejoin:round;stroke-width:6px"/><line x1="57" y1="57" x2="57" y2="69" style="fill:none;stroke:#000;stroke-linecap:round;stroke-linejoin:round;stroke-width:6px"/><line x1="81" y1="57" x2="81" y2="69" style="fill:none;stroke:#000;stroke-linecap:round;stroke-linejoin:round;stroke-width:6px"/><rect width="144" height="144" style="fill:none"/></svg>