<svg xmlns="http://www.w3.org/2000/svg" viewBox="0 0 144 144"><path d="M93,10.6A38.8073,38.8073,0,0,0,72,4.5a39.68,39.68,0,0,0-21,6.1" style="fill:none;stroke:#000;stroke-linecap:round;stroke-linejoin:round;stroke-width:6px"/><path d="M36.6,27A39.4252,39.4252,0,0,0,33,43.5l-8.8,2.3A21.01,21.01,0,0,0,30,87h84a21.0343,21.0343,0,0,0,5.6-41.3L111,43.5A39.4252,39.4252,0,0,0,107.4,27" style="fill:none;stroke:#000;stroke-linecap:round;stroke-linejoin:round;stroke-width:6px"/><polyline points="57 63 48 75 39 63 105 63 96 75 87 63" style="fill:none;stroke:#000;stroke-linecap:round;stroke-linejoin:round;stroke-width:6px"/><path d="M81,33l24-21a8.993,8.993,0,0,1,12.7,0l8.3,9" style="fill:none;stroke:#000;stroke-linecap:round;stroke-linejoin:round;stroke-width:6px"/><path d="M63,33,39,12a8.993,8.993,0,0,0-12.7,0L18,21" style="fill:none;stroke:#000;stroke-linecap:round;stroke-linejoin:round;stroke-width:6px"/><path d="M48,87.1a35.8275,35.8275,0,0,0-12,26.8v6l15,21H93l15-21v-6A35.6666,35.6666,0,0,0,96,87.1" style="fill:none;stroke:#000;stroke-linecap:round;stroke-linejoin:round;stroke-width:6px"/><path d="M51,141H9v-6a5.72,5.72,0,0,1,2.9-5.1L36,120" style="fill:none;stroke:#000;stroke-linecap:round;stroke-linejoin:round;stroke-width:6px"/><path d="M93,141h42v-6a5.72,5.72,0,0,0-2.9-5.1L108,120" style="fill:none;stroke:#000;stroke-linecap:round;stroke-linejoin:round;stroke-width:6px"/><path d="M51,111a6.11,6.11,0,0,1,2-4.5L72,96l19,10.6a6.0589,6.0589,0,0,1,2,4.4" style="fill:none;stroke:#000;stroke-linecap:round;stroke-linejoin:round;stroke-width:6px"/><line x1="51" y1="120" x2="51" y2="123" style="fill:none;stroke:#000;stroke-linecap:round;stroke-linejoin:round;stroke-width:6px"/><line x1="93" y1="120" x2="93" y2="123" style="fill:none;stroke:#000;stroke-linecap:round;stroke-linejoin:round;stroke-width:6px"/><line x1="51" y1="39" x2="51" y2="48" style="fill:none;stroke:#000;stroke-linecap:round;stroke-linejoin:round;stroke-width:6px"/><line x1="93" y1="39" x2="93" y2="48" style="fill:none;stroke:#000;stroke-linecap:round;stroke-linejoin:round;stroke-width:6px"/><rect width="144" height="144" style="fill:none"/></svg>