<svg xmlns="http://www.w3.org/2000/svg" viewBox="0 0 144 144"><path d="M33,105c0-16,78-16,78,0v12a23.9424,23.9424,0,0,1-24,24H57a23.9424,23.9424,0,0,1-24-24Z" style="fill:none;stroke:#000;stroke-linejoin:round;stroke-width:6px"/><path d="M33.2,116.9a29.8689,29.8689,0,0,1-19.1-9.8C-3.6,87.6,6.1,3.1,72,3.1c64.9,0,75.9,84.2,58,104.1-4.6,5.1-12.2,8.8-19,9.8" style="fill:none;stroke:#000;stroke-linejoin:round;stroke-width:6px"/><path d="M118.8,24.4C116.4,31.5,109.9,36,102,36A18.0529,18.0529,0,0,1,84,18c0-4.7,2.4-9.5,5.3-12.7" style="fill:none;stroke:#000;stroke-linejoin:round;stroke-width:6px"/><circle cx="108" cy="72" r="12" style="fill:none;stroke:#000;stroke-linejoin:round;stroke-width:6px"/><circle cx="45" cy="63" r="21" style="fill:none;stroke:#000;stroke-linejoin:round;stroke-width:6px"/><line x1="57" y1="108" x2="57" y2="120" style="fill:none;stroke:#000;stroke-linecap:round;stroke-linejoin:round;stroke-width:6px"/><line x1="87" y1="108" x2="87" y2="120" style="fill:none;stroke:#000;stroke-linecap:round;stroke-linejoin:round;stroke-width:6px"/><rect width="144" height="144" style="fill:none"/></svg>