<svg xmlns="http://www.w3.org/2000/svg" viewBox="0 0 144 144"><line x1="57" y1="39" x2="57" y2="48" style="fill:none;stroke:#000;stroke-linecap:round;stroke-linejoin:round;stroke-width:6px"/><line x1="87" y1="39" x2="87" y2="48" style="fill:none;stroke:#000;stroke-linecap:round;stroke-linejoin:round;stroke-width:6px"/><line x1="72" y1="84" x2="57" y2="141" style="fill:none;stroke:#000;stroke-linecap:round;stroke-linejoin:round;stroke-width:6px"/><path d="M27,141a15.0559,15.0559,0,0,1-12-6L3,111H27a15.0559,15.0559,0,0,1,12,6l9,24Z" style="fill:none;stroke:#000;stroke-linecap:round;stroke-linejoin:round;stroke-width:6px"/><path d="M96,141a15.0559,15.0559,0,0,0,12-6l12-24H96a15.0559,15.0559,0,0,0-12,6l-9,24Z" style="fill:none;stroke:#000;stroke-linecap:round;stroke-linejoin:round;stroke-width:6px"/><path d="M3,42A39.05,39.05,0,0,0,42,81h60a39,39,0,0,0,0-78H42A39.05,39.05,0,0,0,3,42Z" style="fill:none;stroke:#000;stroke-linecap:round;stroke-linejoin:round;stroke-width:6px"/><path d="M27,42A20.9974,20.9974,0,0,0,48,63H99a21,21,0,0,0,0-42H48A20.9974,20.9974,0,0,0,27,42Z" style="fill:none;stroke:#000;stroke-linecap:round;stroke-linejoin:round;stroke-width:6px"/><rect width="144" height="144" style="fill:none"/></svg>