<svg xmlns="http://www.w3.org/2000/svg" viewBox="0 0 144 144"><path d="M36,27l6.3,27a31.5267,31.5267,0,0,0,62.4,0L108,30" style="fill:none;stroke:#000;stroke-linejoin:round;stroke-width:6px"/><path d="M92.7,8.4A13.5,13.5,0,0,1,117,16.5,13.4322,13.4322,0,0,1,112,27L88.2,45.4a22.4237,22.4237,0,0,1-14.7,5.5A23.1653,23.1653,0,0,1,57,44.8L35,27A13.5072,13.5072,0,1,1,53,6.9L73.5,27Z" style="fill:none;stroke:#000;stroke-linecap:round;stroke-linejoin:round;stroke-width:6px"/><line x1="72" y1="81" x2="57" y2="141" style="fill:none;stroke:#000;stroke-linecap:round;stroke-linejoin:round;stroke-width:6px"/><path d="M33.3,123a13.4956,13.4956,0,0,1-10.8-5.4L11.7,99H33.3a13.4956,13.4956,0,0,1,10.8,5.4L52.2,123Z" style="fill:none;stroke:#000;stroke-linecap:round;stroke-linejoin:round;stroke-width:6px"/><path d="M93.9,129a13.4956,13.4956,0,0,0,10.8-5.4L115.5,105H93.9a13.4956,13.4956,0,0,0-10.8,5.4L75,129Z" style="fill:none;stroke:#000;stroke-linecap:round;stroke-linejoin:round;stroke-width:6px"/><rect width="144" height="144" style="fill:none"/></svg>