<svg xmlns="http://www.w3.org/2000/svg" viewBox="0 0 144 144"><path d="M111,54A42.0515,42.0515,0,0,1,63.7,95.7C42.4,93.1,27,73.9,27,52.4V12L45,36,69,3,93,36l18-24Z" style="fill:none;stroke:#000;stroke-linecap:round;stroke-linejoin:round;stroke-width:6px"/><path d="M42,60a9,9,0,0,1,18,0" style="fill:none;stroke:#000;stroke-linecap:round;stroke-linejoin:round;stroke-width:6px"/><path d="M78,60a9,9,0,0,1,18,0" style="fill:none;stroke:#000;stroke-linecap:round;stroke-linejoin:round;stroke-width:6px"/><line x1="69" y1="96" x2="69" y2="141" style="fill:none;stroke:#000;stroke-linecap:round;stroke-linejoin:round;stroke-width:6px"/><path d="M132,141c0-6-22.7-24-36-24s-27,10.7-27,24Z" style="fill:none;stroke:#000;stroke-linecap:round;stroke-linejoin:round;stroke-width:6px"/><path d="M6,141c0-6,22.7-24,36-24s27,10.7,27,24Z" style="fill:none;stroke:#000;stroke-linecap:round;stroke-linejoin:round;stroke-width:6px"/><rect width="144" height="144" style="fill:none"/></svg>