<svg xmlns="http://www.w3.org/2000/svg" viewBox="0 0 144 144"><path d="M123,63a33.2614,33.2614,0,0,0,12-25.5A34.4411,34.4411,0,0,0,100.5,3h-57A34.4411,34.4411,0,0,0,9,37.5C9,48,13.7,56.7,21,63Z" style="fill:none;stroke:#000;stroke-linecap:round;stroke-linejoin:round;stroke-width:6px"/><polyline points="54 33 63 15 72 27 81 15 90 33" style="fill:none;stroke:#000;stroke-linecap:round;stroke-linejoin:round;stroke-width:6px"/><path d="M123,63a18.0529,18.0529,0,0,0-18-18H39A18.0529,18.0529,0,0,0,21,63V90a51,51,0,0,0,102,0Z" style="fill:none;stroke:#000;stroke-linecap:round;stroke-linejoin:round;stroke-width:6px"/><path d="M18,69a15,15,0,0,0,0,30" style="fill:none;stroke:#000;stroke-linecap:round;stroke-linejoin:round;stroke-width:6px"/><path d="M126,99a15,15,0,0,0,0-30" style="fill:none;stroke:#000;stroke-linecap:round;stroke-linejoin:round;stroke-width:6px"/><line x1="51" y1="78" x2="51" y2="84" style="fill:none;stroke:#000;stroke-linecap:round;stroke-linejoin:round;stroke-width:6px"/><line x1="93" y1="78" x2="93" y2="84" style="fill:none;stroke:#000;stroke-linecap:round;stroke-linejoin:round;stroke-width:6px"/><path d="M71.9,117.9a10.3734,10.3734,0,0,1-9,5.1,10.603,10.603,0,0,1-9.5-6l-3.3-6A8.95,8.95,0,0,1,35,108.1l-3.5-9.2,27-2.9c0,7.5,6,15,13.5,15s13.5-7.5,13.5-15l26.9,2.9-3.5,9.2a9.1154,9.1154,0,0,1-8.4,5.9,8.9716,8.9716,0,0,1-6.7-3l-3.3,6a10.4305,10.4305,0,0,1-9.5,6,10.8927,10.8927,0,0,1-9.1-5.1" style="fill:none;stroke:#000;stroke-linecap:round;stroke-linejoin:round;stroke-width:6px"/><rect width="144" height="144" style="fill:none"/></svg>