<svg xmlns="http://www.w3.org/2000/svg" viewBox="0 0 144 144"><path d="M141,81V30C126,45,54,45,39,30V81c0,33,39,60,51,60S141,114,141,81Z" style="fill:none;stroke:#000;stroke-linecap:round;stroke-linejoin:round;stroke-width:6px"/><path d="M105,24V3C90,18,18,18,3,3V54c0,14.9,7.9,28.5,17.7,39" style="fill:none;stroke:#000;stroke-linecap:round;stroke-linejoin:round;stroke-width:6px"/><path d="M108,99a18,18,0,0,1-36,0" style="fill:none;stroke:#000;stroke-linecap:round;stroke-linejoin:round;stroke-width:6px"/><path d="M102,72a9,9,0,0,1,18,0" style="fill:none;stroke:#000;stroke-linecap:round;stroke-linejoin:round;stroke-width:6px"/><path d="M60,72a9,9,0,0,1,18,0" style="fill:none;stroke:#000;stroke-linecap:round;stroke-linejoin:round;stroke-width:6px"/><rect width="144" height="144" style="fill:none"/></svg>