<svg xmlns="http://www.w3.org/2000/svg" viewBox="0 0 144 144"><path d="M64.1,13.3C55.7,18.4,48,28.6,48,39c0,8.6,3.7,17.2,9.6,22.5,4.9-4.4,8.6-12.4,9.6-19.3C83.3,49.7,93,66.8,93,84A45,45,0,0,1,3,84C3,49.3,30.3,18.9,64.1,13.3Z" style="fill:none;stroke:#000;stroke-linecap:round;stroke-linejoin:round;stroke-width:6px"/><path d="M45.3,87.1A11.9767,11.9767,0,0,0,41.6,105a11.9843,11.9843,0,0,0,18.3.7L69.6,95,58,80.1Z" style="fill:none;stroke:#000;stroke-linecap:round;stroke-linejoin:round;stroke-width:6px"/><line x1="63.4" y1="87" x2="133.8" y2="29" style="fill:none;stroke:#000;stroke-linecap:round;stroke-linejoin:round;stroke-width:6px"/><rect width="144" height="144" style="fill:none"/></svg>