<svg xmlns="http://www.w3.org/2000/svg" viewBox="0 0 144 144"><path d="M129,129a12.0353,12.0353,0,0,1-12,12H27a12.0353,12.0353,0,0,1-12-12V15A12.0353,12.0353,0,0,1,27,3h90a12.0353,12.0353,0,0,1,12,12Z" style="fill:none;stroke:#000;stroke-linejoin:round;stroke-width:6px"/><path d="M63,30a8.9626,8.9626,0,0,1-9,9H36a9,9,0,0,1,0-18H54A8.9626,8.9626,0,0,1,63,30Z" style="fill:none;stroke:#000;stroke-linejoin:round;stroke-width:6px"/><path d="M117,30a8.9626,8.9626,0,0,1-9,9H90a9,9,0,0,1,0-18h18A8.9626,8.9626,0,0,1,117,30Z" style="fill:none;stroke:#000;stroke-linejoin:round;stroke-width:6px"/><line x1="45" y1="39" x2="45" y2="21" style="fill:none;stroke:#000;stroke-linejoin:round;stroke-width:6px"/><line x1="99" y1="39" x2="99" y2="21" style="fill:none;stroke:#000;stroke-linejoin:round;stroke-width:6px"/><path d="M63,72a8.9626,8.9626,0,0,1-9,9H36a9,9,0,0,1,0-18H54A8.9626,8.9626,0,0,1,63,72Z" style="fill:none;stroke:#000;stroke-linejoin:round;stroke-width:6px"/><path d="M117,72a8.9626,8.9626,0,0,1-9,9H90a9,9,0,0,1,0-18h18A8.9626,8.9626,0,0,1,117,72Z" style="fill:none;stroke:#000;stroke-linejoin:round;stroke-width:6px"/><line x1="45" y1="81" x2="45" y2="63" style="fill:none;stroke:#000;stroke-linejoin:round;stroke-width:6px"/><line x1="99" y1="81" x2="99" y2="63" style="fill:none;stroke:#000;stroke-linejoin:round;stroke-width:6px"/><path d="M63,114a8.9626,8.9626,0,0,1-9,9H36a9,9,0,0,1,0-18H54A8.9626,8.9626,0,0,1,63,114Z" style="fill:none;stroke:#000;stroke-linejoin:round;stroke-width:6px"/><path d="M117,114a8.9626,8.9626,0,0,1-9,9H90a9,9,0,0,1,0-18h18A8.9626,8.9626,0,0,1,117,114Z" style="fill:none;stroke:#000;stroke-linejoin:round;stroke-width:6px"/><line x1="45" y1="123" x2="45" y2="105" style="fill:none;stroke:#000;stroke-linejoin:round;stroke-width:6px"/><rect width="144" height="144" style="fill:none"/></svg>