<svg xmlns="http://www.w3.org/2000/svg" viewBox="0 0 144 144"><polygon points="99 75 81 75 81 57 63 57 63 75 45 75 45 93 63 93 63 111 81 111 81 93 99 93 99 75" style="fill:none;stroke:#000;stroke-linecap:round;stroke-linejoin:round;stroke-width:6px"/><path d="M141,45a12.0353,12.0353,0,0,0-12-12H15A12.0353,12.0353,0,0,0,3,45v72a12.0353,12.0353,0,0,0,12,12H129a12.0353,12.0353,0,0,0,12-12Z" style="fill:none;stroke:#000;stroke-linecap:round;stroke-linejoin:round;stroke-width:6px"/><path d="M51,33V24a9.0264,9.0264,0,0,1,9-9H84a9.0264,9.0264,0,0,1,9,9v9" style="fill:none;stroke:#000;stroke-linecap:round;stroke-linejoin:round;stroke-width:6px"/><rect width="144" height="144" style="fill:none"/></svg>