<svg xmlns="http://www.w3.org/2000/svg" viewBox="0 0 144 144"><path d="M123,21V123a18.0529,18.0529,0,0,1-18,18H39a18.0529,18.0529,0,0,1-18-18V21" style="fill:none;stroke:#000;stroke-linecap:round;stroke-linejoin:round;stroke-width:6px"/><path d="M129,21H15V12a8.9626,8.9626,0,0,1,9-9h96a8.9626,8.9626,0,0,1,9,9Z" style="fill:none;stroke:#000;stroke-linecap:round;stroke-linejoin:round;stroke-width:6px"/><rect x="33" y="39" width="78" height="78" style="fill:none;stroke:#000;stroke-linecap:round;stroke-linejoin:round;stroke-width:6px"/><polygon points="99 69 81 69 81 51 63 51 63 69 45 69 45 87 63 87 63 105 81 105 81 87 99 87 99 69" style="fill:none;stroke:#000;stroke-linecap:round;stroke-linejoin:round;stroke-width:6px"/><rect width="144" height="144" style="fill:none"/></svg>