<svg xmlns="http://www.w3.org/2000/svg" viewBox="0 0 144 144.2"><path d="M98.9,17.2A38.2417,38.2417,0,0,1,69,2.8h-.1A38.0921,38.0921,0,0,1,39,17.2C28.5,17.2,18.9,13,9,6V94.9s8.7,31.6,60,46c51.3-14.4,60-46,60-46V6C119,13,109.5,17.2,98.9,17.2Z" transform="translate(0 0.2)" style="fill:none;stroke:#000;stroke-linecap:round;stroke-linejoin:round;stroke-width:6px"/><polygon points="99 57.2 81 57.2 81 39.2 57 39.2 57 57.2 39 57.2 39 81.2 57 81.2 57 99.2 81 99.2 81 81.2 99 81.2 99 57.2" style="fill:none;stroke:#000;stroke-linecap:round;stroke-linejoin:round;stroke-width:6px"/><rect y="0.2" width="144" height="144" style="fill:none"/></svg>