<svg xmlns="http://www.w3.org/2000/svg" viewBox="0 0 144 144"><path d="M141,69a12.0353,12.0353,0,0,1-12,12H15a12,12,0,0,1,0-24H129A12.0353,12.0353,0,0,1,141,69Z" style="fill:none;stroke:#000;stroke-linejoin:round;stroke-width:6px"/><polygon points="117 45 69 45 63 57 123 57 117 45" style="fill:none;stroke:#000;stroke-linejoin:round;stroke-width:6px"/><circle cx="18" cy="132" r="9" style="fill:none;stroke:#000;stroke-linejoin:round;stroke-width:6px"/><circle cx="126" cy="132" r="9" style="fill:none;stroke:#000;stroke-linejoin:round;stroke-width:6px"/><line x1="25.9" y1="127.7" x2="121.3" y2="81" style="fill:none;stroke:#000;stroke-linejoin:round;stroke-width:6px"/><line x1="118.9" y1="126.5" x2="25.9" y2="81" style="fill:none;stroke:#000;stroke-linejoin:round;stroke-width:6px"/><path d="M9,48a8.9626,8.9626,0,0,1,9-9H36a9,9,0,0,1,0,18H18A8.9626,8.9626,0,0,1,9,48Z" style="fill:none;stroke:#000;stroke-linejoin:round;stroke-width:6px"/><line x1="27" y1="129" x2="117.5" y2="129" style="fill:none;stroke:#000;stroke-linejoin:round;stroke-width:6px"/><rect width="144" height="144" style="fill:none"/></svg>