<svg xmlns="http://www.w3.org/2000/svg" viewBox="0 0 144 144"><polyline points="117 54.1 117 3 63 3 63 36.1" style="fill:none;stroke:#000;stroke-linejoin:round;stroke-width:6px"/><path d="M63,78.1V111H39A30.1519,30.1519,0,0,0,9.9,133.5a5.7812,5.7812,0,0,0,1.1,5.2,5.9656,5.9656,0,0,0,4.7,2.3H111a6.0176,6.0176,0,0,0,6-6V93.8" style="fill:none;stroke:#000;stroke-linejoin:round;stroke-width:6px"/><ellipse cx="20.5687" cy="74.2782" rx="9.0002" ry="15.0003" transform="translate(-56.4627 71.7296) rotate(-72.6268)" style="fill:none;stroke:#000;stroke-linejoin:round;stroke-width:6.000123954547834px"/><path d="M6.3,69.8,17.9,32.6c1.5-4.7,9.1-6.6,17-4.1L135,57.1v42L23.3,65.7" style="fill:none;stroke:#000;stroke-linejoin:round;stroke-width:6px"/><line x1="63" y1="111" x2="117" y2="99" style="fill:none;stroke:#000;stroke-linejoin:round;stroke-width:6px"/><line x1="63" y1="27.9" x2="117" y2="12.9" style="fill:none;stroke:#000;stroke-linejoin:round;stroke-width:6px"/><line x1="117" y1="99" x2="87" y2="141.1" style="fill:none;stroke:#000;stroke-linejoin:round;stroke-width:6px"/><line x1="63" y1="111" x2="69" y2="141.1" style="fill:none;stroke:#000;stroke-linejoin:round;stroke-width:6px"/><line x1="33" y1="111" x2="39" y2="141.1" style="fill:none;stroke:#000;stroke-linejoin:round;stroke-width:6px"/><rect width="144" height="144" style="fill:none"/></svg>