<svg xmlns="http://www.w3.org/2000/svg" viewBox="0 0 144 144"><path d="M84,15H76.6a30,30,0,0,0-30,28.5L37,123" style="fill:none;stroke:#000;stroke-linejoin:round;stroke-width:6px"/><polygon points="45 123 27 123 21 141 51 141 45 123" style="fill:none;stroke:#000;stroke-linejoin:round;stroke-width:6px"/><path d="M40.6,93H99a6.2167,6.2167,0,0,1,6.1,5.2L108,117" style="fill:none;stroke:#000;stroke-linejoin:round;stroke-width:6px"/><circle cx="108" cy="129" r="12" style="fill:none;stroke:#000;stroke-linejoin:round;stroke-width:6px"/><path d="M120,15a6.0176,6.0176,0,0,0-6-6H90a6,6,0,0,0,0,12h24A6.0176,6.0176,0,0,0,120,15Z" style="fill:none;stroke:#000;stroke-linejoin:round;stroke-width:6px"/><rect width="144" height="144" style="fill:none"/></svg>