<svg xmlns="http://www.w3.org/2000/svg" viewBox="0 0 144 144"><path d="M135,57v72a12.0353,12.0353,0,0,1-12,12H81a12.0353,12.0353,0,0,1-12-12V57" style="fill:none;stroke:#000;stroke-linecap:round;stroke-linejoin:round;stroke-width:6px"/><path d="M141,57H63V48a8.9626,8.9626,0,0,1,9-9h60a8.9626,8.9626,0,0,1,9,9Z" style="fill:none;stroke:#000;stroke-linecap:round;stroke-linejoin:round;stroke-width:6px"/><rect x="93" y="75" width="42" height="42" style="fill:none;stroke:#000;stroke-linecap:round;stroke-linejoin:round;stroke-width:6px"/><path d="M57,132a8.9626,8.9626,0,0,1-9,9H18a9,9,0,0,1,0-18H48A8.9626,8.9626,0,0,1,57,132Z" style="fill:none;stroke:#000;stroke-linecap:round;stroke-linejoin:round;stroke-width:6px"/><line x1="33" y1="123" x2="33" y2="141" style="fill:none;stroke:#000;stroke-linecap:round;stroke-linejoin:round;stroke-width:6px"/><path d="M60.6,80.6a8.993,8.993,0,0,1,0,12.7L39.4,114.5a8.98,8.98,0,1,1-12.7-12.7L47.9,80.6A8.993,8.993,0,0,1,60.6,80.6Z" style="fill:none;stroke:#000;stroke-linecap:round;stroke-linejoin:round;stroke-width:6px"/><line x1="37.2" y1="91.2" x2="50" y2="104" style="fill:none;stroke:#000;stroke-linecap:round;stroke-linejoin:round;stroke-width:6px"/><rect width="144" height="144" style="fill:none"/></svg>