<svg xmlns="http://www.w3.org/2000/svg" viewBox="0 0 144 144"><path d="M45,39V90.2A43.3726,43.3726,0,0,0,69,129" style="fill:none;stroke:#000;stroke-linecap:round;stroke-linejoin:round;stroke-width:6px"/><path d="M141,66a8.9626,8.9626,0,0,1-9,9h-3V51h3a8.9626,8.9626,0,0,1,9,9Z" style="fill:none;stroke:#000;stroke-linecap:round;stroke-linejoin:round;stroke-width:6px"/><path d="M27,39H21A18.0529,18.0529,0,0,0,3,57V69A18.0529,18.0529,0,0,0,21,87h6c53.6,0,75.5,12,102,24V15C102.6,27,80.6,39,27,39Z" style="fill:none;stroke:#000;stroke-linecap:round;stroke-linejoin:round;stroke-width:6px"/><rect width="144" height="144" style="fill:none"/></svg>