<svg xmlns="http://www.w3.org/2000/svg" viewBox="0 0 144 144"><polygon points="140.9 45 3 45 72 3.1 140.9 45" style="fill:none;stroke:#000;stroke-linecap:round;stroke-linejoin:round;stroke-width:6px"/><line x1="72" y1="3.1" x2="48" y2="45" style="fill:none;stroke:#000;stroke-linecap:round;stroke-linejoin:round;stroke-width:6px"/><line x1="72" y1="3.1" x2="96.1" y2="45" style="fill:none;stroke:#000;stroke-linecap:round;stroke-linejoin:round;stroke-width:6px"/><path d="M45,45H3v3a21,21,0,0,0,42,0Z" style="fill:none;stroke:#000;stroke-linecap:round;stroke-linejoin:round;stroke-width:6px"/><path d="M93,45H51v3a21,21,0,0,0,42,0Z" style="fill:none;stroke:#000;stroke-linecap:round;stroke-linejoin:round;stroke-width:6px"/><path d="M141,45H99v3a21,21,0,0,0,42,0Z" style="fill:none;stroke:#000;stroke-linecap:round;stroke-linejoin:round;stroke-width:6px"/><rect x="63" y="69" width="18" height="30" style="fill:none;stroke:#000;stroke-linecap:round;stroke-linejoin:round;stroke-width:6px"/><rect x="63" y="123" width="18" height="18" style="fill:none;stroke:#000;stroke-linecap:round;stroke-linejoin:round;stroke-width:6px"/><path d="M27.7,100.2l2.4-5.4A22.7069,22.7069,0,0,1,51,81V99H33A14.4741,14.4741,0,0,0,27.7,100.2Z" style="fill:none;stroke:#000;stroke-linecap:round;stroke-linejoin:round;stroke-width:6px"/><line x1="21" y1="111" x2="42" y2="111" style="fill:none;stroke:#000;stroke-linecap:round;stroke-linejoin:round;stroke-width:6px"/><path d="M21,111A12.0353,12.0353,0,0,1,33,99h84a23.9424,23.9424,0,0,1-24,24H33A12.0353,12.0353,0,0,1,21,111Z" style="fill:none;stroke:#000;stroke-linecap:round;stroke-linejoin:round;stroke-width:6px"/><rect width="144" height="144" style="fill:none"/></svg>