<svg xmlns="http://www.w3.org/2000/svg" viewBox="0 0 144 144"><path d="M35.5,98.3c5.3-11.2,14.3-29.2,17-34.9C61.8,43.5,86.2,48,90.8,38.3,94.6,30.2,107.3,3,107.3,3" style="fill:none;stroke:#000;stroke-linecap:round;stroke-linejoin:round;stroke-width:6px"/><path d="M123.6,10.6S110.8,37.8,107,45.9c-5.2,11.1,15.1,24.4,5.2,45.5l-4.4,9.2" style="fill:none;stroke:#000;stroke-linecap:round;stroke-linejoin:round;stroke-width:6px"/><rect x="102.65" y="6.0179" width="17.9993" height="17.9993" transform="translate(50.6136 109.7053) rotate(-64.8547)" style="fill:none;stroke:#000;stroke-linecap:round;stroke-linejoin:round;stroke-width:5.999781158957754px"/><ellipse cx="89.7001" cy="68.1646" rx="6.0001" ry="12.0002" transform="translate(-10.1011 120.4355) rotate(-64.8751)" style="fill:none;stroke:#000;stroke-linecap:round;stroke-linejoin:round;stroke-width:6.000102853599211px"/><line x1="60.6" y1="102.6" x2="78.8" y2="63.1" style="fill:none;stroke:#000;stroke-linecap:round;stroke-linejoin:round;stroke-width:6px"/><line x1="100.5" y1="73.3" x2="87" y2="102.7" style="fill:none;stroke:#000;stroke-linecap:round;stroke-linejoin:round;stroke-width:6px"/><path d="M141,127.9C126,131,116.6,116,116.6,116h0s-7.1,12.3-21.7,12.3c-14,0-21.7-12.3-21.7-12.3h0s-7.1,12.3-21.7,12.3c-14,0-21.7-12.3-21.7-12.3h0s-12,15.3-26.7,12.1" style="fill:none;stroke:#000;stroke-linecap:round;stroke-linejoin:round;stroke-width:6px"/><path d="M141,103.9C126,107,116.6,92,116.6,92h0s-7.1,12.3-21.7,12.3c-14,0-21.7-12.3-21.7-12.3h0s-7.1,12.3-21.7,12.3c-14,0-21.7-12.3-21.7-12.3h0s-12,15.3-26.7,12.1" style="fill:none;stroke:#000;stroke-linecap:round;stroke-linejoin:round;stroke-width:6px"/><rect width="144" height="144" style="fill:none"/></svg>