<svg xmlns="http://www.w3.org/2000/svg" viewBox="0 0 144 144"><path d="M111,33H33V27A12.0353,12.0353,0,0,1,45,15H99a12.0353,12.0353,0,0,1,12,12Z" style="fill:none;stroke:#000;stroke-linejoin:round;stroke-width:6px"/><circle cx="72" cy="60" r="12" style="fill:none;stroke:#000;stroke-linejoin:round;stroke-width:6px"/><path d="M93,81H51c0,24,6,28.5,12,33.8V141H81V114.8C87.4,109.6,93,105,93,81Z" style="fill:none;stroke:#000;stroke-linejoin:round;stroke-width:6px"/><line x1="111" y1="33" x2="111" y2="144" style="fill:none;stroke:#000;stroke-linejoin:round;stroke-width:6px"/><line x1="33" y1="33" x2="33" y2="144" style="fill:none;stroke:#000;stroke-linejoin:round;stroke-width:6px"/><line x1="123.1" y1="93" x2="140.9" y2="93" style="fill:none;stroke:#000;stroke-linecap:round;stroke-linejoin:round;stroke-width:6px"/><line x1="123" y1="70.9" x2="138.9" y2="63.8" style="fill:none;stroke:#000;stroke-linecap:round;stroke-linejoin:round;stroke-width:6px"/><line x1="123" y1="114.9" x2="138.9" y2="122" style="fill:none;stroke:#000;stroke-linecap:round;stroke-linejoin:round;stroke-width:6px"/><line x1="20.9" y1="93" x2="3.1" y2="93" style="fill:none;stroke:#000;stroke-linecap:round;stroke-linejoin:round;stroke-width:6px"/><line x1="21" y1="70.9" x2="5.1" y2="63.8" style="fill:none;stroke:#000;stroke-linecap:round;stroke-linejoin:round;stroke-width:6px"/><line x1="21" y1="114.9" x2="5.1" y2="122" style="fill:none;stroke:#000;stroke-linecap:round;stroke-linejoin:round;stroke-width:6px"/><rect x="63" y="3" width="18" height="12" style="fill:none;stroke:#000;stroke-linejoin:round;stroke-width:6px"/><rect width="144" height="144" style="fill:none"/></svg>