<svg xmlns="http://www.w3.org/2000/svg" viewBox="0 0 144 144"><path d="M141,117a12.0353,12.0353,0,0,1-12,12H15A12.0353,12.0353,0,0,1,3,117V45A12.0353,12.0353,0,0,1,15,33H129a12.0353,12.0353,0,0,1,12,12Z" style="fill:none;stroke:#000;stroke-linejoin:round;stroke-width:6px"/><line x1="15" y1="144" x2="15" y2="129" style="fill:none;stroke:#000;stroke-linejoin:round;stroke-width:6px"/><line x1="129" y1="144" x2="129" y2="129" style="fill:none;stroke:#000;stroke-linejoin:round;stroke-width:6px"/><path d="M87,105a12.0353,12.0353,0,0,1-12,12H27a12.0353,12.0353,0,0,1-12-12V57A12.0353,12.0353,0,0,1,27,45H75A12.0353,12.0353,0,0,1,87,57Z" style="fill:none;stroke:#000;stroke-linejoin:round;stroke-width:6px"/><line x1="99" y1="33" x2="99" y2="129" style="fill:none;stroke:#000;stroke-linejoin:round;stroke-width:6px"/><rect x="111" y="105" width="18" height="12" style="fill:none;stroke:#000;stroke-linejoin:round;stroke-width:6px"/><line x1="24" y1="99" x2="78" y2="99" style="fill:none;stroke:#000;stroke-linejoin:round;stroke-width:6px"/><path d="M66,75c0,12-6.7,21-15,21S36,87,36,75Z" style="fill:none;stroke:#000;stroke-linejoin:round;stroke-width:6px"/><rect x="111" y="45" width="18" height="48" style="fill:none;stroke:#000;stroke-linejoin:round;stroke-width:6px"/><rect width="144" height="144" style="fill:none"/></svg>