<svg xmlns="http://www.w3.org/2000/svg" viewBox="0 0 144 144"><path d="M86.5,109.1A36.4823,36.4823,0,0,1,75,111,35.9773,35.9773,0,0,1,39,75V60" style="fill:none;stroke:#000;stroke-linecap:round;stroke-linejoin:round;stroke-width:6px"/><path d="M42.3,24A35.9841,35.9841,0,0,1,111,39V75a35.7814,35.7814,0,0,1-3.3,15" style="fill:none;stroke:#000;stroke-linecap:round;stroke-linejoin:round;stroke-width:6px"/><path d="M116.8,99A48.1642,48.1642,0,0,0,123,75V63" style="fill:none;stroke:#000;stroke-linecap:round;stroke-linejoin:round;stroke-width:6px"/><path d="M27,63V75a47.5709,47.5709,0,0,0,48,48,48.0625,48.0625,0,0,0,23.9-6.2" style="fill:none;stroke:#000;stroke-linecap:round;stroke-linejoin:round;stroke-width:6px"/><line x1="75" y1="123" x2="75" y2="144" style="fill:none;stroke:#000;stroke-linejoin:round;stroke-width:6px"/><line x1="6" y1="6" x2="138" y2="138" style="fill:none;stroke:#000;stroke-linecap:round;stroke-linejoin:round;stroke-width:6px"/><rect width="144" height="144" style="fill:none"/></svg>