<svg xmlns="http://www.w3.org/2000/svg" viewBox="0 0 144 144"><path d="M111,129a12.0353,12.0353,0,0,1-12,12H45a12.0353,12.0353,0,0,1-12-12V68a12.2955,12.2955,0,0,1,3.5-8.5L51,45H93l14.5,14.5A12.1153,12.1153,0,0,1,111,68Z" style="fill:none;stroke:#000;stroke-linejoin:round;stroke-width:6px"/><rect x="51" y="27" width="42" height="18" style="fill:none;stroke:#000;stroke-linejoin:round;stroke-width:6px"/><line x1="34.1" y1="63" x2="109.9" y2="63" style="fill:none;stroke:#000;stroke-linejoin:round;stroke-width:6px"/><path d="M39,27A18.0529,18.0529,0,0,1,57,9H87a18.0529,18.0529,0,0,1,18,18Z" style="fill:none;stroke:#000;stroke-linejoin:round;stroke-width:6px"/><line x1="111" y1="66.2" x2="120" y2="36" style="fill:none;stroke:#000;stroke-linecap:round;stroke-linejoin:round;stroke-width:6px"/><line x1="33" y1="66.2" x2="24" y2="36" style="fill:none;stroke:#000;stroke-linecap:round;stroke-linejoin:round;stroke-width:6px"/><rect width="144" height="144" style="fill:none"/></svg>