<svg xmlns="http://www.w3.org/2000/svg" viewBox="0 0 144 144"><path d="M56.6,99l-38,10.5A24.0067,24.0067,0,0,0,3,132v9H141v-9a24.0067,24.0067,0,0,0-15.6-22.5L87.5,99" style="fill:none;stroke:#000;stroke-linecap:round;stroke-linejoin:round;stroke-width:6px"/><path d="M54,69c0-3.3,2.7-3,6-3s6-.3,6,3" style="fill:none;stroke:#000;stroke-linecap:round;stroke-linejoin:round;stroke-width:6px"/><path d="M78,69c0-3.3,2.7-3,6-3s6-.3,6,3" style="fill:none;stroke:#000;stroke-linecap:round;stroke-linejoin:round;stroke-width:6px"/><path d="M102,48.3V57c9,0,9,18,0,18,0,18-21,30.2-30,30.2S42,93,42,75c-9,0-9-18,0-18V48.3" style="fill:none;stroke:#000;stroke-linecap:round;stroke-linejoin:round;stroke-width:6px"/><path d="M45,102.2V111a12.0353,12.0353,0,0,0,12,12H87a12.0353,12.0353,0,0,0,12-12v-8.8" style="fill:none;stroke:#000;stroke-linecap:round;stroke-linejoin:round;stroke-width:6px"/><line x1="27" y1="107.2" x2="27" y2="141" style="fill:none;stroke:#000;stroke-linecap:round;stroke-linejoin:round;stroke-width:6px"/><line x1="117" y1="107.2" x2="117" y2="141" style="fill:none;stroke:#000;stroke-linecap:round;stroke-linejoin:round;stroke-width:6px"/><path d="M80.6,7.4C92.7,11.2,102,20.3,102,33.7l9,5.3s-3,15-39,15S33,39,33,39l9-5.3c0-13.4,9.3-22.5,21.4-26.3" style="fill:none;stroke:#000;stroke-linecap:round;stroke-linejoin:round;stroke-width:6px"/><polyline points="77.7 38.8 81 3 63 3 66.3 38.8" style="fill:none;stroke:#000;stroke-linecap:round;stroke-linejoin:round;stroke-width:6px"/><path d="M102,33.7C94.4,37,83.6,39,72,39s-22.4-2-30-5.3" style="fill:none;stroke:#000;stroke-linecap:round;stroke-linejoin:round;stroke-width:6px"/><rect width="144" height="144" style="fill:none"/></svg>