<svg xmlns="http://www.w3.org/2000/svg" viewBox="0 0 144 144"><path d="M27,128.5c-6.9,0-12.9-7.5-14.1-14.3L3,57H141l-9.9,57.2c-1.2,6.8-7.1,14.6-14.1,14.6" style="fill:none;stroke:#000;stroke-linecap:round;stroke-linejoin:round;stroke-width:6px"/><circle cx="42" cy="126" r="15" style="fill:none;stroke:#000;stroke-linecap:round;stroke-linejoin:round;stroke-width:6px"/><circle cx="102" cy="126" r="15" style="fill:none;stroke:#000;stroke-linecap:round;stroke-linejoin:round;stroke-width:6px"/><line x1="57" y1="129" x2="87" y2="129" style="fill:none;stroke:#000;stroke-linecap:round;stroke-linejoin:round;stroke-width:6px"/><path d="M135,56.9c0-14.8-9.4-23.9-21-23.9a21.0939,21.0939,0,0,0-9.7,2.4,32.9593,32.9593,0,0,0-64.6,0A21.0939,21.0939,0,0,0,30,33C18.4,33,9,42,9,57" style="fill:none;stroke:#000;stroke-linejoin:round;stroke-width:6px"/><rect width="144" height="144" style="fill:none"/></svg>