<svg xmlns="http://www.w3.org/2000/svg" viewBox="0 0 144 144"><polygon points="27 3 45 18 45 57 27 42 27 3" style="fill:none;stroke:#000;stroke-linecap:round;stroke-linejoin:round;stroke-width:6px"/><polygon points="111 3 93 18 93 57 111 42 111 3" style="fill:none;stroke:#000;stroke-linecap:round;stroke-linejoin:round;stroke-width:6px"/><line x1="69" y1="3" x2="69" y2="60" style="fill:none;stroke:#000;stroke-linecap:round;stroke-linejoin:round;stroke-width:6px"/><path d="M69,27c-11.6,0-24,5.4-24,12v75c0,11.6,24,27,24,27s24-15.4,24-27V39C93,32.4,80.6,27,69,27Z" style="fill:none;stroke:#000;stroke-linecap:round;stroke-linejoin:round;stroke-width:6px"/><path d="M84,128.8a39.0557,39.0557,0,0,0-15-3.4,39.0557,39.0557,0,0,0-15,3.4" style="fill:none;stroke:#000;stroke-linecap:round;stroke-linejoin:round;stroke-width:6px"/><rect width="144" height="144" style="fill:none"/></svg>