<svg xmlns="http://www.w3.org/2000/svg" viewBox="0 0 144 144"><path d="M69,3H45A23.9424,23.9424,0,0,0,21,27V45H87V99a23.9424,23.9424,0,0,1-24,24H12a9,9,0,0,0,0,18H141V12a8.9626,8.9626,0,0,0-9-9Z" style="fill:none;stroke:#000;stroke-linejoin:round;stroke-width:6px"/><line x1="81" y1="27" x2="81" y2="3" style="fill:none;stroke:#000;stroke-linecap:round;stroke-linejoin:round;stroke-width:6px"/><line x1="99" y1="27" x2="99" y2="3" style="fill:none;stroke:#000;stroke-linecap:round;stroke-linejoin:round;stroke-width:6px"/><line x1="117" y1="27" x2="117" y2="3" style="fill:none;stroke:#000;stroke-linecap:round;stroke-linejoin:round;stroke-width:6px"/><line x1="51" y1="63" x2="51" y2="45" style="fill:none;stroke:#000;stroke-linejoin:round;stroke-width:6px"/><line x1="39" y1="63" x2="39" y2="45" style="fill:none;stroke:#000;stroke-linejoin:round;stroke-width:6px"/><path d="M39,63H51L66,78s-6,30-21,30S24,78,24,78Z" style="fill:none;stroke:#000;stroke-linejoin:round;stroke-width:6px"/><line x1="45" y1="108" x2="45" y2="63" style="fill:none;stroke:#000;stroke-linejoin:round;stroke-width:6px"/><circle cx="114" cy="108" r="15" style="fill:none;stroke:#000;stroke-linejoin:round;stroke-width:6px"/><rect width="144" height="144" style="fill:none"/></svg>