<svg xmlns="http://www.w3.org/2000/svg" viewBox="0 0 144 144"><path d="M113.7,82a8.6317,8.6317,0,0,1,0,12.1L92.6,115.2a8.6317,8.6317,0,0,1-12.1,0L29.3,63.9a8.6317,8.6317,0,0,1,0-12.1L50.4,30.7a8.6317,8.6317,0,0,1,12.1,0Z" style="fill:none;stroke:#000;stroke-linecap:round;stroke-linejoin:round;stroke-width:6px"/><polyline points="122.1 4.9 89.8 12.4 106 41.3" style="fill:none;stroke:#000;stroke-linecap:round;stroke-linejoin:round;stroke-width:6px"/><path d="M89.8,12.6A61.1567,61.1567,0,0,1,116,28.2a63.0147,63.0147,0,0,1,17.3,56.6" style="fill:none;stroke:#000;stroke-linecap:round;stroke-linejoin:round;stroke-width:6px"/><polyline points="21 141 53.3 133.5 37.1 104.6" style="fill:none;stroke:#000;stroke-linecap:round;stroke-linejoin:round;stroke-width:6px"/><path d="M53.4,133.4a61.1567,61.1567,0,0,1-26.2-15.6A63.16,63.16,0,0,1,9.8,61.2" style="fill:none;stroke:#000;stroke-linecap:round;stroke-linejoin:round;stroke-width:6px"/><rect width="144" height="144" style="fill:none"/></svg>