<svg xmlns="http://www.w3.org/2000/svg" viewBox="0 0 144 144"><path d="M87,87v42a12.0353,12.0353,0,0,1-12,12H33a12.0353,12.0353,0,0,1-12-12V39A12.0353,12.0353,0,0,1,33,27H51" style="fill:none;stroke:#000;stroke-linecap:round;stroke-linejoin:round;stroke-width:6px"/><line x1="51" y1="51" x2="21" y2="51" style="fill:none;stroke:#000;stroke-linecap:round;stroke-linejoin:round;stroke-width:6px"/><line x1="87" y1="117" x2="21" y2="117" style="fill:none;stroke:#000;stroke-linecap:round;stroke-linejoin:round;stroke-width:6px"/><line x1="45" y1="39" x2="51" y2="39" style="fill:none;stroke:#000;stroke-linecap:round;stroke-linejoin:round;stroke-width:6px"/><path d="M57,129a3.0085,3.0085,0,0,1-3,3h0a3.0085,3.0085,0,0,1-3-3h0a2.9465,2.9465,0,0,1,3-3h0a2.9465,2.9465,0,0,1,3,3Z" style="fill:none;stroke:#000;stroke-linejoin:round;stroke-width:6px"/><path d="M123,56V39c0-10.5-5.2-20.2-14.3-24,0-5.4-4.4-9-9.7-9-5.4,0-9.7,3.6-9.7,9C80.2,18.8,75,28.5,75,39V56c0,4.3-4.7,7-9,7h66C127.7,63,123,60.3,123,56Z" style="fill:none;stroke:#000;stroke-linecap:round;stroke-linejoin:round;stroke-width:6px"/><path d="M111,63a12,12,0,0,1-24,0" style="fill:none;stroke:#000;stroke-linecap:round;stroke-linejoin:round;stroke-width:6px"/><rect width="144" height="144" style="fill:none"/></svg>