<svg xmlns="http://www.w3.org/2000/svg" viewBox="0 0 144 144"><path d="M87,87v42a12.0353,12.0353,0,0,1-12,12H33a12.0353,12.0353,0,0,1-12-12V39A12.0353,12.0353,0,0,1,33,27H51" style="fill:none;stroke:#000;stroke-linecap:round;stroke-linejoin:round;stroke-width:6px"/><line x1="51" y1="51" x2="21" y2="51" style="fill:none;stroke:#000;stroke-linecap:round;stroke-linejoin:round;stroke-width:6px"/><line x1="87" y1="117" x2="21" y2="117" style="fill:none;stroke:#000;stroke-linecap:round;stroke-linejoin:round;stroke-width:6px"/><line x1="45" y1="39" x2="51" y2="39" style="fill:none;stroke:#000;stroke-linecap:round;stroke-linejoin:round;stroke-width:6px"/><path d="M57,129a3.0086,3.0086,0,0,1-3,3h0a3.0086,3.0086,0,0,1-3-3h0a2.9465,2.9465,0,0,1,2.892-3q.054-.001.108,0h0a2.9465,2.9465,0,0,1,3,2.892Q57.0011,128.946,57,129Z" style="fill:none;stroke:#000;stroke-linejoin:round;stroke-width:6px"/><polyline points="63 36 102 9 141 36" style="fill:none;stroke:#000;stroke-linecap:round;stroke-linejoin:round;stroke-width:6px"/><polyline points="75 27.7 75 69 129 69 129 27.7" style="fill:none;stroke:#000;stroke-linecap:round;stroke-linejoin:round;stroke-width:6px"/><polyline points="93 69 93 45 111 45 111 69" style="fill:none;stroke:#000;stroke-linecap:round;stroke-linejoin:round;stroke-width:6px"/><rect width="144" height="144" style="fill:none"/></svg>