<svg xmlns="http://www.w3.org/2000/svg" viewBox="0 0 144 144"><rect x="27" y="27" width="84" height="54" style="fill:none;stroke:#000;stroke-linecap:round;stroke-linejoin:round;stroke-width:6px"/><line x1="54" y1="15" x2="84" y2="15" style="fill:none;stroke:#000;stroke-linecap:round;stroke-linejoin:round;stroke-width:6px"/><polygon points="42 96 36 96 36 102 42 102 42 96" style="fill:#000"/><polygon points="54 96 48 96 48 102 54 102 54 96" style="fill:#000"/><polygon points="66 96 60 96 60 102 66 102 66 96" style="fill:#000"/><polygon points="42 108 36 108 36 114 42 114 42 108" style="fill:#000"/><polygon points="54 108 48 108 48 114 54 114 54 108" style="fill:#000"/><polygon points="66 108 60 108 60 114 66 114 66 108" style="fill:#000"/><polygon points="42 120 36 120 36 126 42 126 42 120" style="fill:#000"/><polygon points="54 120 48 120 48 126 54 126 54 120" style="fill:#000"/><polygon points="66 120 60 120 60 126 66 126 66 120" style="fill:#000"/><polygon points="78 96 72 96 72 102 78 102 78 96" style="fill:#000"/><polygon points="78 108 72 108 72 114 78 114 78 108" style="fill:#000"/><polygon points="78 120 72 120 72 126 78 126 78 120" style="fill:#000"/><polygon points="90 96 84 96 84 102 90 102 90 96" style="fill:#000"/><polygon points="90 108 84 108 84 114 90 114 90 108" style="fill:#000"/><polygon points="90 120 84 120 84 126 90 126 90 120" style="fill:#000"/><polygon points="102 96 96 96 96 102 102 102 102 96" style="fill:#000"/><polygon points="102 108 96 108 96 114 102 114 102 108" style="fill:#000"/><polygon points="102 120 96 120 96 126 102 126 102 120" style="fill:#000"/><path d="M123,123a18.0529,18.0529,0,0,1-18,18H33a18.0529,18.0529,0,0,1-18-18V12a8.9626,8.9626,0,0,1,9-9h90a8.9626,8.9626,0,0,1,9,9Z" style="fill:none;stroke:#000;stroke-linecap:round;stroke-linejoin:round;stroke-width:6px"/><rect width="144" height="144" style="fill:none"/></svg>