<svg xmlns="http://www.w3.org/2000/svg" viewBox="0 0 144 144"><path d="M111,129a12.0353,12.0353,0,0,1-12,12H45a12.0353,12.0353,0,0,1-12-12V15A12.0353,12.0353,0,0,1,45,3H99a12.0353,12.0353,0,0,1,12,12Z" style="fill:none;stroke:#000;stroke-linecap:round;stroke-linejoin:round;stroke-width:6px"/><line x1="111" y1="27" x2="33" y2="27" style="fill:none;stroke:#000;stroke-linecap:round;stroke-linejoin:round;stroke-width:6px"/><line x1="111" y1="117" x2="33" y2="117" style="fill:none;stroke:#000;stroke-linecap:round;stroke-linejoin:round;stroke-width:6px"/><line x1="57" y1="15" x2="87" y2="15" style="fill:none;stroke:#000;stroke-linecap:round;stroke-linejoin:round;stroke-width:6px"/><path d="M75,129a2.9465,2.9465,0,0,1-3,3h0a2.9465,2.9465,0,0,1-3-3h0a2.9465,2.9465,0,0,1,3-3h0a2.9465,2.9465,0,0,1,3,3Z" style="fill:none;stroke:#000;stroke-linejoin:round;stroke-width:6px"/><polygon points="99 99 45 99 72 40.6 99 99" style="fill:none;stroke:#000;stroke-linecap:round;stroke-linejoin:round;stroke-width:6px"/><line x1="72" y1="69" x2="72" y2="81" style="fill:none;stroke:#000;stroke-linecap:round;stroke-linejoin:round;stroke-width:6px"/><path d="M72,85.6a2.9465,2.9465,0,0,0-3,3,3,3,0,0,0,6,0,3.0085,3.0085,0,0,0-3-3Z"/><rect width="144" height="144" style="fill:none"/></svg>