<svg xmlns="http://www.w3.org/2000/svg" viewBox="0 0 144 144"><path d="M111,123a18.0529,18.0529,0,0,1-18,18H45a18.0529,18.0529,0,0,1-18-18V27A23.9424,23.9424,0,0,1,51,3H87a23.9424,23.9424,0,0,1,24,24Z" style="fill:none;stroke:#000;stroke-linecap:round;stroke-linejoin:round;stroke-width:6px"/><rect x="39" y="27" width="60" height="54" style="fill:none;stroke:#000;stroke-linecap:round;stroke-linejoin:round;stroke-width:6px"/><line x1="57" y1="15" x2="81" y2="15" style="fill:none;stroke:#000;stroke-linecap:round;stroke-linejoin:round;stroke-width:6px"/><polygon points="54 96 48 96 48 102 54 102 54 96" style="fill:#000"/><polygon points="72 96 66 96 66 102 72 102 72 96" style="fill:#000"/><polygon points="90 96 84 96 84 102 90 102 90 96" style="fill:#000"/><polygon points="54 108 48 108 48 114 54 114 54 108" style="fill:#000"/><polygon points="72 108 66 108 66 114 72 114 72 108" style="fill:#000"/><polygon points="90 108 84 108 84 114 90 114 90 108" style="fill:#000"/><polygon points="54 120 48 120 48 126 54 126 54 120" style="fill:#000"/><polygon points="72 120 66 120 66 126 72 126 72 120" style="fill:#000"/><polygon points="90 120 84 120 84 126 90 126 90 120" style="fill:#000"/><rect width="144" height="144" style="fill:none"/></svg>