<svg xmlns="http://www.w3.org/2000/svg" viewBox="0 0 144 144"><polygon points="60 96 54 96 54 102 60 102 60 96" style="fill:#000"/><polygon points="75 96 69 96 69 102 75 102 75 96" style="fill:#000"/><polygon points="90 96 84 96 84 102 90 102 90 96" style="fill:#000"/><polygon points="60 108 54 108 54 114 60 114 60 108" style="fill:#000"/><polygon points="75 108 69 108 69 114 75 114 75 108" style="fill:#000"/><polygon points="90 108 84 108 84 114 90 114 90 108" style="fill:#000"/><polygon points="60 120 54 120 54 126 60 126 60 120" style="fill:#000"/><polygon points="75 120 69 120 69 126 75 126 75 120" style="fill:#000"/><polygon points="90 120 84 120 84 126 90 126 90 120" style="fill:#000"/><path d="M111,129a12.0353,12.0353,0,0,1-12,12H45a12.0353,12.0353,0,0,1-12-12V33A12.0353,12.0353,0,0,1,45,21H99a12.0353,12.0353,0,0,1,12,12Z" style="fill:none;stroke:#000;stroke-linejoin:round;stroke-width:6px"/><rect x="45" y="39" width="54" height="42" style="fill:none;stroke:#000;stroke-linejoin:round;stroke-width:6px"/><line x1="45" y1="21" x2="45" y2="3" style="fill:none;stroke:#000;stroke-linecap:round;stroke-linejoin:round;stroke-width:6px"/><rect width="144" height="144" style="fill:none"/></svg>