<svg xmlns="http://www.w3.org/2000/svg" viewBox="0 0 144 144"><path d="M120.8,77.5a8.993,8.993,0,0,1,0,12.7L91.1,119.9a8.993,8.993,0,0,1-12.7,0L19,60.5a8.993,8.993,0,0,1,0-12.7L48.7,18.1a8.993,8.993,0,0,1,12.7,0Z" style="fill:none;stroke:#000;stroke-linecap:round;stroke-linejoin:round;stroke-width:6px"/><line x1="29.6" y1="71.1" x2="72" y2="28.7" style="fill:none;stroke:#000;stroke-linecap:round;stroke-linejoin:round;stroke-width:6px"/><line x1="72" y1="113.5" x2="114.5" y2="71.1" style="fill:none;stroke:#000;stroke-linecap:round;stroke-linejoin:round;stroke-width:6px"/><line x1="33.9" y1="49.9" x2="50.8" y2="32.9" style="fill:none;stroke:#000;stroke-linecap:round;stroke-linejoin:round;stroke-width:6px"/><polyline points="104.4 9 88.8 21 104.4 33" style="fill:none;stroke:#000;stroke-linecap:round;stroke-linejoin:round;stroke-width:6px"/><path d="M89.1,21.2c20.8-3.9,41.2,6.7,51.9,23.8" style="fill:none;stroke:#000;stroke-linecap:round;stroke-linejoin:round;stroke-width:6px"/><polyline points="43.5 135 59.1 123 43.5 111" style="fill:none;stroke:#000;stroke-linecap:round;stroke-linejoin:round;stroke-width:6px"/><path d="M58.9,122.8C38.1,126.7,17.7,116.1,7,99" style="fill:none;stroke:#000;stroke-linecap:round;stroke-linejoin:round;stroke-width:6px"/><rect width="144" height="144" style="fill:none"/></svg>