<svg xmlns="http://www.w3.org/2000/svg" viewBox="0 0 144 144"><path d="M105,99a6.0176,6.0176,0,0,1-6,6H45a6.0176,6.0176,0,0,1-6-6V33a6.0176,6.0176,0,0,1,6-6H99a6.0176,6.0176,0,0,1,6,6Z" style="fill:none;stroke:#000;stroke-linecap:round;stroke-linejoin:round;stroke-width:6px"/><path d="M117,123a18.0529,18.0529,0,0,1-18,18H45a18.0529,18.0529,0,0,1-18-18V21A18.0529,18.0529,0,0,1,45,3H99a18.0529,18.0529,0,0,1,18,18Z" style="fill:none;stroke:#000;stroke-linecap:round;stroke-linejoin:round;stroke-width:6px"/><line x1="57" y1="15" x2="87" y2="15" style="fill:none;stroke:#000;stroke-linecap:round;stroke-linejoin:round;stroke-width:6px"/><polygon points="54 120 48 120 48 126 54 126 54 120" style="fill:#000"/><polygon points="96 120 90 120 90 126 96 126 96 120" style="fill:#000"/><rect x="63" y="117" width="18" height="12" style="fill:none;stroke:#000;stroke-linecap:round;stroke-linejoin:round;stroke-width:6px"/><rect width="144" height="144" style="fill:none"/></svg>