<svg xmlns="http://www.w3.org/2000/svg" viewBox="0 0 144 144"><path d="M69,87v42a12.0353,12.0353,0,0,1-12,12H15A12.0353,12.0353,0,0,1,3,129V39A12.0353,12.0353,0,0,1,15,27H33" style="fill:none;stroke:#000;stroke-linecap:round;stroke-linejoin:round;stroke-width:6px"/><line x1="33" y1="51" x2="3" y2="51" style="fill:none;stroke:#000;stroke-linecap:round;stroke-linejoin:round;stroke-width:6px"/><line x1="69" y1="117" x2="3" y2="117" style="fill:none;stroke:#000;stroke-linecap:round;stroke-linejoin:round;stroke-width:6px"/><line x1="27" y1="39" x2="33" y2="39" style="fill:none;stroke:#000;stroke-linecap:round;stroke-linejoin:round;stroke-width:6px"/><path d="M39,129a2.9465,2.9465,0,0,1-3,3h0a2.9465,2.9465,0,0,1-3-3h0a2.9465,2.9465,0,0,1,3-3h0a2.9465,2.9465,0,0,1,3,3Z" style="fill:none;stroke:#000;stroke-linejoin:round;stroke-width:6px"/><polyline points="121.4 69 109.3 26.8 93.2 55 77.2 48.9 65.1 69" style="fill:none;stroke:#000;stroke-linejoin:round;stroke-width:6px"/><path d="M123,69a12.0353,12.0353,0,0,0,12-12V21A12.0353,12.0353,0,0,0,123,9H63A12.0353,12.0353,0,0,0,51,21V57A12.0353,12.0353,0,0,0,63,69Z" style="fill:none;stroke:#000;stroke-linejoin:round;stroke-width:6px"/><circle cx="77.2" cy="30.8" r="6" style="fill:none;stroke:#000;stroke-linejoin:round;stroke-width:6px"/><rect width="144" height="144" style="fill:none"/></svg>