<svg xmlns="http://www.w3.org/2000/svg" viewBox="0 0 144 144"><path d="M111.7,78.6l2.5,2.5a8.6317,8.6317,0,0,1,0,12.1L93.1,114.3a8.6317,8.6317,0,0,1-12.1,0L29.8,63a8.6317,8.6317,0,0,1,0-12.1L50.9,29.8a8.6317,8.6317,0,0,1,12.1,0l6.4,6.4" style="fill:none;stroke:#000;stroke-linecap:round;stroke-linejoin:round;stroke-width:6px"/><polyline points="21.5 140.1 53.8 132.6 37.6 103.7" style="fill:none;stroke:#000;stroke-linecap:round;stroke-linejoin:round;stroke-width:6px"/><path d="M53.8,132.4a61.1567,61.1567,0,0,1-26.2-15.6A63.0147,63.0147,0,0,1,10.3,60.2" style="fill:none;stroke:#000;stroke-linecap:round;stroke-linejoin:round;stroke-width:6px"/><rect x="81" y="27" width="54" height="42" style="fill:none;stroke:#000;stroke-linecap:round;stroke-linejoin:round;stroke-width:6px"/><path d="M93,18a15,15,0,0,1,30,0v9H93Z" style="fill:none;stroke:#000;stroke-linecap:round;stroke-linejoin:round;stroke-width:6px"/><circle cx="108" cy="48" r="3" style="fill:none;stroke:#000;stroke-linecap:round;stroke-linejoin:round;stroke-width:6px"/><rect width="144" height="144" style="fill:none"/></svg>