<svg xmlns="http://www.w3.org/2000/svg" viewBox="0 0 144 144"><path d="M87,84v45a12.0353,12.0353,0,0,1-12,12H33a12.0353,12.0353,0,0,1-12-12V39A12.0353,12.0353,0,0,1,33,27H51" style="fill:none;stroke:#000;stroke-linecap:round;stroke-linejoin:round;stroke-width:6px"/><line x1="51" y1="51" x2="21" y2="51" style="fill:none;stroke:#000;stroke-linecap:round;stroke-linejoin:round;stroke-width:6px"/><line x1="87" y1="117" x2="21" y2="117" style="fill:none;stroke:#000;stroke-linecap:round;stroke-linejoin:round;stroke-width:6px"/><line x1="45" y1="39" x2="51" y2="39" style="fill:none;stroke:#000;stroke-linecap:round;stroke-linejoin:round;stroke-width:6px"/><path d="M57,129a3.0085,3.0085,0,0,1-3,3h0a3.0085,3.0085,0,0,1-3-3h0a2.9465,2.9465,0,0,1,3-3h0a2.9465,2.9465,0,0,1,3,3Z" style="fill:none;stroke:#000;stroke-linejoin:round;stroke-width:6px"/><path d="M118.3,23.6a50.8634,50.8634,0,0,0-56.6,0" style="fill:none;stroke:#000;stroke-linecap:round;stroke-linejoin:round;stroke-width:6px"/><path d="M111.6,33.5A38.9794,38.9794,0,0,0,90,27a38.2739,38.2739,0,0,0-21.6,6.6" style="fill:none;stroke:#000;stroke-linecap:round;stroke-linejoin:round;stroke-width:6px"/><path d="M105,43.5A26.5233,26.5233,0,0,0,90,39a27.3168,27.3168,0,0,0-15,4.5" style="fill:none;stroke:#000;stroke-linecap:round;stroke-linejoin:round;stroke-width:6px"/><circle cx="90" cy="60" r="9" style="fill:none;stroke:#000;stroke-linecap:round;stroke-linejoin:round;stroke-width:6px"/><rect width="144" height="144" style="fill:none"/></svg>