<svg xmlns="http://www.w3.org/2000/svg" viewBox="0 0 144 144"><path d="M105,96v33a12.0353,12.0353,0,0,1-12,12H39a12.0353,12.0353,0,0,1-12-12V15A12.0353,12.0353,0,0,1,39,3H93a12.0353,12.0353,0,0,1,12,12V39" style="fill:none;stroke:#000;stroke-linecap:round;stroke-linejoin:round;stroke-width:6px"/><line x1="27" y1="27" x2="105" y2="27" style="fill:none;stroke:#000;stroke-linecap:round;stroke-linejoin:round;stroke-width:6px"/><line x1="27" y1="117" x2="105" y2="117" style="fill:none;stroke:#000;stroke-linecap:round;stroke-linejoin:round;stroke-width:6px"/><line x1="81" y1="15" x2="51" y2="15" style="fill:none;stroke:#000;stroke-linecap:round;stroke-linejoin:round;stroke-width:6px"/><path d="M66,126a3.0085,3.0085,0,0,1,3,3h0a2.9465,2.9465,0,0,1-3,3h0a2.9465,2.9465,0,0,1-3-3h0a3.0085,3.0085,0,0,1,3-3Z" style="fill:none;stroke:#000;stroke-linecap:round;stroke-linejoin:round;stroke-width:6px"/><polygon points="96 84 81 90 87 75 129 33 138 42 96 84" style="fill:none;stroke:#000;stroke-linecap:round;stroke-linejoin:round;stroke-width:6px"/><line x1="87" y1="75" x2="96" y2="84" style="fill:none;stroke:#000;stroke-linecap:round;stroke-linejoin:round;stroke-width:6px"/><rect width="144" height="144" style="fill:none"/></svg>