<svg xmlns="http://www.w3.org/2000/svg" viewBox="0 0 144 144"><line x1="111" y1="27" x2="33" y2="27" style="fill:none;stroke:#000;stroke-linecap:round;stroke-linejoin:round;stroke-width:6px"/><line x1="111" y1="117" x2="33" y2="117" style="fill:none;stroke:#000;stroke-linecap:round;stroke-linejoin:round;stroke-width:6px"/><line x1="57" y1="15" x2="87" y2="15" style="fill:none;stroke:#000;stroke-linecap:round;stroke-linejoin:round;stroke-width:6px"/><path d="M96,78.2,78,91.1,54,78.2,33,91v38a12.0353,12.0353,0,0,0,12,12H99a12.0353,12.0353,0,0,0,12-12V83.6Z" style="fill:none;stroke:#000;stroke-linecap:round;stroke-linejoin:round;stroke-width:6px"/><path d="M52.6,54.4l25.3,12L96.5,51,111,55.9V15A12.0353,12.0353,0,0,0,99,3H45A12.0353,12.0353,0,0,0,33,15V66.1Z" style="fill:none;stroke:#000;stroke-linecap:round;stroke-linejoin:round;stroke-width:6px"/><line x1="18" y1="69" x2="3" y2="69" style="fill:none;stroke:#000;stroke-linecap:round;stroke-linejoin:round;stroke-width:6px"/><line x1="15" y1="51" x2="3" y2="39" style="fill:none;stroke:#000;stroke-linecap:round;stroke-linejoin:round;stroke-width:6px"/><line x1="15" y1="87" x2="3" y2="99" style="fill:none;stroke:#000;stroke-linecap:round;stroke-linejoin:round;stroke-width:6px"/><line x1="126" y1="69" x2="141" y2="69" style="fill:none;stroke:#000;stroke-linecap:round;stroke-linejoin:round;stroke-width:6px"/><line x1="129" y1="51" x2="141" y2="39" style="fill:none;stroke:#000;stroke-linecap:round;stroke-linejoin:round;stroke-width:6px"/><line x1="129" y1="87" x2="141" y2="99" style="fill:none;stroke:#000;stroke-linecap:round;stroke-linejoin:round;stroke-width:6px"/><path d="M75,129a2.9465,2.9465,0,0,1-3,3h0a2.9465,2.9465,0,0,1-3-3h0a2.9465,2.9465,0,0,1,3-3h0a2.9465,2.9465,0,0,1,3,3Z" style="fill:none;stroke:#000;stroke-linejoin:round;stroke-width:6px"/><rect width="144" height="144" style="fill:none"/></svg>