<svg xmlns="http://www.w3.org/2000/svg" viewBox="0 0 144 144"><path d="M93,84v45a12.0353,12.0353,0,0,1-12,12H39a12.0353,12.0353,0,0,1-12-12V39A12.0353,12.0353,0,0,1,39,27H57" style="fill:none;stroke:#000;stroke-linecap:round;stroke-linejoin:round;stroke-width:6px"/><line x1="57" y1="51" x2="27" y2="51" style="fill:none;stroke:#000;stroke-linecap:round;stroke-linejoin:round;stroke-width:6px"/><line x1="93" y1="117" x2="27" y2="117" style="fill:none;stroke:#000;stroke-linecap:round;stroke-linejoin:round;stroke-width:6px"/><line x1="51" y1="39" x2="57" y2="39" style="fill:none;stroke:#000;stroke-linecap:round;stroke-linejoin:round;stroke-width:6px"/><path d="M63,129a3.0085,3.0085,0,0,1-3,3h0a3.0085,3.0085,0,0,1-3-3h0a2.9465,2.9465,0,0,1,3-3h0a2.9465,2.9465,0,0,1,3,3Z" style="fill:none;stroke:#000;stroke-linejoin:round;stroke-width:6px"/><circle cx="93" cy="45" r="24" style="fill:none;stroke:#000;stroke-linejoin:round;stroke-width:6px"/><line x1="110" y1="62" x2="129" y2="81" style="fill:none;stroke:#000;stroke-linecap:round;stroke-linejoin:round;stroke-width:6px"/><rect width="144" height="144" style="fill:none"/></svg>