<svg xmlns="http://www.w3.org/2000/svg" viewBox="0 0 144 144"><path d="M93,87v42a12.0353,12.0353,0,0,1-12,12H39a12.0353,12.0353,0,0,1-12-12V39A12.0353,12.0353,0,0,1,39,27H57" style="fill:none;stroke:#000;stroke-linecap:round;stroke-linejoin:round;stroke-width:6px"/><line x1="57" y1="51" x2="27" y2="51" style="fill:none;stroke:#000;stroke-linecap:round;stroke-linejoin:round;stroke-width:6px"/><line x1="93" y1="117" x2="27" y2="117" style="fill:none;stroke:#000;stroke-linecap:round;stroke-linejoin:round;stroke-width:6px"/><line x1="51" y1="39" x2="57" y2="39" style="fill:none;stroke:#000;stroke-linecap:round;stroke-linejoin:round;stroke-width:6px"/><path d="M63,129a2.9465,2.9465,0,0,1-3,3h0a2.9465,2.9465,0,0,1-3-3h0a2.9465,2.9465,0,0,1,3-3h0a2.9465,2.9465,0,0,1,3,3Z" style="fill:none;stroke:#000;stroke-linejoin:round;stroke-width:6px"/><path d="M87,66a9.2957,9.2957,0,0,1-9,9,9,9,0,0,1,0-18h9Z" style="fill:none;stroke:#000;stroke-linejoin:round;stroke-width:6px"/><path d="M123,47.9a9.2957,9.2957,0,0,1-9,9,9,9,0,0,1,0-18h9Z" style="fill:none;stroke:#000;stroke-linejoin:round;stroke-width:6px"/><polyline points="87 59.9 87 19.7 123 3 123 41.9" style="fill:none;stroke:#000;stroke-linejoin:round;stroke-width:6px"/><rect width="144" height="144" style="fill:none"/></svg>