<svg xmlns="http://www.w3.org/2000/svg" viewBox="0 0 144.0228 144"><path d="M81.4,75.3,97.8,58.9,85.1,46.1,68.7,62.5c-4.2,4.2-27.6,2.1-36.1,10.6L3.3,102.4c-4.2,4.2,33.9,42.4,38.2,38.2l29.3-29.3C79.3,102.9,77.2,79.5,81.4,75.3Z" transform="translate(0.0228)" style="fill:none;stroke:#000;stroke-linecap:round;stroke-linejoin:round;stroke-width:6px"/><line x1="76.6228" y1="54.6" x2="89.4228" y2="67.3" style="fill:none;stroke:#000;stroke-linecap:round;stroke-linejoin:round;stroke-width:6px"/><line x1="30.1228" y1="75.8" x2="68.1228" y2="114" style="fill:none;stroke:#000;stroke-linecap:round;stroke-linejoin:round;stroke-width:6px"/><line x1="13.0228" y1="92.8" x2="51.2228" y2="131" style="fill:none;stroke:#000;stroke-linecap:round;stroke-linejoin:round;stroke-width:6px"/><path d="M136.4,3.6c.6,11.8-10.3,19.9-17.1,20.6,0-3.3.4-6.5,2.8-9-8.2-4.6-16.3-3.7-22.5,1.4A20.9358,20.9358,0,1,0,126,49.1C139.2,38.5,143.9,19,136.4,3.6Z" transform="translate(0.0228)" style="fill:none;stroke:#000;stroke-linejoin:round;stroke-width:6px"/><line x1="106.4228" y1="36.9" x2="91.2228" y2="52.2" style="fill:none;stroke:#000;stroke-linecap:round;stroke-linejoin:round;stroke-width:6px"/><rect x="0.0228" width="144" height="144" style="fill:none"/></svg>