<svg xmlns="http://www.w3.org/2000/svg" viewBox="0 0 144 144"><path d="M81,123c-27.8,0-27.8-45,0-45" style="fill:none;stroke:#000;stroke-linecap:round;stroke-linejoin:round;stroke-width:6px"/><line x1="54" y1="93" x2="78" y2="93" style="fill:none;stroke:#000;stroke-linecap:round;stroke-linejoin:round;stroke-width:6px"/><line x1="54" y1="105" x2="78" y2="105" style="fill:none;stroke:#000;stroke-linecap:round;stroke-linejoin:round;stroke-width:6px"/><line x1="51" y1="51" x2="93" y2="51" style="fill:none;stroke:#000;stroke-linecap:round;stroke-linejoin:round;stroke-width:6px"/><path d="M99,9,78,18,72,3,66,18,45,9S57,27,57,39H87C87,27,99,9,99,9Z" style="fill:none;stroke:#000;stroke-linecap:round;stroke-linejoin:round;stroke-width:6px"/><path d="M88.7,63H55.3C42.1,72.7,27,92.4,27,108c0,21.5,12,33,45,33s45-11.5,45-33C117,92.4,101.9,72.7,88.7,63Z" style="fill:none;stroke:#000;stroke-linecap:round;stroke-linejoin:round;stroke-width:6px"/><rect width="144" height="144" style="fill:none"/></svg>