<svg xmlns="http://www.w3.org/2000/svg" viewBox="0 0 144 144"><circle cx="75" cy="96" r="45" style="fill:none;stroke:#000;stroke-linecap:round;stroke-linejoin:round;stroke-width:6px"/><circle cx="75" cy="96" r="33" style="fill:none;stroke:#000;stroke-linecap:round;stroke-linejoin:round;stroke-width:6px"/><circle cx="75" cy="96" r="9" style="fill:none;stroke:#000;stroke-linecap:round;stroke-linejoin:round;stroke-width:6px"/><line x1="75" y1="30" x2="75" y2="87" style="fill:none;stroke:#000;stroke-linecap:round;stroke-linejoin:round;stroke-width:6px"/><line x1="42" y1="96" x2="66" y2="96" style="fill:none;stroke:#000;stroke-linejoin:round;stroke-width:6px"/><line x1="75" y1="105" x2="75" y2="129" style="fill:none;stroke:#000;stroke-linecap:round;stroke-linejoin:round;stroke-width:6px"/><line x1="84" y1="96" x2="108" y2="96" style="fill:none;stroke:#000;stroke-linecap:round;stroke-linejoin:round;stroke-width:6px"/><line x1="81" y1="90" x2="98.3" y2="72.6" style="fill:none;stroke:#000;stroke-linejoin:round;stroke-width:6px"/><line x1="69" y1="90" x2="53.2" y2="71.2" style="fill:none;stroke:#000;stroke-linejoin:round;stroke-width:6px"/><line x1="69" y1="102" x2="53.2" y2="120.8" style="fill:none;stroke:#000;stroke-linejoin:round;stroke-width:6px"/><line x1="81" y1="102" x2="94.8" y2="122.4" style="fill:none;stroke:#000;stroke-linejoin:round;stroke-width:6px"/><path d="M84,15c-8.7,0-16.9-5.3-24-9.4C60,5.6,57,3,48,3H36A23.9424,23.9424,0,0,0,60,27h46.5c4.1,0,7.5-1.9,7.5-6s-3.4-6-7.5-6Z" style="fill:none;stroke:#000;stroke-linecap:round;stroke-linejoin:round;stroke-width:6px"/><rect width="144" height="144" style="fill:none"/></svg>