<svg xmlns="http://www.w3.org/2000/svg" viewBox="0 0 144 144"><path d="M39,68.4V48a36,36,0,0,1,72,0V66" style="fill:none;stroke:#000;stroke-linecap:round;stroke-linejoin:round;stroke-width:6px"/><path d="M105.3,100.4a36.3943,36.3943,0,0,0,3.7-7.7c19.6-9.5,32-30.5,32-53.7L111,57" style="fill:none;stroke:#000;stroke-linejoin:round;stroke-width:6px"/><path d="M39,68.4A59.0138,59.0138,0,0,0,6,93H41a51.3269,51.3269,0,0,0,3.3,7.6" style="fill:none;stroke:#000;stroke-linecap:round;stroke-linejoin:round;stroke-width:6px"/><path d="M93,81c0,3-15,12-18,12S57,84,57,81a18,18,0,0,1,36,0Z" style="fill:none;stroke:#000;stroke-linecap:round;stroke-linejoin:round;stroke-width:6px"/><line x1="63" y1="42" x2="63" y2="51" style="fill:none;stroke:#000;stroke-linecap:round;stroke-linejoin:round;stroke-width:6px"/><line x1="87" y1="42" x2="87" y2="51" style="fill:none;stroke:#000;stroke-linecap:round;stroke-linejoin:round;stroke-width:6px"/><path d="M69,111c-1.4-6.9-10.7-12-18-12a15,15,0,0,0-9,27l12,9,15-6Z" style="fill:none;stroke:#000;stroke-linecap:round;stroke-linejoin:round;stroke-width:6px"/><path d="M108,126a15,15,0,0,0-9-27c-7.3,0-16.6,5.2-18,12v18l15,6Z" style="fill:none;stroke:#000;stroke-linecap:round;stroke-linejoin:round;stroke-width:6px"/><line x1="69" y1="117" x2="81" y2="117" style="fill:none;stroke:#000;stroke-linejoin:round;stroke-width:6px"/><rect width="144" height="144" style="fill:none"/></svg>