<svg xmlns="http://www.w3.org/2000/svg" viewBox="0 0 144 144"><path d="M63,15a44.94,44.94,0,0,1,45,45l15-18V96a45,45,0,0,1-90,0c0-10.9,3.7-18.9,9-30a32.14,32.14,0,0,0,3-13.5C45,42,35.7,32.8,27,27.1c3.2-1.5,6.8-3.1,10.5-3.1C51.6,24,63,36.9,63,51a4.4813,4.4813,0,0,0,4.5,4.5c5.2,0,6.3-9.2,6.3-14.2C73.8,31,70.3,21.1,63,15Z" style="fill:none;stroke:#000;stroke-linecap:round;stroke-linejoin:round;stroke-width:6px"/><circle cx="78" cy="96" r="30" style="fill:none;stroke:#000;stroke-linecap:round;stroke-linejoin:round;stroke-width:6px"/><line x1="69" y1="90" x2="69" y2="102" style="fill:none;stroke:#000;stroke-linecap:round;stroke-linejoin:round;stroke-width:6px"/><line x1="87" y1="90" x2="87" y2="102" style="fill:none;stroke:#000;stroke-linecap:round;stroke-linejoin:round;stroke-width:6px"/><line x1="15" y1="48" x2="15" y2="66" style="fill:none;stroke:#000;stroke-linecap:round;stroke-linejoin:round;stroke-width:6px"/><line x1="6" y1="57" x2="24" y2="57" style="fill:none;stroke:#000;stroke-linecap:round;stroke-linejoin:round;stroke-width:6px"/><line x1="129" y1="12" x2="129" y2="30" style="fill:none;stroke:#000;stroke-linecap:round;stroke-linejoin:round;stroke-width:6px"/><line x1="120" y1="21" x2="138" y2="21" style="fill:none;stroke:#000;stroke-linecap:round;stroke-linejoin:round;stroke-width:6px"/><rect width="144" height="144" style="fill:none"/></svg>