<svg xmlns="http://www.w3.org/2000/svg" viewBox="0 0 144 144"><path d="M9,57A6,6,0,0,0,9,69h6c0,24.7,15.8,48.7,37.8,56.6C39.3,129.4,30,136.4,30,141h84c0-4.6-9.3-11.6-22.8-15.4,22-7.9,37.8-31.9,37.8-56.6h6a6,6,0,0,0,0-12Z" style="fill:none;stroke:#000;stroke-linecap:round;stroke-linejoin:round;stroke-width:6px"/><path d="M108,45c23.6-32.9,25.2-35.5,21-39-4.5-3.7-7.4-1.7-45,39" style="fill:none;stroke:#000;stroke-linecap:round;stroke-linejoin:round;stroke-width:6px"/><path d="M57,108A38.608,38.608,0,0,1,36,87" style="fill:none;stroke:#000;stroke-linecap:round;stroke-linejoin:round;stroke-width:6px"/><rect width="144" height="144" style="fill:none"/></svg>