<svg xmlns="http://www.w3.org/2000/svg" viewBox="0 0 144 144"><polygon points="141 141 3 141 3 129 15 129 15 117 3 117 3 3 99 3 99 15 123 15 123 3 141 3 141 141" style="fill:none;stroke:#000;stroke-linejoin:round;stroke-width:6px"/><rect x="21" y="33" width="12" height="24" style="fill:none;stroke:#000;stroke-linejoin:round;stroke-width:6px"/><rect x="45" y="33" width="12" height="24" style="fill:none;stroke:#000;stroke-linejoin:round;stroke-width:6px"/><rect x="69" y="33" width="12" height="24" style="fill:none;stroke:#000;stroke-linejoin:round;stroke-width:6px"/><line x1="96" y1="33" x2="126" y2="33" style="fill:none;stroke:#000;stroke-linecap:round;stroke-linejoin:round;stroke-width:6px"/><line x1="96" y1="45" x2="126" y2="45" style="fill:none;stroke:#000;stroke-linecap:round;stroke-linejoin:round;stroke-width:6px"/><line x1="96" y1="57" x2="126" y2="57" style="fill:none;stroke:#000;stroke-linecap:round;stroke-linejoin:round;stroke-width:6px"/><rect x="45" y="87" width="24" height="24" style="fill:none;stroke:#000;stroke-linejoin:round;stroke-width:6px"/><line x1="51" y1="87" x2="51" y2="75" style="fill:none;stroke:#000;stroke-linecap:round;stroke-linejoin:round;stroke-width:6px"/><line x1="63" y1="87" x2="63" y2="75" style="fill:none;stroke:#000;stroke-linecap:round;stroke-linejoin:round;stroke-width:6px"/><line x1="51" y1="123" x2="51" y2="111" style="fill:none;stroke:#000;stroke-linecap:round;stroke-linejoin:round;stroke-width:6px"/><line x1="63" y1="123" x2="63" y2="111" style="fill:none;stroke:#000;stroke-linecap:round;stroke-linejoin:round;stroke-width:6px"/><line x1="69" y1="93" x2="81" y2="93" style="fill:none;stroke:#000;stroke-linecap:round;stroke-linejoin:round;stroke-width:6px"/><line x1="69" y1="105" x2="81" y2="105" style="fill:none;stroke:#000;stroke-linecap:round;stroke-linejoin:round;stroke-width:6px"/><line x1="33" y1="93" x2="45" y2="93" style="fill:none;stroke:#000;stroke-linecap:round;stroke-linejoin:round;stroke-width:6px"/><line x1="33" y1="105" x2="45" y2="105" style="fill:none;stroke:#000;stroke-linecap:round;stroke-linejoin:round;stroke-width:6px"/><polygon points="129 129 93 129 93 93 108 93 120 75 129 75 129 129" style="fill:none;stroke:#000;stroke-linecap:round;stroke-linejoin:round;stroke-width:6px"/><rect width="144" height="144" style="fill:none"/></svg>