<svg xmlns="http://www.w3.org/2000/svg" viewBox="0 0 144 144"><path d="M57,123H54a11.2239,11.2239,0,0,1-10.9-8.8l-13-60.7A12.0144,12.0144,0,0,1,41.8,39H90.1a12.0144,12.0144,0,0,1,11.7,14.5l-13,60.7A11.14,11.14,0,0,1,77.9,123h-3" style="fill:none;stroke:#000;stroke-linejoin:round;stroke-width:6px"/><path d="M75,108a9,9,0,0,0-18,0v24a9,9,0,0,0,18,0Z" style="fill:none;stroke:#000;stroke-linejoin:round;stroke-width:6px"/><polyline points="32.9 66.4 66 86.9 99 66" style="fill:none;stroke:#000;stroke-linejoin:round;stroke-width:6px"/><polyline points="32.1 44 60 63 66 86.9" style="fill:none;stroke:#000;stroke-linejoin:round;stroke-width:6px"/><polyline points="99.9 44 72 63 66 86.9" style="fill:none;stroke:#000;stroke-linejoin:round;stroke-width:6px"/><path d="M39,39.3V30a27,27,0,0,1,54,0v9.3" style="fill:none;stroke:#000;stroke-linejoin:round;stroke-width:6px"/><line x1="100.5" y1="45" x2="122.8" y2="45" style="fill:none;stroke:#000;stroke-linecap:round;stroke-linejoin:round;stroke-width:6px"/><line x1="31.5" y1="45" x2="9.2" y2="45" style="fill:none;stroke:#000;stroke-linecap:round;stroke-linejoin:round;stroke-width:6px"/><rect width="144" height="144" style="fill:none"/></svg>