<svg xmlns="http://www.w3.org/2000/svg" viewBox="0 0 144 144"><path d="M33,141H99S96,81,66,81,33,141,33,141Z" style="fill:none;stroke:#000;stroke-linecap:round;stroke-linejoin:round;stroke-width:6px"/><path d="M74.9,83C79.8,60,88.7,39,105,39c36,0,36,102,36,102H99" style="fill:none;stroke:#000;stroke-linecap:round;stroke-linejoin:round;stroke-width:6px"/><polyline points="80.8 62.8 93 75 105 63 117 75 129.3 62.7" style="fill:none;stroke:#000;stroke-linecap:round;stroke-linejoin:round;stroke-width:6px"/><path d="M51.4,39S63,37.5,63,26.1A12.9215,12.9215,0,0,0,49.6,13.2,17.932,17.932,0,0,0,33.3,3c-9.6,0-18.1,7.4-18.6,16.8A9.7429,9.7429,0,0,0,3,29.3C3,39.2,13.3,39,13.3,39Z" style="fill:none;stroke:#000;stroke-linecap:round;stroke-linejoin:round;stroke-width:6px"/><rect width="144" height="144" style="fill:none"/></svg>