<svg xmlns="http://www.w3.org/2000/svg" viewBox="0 0 144 144"><path d="M100.3,11.6a50.8634,50.8634,0,0,0-56.6,0" style="fill:none;stroke:#000;stroke-linecap:round;stroke-linejoin:round;stroke-width:6px"/><path d="M93.6,21.6a38.6455,38.6455,0,0,0-43.2,0" style="fill:none;stroke:#000;stroke-linecap:round;stroke-linejoin:round;stroke-width:6px"/><path d="M87,31.5A26.5233,26.5233,0,0,0,72,27a27.3168,27.3168,0,0,0-15,4.5" style="fill:none;stroke:#000;stroke-linecap:round;stroke-linejoin:round;stroke-width:6px"/><path d="M105,111a30.3507,30.3507,0,0,1-30,30H69a30.3507,30.3507,0,0,1-30-30V75A30.3507,30.3507,0,0,1,69,45h6a30.3507,30.3507,0,0,1,30,30Z" style="fill:none;stroke:#000;stroke-linecap:round;stroke-linejoin:round;stroke-width:6px"/><path d="M66,81a6,6,0,0,0,12,0V69a6,6,0,0,0-12,0Z" style="fill:none;stroke:#000;stroke-linecap:round;stroke-linejoin:round;stroke-width:6px"/><rect width="144" height="144" style="fill:none"/></svg>