<svg xmlns="http://www.w3.org/2000/svg" viewBox="0 0 144 144"><path d="M117,105a36.1058,36.1058,0,0,1-36,36H63a36.1058,36.1058,0,0,1-36-36V39A36.1058,36.1058,0,0,1,63,3H81a36.1058,36.1058,0,0,1,36,36Z" style="fill:none;stroke:#000;stroke-linecap:round;stroke-linejoin:round;stroke-width:6px"/><path d="M78,45a6.0176,6.0176,0,0,1-6,6h0a6.0176,6.0176,0,0,1-6-6V33a6.0176,6.0176,0,0,1,6-6h0a6.0176,6.0176,0,0,1,6,6Z" style="fill:none;stroke:#000;stroke-linecap:round;stroke-linejoin:round;stroke-width:6px"/><rect width="144" height="144" style="fill:none"/></svg>