<svg xmlns="http://www.w3.org/2000/svg" viewBox="0 0 144.1 144"><circle cx="99.1" cy="39.4" r="30" style="fill:none;stroke:#000;stroke-linecap:round;stroke-linejoin:round;stroke-width:6px"/><path d="M141,33.4a3.0085,3.0085,0,0,0-3,3,2.9465,2.9465,0,0,0,3,3,3,3,0,0,0,0-6Z" transform="translate(0.1)" style="fill:#000"/><line x1="141.1" y1="141" x2="141.1" y2="45" style="fill:none;stroke:#000;stroke-linecap:round;stroke-linejoin:round;stroke-width:6px"/><path d="M100.1,129.1a15.4066,15.4066,0,0,1-15.4-15.4c0-15.9-18.6-19.3-26.9-10.4C49.7,94.5,31,97.9,31,113.7a15.3954,15.3954,0,0,1-28.1,8.7c11.5,25.9,43.8,21.1,54.9,4,11.1,17.1,43.4,21.9,54.9-4A15.0353,15.0353,0,0,1,100.1,129.1Z" transform="translate(0.1)" style="fill:none;stroke:#000;stroke-linecap:round;stroke-linejoin:round;stroke-width:6px"/><path d="M117,39.4a18.0529,18.0529,0,0,1-18,18" transform="translate(0.1)" style="fill:none;stroke:#000;stroke-linecap:round;stroke-linejoin:round;stroke-width:6px"/><rect x="0.1" width="144" height="144" style="fill:none"/></svg>