<svg xmlns="http://www.w3.org/2000/svg" viewBox="0 0 144 144"><circle cx="93" cy="51" r="48" style="fill:none;stroke:#000;stroke-linecap:round;stroke-linejoin:round;stroke-width:6px"/><path d="M61.3,87H18a15,15,0,0,0,0,30H123a12,12,0,0,1,0,24H63" style="fill:none;stroke:#000;stroke-linecap:round;stroke-linejoin:round;stroke-width:6px"/><circle cx="93" cy="51" r="9" style="fill:none;stroke:#000;stroke-linecap:round;stroke-linejoin:round;stroke-width:6px"/><path d="M101,31.7,106.7,18h0c-8.5-3-18.4-3.9-27.6-.1v-.1L85,31.6a20.6357,20.6357,0,0,1,16,.1Z" style="fill:none;stroke:#000;stroke-linecap:round;stroke-linejoin:round;stroke-width:6px"/><path d="M75,43,60,37.3h0c-3,8.5-3.9,18.4-.1,27.5h-.1L74.3,59c-2.2-5.3-2.3-11.1.7-16Z" style="fill:none;stroke:#000;stroke-linecap:round;stroke-linejoin:round;stroke-width:6px"/><path d="M85,69,79.3,84h0c8.5,3,18.4,3.9,27.5.1v.1L101,69.7C95.7,71.9,89.9,72,85,69Z" style="fill:none;stroke:#000;stroke-linecap:round;stroke-linejoin:round;stroke-width:6px"/><path d="M111,59l15,5.7h0c3-8.5,3.9-18.4.1-27.5h.1L111.7,43c2.2,5.3,2.3,11.1-.7,16Z" style="fill:none;stroke:#000;stroke-linecap:round;stroke-linejoin:round;stroke-width:6px"/><rect width="144" height="144" style="fill:none"/></svg>