<svg xmlns="http://www.w3.org/2000/svg" viewBox="0 0 144 144"><path d="M81,132a9.0919,9.0919,0,0,1-9,9H12a9.0919,9.0919,0,0,1-9-9V12a9.0264,9.0264,0,0,1,9-9H72a9.0264,9.0264,0,0,1,9,9Z" style="fill:none;stroke:#000;stroke-linejoin:round;stroke-width:6px"/><line x1="3" y1="87" x2="81" y2="87" style="fill:none;stroke:#000;stroke-linejoin:round;stroke-width:6px"/><circle cx="42" cy="114" r="15" style="fill:none;stroke:#000;stroke-linejoin:round;stroke-width:6px"/><polygon points="39 108 39 120 48 114 39 108" style="fill:#000"/><path d="M81,21H96a8.9626,8.9626,0,0,1,9,9v84a15,15,0,0,0,30,0V69" style="fill:none;stroke:#000;stroke-linejoin:round;stroke-width:6px"/><path d="M141,63a6,6,0,0,1-12,0V45a6,6,0,0,1,12,0Z" style="fill:none;stroke:#000;stroke-linejoin:round;stroke-width:6px"/><path d="M129,63h-3a9,9,0,0,1,0-18h3Z" style="fill:none;stroke:#000;stroke-linejoin:round;stroke-width:6px"/><line x1="18" y1="33" x2="30" y2="33" style="fill:none;stroke:#000;stroke-linejoin:round;stroke-width:6px"/><line x1="18" y1="45" x2="30" y2="45" style="fill:none;stroke:#000;stroke-linejoin:round;stroke-width:6px"/><line x1="18" y1="57" x2="30" y2="57" style="fill:none;stroke:#000;stroke-linejoin:round;stroke-width:6px"/><line x1="18" y1="69" x2="30" y2="69" style="fill:none;stroke:#000;stroke-linejoin:round;stroke-width:6px"/><line x1="54" y1="45" x2="66" y2="45" style="fill:none;stroke:#000;stroke-linejoin:round;stroke-width:6px"/><line x1="54" y1="57" x2="66" y2="57" style="fill:none;stroke:#000;stroke-linejoin:round;stroke-width:6px"/><line x1="54" y1="69" x2="66" y2="69" style="fill:none;stroke:#000;stroke-linejoin:round;stroke-width:6px"/><line x1="36" y1="57" x2="48" y2="57" style="fill:none;stroke:#000;stroke-linejoin:round;stroke-width:6px"/><line x1="36" y1="69" x2="48" y2="69" style="fill:none;stroke:#000;stroke-linejoin:round;stroke-width:6px"/><rect width="144" height="144" style="fill:none"/></svg>