<svg xmlns="http://www.w3.org/2000/svg" viewBox="0 0 144 144"><path d="M114.7,78.2A48.0163,48.0163,0,1,1,21,93a46.6726,46.6726,0,0,1,2.4-15L39,33H99Z" style="fill:none;stroke:#000;stroke-linecap:round;stroke-linejoin:round;stroke-width:6px"/><path d="M39,33V25.9C39,14,52.4,4.4,69,4.4S99,14,99,25.8V33" style="fill:none;stroke:#000;stroke-linecap:round;stroke-linejoin:round;stroke-width:6px"/><line x1="27" y1="33" x2="111" y2="33" style="fill:none;stroke:#000;stroke-linecap:round;stroke-linejoin:round;stroke-width:6px"/><path d="M21,78a9,9,0,0,1,0-18h9" style="fill:none;stroke:#000;stroke-linejoin:round;stroke-width:6px"/><path d="M117,78a9,9,0,0,0,0-18h-9" style="fill:none;stroke:#000;stroke-linejoin:round;stroke-width:6px"/><circle cx="51" cy="64.5" r="13.5" style="fill:none;stroke:#000;stroke-linecap:round;stroke-linejoin:round;stroke-width:6px"/><circle cx="87" cy="64.5" r="13.5" style="fill:none;stroke:#000;stroke-linecap:round;stroke-linejoin:round;stroke-width:6px"/><path d="M54,95.9,60.5,78a9.0208,9.0208,0,0,1,17,0L84,96" style="fill:none;stroke:#000;stroke-linecap:round;stroke-linejoin:round;stroke-width:6px"/><path d="M53.6,112.1A9.0178,9.0178,0,1,1,48,96H90a9,9,0,0,1,0,18,9.1246,9.1246,0,0,1-6-2.3" style="fill:none;stroke:#000;stroke-linecap:round;stroke-linejoin:round;stroke-width:6px"/><path d="M69,112.5a7.5,7.5,0,0,1-15,0" style="fill:none;stroke:#000;stroke-linecap:round;stroke-linejoin:round;stroke-width:6px"/><path d="M84,112.5a7.5,7.5,0,0,1-15,0" style="fill:none;stroke:#000;stroke-linecap:round;stroke-linejoin:round;stroke-width:6px"/><line x1="51" y1="63" x2="51" y2="66" style="fill:none;stroke:#000;stroke-linecap:round;stroke-linejoin:round;stroke-width:6px"/><line x1="87" y1="63" x2="87" y2="66" style="fill:none;stroke:#000;stroke-linecap:round;stroke-linejoin:round;stroke-width:6px"/><rect width="144" height="144" style="fill:none"/></svg>