<svg xmlns="http://www.w3.org/2000/svg" viewBox="0 0 144 144"><path d="M33,57,45,42l9,6L42,66,39,94.5c9.1-10.4,34.6-10.4,40.5,1.9,3.2-37.9,56.2-35.9,56.2,2.7,0,59-126.8,42.1-126.8,9-1.8-9,7.9-44.3,11.8-58.5C23.3,40.6,33,33,33,33H63l3,15L60.8,63.2,42,66" style="fill:none;stroke:#000;stroke-linecap:round;stroke-linejoin:round;stroke-width:6px"/><line x1="99" y1="93" x2="111" y2="93" style="fill:none;stroke:#000;stroke-linecap:round;stroke-linejoin:round;stroke-width:6px"/><line x1="105" y1="84" x2="105" y2="114" style="fill:none;stroke:#000;stroke-linecap:round;stroke-linejoin:round;stroke-width:6px"/><polyline points="93 108 105 114 117 108" style="fill:none;stroke:#000;stroke-linecap:round;stroke-linejoin:round;stroke-width:6px"/><rect width="144" height="144" style="fill:none"/></svg>