<svg xmlns="http://www.w3.org/2000/svg" viewBox="0 0 144 144"><path d="M81,22.5A48.0106,48.0106,0,1,1,93,117a47.5412,47.5412,0,0,1-12-1.5" style="fill:none;stroke:#000;stroke-linecap:round;stroke-linejoin:round;stroke-width:6px"/><circle cx="93" cy="69" r="12" style="fill:none;stroke:#000;stroke-linecap:round;stroke-linejoin:round;stroke-width:6px"/><path d="M93,66a3,3,0,0,0,0,6,3,3,0,0,0,0-6Z" style="fill:#000"/><rect x="3" y="15" width="78" height="108" style="fill:none;stroke:#000;stroke-linecap:round;stroke-linejoin:round;stroke-width:6px"/><path d="M33,94.4C33,99,28.6,99,24,99s-9.1-2.1-9.1-9,4.7-9,9.3-9H33Z" style="fill:none;stroke:#000;stroke-linecap:round;stroke-linejoin:round;stroke-width:6px"/><polyline points="33 81 33 57.5 63 39 63 69" style="fill:none;stroke:#000;stroke-linecap:round;stroke-linejoin:round;stroke-width:6px"/><path d="M63,85.2c0,4.6-5.6,4.6-10.2,4.6s-9.7-3.5-9.7-10.4S47.3,69,51.9,69H63Z" style="fill:none;stroke:#000;stroke-linecap:round;stroke-linejoin:round;stroke-width:6px"/><rect width="144" height="144" style="fill:none"/></svg>