<svg xmlns="http://www.w3.org/2000/svg" viewBox="0 0 144 144"><polygon points="123 141 21 141 9 69 135 69 123 141" style="fill:none;stroke:#000;stroke-linecap:round;stroke-linejoin:round;stroke-width:6px"/><rect x="3" y="57" width="138" height="12" style="fill:none;stroke:#000;stroke-linecap:round;stroke-linejoin:round;stroke-width:6px"/><line x1="21" y1="42" x2="57" y2="6" style="fill:none;stroke:#000;stroke-linecap:round;stroke-linejoin:round;stroke-width:6px"/><line x1="123" y1="42" x2="87" y2="6" style="fill:none;stroke:#000;stroke-linecap:round;stroke-linejoin:round;stroke-width:6px"/><path d="M63,123.1a6.2214,6.2214,0,0,1-6,6,6,6,0,0,1,0-12h6Z" style="fill:none;stroke:#000;stroke-linejoin:round;stroke-width:6px"/><path d="M87,111a6.2214,6.2214,0,0,1-6,6,6,6,0,0,1,0-12h6Z" style="fill:none;stroke:#000;stroke-linejoin:round;stroke-width:6px"/><polyline points="63 117.1 63 92.2 87 81.1 87 105" style="fill:none;stroke:#000;stroke-linejoin:round;stroke-width:6px"/><rect width="144" height="144" style="fill:none"/></svg>