<svg xmlns="http://www.w3.org/2000/svg" viewBox="0 0 144 144"><path d="M85.5,27C75.2,27.5,69,35.2,69,35.2s-6.2-7.7-16.5-8.3C42.3,26.5,3.4,17.3,3,101.2,19.7,88.8,26.9,64.1,27.8,55.8a53.5,53.5,0,0,0,41.2,0,53.5,53.5,0,0,0,41.2,0c.8,8.2,8,33,24.8,45.4C134.6,17.3,95.7,26.5,85.5,27Z" style="fill:none;stroke:#000;stroke-linejoin:round;stroke-width:6px"/><path d="M64.6,72.5A2.3893,2.3893,0,0,1,66,72h6a2.3893,2.3893,0,0,1,1.4.5c1.5,1.3,5.9,4.7,10.3,5.5a2.1865,2.1865,0,0,1,1.7,2.3C85.3,95.5,75.1,126,69,126c-6.2,0-16.3-30.1-16.3-45.7A2.1865,2.1865,0,0,1,54.4,78C58.7,77.2,63.2,73.8,64.6,72.5Z" style="fill:none;stroke:#000;stroke-linejoin:round;stroke-width:6px"/><rect width="144" height="144" style="fill:none"/></svg>