<svg xmlns="http://www.w3.org/2000/svg" viewBox="0 0 144 144"><path d="M89.1,64.2,84,3H60L54.9,64.2C64,63.2,74,63.2,89.1,64.2Z" style="fill:none;stroke:#000;stroke-linejoin:round;stroke-width:6px"/><path d="M30.1,83.5a12.78,12.78,0,0,1,2.4-10.1c9.6-13.3,69.4-13.5,79,0a12.601,12.601,0,0,1,2.4,10.1l-12.9,48A12.07,12.07,0,0,1,89.3,141H54.7A11.8064,11.8064,0,0,1,43,131.5Z" style="fill:none;stroke:#000;stroke-linejoin:round;stroke-width:6px"/><polygon points="87 123 57 123 51 81 93 81 87 123" style="fill:none;stroke:#000;stroke-linejoin:round;stroke-width:6px"/><rect width="144" height="144" style="fill:none"/></svg>