<svg xmlns="http://www.w3.org/2000/svg" viewBox="0 0 144 144"><polygon points="105 72 81 78 84 51 60 51 63 78 39 72 39 99 63 93 60 141 84 141 81 93 105 99 105 72" style="fill:none;stroke:#000;stroke-linejoin:round;stroke-width:6px"/><path d="M78,42a6,6,0,0,0-12,0v9H78Z" style="fill:none;stroke:#000;stroke-linejoin:round;stroke-width:6px"/><path d="M77.8,41.7c2-.2,4-.5,5.9-.8" style="fill:none;stroke:#000;stroke-linecap:round;stroke-linejoin:round;stroke-width:6px"/><path d="M94.9,37.8a66.2194,66.2194,0,0,0,31.3-24.6" style="fill:none;stroke:#000;stroke-linecap:round;stroke-linejoin:round;stroke-width:6px;stroke-dasharray:11.549400329589844,11.549400329589844"/><path d="M129.3,8.3A52.7848,52.7848,0,0,0,132,3" style="fill:none;stroke:#000;stroke-linecap:round;stroke-linejoin:round;stroke-width:6px"/><path d="M11.7,3a52.7848,52.7848,0,0,0,2.7,5.3" style="fill:none;stroke:#000;stroke-linecap:round;stroke-linejoin:round;stroke-width:6px"/><path d="M20.9,17.9A65.9128,65.9128,0,0,0,54.2,39.6" style="fill:none;stroke:#000;stroke-linecap:round;stroke-linejoin:round;stroke-width:6px;stroke-dasharray:11.549400329589844,11.549400329589844"/><path d="M59.9,40.9a55.8734,55.8734,0,0,0,5.9.8" style="fill:none;stroke:#000;stroke-linecap:round;stroke-linejoin:round;stroke-width:6px"/><rect width="144" height="144" style="fill:none"/></svg>