<svg xmlns="http://www.w3.org/2000/svg" viewBox="0 0 144 144.0019"><circle cx="111" cy="111.0019" r="30" style="fill:none;stroke:#000;stroke-linejoin:round;stroke-width:6px"/><path d="M111,126a3,3,0,1,0,3,3A3,3,0,0,0,111,126Z" style="fill:#000" transform="translate(0 0.0019)"/><path d="M102,102a9,9,0,1,1,9,9v9" transform="translate(0 0.0019)" style="fill:none;stroke:#000;stroke-linecap:round;stroke-linejoin:round;stroke-width:6px"/><line x1="11.4" y1="105.0019" x2="69" y2="105.0019" style="fill:none;stroke:#000;stroke-linecap:round;stroke-linejoin:round;stroke-width:6px"/><line x1="15.1" y1="33.0019" x2="129" y2="33.0019" style="fill:none;stroke:#000;stroke-linejoin:round;stroke-width:6px"/><line x1="141" y1="69.0019" x2="3.1" y2="69.0019" style="fill:none;stroke:#000;stroke-linecap:round;stroke-linejoin:round;stroke-width:6px"/><path d="M68.3,140.9A69.0014,69.0014,0,1,1,141,69" transform="translate(0 0.0019)" style="fill:none;stroke:#000;stroke-linecap:round;stroke-linejoin:round;stroke-width:6px"/><path d="M67.6,3.2c-36,39-35.4,89.7.6,137.7" transform="translate(0 0.0019)" style="fill:none;stroke:#000;stroke-linecap:round;stroke-linejoin:round;stroke-width:6px"/><path d="M76.4,3.2C94.5,22.8,103.3,45.3,103,69" transform="translate(0 0.0019)" style="fill:none;stroke:#000;stroke-linecap:round;stroke-linejoin:round;stroke-width:6px"/><rect y="0.0019" width="144" height="144" style="fill:none"/></svg>