<svg xmlns="http://www.w3.org/2000/svg" viewBox="0 0 144 144"><path d="M135,90a8.9626,8.9626,0,0,1-9,9H24a8.9626,8.9626,0,0,1-9-9V18a8.9626,8.9626,0,0,1,9-9H126a8.9626,8.9626,0,0,1,9,9Z" style="fill:none;stroke:#000;stroke-linecap:round;stroke-linejoin:round;stroke-width:6px"/><line x1="36" y1="117" x2="114" y2="117" style="fill:none;stroke:#000;stroke-linecap:round;stroke-linejoin:round;stroke-width:6px"/><polygon points="90 117 60 117 66 99 84 99 90 117" style="fill:none;stroke:#000;stroke-linecap:round;stroke-linejoin:round;stroke-width:6px"/><rect x="27" y="21" width="96" height="54" style="fill:none;stroke:#000;stroke-linecap:round;stroke-linejoin:round;stroke-width:6px"/><circle cx="75" cy="87" r="3" style="fill:none;stroke:#000;stroke-linecap:round;stroke-linejoin:round;stroke-width:6px"/><line x1="9.1" y1="141" x2="140.8" y2="141" style="fill:none;stroke:#000;stroke-linecap:round;stroke-linejoin:round;stroke-width:6px"/><line x1="75" y1="141" x2="75" y2="117" style="fill:none;stroke:#000;stroke-linecap:round;stroke-linejoin:round;stroke-width:6px"/><rect width="144" height="144" style="fill:none"/></svg>