<svg xmlns="http://www.w3.org/2000/svg" viewBox="0 0 144 144"><path d="M3,116.8A5.85,5.85,0,0,1,9,111H63a5.85,5.85,0,0,1,6,5.8V129H3Z" style="fill:none;stroke:#000;stroke-linecap:round;stroke-linejoin:round;stroke-width:6px"/><rect x="21" y="81" width="29.9" height="18" style="fill:none;stroke:#000;stroke-linecap:round;stroke-linejoin:round;stroke-width:6px"/><path d="M9,111V77.8A8.795,8.795,0,0,1,18,69H53.9a8.795,8.795,0,0,1,9,8.8v33" style="fill:none;stroke:#000;stroke-linecap:round;stroke-linejoin:round;stroke-width:6px"/><path d="M75,116.8a5.85,5.85,0,0,1,6-5.8l54,.1a5.85,5.85,0,0,1,6,5.8v12.2L75,129Z" style="fill:none;stroke:#000;stroke-linecap:round;stroke-linejoin:round;stroke-width:6px"/><rect x="93" y="81" width="30" height="18" style="fill:none;stroke:#000;stroke-linecap:round;stroke-linejoin:round;stroke-width:6px"/><path d="M81,111V77.8A8.795,8.795,0,0,1,90,69h36a8.795,8.795,0,0,1,9,8.8v33" style="fill:none;stroke:#000;stroke-linecap:round;stroke-linejoin:round;stroke-width:6px"/><rect x="56.9" y="27" width="30" height="18" style="fill:none;stroke:#000;stroke-linecap:round;stroke-linejoin:round;stroke-width:6px"/><path d="M44.9,57V23.8a8.795,8.795,0,0,1,9-8.8h36a8.795,8.795,0,0,1,9,8.8v33" style="fill:none;stroke:#000;stroke-linecap:round;stroke-linejoin:round;stroke-width:6px"/><line x1="81.5" y1="75.1" x2="62.6" y2="75.1" style="fill:none;stroke:#000;stroke-linecap:round;stroke-linejoin:round;stroke-width:6px"/><path d="M38.9,69V62.8a5.85,5.85,0,0,1,6-5.8l54,.1a5.85,5.85,0,0,1,6,5.8v5.5" style="fill:none;stroke:#000;stroke-linecap:round;stroke-linejoin:round;stroke-width:6px"/><rect width="144" height="144" style="fill:none"/></svg>