<svg xmlns="http://www.w3.org/2000/svg" viewBox="0 0 144 144"><line x1="11.4" y1="105" x2="72.1" y2="105" style="fill:none;stroke:#000;stroke-linecap:round;stroke-linejoin:round;stroke-width:6px"/><line x1="15.1" y1="33" x2="129" y2="33" style="fill:none;stroke:#000;stroke-linejoin:round;stroke-width:6px"/><line x1="141" y1="69" x2="3.1" y2="69" style="fill:none;stroke:#000;stroke-linecap:round;stroke-linejoin:round;stroke-width:6px"/><path d="M68.3,140.9A69.0014,69.0014,0,1,1,141,69" style="fill:none;stroke:#000;stroke-linecap:round;stroke-linejoin:round;stroke-width:6px"/><path d="M67.6,3.2c-36,39-35.4,89.7.6,137.7" style="fill:none;stroke:#000;stroke-linecap:round;stroke-linejoin:round;stroke-width:6px"/><path d="M76.4,3.2C94.5,22.8,103.3,45.3,103,69" style="fill:none;stroke:#000;stroke-linecap:round;stroke-linejoin:round;stroke-width:6px"/><path d="M120,117.4V126l15.1,4.3A8.592,8.592,0,0,1,141,138v3H81v-3a8.592,8.592,0,0,1,5.9-7.7L102,126v-8.6" style="fill:none;stroke:#000;stroke-linejoin:round;stroke-width:6px"/><path d="M128.7,97.2c-3,3-11.6,2.9-14.8-3.2-6,6-15.8,6-20.6,2.6" style="fill:none;stroke:#000;stroke-linejoin:round;stroke-width:6px"/><ellipse cx="111" cy="100.5" rx="18" ry="19.5" style="fill:none;stroke:#000;stroke-linejoin:round;stroke-width:6px"/><rect width="144" height="144" style="fill:none"/></svg>