<svg xmlns="http://www.w3.org/2000/svg" viewBox="0 0 144 144"><path d="M129.8,102.8c0,12-21.8,38.2-21.8,38.2s-21.8-26.1-21.8-38.2a21.8,21.8,0,0,1,43.6,0Z" style="fill:none;stroke:#000;stroke-linecap:round;stroke-linejoin:round;stroke-width:6px"/><circle cx="108" cy="102.8" r="8.2" style="fill:none;stroke:#000;stroke-linecap:round;stroke-linejoin:round;stroke-width:6px"/><line x1="11.4" y1="105" x2="72.1" y2="105" style="fill:none;stroke:#000;stroke-linecap:round;stroke-linejoin:round;stroke-width:6px"/><line x1="15.1" y1="33" x2="129" y2="33" style="fill:none;stroke:#000;stroke-linejoin:round;stroke-width:6px"/><line x1="141" y1="69" x2="3.1" y2="69" style="fill:none;stroke:#000;stroke-linecap:round;stroke-linejoin:round;stroke-width:6px"/><path d="M68.3,140.9A69.0014,69.0014,0,1,1,141,69" style="fill:none;stroke:#000;stroke-linecap:round;stroke-linejoin:round;stroke-width:6px"/><path d="M67.6,3.2c-36,39-35.4,89.7.6,137.7" style="fill:none;stroke:#000;stroke-linecap:round;stroke-linejoin:round;stroke-width:6px"/><path d="M76.4,3.2C94.5,22.8,103.3,45.3,103,69" style="fill:none;stroke:#000;stroke-linecap:round;stroke-linejoin:round;stroke-width:6px"/><rect width="144" height="144" style="fill:none"/></svg>