<svg xmlns="http://www.w3.org/2000/svg" viewBox="0 0 144 144"><path d="M33,57H8.5A5.8,5.8,0,0,1,3,51V9A5.8,5.8,0,0,1,8.5,3H69.4A5.8143,5.8143,0,0,1,75,9V45" style="fill:none;stroke:#000;stroke-linecap:round;stroke-linejoin:round;stroke-width:6px"/><line x1="15" y1="69" x2="33" y2="69" style="fill:none;stroke:#000;stroke-linecap:round;stroke-linejoin:round;stroke-width:6px"/><line x1="3" y1="45" x2="75" y2="45" style="fill:none;stroke:#000;stroke-linecap:round;stroke-linejoin:round;stroke-width:6px"/><line x1="93" y1="129" x2="93" y2="140.8" style="fill:none;stroke:#000;stroke-linecap:round;stroke-linejoin:round;stroke-width:6px"/><line x1="69" y1="141" x2="117" y2="141" style="fill:none;stroke:#000;stroke-linecap:round;stroke-linejoin:round;stroke-width:6px"/><path d="M141,118.2c0,6-4.3,10.8-9.6,10.8H54.6c-5.3,0-9.6-4.8-9.6-10.8V67.8c0-6,4.3-10.8,9.6-10.8h76.8c5.3,0,9.6,4.8,9.6,10.8Z" style="fill:none;stroke:#000;stroke-linecap:round;stroke-linejoin:round;stroke-width:6px"/><line x1="48" y1="111" x2="141" y2="111" style="fill:none;stroke:#000;stroke-linecap:round;stroke-linejoin:round;stroke-width:6px"/><path d="M93,117a3.0085,3.0085,0,0,0-3,3,3,3,0,0,0,6,0,3.0085,3.0085,0,0,0-3-3Z" style="fill:#000"/><rect width="144" height="144" style="fill:none"/></svg>