<svg xmlns="http://www.w3.org/2000/svg" viewBox="0 0 144 144"><circle cx="72" cy="72" r="69" style="fill:none;stroke:#000;stroke-linejoin:round;stroke-width:6px"/><path d="M53.8,19.4A72.685,72.685,0,0,1,51.3,6.1" style="fill:none;stroke:#000;stroke-linejoin:round;stroke-width:6px"/><path d="M106.3,68.6C89.2,65.1,74.2,54.7,64.3,41" style="fill:none;stroke:#000;stroke-linejoin:round;stroke-width:6px"/><path d="M140.7,65.6c-3.6,1.2-6.6,2.5-10.5,3" style="fill:none;stroke:#000;stroke-linejoin:round;stroke-width:6px"/><path d="M92.8,109.1a141.7779,141.7779,0,0,1-36.9,30" style="fill:none;stroke:#000;stroke-linejoin:round;stroke-width:6px"/><path d="M112.9,79.4A157.7628,157.7628,0,0,1,104,95" style="fill:none;stroke:#000;stroke-linejoin:round;stroke-width:6px"/><path d="M127.7,31.3a132.7377,132.7377,0,0,1-5.6,26" style="fill:none;stroke:#000;stroke-linejoin:round;stroke-width:6px"/><path d="M22.8,99.6c-4.8-1.1-11-2.4-15.6-3.8" style="fill:none;stroke:#000;stroke-linejoin:round;stroke-width:6px"/><path d="M63,104.6A217.0371,217.0371,0,0,1,34.3,102" style="fill:none;stroke:#000;stroke-linejoin:round;stroke-width:6px"/><path d="M89.9,104.6c-3.1.2-5.8-.1-8.9,0" style="fill:none;stroke:#000;stroke-linejoin:round;stroke-width:6px"/><path d="M136.3,97c-9.5,2.6-19.2,3.8-28.8,5.2" style="fill:none;stroke:#000;stroke-linejoin:round;stroke-width:6px"/><path d="M46.3,28.9a65.7853,65.7853,0,0,1-20.1-8.5" style="fill:none;stroke:#000;stroke-linejoin:round;stroke-width:6px"/><path d="M108.5,13.4C98,22.6,84.3,29.2,70.2,30.8" style="fill:none;stroke:#000;stroke-linejoin:round;stroke-width:6px"/><path d="M77.2,111.9c4.9,7.6,10.7,17.5,13.6,26.3" style="fill:none;stroke:#000;stroke-linejoin:round;stroke-width:6px"/><path d="M45.2,80.2c6.9,4.3,15.3,11.7,21.1,17.4" style="fill:none;stroke:#000;stroke-linejoin:round;stroke-width:6px"/><path d="M3.4,64.9a109.2117,109.2117,0,0,1,19.9,4.9" style="fill:none;stroke:#000;stroke-linejoin:round;stroke-width:6px"/><path d="M26,107.6a88.5106,88.5106,0,0,1-6,9.8" style="fill:none;stroke:#000;stroke-linejoin:round;stroke-width:6px"/><path d="M32.8,86.6a83.2553,83.2553,0,0,1-2.2,9.9" style="fill:none;stroke:#000;stroke-linejoin:round;stroke-width:6px"/><path d="M18.1,28.6A72.7545,72.7545,0,0,1,32.9,62.5" style="fill:none;stroke:#000;stroke-linejoin:round;stroke-width:6px"/><circle cx="58.1" cy="30.8" r="12" style="fill:none;stroke:#000;stroke-linejoin:round;stroke-width:6px"/><circle cx="34.3" cy="74.6" r="12" style="fill:none;stroke:#000;stroke-linejoin:round;stroke-width:6px"/><circle cx="28.3" cy="102" r="6" style="fill:none;stroke:#000;stroke-linejoin:round;stroke-width:6px"/><circle cx="72" cy="104.6" r="9" style="fill:none;stroke:#000;stroke-linejoin:round;stroke-width:6px"/><circle cx="98.5" cy="102.2" r="9" style="fill:none;stroke:#000;stroke-linejoin:round;stroke-width:6px"/><circle cx="118.3" cy="68.6" r="12" style="fill:none;stroke:#000;stroke-linejoin:round;stroke-width:6px"/><rect width="144" height="144" style="fill:none"/></svg>