<svg xmlns="http://www.w3.org/2000/svg" viewBox="0 0 144 144"><circle cx="108" cy="18" r="15" style="fill:none;stroke:#000;stroke-linejoin:round;stroke-width:6px"/><polygon points="108 141 123 141 129.2 93 141 93 141 48 120 42 108 66 96 42 75 48 75 93 86.8 93 93 141 108 141" style="fill:none;stroke:#000;stroke-linejoin:round;stroke-width:6px"/><path d="M69,140.9C33,92.9,33,42,69,3" style="fill:none;stroke:#000;stroke-linejoin:round;stroke-width:6px"/><line x1="12" y1="105" x2="75" y2="105" style="fill:none;stroke:#000;stroke-linejoin:round;stroke-width:6px"/><line x1="10.7" y1="39" x2="75" y2="39" style="fill:none;stroke:#000;stroke-linejoin:round;stroke-width:6px"/><line x1="3.4" y1="69" x2="75" y2="69" style="fill:none;stroke:#000;stroke-linejoin:round;stroke-width:6px"/><path d="M75,3.1c-1,0-2-.1-3-.1C33.8,3,3,32.2,3,70.5S33.6,141,71.8,141c1.1,0,2.1-.1,3.2-.2Z" style="fill:none;stroke:#000;stroke-linejoin:round;stroke-width:6px"/><rect width="144" height="144" style="fill:none"/></svg>