<svg xmlns="http://www.w3.org/2000/svg" viewBox="0 0 144 144"><rect x="3" y="51" width="138" height="42" style="fill:none;stroke:#000;stroke-linecap:round;stroke-linejoin:round;stroke-width:6px"/><path d="M94.7,93c-3.7,13-10.4,26.1-20,38.9" style="fill:none;stroke:#000;stroke-linejoin:round;stroke-width:6px"/><path d="M74.6,12.1C85.6,24,92.7,37.1,96,51" style="fill:none;stroke:#000;stroke-linejoin:round;stroke-width:6px"/><path d="M15.7,51a60.1371,60.1371,0,0,1,112.6,0" style="fill:none;stroke:#000;stroke-linejoin:round;stroke-width:6px"/><path d="M15.9,93a59.8488,59.8488,0,0,0,112.2,0" style="fill:none;stroke:#000;stroke-linejoin:round;stroke-width:6px"/><path d="M49.4,93c3.7,13,10.4,26.1,20,38.9" style="fill:none;stroke:#000;stroke-linejoin:round;stroke-width:6px"/><path d="M69.4,12.1C58.4,23.9,51.3,37.1,48,51" style="fill:none;stroke:#000;stroke-linejoin:round;stroke-width:6px"/><line x1="22.1" y1="105" x2="122" y2="105" style="fill:none;stroke:#000;stroke-linejoin:round;stroke-width:6px"/><line x1="21.8" y1="39" x2="122.3" y2="39" style="fill:none;stroke:#000;stroke-linejoin:round;stroke-width:6px"/><polyline points="106.9 81 99 81 99 63 106.9 63" style="fill:none;stroke:#000;stroke-linecap:round;stroke-linejoin:round;stroke-width:6px"/><line x1="99" y1="72" x2="104.7" y2="72" style="fill:none;stroke:#000;stroke-linecap:round;stroke-linejoin:round;stroke-width:6px"/><line x1="57" y1="81" x2="57" y2="63" style="fill:none;stroke:#000;stroke-linecap:round;stroke-linejoin:round;stroke-width:6px"/><polyline points="41.6 81 33 81 33 63" style="fill:none;stroke:#000;stroke-linecap:round;stroke-linejoin:round;stroke-width:6px"/><polyline points="74.8 63 79.9 81 84.9 63" style="fill:none;stroke:#000;stroke-linecap:round;stroke-linejoin:round;stroke-width:6px"/><rect width="144" height="144" style="fill:none"/></svg>