<svg xmlns="http://www.w3.org/2000/svg" viewBox="0 0 144 144"><line x1="3" y1="141" x2="134.7" y2="141" style="fill:none;stroke:#000;stroke-linecap:round;stroke-linejoin:round;stroke-width:6px"/><line x1="68.9" y1="141" x2="68.9" y2="111" style="fill:none;stroke:#000;stroke-linecap:round;stroke-linejoin:round;stroke-width:6px"/><path d="M122.9,56.8A54.1793,54.1793,0,0,1,68.7,111c-30,0-53.8-25.2-53.8-55.2C14.9,26.7,37.8,4.2,66.6,3h2.3A53.7323,53.7323,0,0,1,122.9,56.8Z" style="fill:none;stroke:#000;stroke-linejoin:round;stroke-width:6px"/><path d="M66.6,3.1C38.4,33.6,38.4,73.4,66.6,111" style="fill:none;stroke:#000;stroke-linejoin:round;stroke-width:6px"/><path d="M71.2,3.1c28.2,30.5,28.2,70.3,0,107.9" style="fill:none;stroke:#000;stroke-linejoin:round;stroke-width:6px"/><line x1="20.9" y1="81" x2="117.2" y2="81" style="fill:none;stroke:#000;stroke-linejoin:round;stroke-width:6px"/><line x1="23.9" y1="27" x2="113.9" y2="27" style="fill:none;stroke:#000;stroke-linejoin:round;stroke-width:6px"/><line x1="14.9" y1="57" x2="122.9" y2="57" style="fill:none;stroke:#000;stroke-linejoin:round;stroke-width:6px"/><rect width="144" height="144" style="fill:none"/></svg>