<svg xmlns="http://www.w3.org/2000/svg" viewBox="0 0 144 144"><path d="M98.2,93.2s2.7,1.4,10.7,5.5c-23.2,45.4-67.4,32.9-67.4,32.9s61.4,31.4,88.8-22c2.7,1.4,10.7,5.5,10.7,5.5l-7.7-37.6Z" style="fill:none;stroke:#000;stroke-linejoin:round;stroke-width:6px"/><line x1="11.4" y1="105" x2="83.8" y2="105" style="fill:none;stroke:#000;stroke-linecap:round;stroke-linejoin:round;stroke-width:6px"/><line x1="15.1" y1="33" x2="129" y2="33" style="fill:none;stroke:#000;stroke-linejoin:round;stroke-width:6px"/><line x1="120" y1="69" x2="3.1" y2="69" style="fill:none;stroke:#000;stroke-linecap:round;stroke-linejoin:round;stroke-width:6px"/><path d="M29.3,126.2A69.0089,69.0089,0,1,1,140,60.1" style="fill:none;stroke:#000;stroke-linecap:round;stroke-linejoin:round;stroke-width:6px"/><path d="M67.6,3.2C37.5,35.7,33,76.5,53.4,117" style="fill:none;stroke:#000;stroke-linecap:round;stroke-linejoin:round;stroke-width:6px"/><path d="M76.4,3.2C94.5,22.8,103.3,45.3,103,69" style="fill:none;stroke:#000;stroke-linecap:round;stroke-linejoin:round;stroke-width:6px"/><rect width="144" height="144" style="fill:none"/></svg>