<svg xmlns="http://www.w3.org/2000/svg" viewBox="0 0 144 144"><circle cx="110.9" cy="111" r="30" style="fill:none;stroke:#000;stroke-linejoin:round;stroke-width:6px"/><path d="M104,117.6a7,7,0,0,0,14,0,6.9358,6.9358,0,0,0-7-6.9,7.02,7.02,0,0,1-7-7,7.0007,7.0007,0,0,1,14,0" style="fill:none;stroke:#000;stroke-linecap:round;stroke-linejoin:round;stroke-width:6px"/><line x1="110.9" y1="124.6" x2="110.9" y2="129.2" style="fill:none;stroke:#000;stroke-linecap:round;stroke-linejoin:round;stroke-width:6px"/><line x1="110.9" y1="92.1" x2="110.9" y2="96.7" style="fill:none;stroke:#000;stroke-linecap:round;stroke-linejoin:round;stroke-width:6px"/><line x1="11.4" y1="105" x2="69" y2="105" style="fill:none;stroke:#000;stroke-linecap:round;stroke-linejoin:round;stroke-width:6px"/><line x1="15.1" y1="33" x2="129" y2="33" style="fill:none;stroke:#000;stroke-linejoin:round;stroke-width:6px"/><line x1="141" y1="69" x2="3.1" y2="69" style="fill:none;stroke:#000;stroke-linecap:round;stroke-linejoin:round;stroke-width:6px"/><path d="M68.3,140.9A69.0014,69.0014,0,1,1,141,69" style="fill:none;stroke:#000;stroke-linecap:round;stroke-linejoin:round;stroke-width:6px"/><path d="M67.6,3.2c-36,39-35.4,89.7.6,137.7" style="fill:none;stroke:#000;stroke-linecap:round;stroke-linejoin:round;stroke-width:6px"/><path d="M76.4,3.2C94.5,22.8,103.3,45.3,103,69" style="fill:none;stroke:#000;stroke-linecap:round;stroke-linejoin:round;stroke-width:6px"/><rect width="144" height="144" style="fill:none"/></svg>