<svg xmlns="http://www.w3.org/2000/svg" viewBox="0 0 144 144"><polygon points="123 21 123 87 78 87 27 87 27 21 123 21" style="fill:none;stroke:#000;stroke-linecap:round;stroke-linejoin:round;stroke-width:6px"/><path d="M15,99V18a8.9626,8.9626,0,0,1,9-9H126a8.9626,8.9626,0,0,1,9,9V99" style="fill:none;stroke:#000;stroke-linecap:round;stroke-linejoin:round;stroke-width:6px"/><path d="M87,99v6H63V99H9v12a6.0176,6.0176,0,0,0,6,6H135a6.0176,6.0176,0,0,0,6-6V99Z" style="fill:none;stroke:#000;stroke-linecap:round;stroke-linejoin:round;stroke-width:6px"/><line x1="9.1" y1="141" x2="140.8" y2="141" style="fill:none;stroke:#000;stroke-linecap:round;stroke-linejoin:round;stroke-width:6px"/><line x1="75" y1="141" x2="75" y2="117" style="fill:none;stroke:#000;stroke-linecap:round;stroke-linejoin:round;stroke-width:6px"/><rect width="144" height="144" style="fill:none"/></svg>