<svg xmlns="http://www.w3.org/2000/svg" viewBox="0 0 144 144"><polygon points="93 93 93 141 3 141 3 3 141 3 141 93 93 93" style="fill:none;stroke:#000;stroke-linejoin:round;stroke-width:6px"/><line x1="141" y1="93" x2="93" y2="141" style="fill:none;stroke:#000;stroke-linejoin:round;stroke-width:6px"/><path d="M30,60l6-6a8.51,8.51,0,0,1,12,0,8.51,8.51,0,0,0,12,0,8.51,8.51,0,0,1,12,0,8.51,8.51,0,0,0,12,0,8.51,8.51,0,0,1,12,0,8.51,8.51,0,0,0,12,0l6-6" style="fill:none;stroke:#000;stroke-linecap:round;stroke-linejoin:round;stroke-width:6px"/><path d="M30,90l6-6a8.51,8.51,0,0,1,12,0,8.51,8.51,0,0,0,12,0" style="fill:none;stroke:#000;stroke-linecap:round;stroke-linejoin:round;stroke-width:6px"/><rect width="144" height="144" style="fill:none"/></svg>