<svg xmlns="http://www.w3.org/2000/svg" viewBox="0 0 144 144.0144"><path d="M112.5,97.2a17.9776,17.9776,0,0,0-18.7-25,33.0059,33.0059,0,0,0-63.7,8.9A30.0212,30.0212,0,0,0,33,141H99a23.9718,23.9718,0,0,0,13.5-43.8Z" transform="translate(0 0.0144)" style="fill:none;stroke:#000;stroke-linecap:round;stroke-linejoin:round;stroke-width:6px"/><path d="M132.1,86a39.1119,39.1119,0,0,0,8.9-3.1c-32-15.2-31.9-60.6,0-75.8A41.8944,41.8944,0,0,0,82.1,35.8" transform="translate(0 0.0144)" style="fill:none;stroke:#000;stroke-linecap:round;stroke-linejoin:round;stroke-width:6px"/><rect y="0.0144" width="144" height="144" style="fill:none"/></svg>