<svg xmlns="http://www.w3.org/2000/svg" viewBox="0 0 144 144"><path d="M39,72C39,41.4,55.8,15.2,80,3.5a68.9692,68.9692,0,1,0,0,137C55.8,128.9,39,102.6,39,72Z" style="fill:none;stroke:#000;stroke-linecap:round;stroke-linejoin:round;stroke-width:6px"/><path d="M111,87c0,15.1,7.3,23.7,24,24-15.5-.1-23.2,8.2-24,24-.1-14.8-6.8-24-24-24C102.4,110.8,110.9,103.4,111,87Z" style="fill:none;stroke:#000;stroke-linejoin:round;stroke-width:6px"/><path d="M81,48c0,9.4,4.6,14.8,15,15-9.7,0-14.5,5.2-15,15-.1-9.3-4.2-15-15-15C75.6,62.9,81,58.2,81,48Z" style="fill:none;stroke:#000;stroke-linejoin:round;stroke-width:6px"/><path d="M123,9c0,11.3,5.5,17.7,18,18-11.6,0-17.4,6.2-18,18-.1-11.1-5.1-18-18-18C116.5,26.8,123,21.3,123,9Z" style="fill:none;stroke:#000;stroke-linejoin:round;stroke-width:6px"/><rect width="144" height="144" style="fill:none"/></svg>