<svg xmlns="http://www.w3.org/2000/svg" viewBox="0 0 144.1 144.0146"><circle cx="78" cy="138.0146" r="3" style="fill:none;stroke:#000;stroke-linecap:round;stroke-linejoin:round;stroke-width:6px"/><line x1="80.2" y1="135.9146" x2="105" y2="111.0146" style="fill:none;stroke:#000;stroke-linecap:round;stroke-linejoin:round;stroke-width:6px"/><circle cx="54" cy="132.0146" r="3" style="fill:none;stroke:#000;stroke-linecap:round;stroke-linejoin:round;stroke-width:6px"/><line x1="56.2" y1="129.9146" x2="75" y2="111.0146" style="fill:none;stroke:#000;stroke-linecap:round;stroke-linejoin:round;stroke-width:6px"/><circle cx="18" cy="138.0146" r="3" style="fill:none;stroke:#000;stroke-linecap:round;stroke-linejoin:round;stroke-width:6px"/><line x1="20.2" y1="135.9146" x2="45" y2="111.0146" style="fill:none;stroke:#000;stroke-linecap:round;stroke-linejoin:round;stroke-width:6px"/><path d="M113.9,117.8a23.943,23.943,0,0,0-1.4-38.6,17.9776,17.9776,0,0,0-18.7-25A33.0683,33.0683,0,0,0,30,63.1a30.0239,30.0239,0,0,0-12.4,55.7" transform="translate(0.1 0.0146)" style="fill:none;stroke:#000;stroke-linecap:round;stroke-linejoin:round;stroke-width:6px"/><path d="M133.5,71.9a30.9357,30.9357,0,0,0,7.4-2.6c-26.6-12.6-26.5-50.4,0-62.9A34.7654,34.7654,0,0,0,92,30.3" transform="translate(0.1 0.0146)" style="fill:none;stroke:#000;stroke-linecap:round;stroke-linejoin:round;stroke-width:6px"/><rect x="0.1" y="0.0146" width="144" height="144" style="fill:none"/></svg>