<svg xmlns="http://www.w3.org/2000/svg" viewBox="0 0 144 144.1146"><path d="M113.9,117.8a23.943,23.943,0,0,0-1.4-38.6,17.9776,17.9776,0,0,0-18.7-25,33.0059,33.0059,0,0,0-63.7,8.9,30.0239,30.0239,0,0,0-12.4,55.7" transform="translate(0 0.1146)" style="fill:none;stroke:#000;stroke-linecap:round;stroke-linejoin:round;stroke-width:6px"/><line x1="12" y1="141.1146" x2="42" y2="111.1146" style="fill:none;stroke:#000;stroke-linecap:round;stroke-linejoin:round;stroke-width:6px"/><line x1="42" y1="141.1146" x2="72" y2="111.1146" style="fill:none;stroke:#000;stroke-linecap:round;stroke-linejoin:round;stroke-width:6px"/><line x1="72" y1="141.1146" x2="102" y2="111.1146" style="fill:none;stroke:#000;stroke-linecap:round;stroke-linejoin:round;stroke-width:6px"/><path d="M133.6,71.9a30.9357,30.9357,0,0,0,7.4-2.6c-26.6-12.6-26.5-50.4,0-63A34.7383,34.7383,0,0,0,92.1,30.2" transform="translate(0 0.1146)" style="fill:none;stroke:#000;stroke-linecap:round;stroke-linejoin:round;stroke-width:6px"/><rect y="0.1146" width="144" height="144" style="fill:none"/></svg>