<svg xmlns="http://www.w3.org/2000/svg" viewBox="0 0 144 144"><path d="M9,81H123a54.7726,54.7726,0,0,1-54.4,48H63.4A54.7726,54.7726,0,0,1,9,81Z" style="fill:none;stroke:#000;stroke-linejoin:round;stroke-width:6px"/><rect x="45" y="129" width="42" height="12" style="fill:none;stroke:#000;stroke-linejoin:round;stroke-width:6px"/><path d="M47.3,39.3c8.5,15-11.8,26.8-1.6,41.7" style="fill:none;stroke:#000;stroke-linecap:round;stroke-linejoin:round;stroke-width:6px"/><path d="M58.1,37.5c11.4,15.9-10.7,28-.4,43.5" style="fill:none;stroke:#000;stroke-linecap:round;stroke-linejoin:round;stroke-width:6px"/><path d="M69,36c13.9,16.7-10.2,29,.7,45" style="fill:none;stroke:#000;stroke-linecap:round;stroke-linejoin:round;stroke-width:6px"/><path d="M81.7,81C70.8,65,94.9,52.7,81,36l-1.5-1.8" style="fill:none;stroke:#000;stroke-linecap:round;stroke-linejoin:round;stroke-width:6px"/><line x1="131.5" y1="27.3" x2="18.5" y2="42.4" style="fill:none;stroke:#000;stroke-linecap:round;stroke-linejoin:round;stroke-width:6px"/><line x1="129.9" y1="3" x2="20.1" y2="34" style="fill:none;stroke:#000;stroke-linecap:round;stroke-linejoin:round;stroke-width:6px"/><rect width="144" height="144" style="fill:none"/></svg>