<svg xmlns="http://www.w3.org/2000/svg" viewBox="0 0 144 144"><circle cx="105" cy="105" r="36" style="fill:none;stroke:#000;stroke-linejoin:round;stroke-width:6px"/><path d="M105,126a3,3,0,1,0,3,3,3.0759,3.0759,0,0,0-3-3Z" style="fill:#000"/><path d="M94.5,94.5A10.5,10.5,0,1,1,105,105v12" style="fill:none;stroke:#000;stroke-linecap:round;stroke-linejoin:round;stroke-width:6px"/><polyline points="57 123 3 123 3 3 117 3 117 57" style="fill:none;stroke:#000;stroke-linecap:round;stroke-linejoin:round;stroke-width:6px"/><path d="M24,9V9m6-6H18V24H30V3Z" style="fill:#000"/><path d="M48,9V9m6-6H42V24H54V3Z" style="fill:#000"/><path d="M96,9V9m6-6H90V24h12V3Z" style="fill:#000"/><path d="M72,9V9m6-6H66V24H78V3Z" style="fill:#000"/><rect width="144" height="144" style="fill:none"/></svg>