<svg xmlns="http://www.w3.org/2000/svg" viewBox="0 0 144 144"><circle cx="129" cy="87" r="12" style="fill:none;stroke:#000;stroke-linecap:round;stroke-linejoin:round;stroke-width:6px"/><circle cx="129" cy="129" r="12" style="fill:none;stroke:#000;stroke-linecap:round;stroke-linejoin:round;stroke-width:6px"/><circle cx="81" cy="111" r="12" style="fill:none;stroke:#000;stroke-linecap:round;stroke-linejoin:round;stroke-width:6px"/><line x1="91.7" y1="105.6" x2="118.3" y2="92.4" style="fill:none;stroke:#000;stroke-linecap:round;stroke-linejoin:round;stroke-width:6px"/><line x1="92.2" y1="115.2" x2="117.8" y2="124.8" style="fill:none;stroke:#000;stroke-linecap:round;stroke-linejoin:round;stroke-width:6px"/><polyline points="57 123 3 123 3 3 117 3 117 57" style="fill:none;stroke:#000;stroke-linecap:round;stroke-linejoin:round;stroke-width:6px"/><path d="M24,9V9m6-6H18V24H30V3Z" style="fill:#000"/><path d="M48,9V9m6-6H42V24H54V3Z" style="fill:#000"/><path d="M96,9V9m6-6H90V24h12V3Z" style="fill:#000"/><path d="M72,9V9m6-6H66V24H78V3Z" style="fill:#000"/><rect width="144" height="144" style="fill:none"/></svg>