<svg xmlns="http://www.w3.org/2000/svg" viewBox="0 0 144 144"><path d="M131.2,98.5l6.4-3.7-9-15.6-6.5,3.7a29.7731,29.7731,0,0,0-11.2-6.4V69H93v7.5a29.7731,29.7731,0,0,0-11.2,6.4l-6.5-3.7-9,15.6,6.4,3.7a28.5417,28.5417,0,0,0,0,13l-6.4,3.7,9,15.6,6.5-3.7A29.7731,29.7731,0,0,0,93,133.5V141h18v-7.5a29.7731,29.7731,0,0,0,11.2-6.4l6.5,3.7,9-15.6-6.4-3.7A28.5441,28.5441,0,0,0,131.2,98.5Z" style="fill:none;stroke:#000;stroke-linejoin:round;stroke-width:6px"/><circle cx="102" cy="105" r="12" style="fill:none;stroke:#000;stroke-linejoin:round;stroke-width:6px"/><polyline points="57 123 3 123 3 3 117 3 117 57" style="fill:none;stroke:#000;stroke-linecap:round;stroke-linejoin:round;stroke-width:6px"/><path d="M24,9V9m6-6H18V24H30V3Z" style="fill:#000"/><path d="M48,9V9m6-6H42V24H54V3Z" style="fill:#000"/><path d="M96,9V9m6-6H90V24h12V3Z" style="fill:#000"/><path d="M72,9V9m6-6H66V24H78V3Z" style="fill:#000"/><rect width="144" height="144" style="fill:none"/></svg>