<svg xmlns="http://www.w3.org/2000/svg" viewBox="0 0 144 144"><path d="M72,96.6S99,77.2,99,62.8c0-16.6-22.1-21.9-27-1.7-4.9-20.2-27-15-27,1.7C45,77.2,72,96.6,72,96.6Z" style="fill:none;stroke:#000;stroke-linejoin:round;stroke-width:6px"/><path d="M9,111V36a8.9626,8.9626,0,0,1,9-9H126a8.9626,8.9626,0,0,1,9,9v75" style="fill:none;stroke:#000;stroke-linecap:round;stroke-linejoin:round;stroke-width:6px"/><path d="M87,111v6H57v-6H3v12a6.0176,6.0176,0,0,0,6,6H135a6.0176,6.0176,0,0,0,6-6V111Z" style="fill:none;stroke:#000;stroke-linecap:round;stroke-linejoin:round;stroke-width:6px"/><rect width="144" height="144" style="fill:none"/></svg>