<svg xmlns="http://www.w3.org/2000/svg" viewBox="0 0 144 144"><rect x="75" y="3" width="66" height="90" style="fill:none;stroke:#000;stroke-linejoin:round;stroke-width:6px"/><rect x="3" y="99" width="24" height="42" style="fill:none;stroke:#000;stroke-linejoin:round;stroke-width:6px"/><path d="M27,135H129c0-9-21-18-45-18H42" style="fill:none;stroke:#000;stroke-linecap:round;stroke-linejoin:round;stroke-width:6px"/><path d="M27,105H48c14.1,0,21,9,24,12" style="fill:none;stroke:#000;stroke-linejoin:round;stroke-width:6px"/><path d="M15,126a3.0085,3.0085,0,0,0-3,3,3,3,0,0,0,6,0,3.0085,3.0085,0,0,0-3-3Z" style="fill:#000"/><path d="M90,9V9m6-6H84V24H96V3Z" style="fill:#000"/><path d="M108,9V9m6-6H102V24h12V3Z" style="fill:#000"/><path d="M126,9V9m6-6H120V24h12V3Z" style="fill:#000"/><rect width="144" height="144" style="fill:none"/></svg>