<svg xmlns="http://www.w3.org/2000/svg" viewBox="0 0 144 144"><path d="M9,111V36a8.9626,8.9626,0,0,1,9-9H126a8.9626,8.9626,0,0,1,9,9v75" style="fill:none;stroke:#000;stroke-linecap:round;stroke-linejoin:round;stroke-width:6px"/><path d="M87,111v6H57v-6H3v12a6.0176,6.0176,0,0,0,6,6H135a6.0176,6.0176,0,0,0,6-6V111Z" style="fill:none;stroke:#000;stroke-linecap:round;stroke-linejoin:round;stroke-width:6px"/><polyline points="51 69 51 99 93 99 93 69" style="fill:none;stroke:#000;stroke-linecap:round;stroke-linejoin:round;stroke-width:6px"/><polygon points="39 69 72 42 105 69 39 69" style="fill:none;stroke:#000;stroke-linecap:round;stroke-linejoin:round;stroke-width:6px"/><rect x="63" y="81" width="18" height="18" style="fill:none;stroke:#000;stroke-linecap:round;stroke-linejoin:round;stroke-width:6px"/><rect width="144" height="144" style="fill:none"/></svg>