<svg xmlns="http://www.w3.org/2000/svg" viewBox="0 0 144.6 144"><polyline points="57 123 3 123 3 3 117 3 117 57" style="fill:none;stroke:#000;stroke-linecap:round;stroke-linejoin:round;stroke-width:6px"/><path d="M24,9V9m6-6H18V24H30V3Z" style="fill:#000"/><path d="M48,9V9m6-6H42V24H54V3Z" style="fill:#000"/><path d="M96,9V9m6-6H90V24h12V3Z" style="fill:#000"/><path d="M72,9V9m6-6H66V24H78V3Z" style="fill:#000"/><line x1="69" y1="141" x2="110.8" y2="99.3" style="fill:none;stroke:#000;stroke-linecap:round;stroke-linejoin:round;stroke-width:6px"/><path d="M99.9,82.3c-5.9.6-29.8,24.8-13.7,40.9,5.6,5.6,18.3,4.7,33.5-10.4,15.1-15.1,21.9-44.4,21.9-44.4a123.4775,123.4775,0,0,0-28.7,8.1S112,92.9,100,92.9C99.9,89,99.9,82.3,99.9,82.3Z" style="fill:none;stroke:#000;stroke-linecap:round;stroke-linejoin:round;stroke-width:6px"/><rect width="144" height="144" style="fill:none"/></svg>