<svg xmlns="http://www.w3.org/2000/svg" viewBox="0 0 144 144"><polygon points="69 141 141 141 105 69 69 141" style="fill:none;stroke:#000;stroke-linecap:round;stroke-linejoin:round;stroke-width:6px"/><line x1="105" y1="99" x2="105" y2="120" style="fill:none;stroke:#000;stroke-linecap:round;stroke-linejoin:round;stroke-width:6px"/><path d="M105,126a3,3,0,1,0,3,3A3,3,0,0,0,105,126Z" style="fill:#000"/><polyline points="57 123 3 123 3 3 117 3 117 57" style="fill:none;stroke:#000;stroke-linecap:round;stroke-linejoin:round;stroke-width:6px"/><path d="M24,9h0m6-6H18V24H30Z" style="fill:#000"/><path d="M48,9h0m6-6H42V24H54Z" style="fill:#000"/><path d="M96,9h0m6-6H90V24h12Z" style="fill:#000"/><path d="M72,9h0m6-6H66V24H78Z" style="fill:#000"/><rect width="144" height="144" style="fill:none"/></svg>