<svg xmlns="http://www.w3.org/2000/svg" viewBox="0 0 144 144"><polygon points="117 21 117 87 72 87 21 87 21 21 117 21" style="fill:none;stroke:#000;stroke-linecap:round;stroke-linejoin:round;stroke-width:6px"/><path d="M9,99V18a8.9626,8.9626,0,0,1,9-9H120a8.9626,8.9626,0,0,1,9,9V99" style="fill:none;stroke:#000;stroke-linecap:round;stroke-linejoin:round;stroke-width:6px"/><path d="M81,99v6H57V99H3v12a6.0176,6.0176,0,0,0,6,6H129a6.0176,6.0176,0,0,0,6-6V99Z" style="fill:none;stroke:#000;stroke-linecap:round;stroke-linejoin:round;stroke-width:6px"/><line x1="3.1" y1="141" x2="134.8" y2="141" style="fill:none;stroke:#000;stroke-linecap:round;stroke-linejoin:round;stroke-width:6px"/><line x1="69" y1="141" x2="69" y2="117" style="fill:none;stroke:#000;stroke-linecap:round;stroke-linejoin:round;stroke-width:6px"/><rect x="51" y="51" width="36" height="24" style="fill:none;stroke:#000;stroke-linecap:round;stroke-linejoin:round;stroke-width:6px"/><path d="M57,45a12,12,0,0,1,24,0v6H57Z" style="fill:none;stroke:#000;stroke-linecap:round;stroke-linejoin:round;stroke-width:6px"/><rect width="144" height="144" style="fill:none"/></svg>