<svg xmlns="http://www.w3.org/2000/svg" viewBox="0 0 144.0117 144"><path d="M116.7,27l-67,33.7A57.5492,57.5492,0,0,0,33,72.5L11.5,94.1c-10,10-11.6,26.2-2.6,37a27.068,27.068,0,0,0,40,2l22.4-22.4A58.92,58.92,0,0,0,83.1,94Z" transform="translate(0.0117)" style="fill:none;stroke:#000;stroke-linecap:round;stroke-linejoin:round;stroke-width:6px"/><polyline points="95.512 69.4 114.612 63.1 140.112 37.6 110.412 33.4" style="fill:none;stroke:#000;stroke-linecap:round;stroke-linejoin:round;stroke-width:6px"/><polyline points="74.312 48.2 80.712 29.1 106.112 3.7 110.412 33.4" style="fill:none;stroke:#000;stroke-linecap:round;stroke-linejoin:round;stroke-width:6px"/><rect x="37.6872" y="70.0362" width="17.9998" height="53.9995" transform="translate(-54.9288 61.4339) rotate(-45)" style="fill:none;stroke:#000;stroke-linecap:round;stroke-linejoin:round;stroke-width:5.999942240425611px"/><line x1="40.4117" y1="137.3" x2="6.4117" y2="103.4" style="fill:none;stroke:#000;stroke-linecap:round;stroke-linejoin:round;stroke-width:6px"/><rect x="0.0117" width="144" height="144" style="fill:none"/></svg>