<svg xmlns="http://www.w3.org/2000/svg" viewBox="0 0 144 144"><path d="M141,63a6.0176,6.0176,0,0,0-6-6H9a6.0176,6.0176,0,0,0-6,6c19.6,52.2,18,54,24,54h90C123,117,121.4,115.2,141,63Z" style="fill:none;stroke:#000;stroke-linejoin:round;stroke-width:6px"/><polygon points="96 27 48 27 33 57 111 57 96 27" style="fill:none;stroke:#000;stroke-linejoin:round;stroke-width:6px"/><polyline points="111 57 117 36 140.2 60" style="fill:none;stroke:#000;stroke-linejoin:round;stroke-width:6px"/><polyline points="33 57 27 36 3.8 60" style="fill:none;stroke:#000;stroke-linejoin:round;stroke-width:6px"/><polygon points="93 81 81 81 81 69 69 69 69 81 57 81 57 93 69 93 69 105 81 105 81 93 93 93 93 81" style="fill:none;stroke:#000;stroke-linejoin:round;stroke-width:6px"/><rect width="144" height="144" style="fill:none"/></svg>