<svg xmlns="http://www.w3.org/2000/svg" viewBox="0 0 144 144"><path d="M88.2,98.1c27,12,52.8,18.9,52.8,39.9v3H3v-3c0-21,25.8-27.9,52.8-39.9" style="fill:none;stroke:#000;stroke-linecap:round;stroke-linejoin:round;stroke-width:6px"/><path d="M48,45H96l4-28.3a12.098,12.098,0,0,0-2.8-9.6,11.9226,11.9226,0,0,0-9-4.1H55.8a12.1336,12.1336,0,0,0-9.1,4.1,11.8887,11.8887,0,0,0-2.8,9.6Z" style="fill:none;stroke:#000;stroke-linecap:round;stroke-linejoin:round;stroke-width:6px"/><line x1="72" y1="15" x2="72" y2="33" style="fill:none;stroke:#000;stroke-linecap:round;stroke-linejoin:round;stroke-width:6px"/><line x1="63" y1="24" x2="81" y2="24" style="fill:none;stroke:#000;stroke-linecap:round;stroke-linejoin:round;stroke-width:6px"/><path d="M44.6,21C11.6,33,24,81,12,90c0,0,25.4,5.7,34.4-3.3" style="fill:none;stroke:#000;stroke-linejoin:round;stroke-width:6px"/><path d="M99.4,21.2C132.4,33.2,120,81,132,90c0,0-25.3,5.7-34.3-3.3" style="fill:none;stroke:#000;stroke-linejoin:round;stroke-width:6px"/><path d="M54,45c0,6-9,21-21,21" style="fill:none;stroke:#000;stroke-linecap:round;stroke-linejoin:round;stroke-width:6px"/><path d="M102,63c0,36-21,39-30,42-9-3-30-6-30-42" style="fill:none;stroke:#000;stroke-linecap:round;stroke-linejoin:round;stroke-width:6px"/><path d="M90,45c0,6,9,21,21,21" style="fill:none;stroke:#000;stroke-linecap:round;stroke-linejoin:round;stroke-width:6px"/><line x1="47.7" y1="101.7" x2="72" y2="129" style="fill:none;stroke:#000;stroke-linecap:round;stroke-linejoin:round;stroke-width:6px"/><line x1="72" y1="129" x2="96.3" y2="101.7" style="fill:none;stroke:#000;stroke-linecap:round;stroke-linejoin:round;stroke-width:6px"/><line x1="72" y1="129" x2="72" y2="141" style="fill:none;stroke:#000;stroke-linecap:round;stroke-linejoin:round;stroke-width:6px"/><polyline points="39.1 105.3 48 129 69.3 126" style="fill:none;stroke:#000;stroke-linejoin:round;stroke-width:6px"/><polyline points="104.9 105.3 96 129 74.7 126" style="fill:none;stroke:#000;stroke-linejoin:round;stroke-width:6px"/><path d="M54,66c0-3.3,2.7-3,6-3s6-.3,6,3" style="fill:none;stroke:#000;stroke-linecap:round;stroke-linejoin:round;stroke-width:6px"/><path d="M78,66c0-3.3,2.7-3,6-3s6-.3,6,3" style="fill:none;stroke:#000;stroke-linecap:round;stroke-linejoin:round;stroke-width:6px"/><rect width="144" height="144" style="fill:none"/></svg>