<svg xmlns="http://www.w3.org/2000/svg" viewBox="0 0 144 144"><path d="M129,135a6.0176,6.0176,0,0,1-6,6H15a6.0176,6.0176,0,0,1-6-6V39H51V21A12.0353,12.0353,0,0,1,63,9h54a12.0353,12.0353,0,0,1,12,12Z" style="fill:none;stroke:#000;stroke-linejoin:round;stroke-width:6px"/><path d="M69,21a6.0176,6.0176,0,0,0-6,6v6a6.0176,6.0176,0,0,0,6,6h42a6.0176,6.0176,0,0,0,6-6V27a6.0176,6.0176,0,0,0-6-6Z" style="fill:none;stroke:#000;stroke-linejoin:round;stroke-width:6px"/><line x1="39.3" y1="59" x2="98.7" y2="118.4" style="fill:none;stroke:#000;stroke-linecap:round;stroke-linejoin:round;stroke-width:6px"/><line x1="98.7" y1="59" x2="39.3" y2="118.4" style="fill:none;stroke:#000;stroke-linecap:round;stroke-linejoin:round;stroke-width:6px"/><rect x="15" y="21" width="24" height="18" style="fill:none;stroke:#000;stroke-linecap:round;stroke-linejoin:round;stroke-width:6px"/><rect width="144" height="144" style="fill:none"/></svg>