<svg xmlns="http://www.w3.org/2000/svg" viewBox="0 0 144 144"><rect x="3" y="9" width="78" height="126" style="fill:none;stroke:#000;stroke-linecap:round;stroke-linejoin:round;stroke-width:6px"/><rect x="51" y="81" width="12" height="24" style="fill:none;stroke:#000;stroke-linecap:round;stroke-linejoin:round;stroke-width:6px"/><polygon points="135 99 123 105 123 87 135 87 135 99" style="fill:none;stroke:#000;stroke-linecap:round;stroke-linejoin:round;stroke-width:6px"/><path d="M123,87V78c0-5,18-21,18-21" style="fill:none;stroke:#000;stroke-linecap:round;stroke-linejoin:round;stroke-width:6px"/><path d="M123,105v18a12,12,0,0,1-24,0V42a8.9626,8.9626,0,0,0-9-9H81" style="fill:none;stroke:#000;stroke-linecap:round;stroke-linejoin:round;stroke-width:6px"/><line x1="3" y1="57" x2="81" y2="57" style="fill:none;stroke:#000;stroke-linecap:round;stroke-linejoin:round;stroke-width:6px"/><rect x="15" y="21" width="54" height="24" style="fill:none;stroke:#000;stroke-linecap:round;stroke-linejoin:round;stroke-width:6px"/><line x1="51" y1="117" x2="63" y2="117" style="fill:none;stroke:#000;stroke-linecap:round;stroke-linejoin:round;stroke-width:6px"/><rect width="144" height="144" style="fill:none"/></svg>