<svg xmlns="http://www.w3.org/2000/svg" viewBox="0 0 144 144"><path d="M140.2,134.9a6.0176,6.0176,0,0,1-6,6h-96a6.0176,6.0176,0,0,1-6-6V74.5a12.0342,12.0342,0,0,1,4.3-9.2L68.2,38.9v-18a12.0353,12.0353,0,0,1,12-12h48a12.0353,12.0353,0,0,1,12,12Z" style="fill:none;stroke:#000;stroke-linejoin:round;stroke-width:6px"/><path d="M86.2,20.9a6.0176,6.0176,0,0,0-6,6v6a6.0176,6.0176,0,0,0,6,6h36a6.0176,6.0176,0,0,0,6-6v-6a6.0176,6.0176,0,0,0-6-6Z" style="fill:none;stroke:#000;stroke-linejoin:round;stroke-width:6px"/><line x1="68.2" y1="68.9" x2="116.2" y2="116.9" style="fill:none;stroke:#000;stroke-linecap:round;stroke-linejoin:round;stroke-width:6px"/><line x1="116.2" y1="68.9" x2="68.2" y2="116.9" style="fill:none;stroke:#000;stroke-linecap:round;stroke-linejoin:round;stroke-width:6px"/><polyline points="67.2 38.9 58.2 32.9 37.2 50.9 43.2 59.9" style="fill:none;stroke:#000;stroke-linejoin:round;stroke-width:6px"/><path d="M43,46C33.1,33.3,25.7,20.9,7.2,17.8c0,0,.8-4.6,2-11.8C28.8,6.9,41.7,25,52,38.2" style="fill:none;stroke:#000;stroke-linecap:round;stroke-linejoin:round;stroke-width:6px"/><rect width="144" height="144" style="fill:none"/></svg>