<svg xmlns="http://www.w3.org/2000/svg" viewBox="0 0 144 144"><path d="M59.9,40.6A124.597,124.597,0,0,0,3,58.9L33.2,89.1a83.426,83.426,0,0,1,26.7-7.4" style="fill:none;stroke:#000;stroke-linejoin:round;stroke-width:6px"/><path d="M78.2,81.7A85.9211,85.9211,0,0,1,105,89.1l30.2-30.2A127.1045,127.1045,0,0,0,78.1,40.5" style="fill:none;stroke:#000;stroke-linejoin:round;stroke-width:6px"/><circle cx="69.1" cy="117" r="12" style="fill:none;stroke:#000;stroke-linejoin:round;stroke-width:6px"/><line x1="63.9" y1="106.2" x2="30.8" y2="60.4" style="fill:none;stroke:#000;stroke-linecap:round;stroke-linejoin:round;stroke-width:6px"/><line x1="69" y1="15" x2="69" y2="21" style="fill:none;stroke:#000;stroke-linecap:round;stroke-linejoin:round;stroke-width:6px"/><line x1="69" y1="33" x2="69" y2="39" style="fill:none;stroke:#000;stroke-linecap:round;stroke-linejoin:round;stroke-width:6px"/><line x1="69" y1="51" x2="69" y2="57" style="fill:none;stroke:#000;stroke-linecap:round;stroke-linejoin:round;stroke-width:6px"/><line x1="69" y1="69" x2="69" y2="75" style="fill:none;stroke:#000;stroke-linecap:round;stroke-linejoin:round;stroke-width:6px"/><line x1="69" y1="87" x2="69" y2="93" style="fill:none;stroke:#000;stroke-linecap:round;stroke-linejoin:round;stroke-width:6px"/><rect width="144" height="144" style="fill:none"/></svg>