<svg xmlns="http://www.w3.org/2000/svg" viewBox="0 0 144 144"><path d="M111,63v6c-1.1,5.6-6.3,12-12,12H81" style="fill:none;stroke:#000;stroke-linecap:round;stroke-linejoin:round;stroke-width:6px"/><path d="M120,54a8.9626,8.9626,0,0,1-9,9h-6V45h6A8.9626,8.9626,0,0,1,120,54Z" style="fill:none;stroke:#000;stroke-linecap:round;stroke-linejoin:round;stroke-width:6px"/><line x1="81" y1="81" x2="69" y2="81" style="fill:none;stroke:#000;stroke-linecap:round;stroke-linejoin:round;stroke-width:12px"/><path d="M118.4,35.9C112.9,14.8,103.9-4,72,12,12-18,33,75,6,75c9,21,36.7,12,36.7-3" style="fill:none;stroke:#000;stroke-linecap:round;stroke-linejoin:round;stroke-width:6px"/><path d="M116.9,87.1c7.9,1.3,16.7-1.9,21.1-12.1-5.9,0-9.5-4.4-12.1-11" style="fill:none;stroke:#000;stroke-linecap:round;stroke-linejoin:round;stroke-width:6px"/><path d="M99,39c-24,0-24-9-27-12-3,3-3,12-27,12L42,51c-9,0-9,18,0,18,3,18,21,27,30,30" style="fill:none;stroke:#000;stroke-linecap:round;stroke-linejoin:round;stroke-width:6px"/><path d="M86.8,91.4A59.5121,59.5121,0,0,1,72,99" style="fill:none;stroke:#000;stroke-linecap:round;stroke-linejoin:round;stroke-width:6px"/><path d="M86.8,91.4c27,12,54.2,19.5,54.2,40.5v9H3v-9c0-21,27.2-28.5,54.2-40.5" style="fill:none;stroke:#000;stroke-linecap:round;stroke-linejoin:round;stroke-width:6px"/><path d="M48,95.4c0,18,24,45.6,24,45.6" style="fill:none;stroke:#000;stroke-linecap:round;stroke-linejoin:round;stroke-width:6px"/><path d="M96,95.4c0,18-24,45.6-24,45.6" style="fill:none;stroke:#000;stroke-linecap:round;stroke-linejoin:round;stroke-width:6px"/><path d="M54,54c0-3.3,2.7-3,6-3s6-.3,6,3" style="fill:none;stroke:#000;stroke-linecap:round;stroke-linejoin:round;stroke-width:6px"/><path d="M78,54c0-3.3,2.7-3,6-3s6-.3,6,3" style="fill:none;stroke:#000;stroke-linecap:round;stroke-linejoin:round;stroke-width:6px"/><rect width="144" height="144" style="fill:none"/></svg>