<svg xmlns="http://www.w3.org/2000/svg" viewBox="0 0 144 144"><path d="M123,54A51,51,0,0,0,21,54v81a6.0176,6.0176,0,0,0,6,6h3a6.0176,6.0176,0,0,0,6-6h0a6.0176,6.0176,0,0,1,6-6h0a6.0176,6.0176,0,0,1,6,6h0a6.0176,6.0176,0,0,0,6,6h6a6.0176,6.0176,0,0,0,6-6h0a6.0176,6.0176,0,0,1,6-6h0a6.0176,6.0176,0,0,1,6,6h0a6.0176,6.0176,0,0,0,6,6h6a6.0176,6.0176,0,0,0,6-6h0a6.0176,6.0176,0,0,1,6-6h0a6.0176,6.0176,0,0,1,6,6h0a6.0176,6.0176,0,0,0,6,6h3a6.0176,6.0176,0,0,0,6-6Z" style="fill:none;stroke:#000;stroke-linecap:round;stroke-linejoin:round;stroke-width:6px"/><path d="M99,72a9.0264,9.0264,0,0,1-9,9h0a9.0264,9.0264,0,0,1-9-9V54a9.0919,9.0919,0,0,1,9-9h0a9.0919,9.0919,0,0,1,9,9Z" style="fill:none;stroke:#000;stroke-linecap:round;stroke-linejoin:round;stroke-width:6px"/><circle cx="84" cy="66" r="3" style="fill:none;stroke:#000;stroke-linecap:round;stroke-linejoin:round;stroke-width:6px"/><path d="M63,72a9.0264,9.0264,0,0,1-9,9h0a9.0264,9.0264,0,0,1-9-9V54a9.0919,9.0919,0,0,1,9-9h0a9.0919,9.0919,0,0,1,9,9Z" style="fill:none;stroke:#000;stroke-linecap:round;stroke-linejoin:round;stroke-width:6px"/><circle cx="48" cy="66" r="3" style="fill:none;stroke:#000;stroke-linecap:round;stroke-linejoin:round;stroke-width:6px"/><rect width="144" height="144" style="fill:none"/></svg>