<svg xmlns="http://www.w3.org/2000/svg" viewBox="0 0 144.05 144.05"><circle cx="99" cy="51" r="24" style="fill:none;stroke:#000;stroke-linecap:round;stroke-linejoin:round;stroke-width:6px"/><path d="M114,111a18,18,0,0,1-36,0V93a18,18,0,0,1,36,0Z" style="fill:none;stroke:#000;stroke-linecap:round;stroke-linejoin:round;stroke-width:6px"/><path d="M124.3,133.3a4.5255,4.5255,0,0,0,6.4,6.4l9-12a4.5255,4.5255,0,0,0-6.4-6.4Z" style="fill:none;stroke:#000;stroke-linecap:round;stroke-linejoin:round;stroke-width:6px"/><path d="M49.3,133.3a4.5255,4.5255,0,0,0,6.4,6.4l9-12a4.5255,4.5255,0,0,0-6.4-6.4Z" style="fill:none;stroke:#000;stroke-linecap:round;stroke-linejoin:round;stroke-width:6px"/><path d="M109.4,123c7,0,11.9,2.6,16.7,7" style="fill:none;stroke:#000;stroke-linecap:round;stroke-linejoin:round;stroke-width:6px"/><path d="M87,126.6A19.3083,19.3083,0,0,1,73.5,132a20.23,20.23,0,0,1-10-2.7" style="fill:none;stroke:#000;stroke-linecap:round;stroke-linejoin:round;stroke-width:6px"/><path d="M141,76.5A16.5163,16.5163,0,0,1,124.5,93,16.0886,16.0886,0,0,1,114,89.2" style="fill:none;stroke:#000;stroke-linecap:round;stroke-linejoin:round;stroke-width:6px"/><path d="M54,99A20.9974,20.9974,0,0,1,75,78H86.1" style="fill:none;stroke:#000;stroke-linecap:round;stroke-linejoin:round;stroke-width:6px"/><circle cx="69" cy="18" r="6" style="fill:none;stroke:#000;stroke-linecap:round;stroke-linejoin:round;stroke-width:6px"/><line x1="72" y1="21" x2="84" y2="33" style="fill:none;stroke:#000;stroke-linejoin:round;stroke-width:6px"/><line x1="21" y1="36" x2="51" y2="36" style="fill:none;stroke:#000;stroke-linecap:round;stroke-linejoin:round;stroke-width:6px"/><line x1="21" y1="54" x2="51" y2="54" style="fill:none;stroke:#000;stroke-linecap:round;stroke-linejoin:round;stroke-width:6px"/><line x1="21" y1="72" x2="45" y2="72" style="fill:none;stroke:#000;stroke-linecap:round;stroke-linejoin:round;stroke-width:6px"/><line x1="3" y1="36" x2="9" y2="36" style="fill:none;stroke:#000;stroke-linecap:round;stroke-linejoin:round;stroke-width:6px"/><line x1="3" y1="54" x2="9" y2="54" style="fill:none;stroke:#000;stroke-linecap:round;stroke-linejoin:round;stroke-width:6px"/><line x1="3" y1="72" x2="9" y2="72" style="fill:none;stroke:#000;stroke-linecap:round;stroke-linejoin:round;stroke-width:6px"/><path d="M120,42H102a9,9,0,0,0,0,18h18" style="fill:none;stroke:#000;stroke-linecap:round;stroke-linejoin:round;stroke-width:6px"/><rect width="144" height="144" style="fill:none"/></svg>