<svg xmlns="http://www.w3.org/2000/svg" viewBox="0 0 144 144"><path d="M89.9,63a6.0538,6.0538,0,0,1-5.6-8.2A37.6193,37.6193,0,0,0,87,40.7V18a15,15,0,0,0-30,0V40.7a38,38,0,0,0,2.7,14.1A5.9734,5.9734,0,0,1,54.1,63H24a8.9626,8.9626,0,0,0-9,9V93H129V72a8.9626,8.9626,0,0,0-9-9Z" style="fill:none;stroke:#000;stroke-linecap:round;stroke-linejoin:round;stroke-width:6px"/><polygon points="123 141 51 141 51 117 39 141 21 141 21 93 123 93 123 141" style="fill:none;stroke:#000;stroke-linecap:round;stroke-linejoin:round;stroke-width:6px"/><line x1="111" y1="111" x2="111" y2="141" style="fill:none;stroke:#000;stroke-linecap:round;stroke-linejoin:round;stroke-width:6px"/><line x1="99" y1="117" x2="99" y2="141" style="fill:none;stroke:#000;stroke-linecap:round;stroke-linejoin:round;stroke-width:6px"/><line x1="87" y1="126" x2="87" y2="141" style="fill:none;stroke:#000;stroke-linecap:round;stroke-linejoin:round;stroke-width:6px"/><circle cx="72" cy="18" r="3" style="fill:none;stroke:#000;stroke-linecap:round;stroke-linejoin:round;stroke-width:6px"/><rect width="144" height="144" style="fill:none"/></svg>