<svg xmlns="http://www.w3.org/2000/svg" viewBox="0 0 144 144"><path d="M81,80.7c-5,0-12,4-12,9v45c0,3.3,6.6,6.3,10,6.3h6c3.3,0,8-2.9,8-6.3v-45C93,84.8,86,80.7,81,80.7Z" style="fill:none;stroke:#000;stroke-linecap:round;stroke-linejoin:round;stroke-width:6px"/><path d="M33,21H27a6.0176,6.0176,0,0,0-6,6V51a6.0176,6.0176,0,0,0,6,6H75a6.0176,6.0176,0,0,1,6,6V80.6" style="fill:none;stroke:#000;stroke-linecap:round;stroke-linejoin:round;stroke-width:6px"/><rect x="33" y="3" width="90" height="36" style="fill:none;stroke:#000;stroke-linecap:round;stroke-linejoin:round;stroke-width:6px"/><line x1="123" y1="21" x2="129" y2="21" style="fill:none;stroke:#000;stroke-linecap:round;stroke-linejoin:round;stroke-width:6px"/><rect width="144" height="144" style="fill:none"/></svg>