<svg xmlns="http://www.w3.org/2000/svg" viewBox="0 0 144 144.0894"><path d="M43.2,57.2,3.8,131.1a6.8049,6.8049,0,0,0,9.2,9.2l74-39.6" style="fill:none;stroke:#000;stroke-linejoin:round;stroke-width:6px"/><ellipse cx="68.1279" cy="75.932" rx="14.9009" ry="32.302" transform="translate(-33.7374 70.4065) rotate(-44.9959)" style="fill:none;stroke:#000;stroke-linejoin:round;stroke-width:6.000366589900481px"/><path d="M98.7,73.3a29.8157,29.8157,0,0,1,42.1,0" style="fill:none;stroke:#000;stroke-linecap:round;stroke-linejoin:round;stroke-width:6px"/><path d="M70.6,45.2a29.8157,29.8157,0,0,0,0-42.1" style="fill:none;stroke:#000;stroke-linecap:round;stroke-linejoin:round;stroke-width:6px"/><line x1="108.5" y1="49.5" x2="129.5" y2="42.5" style="fill:none;stroke:#000;stroke-linecap:round;stroke-linejoin:round;stroke-width:6px"/><line x1="94.4" y1="35.5" x2="101.4" y2="14.4" style="fill:none;stroke:#000;stroke-linecap:round;stroke-linejoin:round;stroke-width:6px"/><circle cx="93.4" cy="49.5" r="3" style="fill:none;stroke:#000;stroke-linecap:round;stroke-linejoin:round;stroke-width:6px"/><circle cx="48.8" cy="32" r="3" style="fill:none;stroke:#000;stroke-linecap:round;stroke-linejoin:round;stroke-width:6px"/><circle cx="119.4" cy="24.6" r="3" style="fill:none;stroke:#000;stroke-linecap:round;stroke-linejoin:round;stroke-width:6px"/><circle cx="115.5" cy="84.6" r="3" style="fill:none;stroke:#000;stroke-linecap:round;stroke-linejoin:round;stroke-width:6px"/><rect width="144" height="144" style="fill:none"/></svg>