<svg xmlns="http://www.w3.org/2000/svg" viewBox="0 0 144 144.0318"><path d="M88.9,4.1C86.1,1.4,79.3,3.7,72,9.2,64.7,3.7,57.9,1.4,55.1,4.1c-2.7,2.7-.4,9.6,5.1,16.9-5.5,7.3-7.8,14.1-5.1,16.9,2.7,2.7,9.6.4,16.9-5.1,7.3,5.5,14.1,7.8,16.9,5.1,2.7-2.7.4-9.6-5.1-16.9C89.3,13.7,91.6,6.9,88.9,4.1Z" transform="translate(0 0.0318)" style="fill:none;stroke:#000;stroke-linecap:round;stroke-linejoin:round;stroke-width:6px"/><line x1="108.9" y1="114.0318" x2="98.3" y2="88.0318" style="fill:none;stroke:#000;stroke-linejoin:round;stroke-width:6px"/><polyline points="37 141.032 27 141.032 38.8 110.332" style="fill:none;stroke:#000;stroke-linejoin:round;stroke-width:6px"/><line x1="52.3" y1="75.3318" x2="38.8" y2="110.3318" style="fill:none;stroke:#000;stroke-linejoin:round;stroke-width:6px"/><line x1="87.6" y1="62.0318" x2="98.3" y2="88.0318" style="fill:none;stroke:#000;stroke-linejoin:round;stroke-width:6px"/><polyline points="37 141.032 120 141.032 108.9 114.032" style="fill:none;stroke:#000;stroke-linejoin:round;stroke-width:6px"/><line x1="77.1" y1="36.5318" x2="87.6" y2="62.0318" style="fill:none;stroke:#000;stroke-linejoin:round;stroke-width:6px"/><line x1="67.1" y1="36.8318" x2="52.3" y2="75.3318" style="fill:none;stroke:#000;stroke-linejoin:round;stroke-width:6px"/><line x1="37" y1="141.0318" x2="108.9" y2="114.0318" style="fill:none;stroke:#000;stroke-linejoin:round;stroke-width:6px"/><line x1="38.8" y1="110.3318" x2="98.3" y2="88.0318" style="fill:none;stroke:#000;stroke-linejoin:round;stroke-width:6px"/><line x1="87.6" y1="62.0318" x2="52.3" y2="75.3318" style="fill:none;stroke:#000;stroke-linejoin:round;stroke-width:6px"/><rect y="0.0318" width="144" height="144" style="fill:none"/></svg>