<svg xmlns="http://www.w3.org/2000/svg" viewBox="0 0 144.0607 144"><path d="M140.9,13.8C105.2,47.1,105,4.6,72,18.4,39,4.6,38.8,47.1,3.1,13.8c0,0-4.8,66.9,43,66.9a63.1043,63.1043,0,0,0,25.8-5.2,63.89,63.89,0,0,0,25.8,5.2C145.6,80.7,140.9,13.8,140.9,13.8Z" transform="translate(0.0343)" style="fill:none;stroke:#000;stroke-linejoin:round;stroke-width:6px"/><line x1="141.0343" y1="18" x2="141.0343" y2="144" style="fill:none;stroke:#000;stroke-linejoin:round;stroke-width:6px"/><ellipse cx="101.9989" cy="48.0004" rx="18.1999" ry="11.3999" transform="translate(-6.8187 18.6902) rotate(-10.1311)" style="fill:none;stroke:#000;stroke-linejoin:round;stroke-width:5.999952355495941px"/><ellipse cx="41.9999" cy="47.997" rx="11.3999" ry="18.1999" transform="translate(-12.6023 80.8993) rotate(-79.8689)" style="fill:none;stroke:#000;stroke-linejoin:round;stroke-width:5.999952355495941px"/><rect x="0.0343" width="144" height="144" style="fill:none"/></svg>