<svg xmlns="http://www.w3.org/2000/svg" viewBox="0 0 144 144"><path d="M69,129a12.0353,12.0353,0,0,0,12,12h48a12.0353,12.0353,0,0,0,12-12V63a12.0353,12.0353,0,0,0-12-12H81A12.0353,12.0353,0,0,0,69,63Z" style="fill:none;stroke:#000;stroke-linecap:round;stroke-linejoin:round;stroke-width:6px"/><circle cx="105" cy="93" r="24" style="fill:none;stroke:#000;stroke-linecap:round;stroke-linejoin:round;stroke-width:6px"/><line x1="99" y1="116.2" x2="99" y2="69.9" style="fill:none;stroke:#000;stroke-linecap:round;stroke-linejoin:round;stroke-width:6px"/><line x1="111" y1="116.2" x2="111" y2="69.9" style="fill:none;stroke:#000;stroke-linecap:round;stroke-linejoin:round;stroke-width:6px"/><line x1="81.8" y1="87" x2="128.2" y2="87" style="fill:none;stroke:#000;stroke-linecap:round;stroke-linejoin:round;stroke-width:6px"/><line x1="81.8" y1="99" x2="128.2" y2="99" style="fill:none;stroke:#000;stroke-linecap:round;stroke-linejoin:round;stroke-width:6px"/><path d="M60,117a57,57,0,1,1,54.1-75" style="fill:none;stroke:#000;stroke-linecap:round;stroke-linejoin:round;stroke-width:6px"/><polyline points="45 87.3 45 74.9 22.8 55 34 39 63.7 39 63.7 22.8 55 17.9 76.7 5.5" style="fill:none;stroke:#000;stroke-linecap:round;stroke-linejoin:round;stroke-width:6px"/><polyline points="102.1 21.6 93.5 37.7 84.8 37.7 80.6 41.9" style="fill:none;stroke:#000;stroke-linecap:round;stroke-linejoin:round;stroke-width:6px"/><rect width="144" height="144" style="fill:none"/></svg>