<svg xmlns="http://www.w3.org/2000/svg" viewBox="0 0 144 144.1"><path d="M66.9,36c17,0,20.6,14.5,24.4,29.6,3.6,14.6,24.5,18.9,24.5,43.4s-24.4,32.1-48.9,32.1S18,133.5,18,109,38.9,80.2,42.5,65.6C46.3,50.5,49.9,36,66.9,36Z" style="fill:none;stroke:#000;stroke-linejoin:round;stroke-width:6px"/><path d="M66.9,36V33a12.0353,12.0353,0,0,0-12-12h-12" style="fill:none;stroke:#000;stroke-linecap:round;stroke-linejoin:round;stroke-width:6px"/><path d="M78.9,30a27.015,27.015,0,0,0,27-27A27.015,27.015,0,0,0,78.9,30Z" style="fill:none;stroke:#000;stroke-linejoin:round;stroke-width:6px"/><rect width="144" height="144" style="fill:none"/></svg>