<svg xmlns="http://www.w3.org/2000/svg" viewBox="0 0 144 144"><path d="M3,51V69c0,4.9,1.1,9,6,9v27H27V78c4.9,0,6-4.1,6-9V51Z" style="fill:none;stroke:#000;stroke-linejoin:round;stroke-width:6px"/><path d="M27,30a8.9626,8.9626,0,0,1-9,9h0a8.9626,8.9626,0,0,1-9-9H9a8.9626,8.9626,0,0,1,9-9h0a8.9626,8.9626,0,0,1,9,9Z" style="fill:none;stroke:#000;stroke-linejoin:round;stroke-width:6px"/><path d="M111,51V69c0,4.9,1,9,6,9v27h18V78c4.9,0,6-4.1,6-9V51Z" style="fill:none;stroke:#000;stroke-linejoin:round;stroke-width:6px"/><path d="M135,30a8.9626,8.9626,0,0,1-9,9h0a8.9626,8.9626,0,0,1-9-9h0a8.9626,8.9626,0,0,1,9-9h0a8.9626,8.9626,0,0,1,9,9Z" style="fill:none;stroke:#000;stroke-linejoin:round;stroke-width:6px"/><path d="M57,33V51c0,4.9,1.1,9,6,9V87H81V60c4.9,0,6-4.1,6-9V33Z" style="fill:none;stroke:#000;stroke-linejoin:round;stroke-width:6px"/><path d="M81,12a8.9626,8.9626,0,0,1-9,9h0a8.9626,8.9626,0,0,1-9-9h0a8.9626,8.9626,0,0,1,9-9h0a8.9626,8.9626,0,0,1,9,9Z" style="fill:none;stroke:#000;stroke-linejoin:round;stroke-width:6px"/><polygon points="141 117 99 117 99 99 45 99 45 117 3 117 3 141 141 141 141 117" style="fill:none;stroke:#000;stroke-linejoin:round;stroke-width:6px"/><rect width="144" height="144" style="fill:none"/></svg>