<svg xmlns="http://www.w3.org/2000/svg" viewBox="0 0 144 144"><rect x="3" y="69" width="42" height="54" style="fill:none;stroke:#000;stroke-linejoin:round;stroke-width:6px"/><rect x="99" y="69" width="42" height="54" style="fill:none;stroke:#000;stroke-linejoin:round;stroke-width:6px"/><rect x="45" y="39" width="54" height="84" style="fill:none;stroke:#000;stroke-linejoin:round;stroke-width:6px"/><polygon points="99 51 132 51 141 69 99 69 99 51" style="fill:none;stroke:#000;stroke-linejoin:round;stroke-width:6px"/><polygon points="45 51 12 51 3 69 45 69 45 51" style="fill:none;stroke:#000;stroke-linejoin:round;stroke-width:6px"/><polygon points="45 39 54 21 90 21 99 39 45 39" style="fill:none;stroke:#000;stroke-linejoin:round;stroke-width:6px"/><polyline points="75 95.4 75 66 66 69.4" style="fill:none;stroke:#000;stroke-linecap:round;stroke-linejoin:round;stroke-width:6px"/><path d="M18.8,89.9a5.6018,5.6018,0,0,1,11.2.2,5.3435,5.3435,0,0,1-1.1,3.3L18.7,108H29.9" style="fill:none;stroke:#000;stroke-linecap:round;stroke-linejoin:round;stroke-width:6px"/><path d="M114,89.6c.1-2.2,1.1-5.6,5.6-5.6,4.8,0,5.6,3.9,5.6,6s-.8,6-5.6,6" style="fill:none;stroke:#000;stroke-linecap:round;stroke-linejoin:round;stroke-width:6px"/><path d="M114,102.4c.1,2.2,1.1,5.6,5.6,5.6,4.8,0,5.6-3.9,5.6-6s-.8-6-5.6-6" style="fill:none;stroke:#000;stroke-linecap:round;stroke-linejoin:round;stroke-width:6px"/><rect width="144" height="144" style="fill:none"/></svg>