<svg xmlns="http://www.w3.org/2000/svg" viewBox="0 0 144 144"><path d="M110,34a23.901,23.901,0,0,0-33.9,0c-7,7-15.8,37.2-19,50l3,3c12.8-3.2,43-12.1,50-19A24.2978,24.2978,0,0,0,110,34Z" style="fill:none;stroke:#000;stroke-linecap:round;stroke-linejoin:round;stroke-width:6px"/><circle cx="93" cy="51" r="6" style="fill:none;stroke:#000;stroke-linecap:round;stroke-linejoin:round;stroke-width:6px"/><line x1="88.8" y1="55.2" x2="58.5" y2="85.5" style="fill:none;stroke:#000;stroke-linecap:round;stroke-linejoin:round;stroke-width:6px"/><polygon points="117 3 141 27 126 36 108 18 117 3" style="fill:none;stroke:#000;stroke-linecap:round;stroke-linejoin:round;stroke-width:6px"/><line x1="105" y1="30" x2="111" y2="21" style="fill:none;stroke:#000;stroke-linecap:round;stroke-linejoin:round;stroke-width:6px"/><line x1="123" y1="33" x2="114" y2="39" style="fill:none;stroke:#000;stroke-linecap:round;stroke-linejoin:round;stroke-width:6px"/><path d="M48,93H27s-12,0-12,12,12,12,12,12H99s12,0,12,12-12,12-12,12H3" style="fill:none;stroke:#000;stroke-linecap:round;stroke-linejoin:round;stroke-width:6px"/><rect width="144" height="144" style="fill:none"/></svg>