<svg xmlns="http://www.w3.org/2000/svg" viewBox="0 0 144.0959 144.0442"><rect x="8.5189" y="69.754" width="106.099" height="25.4998" transform="translate(-40.3082 67.7389) rotate(-45.0081)" style="fill:none;stroke:#000;stroke-linecap:round;stroke-linejoin:round;stroke-width:5.999942553291428px"/><path d="M71.5,90.5,126,141c10.2,0,15,1.2,15-15L82.4,79.6" transform="translate(0 0.0242)" style="fill:none;stroke:#000;stroke-linecap:round;stroke-linejoin:round;stroke-width:6px"/><path d="M135,27a13.2519,13.2519,0,0,1,0,18L105,75" transform="translate(0 0.0242)" style="fill:none;stroke:#000;stroke-linecap:round;stroke-linejoin:round;stroke-width:6px"/><line x1="13.5" y1="130.5242" x2="3" y2="141.0242" style="fill:none;stroke:#000;stroke-linecap:round;stroke-linejoin:round;stroke-width:6px"/><rect x="92.2198" y="15.7522" width="46.6995" height="25.4998" transform="translate(13.6955 90.0923) rotate(-45)" style="fill:none;stroke:#000;stroke-linecap:round;stroke-linejoin:round;stroke-width:5.999942240425611px"/><polyline points="19.5 115.524 9 126.024 18 135.024 28.5 124.524" style="fill:none;stroke:#000;stroke-linecap:round;stroke-linejoin:round;stroke-width:6px"/><path d="M18,3C16.9,25.4,37.3,22.7,46.1,29.2a21.31,21.31,0,0,1,4.3,29.7C27.9,89.1-15.5,35.4,18,3Z" transform="translate(0 0.0242)" style="fill:none;stroke:#000;stroke-linecap:round;stroke-linejoin:round;stroke-width:6px"/><path d="M62.4,63.6l-10-7.9-.2.2a18.3418,18.3418,0,0,1-1.8,3A24.3624,24.3624,0,0,1,44,65l8.8,8.2" transform="translate(0 0.0242)" style="fill:none;stroke:#000;stroke-linecap:round;stroke-linejoin:round;stroke-width:6px"/><rect y="0.0242" width="144" height="144" style="fill:none"/></svg>