<svg xmlns="http://www.w3.org/2000/svg" viewBox="0 0 144 144"><path d="M99.4,99H15A12.0353,12.0353,0,0,1,3,87V15A12.0353,12.0353,0,0,1,15,3H129a12.0353,12.0353,0,0,1,12,12V87a12.0353,12.0353,0,0,1-12,12h-5.6" style="fill:none;stroke:#000;stroke-linecap:round;stroke-linejoin:round;stroke-width:6px"/><polyline points="87.4 87 45 87 45 15 129 15 129 87 111.4 87" style="fill:none;stroke:#000;stroke-linecap:round;stroke-linejoin:round;stroke-width:6px"/><path d="M66.4,66l-6-18,18,6,60,60a8.4853,8.4853,0,0,1-12,12Z" style="fill:none;stroke:#000;stroke-linecap:round;stroke-linejoin:round;stroke-width:6px"/><line x1="78.4" y1="54" x2="66.4" y2="66" style="fill:none;stroke:#000;stroke-linecap:round;stroke-linejoin:round;stroke-width:6px"/><rect x="15" y="15" width="18" height="18" style="fill:none;stroke:#000;stroke-linecap:round;stroke-linejoin:round;stroke-width:6px"/><rect x="15" y="33" width="18" height="18" style="fill:none;stroke:#000;stroke-linecap:round;stroke-linejoin:round;stroke-width:6px"/><rect x="15" y="51" width="18" height="18" style="fill:none;stroke:#000;stroke-linecap:round;stroke-linejoin:round;stroke-width:6px"/><rect x="15" y="69" width="18" height="18" style="fill:none;stroke:#000;stroke-linecap:round;stroke-linejoin:round;stroke-width:6px"/><rect width="144" height="144" style="fill:none"/></svg>