<svg xmlns="http://www.w3.org/2000/svg" viewBox="0 0 144 144.0152"><polyline points="3 132.015 15 120.015 27 132.015 39 120.015 48 129.015" style="fill:none;stroke:#000;stroke-linecap:round;stroke-linejoin:round;stroke-width:6px"/><path d="M79.9,112.1c-3.5,5.4-22.2,13.2-22.2,13.2S57,105,60.5,99.6a11.5394,11.5394,0,1,1,19.4,12.5Z" transform="translate(0 0.0152)" style="fill:none;stroke:#000;stroke-linecap:round;stroke-linejoin:round;stroke-width:6px"/><line x1="67.8" y1="109.5152" x2="57.6" y2="125.2152" style="fill:none;stroke:#000;stroke-linecap:round;stroke-linejoin:round;stroke-width:6px"/><rect x="61.0246" y="58.4449" width="67.4016" height="18.7004" transform="translate(-13.5734 110.7108) rotate(-57.2014)" style="fill:none;stroke:#000;stroke-linecap:round;stroke-linejoin:round;stroke-width:6.00014183556473px"/><path d="M122.8,6.9a9.3648,9.3648,0,0,0-12.9,2.8L89.6,41.1" transform="translate(0 0.0152)" style="fill:none;stroke:#000;stroke-linecap:round;stroke-linejoin:round;stroke-width:6px"/><rect x="104.2974" y="14.4198" width="37.4002" height="18.7001" transform="translate(36.4436 114.3489) rotate(-57.2348)" style="fill:none;stroke:#000;stroke-linecap:round;stroke-linejoin:round;stroke-width:6.000030711739618px"/><rect y="0.0152" width="144" height="144" style="fill:none"/></svg>