<svg xmlns="http://www.w3.org/2000/svg" viewBox="0 0 144 144"><path d="M105,129c0-6-6-12-12-12H45c-6,0-12,6-12,12v12h72Z" style="fill:none;stroke:#000;stroke-linecap:round;stroke-linejoin:round;stroke-width:6px"/><path d="M93,33V48c-8,22-8,32,0,54v15" style="fill:none;stroke:#000;stroke-linecap:round;stroke-linejoin:round;stroke-width:6px"/><path d="M45,33V48c8,22,8,32,0,54v15" style="fill:none;stroke:#000;stroke-linecap:round;stroke-linejoin:round;stroke-width:6px"/><path d="M105,24a8.9626,8.9626,0,0,0-9-9H42a9.0264,9.0264,0,0,0-9,9h0a9.0919,9.0919,0,0,0,9,9H96a9.0264,9.0264,0,0,0,9-9Z" style="fill:none;stroke:#000;stroke-linecap:round;stroke-linejoin:round;stroke-width:6px"/><circle cx="69" cy="9" r="6" style="fill:none;stroke:#000;stroke-linecap:round;stroke-linejoin:round;stroke-width:6px"/><line x1="45" y1="45" x2="93" y2="45" style="fill:none;stroke:#000;stroke-linecap:round;stroke-linejoin:round;stroke-width:6px"/><line x1="45" y1="105" x2="93" y2="105" style="fill:none;stroke:#000;stroke-linecap:round;stroke-linejoin:round;stroke-width:6px"/><rect width="144" height="144" style="fill:none"/></svg>