<svg xmlns="http://www.w3.org/2000/svg" viewBox="0 0 144 144"><rect x="39" y="9" width="30" height="24" style="fill:none;stroke:#000;stroke-linejoin:round;stroke-width:6px"/><line x1="69" y1="21" x2="93" y2="21" style="fill:none;stroke:#000;stroke-linejoin:round;stroke-width:6px"/><path d="M141,21c0,9.9-12.4,18-24,18S93,30.9,93,21,105.4,3,117,3,141,11.1,141,21Z" style="fill:none;stroke:#000;stroke-linejoin:round;stroke-width:6px"/><polyline points="76.5 117 81 117 99 141 9 141 27 117 31.5 117" style="fill:none;stroke:#000;stroke-linejoin:round;stroke-width:6px"/><circle cx="54" cy="77.9" r="45" style="fill:none;stroke:#000;stroke-linejoin:round;stroke-width:6px"/><line x1="27" y1="21" x2="24" y2="21" style="fill:none;stroke:#000;stroke-linecap:round;stroke-linejoin:round;stroke-width:6px"/><line x1="12" y1="21" x2="9" y2="21" style="fill:none;stroke:#000;stroke-linecap:round;stroke-linejoin:round;stroke-width:6px"/><line x1="39" y1="21" x2="48" y2="21" style="fill:none;stroke:#000;stroke-linecap:round;stroke-linejoin:round;stroke-width:6px"/><line x1="117" y1="3" x2="117" y2="39" style="fill:none;stroke:#000;stroke-linejoin:round;stroke-width:6px"/><rect width="144" height="144" style="fill:none"/></svg>