<svg xmlns="http://www.w3.org/2000/svg" viewBox="0 0 144 144"><circle cx="108" cy="108" r="21" style="fill:none;stroke:#000;stroke-linejoin:round;stroke-width:6px"/><line x1="141" y1="141" x2="122.8" y2="122.9" style="fill:none;stroke:#000;stroke-linecap:round;stroke-linejoin:round;stroke-width:6px"/><path d="M86.8,80.1C82.1,78.6,75,76.9,72,75V60s9-3.7,9-18c3,0,3-12.4,0-12.4,0-1.4,4.4-9.6,2.4-17.6C80.6.6,47.6.6,44.7,12,30.5,9.1,39,28.1,39,30c-6,0-6,12,0,12,0,14.3,9,18,9,18V75C30,81.3,10.9,85.5,8.4,93,5.6,101.6,3,117,3,117H69" style="fill:none;stroke:#000;stroke-linecap:round;stroke-linejoin:round;stroke-width:6px"/><rect width="144" height="144" style="fill:none"/></svg>