<svg xmlns="http://www.w3.org/2000/svg" viewBox="0 0 144 144"><circle cx="111" cy="111" r="30" style="fill:none;stroke:#000;stroke-linejoin:round;stroke-width:6px"/><line x1="111" y1="96" x2="111" y2="126" style="fill:none;stroke:#000;stroke-linecap:round;stroke-linejoin:round;stroke-width:6px"/><line x1="126" y1="111" x2="96" y2="111" style="fill:none;stroke:#000;stroke-linecap:round;stroke-linejoin:round;stroke-width:6px"/><path d="M83.8,79.7c-4.7-1.5-9.7-3.2-14.8-5.1v-15s9-3.7,9-18c4.7,0,4.7-12.4,0-12.4,0-1.4,5-9.6,3-17.6C78.2.2,44.8.2,42,11.6c-14.2-2.9-6,16.1-6,18-4.7,0-4.7,12,0,12,0,14.3,9,18,9,18v15C28.3,80.9,8.5,85.1,6,92.6,3.2,101.1,3,117,3,117H66" style="fill:none;stroke:#000;stroke-linecap:round;stroke-linejoin:round;stroke-width:6px"/><rect width="144" height="144" style="fill:none"/></svg>