<svg xmlns="http://www.w3.org/2000/svg" viewBox="0 0 144 144"><line x1="75" y1="87" x2="75" y2="70.2" style="fill:none;stroke:#000;stroke-linecap:round;stroke-linejoin:round;stroke-width:6px"/><path d="M45,70.2V87L14.9,97.7A17.9225,17.9225,0,0,0,3,114.7V129H75" style="fill:none;stroke:#000;stroke-linecap:round;stroke-linejoin:round;stroke-width:6px"/><ellipse cx="60" cy="39" rx="30" ry="36" style="fill:none;stroke:#000;stroke-linejoin:round;stroke-width:6px"/><path d="M89.7,35.7A24.77,24.77,0,0,0,87,36c-10.2,2-16.8-1.7-22.4-11.6C61.2,30.9,50.7,36,42,36a24.2507,24.2507,0,0,1-11.6-2.8" style="fill:none;stroke:#000;stroke-linejoin:round;stroke-width:6px"/><path d="M131.4,132.7l6-10.4-6-3.5a19.9021,19.9021,0,0,0,0-9.7l6-3.5-6-10.4-6,3.5a21.2367,21.2367,0,0,0-8.4-4.8v-7H105v7a21.9532,21.9532,0,0,0-8.4,4.8l-6-3.5-6,10.4,6,3.5a19.9021,19.9021,0,0,0,0,9.7l-6,3.5,6,10.4,6-3.5A21.2367,21.2367,0,0,0,105,134v7h12v-7a21.9532,21.9532,0,0,0,8.4-4.8Z" style="fill:none;stroke:#000;stroke-linejoin:round;stroke-width:6px"/><circle cx="111" cy="114" r="9" style="fill:none;stroke:#000;stroke-linejoin:round;stroke-width:6px"/><rect width="144" height="144" style="fill:none"/></svg>