<svg xmlns="http://www.w3.org/2000/svg" viewBox="0 0 144 144"><polygon points="111 78 120 99 141 99 123 114 132 138 111 123 90 138 99 114 81 99 102 99 111 78" style="fill:none;stroke:#000;stroke-linejoin:round;stroke-width:6px"/><path d="M83.8,79.9C79.1,78.4,75,76.7,69,74.8v-15s9-3.7,9-18c6,0,6-12.4,0-12.4,0-1.4,5.6-9.6,3.6-17.6C78.8.4,45.1.4,42.3,11.8,28.1,8.9,36,27.9,36,29.8c-3,0-3,12,0,12,0,14.3,9,18,9,18v15C30,81.1,9.1,85.3,6.6,92.8,3.8,101.4,3,117,3,117H66" style="fill:none;stroke:#000;stroke-linecap:round;stroke-linejoin:round;stroke-width:6px"/><rect width="144" height="144" style="fill:none"/></svg>