<svg xmlns="http://www.w3.org/2000/svg" viewBox="0 0 144 144"><circle cx="111" cy="111" r="30" style="fill:none;stroke:#000;stroke-linejoin:round;stroke-width:6px"/><path d="M111,126a3,3,0,1,0,3,3,3.0085,3.0085,0,0,0-3-3Z" style="fill:#000"/><path d="M102,102a9,9,0,1,1,9,9v9" style="fill:none;stroke:#000;stroke-linecap:round;stroke-linejoin:round;stroke-width:6px"/><path d="M83.9,80.1c-4.7-1.5-9.7-3.2-14.8-5.1V60s9-3.7,9-18c4.7,0,4.7-12.4,0-12.4,0-1.4,5-9.6,3-17.6C78.3.6,44.9.6,42.1,12c-14.2-2.9-6,16.1-6,18-4.7,0-4.7,12,0,12,0,14.3,9,18,9,18V75C28.4,81.3,8.6,85.5,6.1,93c-2.8,8.6-3,24-3,24h63" style="fill:none;stroke:#000;stroke-linecap:round;stroke-linejoin:round;stroke-width:6px"/><rect width="144" height="144" style="fill:none"/></svg>