<svg xmlns="http://www.w3.org/2000/svg" viewBox="0 0 144 144"><path d="M83.8,79.7c-4.7-1.5-9.7-3.2-14.8-5.1v-15s9-3.7,9-18c4.7,0,4.7-12.4,0-12.4,0-1.4,5-9.6,3-17.6C78.2.2,44.8.2,42,11.6c-14.2-2.9-6,16.1-6,18-4.7,0-4.7,12,0,12,0,14.3,9,18,9,18v15C28.3,80.9,8.5,85.1,6,92.6,3.2,101.1,3,117,3,117H66" style="fill:none;stroke:#000;stroke-linecap:round;stroke-linejoin:round;stroke-width:6px"/><path d="M141,132a8.9626,8.9626,0,0,1-9,9H90a8.9626,8.9626,0,0,1-9-9V108a8.9626,8.9626,0,0,1,9-9h42a8.9626,8.9626,0,0,1,9,9Z" style="fill:none;stroke:#000;stroke-linecap:round;stroke-linejoin:round;stroke-width:6px"/><polyline points="129 111 111 126 93 111" style="fill:none;stroke:#000;stroke-linecap:round;stroke-linejoin:round;stroke-width:6px"/><line x1="93" y1="129" x2="102.8" y2="119.2" style="fill:none;stroke:#000;stroke-linecap:round;stroke-linejoin:round;stroke-width:6px"/><line x1="129" y1="129" x2="119.2" y2="119.2" style="fill:none;stroke:#000;stroke-linecap:round;stroke-linejoin:round;stroke-width:6px"/><rect width="144" height="144" style="fill:none"/></svg>