<svg xmlns="http://www.w3.org/2000/svg" viewBox="0 0 144 144"><circle cx="111" cy="111" r="30" style="fill:none;stroke:#000;stroke-linejoin:round;stroke-width:6px"/><path d="M104,117.6a7,7,0,0,0,14,0,6.9358,6.9358,0,0,0-7-6.9,7.02,7.02,0,0,1-7-7,7.0007,7.0007,0,0,1,14,0" style="fill:none;stroke:#000;stroke-linecap:round;stroke-linejoin:round;stroke-width:6px"/><line x1="111" y1="124.6" x2="111" y2="129.2" style="fill:none;stroke:#000;stroke-linecap:round;stroke-linejoin:round;stroke-width:6px"/><line x1="111" y1="92.1" x2="111" y2="96.7" style="fill:none;stroke:#000;stroke-linecap:round;stroke-linejoin:round;stroke-width:6px"/><line x1="75" y1="87" x2="75" y2="70.2" style="fill:none;stroke:#000;stroke-linecap:round;stroke-linejoin:round;stroke-width:6px"/><path d="M45,70.2V87L14.9,97.7A17.9225,17.9225,0,0,0,3,114.7V129H69" style="fill:none;stroke:#000;stroke-linecap:round;stroke-linejoin:round;stroke-width:6px"/><ellipse cx="60" cy="39" rx="30" ry="36" style="fill:none;stroke:#000;stroke-linejoin:round;stroke-width:6px"/><path d="M89.7,35.7A24.77,24.77,0,0,0,87,36c-10.2,2-16.8-1.7-22.4-11.6C61.2,30.9,50.7,36,42,36a24.2507,24.2507,0,0,1-11.6-2.8" style="fill:none;stroke:#000;stroke-linejoin:round;stroke-width:6px"/><rect width="144" height="144" style="fill:none"/></svg>