<svg xmlns="http://www.w3.org/2000/svg" viewBox="0 0 144 144"><polygon points="102 135 81 141 87 120 126 81 141 96 102 135" style="fill:none;stroke:#000;stroke-linecap:round;stroke-linejoin:round;stroke-width:6px"/><line x1="114" y1="93" x2="129" y2="108" style="fill:none;stroke:#000;stroke-linejoin:round;stroke-width:6px"/><line x1="87" y1="120" x2="102" y2="135" style="fill:none;stroke:#000;stroke-linecap:round;stroke-linejoin:round;stroke-width:6px"/><path d="M98.6,86.8C93.9,85.2,75,76.7,69,74.8v-15s9-3.7,9-18c6,0,6-12.4,0-12.4,0-1.4,5.4-9.6,3.4-17.6C78.6.4,45,.4,42.2,11.8,28,8.9,36,27.9,36,29.8c-3,0-3,12,0,12,0,14.3,9,18,9,18v15C30,81.1,8.9,85.3,6.4,92.8,3.6,101.4,3,117,3,117H66" style="fill:none;stroke:#000;stroke-linecap:round;stroke-linejoin:round;stroke-width:6px"/><rect width="144" height="144" style="fill:none"/></svg>