<svg xmlns="http://www.w3.org/2000/svg" viewBox="0 0 144 144"><path d="M131.4,132.7l6-10.4-6-3.5a19.9021,19.9021,0,0,0,0-9.7l6-3.5-6-10.4-6,3.5a21.2367,21.2367,0,0,0-8.4-4.8v-7H105v7a21.9532,21.9532,0,0,0-8.4,4.8l-6-3.5-6,10.4,6,3.5a19.9021,19.9021,0,0,0,0,9.7l-6,3.5,6,10.4,6-3.5A21.2367,21.2367,0,0,0,105,134v7h12v-7a20.7364,20.7364,0,0,0,8.4-4.8Z" style="fill:none;stroke:#000;stroke-linejoin:round;stroke-width:6px"/><circle cx="111" cy="114" r="9" style="fill:none;stroke:#000;stroke-linejoin:round;stroke-width:6px"/><path d="M87.3,79.7C82.6,78.2,78,76.5,72,74.6v-15s9-3.7,9-18c6,0,6-12.4,0-12.4,0-1.4,5.5-9.6,3.5-17.6C81.7.2,48.1.2,45.2,11.6,31.1,8.7,39,27.7,39,29.6c-3,0-3,12,0,12,0,14.3,9,18,9,18v15c-15,6.3-36,10.5-38.5,18C6.7,101.1,6,117,6,117H69" style="fill:none;stroke:#000;stroke-linecap:round;stroke-linejoin:round;stroke-width:6px"/><rect width="144" height="144" style="fill:none"/></svg>