<svg xmlns="http://www.w3.org/2000/svg" viewBox="0 0 144 144"><path d="M117,85.7h0c-4.7,6-13.5,8.6-24,1.3v35.5s3.5,12.7,24,18.5c20.5-5.7,24-18.5,24-18.5V87C130.7,94.2,121.8,91.8,117,85.7Z" style="fill:none;stroke:#000;stroke-linecap:round;stroke-linejoin:round;stroke-width:6px"/><line x1="117" y1="123" x2="117" y2="99" style="fill:none;stroke:#000;stroke-linecap:round;stroke-linejoin:round;stroke-width:6px"/><line x1="105" y1="111" x2="129" y2="111" style="fill:none;stroke:#000;stroke-linecap:round;stroke-linejoin:round;stroke-width:6px"/><path d="M83.8,80.1C79.1,78.6,74.1,76.9,69,75V60s9-3.7,9-18c4.7,0,4.7-12.4,0-12.4,0-1.4,5-9.6,3-17.6C78.1.6,44.8.6,42,12c-14.2-2.9-6,16.1-6,18-4.7,0-4.7,12,0,12,0,14.3,9,18,9,18V75C28.3,81.3,8.5,85.5,6,93c-2.9,8.6-3,24-3,24H66" style="fill:none;stroke:#000;stroke-linecap:round;stroke-linejoin:round;stroke-width:6px"/><rect width="144" height="144" style="fill:none"/></svg>