<svg xmlns="http://www.w3.org/2000/svg" viewBox="0 0 144 144"><path d="M120,120a2.9465,2.9465,0,0,1-3,3h0a2.9465,2.9465,0,0,1-3-3h0a3.0085,3.0085,0,0,1,3-3h0a3.0085,3.0085,0,0,1,3,3Z" style="fill:none;stroke:#000;stroke-linejoin:round;stroke-width:6px"/><rect x="93" y="105" width="48" height="36" style="fill:none;stroke:#000;stroke-linecap:round;stroke-linejoin:round;stroke-width:6px"/><line x1="117" y1="129" x2="117" y2="123" style="fill:none;stroke:#000;stroke-linecap:round;stroke-linejoin:round;stroke-width:6px"/><path d="M99,105V99a18,18,0,0,1,36,0v6" style="fill:none;stroke:#000;stroke-linecap:round;stroke-linejoin:round;stroke-width:6px"/><path d="M83.9,80.1C79.2,78.6,74.1,76.9,69,75V60s9-3.7,9-18c4.7,0,4.7-12.4,0-12.4,0-1.4,5-9.6,3-17.6C78.2.6,44.8.6,42,12c-14.2-2.9-6,16.1-6,18-4.7,0-4.7,12,0,12,0,14.3,9,18,9,18V75C28.3,81.3,8.5,85.5,6,93c-2.8,8.6-3,24-3,24H75" style="fill:none;stroke:#000;stroke-linecap:round;stroke-linejoin:round;stroke-width:6px"/><rect width="144" height="144" style="fill:none"/></svg>