<svg xmlns="http://www.w3.org/2000/svg" viewBox="0 0 144 144"><path d="M83.8,79.7c-4.7-1.5-9.7-3.2-14.8-5.1v-15s9-3.7,9-18c4.7,0,4.7-12.4,0-12.4,0-1.4,5-9.6,3-17.6C78.2.2,44.8.2,42,11.6c-14.2-2.9-6,16.1-6,18-4.7,0-4.7,12,0,12,0,14.3,9,18,9,18v15C28.3,80.9,8.5,85.1,6,92.6,3.2,101.1,3,117,3,117H78" style="fill:none;stroke:#000;stroke-linecap:round;stroke-linejoin:round;stroke-width:6px"/><rect x="93" y="93" width="48" height="48" style="fill:none;stroke:#000;stroke-linecap:round;stroke-linejoin:round;stroke-width:6px"/><line x1="105" y1="105" x2="129" y2="105" style="fill:none;stroke:#000;stroke-linecap:round;stroke-linejoin:round;stroke-width:6px"/><line x1="105" y1="117" x2="129" y2="117" style="fill:none;stroke:#000;stroke-linecap:round;stroke-linejoin:round;stroke-width:6px"/><line x1="105" y1="129" x2="120" y2="129" style="fill:none;stroke:#000;stroke-linecap:round;stroke-linejoin:round;stroke-width:6px"/><rect width="144" height="144" style="fill:none"/></svg>