<svg xmlns="http://www.w3.org/2000/svg" viewBox="0 0 144 144"><path d="M114,141c10-7.3,27-22.7,27-34.2,0-9.3-6.8-14.9-13.4-14.9-7.3,0-10,5-13.6,11-3.6-6-6.3-11-13.6-11-6.6,0-13.4,5.6-13.4,14.9,0,11.5,17,26.9,27,34.2Z" style="fill:none;stroke:#000;stroke-linecap:round;stroke-linejoin:round;stroke-width:6px"/><path d="M86.8,80.1C82.1,78.6,75,76.9,72,75V60s9-3.7,9-18c3,0,3-12.4,0-12.4,0-1.4,4.3-9.6,2.3-17.6C80.5.6,47.5.6,44.7,12,30.4,9.1,39,28.1,39,30c-6,0-6,12,0,12,0,14.3,9,18,9,18V75C30,81.3,10.8,85.5,8.3,93,5.5,101.6,3,117,3,117H69" style="fill:none;stroke:#000;stroke-linecap:round;stroke-linejoin:round;stroke-width:6px"/><rect width="144" height="144" style="fill:none"/></svg>