<svg xmlns="http://www.w3.org/2000/svg" viewBox="0 0 144 144"><circle cx="60" cy="60.1" r="57" style="fill:none;stroke:#000;stroke-linejoin:round;stroke-width:6px"/><path d="M85.3,9A74.9448,74.9448,0,0,1,93,42.1a75.134,75.134,0,0,1-52.5,71.6" style="fill:none;stroke:#000;stroke-linejoin:round;stroke-width:6px"/><path d="M57.1,3A55.0885,55.0885,0,0,1,73.3,42.1,55.2889,55.2889,0,0,1,18,97.4H16.8" style="fill:none;stroke:#000;stroke-linejoin:round;stroke-width:6px"/><path d="M33,9.9A35.5151,35.5151,0,0,1,18,77.6,37.0613,37.0613,0,0,1,5,75.2" style="fill:none;stroke:#000;stroke-linejoin:round;stroke-width:6px"/><path d="M114.7,44.1A75.251,75.251,0,0,1,88.9,66.5" style="fill:none;stroke:#000;stroke-linejoin:round;stroke-width:6px"/><path d="M35.8,72.8A75.6266,75.6266,0,0,1,3.5,55.5" style="fill:none;stroke:#000;stroke-linejoin:round;stroke-width:6px"/><path d="M103.9,23.8A55.2756,55.2756,0,0,1,93,39.2" style="fill:none;stroke:#000;stroke-linejoin:round;stroke-width:6px"/><path d="M51,55.3A55.0267,55.0267,0,0,1,9.8,33.2" style="fill:none;stroke:#000;stroke-linejoin:round;stroke-width:6px"/><path d="M52.9,35.6A35.6911,35.6911,0,0,1,22.7,17" style="fill:none;stroke:#000;stroke-linejoin:round;stroke-width:6px"/><path d="M85.1,111.3A79.6268,79.6268,0,0,1,66.3,100" style="fill:none;stroke:#000;stroke-linejoin:round;stroke-width:6px"/><path d="M103.9,96.4A55.0479,55.0479,0,0,1,79.4,85.2" style="fill:none;stroke:#000;stroke-linejoin:round;stroke-width:6px"/><path d="M114,77.6A35.6462,35.6462,0,0,1,88.5,66.9" style="fill:none;stroke:#000;stroke-linejoin:round;stroke-width:6px"/><path d="M83.9,110.8c50.3-.1,64.3,35.2,42.6,27C76.9,119.1,18,161.1,9.7,126.3" style="fill:none;stroke:#000;stroke-linecap:round;stroke-linejoin:round;stroke-width:6px"/><rect width="144" height="144" style="fill:none"/></svg>