<svg xmlns="http://www.w3.org/2000/svg" viewBox="0 0 144 144"><path d="M131.7,51a9.3819,9.3819,0,0,1-8.3-5.1A12.4534,12.4534,0,0,0,112.3,39c-8.3,0-15,4.3-19.3,14.9A23.886,23.886,0,0,1,70.8,69H39c-24.3,0-27.4-17.6-9-36A23.98,23.98,0,0,0,19.4,78.5C16.8,83.2,9,116,9,132a9,9,0,0,0,18,0v-3.8c0-11.9,8.8-23.7,24-23.2h9c15.4,0,27,8.1,27,23.5V132a9,9,0,0,0,18,0c0-22.9-.8-12.8,3.7-41.9A17.76,17.76,0,0,1,126.3,75,14.7239,14.7239,0,0,0,141,60.3,9.2824,9.2824,0,0,0,131.7,51Z" style="fill:none;stroke:#000;stroke-linecap:round;stroke-linejoin:round;stroke-width:6px"/><line x1="85.2" y1="64.2" x2="36" y2="3" style="fill:none;stroke:#000;stroke-linecap:round;stroke-linejoin:round;stroke-width:6px"/><line x1="88.2" y1="61.5" x2="110.7" y2="84" style="fill:none;stroke:#000;stroke-linecap:round;stroke-linejoin:round;stroke-width:6px"/><line x1="107.3" y1="98.2" x2="77.2" y2="68.1" style="fill:none;stroke:#000;stroke-linecap:round;stroke-linejoin:round;stroke-width:6px"/><path d="M111,54a3,3,0,1,0,3,3,2.9465,2.9465,0,0,0-3-3Z" style="fill:#000"/><rect width="144" height="144" style="fill:none"/></svg>