<svg xmlns="http://www.w3.org/2000/svg" viewBox="0 0 144 144"><path d="M141,51.4C141,64.3,110.3,75,72.2,75S3,64.3,3,51.4,34.1,27,72.2,27,141,38.5,141,51.4Z" style="fill:none;stroke:#000;stroke-linecap:round;stroke-linejoin:round;stroke-width:6px"/><path d="M21.4,67.4C33.5,63.6,42,57,72.2,57s40.7,5.7,52.8,9.5" style="fill:none;stroke:#000;stroke-linecap:round;stroke-linejoin:round;stroke-width:6px"/><path d="M141,51V87.4c0,12.9-30.7,23.6-68.8,23.6S3,100.3,3,87.4V51" style="fill:none;stroke:#000;stroke-linecap:round;stroke-linejoin:round;stroke-width:6px"/><path d="M93,73.9a196.56,196.56,0,0,1-42,0V110a203.2792,203.2792,0,0,0,42,0Z" style="fill:none;stroke:#000;stroke-linecap:round;stroke-linejoin:round;stroke-width:6px"/><rect x="63" y="87" width="18" height="12" style="fill:none;stroke:#000;stroke-linecap:round;stroke-linejoin:round;stroke-width:6px"/><circle cx="108.2" cy="90" r="3" style="fill:none;stroke:#000;stroke-linecap:round;stroke-linejoin:round;stroke-width:6px"/><circle cx="126" cy="84" r="3" style="fill:none;stroke:#000;stroke-linecap:round;stroke-linejoin:round;stroke-width:6px"/><circle cx="35.7" cy="90" r="3" style="fill:none;stroke:#000;stroke-linecap:round;stroke-linejoin:round;stroke-width:6px"/><circle cx="18" cy="84" r="3" style="fill:none;stroke:#000;stroke-linecap:round;stroke-linejoin:round;stroke-width:6px"/><rect width="144" height="144" style="fill:none"/></svg>