<svg xmlns="http://www.w3.org/2000/svg" viewBox="0 0 144 144"><path d="M92.6,102.3a23.901,23.901,0,0,1-33.9,0l-17-17a23.901,23.901,0,0,1,0-33.9L88.3,4.8a6.0977,6.0977,0,0,1,8.5,0l42.4,42.4a6.0977,6.0977,0,0,1,0,8.5Z" style="fill:none;stroke:#000;stroke-linejoin:round;stroke-width:6px"/><polyline points="93.6 3.1 50.7 75.6 68.4 93.3 140.9 50.7" style="fill:none;stroke:#000;stroke-linejoin:round;stroke-width:6px"/><path d="M58.6,102.3l-17-17-33.9,34a12.0208,12.0208,0,1,0,17,17Z" style="fill:none;stroke:#000;stroke-linejoin:round;stroke-width:6px"/><line x1="103.2" y1="23.8" x2="94.7" y2="32.3" style="fill:none;stroke:#000;stroke-linejoin:round;stroke-width:6px"/><line x1="111.7" y1="32.3" x2="103.2" y2="40.8" style="fill:none;stroke:#000;stroke-linejoin:round;stroke-width:6px"/><line x1="120.1" y1="40.8" x2="111.7" y2="49.3" style="fill:none;stroke:#000;stroke-linejoin:round;stroke-width:6px"/><line x1="90.4" y1="36.6" x2="82" y2="45.1" style="fill:none;stroke:#000;stroke-linejoin:round;stroke-width:6px"/><line x1="82" y1="53.6" x2="73.5" y2="62" style="fill:none;stroke:#000;stroke-linejoin:round;stroke-width:6px"/><line x1="90.4" y1="62" x2="82" y2="70.5" style="fill:none;stroke:#000;stroke-linejoin:round;stroke-width:6px"/><line x1="73.5" y1="70.5" x2="65" y2="79" style="fill:none;stroke:#000;stroke-linejoin:round;stroke-width:6px"/><line x1="98.9" y1="45.1" x2="90.4" y2="53.6" style="fill:none;stroke:#000;stroke-linejoin:round;stroke-width:6px"/><line x1="107.4" y1="53.6" x2="98.9" y2="62" style="fill:none;stroke:#000;stroke-linejoin:round;stroke-width:6px"/><rect width="144" height="144" style="fill:none"/></svg>