<svg xmlns="http://www.w3.org/2000/svg" viewBox="0 0 144 144.0555"><path d="M34.4,81h44a24.0685,24.0685,0,0,0,22.2-14.8L109.4,45l6,14.6c14.4,9.1,18,9.2,18,19.5a7.9167,7.9167,0,0,1-7.9,7.9h-7.1l-9,18-7.9,31.5a5.9771,5.9771,0,0,1-5.8,4.5,4.5458,4.5458,0,0,1-4.5-4.5c.1-20.2-1.4-25.5-26.8-25.5-34,0-37.1,11.5-46.5,27.1-3.3,5.5-10.6,2.5-8.7-2.3,3.9-9.6,12.2-30.3,17.5-45.2C17.7,86.1,13.4,78,13.4,66c0-29,31.2-40.7,35-18.1,1,5.8-7.2,8.5-8.8,3.6C34.6,36.6,13.9,68.7,34.4,81Z" style="fill:none;stroke:#000;stroke-linecap:round;stroke-linejoin:round;stroke-width:6px"/><path d="M55.4,111.7l2.4,25.5a3.4572,3.4572,0,0,1-6.6,1.7L40,114.3" style="fill:none;stroke:#000;stroke-linecap:round;stroke-linejoin:round;stroke-width:6px"/><path d="M104.5,124.6l9.1,13.7c3.4,5.1,10.2,2.2,8.2-2.3-1.2-2.8-3-7.3-12.5-31" style="fill:none;stroke:#000;stroke-linecap:round;stroke-linejoin:round;stroke-width:6px"/><path d="M117,72a3,3,0,1,0,3,3,2.9465,2.9465,0,0,0-3-3Z" style="fill:#000"/><rect width="144" height="144" style="fill:none"/></svg>