<svg xmlns="http://www.w3.org/2000/svg" viewBox="0 0 144.0511 144"><path d="M19,3.4a5.958,5.958,0,0,0-5.9.9c-3.8,3.8-26.5,18.8,11.7,57,17,17,58.5-24.5,41.5-41.5Z" transform="translate(0.0511)" style="fill:none;stroke:#000;stroke-linecap:round;stroke-linejoin:round;stroke-width:6px"/><circle cx="43.4511" cy="31.1" r="2.7" style="fill:none;stroke:#000;stroke-linecap:round;stroke-linejoin:round;stroke-width:6px"/><line x1="56.1511" y1="55.3" x2="98.6511" y2="97.8" style="fill:none;stroke:#000;stroke-linecap:round;stroke-linejoin:round;stroke-width:6px"/><line x1="73.2511" y1="55.3" x2="54.2511" y2="74.4" style="fill:none;stroke:#000;stroke-linecap:round;stroke-linejoin:round;stroke-width:6px"/><line x1="92.2511" y1="61.7" x2="62.6511" y2="91.4" style="fill:none;stroke:#000;stroke-linecap:round;stroke-linejoin:round;stroke-width:6px"/><line x1="98.7511" y1="80.8" x2="79.6511" y2="99.8" style="fill:none;stroke:#000;stroke-linecap:round;stroke-linejoin:round;stroke-width:6px"/><line x1="13.7511" y1="3.9" x2="20.6511" y2="26.9" style="fill:none;stroke:#000;stroke-linecap:round;stroke-linejoin:round;stroke-width:6px"/><path d="M106.7,105.9s22.2-5.5,32.8.6a27.9691,27.9691,0,0,0-4.5-5.9C124.2,89.8,109.4,87,98.6,97.8s-8,25.6,2.8,36.4a27.9691,27.9691,0,0,0,5.9,4.5C101.2,128.1,106.7,105.9,106.7,105.9Z" transform="translate(0.0511)" style="fill:none;stroke:#000;stroke-linecap:round;stroke-linejoin:round;stroke-width:6px"/><rect x="0.0511" width="144" height="144" style="fill:none"/></svg>