<svg xmlns="http://www.w3.org/2000/svg" viewBox="0 0 144 144"><path d="M57.2,108.2a6.8474,6.8474,0,0,0-2.1-1.5L106,55.8a8.3266,8.3266,0,0,0,1.5,2.1,17.5942,17.5942,0,0,0,25-.1,17.9484,17.9484,0,0,0-16.3-30.2,18.0609,18.0609,0,0,0-4.9-16.2,17.7449,17.7449,0,0,0-25.2,0c-6.9,6.9-6.3,18.9.6,25.8.7.7,2.9,2.6,3,2.4L39,90.5a15.9486,15.9486,0,0,0-2.5-3A18.1091,18.1091,0,0,0,11,87.2,17.5814,17.5814,0,0,0,26.9,117,17.8559,17.8559,0,0,0,57,133.2,17.42,17.42,0,0,0,57.2,108.2Z" style="fill:none;stroke:#000;stroke-linejoin:round;stroke-width:6px"/><rect width="144" height="144" style="fill:none"/></svg>