<svg xmlns="http://www.w3.org/2000/svg" viewBox="0 0 144 144"><polygon points="111 87 39 87 45 129 105 129 111 87" style="fill:none;stroke:#000;stroke-linejoin:round;stroke-width:6px"/><path d="M27,81a6.0176,6.0176,0,0,0,6,6h84a6,6,0,0,0,0-12H33A6.0176,6.0176,0,0,0,27,81Z" style="fill:none;stroke:#000;stroke-linejoin:round;stroke-width:6px"/><line x1="43.5" y1="75" x2="30" y2="48" style="fill:none;stroke:#000;stroke-linecap:round;stroke-linejoin:round;stroke-width:6px"/><line x1="53.7" y1="75" x2="42" y2="27.1" style="fill:none;stroke:#000;stroke-linecap:round;stroke-linejoin:round;stroke-width:6px"/><line x1="63.3" y1="75" x2="60" y2="33" style="fill:none;stroke:#000;stroke-linecap:round;stroke-linejoin:round;stroke-width:6px"/><line x1="106.6" y1="75" x2="120" y2="48" style="fill:none;stroke:#000;stroke-linecap:round;stroke-linejoin:round;stroke-width:6px"/><line x1="96.4" y1="75" x2="108" y2="27.1" style="fill:none;stroke:#000;stroke-linecap:round;stroke-linejoin:round;stroke-width:6px"/><line x1="86.8" y1="75" x2="90" y2="33" style="fill:none;stroke:#000;stroke-linecap:round;stroke-linejoin:round;stroke-width:6px"/><line x1="75" y1="75" x2="75" y2="21" style="fill:none;stroke:#000;stroke-linecap:round;stroke-linejoin:round;stroke-width:6px"/><rect width="144" height="144" style="fill:none"/></svg>