<svg xmlns="http://www.w3.org/2000/svg" viewBox="0 0 144 144"><path d="M114,90l9-12h12a6,6,0,0,1,0,12h-3l-12.2,34a11.9657,11.9657,0,0,1-11.3,8h-73a11.9657,11.9657,0,0,1-11.3-8L12,90H9A6,6,0,0,1,9,78H21l9,12Z" style="fill:none;stroke:#000;stroke-linecap:round;stroke-linejoin:round;stroke-width:6px"/><line x1="66" y1="90" x2="78" y2="69" style="fill:none;stroke:#000;stroke-linecap:round;stroke-linejoin:round;stroke-width:6px"/><line x1="81" y1="90" x2="90" y2="75" style="fill:none;stroke:#000;stroke-linecap:round;stroke-linejoin:round;stroke-width:6px"/><path d="M98.2,90l4.3-8.1a20.8447,20.8447,0,0,0-3.8-24.7l14.6-27.3a5.9942,5.9942,0,0,0-10.6-5.6L88.1,51.5A20.9226,20.9226,0,0,0,65.4,62.1L51,90Z" style="fill:none;stroke:#000;stroke-linecap:round;stroke-linejoin:round;stroke-width:6px"/><rect width="144" height="144" style="fill:none"/></svg>