<svg xmlns="http://www.w3.org/2000/svg" viewBox="0 0 144 144"><circle cx="69.3" cy="96" r="45" style="fill:none;stroke:#000;stroke-linejoin:round;stroke-width:6px"/><polyline points="100.4 44.8 120.3 3 105.3 3 88.1 39.1" style="fill:none;stroke:#000;stroke-linecap:round;stroke-linejoin:round;stroke-width:6px"/><polyline points="111.2 53.1 135.3 3 120.3 3 100.4 44.8" style="fill:none;stroke:#000;stroke-linecap:round;stroke-linejoin:round;stroke-width:6px"/><polyline points="37.8 44.8 18 3 33 3 50.2 39.1" style="fill:none;stroke:#000;stroke-linecap:round;stroke-linejoin:round;stroke-width:6px"/><polyline points="27.1 53.1 3 3 18 3 37.8 44.8" style="fill:none;stroke:#000;stroke-linecap:round;stroke-linejoin:round;stroke-width:6px"/><path d="M74,95.6a5.6383,5.6383,0,0,0-4.6-2.3,5.7773,5.7773,0,0,0-4.6,2.3l-8.8,12a5.8415,5.8415,0,0,0-.5,6.1,6.02,6.02,0,0,0,5.1,3.3H78.2a5.9384,5.9384,0,0,0,4.6-9.4Z" style="fill:none;stroke:#000;stroke-linejoin:round;stroke-width:6px"/><circle cx="51.3" cy="90" r="6" style="fill:none;stroke:#000;stroke-linejoin:round;stroke-width:6px"/><circle cx="69.3" cy="78" r="6" style="fill:none;stroke:#000;stroke-linejoin:round;stroke-width:6px"/><circle cx="87.4" cy="90" r="6" style="fill:none;stroke:#000;stroke-linejoin:round;stroke-width:6px"/><rect width="144" height="144" style="fill:none"/></svg>