<svg xmlns="http://www.w3.org/2000/svg" viewBox="0 0 144 144"><path d="M135,51.4C135,64.3,105.6,75,69.2,75S3,64.3,3,51.4,32.7,27,69.2,27,135,38.5,135,51.4Z" style="fill:none;stroke:#000;stroke-linecap:round;stroke-linejoin:round;stroke-width:6px"/><path d="M8,60.4C17.9,51.6,41.6,45,69.2,45c27.3,0,50.7,6.5,60.7,15.2" style="fill:none;stroke:#000;stroke-linecap:round;stroke-linejoin:round;stroke-width:6px"/><path d="M48,91.7C21.9,88.5,3,79.7,3,69.4v-18" style="fill:none;stroke:#000;stroke-linecap:round;stroke-linejoin:round;stroke-width:6px"/><path d="M135,51V69.4c0,10.3-18.6,19.1-44.6,22.3" style="fill:none;stroke:#000;stroke-linecap:round;stroke-linejoin:round;stroke-width:6px"/><circle cx="69" cy="102" r="15" style="fill:none;stroke:#000;stroke-linecap:round;stroke-linejoin:round;stroke-width:6px"/><line x1="69" y1="87" x2="69" y2="102" style="fill:none;stroke:#000;stroke-linecap:round;stroke-linejoin:round;stroke-width:6px"/><rect width="144" height="144" style="fill:none"/></svg>