<svg xmlns="http://www.w3.org/2000/svg" viewBox="0 0 144 144.1"><polyline points="25.2 84.5 3 123 26.1 119.1 34.1 141.1 53.8 108" style="fill:none;stroke:#000;stroke-linejoin:round;stroke-width:6px"/><polyline points="118 85.1 140 123 116.9 119.1 108.9 141.1 89.2 108.2" style="fill:none;stroke:#000;stroke-linejoin:round;stroke-width:6px"/><circle cx="72" cy="57.1" r="54" style="fill:none;stroke:#000;stroke-linejoin:round;stroke-width:6px"/><path d="M77.8,54.3A7.1986,7.1986,0,0,0,72,51.4a7.3423,7.3423,0,0,0-5.8,2.9l-10.9,15a7.428,7.428,0,0,0-.6,7.6A7.335,7.335,0,0,0,61.1,81H83a7.335,7.335,0,0,0,6.4-4.1,7.428,7.428,0,0,0-.6-7.6Z" style="fill:none;stroke:#000;stroke-linejoin:round;stroke-width:6px"/><circle cx="49.5" cy="47.4" r="7.5" style="fill:none;stroke:#000;stroke-linejoin:round;stroke-width:6px"/><circle cx="71.9" cy="32.4" r="7.5" style="fill:none;stroke:#000;stroke-linejoin:round;stroke-width:6px"/><circle cx="94.5" cy="47.4" r="7.5" style="fill:none;stroke:#000;stroke-linejoin:round;stroke-width:6px"/><rect width="144" height="144" style="fill:none"/></svg>