<svg xmlns="http://www.w3.org/2000/svg" viewBox="0 0 144 144"><path d="M127.7,83.1,141,72,127.7,60.9l8-15.3-16.5-5.1,1.6-17.2-17.2,1.6L98.4,8.3l-15.3,8L72,3,60.9,16.3l-15.3-8L40.5,24.8,23.3,23.2l1.6,17.2L8.2,45.6l8,15.3L3,72,16.3,83.1l-8,15.3,16.5,5.1-1.6,17.2,17.2-1.6,5.1,16.5,15.3-8L72,141l11.1-13.3,15.3,8,5.1-16.5,17.2,1.6-1.6-17.2,16.5-5.1Z" style="fill:none;stroke:#000;stroke-linejoin:round;stroke-width:6px"/><path d="M77.8,72.3A7.1986,7.1986,0,0,0,72,69.4a7.3423,7.3423,0,0,0-5.8,2.9l-10.9,15a7.428,7.428,0,0,0-.6,7.6A7.335,7.335,0,0,0,61.1,99H83a7.335,7.335,0,0,0,6.4-4.1,7.428,7.428,0,0,0-.6-7.6Z" style="fill:none;stroke:#000;stroke-linejoin:round;stroke-width:6px"/><circle cx="49.5" cy="65.4" r="7.5" style="fill:none;stroke:#000;stroke-linejoin:round;stroke-width:6px"/><circle cx="71.9" cy="50.4" r="7.5" style="fill:none;stroke:#000;stroke-linejoin:round;stroke-width:6px"/><circle cx="94.5" cy="65.4" r="7.5" style="fill:none;stroke:#000;stroke-linejoin:round;stroke-width:6px"/><rect width="144" height="144" style="fill:none"/></svg>