<svg xmlns="http://www.w3.org/2000/svg" viewBox="0 0 144 144"><path d="M104.9,33l12-30c-9.4,2-14.5,11.1-24,12.1s-11.4-6.3-21-6.3c-9.5,0-11.4,7.2-21,6.2-9.4-1-14.5-10.1-24-12l12,30c0,33.9-28.5,38.7-29.9,95.7A11.9564,11.9564,0,0,0,21,141H122.7a12.1969,12.1969,0,0,0,8.6-3.6,11.6758,11.6758,0,0,0,3.4-8.7C133.4,71.9,104.9,66.2,104.9,33Z" style="fill:none;stroke:#000;stroke-linejoin:round;stroke-width:6px"/><ellipse cx="71.9" cy="105" rx="22.5" ry="18" style="fill:none;stroke:#000;stroke-linejoin:round;stroke-width:6px"/><ellipse cx="71.9" cy="67.4" rx="5.2" ry="7.6" style="fill:none;stroke:#000;stroke-linejoin:round;stroke-width:6px"/><ellipse cx="50.4" cy="73.4" rx="5.2" ry="7.6" style="fill:none;stroke:#000;stroke-linejoin:round;stroke-width:6px"/><ellipse cx="92.4" cy="73.4" rx="5.2" ry="7.6" style="fill:none;stroke:#000;stroke-linejoin:round;stroke-width:6px"/><line x1="48" y1="33" x2="60" y2="33" style="fill:none;stroke:#000;stroke-linejoin:round;stroke-width:6px"/><line x1="66" y1="33" x2="78" y2="33" style="fill:none;stroke:#000;stroke-linejoin:round;stroke-width:6px"/><line x1="84" y1="33" x2="96" y2="33" style="fill:none;stroke:#000;stroke-linejoin:round;stroke-width:6px"/><rect width="144" height="144" style="fill:none"/></svg>