<svg xmlns="http://www.w3.org/2000/svg" viewBox="0 0 144 144"><path d="M45,141a12.0353,12.0353,0,0,1-12-12V51A12.0353,12.0353,0,0,1,45,39H93a12.0353,12.0353,0,0,1,12,12v78a12.0353,12.0353,0,0,1-12,12Z" style="fill:none;stroke:#000;stroke-linecap:round;stroke-linejoin:round;stroke-width:6px"/><polyline points="81 39 75 24 63 24 57 39" style="fill:none;stroke:#000;stroke-linecap:round;stroke-linejoin:round;stroke-width:6px"/><line x1="69" y1="3" x2="69" y2="24" style="fill:none;stroke:#000;stroke-linecap:round;stroke-linejoin:round;stroke-width:6px"/><polyline points="90 3 48 3 35.6 18" style="fill:none;stroke:#000;stroke-linecap:round;stroke-linejoin:round;stroke-width:6px"/><path d="M73.6,89.6A5.6383,5.6383,0,0,0,69,87.3a5.7773,5.7773,0,0,0-4.6,2.3l-8.8,12a5.8415,5.8415,0,0,0-.5,6.1,6.02,6.02,0,0,0,5.1,3.3H77.8a5.9384,5.9384,0,0,0,4.6-9.4Z" style="fill:none;stroke:#000;stroke-linecap:round;stroke-linejoin:round;stroke-width:6px"/><circle cx="51" cy="84" r="6" style="fill:none;stroke:#000;stroke-linecap:round;stroke-linejoin:round;stroke-width:6px"/><circle cx="69" cy="72" r="6" style="fill:none;stroke:#000;stroke-linecap:round;stroke-linejoin:round;stroke-width:6px"/><circle cx="87" cy="84" r="6" style="fill:none;stroke:#000;stroke-linecap:round;stroke-linejoin:round;stroke-width:6px"/><rect width="144" height="144" style="fill:none"/></svg>