<svg xmlns="http://www.w3.org/2000/svg" viewBox="0 0 144 144"><path d="M72,141s69-54.8,69-100.9c0-46.2-62.5-48.8-69-9.6C65.5-8.8,3-6.1,3,43.6S72,141,72,141Z" style="fill:none;stroke:#000;stroke-linejoin:round;stroke-width:6px"/><path d="M77.8,78.3A7.1986,7.1986,0,0,0,72,75.4a7.3423,7.3423,0,0,0-5.8,2.9L55.3,93.2a7.428,7.428,0,0,0-.6,7.6,7.335,7.335,0,0,0,6.4,4.1H83a7.335,7.335,0,0,0,6.4-4.1,7.428,7.428,0,0,0-.6-7.6Z" style="fill:none;stroke:#000;stroke-linejoin:round;stroke-width:6px"/><circle cx="49.5" cy="71.3" r="7.5" style="fill:none;stroke:#000;stroke-linejoin:round;stroke-width:6px"/><circle cx="71.9" cy="56.3" r="7.5" style="fill:none;stroke:#000;stroke-linejoin:round;stroke-width:6px"/><circle cx="94.5" cy="71.3" r="7.5" style="fill:none;stroke:#000;stroke-linejoin:round;stroke-width:6px"/><rect width="144" height="144" style="fill:none"/></svg>