<svg xmlns="http://www.w3.org/2000/svg" viewBox="0 0 144 144"><path d="M88.1,12l12.2,12.2c6.8,6.9,2.1,22.9-10.8,35.8S65,73.8,57.9,66.6L47.8,56.5" style="fill:none;stroke:#000;stroke-linecap:round;stroke-linejoin:round;stroke-width:6px"/><path d="M62.7,69.9,13,119.4a8.98,8.98,0,0,0,12.7,12.7L63.8,94c23.5,10.6,72-38.4,64.4-61.4-3-9.1-15.5-12.9-21.8-6.6l-3.3,3.3" style="fill:none;stroke:#000;stroke-linecap:round;stroke-linejoin:round;stroke-width:6px"/><line x1="77.2" y1="69" x2="49.9" y2="41.7" style="fill:none;stroke:#000;stroke-linecap:round;stroke-linejoin:round;stroke-width:6px"/><line x1="87.3" y1="62" x2="57.6" y2="32.4" style="fill:none;stroke:#000;stroke-linecap:round;stroke-linejoin:round;stroke-width:6px"/><line x1="95.3" y1="53.1" x2="66.1" y2="24" style="fill:none;stroke:#000;stroke-linecap:round;stroke-linejoin:round;stroke-width:6px"/><line x1="101.4" y1="42.3" x2="75.3" y2="16.2" style="fill:none;stroke:#000;stroke-linecap:round;stroke-linejoin:round;stroke-width:6px"/><rect width="144" height="144" style="fill:none"/></svg>