<svg xmlns="http://www.w3.org/2000/svg" viewBox="0 0 144 144"><path d="M121.3,87H62.5C24.9,87,38.2,25.1,66,33,150,57,143.6,87,121.3,87Z" style="fill:none;stroke:#000;stroke-linejoin:round;stroke-width:6px"/><line x1="87" y1="12" x2="87" y2="39.8" style="fill:none;stroke:#000;stroke-linejoin:round;stroke-width:6px"/><path d="M111,12a9.048,9.048,0,0,1-9.1,9c-5,0-14.9-9-14.9-9s9.9-9,14.9-9A9.048,9.048,0,0,1,111,12Z" style="fill:none;stroke:#000;stroke-linejoin:round;stroke-width:6px"/><path d="M63,12a9.048,9.048,0,0,0,9.1,9c5,0,14.9-9,14.9-9S77.1,3,72.1,3A9.048,9.048,0,0,0,63,12Z" style="fill:none;stroke:#000;stroke-linejoin:round;stroke-width:6px"/><circle cx="111" cy="69" r="3" style="fill:none;stroke:#000;stroke-linejoin:round;stroke-width:6px"/><path d="M41.7,74.5S9,73.6,9,89.9s54,9.7,54,26.9S21.6,141,21.6,141" style="fill:none;stroke:#000;stroke-linecap:round;stroke-linejoin:round;stroke-width:6px"/><rect width="144" height="144" style="fill:none"/></svg>