<svg xmlns="http://www.w3.org/2000/svg" viewBox="0 0 144 144"><circle cx="51" cy="51" r="48" style="fill:none;stroke:#000;stroke-linecap:round;stroke-linejoin:round;stroke-width:6px"/><line x1="85" y1="85" x2="141" y2="141" style="fill:none;stroke:#000;stroke-linecap:round;stroke-linejoin:round;stroke-width:6px"/><path d="M56.8,54.3A7.1986,7.1986,0,0,0,51,51.4a7.3423,7.3423,0,0,0-5.8,2.9l-10.9,15a7.428,7.428,0,0,0-.6,7.6A7.335,7.335,0,0,0,40.1,81H62a7.335,7.335,0,0,0,6.4-4.1,7.428,7.428,0,0,0-.6-7.6Z" style="fill:none;stroke:#000;stroke-linecap:round;stroke-linejoin:round;stroke-width:6px"/><circle cx="28.5" cy="43.5" r="7.5" style="fill:none;stroke:#000;stroke-linecap:round;stroke-linejoin:round;stroke-width:6px"/><circle cx="50.9" cy="28.6" r="7.5" style="fill:none;stroke:#000;stroke-linecap:round;stroke-linejoin:round;stroke-width:6px"/><circle cx="73.5" cy="43.5" r="7.5" style="fill:none;stroke:#000;stroke-linecap:round;stroke-linejoin:round;stroke-width:6px"/><rect width="144" height="144" style="fill:none"/></svg>