<svg xmlns="http://www.w3.org/2000/svg" viewBox="0 0 144 144"><path d="M126,15c8.3,1.7,15,9.5,15,18V45a12.0353,12.0353,0,0,1-12,12H111A12.0353,12.0353,0,0,1,99,45V36a270.675,270.675,0,0,0-54,0v9A12.0353,12.0353,0,0,1,33,57H15A12.0353,12.0353,0,0,1,3,45V33c0-8.5,6.7-16.3,15-18A270.7837,270.7837,0,0,1,126,15Z" style="fill:none;stroke:#000;stroke-linecap:round;stroke-linejoin:round;stroke-width:6px"/><rect x="33" y="75" width="18" height="12" style="fill:none;stroke:#000;stroke-linejoin:round;stroke-width:6px"/><rect x="63" y="75" width="18" height="12" style="fill:none;stroke:#000;stroke-linejoin:round;stroke-width:6px"/><rect x="93" y="75" width="18" height="12" style="fill:none;stroke:#000;stroke-linejoin:round;stroke-width:6px"/><rect x="33" y="99" width="18" height="12" style="fill:none;stroke:#000;stroke-linejoin:round;stroke-width:6px"/><rect x="63" y="99" width="18" height="12" style="fill:none;stroke:#000;stroke-linejoin:round;stroke-width:6px"/><rect x="93" y="99" width="18" height="12" style="fill:none;stroke:#000;stroke-linejoin:round;stroke-width:6px"/><rect x="33" y="123" width="18" height="12" style="fill:none;stroke:#000;stroke-linejoin:round;stroke-width:6px"/><rect x="63" y="123" width="18" height="12" style="fill:none;stroke:#000;stroke-linejoin:round;stroke-width:6px"/><rect x="93" y="123" width="18" height="12" style="fill:none;stroke:#000;stroke-linejoin:round;stroke-width:6px"/><rect width="144" height="144" style="fill:none"/></svg>