<svg xmlns="http://www.w3.org/2000/svg" viewBox="0 0 144 144"><path d="M129,3H33a12,12,0,0,0,0,24h96V141H33a12.0353,12.0353,0,0,1-12-12V15" style="fill:none;stroke:#000;stroke-linecap:round;stroke-linejoin:round;stroke-width:6px"/><line x1="33" y1="15" x2="123" y2="15" style="fill:none;stroke:#000;stroke-linecap:round;stroke-linejoin:round;stroke-width:6px"/><line x1="15" y1="45" x2="27" y2="45" style="fill:none;stroke:#000;stroke-linecap:round;stroke-linejoin:round;stroke-width:6px"/><line x1="15" y1="63" x2="27" y2="63" style="fill:none;stroke:#000;stroke-linecap:round;stroke-linejoin:round;stroke-width:6px"/><line x1="15" y1="81" x2="27" y2="81" style="fill:none;stroke:#000;stroke-linecap:round;stroke-linejoin:round;stroke-width:6px"/><line x1="15" y1="99" x2="27" y2="99" style="fill:none;stroke:#000;stroke-linecap:round;stroke-linejoin:round;stroke-width:6px"/><line x1="15" y1="117" x2="27" y2="117" style="fill:none;stroke:#000;stroke-linecap:round;stroke-linejoin:round;stroke-width:6px"/><path d="M87,87v9l15.2,4.4A8.3669,8.3669,0,0,1,108,108v9H48v-9a8.3669,8.3669,0,0,1,5.8-7.6L69,96V87" style="fill:none;stroke:#000;stroke-linejoin:round;stroke-width:6px"/><ellipse cx="78" cy="70.6" rx="18" ry="19.6" style="fill:none;stroke:#000;stroke-linejoin:round;stroke-width:6px"/><path d="M95.7,67.3c-3,3-11.5,2.8-14.7-3.3-6,6-15.8,6-20.6,2.6" style="fill:none;stroke:#000;stroke-linejoin:round;stroke-width:6px"/><rect width="144" height="144" style="fill:none"/></svg>