<svg xmlns="http://www.w3.org/2000/svg" viewBox="0 0 144 144"><path d="M61.4,54.2c3.8-3.8,4.1-9.7.7-13.1l-9.3-9.3c-3.4-3.4-9.3-3.1-13.1.7L34,38.1c-4.9,4.9-6,12.2-2.7,17.6a184.56,184.56,0,0,0,57,57c5.3,3.4,12.6,2.2,17.6-2.7l5.7-5.7c3.8-3.8,4.1-9.7.7-13.1L103,81.9c-3.4-3.4-9.3-3.1-13.1.7L86.5,86A187.3229,187.3229,0,0,1,58,57.5Z" style="fill:none;stroke:#000;stroke-linecap:round;stroke-linejoin:round;stroke-width:6px"/><path d="M108,108c3,3,9.4,33-36,33a69.0444,69.0444,0,1,1,56.9-30" style="fill:none;stroke:#000;stroke-linecap:round;stroke-linejoin:round;stroke-width:6px"/><rect width="144" height="144" style="fill:none"/></svg>