<svg xmlns="http://www.w3.org/2000/svg" viewBox="0 0 144 144"><rect x="21" y="3" width="102" height="138" style="fill:none;stroke:#000;stroke-linecap:round;stroke-linejoin:round;stroke-width:6px"/><path d="M21,3H9A6.0176,6.0176,0,0,0,3,9V135a6.0176,6.0176,0,0,0,6,6H21" style="fill:none;stroke:#000;stroke-linecap:round;stroke-linejoin:round;stroke-width:6px"/><path d="M78,72v9l15.2,4.4A8.3669,8.3669,0,0,1,99,93v18H39V93a8.3669,8.3669,0,0,1,5.8-7.6L60,81V72" style="fill:none;stroke:#000;stroke-linejoin:round;stroke-width:6px"/><ellipse cx="69" cy="55.6" rx="18" ry="19.6" style="fill:none;stroke:#000;stroke-linejoin:round;stroke-width:6px"/><path d="M86.8,52.1c-3,3-11.6,3-14.8-3-6,6-15.8,6-20.6,2.6" style="fill:none;stroke:#000;stroke-linejoin:round;stroke-width:6px"/><path d="M123,12h6a12.0353,12.0353,0,0,1,12,12V42H123" style="fill:none;stroke:#000;stroke-linejoin:round;stroke-width:6px"/><polyline points="123 42 141 42 141 72 123 72" style="fill:none;stroke:#000;stroke-linejoin:round;stroke-width:6px"/><polyline points="123 72 141 72 141 102 123 102" style="fill:none;stroke:#000;stroke-linejoin:round;stroke-width:6px"/><path d="M123,102h18v18a12.0353,12.0353,0,0,1-12,12h-6" style="fill:none;stroke:#000;stroke-linejoin:round;stroke-width:6px"/><rect width="144" height="144" style="fill:none"/></svg>