<svg xmlns="http://www.w3.org/2000/svg" viewBox="0 0 144 144"><path d="M126,21c8.3,1.7,15,9.5,15,18V51a12.0353,12.0353,0,0,1-12,12H111A12.0353,12.0353,0,0,1,99,51V42a270.675,270.675,0,0,0-54,0v9A12.0353,12.0353,0,0,1,33,63H15A12.0353,12.0353,0,0,1,3,51V39c0-8.5,6.7-16.3,15-18A270.7837,270.7837,0,0,1,126,21Z" style="fill:none;stroke:#000;stroke-linecap:round;stroke-linejoin:round;stroke-width:6px"/><path d="M129,135H15V117A48.1411,48.1411,0,0,1,63,69H81a48.1411,48.1411,0,0,1,48,48Z" style="fill:none;stroke:#000;stroke-linecap:round;stroke-linejoin:round;stroke-width:6px"/><line x1="63" y1="57" x2="63" y2="69" style="fill:none;stroke:#000;stroke-linecap:round;stroke-linejoin:round;stroke-width:6px"/><line x1="81" y1="57" x2="81" y2="69" style="fill:none;stroke:#000;stroke-linecap:round;stroke-linejoin:round;stroke-width:6px"/><circle cx="72" cy="102" r="21" style="fill:none;stroke:#000;stroke-linecap:round;stroke-linejoin:round;stroke-width:6px"/><rect width="144" height="144" style="fill:none"/></svg>