<svg xmlns="http://www.w3.org/2000/svg" viewBox="0 0 144.0887 144"><path d="M44.9,60.1a12.0107,12.0107,0,0,0,0-17L32.2,30.4a12.0107,12.0107,0,0,0-17,0l-7,7A17.881,17.881,0,0,0,5.9,60a278.5294,278.5294,0,0,0,78,78,17.881,17.881,0,0,0,22.6-2.3l7-7a12.0107,12.0107,0,0,0,0-17L100.9,99a12.0107,12.0107,0,0,0-17,0l-4.2,4.2a281.8548,281.8548,0,0,1-39-39Z" transform="translate(0.0887)" style="fill:none;stroke:#000;stroke-linecap:round;stroke-linejoin:round;stroke-width:6px"/><polyline points="69.089 27 69.089 3 93.089 3" style="fill:none;stroke:#000;stroke-linecap:round;stroke-linejoin:round;stroke-width:6px"/><polyline points="69.089 3 105.089 36 105.089 74.8" style="fill:none;stroke:#000;stroke-linecap:round;stroke-linejoin:round;stroke-width:6px"/><polyline points="141.089 27 141.089 3 117.089 3" style="fill:none;stroke:#000;stroke-linecap:round;stroke-linejoin:round;stroke-width:6px"/><line x1="141.0887" y1="3" x2="115.9887" y2="25.9" style="fill:none;stroke:#000;stroke-linecap:round;stroke-linejoin:round;stroke-width:6px"/><rect x="0.0887" width="144" height="144" style="fill:none"/></svg>