<svg xmlns="http://www.w3.org/2000/svg" viewBox="0 0 144 144.0899"><path d="M51.5,47.4a13.8818,13.8818,0,0,0,0-19.6L36.8,13.1a13.8818,13.8818,0,0,0-19.6,0L9.1,21.2A20.7427,20.7427,0,0,0,6.5,47.4a321.4828,321.4828,0,0,0,90.2,90.2,20.7553,20.7553,0,0,0,26.2-2.6l8.1-8.1a13.8818,13.8818,0,0,0,0-19.6L116.3,92.6a13.8818,13.8818,0,0,0-19.6,0l-4.9,4.9A321.8274,321.8274,0,0,1,46.6,52.3Z" style="fill:none;stroke:#000;stroke-linecap:round;stroke-linejoin:round;stroke-width:6px"/><rect width="144" height="144" style="fill:none"/></svg>