<svg xmlns="http://www.w3.org/2000/svg" viewBox="0 0 144 144"><path d="M126,84c8.3,1.7,15,9.5,15,18v9a12.0353,12.0353,0,0,1-12,12H111a12.0353,12.0353,0,0,1-12-12v-6a270.675,270.675,0,0,0-54,0v6a12.0353,12.0353,0,0,1-12,12H15A12.0353,12.0353,0,0,1,3,111v-9c0-8.5,6.7-16.3,15-18A270.7837,270.7837,0,0,1,126,84Z" style="fill:none;stroke:#000;stroke-linecap:round;stroke-linejoin:round;stroke-width:6px"/><line x1="69" y1="15" x2="69" y2="51" style="fill:none;stroke:#000;stroke-linecap:round;stroke-linejoin:round;stroke-width:6px"/><line x1="122.4" y1="35.1" x2="97" y2="60.5" style="fill:none;stroke:#000;stroke-linecap:round;stroke-linejoin:round;stroke-width:6px"/><line x1="15.6" y1="35.1" x2="41" y2="60.5" style="fill:none;stroke:#000;stroke-linecap:round;stroke-linejoin:round;stroke-width:6px"/><rect width="144" height="144" style="fill:none"/></svg>