<svg xmlns="http://www.w3.org/2000/svg" viewBox="0 0 144.0887 144"><rect x="81.0887" y="27" width="60" height="48" style="fill:none;stroke:#000;stroke-linecap:round;stroke-linejoin:round;stroke-width:6px"/><line x1="111.0887" y1="60" x2="111.0887" y2="48" style="fill:none;stroke:#000;stroke-linecap:round;stroke-linejoin:round;stroke-width:6px"/><path d="M93,27V21a18,18,0,0,1,36,0v6" transform="translate(0.0887)" style="fill:none;stroke:#000;stroke-linecap:round;stroke-linejoin:round;stroke-width:6px"/><circle cx="111.0887" cy="45" r="3" style="fill:none;stroke:#000;stroke-linecap:round;stroke-linejoin:round;stroke-width:6px"/><path d="M45,60.1a12.0107,12.0107,0,0,0,0-17L32.2,30.4a12.0107,12.0107,0,0,0-17,0l-7,7A17.881,17.881,0,0,0,5.9,60a278.5294,278.5294,0,0,0,78,78,17.881,17.881,0,0,0,22.6-2.3l7-7a12.0107,12.0107,0,0,0,0-17L100.8,99a12.0107,12.0107,0,0,0-17,0l-4.2,4.2a281.8548,281.8548,0,0,1-39-39Z" transform="translate(0.0887)" style="fill:none;stroke:#000;stroke-linecap:round;stroke-linejoin:round;stroke-width:6px"/><rect x="0.0887" width="144" height="144" style="fill:none"/></svg>