<svg xmlns="http://www.w3.org/2000/svg" viewBox="0 0 144 144"><path d="M71.4,96.6a275.0941,275.0941,0,0,0,30.5,23.5,17.881,17.881,0,0,0,22.6-2.3l7-7a12.0107,12.0107,0,0,0,0-17L118.8,81.1a12.0107,12.0107,0,0,0-17,0l-4.2,4.2q-4.05-3.3-8.1-6.9" style="fill:none;stroke:#000;stroke-linecap:round;stroke-linejoin:round;stroke-width:6px"/><path d="M65.5,54.5q-3.6-4.05-6.9-8.1l4.2-4.2a12.0107,12.0107,0,0,0,0-17L50.1,12.5a12.0107,12.0107,0,0,0-17,0l-7,7a17.8937,17.8937,0,0,0-2.3,22.6A288.6743,288.6743,0,0,0,47.4,72.6" style="fill:none;stroke:#000;stroke-linecap:round;stroke-linejoin:round;stroke-width:6px"/><line x1="141" y1="3" x2="3" y2="141" style="fill:none;stroke:#000;stroke-linecap:round;stroke-linejoin:round;stroke-width:6px"/><rect width="144" height="144" style="fill:none"/></svg>