<svg xmlns="http://www.w3.org/2000/svg" viewBox="0 0 144 144"><path d="M126,20.5c8.3,1.7,15,9,15,17.5V51c0,6.6-5.4,13.1-12,13.1H111c-6.6,0-12-6.5-12-13.1V40.9a270.675,270.675,0,0,0-54,0V51c0,6.6-5.4,13.1-12,13.1H15C8.4,64.1,3,57.6,3,51V37.9c0-8.5,6.7-15.8,15-17.5A269.006,269.006,0,0,1,126,20.5Z" style="fill:none;stroke:#000;stroke-linecap:round;stroke-linejoin:round;stroke-width:6px"/><path d="M111,72v45a12.0353,12.0353,0,0,1-12,12H39a12.0353,12.0353,0,0,1-12-12V72" style="fill:none;stroke:#000;stroke-linejoin:round;stroke-width:6px"/><polygon points="54 78 48 78 48 84 54 84 54 78" style="fill:#000"/><polygon points="72 78 66 78 66 84 72 84 72 78" style="fill:#000"/><polygon points="90 78 84 78 84 84 90 84 90 78" style="fill:#000"/><polygon points="54 90 48 90 48 96 54 96 54 90" style="fill:#000"/><polygon points="72 90 66 90 66 96 72 96 72 90" style="fill:#000"/><polygon points="90 90 84 90 84 96 90 96 90 90" style="fill:#000"/><polygon points="54 102 48 102 48 108 54 108 54 102" style="fill:#000"/><polygon points="72 102 66 102 66 108 72 108 72 102" style="fill:#000"/><polygon points="90 102 84 102 84 108 90 108 90 102" style="fill:#000"/><rect width="144" height="144" style="fill:none"/></svg>