<svg xmlns="http://www.w3.org/2000/svg" viewBox="0 0 144 144"><path d="M65.5,67a7.4853,7.4853,0,0,0,0-10.7l-8-8a7.4853,7.4853,0,0,0-10.7,0l-4.4,4.4A11.3487,11.3487,0,0,0,41,67a177.2775,177.2775,0,0,0,49.2,49.2,11.3487,11.3487,0,0,0,14.3-1.4l4.4-4.4a7.4853,7.4853,0,0,0,0-10.7l-8-8a7.4853,7.4853,0,0,0-10.7,0l-2.7,2.7A186.672,186.672,0,0,1,62.8,69.6Z" style="fill:none;stroke:#000;stroke-linecap:round;stroke-linejoin:round;stroke-width:6px"/><path d="M129,3H27a12,12,0,0,0,0,24H129V141H27a12.0353,12.0353,0,0,1-12-12V18" style="fill:none;stroke:#000;stroke-linecap:round;stroke-linejoin:round;stroke-width:6px"/><line x1="27" y1="15" x2="123" y2="15" style="fill:none;stroke:#000;stroke-linecap:round;stroke-linejoin:round;stroke-width:6px"/><line x1="9" y1="45" x2="21" y2="45" style="fill:none;stroke:#000;stroke-linecap:round;stroke-linejoin:round;stroke-width:6px"/><line x1="9" y1="63" x2="21" y2="63" style="fill:none;stroke:#000;stroke-linecap:round;stroke-linejoin:round;stroke-width:6px"/><line x1="9" y1="81" x2="21" y2="81" style="fill:none;stroke:#000;stroke-linecap:round;stroke-linejoin:round;stroke-width:6px"/><line x1="9" y1="99" x2="21" y2="99" style="fill:none;stroke:#000;stroke-linecap:round;stroke-linejoin:round;stroke-width:6px"/><line x1="9" y1="117" x2="21" y2="117" style="fill:none;stroke:#000;stroke-linecap:round;stroke-linejoin:round;stroke-width:6px"/><rect width="144" height="144" style="fill:none"/></svg>