<svg xmlns="http://www.w3.org/2000/svg" viewBox="0 0 144.0197 144.0197"><path d="M46.1,60.1a12.0107,12.0107,0,0,0,0-17L33.3,30.4a12.0107,12.0107,0,0,0-17,0l-7,7A17.8937,17.8937,0,0,0,7,60a278.5294,278.5294,0,0,0,78,78,17.881,17.881,0,0,0,22.6-2.3l7-7a12.0107,12.0107,0,0,0,0-17L102,99.1a12.0107,12.0107,0,0,0-17,0l-4.2,4.2a281.8548,281.8548,0,0,1-39-39Z" transform="translate(0 0.0197)" style="fill:none;stroke:#000;stroke-linecap:round;stroke-linejoin:round;stroke-width:6px"/><polyline points="65.8 22.22 79.5 38.62 95.2 24.12" style="fill:none;stroke:#000;stroke-linecap:round;stroke-linejoin:round;stroke-width:6px"/><path d="M79.5,38.6C77.9,17.9,92.1,3.6,109.1,3a30.7715,30.7715,0,0,1,2.3,61.5" transform="translate(0 0.0197)" style="fill:none;stroke:#000;stroke-linecap:round;stroke-linejoin:round;stroke-width:6px"/><rect y="0.0197" width="144" height="144" style="fill:none"/></svg>