<svg xmlns="http://www.w3.org/2000/svg" viewBox="0 0 144 144"><path d="M69,87v42a12.0353,12.0353,0,0,1-12,12H15A12.0353,12.0353,0,0,1,3,129V39A12.0353,12.0353,0,0,1,15,27H33" style="fill:none;stroke:#000;stroke-linecap:round;stroke-linejoin:round;stroke-width:6px"/><line x1="33" y1="51" x2="3" y2="51" style="fill:none;stroke:#000;stroke-linecap:round;stroke-linejoin:round;stroke-width:6px"/><line x1="69" y1="117" x2="3" y2="117" style="fill:none;stroke:#000;stroke-linecap:round;stroke-linejoin:round;stroke-width:6px"/><line x1="27" y1="39" x2="33" y2="39" style="fill:none;stroke:#000;stroke-linecap:round;stroke-linejoin:round;stroke-width:6px"/><path d="M141,48a8.9626,8.9626,0,0,1-9,9H99L81,75V57H60a8.9626,8.9626,0,0,1-9-9V12a8.9626,8.9626,0,0,1,9-9h72a8.9626,8.9626,0,0,1,9,9Z" style="fill:none;stroke:#000;stroke-linecap:round;stroke-linejoin:round;stroke-width:6px"/><path d="M96,45s16.5-12,16.5-20.9c0-10.3-13.5-13.5-16.5-1-3-12.5-16.5-9.2-16.5,1C79.5,33,96,45,96,45Z" style="fill:none;stroke:#000;stroke-linejoin:round;stroke-width:6px"/><circle cx="36" cy="129" r="3" style="fill:none;stroke:#000;stroke-linejoin:round;stroke-width:6px"/><rect width="144" height="144" style="fill:none"/></svg>