<svg xmlns="http://www.w3.org/2000/svg" viewBox="0 0 144 144"><path d="M45,60.1a12.0107,12.0107,0,0,0,0-17L32.3,30.4a12.0107,12.0107,0,0,0-17,0l-7,7A17.8937,17.8937,0,0,0,6,60a278.5294,278.5294,0,0,0,78,78,17.881,17.881,0,0,0,22.6-2.3l7-7a12.0107,12.0107,0,0,0,0-17L101,99.1a12.0107,12.0107,0,0,0-17,0l-4.2,4.2a281.8548,281.8548,0,0,1-39-39Z" style="fill:none;stroke:#000;stroke-linecap:round;stroke-linejoin:round;stroke-width:6px"/><polyline points="87 15 129.3 57 111 75 111 3 129.3 21 86.8 63" style="fill:none;stroke:#000;stroke-linecap:round;stroke-linejoin:round;stroke-width:6px"/><rect width="144" height="144" style="fill:none"/></svg>