<svg xmlns="http://www.w3.org/2000/svg" viewBox="0 0 144 144"><path d="M66.4,61.2c-1.9-2.2-3.8-4.3-5.5-6.5l3.4-3.4c3.8-3.8,4.1-9.7.7-13.1l-9.3-9.3c-3.4-3.4-9.3-3.1-13.1.7L37,35.1c-4.9,4.9-6,12.2-2.7,17.6A184.7124,184.7124,0,0,0,51.7,75.9" style="fill:none;stroke:#000;stroke-linecap:round;stroke-linejoin:round;stroke-width:6px"/><path d="M68.1,92.3a187.17,187.17,0,0,0,23.2,17.4c5.3,3.4,12.6,2.2,17.6-2.7l5.7-5.7c3.8-3.8,4.1-9.7.7-13.1L106,78.9c-3.4-3.4-9.3-3.1-13.1.7L89.5,83c-2.2-1.8-4.4-3.6-6.5-5.5" style="fill:none;stroke:#000;stroke-linecap:round;stroke-linejoin:round;stroke-width:6px"/><circle cx="72" cy="72" r="69" style="fill:none;stroke:#000;stroke-linecap:round;stroke-linejoin:round;stroke-width:6px"/><line x1="120.8" y1="23.2" x2="23.2" y2="120.8" style="fill:none;stroke:#000;stroke-linecap:round;stroke-linejoin:round;stroke-width:6px"/><rect width="144" height="144" style="fill:none"/></svg>