<svg xmlns="http://www.w3.org/2000/svg" viewBox="0 0 144 144"><rect x="3" y="3" width="138" height="138" style="fill:none;stroke:#000;stroke-linejoin:round;stroke-width:6px"/><line x1="69" y1="93" x2="69" y2="116.9" style="fill:none;stroke:#000;stroke-linecap:round;stroke-linejoin:round;stroke-width:6px"/><line x1="3" y1="117" x2="141" y2="117" style="fill:none;stroke:#000;stroke-linejoin:round;stroke-width:6px"/><path d="M77.7,57.1s6.4-6.5,14.5-6.4c8.1,0,16.5,1.3,17.4,6.5-.8,5.5-9.2,6.8-16.7,6.5C85.6,63.3,80.7,60.3,77.7,57.1Z" style="fill:none;stroke:#000;stroke-linejoin:round;stroke-width:6px"/><path d="M59.9,57.1s-6.4-6.5-14.5-6.4c-8.1,0-16.5,1.3-17.4,6.5.8,5.5,9.2,6.8,16.7,6.5C52.1,63.3,56.9,60.3,59.9,57.1Z" style="fill:none;stroke:#000;stroke-linejoin:round;stroke-width:6px"/><path d="M63.7,47.9s2.6-8.7-1.4-15.8S53.1,18.3,48.1,20c-4.5,3.3-1.5,11.4,2.4,17.8C54.4,44.1,59.4,46.8,63.7,47.9Z" style="fill:none;stroke:#000;stroke-linejoin:round;stroke-width:6px"/><path d="M73.3,47.9s-2.6-8.7,1.4-15.8S83.9,18.4,88.8,20c4.5,3.3,1.5,11.4-2.4,17.8A21.1468,21.1468,0,0,1,73.3,47.9Z" style="fill:none;stroke:#000;stroke-linejoin:round;stroke-width:6px"/><path d="M63.6,65.9s2.6,8.7-1.4,15.8S53,95.4,48.1,93.8c-4.5-3.3-1.5-11.4,2.4-17.8C54.4,69.7,59.4,67,63.6,65.9Z" style="fill:none;stroke:#000;stroke-linejoin:round;stroke-width:6px"/><path d="M73.3,65.9s-2.6,8.7,1.4,15.8,9.2,13.7,14.1,12.1c4.5-3.3,1.5-11.4-2.4-17.8C82.5,69.7,77.5,67,73.3,65.9Z" style="fill:none;stroke:#000;stroke-linejoin:round;stroke-width:6px"/><rect width="144" height="144" style="fill:none"/></svg>