<svg xmlns="http://www.w3.org/2000/svg" viewBox="0 0 144 144"><path d="M135,15A12.0353,12.0353,0,0,0,123,3H15A12.0353,12.0353,0,0,0,3,15V123a12.0353,12.0353,0,0,0,12,12H123a12.0353,12.0353,0,0,0,12-12Z" style="fill:none;stroke:#000;stroke-linecap:round;stroke-linejoin:round;stroke-width:6px"/><rect x="21" y="21" width="24" height="24" style="fill:none;stroke:#000;stroke-linecap:round;stroke-linejoin:round;stroke-width:6px"/><rect x="57" y="21" width="24" height="24" style="fill:none;stroke:#000;stroke-linecap:round;stroke-linejoin:round;stroke-width:6px"/><rect x="93" y="21" width="24" height="24" style="fill:none;stroke:#000;stroke-linecap:round;stroke-linejoin:round;stroke-width:6px"/><rect x="21" y="57" width="24" height="24" style="fill:none;stroke:#000;stroke-linecap:round;stroke-linejoin:round;stroke-width:6px"/><rect x="57" y="57" width="24" height="24" style="fill:none;stroke:#000;stroke-linecap:round;stroke-linejoin:round;stroke-width:6px"/><rect x="93" y="57" width="24" height="24" style="fill:none;stroke:#000;stroke-linecap:round;stroke-linejoin:round;stroke-width:6px"/><rect x="21" y="93" width="24" height="24" style="fill:none;stroke:#000;stroke-linecap:round;stroke-linejoin:round;stroke-width:6px"/><rect width="144" height="144" style="fill:none"/></svg>