<svg xmlns="http://www.w3.org/2000/svg" viewBox="0 0 144 144"><path d="M93,93a24.0706,24.0706,0,0,1-24,24H27A24.0706,24.0706,0,0,1,3,93V51A24.0706,24.0706,0,0,1,27,27H69A24.0706,24.0706,0,0,1,93,51Z" style="fill:none;stroke:#000;stroke-linecap:round;stroke-linejoin:round;stroke-width:6px"/><path d="M93,27a24.0706,24.0706,0,0,1,24,24V93a24.0706,24.0706,0,0,1-24,24" style="fill:none;stroke:#000;stroke-linecap:round;stroke-linejoin:round;stroke-width:6px"/><path d="M117,27a24.0706,24.0706,0,0,1,24,24V93a24.0706,24.0706,0,0,1-24,24" style="fill:none;stroke:#000;stroke-linecap:round;stroke-linejoin:round;stroke-width:6px"/><circle cx="48" cy="60" r="15" style="fill:none;stroke:#000;stroke-linecap:round;stroke-linejoin:round;stroke-width:6px"/><path d="M72,99H24a24,24,0,0,1,48,0Z" style="fill:none;stroke:#000;stroke-linecap:round;stroke-linejoin:round;stroke-width:6px"/><rect width="144" height="144" style="fill:none"/></svg>