<svg xmlns="http://www.w3.org/2000/svg" viewBox="0 0 144 144"><path d="M21,93H12c-5,0-9-5.4-9-12V27A12.0353,12.0353,0,0,1,15,15H99c6.6,0,12,4,12,9v9" style="fill:none;stroke:#000;stroke-linecap:round;stroke-linejoin:round;stroke-width:6px"/><polyline points="21 81 15 81 15 27 99 27 99 33" style="fill:none;stroke:#000;stroke-linecap:round;stroke-linejoin:round;stroke-width:6px"/><path d="M141,111a12.0353,12.0353,0,0,1-12,12H45a12.0353,12.0353,0,0,1-12-12V57A12.0353,12.0353,0,0,1,45,45h84a12.0353,12.0353,0,0,1,12,12Z" style="fill:none;stroke:#000;stroke-linecap:round;stroke-linejoin:round;stroke-width:6px"/><rect x="45" y="57" width="84" height="54" style="fill:none;stroke:#000;stroke-linecap:round;stroke-linejoin:round;stroke-width:6px"/><rect width="144" height="144" style="fill:none"/></svg>