<svg xmlns="http://www.w3.org/2000/svg" viewBox="0 0 144 144"><path d="M122.8,116.9l-13,19.7A6.0009,6.0009,0,0,1,104,141H35a6.0905,6.0905,0,0,1-5.8-4.4l-13-19.9" style="fill:none;stroke:#000;stroke-linejoin:round;stroke-width:6px"/><path d="M51.3,78.1s-6.2,5.9-6.9,7.5A3.1894,3.1894,0,0,0,46,89.8a3.0793,3.0793,0,0,0,1.3.3,3.1475,3.1475,0,0,0,2.9-1.9c.7-1.6,1.1-10.1,1.1-10.1Z" style="fill:#000"/><path d="M69.7,77.9s-3,7.4-3,9.1a3,3,0,0,0,6,0c0-1.7-3-9.1-3-9.1Z" style="fill:#000"/><path d="M88.4,78.4s.2,8,.9,9.5a3.0772,3.0772,0,0,0,2.8,1.8,2.6626,2.6626,0,0,0,1.2-.3,3.0056,3.0056,0,0,0,1.5-4c-.7-1.4-6.4-7-6.4-7Z" style="fill:#000"/><path d="M33.6,24C23.2,34.5,44,38,33.8,48.3" style="fill:none;stroke:#000;stroke-linecap:round;stroke-linejoin:round;stroke-width:6px"/><path d="M105.6,24c10.5,10.5-10.4,14-.1,24.3" style="fill:none;stroke:#000;stroke-linecap:round;stroke-linejoin:round;stroke-width:6px"/><path d="M69.6,5.7C51.4,24,87.7,30.2,69.8,48" style="fill:none;stroke:#000;stroke-linecap:round;stroke-linejoin:round;stroke-width:6px"/><path d="M69.7,63.1c31.6,0,58.2,17.9,66.1,47.9,0,0-2.3,6.2-16,6.2S105.2,111,96.2,111s-14.4,6.3-26.6,6.3S51.9,111,42.8,111s-10.2,6.2-23.9,6.2S3,111,3,111C10.9,81,38,63.1,69.7,63.1Z" style="fill:none;stroke:#000;stroke-linejoin:round;stroke-width:6px"/><rect width="144" height="144" style="fill:none"/></svg>