<svg xmlns="http://www.w3.org/2000/svg" viewBox="0 0 144 144"><path d="M69,36.1A45.0871,45.0871,0,0,1,99,45" style="fill:none;stroke:#000;stroke-linecap:round;stroke-linejoin:round;stroke-width:6px"/><path d="M141,57a12.0353,12.0353,0,0,1-12,12" style="fill:none;stroke:#000;stroke-linecap:round;stroke-linejoin:round;stroke-width:6px"/><path d="M57.3,22.7a20.8636,20.8636,0,0,0-28.8-7.8A20.5536,20.5536,0,0,1,38.8,30C26.2,37.6,17.5,49.4,15.5,63H3V87H19.2c8.5,17.6,28.9,30,52.8,30,31.5,0,57-21.5,57-48C129,38,94.2,14.4,57.3,22.7Z" style="fill:none;stroke:#000;stroke-linecap:round;stroke-linejoin:round;stroke-width:6px"/><circle cx="36" cy="60" r="3" style="fill:none;stroke:#000;stroke-linecap:round;stroke-linejoin:round;stroke-width:6px"/><line x1="45" y1="111.3" x2="45" y2="132" style="fill:none;stroke:#000;stroke-linecap:round;stroke-linejoin:round;stroke-width:6px"/><line x1="99" y1="111.3" x2="99" y2="132" style="fill:none;stroke:#000;stroke-linecap:round;stroke-linejoin:round;stroke-width:6px"/><rect width="144" height="144" style="fill:none"/></svg>