<svg xmlns="http://www.w3.org/2000/svg" viewBox="0 0 144 144"><path d="M81,3a56.7023,56.7023,0,0,1,38.2,15h0L81,57Z" style="fill:none;stroke:#000;stroke-linecap:round;stroke-linejoin:round;stroke-width:6px"/><path d="M107.2,48.8,69,87V33a53.9447,53.9447,0,1,0,38.2,15.8Z" style="fill:none;stroke:#000;stroke-linecap:round;stroke-linejoin:round;stroke-width:6px"/><path d="M98.7,57.3,69,87V45A41.9948,41.9948,0,1,0,98.7,57.3Z" style="fill:none;stroke:#000;stroke-linecap:round;stroke-linejoin:round;stroke-width:6px"/><path d="M81,15a41.8685,41.8685,0,0,1,29.7,12.3" style="fill:none;stroke:#000;stroke-linecap:round;stroke-linejoin:round;stroke-width:6px"/><circle cx="54" cy="66" r="6" style="fill:none;stroke:#000;stroke-linecap:round;stroke-linejoin:round;stroke-width:6px"/><circle cx="48" cy="93" r="6" style="fill:none;stroke:#000;stroke-linecap:round;stroke-linejoin:round;stroke-width:6px"/><circle cx="72" cy="111" r="6" style="fill:none;stroke:#000;stroke-linecap:round;stroke-linejoin:round;stroke-width:6px"/><circle cx="93" cy="93" r="6" style="fill:none;stroke:#000;stroke-linecap:round;stroke-linejoin:round;stroke-width:6px"/><path d="M91.4,64.6,93,66a6.364,6.364,0,0,1-9,9l-1.6-1.4" style="fill:none;stroke:#000;stroke-linejoin:round;stroke-width:6px"/><path d="M103.6,34.4,102,33a6.7321,6.7321,0,0,0-9,0,6.7321,6.7321,0,0,0,0,9l1.5,1.5" style="fill:none;stroke:#000;stroke-linecap:round;stroke-linejoin:round;stroke-width:6px"/><rect width="144" height="144" style="fill:none"/></svg>