<svg xmlns="http://www.w3.org/2000/svg" viewBox="0 0 144 144"><rect x="3" y="27" width="138" height="90" style="fill:none;stroke:#000;stroke-linecap:round;stroke-linejoin:round;stroke-width:6px"/><polygon points="24 36 18 36 18 42 24 42 24 36" style="fill:#000"/><polygon points="24 48 18 48 18 54 24 54 24 48" style="fill:#000"/><polygon points="24 60 18 60 18 66 24 66 24 60" style="fill:#000"/><polygon points="24 72 18 72 18 78 24 78 24 72" style="fill:#000"/><polygon points="24 84 18 84 18 90 24 90 24 84" style="fill:#000"/><polygon points="24 96 18 96 18 102 24 102 24 96" style="fill:#000"/><polygon points="24 108 18 108 18 114 24 114 24 108" style="fill:#000"/><path d="M61.3,69.2,45.4,62.1,33.4,69,60.8,86.7,88,75.9,76.4,103.1,90,96l16.7-27.6,17.7-8.8a7.69,7.69,0,0,0-5.9-14.2Z" style="fill:none;stroke:#000;stroke-linecap:round;stroke-linejoin:round;stroke-width:6px"/><polyline points="98.6 53.8 75 39 62.8 45.3 84 59.8" style="fill:none;stroke:#000;stroke-linecap:round;stroke-linejoin:round;stroke-width:6px"/><rect width="144" height="144" style="fill:none"/></svg>