<svg xmlns="http://www.w3.org/2000/svg" viewBox="0 0 144.2 144"><path d="M107.5,48.5A44.4557,44.4557,0,0,1,111,66a45.0008,45.0008,0,0,1-66,39.8" transform="translate(0.2)" style="fill:none;stroke:#000;stroke-linecap:round;stroke-linejoin:round;stroke-width:6px"/><path d="M34.8,98.4a44.9759,44.9759,0,1,1,65.9-61" transform="translate(0.2)" style="fill:none;stroke:#000;stroke-linecap:round;stroke-linejoin:round;stroke-width:6px"/><path d="M25.4,90.8l-20.7,19a6.0977,6.0977,0,0,0,0,8.5,6.0051,6.0051,0,0,0,8.5,0l111-102a6.0977,6.0977,0,0,0,0-8.5,6.0051,6.0051,0,0,0-8.5,0L92.5,29.6" transform="translate(0.2)" style="fill:none;stroke:#000;stroke-linecap:round;stroke-linejoin:round;stroke-width:6px"/><path d="M3,117a12.214,12.214,0,0,0,3.5,8.5,12.0107,12.0107,0,0,0,17,0l108-99a12.0107,12.0107,0,0,0,0-17A12.214,12.214,0,0,0,123,6" transform="translate(0.2)" style="fill:none;stroke:#000;stroke-linecap:round;stroke-linejoin:round;stroke-width:6px"/><line x1="12" y1="6" x2="12" y2="24.4" style="fill:none;stroke:#000;stroke-linecap:round;stroke-linejoin:round;stroke-width:6px"/><line x1="3" y1="15" x2="21" y2="15" style="fill:none;stroke:#000;stroke-linecap:round;stroke-linejoin:round;stroke-width:6px"/><path d="M101.8,123a18.0529,18.0529,0,0,0,18-18" transform="translate(0.2)" style="fill:none;stroke:#000;stroke-linecap:round;stroke-linejoin:round;stroke-width:6px"/><path d="M119.8,105a18.0529,18.0529,0,0,0,18,18" transform="translate(0.2)" style="fill:none;stroke:#000;stroke-linecap:round;stroke-linejoin:round;stroke-width:6px"/><path d="M119.8,141a18.0529,18.0529,0,0,0-18-18" transform="translate(0.2)" style="fill:none;stroke:#000;stroke-linecap:round;stroke-linejoin:round;stroke-width:6px"/><path d="M137.8,123a18.0529,18.0529,0,0,0-18,18" transform="translate(0.2)" style="fill:none;stroke:#000;stroke-linecap:round;stroke-linejoin:round;stroke-width:6px"/><rect x="0.2" width="144" height="144" style="fill:none"/></svg>