<svg xmlns="http://www.w3.org/2000/svg" viewBox="0 0 144 144"><polygon points="93.1 141 63.1 141 51.1 105 105.1 105 93.1 141" style="fill:none;stroke:#000;stroke-linejoin:round;stroke-width:6px"/><path d="M90.3,57c-8.3,5.5-12.5,15.6,0,24,6.9,17.2,19.6,12.5,27.2,4.6,7.6-8,11.5-30.2,5.9-42.3C111.3,52.3,100.6,50.1,90.3,57Z" style="fill:none;stroke:#000;stroke-linecap:round;stroke-linejoin:round;stroke-width:6px"/><path d="M66.4,32.8C75.3,43.2,80,57,58.8,66.2c-9.7,21.6-24.4,13.6-34.2,2.1C14.7,56.7,11,25.8,19.6,9.5,35.6,22.9,55.3,19.7,66.4,32.8Z" style="fill:none;stroke:#000;stroke-linecap:round;stroke-linejoin:round;stroke-width:6px"/><path d="M107.4,67.3C86.8,77.6,76.5,105,76.5,105s-8.7-40.2-43-71.1" style="fill:none;stroke:#000;stroke-linecap:round;stroke-linejoin:round;stroke-width:6px"/><rect width="144" height="144" style="fill:none"/></svg>