<svg xmlns="http://www.w3.org/2000/svg" viewBox="0 0 144 144"><path d="M45,125.8c-3.8-3.9-9.1-5.8-15-5.8A20.9974,20.9974,0,0,0,9,141H135a20.9974,20.9974,0,0,0-21-21,20.5052,20.5052,0,0,0-15,5.9" style="fill:none;stroke:#000;stroke-linecap:round;stroke-linejoin:round;stroke-width:6px"/><path d="M42,132s6.4-21,30-21c23.2,0,30,21,30,21" style="fill:none;stroke:#000;stroke-linecap:round;stroke-linejoin:round;stroke-width:6px"/><path d="M90,66h10a36.1359,36.1359,0,0,0,34.2-24.6L138,30H128A36.1359,36.1359,0,0,0,93.8,54.6Z" style="fill:none;stroke:#000;stroke-linecap:round;stroke-linejoin:round;stroke-width:6px"/><path d="M81,112.2,75.2,33a3.2067,3.2067,0,0,0-6.4,0L63,112.1" style="fill:none;stroke:#000;stroke-linecap:round;stroke-linejoin:round;stroke-width:6px"/><line x1="90" y1="66" x2="114" y2="48" style="fill:none;stroke:#000;stroke-linecap:round;stroke-linejoin:round;stroke-width:6px"/><path d="M54,66H43.9A36.1359,36.1359,0,0,1,9.7,41.4L6,30H16A36.0414,36.0414,0,0,1,50.2,54.6Z" style="fill:none;stroke:#000;stroke-linecap:round;stroke-linejoin:round;stroke-width:6px"/><line x1="54" y1="66" x2="30" y2="48" style="fill:none;stroke:#000;stroke-linecap:round;stroke-linejoin:round;stroke-width:6px"/><rect width="144" height="144" style="fill:none"/></svg>