<svg xmlns="http://www.w3.org/2000/svg" viewBox="0 0 144 144.0199"><path d="M45,87.1c0,6-6,6-12,6s-12-3-12-12,6-12,12-12H45Z" style="fill:none;stroke:#000;stroke-linecap:round;stroke-linejoin:round;stroke-width:6px"/><polyline points="45 69 45 39 81 15 81 51" style="fill:none;stroke:#000;stroke-linecap:round;stroke-linejoin:round;stroke-width:6px"/><polyline points="69 111 3 111 3 3 111 3 111 75" style="fill:none;stroke:#000;stroke-linecap:round;stroke-linejoin:round;stroke-width:6px"/><path d="M81,69.1c0,6-6,6-12,6s-12-3-12-12,6-12,12-12H81Z" style="fill:none;stroke:#000;stroke-linecap:round;stroke-linejoin:round;stroke-width:6px"/><path d="M120,139.9A25.5267,25.5267,0,1,1,136.9,108" style="fill:none;stroke:#000;stroke-linecap:round;stroke-linejoin:round;stroke-width:6px"/><polyline points="141 93 136.9 108 123 105" style="fill:none;stroke:#000;stroke-linecap:round;stroke-linejoin:round;stroke-width:6px"/><rect width="144" height="144" style="fill:none"/></svg>