<svg xmlns="http://www.w3.org/2000/svg" viewBox="0 0 144 144"><polygon points="111 78 120 99 141 99 123 114 132 138 111 123 90 138 99 114 81 99 102 99 111 78" style="fill:none;stroke:#000;stroke-linejoin:round;stroke-width:6px"/><path d="M45,87.1c0,6-6,6-12,6s-12-3-12-12,6-12,12-12H45Z" style="fill:none;stroke:#000;stroke-linecap:round;stroke-linejoin:round;stroke-width:6px"/><polyline points="45 69 45 39 81 15 81 51" style="fill:none;stroke:#000;stroke-linecap:round;stroke-linejoin:round;stroke-width:6px"/><polyline points="69.1 111 3 111 3 3 111 3 111 66" style="fill:none;stroke:#000;stroke-linecap:round;stroke-linejoin:round;stroke-width:6px"/><path d="M81,69.1c0,6-6,6-12,6s-12-3-12-12,6-12,12-12H81Z" style="fill:none;stroke:#000;stroke-linecap:round;stroke-linejoin:round;stroke-width:6px"/><rect width="144" height="144" style="fill:none"/></svg>