<svg xmlns="http://www.w3.org/2000/svg" viewBox="0 0 144 144"><path d="M45,87.1c0,6-6,6-12,6s-12-3-12-12,6-12,12-12H45Z" style="fill:none;stroke:#000;stroke-linecap:round;stroke-linejoin:round;stroke-width:6px"/><polyline points="45 69 45 39 81 15 81 51" style="fill:none;stroke:#000;stroke-linecap:round;stroke-linejoin:round;stroke-width:6px"/><polyline points="39 111 3 111 3 3 111 3 111 69" style="fill:none;stroke:#000;stroke-linecap:round;stroke-linejoin:round;stroke-width:6px"/><path d="M81,69.1c0,6-6,6-12,6s-12-3-12-12,6-12,12-12H81Z" style="fill:none;stroke:#000;stroke-linecap:round;stroke-linejoin:round;stroke-width:6px"/><polyline points="51 108 96 81 141 108" style="fill:none;stroke:#000;stroke-linecap:round;stroke-linejoin:round;stroke-width:6px"/><polyline points="69 97.2 69 141 123 141 123 97.2" style="fill:none;stroke:#000;stroke-linecap:round;stroke-linejoin:round;stroke-width:6px"/><polyline points="87 141 87 117 105 117 105 141" style="fill:none;stroke:#000;stroke-linecap:round;stroke-linejoin:round;stroke-width:6px"/><rect width="144" height="144" style="fill:none"/></svg>