<svg xmlns="http://www.w3.org/2000/svg" viewBox="0 0 144 144"><path d="M45,87.1c0,6-6,6-12,6s-12-3-12-12,6-12,12-12H45Z" style="fill:none;stroke:#000;stroke-linecap:round;stroke-linejoin:round;stroke-width:6px"/><polyline points="45 69 45 39 81 15 81 51" style="fill:none;stroke:#000;stroke-linecap:round;stroke-linejoin:round;stroke-width:6px"/><polyline points="69.1 111 3 111 3 3 111 3 111 72" style="fill:none;stroke:#000;stroke-linecap:round;stroke-linejoin:round;stroke-width:6px"/><path d="M81,69.1c0,6-6,6-12,6s-12-3-12-12,6-12,12-12H81Z" style="fill:none;stroke:#000;stroke-linecap:round;stroke-linejoin:round;stroke-width:6px"/><path d="M99,129a18.0529,18.0529,0,0,1-18-18h0A18.0529,18.0529,0,0,1,99,93h12" style="fill:none;stroke:#000;stroke-linecap:round;stroke-linejoin:round;stroke-width:6px"/><path d="M123,93a18.0529,18.0529,0,0,1,18,18h0a18.0529,18.0529,0,0,1-18,18H111" style="fill:none;stroke:#000;stroke-linecap:round;stroke-linejoin:round;stroke-width:6px"/><polyline points="102 84 111 93 102 102" style="fill:none;stroke:#000;stroke-linecap:round;stroke-linejoin:round;stroke-width:6px"/><polyline points="120 120 111 129 120 138" style="fill:none;stroke:#000;stroke-linecap:round;stroke-linejoin:round;stroke-width:6px"/><rect width="144" height="144" style="fill:none"/></svg>