<svg xmlns="http://www.w3.org/2000/svg" viewBox="0 0 144 144"><path d="M63,105c0,6-6,6-12,6s-12-3-12-12,6-12,12-12H63Z" style="fill:none;stroke:#000;stroke-linecap:round;stroke-linejoin:round;stroke-width:6px"/><polyline points="63 87 63 57 99 33 99 75" style="fill:none;stroke:#000;stroke-linecap:round;stroke-linejoin:round;stroke-width:6px"/><rect x="15" y="15" width="114" height="114" style="fill:none;stroke:#000;stroke-linecap:round;stroke-linejoin:round;stroke-width:6px"/><path d="M99,93c0,6-9,6-15,6S72,96,72,87s6-12,12-12H99Z" style="fill:none;stroke:#000;stroke-linecap:round;stroke-linejoin:round;stroke-width:6px"/><polyline points="15 117 3 117 3 27 15 27" style="fill:none;stroke:#000;stroke-linecap:round;stroke-linejoin:round;stroke-width:6px"/><polyline points="129 27 141 27 141 117 129 117" style="fill:none;stroke:#000;stroke-linecap:round;stroke-linejoin:round;stroke-width:6px"/><rect width="144" height="144" style="fill:none"/></svg>