<svg xmlns="http://www.w3.org/2000/svg" viewBox="0 0 144 144"><path d="M114,141c10-7.3,27-22.7,27-34.2,0-9.3-6.8-14.9-13.4-14.9-7.3,0-10,5-13.6,11-3.6-6-6.3-11-13.6-11-6.6,0-13.4,5.6-13.4,14.9,0,11.5,17,26.9,27,34.2Z" style="fill:none;stroke:#000;stroke-linecap:round;stroke-linejoin:round;stroke-width:6px"/><path d="M45,87.1c0,6-6,6-12,6s-12-3-12-12,6-12,12-12H45Z" style="fill:none;stroke:#000;stroke-linecap:round;stroke-linejoin:round;stroke-width:6px"/><polyline points="45 69 45 39 81 15 81 51" style="fill:none;stroke:#000;stroke-linecap:round;stroke-linejoin:round;stroke-width:6px"/><polyline points="72 111 3 111 3 3 111 3 111 78" style="fill:none;stroke:#000;stroke-linecap:round;stroke-linejoin:round;stroke-width:6px"/><path d="M81,69.1c0,6-6,6-12,6s-12-3-12-12,6-12,12-12H81Z" style="fill:none;stroke:#000;stroke-linecap:round;stroke-linejoin:round;stroke-width:6px"/><rect width="144" height="144" style="fill:none"/></svg>