<svg xmlns="http://www.w3.org/2000/svg" viewBox="0 0 144 144"><path d="M135.2,58.2,111.9,81.5C99,94.3,77.1,93.4,63.1,79.4s-15-36-2.1-48.8S84.3,7.2,84.3,7.2" style="fill:none;stroke:#000;stroke-linecap:round;stroke-linejoin:round;stroke-width:6px"/><line x1="84.3" y1="7.2" x2="135.2" y2="58.2" style="fill:none;stroke:#000;stroke-linecap:round;stroke-linejoin:round;stroke-width:6px"/><line x1="97" y1="20" x2="114" y2="3" style="fill:none;stroke:#000;stroke-linecap:round;stroke-linejoin:round;stroke-width:6px"/><line x1="122.5" y1="45.4" x2="139.5" y2="28.5" style="fill:none;stroke:#000;stroke-linecap:round;stroke-linejoin:round;stroke-width:6px"/><line x1="84.3" y1="24.2" x2="118.2" y2="58.2" style="fill:none;stroke:#000;stroke-linecap:round;stroke-linejoin:round;stroke-width:6px"/><circle cx="82.2" cy="60.3" r="9" style="fill:none;stroke:#000;stroke-linecap:round;stroke-linejoin:round;stroke-width:6px"/><polyline points="70.2 85 56.7 98.5 44 85.7 57.5 72.3" style="fill:none;stroke:#000;stroke-linecap:round;stroke-linejoin:round;stroke-width:6px"/><path d="M50.4,92.1,22.8,119.7a12.0208,12.0208,0,0,0,17,17l19.1-19.1a8.98,8.98,0,1,1,12.7,12.7L61.5,140.4" style="fill:none;stroke:#000;stroke-linecap:round;stroke-linejoin:round;stroke-width:6px"/><rect width="144" height="144" style="fill:none"/></svg>