<svg xmlns="http://www.w3.org/2000/svg" viewBox="0 0 144 144"><path d="M27,87.3l18,18v18H93v-18l18-18v-24a12.0353,12.0353,0,0,0-12-12H39a12.0353,12.0353,0,0,0-12,12Z" style="fill:none;stroke:#000;stroke-linejoin:round;stroke-width:6px"/><path d="M93,15.3a6.0176,6.0176,0,0,0-6-6H51a6.0176,6.0176,0,0,0-6,6v36H93Z" style="fill:none;stroke:#000;stroke-linejoin:round;stroke-width:6px"/><path d="M81,33.3a6.0176,6.0176,0,0,1-6,6H63a6.0176,6.0176,0,0,1-6-6v-6a6.0176,6.0176,0,0,1,6-6H75a6.0176,6.0176,0,0,1,6,6Z" style="fill:none;stroke:#000;stroke-linejoin:round;stroke-width:6px"/><line x1="69" y1="123.3" x2="69" y2="135" style="fill:none;stroke:#000;stroke-linecap:round;stroke-linejoin:round;stroke-width:6px"/><polygon points="54 81.3 84 81.3 69 63.3 54 81.3" style="fill:none;stroke:#000;stroke-linecap:round;stroke-linejoin:round;stroke-width:6px"/><rect width="144" height="144" style="fill:none"/></svg>