<svg xmlns="http://www.w3.org/2000/svg" viewBox="0 0 144 144"><line x1="75" y1="57" x2="75" y2="69" style="fill:none;stroke:#000;stroke-linejoin:round;stroke-width:6px"/><path d="M93,21a18,18,0,0,0-36,0V39a18,18,0,0,0,36,0Z" style="fill:none;stroke:#000;stroke-linejoin:round;stroke-width:6px"/><line x1="57" y1="39" x2="93" y2="39" style="fill:none;stroke:#000;stroke-linejoin:round;stroke-width:6px"/><polyline points="63 99 39 99 21 69 129 69 111 99 87 99" style="fill:none;stroke:#000;stroke-linejoin:round;stroke-width:6px"/><polyline points="63 141 63 87 87 87 87 141" style="fill:none;stroke:#000;stroke-linecap:round;stroke-linejoin:round;stroke-width:6px"/><line x1="69" y1="27" x2="81" y2="27" style="fill:none;stroke:#000;stroke-linecap:round;stroke-linejoin:round;stroke-width:6px"/><line x1="69" y1="15" x2="81" y2="15" style="fill:none;stroke:#000;stroke-linecap:round;stroke-linejoin:round;stroke-width:6px"/><path d="M36.4,27a8.17,8.17,0,0,0,0-12,8.17,8.17,0,0,0-12,0l-9,9,12,12Z" style="fill:none;stroke:#000;stroke-linecap:round;stroke-linejoin:round;stroke-width:6px"/><path d="M21.4,30c-5.9,5.9-5.9,18.1,0,24l15,15" style="fill:none;stroke:#000;stroke-linecap:round;stroke-linejoin:round;stroke-width:6px"/><path d="M113.6,27a8.17,8.17,0,0,1,0-12,8.17,8.17,0,0,1,12,0l9,9-12,12Z" style="fill:none;stroke:#000;stroke-linecap:round;stroke-linejoin:round;stroke-width:6px"/><path d="M128.6,30c5.9,5.9,5.9,18.1,0,24l-15,15" style="fill:none;stroke:#000;stroke-linecap:round;stroke-linejoin:round;stroke-width:6px"/><rect width="144" height="144" style="fill:none"/></svg>