<svg xmlns="http://www.w3.org/2000/svg" viewBox="0 0 144 144"><path d="M96,35.4l-9.6-9.6L72,33,57.6,25.8,48,35.4s7.2,2.4,7.2,9.6-4.8,9.6-4.8,14.4S64.8,73.8,72,73.8s21.6-9.6,21.6-14.4S88.8,52.2,88.8,45,96,35.4,96,35.4Z" style="fill:none;stroke:#000;stroke-linejoin:round;stroke-width:6px"/><path d="M129,99a6.0176,6.0176,0,0,1-6,6H21a6.0176,6.0176,0,0,1-6-6V93a6.0176,6.0176,0,0,1,6-6H123a6.0176,6.0176,0,0,1,6,6Z" style="fill:none;stroke:#000;stroke-linejoin:round;stroke-width:6px"/><path d="M18,105s18.6,30,53.9,30,54.3-30,54.3-30Z" style="fill:none;stroke:#000;stroke-linejoin:round;stroke-width:6px"/><path d="M129,87c0,.3,11.9-14.9,11.9-29.9S96.4,6,72,6,3.2,43.3,3.2,57.2,15,87,15,87Z" style="fill:none;stroke:#000;stroke-linejoin:round;stroke-width:6px"/><line x1="55.2" y1="45" x2="88.8" y2="45" style="fill:none;stroke:#000;stroke-linecap:round;stroke-linejoin:round;stroke-width:6px"/><path d="M96,35.4l-9.6-9.6L72,33,57.6,25.8,48,35.4s7.2,2.4,7.2,9.6-4.8,9.6-4.8,14.4S64.8,73.8,72,73.8s21.6-9.6,21.6-14.4S88.8,52.2,88.8,45,96,35.4,96,35.4Z" style="fill:none;stroke:#000;stroke-linejoin:round;stroke-width:6px"/><path d="M129,99a6.0176,6.0176,0,0,1-6,6H21a6.0176,6.0176,0,0,1-6-6V93a6.0176,6.0176,0,0,1,6-6H123a6.0176,6.0176,0,0,1,6,6Z" style="fill:none;stroke:#000;stroke-linejoin:round;stroke-width:6px"/><path d="M18,105s18.6,30,53.9,30,54.3-30,54.3-30Z" style="fill:none;stroke:#000;stroke-linejoin:round;stroke-width:6px"/><path d="M129,87c0,.3,11.9-14.9,11.9-29.9S96.4,6,72,6,3.2,43.3,3.2,57.2,15,87,15,87Z" style="fill:none;stroke:#000;stroke-linejoin:round;stroke-width:6px"/><line x1="55.2" y1="45" x2="88.8" y2="45" style="fill:none;stroke:#000;stroke-linecap:round;stroke-linejoin:round;stroke-width:6px"/><rect width="144" height="144" style="fill:none"/></svg>