<svg xmlns="http://www.w3.org/2000/svg" viewBox="0 0 144 144"><polygon points="117 141 27 141 21 45 123 45 117 141" style="fill:none;stroke:#000;stroke-linejoin:round;stroke-width:6px"/><line x1="23" y1="75" x2="121" y2="75" style="fill:none;stroke:#000;stroke-linejoin:round;stroke-width:6px"/><line x1="24.5" y1="99" x2="119.6" y2="99" style="fill:none;stroke:#000;stroke-linejoin:round;stroke-width:6px"/><line x1="45" y1="45" x2="45" y2="75" style="fill:none;stroke:#000;stroke-linejoin:round;stroke-width:6px"/><line x1="63" y1="45" x2="63" y2="75" style="fill:none;stroke:#000;stroke-linejoin:round;stroke-width:6px"/><line x1="81" y1="45" x2="81" y2="75" style="fill:none;stroke:#000;stroke-linejoin:round;stroke-width:6px"/><line x1="99" y1="45" x2="99" y2="75" style="fill:none;stroke:#000;stroke-linejoin:round;stroke-width:6px"/><line x1="45" y1="99" x2="45" y2="141" style="fill:none;stroke:#000;stroke-linejoin:round;stroke-width:6px"/><line x1="63" y1="99" x2="63" y2="141" style="fill:none;stroke:#000;stroke-linejoin:round;stroke-width:6px"/><line x1="81" y1="99" x2="81" y2="141" style="fill:none;stroke:#000;stroke-linejoin:round;stroke-width:6px"/><line x1="99" y1="99" x2="99" y2="141" style="fill:none;stroke:#000;stroke-linejoin:round;stroke-width:6px"/><path d="M123,33c0-21-20.4-22.2-27.6-11.2-5.5-25-41.4-25.1-46.9,0C41.4,10.8,21,12.1,21,33" style="fill:none;stroke:#000;stroke-linecap:round;stroke-linejoin:round;stroke-width:6px"/><rect width="144" height="144" style="fill:none"/></svg>