<svg xmlns="http://www.w3.org/2000/svg" viewBox="0 0 144 144"><path d="M99,33H39V27A12.0353,12.0353,0,0,1,51,15H87A12.0353,12.0353,0,0,1,99,27Z" style="fill:none;stroke:#000;stroke-linejoin:round;stroke-width:6px"/><line x1="69" y1="15" x2="69" style="fill:none;stroke:#000;stroke-linejoin:round;stroke-width:6px"/><path d="M39,33V48L53.6,63.2,39,78v51a12.0353,12.0353,0,0,0,12,12H87a12.0353,12.0353,0,0,0,12-12V78L84,63.4,99,48V33Z" style="fill:none;stroke:#000;stroke-linejoin:round;stroke-width:6px"/><polyline points="72 81 60 99 78 99 66 120" style="fill:none;stroke:#000;stroke-linecap:round;stroke-linejoin:round;stroke-width:6px"/><rect width="144" height="144" style="fill:none"/></svg>