<svg xmlns="http://www.w3.org/2000/svg" viewBox="0 0 144 144"><path d="M89.4,78.7l6-10.4-6-3.5a19.9021,19.9021,0,0,0,0-9.7l6-3.5-6-10.4-6,3.5A21.7468,21.7468,0,0,0,75,40V33H63v7a21.9532,21.9532,0,0,0-8.4,4.8l-6-3.5-6,10.4,6,3.5a19.9021,19.9021,0,0,0,0,9.7l-6,3.5,6,10.4,6-3.5A21.9532,21.9532,0,0,0,63,80.1v7H75v-7a21.9532,21.9532,0,0,0,8.4-4.8Z" style="fill:none;stroke:#000;stroke-linejoin:round;stroke-width:6px"/><circle cx="69" cy="60" r="9" style="fill:none;stroke:#000;stroke-linejoin:round;stroke-width:6px"/><rect x="3" y="3" width="132" height="18" style="fill:none;stroke:#000;stroke-linejoin:round;stroke-width:6px"/><line x1="3.1" y1="105" x2="134.9" y2="105" style="fill:none;stroke:#000;stroke-linecap:round;stroke-linejoin:round;stroke-width:6px"/><rect x="15" y="21" width="108" height="84" style="fill:none;stroke:#000;stroke-linejoin:round;stroke-width:6px"/><line x1="69" y1="105" x2="69" y2="123" style="fill:none;stroke:#000;stroke-linejoin:round;stroke-width:6px"/><circle cx="69" cy="132" r="9" style="fill:none;stroke:#000;stroke-linejoin:round;stroke-width:6px"/><rect width="144" height="144" style="fill:none"/></svg>