<svg xmlns="http://www.w3.org/2000/svg" viewBox="0 0 144 144"><path d="M72,126.7c-17.7,0-34.4-5.4-46.8-15.2C10.7,100,3,83.8,3,64.5A46.5087,46.5087,0,0,1,72,23.8a46.5087,46.5087,0,0,1,69,40.7C141,105.3,106.3,126.7,72,126.7ZM88.4,89.2a89.3475,89.3475,0,0,0,14.8,9.1c13.5-6.8,19.9-15.1,19.9-33.8A28.7021,28.7021,0,0,0,94.5,36,30.8339,30.8339,0,0,0,87,37a45.9792,45.9792,0,0,1,9,27.5C96,74.1,95.6,80,88.4,89.2ZM49.5,36A28.5515,28.5515,0,0,0,21,64.5c0,18.6,6.2,27,19.6,33.8a80.0144,80.0144,0,0,0,14.7-9.1c-7.1-9.1-7.3-15-7.3-24.7A46.6547,46.6547,0,0,1,57,37,30.8339,30.8339,0,0,0,49.5,36ZM72,47.1a28.0773,28.0773,0,0,0-6,17.5c0,4.5,1.9,10,5.9,15.8,4-5.6,6.1-11.2,6.1-15.8A28.0773,28.0773,0,0,0,72,47.1Z" style="fill:none;stroke:#000;stroke-linejoin:round;stroke-width:6px"/><path d="M72.2,97.4s-11.6,7.6-18,11.1a61.5072,61.5072,0,0,0,35.8.1C83.9,104.8,72.2,97.4,72.2,97.4Z" style="fill:none;stroke:#000;stroke-linejoin:round;stroke-width:6px"/><rect width="144" height="144" style="fill:none"/></svg>