<svg xmlns="http://www.w3.org/2000/svg" viewBox="0 0 144 144"><path d="M33,99H15A12.0353,12.0353,0,0,1,3,87V51A12.0353,12.0353,0,0,1,15,39H129a12.0353,12.0353,0,0,1,12,12V87a12.0353,12.0353,0,0,1-12,12H111" style="fill:none;stroke:#000;stroke-linecap:round;stroke-linejoin:round;stroke-width:6px"/><polyline points="33 27 33 3 93 3 111 21 111 27" style="fill:none;stroke:#000;stroke-linecap:round;stroke-linejoin:round;stroke-width:6px"/><rect x="33" y="81" width="78" height="60" style="fill:none;stroke:#000;stroke-linecap:round;stroke-linejoin:round;stroke-width:6px"/><circle cx="21" cy="57" r="6" style="fill:none;stroke:#000;stroke-linecap:round;stroke-linejoin:round;stroke-width:6px"/><polyline points="93 3 93 21 111 21" style="fill:none;stroke:#000;stroke-linecap:round;stroke-linejoin:round;stroke-width:6px"/><polygon points="98.7 129 85.9 97.8 72 118.5 57.4 106.5 45.8 129 98.7 129" style="fill:none;stroke:#000;stroke-linejoin:round;stroke-width:6px"/><circle cx="52.1" cy="94.7" r="3" style="fill:none;stroke:#000;stroke-linejoin:round;stroke-width:6px"/><rect width="144" height="144" style="fill:none"/></svg>