<svg xmlns="http://www.w3.org/2000/svg" viewBox="0 0 144 144"><path d="M55.4,86.1,18.6,97A23.8758,23.8758,0,0,0,3,119.4V141" style="fill:none;stroke:#000;stroke-linecap:round;stroke-linejoin:round;stroke-width:6px"/><path d="M88.6,86.1,125.4,97A24.0067,24.0067,0,0,1,141,119.5V141" style="fill:none;stroke:#000;stroke-linecap:round;stroke-linejoin:round;stroke-width:6px"/><path d="M102,21s-9,6-30,6-30-6-30-6" style="fill:none;stroke:#000;stroke-linejoin:round;stroke-width:6px"/><path d="M102,36s-9,6-30,6-30-6-30-6" style="fill:none;stroke:#000;stroke-linejoin:round;stroke-width:6px"/><path d="M57,87V81A12.0353,12.0353,0,0,1,69,69h6A12.0353,12.0353,0,0,1,87,81v6" style="fill:none;stroke:#000;stroke-linejoin:round;stroke-width:6px"/><line x1="72" y1="93" x2="72" y2="81" style="fill:none;stroke:#000;stroke-linejoin:round;stroke-width:6px"/><line x1="4.8" y1="111" x2="138.9" y2="111" style="fill:none;stroke:#000;stroke-linejoin:round;stroke-width:6px"/><line x1="3.1" y1="123" x2="141" y2="123" style="fill:none;stroke:#000;stroke-linejoin:round;stroke-width:6px"/><line x1="3" y1="135" x2="141" y2="135" style="fill:none;stroke:#000;stroke-linejoin:round;stroke-width:6px"/><path d="M60,51a3,3,0,1,0,3,3,2.9465,2.9465,0,0,0-3-3Z" style="fill:#000"/><path d="M84,51a3,3,0,1,0,3,3,2.9465,2.9465,0,0,0-3-3Z" style="fill:#000"/><path d="M72,93c-9,0-30-12-30-30-9,0-9-18,0-18V15C42,8.4,55.4,3,72,3s30,5.4,30,12V45c9,0,9,18,0,18,0,18-21,30-30,30" style="fill:none;stroke:#000;stroke-linecap:round;stroke-linejoin:round;stroke-width:6px"/><rect width="144" height="144" style="fill:none"/></svg>