<svg xmlns="http://www.w3.org/2000/svg" viewBox="0 0 144 144"><polyline points="51.4 42.3 46.5 73.5 41.5 57.9 36.6 73.5 31.6 42.3" style="fill:none;stroke:#000;stroke-linecap:round;stroke-linejoin:round;stroke-width:6px"/><polyline points="81.9 42.3 77 73.5 72 57.9 67.1 73.5 62.1 42.3" style="fill:none;stroke:#000;stroke-linecap:round;stroke-linejoin:round;stroke-width:6px"/><polyline points="112.4 42.3 107.4 73.5 102.5 57.9 97.5 73.5 92.6 42.3" style="fill:none;stroke:#000;stroke-linecap:round;stroke-linejoin:round;stroke-width:6px"/><path d="M141,113.5a9.2077,9.2077,0,0,1-9,9.5H12a9.2706,9.2706,0,0,1-9-9.5v-89A9.2077,9.2077,0,0,1,12,15H132a9.2706,9.2706,0,0,1,9,9.5Z" style="fill:none;stroke:#000;stroke-linecap:round;stroke-linejoin:round;stroke-width:6px"/><line x1="30" y1="135" x2="114" y2="135" style="fill:none;stroke:#000;stroke-linecap:round;stroke-linejoin:round;stroke-width:6px"/><line x1="69" y1="123" x2="69" y2="135" style="fill:none;stroke:#000;stroke-linecap:round;stroke-linejoin:round;stroke-width:6px"/><circle cx="72" cy="111" r="3" style="fill:none;stroke:#000;stroke-linejoin:round;stroke-width:6px"/><line x1="3" y1="99" x2="141" y2="99" style="fill:none;stroke:#000;stroke-linejoin:round;stroke-width:6px"/><rect width="144" height="144" style="fill:none"/></svg>