<svg xmlns="http://www.w3.org/2000/svg" viewBox="0 0 144.0096 144"><polyline points="51.005 51 51.005 30 48.505 32.4" style="fill:none;stroke:#000;stroke-linecap:round;stroke-linejoin:round;stroke-width:6px"/><polyline points="27.005 84 27.005 63 24.505 65.4" style="fill:none;stroke:#000;stroke-linecap:round;stroke-linejoin:round;stroke-width:6px"/><polyline points="111.005 51 111.005 30 108.505 32.4" style="fill:none;stroke:#000;stroke-linecap:round;stroke-linejoin:round;stroke-width:6px"/><polyline points="111.005 84 111.005 63 108.505 65.4" style="fill:none;stroke:#000;stroke-linecap:round;stroke-linejoin:round;stroke-width:6px"/><polyline points="93.005 51 93.005 30 90.505 32.4" style="fill:none;stroke:#000;stroke-linecap:round;stroke-linejoin:round;stroke-width:6px"/><polyline points="69.005 84 69.005 63 66.505 65.4" style="fill:none;stroke:#000;stroke-linecap:round;stroke-linejoin:round;stroke-width:6px"/><path d="M34.4,40.5c0,5.9-.8,10.7-5.5,10.7s-5.5-4.8-5.5-10.7.8-10.7,5.5-10.7S34.4,34.6,34.4,40.5Z" transform="translate(0.0048)" style="fill:none;stroke:#000;stroke-linecap:round;stroke-linejoin:round;stroke-width:6px"/><path d="M76.1,40.5c0,5.9-.8,10.7-5.5,10.7s-5.5-4.8-5.5-10.7.8-10.7,5.5-10.7S76.1,34.6,76.1,40.5Z" transform="translate(0.0048)" style="fill:none;stroke:#000;stroke-linecap:round;stroke-linejoin:round;stroke-width:6px"/><path d="M93.8,73.5c0,5.9-.8,10.7-5.5,10.7s-5.5-4.8-5.5-10.7.8-10.7,5.5-10.7S93.8,67.6,93.8,73.5Z" transform="translate(0.0048)" style="fill:none;stroke:#000;stroke-linecap:round;stroke-linejoin:round;stroke-width:6px"/><path d="M52.1,73.5c0,5.9-.8,10.7-5.5,10.7s-5.5-4.8-5.5-10.7.8-10.7,5.5-10.7S52.1,67.6,52.1,73.5Z" transform="translate(0.0048)" style="fill:none;stroke:#000;stroke-linecap:round;stroke-linejoin:round;stroke-width:6px"/><path d="M141,113.5a9.2076,9.2076,0,0,1-8.9084,9.4975L132,123H12a9.2706,9.2706,0,0,1-9-9.5v-89a9.2076,9.2076,0,0,1,8.9085-9.4975L12,15H132a9.2706,9.2706,0,0,1,9,9.5Z" transform="translate(0.0048)" style="fill:none;stroke:#000;stroke-linecap:round;stroke-linejoin:round;stroke-width:6px"/><line x1="30.0048" y1="135" x2="114.0048" y2="135" style="fill:none;stroke:#000;stroke-linecap:round;stroke-linejoin:round;stroke-width:6px"/><line x1="69.0048" y1="123" x2="69.0048" y2="135" style="fill:none;stroke:#000;stroke-linecap:round;stroke-linejoin:round;stroke-width:6px"/><circle cx="72.0048" cy="111" r="3" style="fill:none;stroke:#000;stroke-linejoin:round;stroke-width:6px"/><line x1="3.0048" y1="99" x2="141.0048" y2="99" style="fill:none;stroke:#000;stroke-linejoin:round;stroke-width:6px"/><rect x="0.0048" width="144" height="144" style="fill:none"/></svg>