<svg xmlns="http://www.w3.org/2000/svg" viewBox="0 0 144 144"><path d="M141,113.5a9.2077,9.2077,0,0,1-9,9.5H12a9.2706,9.2706,0,0,1-9-9.5v-89A9.2077,9.2077,0,0,1,12,15H132a9.2706,9.2706,0,0,1,9,9.5Z" style="fill:none;stroke:#000;stroke-linecap:round;stroke-linejoin:round;stroke-width:6px"/><line x1="30" y1="135" x2="114" y2="135" style="fill:none;stroke:#000;stroke-linecap:round;stroke-linejoin:round;stroke-width:6px"/><line x1="69" y1="123" x2="69" y2="135" style="fill:none;stroke:#000;stroke-linecap:round;stroke-linejoin:round;stroke-width:6px"/><circle cx="72" cy="111" r="3" style="fill:none;stroke:#000;stroke-linejoin:round;stroke-width:6px"/><line x1="3" y1="99" x2="141" y2="99" style="fill:none;stroke:#000;stroke-linejoin:round;stroke-width:6px"/><path d="M53,48.9c-1-4.5-3.1-7.5-7.8-7.5-7.2,0-8.5,7.1-8.5,15.9S38,73.2,45.2,73.2c4.6,0,6.8-3,7.8-7.4" style="fill:none;stroke:#000;stroke-linecap:round;stroke-linejoin:round;stroke-width:6px"/><path d="M65.6,65.8a7.4082,7.4082,0,1,0,14.8-.5c0-6.5-6.1-7.6-7.4-8s-7.4-1.5-7.4-7.9c0-4.4,3.3-8,7.4-8a7.5815,7.5815,0,0,1,7.4,7.4" style="fill:none;stroke:#000;stroke-linecap:round;stroke-linejoin:round;stroke-width:6px"/><path d="M92.4,65.8a7.4082,7.4082,0,1,0,14.8-.5c0-6.5-6.1-7.6-7.4-8s-7.4-1.5-7.4-7.9c0-4.4,3.3-8,7.4-8a7.5815,7.5815,0,0,1,7.4,7.4" style="fill:none;stroke:#000;stroke-linecap:round;stroke-linejoin:round;stroke-width:6px"/><rect width="144" height="144" style="fill:none"/></svg>