<svg xmlns="http://www.w3.org/2000/svg" viewBox="0 0 144 144"><path d="M129,117a23.9424,23.9424,0,0,1-24,24H33A23.9424,23.9424,0,0,1,9,117V57A23.9424,23.9424,0,0,1,33,33h72a23.9424,23.9424,0,0,1,24,24Z" style="fill:none;stroke:#000;stroke-linejoin:round;stroke-width:6px"/><path d="M105,9a6.0176,6.0176,0,0,0-6-6H39a6.0176,6.0176,0,0,0-6,6V33h72Z" style="fill:none;stroke:#000;stroke-linejoin:round;stroke-width:6px"/><line x1="45" y1="33" x2="45" y2="3" style="fill:none;stroke:#000;stroke-linejoin:round;stroke-width:6px"/><line x1="57" y1="33" x2="57" y2="3" style="fill:none;stroke:#000;stroke-linejoin:round;stroke-width:6px"/><line x1="69" y1="33" x2="69" y2="3" style="fill:none;stroke:#000;stroke-linejoin:round;stroke-width:6px"/><line x1="81" y1="33" x2="81" y2="3" style="fill:none;stroke:#000;stroke-linejoin:round;stroke-width:6px"/><line x1="93" y1="33" x2="93" y2="3" style="fill:none;stroke:#000;stroke-linejoin:round;stroke-width:6px"/><line x1="9" y1="57" x2="129" y2="57" style="fill:none;stroke:#000;stroke-linejoin:round;stroke-width:6px"/><line x1="9" y1="117" x2="129" y2="117" style="fill:none;stroke:#000;stroke-linejoin:round;stroke-width:6px"/><line x1="57" y1="87" x2="81" y2="87" style="fill:none;stroke:#000;stroke-linecap:round;stroke-linejoin:round;stroke-width:6px"/><rect x="33" y="75" width="12" height="24" style="fill:none;stroke:#000;stroke-linecap:round;stroke-linejoin:round;stroke-width:6px"/><rect x="93" y="75" width="12" height="24" style="fill:none;stroke:#000;stroke-linecap:round;stroke-linejoin:round;stroke-width:6px"/><rect x="45" y="69" width="12" height="36" style="fill:none;stroke:#000;stroke-linecap:round;stroke-linejoin:round;stroke-width:6px"/><rect x="81" y="69" width="12" height="36" style="fill:none;stroke:#000;stroke-linecap:round;stroke-linejoin:round;stroke-width:6px"/><rect width="144" height="144" style="fill:none"/></svg>