<svg xmlns="http://www.w3.org/2000/svg" viewBox="0 0 144 144.1"><path d="M69,2.9h-.1C56.6,18.2,34.9,24.1,9,6V94.9s8.7,31.6,60,46c51.3-14.4,60-46,60-46V6C103.3,24,81.4,18.2,69,2.9Z" transform="translate(0 0.1)" style="fill:none;stroke:#000;stroke-linecap:round;stroke-linejoin:round;stroke-width:6px"/><circle cx="69" cy="72.1" r="12" style="fill:none;stroke:#000;stroke-linejoin:round;stroke-width:6px"/><path d="M98.2,65.5l9-5.2-9-15.6-9.1,5.2a29.7731,29.7731,0,0,0-11.2-6.4V33H60V43.5a29.7731,29.7731,0,0,0-11.2,6.4l-9.1-5.2-9,15.6,9,5.2a28.5417,28.5417,0,0,0,0,13l-9,5.2,9,15.6,9.1-5.2A29.7731,29.7731,0,0,0,60,100.5V111H78V100.5a29.7731,29.7731,0,0,0,11.2-6.4l9.1,5.2,9-15.6-9-5.2A28.5441,28.5441,0,0,0,98.2,65.5Z" transform="translate(0 0.1)" style="fill:none;stroke:#000;stroke-linejoin:round;stroke-width:6px"/><rect y="0.1" width="144" height="144" style="fill:none"/></svg>