<svg xmlns="http://www.w3.org/2000/svg" viewBox="0 0 144 144"><path d="M89.4,87.7l6-10.4-6-3.5a19.9021,19.9021,0,0,0,0-9.7l6-3.5-6-10.4-6,3.5A21.7468,21.7468,0,0,0,75,49V42H63v7a21.9532,21.9532,0,0,0-8.4,4.8l-6-3.5-6,10.4,6,3.5a19.9021,19.9021,0,0,0,0,9.7l-6,3.5,6,10.4,6-3.5A21.9532,21.9532,0,0,0,63,89.1v7H75v-7a21.9532,21.9532,0,0,0,8.4-4.8Z" style="fill:none;stroke:#000;stroke-linejoin:round;stroke-width:6px"/><circle cx="69" cy="69" r="9" style="fill:none;stroke:#000;stroke-linejoin:round;stroke-width:6px"/><path d="M69,3h-.1C54,18,9,30.1,9,30.1,9,77.9,12,119.9,69,141c57-21.1,60-63.1,60-110.9C129,30.1,84,18,69,3Z" style="fill:none;stroke:#000;stroke-linecap:round;stroke-linejoin:round;stroke-width:6px"/><rect width="144" height="144" style="fill:none"/></svg>