<svg xmlns="http://www.w3.org/2000/svg" viewBox="0 0 144 144"><path d="M37.71,38.71a34.86,34.86,0,0,1,69.71,0A34.1,34.1,0,0,1,73.512,73.001Q73.2561,73.0024,73,73v35" style="fill:none;stroke:#000;stroke-linecap:round;stroke-linejoin:round;stroke-width:6px"/><path d="M75.9,137.24a2.85,2.85,0,0,1-2.7991,2.9c-.0336.0006-.0673.0006-.1009,0h0a2.85,2.85,0,0,1-2.9-2.7991c-.0006-.0336-.0006-.0673,0-.1009h0a2.91,2.91,0,0,1,2.9086-2.9114c.0305,0,.0609.0005.0914.0014H73a2.85,2.85,0,0,1,2.9,2.7989C75.9008,137.1659,75.9008,137.203,75.9,137.24Z" style="fill:none;stroke:#000;stroke-linejoin:round;stroke-width:6px"/><rect width="144" height="144" style="fill:none"/></svg>