<svg xmlns="http://www.w3.org/2000/svg" viewBox="0 0 144 144"><path d="M51.1,111V99h6V87h-30V99h6v12c-18.3,2.4-28.6,11.4-30,30H81.5C80.1,122.4,69.4,113.4,51.1,111Z" style="fill:none;stroke:#000;stroke-linejoin:round;stroke-width:6px"/><line x1="137.4" y1="4.8" x2="64.7" y2="77.5" style="fill:none;stroke:#000;stroke-linecap:round;stroke-linejoin:round;stroke-width:6px"/><path d="M74.3,67.8c-7.1-7.1.3-28.7,17.9-46.2,9-9,18.9-15.6,24.9-18.6V25.2" style="fill:none;stroke:#000;stroke-linecap:round;stroke-linejoin:round;stroke-width:6px"/><line x1="97.3" y1="45" x2="126.1" y2="45" style="fill:none;stroke:#000;stroke-linecap:round;stroke-linejoin:round;stroke-width:6px"/><path d="M85.3,57h31.8C100.3,72.3,80.4,74,74.3,67.9" style="fill:none;stroke:#000;stroke-linecap:round;stroke-linejoin:round;stroke-width:6px"/><path d="M137.5,4.7c5.5,5.5,4.2,16.3-2.7,28.3H109.2" style="fill:none;stroke:#000;stroke-linecap:round;stroke-linejoin:round;stroke-width:6px"/><rect width="144" height="144" style="fill:none"/></svg>