<svg xmlns="http://www.w3.org/2000/svg" viewBox="0 0 144 144"><path d="M135,69c0-13.3-4.7-24-24-24v72h24Z" style="fill:none;stroke:#000;stroke-linejoin:round;stroke-width:6px"/><polygon points="135 117 141 141 111 141 117 117 135 117" style="fill:none;stroke:#000;stroke-linejoin:round;stroke-width:6px"/><polygon points="81 117 87 141 57 141 63 117 81 117" style="fill:none;stroke:#000;stroke-linejoin:round;stroke-width:6px"/><path d="M9,69c0-13.3,6-24,24-24v72H9Z" style="fill:none;stroke:#000;stroke-linejoin:round;stroke-width:6px"/><polygon points="9 117 3 141 33 141 27 117 9 117" style="fill:none;stroke:#000;stroke-linejoin:round;stroke-width:6px"/><line x1="30" y1="45" x2="114" y2="45" style="fill:none;stroke:#000;stroke-linejoin:round;stroke-width:6px"/><line x1="42" y1="57" x2="102" y2="57" style="fill:none;stroke:#000;stroke-linejoin:round;stroke-width:6px"/><line x1="42" y1="69" x2="102" y2="69" style="fill:none;stroke:#000;stroke-linejoin:round;stroke-width:6px"/><rect x="57" y="81" width="18" height="24" style="fill:none;stroke:#000;stroke-linejoin:round;stroke-width:6px"/><path d="M33,42a39,39,0,0,1,78,0v75H33Z" style="fill:none;stroke:#000;stroke-linejoin:round;stroke-width:6px"/><line x1="93" y1="84" x2="93" y2="108" style="fill:none;stroke:#000;stroke-linejoin:round;stroke-width:6px"/><circle cx="72" cy="24" r="9" style="fill:none;stroke:#000;stroke-linejoin:round;stroke-width:6px"/><path d="M93,30a3,3,0,1,0,3,3,3.0085,3.0085,0,0,0-3-3Z" style="fill:#000"/><rect width="144" height="144" style="fill:none"/></svg>