<svg xmlns="http://www.w3.org/2000/svg" viewBox="0 0 144 144"><rect x="45" y="69" width="48" height="24" style="fill:none;stroke:#000;stroke-linecap:round;stroke-linejoin:round;stroke-width:6px"/><line x1="69" y1="69" x2="69" y2="51" style="fill:none;stroke:#000;stroke-linecap:round;stroke-linejoin:round;stroke-width:6px"/><rect x="39" y="9" width="60" height="42" style="fill:none;stroke:#000;stroke-linecap:round;stroke-linejoin:round;stroke-width:6px"/><line x1="57" y1="9" x2="57" y2="51" style="fill:none;stroke:#000;stroke-linecap:round;stroke-linejoin:round;stroke-width:6px"/><line x1="81" y1="9" x2="81" y2="51" style="fill:none;stroke:#000;stroke-linecap:round;stroke-linejoin:round;stroke-width:6px"/><path d="M114.1,13.6A46.7556,46.7556,0,0,1,117,30a48.2934,48.2934,0,0,1-2.9,16.6" style="fill:none;stroke:#000;stroke-linecap:round;stroke-linejoin:round;stroke-width:6px"/><path d="M126,3a63.3686,63.3686,0,0,1,.2,53.4" style="fill:none;stroke:#000;stroke-linecap:round;stroke-linejoin:round;stroke-width:6px"/><path d="M23.9,13.6A47.1669,47.1669,0,0,0,21,30a48.2934,48.2934,0,0,0,2.9,16.6" style="fill:none;stroke:#000;stroke-linecap:round;stroke-linejoin:round;stroke-width:6px"/><path d="M12.1,3a63.3686,63.3686,0,0,0-.2,53.4" style="fill:none;stroke:#000;stroke-linecap:round;stroke-linejoin:round;stroke-width:6px"/><polygon points="27 93 111 93 123 141 15 141 27 93" style="fill:none;stroke:#000;stroke-linejoin:round;stroke-width:6px"/><rect x="57" y="111" width="24" height="30" style="fill:none;stroke:#000;stroke-linecap:round;stroke-linejoin:round;stroke-width:6px"/><rect width="144" height="144" style="fill:none"/></svg>