<svg xmlns="http://www.w3.org/2000/svg" viewBox="0 0 144 144"><circle cx="27" cy="93" r="24" style="fill:none;stroke:#000;stroke-linecap:round;stroke-linejoin:round;stroke-width:6px"/><circle cx="117" cy="93" r="24" style="fill:none;stroke:#000;stroke-linecap:round;stroke-linejoin:round;stroke-width:6px"/><line x1="63" y1="87" x2="81" y2="87" style="fill:none;stroke:#000;stroke-linecap:round;stroke-linejoin:round;stroke-width:6px"/><path d="M15,72V64.5c0-4.1,5.4-7.5,12-7.5h90c6.6,0,12,3.4,12,7.5V72" style="fill:none;stroke:#000;stroke-linecap:round;stroke-linejoin:round;stroke-width:6px"/><line x1="117" y1="117" x2="27" y2="117" style="fill:none;stroke:#000;stroke-linecap:round;stroke-linejoin:round;stroke-width:6px"/><path d="M27,57V39a6.0176,6.0176,0,0,1,6-6h78a6.0176,6.0176,0,0,1,6,6V57" style="fill:none;stroke:#000;stroke-linejoin:round;stroke-width:6px"/><circle cx="117" cy="93" r="6" style="fill:none;stroke:#000;stroke-linejoin:round;stroke-width:6px"/><circle cx="27" cy="93" r="6" style="fill:none;stroke:#000;stroke-linejoin:round;stroke-width:6px"/><polygon points="84 69 60 69 48 57 96 57 84 69" style="fill:none;stroke:#000;stroke-linejoin:round;stroke-width:6px"/><rect width="144" height="144" style="fill:none"/></svg>