<svg xmlns="http://www.w3.org/2000/svg" viewBox="0 0 144 144"><rect x="21" y="21" width="96" height="120" style="fill:none;stroke:#000;stroke-linecap:round;stroke-linejoin:round;stroke-width:6px"/><rect x="45" y="3" width="48" height="18" style="fill:none;stroke:#000;stroke-linecap:round;stroke-linejoin:round;stroke-width:6px"/><line x1="6" y1="21" x2="138" y2="21" style="fill:none;stroke:#000;stroke-linecap:round;stroke-linejoin:round;stroke-width:6px"/><path d="M83.5,81h21.8A36.1821,36.1821,0,0,0,85.1,48.6L75.5,68A14.62,14.62,0,0,1,83.5,81Z" style="fill:none;stroke:#000;stroke-linecap:round;stroke-linejoin:round;stroke-width:6px"/><path d="M77.7,92.3a14.2542,14.2542,0,0,1-17.4,0l-13,17.4a35.5686,35.5686,0,0,0,43.5,0Z" style="fill:none;stroke:#000;stroke-linecap:round;stroke-linejoin:round;stroke-width:6px"/><path d="M62.5,68.1,52.8,48.7A36.3622,36.3622,0,0,0,32.6,81.1H54.4A14.66,14.66,0,0,1,62.5,68.1Z" style="fill:none;stroke:#000;stroke-linecap:round;stroke-linejoin:round;stroke-width:6px"/><path d="M72,81.1a3.0759,3.0759,0,0,1-3,3h0a3.0085,3.0085,0,0,1-3-3h0a2.9465,2.9465,0,0,1,3-3h0a3.0085,3.0085,0,0,1,3,3Z" style="fill:none;stroke:#000;stroke-linecap:round;stroke-linejoin:round;stroke-width:6px"/><rect width="144" height="144" style="fill:none"/></svg>