<svg xmlns="http://www.w3.org/2000/svg" viewBox="0 0 144 144"><path d="M111,69c0,26.5-42,45-42,45S27,95.5,27,69,60,45,69,45,111,42.5,111,69Z" style="fill:none;stroke:#000;stroke-linecap:round;stroke-linejoin:round;stroke-width:6px"/><line x1="69" y1="45" x2="69" y2="9" style="fill:none;stroke:#000;stroke-linecap:round;stroke-linejoin:round;stroke-width:6px"/><path d="M69,43.9c21.1,4.6,40.2-6.9,44.8-28C92.7,11.3,73.6,22.8,69,43.9Z" style="fill:none;stroke:#000;stroke-linejoin:round;stroke-width:6px"/><path d="M69,43.9c-21.1,4.6-40.2-6.8-44.8-28C45.3,11.3,64.4,22.8,69,43.9Z" style="fill:none;stroke:#000;stroke-linejoin:round;stroke-width:6px"/><path d="M63.1,111.1c7.4,12.8-13.6,10.9-6.3,23.4" style="fill:none;stroke:#000;stroke-linecap:round;stroke-linejoin:round;stroke-width:6px"/><path d="M74.9,111.1c-7.4,12.8,13.6,10.9,6.3,23.4" style="fill:none;stroke:#000;stroke-linecap:round;stroke-linejoin:round;stroke-width:6px"/><line x1="69" y1="114" x2="69" y2="141" style="fill:none;stroke:#000;stroke-linecap:round;stroke-linejoin:round;stroke-width:6px"/><rect width="144" height="144" style="fill:none"/></svg>