<svg xmlns="http://www.w3.org/2000/svg" viewBox="0 0 144 144"><path d="M60,86.8l-22.5,39a68.6419,68.6419,0,0,0,69,0L84,86.8a24.1,24.1,0,0,1-24,0Z" style="fill:none;stroke:#000;stroke-linejoin:round;stroke-width:6px"/><path d="M96,69h45c0-25.5-13.9-50.8-34.5-62.7L84,45.2C91.2,49.4,96,60.1,96,69Z" style="fill:none;stroke:#000;stroke-linejoin:round;stroke-width:6px"/><path d="M48,69c0-8.9,4.8-19.6,12-23.8L37.5,6.2C16.9,18.2,3,43.5,3,69Z" style="fill:none;stroke:#000;stroke-linejoin:round;stroke-width:6px"/><path d="M60,66A12,12,0,1,1,72,78,12.097,12.097,0,0,1,60,66Z" style="fill:none;stroke:#000;stroke-linejoin:round;stroke-width:6px"/><rect width="144" height="144" style="fill:none"/></svg>