<svg xmlns="http://www.w3.org/2000/svg" viewBox="0 0 144 144"><circle cx="72" cy="72" r="69" style="fill:none;stroke:#000;stroke-linecap:round;stroke-linejoin:round;stroke-width:6px"/><path d="M87,75h36c0-18-10.3-38.3-25.5-47.1l-18,31.2C83.9,61.7,87,69,87,75Z" style="fill:none;stroke:#000;stroke-linejoin:round;stroke-width:6px"/><path d="M64.5,84.9l-18,31.2a50.57,50.57,0,0,0,51,0l-18-31.2A14.4429,14.4429,0,0,1,64.5,84.9Z" style="fill:none;stroke:#000;stroke-linejoin:round;stroke-width:6px"/><path d="M57,75c0-6,3.1-13.3,7.5-15.9l-18-31.2C31.3,36.7,21,57,21,75Z" style="fill:none;stroke:#000;stroke-linejoin:round;stroke-width:6px"/><path d="M75,72a2.9465,2.9465,0,0,1-2.892,3q-.054.001-.108,0h0a2.9465,2.9465,0,0,1-3-2.892q-.001-.054,0-.108h0a2.9465,2.9465,0,0,1,2.892-3q.054-.001.108,0h0a2.9465,2.9465,0,0,1,3,2.892Q75.001,71.946,75,72Z" style="fill:none;stroke:#000;stroke-linejoin:round;stroke-width:6px"/><rect width="144" height="144" style="fill:none"/></svg>