<svg xmlns="http://www.w3.org/2000/svg" viewBox="0 0 144 144"><line x1="45" y1="51" x2="99" y2="51" style="fill:none;stroke:#000;stroke-linejoin:round;stroke-width:6px"/><line x1="45" y1="75" x2="99" y2="75" style="fill:none;stroke:#000;stroke-linejoin:round;stroke-width:6px"/><line x1="45" y1="99" x2="99" y2="99" style="fill:none;stroke:#000;stroke-linejoin:round;stroke-width:6px"/><path d="M117,123.1a12,12,0,0,1,24,0V141H117Z" style="fill:none;stroke:#000;stroke-linejoin:round;stroke-width:6px"/><line x1="129" y1="3" x2="129" y2="111.1" style="fill:none;stroke:#000;stroke-linecap:round;stroke-linejoin:round;stroke-width:6px"/><path d="M27,20.9a12,12,0,0,1-24,0V3H27Z" style="fill:none;stroke:#000;stroke-linejoin:round;stroke-width:6px"/><line x1="15" y1="141" x2="15" y2="32.9" style="fill:none;stroke:#000;stroke-linecap:round;stroke-linejoin:round;stroke-width:6px"/><path d="M33,46.9a17.9457,17.9457,0,0,1,5.8-13.2l21-19.4a17.9042,17.9042,0,0,1,24.4,0l21,19.4A17.9457,17.9457,0,0,1,111,46.9V102a39,39,0,0,1-78,0Z" style="fill:none;stroke:#000;stroke-linejoin:round;stroke-width:6px"/><path d="M45,50.5a12.4127,12.4127,0,0,1,4-9.2L63.6,27.8a12.4684,12.4684,0,0,1,16.9,0L95,41.3a12.4127,12.4127,0,0,1,4,9.2V98.9a27,27,0,1,1-54,0Z" style="fill:none;stroke:#000;stroke-linejoin:round;stroke-width:6px"/><rect width="144" height="144" style="fill:none"/></svg>