<svg xmlns="http://www.w3.org/2000/svg" viewBox="0 0 144 144"><path d="M3,129H28.6S45,126.9,45,110.7A18.1792,18.1792,0,0,0,26.1,92.5,25.5226,25.5226,0,0,0,3,78" style="fill:none;stroke:#000;stroke-linecap:round;stroke-linejoin:round;stroke-width:6px"/><path d="M141,129H115.4S99,126.9,99,110.7a18.1792,18.1792,0,0,1,18.9-18.2A25.5226,25.5226,0,0,1,141,78" style="fill:none;stroke:#000;stroke-linecap:round;stroke-linejoin:round;stroke-width:6px"/><path d="M15.1,63C37.9,15.1,106.2,15,129,63" style="fill:none;stroke:#000;stroke-linecap:round;stroke-linejoin:round;stroke-width:6px"/><path d="M32.8,75c13.7-35.9,64.7-35.9,78.5,0" style="fill:none;stroke:#000;stroke-linecap:round;stroke-linejoin:round;stroke-width:6px"/><path d="M51,90c0-27.8,42-27.8,42,0" style="fill:none;stroke:#000;stroke-linecap:round;stroke-linejoin:round;stroke-width:6px"/><rect width="144" height="144" style="fill:none"/></svg>