<svg xmlns="http://www.w3.org/2000/svg" viewBox="0 0 144 144"><polygon points="72 3 78 27 102 27 84 39 93 63 72 48 51 63 60 39 42 27 66 27 72 3" style="fill:none;stroke:#000;stroke-linejoin:round;stroke-width:6px"/><polygon points="111 81 117 105 141 105 123 117 132 141 111 126 90 141 99 117 81 105 105 105 111 81" style="fill:none;stroke:#000;stroke-linejoin:round;stroke-width:6px"/><polygon points="33 81 39 105 63 105 45 117 54 141 33 126 12 141 21 117 3 105 27 105 33 81" style="fill:none;stroke:#000;stroke-linejoin:round;stroke-width:6px"/><rect width="144" height="144" style="fill:none"/></svg>