<svg xmlns="http://www.w3.org/2000/svg" viewBox="0 0 144 144"><path d="M134.9,3s3,126-18,126-3-24-18-24,3,36-18,36H6c21,0,3-36,18-36H54C60.7,71.7,60,3,60,3Z" style="fill:none;stroke:#000;stroke-linejoin:round;stroke-width:6px"/><line x1="54" y1="105" x2="98.9" y2="105" style="fill:none;stroke:#000;stroke-linejoin:round;stroke-width:6px"/><line x1="116.9" y1="129" x2="91.9" y2="129" style="fill:none;stroke:#000;stroke-linejoin:round;stroke-width:6px"/><line x1="78" y1="21" x2="90" y2="21" style="fill:none;stroke:#000;stroke-linecap:round;stroke-linejoin:round;stroke-width:6px"/><line x1="84" y1="33" x2="117" y2="33" style="fill:none;stroke:#000;stroke-linecap:round;stroke-linejoin:round;stroke-width:6px"/><line x1="75" y1="45" x2="114" y2="45" style="fill:none;stroke:#000;stroke-linecap:round;stroke-linejoin:round;stroke-width:6px"/><line x1="75" y1="57" x2="117" y2="57" style="fill:none;stroke:#000;stroke-linecap:round;stroke-linejoin:round;stroke-width:6px"/><line x1="75" y1="69" x2="111" y2="69" style="fill:none;stroke:#000;stroke-linecap:round;stroke-linejoin:round;stroke-width:6px"/><line x1="72" y1="81" x2="114" y2="81" style="fill:none;stroke:#000;stroke-linecap:round;stroke-linejoin:round;stroke-width:6px"/><line x1="69" y1="93" x2="117" y2="93" style="fill:none;stroke:#000;stroke-linecap:round;stroke-linejoin:round;stroke-width:6px"/><rect width="144" height="144" style="fill:none"/></svg>