<svg xmlns="http://www.w3.org/2000/svg" viewBox="0 0 147 144"><line x1="51" y1="105" x2="95.9" y2="105" style="fill:none;stroke:#000;stroke-linejoin:round;stroke-width:6px"/><line x1="113.9" y1="129" x2="88.9" y2="129" style="fill:none;stroke:#000;stroke-linejoin:round;stroke-width:6px"/><line x1="75" y1="33" x2="87" y2="33" style="fill:none;stroke:#000;stroke-linecap:round;stroke-linejoin:round;stroke-width:6px"/><line x1="81" y1="45" x2="114" y2="45" style="fill:none;stroke:#000;stroke-linecap:round;stroke-linejoin:round;stroke-width:6px"/><line x1="72" y1="57" x2="111" y2="57" style="fill:none;stroke:#000;stroke-linecap:round;stroke-linejoin:round;stroke-width:6px"/><line x1="72" y1="69" x2="114" y2="69" style="fill:none;stroke:#000;stroke-linecap:round;stroke-linejoin:round;stroke-width:6px"/><line x1="72" y1="81" x2="108" y2="81" style="fill:none;stroke:#000;stroke-linecap:round;stroke-linejoin:round;stroke-width:6px"/><line x1="69" y1="93" x2="111" y2="93" style="fill:none;stroke:#000;stroke-linecap:round;stroke-linejoin:round;stroke-width:6px"/><line x1="63.1" y1="9" x2="138" y2="9" style="fill:none;stroke:#000;stroke-linejoin:round;stroke-width:6px"/><path d="M60.1,9c-6,0-6.1,9-6.1,9s.7,53.7-6,87H18c-15,0,3,36-18,36H74.9c21,0,3-36,18-36s-3,24,18,24,18-111,18-111,.1-9,6.1-9,6,18,6,18H129" transform="translate(3)" style="fill:none;stroke:#000;stroke-linejoin:round;stroke-width:6px"/><rect x="3" width="144" height="144" style="fill:none"/></svg>