<svg xmlns="http://www.w3.org/2000/svg" viewBox="0 0 144 144"><path d="M66,41.7V51L45.7,57.2C41.5,58.7,39,61.6,39,66v3" style="fill:none;stroke:#000;stroke-linejoin:round;stroke-width:6px"/><path d="M84,41.7V51l20.3,6.2c4.2,1.5,6.7,4.4,6.7,8.8v3" style="fill:none;stroke:#000;stroke-linejoin:round;stroke-width:6px"/><ellipse cx="75" cy="23.8" rx="17.4" ry="20.8" style="fill:none;stroke:#000;stroke-linejoin:round;stroke-width:6px"/><path d="M92.2,22c-.6.1-1.1,0-1.6.1-5.9,1.1-9.7-1-13-6.7-2,3.8-8.1,6.7-13.1,6.7a13.8172,13.8172,0,0,1-6.7-1.6" style="fill:none;stroke:#000;stroke-linejoin:round;stroke-width:6px"/><rect x="3" y="69" width="138" height="48" style="fill:none;stroke:#000;stroke-linejoin:round;stroke-width:6px"/><line x1="21" y1="117" x2="21" y2="141" style="fill:none;stroke:#000;stroke-linecap:round;stroke-linejoin:round;stroke-width:6px"/><line x1="123" y1="117" x2="123" y2="141" style="fill:none;stroke:#000;stroke-linecap:round;stroke-linejoin:round;stroke-width:6px"/><rect width="144" height="144" style="fill:none"/></svg>