<svg xmlns="http://www.w3.org/2000/svg" viewBox="0 0 144 144"><path d="M39,129a18.0529,18.0529,0,0,1-18-18V33A18.0529,18.0529,0,0,1,39,15H87" style="fill:none;stroke:#000;stroke-linecap:round;stroke-linejoin:round;stroke-width:6px"/><path d="M105,15a18.0529,18.0529,0,0,1,18,18v78a18.0529,18.0529,0,0,1-18,18H57" style="fill:none;stroke:#000;stroke-linecap:round;stroke-linejoin:round;stroke-width:6px"/><polyline points="75 3 87 15 75 27" style="fill:none;stroke:#000;stroke-linecap:round;stroke-linejoin:round;stroke-width:6px"/><polyline points="69 117 57 129 69 141" style="fill:none;stroke:#000;stroke-linecap:round;stroke-linejoin:round;stroke-width:6px"/><polygon points="51 105 93 105 93 51 81 51 81 39 63 39 63 51 51 51 51 105" style="fill:none;stroke:#000;stroke-linecap:round;stroke-linejoin:round;stroke-width:6px"/><polyline points="78 60.2 63 75 81 75 66 90.2" style="fill:none;stroke:#000;stroke-linecap:round;stroke-linejoin:round;stroke-width:6px"/><rect width="144" height="144" style="fill:none"/></svg>