<svg xmlns="http://www.w3.org/2000/svg" viewBox="0 0 144 144"><rect x="117" y="9" width="24" height="48" style="fill:none;stroke:#000;stroke-linecap:round;stroke-linejoin:round;stroke-width:6px"/><path d="M117,17.7C52.6-3.8,76.4-4,3,32.7c6.4,6.4,11.4,7.9,18,6l36-13,22.7,5.5C72.9,37.4,52,49.3,55.5,55.7c3.3,6,6.3,2.5,36.4-10L116.7,54" style="fill:none;stroke:#000;stroke-linecap:round;stroke-linejoin:round;stroke-width:6px"/><polygon points="81 141 33 141 27 75 87 75 81 141" style="fill:none;stroke:#000;stroke-linecap:round;stroke-linejoin:round;stroke-width:6px"/><line x1="15" y1="75" x2="99" y2="75" style="fill:none;stroke:#000;stroke-linecap:round;stroke-linejoin:round;stroke-width:6px"/><line x1="45" y1="93" x2="45" y2="123" style="fill:none;stroke:#000;stroke-linecap:round;stroke-linejoin:round;stroke-width:6px"/><line x1="57" y1="93" x2="57" y2="123" style="fill:none;stroke:#000;stroke-linecap:round;stroke-linejoin:round;stroke-width:6px"/><line x1="69" y1="93" x2="69" y2="123" style="fill:none;stroke:#000;stroke-linecap:round;stroke-linejoin:round;stroke-width:6px"/><rect width="144" height="144" style="fill:none"/></svg>