<svg xmlns="http://www.w3.org/2000/svg" viewBox="0 0 144 144"><rect x="3" y="111" width="138" height="30" style="fill:none;stroke:#000;stroke-linecap:round;stroke-linejoin:round;stroke-width:6px"/><polygon points="123 75 21 75 3 111 141 111 123 75" style="fill:none;stroke:#000;stroke-linecap:round;stroke-linejoin:round;stroke-width:6px"/><polyline points="51 129 51 123 87 123 87 129" style="fill:none;stroke:#000;stroke-linecap:round;stroke-linejoin:round;stroke-width:6px"/><polygon points="48 96 42 96 42 102 48 102 48 96" style="fill:#000"/><polygon points="30 96 24 96 24 102 30 102 30 96" style="fill:#000"/><polygon points="66 96 60 96 60 102 66 102 66 96" style="fill:#000"/><polygon points="84 96 78 96 78 102 84 102 84 96" style="fill:#000"/><polygon points="102 96 96 96 96 102 102 102 102 96" style="fill:#000"/><polygon points="120 96 114 96 114 102 120 102 120 96" style="fill:#000"/><polygon points="102 84 96 84 96 90 102 90 102 84" style="fill:#000"/><polygon points="84 84 78 84 78 90 84 90 84 84" style="fill:#000"/><polygon points="66 84 60 84 60 90 66 90 66 84" style="fill:#000"/><polygon points="48 84 42 84 42 90 48 90 48 84" style="fill:#000"/><rect x="21" y="39" width="102" height="36" style="fill:none;stroke:#000;stroke-linecap:round;stroke-linejoin:round;stroke-width:6px"/><rect x="33" y="51" width="33" height="12" style="fill:none;stroke:#000;stroke-linecap:round;stroke-linejoin:round;stroke-width:6px"/><line x1="84" y1="57" x2="111" y2="57" style="fill:none;stroke:#000;stroke-linecap:round;stroke-linejoin:round;stroke-width:6px"/><polygon points="57 15 33 21 33 39 57 39 57 15" style="fill:none;stroke:#000;stroke-linecap:round;stroke-linejoin:round;stroke-width:6px"/><path d="M123,15a6.0176,6.0176,0,0,1-6,6H93a6.0176,6.0176,0,0,1-6-6V9a6.0176,6.0176,0,0,1,6-6h24a6.0176,6.0176,0,0,1,6,6Z" style="fill:none;stroke:#000;stroke-linecap:round;stroke-linejoin:round;stroke-width:6px"/><line x1="105" y1="21" x2="105" y2="39" style="fill:none;stroke:#000;stroke-linecap:round;stroke-linejoin:round;stroke-width:6px"/><rect width="144" height="144" style="fill:none"/></svg>