<svg xmlns="http://www.w3.org/2000/svg" viewBox="0 0 144 144"><polygon points="42.2 141 3 101.8 3 47.9 42.2 3 102 3 141 47.9 141 101.8 101.9 141 42.2 141" style="fill:none;stroke:#000;stroke-linejoin:round;stroke-width:6px"/><polygon points="52.6 117 27 91.4 27 56.3 52.6 27 91.3 27 117 56.3 117 91.4 91.3 117 52.6 117" style="fill:none;stroke:#000;stroke-linejoin:round;stroke-width:6px"/><polygon points="62.9 93 51 81.1 51 64.7 62.9 51 81 51 93 64.7 93 81.1 81 93 62.9 93" style="fill:none;stroke:#000;stroke-linejoin:round;stroke-width:6px"/><line x1="81" y1="51" x2="102" y2="3" style="fill:none;stroke:#000;stroke-linejoin:round;stroke-width:6px"/><line x1="63" y1="51" x2="42" y2="3" style="fill:none;stroke:#000;stroke-linejoin:round;stroke-width:6px"/><line x1="81" y1="93" x2="102" y2="141" style="fill:none;stroke:#000;stroke-linejoin:round;stroke-width:6px"/><line x1="63" y1="93" x2="42" y2="141" style="fill:none;stroke:#000;stroke-linejoin:round;stroke-width:6px"/><line x1="93" y1="64.7" x2="141" y2="47.9" style="fill:none;stroke:#000;stroke-linejoin:round;stroke-width:6px"/><line x1="93" y1="81.1" x2="141" y2="101.8" style="fill:none;stroke:#000;stroke-linejoin:round;stroke-width:6px"/><line x1="51" y1="64.7" x2="3" y2="47.9" style="fill:none;stroke:#000;stroke-linejoin:round;stroke-width:6px"/><line x1="51" y1="81.1" x2="3" y2="101.8" style="fill:none;stroke:#000;stroke-linejoin:round;stroke-width:6px"/><rect width="144" height="144" style="fill:none"/></svg>