<svg xmlns="http://www.w3.org/2000/svg" viewBox="0 0 144 144"><path d="M98.9,17.4A38.3923,38.3923,0,0,1,69,3h-.1A38.2417,38.2417,0,0,1,39,17.4c-10.5,0-20.1-4.3-30-11.3V95s8.7,31.6,60,46c51.3-14.4,60-46,60-46V6.1C119,13.1,109.5,17.4,98.9,17.4Z" style="fill:none;stroke:#000;stroke-linecap:round;stroke-linejoin:round;stroke-width:6px"/><path d="M69,26.9h0c-14.2,18.5-36,4.6-42,2.3V93s8.7,20.6,42,29.9c33.3-9.3,42-29.9,42-29.9V29.2C105,33.7,82,43.9,69,26.9Z" style="fill:none;stroke:#000;stroke-linecap:round;stroke-linejoin:round;stroke-width:6px"/><polygon points="87 63 75 63 75 51 63 51 63 63 51 63 51 75 63 75 63 105 75 105 75 75 87 75 87 63" style="fill:none;stroke:#000;stroke-linejoin:round;stroke-width:6px"/><rect width="144" height="144" style="fill:none"/></svg>