<svg xmlns="http://www.w3.org/2000/svg" viewBox="0 0 144 144.1"><path d="M98.9,17.5A38.2417,38.2417,0,0,1,69,3.1h-.1A38.2417,38.2417,0,0,1,39,17.5c-10.5,0-20.1-4.3-30-11.3V95.1s8.7,31.6,60,46c51.3-14.4,60-46,60-46V6.2C119,13.2,109.5,17.5,98.9,17.5Z" style="fill:none;stroke:#000;stroke-linecap:round;stroke-linejoin:round;stroke-width:6px"/><path d="M111,63c-10.3,3.4-22.8,5.3-35.6,5.8C75.9,56,77.7,43.4,81,33H57c3.4,10.3,5.3,22.9,5.8,35.8C49.9,68.3,37.4,66.5,27,63V87c10.3-3.4,22.9-5.2,35.8-5.6-.5,12.8-2.3,25.3-5.8,35.6H81c-3.4-10.2-5.2-22.7-5.6-35.6,12.8.5,25.3,2.3,35.6,5.6Z" style="fill:none;stroke:#000;stroke-linecap:round;stroke-linejoin:round;stroke-width:6px"/><rect width="144" height="144" style="fill:none"/></svg>