<svg xmlns="http://www.w3.org/2000/svg" viewBox="0 0 144 144.5239"><path d="M125.4,34.4a35.8213,35.8213,0,0,1-17.8,4.7A35.9463,35.9463,0,0,1,79,24.9a35.9944,35.9944,0,0,0,34.6,26.2A36.1512,36.1512,0,0,0,135,44Z" style="fill:none;stroke:#000;stroke-linecap:round;stroke-linejoin:round;stroke-width:6px"/><circle cx="108" cy="15.1" r="12" style="fill:none;stroke:#000;stroke-linecap:round;stroke-linejoin:round;stroke-width:6px"/><path d="M112.8,68.3c-9.4-6.6-21.9-8.1-35.7-4.5a31.933,31.933,0,0,0-4.3-3.2c13.2-9,13.6-39.3-8.7-51.8a34.5222,34.5222,0,0,0-33-.3l1.3,11.4c13.4-2.3,27,4.6,30.5,15.5,7.5,23-24.9,33.5-17.3,37,37,17.3,25.3,46.9,7.7,53-17.5,6.1-38.1-7.5-46-30.2a45.9961,45.9961,0,0,1-1.3-5,43.6425,43.6425,0,0,0,85,19.4,45.1046,45.1046,0,0,0-5-35.3c7.8-1,14.7.2,19.9,3.8,5.9,4.1,9.1,10.8,9.1,18.9,0,20.2-8.7,33.4-8.7,33.4l4.4-2.9A36.53,36.53,0,0,0,127,97.1C127,85.1,121.8,74.6,112.8,68.3Z" style="fill:none;stroke:#000;stroke-linecap:round;stroke-linejoin:round;stroke-width:6px"/><rect width="144" height="144" style="fill:none"/></svg>