<svg xmlns="http://www.w3.org/2000/svg" viewBox="0 0 144 144"><circle cx="24.4" cy="123" r="18" style="fill:none;stroke:#000;stroke-linecap:round;stroke-linejoin:round;stroke-width:6px"/><circle cx="24.4" cy="123" r="6" style="fill:none;stroke:#000;stroke-linecap:round;stroke-linejoin:round;stroke-width:6px"/><circle cx="102.4" cy="123" r="18" style="fill:none;stroke:#000;stroke-linecap:round;stroke-linejoin:round;stroke-width:6px"/><circle cx="102.4" cy="123" r="6" style="fill:none;stroke:#000;stroke-linecap:round;stroke-linejoin:round;stroke-width:6px"/><path d="M15,99a12,12,0,0,1,24,0H87a12,12,0,0,1,24,0h24V69H81V45H48L36,69H12a8.9626,8.9626,0,0,0-9,9V99H15" style="fill:none;stroke:#000;stroke-linecap:round;stroke-linejoin:round;stroke-width:6px"/><polyline points="51 69 57 57 63 57" style="fill:none;stroke:#000;stroke-linecap:round;stroke-linejoin:round;stroke-width:6px"/><line x1="42.4" y1="123" x2="84" y2="123" style="fill:none;stroke:#000;stroke-linecap:round;stroke-linejoin:round;stroke-width:6px"/><path d="M99.5,69s-6.2-26.3,15-45.6" style="fill:none;stroke:#000;stroke-linecap:round;stroke-linejoin:round;stroke-width:6px"/><circle cx="120" cy="21" r="6" style="fill:none;stroke:#000;stroke-linecap:round;stroke-linejoin:round;stroke-width:6px"/><line x1="25" y1="105" x2="31" y2="87.7" style="fill:none;stroke:#000;stroke-linejoin:round;stroke-width:6px"/><line x1="98.4" y1="105.4" x2="94.3" y2="88" style="fill:none;stroke:#000;stroke-linejoin:round;stroke-width:6px"/><rect width="144" height="144" style="fill:none"/></svg>