<svg xmlns="http://www.w3.org/2000/svg" viewBox="0 0 144 144"><path d="M51,99H12a9.0264,9.0264,0,0,1-9-9V12a8.9626,8.9626,0,0,1,9-9H132a8.9626,8.9626,0,0,1,9,9V90a9.0264,9.0264,0,0,1-9,9h-9" style="fill:none;stroke:#000;stroke-linecap:round;stroke-linejoin:round;stroke-width:6px"/><polyline points="51 87 15 87 15 15 129 15 129 87 123 87" style="fill:none;stroke:#000;stroke-linecap:round;stroke-linejoin:round;stroke-width:6px"/><rect x="69" y="75" width="36" height="60" style="fill:none;stroke:#000;stroke-linejoin:round;stroke-width:6px"/><path d="M81,84a3,3,0,1,0,3,3,3.0085,3.0085,0,0,0-3-3Z" style="fill:#000"/><path d="M93,84a3,3,0,1,0,3,3,3.0085,3.0085,0,0,0-3-3Z" style="fill:#000"/><path d="M81,96a3,3,0,1,0,3,3,3.0085,3.0085,0,0,0-3-3Z" style="fill:#000"/><path d="M93,96a3,3,0,1,0,3,3,3.0085,3.0085,0,0,0-3-3Z" style="fill:#000"/><path d="M81,108a3,3,0,1,0,3,3,3.0085,3.0085,0,0,0-3-3Z" style="fill:#000"/><path d="M93,108a3,3,0,1,0,3,3,3.0085,3.0085,0,0,0-3-3Z" style="fill:#000"/><path d="M107.4,41.8A38.93,38.93,0,0,0,68.1,41" style="fill:none;stroke:#000;stroke-linecap:round;stroke-linejoin:round;stroke-width:6px"/><path d="M101.1,52a27.01,27.01,0,0,0-27.2-.6" style="fill:none;stroke:#000;stroke-linecap:round;stroke-linejoin:round;stroke-width:6px"/><path d="M94.8,62.2a15.0905,15.0905,0,0,0-15.1-.3" style="fill:none;stroke:#000;stroke-linecap:round;stroke-linejoin:round;stroke-width:6px"/><rect width="144" height="144" style="fill:none"/></svg>