<svg xmlns="http://www.w3.org/2000/svg" viewBox="0 0 144.0088 144.1092"><path d="M135,73.9c.6,36.4-29.5,66.5-66,67.2-36.4.6-65.4-28.4-66-64.9S32.6,9.6,69,9,134.4,37.4,135,73.9Z" transform="translate(0.0088)" style="fill:none;stroke:#000;stroke-linecap:round;stroke-linejoin:round;stroke-width:6px"/><line x1="69.0088" y1="84" x2="69.0088" y2="42" style="fill:none;stroke:#000;stroke-linecap:round;stroke-linejoin:round;stroke-width:6px"/><path d="M72,105a2.9465,2.9465,0,0,1-3,3h0a2.9465,2.9465,0,0,1-3-3h0a2.9465,2.9465,0,0,1,3-3h0a2.9465,2.9465,0,0,1,3,3Z" transform="translate(0.0088)" style="fill:none;stroke:#000;stroke-linejoin:round;stroke-width:6px"/><rect x="0.0088" width="144" height="144" style="fill:none"/></svg>