<svg xmlns="http://www.w3.org/2000/svg" viewBox="0 0 144 144"><path d="M3,101.7H57.6M9.1,137.3h95.7c16.6,0,29.4-13.5,29.4-30.1V71.7a29.3822,29.3822,0,0,0-29.4-29.4H63.7" style="fill:none;stroke:#000;stroke-linecap:round;stroke-linejoin:round;stroke-width:6px"/><polygon points="42.9 12.8 71.1 22.6 52.7 72.9 24.5 63.1 42.9 12.8" style="fill:none;stroke:#000;stroke-linecap:round;stroke-linejoin:round;stroke-width:6px"/><line x1="51.5" y1="15.8" x2="55.1" y2="4.8" style="fill:none;stroke:#000;stroke-linecap:round;stroke-linejoin:round;stroke-width:5.95989990234375px"/><line x1="66.7" y1="8.7" x2="62.7" y2="19.7" style="fill:none;stroke:#000;stroke-linecap:round;stroke-linejoin:round;stroke-width:5.662799835205078px"/><line x1="49.6" y1="3" x2="71.7" y2="10.4" style="fill:none;stroke:#000;stroke-linecap:round;stroke-linejoin:round;stroke-width:6px"/><path d="M38.6,101.7l11.7,17.8H92.6c12.9,0,17.8-7.4,17.8-20.2V90.1c0-13.5-4.9-20.9-17.8-23.9H84L62.5,47.8" style="fill:none;stroke:#000;stroke-linecap:round;stroke-linejoin:round;stroke-width:6px"/><line x1="21.4" y1="101.7" x2="21.4" y2="137.3" style="fill:none;stroke:#000;stroke-linecap:round;stroke-linejoin:round;stroke-width:6px"/><path d="M30,64.9l11.7,4.3L35.6,85.8l-11-3.7L30,64.9ZM3,137.3H141" style="fill:none;stroke:#000;stroke-linecap:round;stroke-linejoin:round;stroke-width:6px"/><rect width="144" height="144" style="fill:none"/></svg>