<svg xmlns="http://www.w3.org/2000/svg" viewBox="0 0 144 144"><path d="M21,54C21,25.8,43.8,9,72,9s51,16.8,51,45v57a23.9424,23.9424,0,0,1-24,24H45a23.9424,23.9424,0,0,1-24-24Z" style="fill:none;stroke:#000;stroke-linejoin:round;stroke-width:6px"/><path d="M39.1,45C43.1,29.1,57,21,72,21s29.1,8.1,33.1,24Z" style="fill:none;stroke:#000;stroke-linejoin:round;stroke-width:6px"/><line x1="21" y1="57" x2="123" y2="57" style="fill:none;stroke:#000;stroke-linejoin:round;stroke-width:6px"/><line x1="21.8" y1="117" x2="122.2" y2="117" style="fill:none;stroke:#000;stroke-linejoin:round;stroke-width:6px"/><rect x="51" y="81" width="42" height="36" style="fill:none;stroke:#000;stroke-linejoin:round;stroke-width:6px"/><line x1="66" y1="105" x2="78" y2="105" style="fill:none;stroke:#000;stroke-linecap:round;stroke-linejoin:round;stroke-width:6px"/><line x1="66" y1="93" x2="78" y2="93" style="fill:none;stroke:#000;stroke-linecap:round;stroke-linejoin:round;stroke-width:6px"/><rect width="144" height="144" style="fill:none"/></svg>