<svg xmlns="http://www.w3.org/2000/svg" viewBox="0 0 144 144"><path d="M137.6,12.3,121.7,67.7c-6.2,5-17.8,3.8-25.2,2L124.7,7.5a6.9276,6.9276,0,0,1,8.8-4A6.8565,6.8565,0,0,1,137.6,12.3Z" style="fill:none;stroke:#000;stroke-linejoin:round;stroke-width:6px"/><path d="M124.6,55.4C131.1,59.8,135,65,135,70.5,135,86.3,104,99,69.2,99S3,86.3,3,70.5C3,54.8,34.4,42,69.2,42a130.2187,130.2187,0,0,1,36.1,4.9" style="fill:none;stroke:#000;stroke-linejoin:round;stroke-width:6px"/><path d="M3,69V81c0,34.8,21,60,66.2,60S135,115.8,135,81V69" style="fill:none;stroke:#000;stroke-linejoin:round;stroke-width:6px"/><path d="M24,75a12,12,0,0,1,24,0" style="fill:none;stroke:#000;stroke-linecap:round;stroke-linejoin:round;stroke-width:6px"/><path d="M75,85.5a9,9,0,0,1,18,0" style="fill:none;stroke:#000;stroke-linecap:round;stroke-linejoin:round;stroke-width:6px"/><path d="M60,63a6,6,0,0,1,12,0" style="fill:none;stroke:#000;stroke-linecap:round;stroke-linejoin:round;stroke-width:6px"/><rect width="144" height="144" style="fill:none"/></svg>