<svg xmlns="http://www.w3.org/2000/svg" viewBox="0 0 144 144"><polyline points="45 135 45 81 21 123 54 123" style="fill:none;stroke:#000;stroke-linecap:round;stroke-linejoin:round;stroke-width:6px"/><polyline points="21 24 39 6 57 24" style="fill:none;stroke:#000;stroke-linecap:round;stroke-linejoin:round;stroke-width:6px"/><line x1="39" y1="6" x2="39" y2="66" style="fill:none;stroke:#000;stroke-linecap:round;stroke-linejoin:round;stroke-width:6px"/><polyline points="111 48 93 66 75 48" style="fill:none;stroke:#000;stroke-linecap:round;stroke-linejoin:round;stroke-width:6px"/><line x1="93" y1="66" x2="93" y2="6" style="fill:none;stroke:#000;stroke-linecap:round;stroke-linejoin:round;stroke-width:6px"/><path d="M105,99V93A12.0353,12.0353,0,0,0,93,81H87A12.0353,12.0353,0,0,0,75,93v30a12.0353,12.0353,0,0,0,12,12h6a12.0353,12.0353,0,0,0,12-12V111H87" style="fill:none;stroke:#000;stroke-linecap:round;stroke-linejoin:round;stroke-width:6px"/><rect width="144" height="144" style="fill:none"/></svg>