<svg xmlns="http://www.w3.org/2000/svg" viewBox="0 0 144 144"><polyline points="15 24 33 6 51 24" style="fill:none;stroke:#000;stroke-linecap:round;stroke-linejoin:round;stroke-width:6px"/><line x1="33" y1="6" x2="33" y2="66" style="fill:none;stroke:#000;stroke-linecap:round;stroke-linejoin:round;stroke-width:6px"/><polyline points="105 48 87 66 69 48" style="fill:none;stroke:#000;stroke-linecap:round;stroke-linejoin:round;stroke-width:6px"/><line x1="87" y1="66" x2="87" y2="6" style="fill:none;stroke:#000;stroke-linecap:round;stroke-linejoin:round;stroke-width:6px"/><path d="M99,99V93A12.0353,12.0353,0,0,0,87,81H81A12.0353,12.0353,0,0,0,69,93v30a12.0353,12.0353,0,0,0,12,12h6a12.0353,12.0353,0,0,0,12-12V111H81" style="fill:none;stroke:#000;stroke-linecap:round;stroke-linejoin:round;stroke-width:6px"/><path d="M48,81H21v24H35.5c10.6,0,12.5,9.2,12.5,14.4,0,5.1-1.9,15.6-12.5,15.6H21" style="fill:none;stroke:#000;stroke-linecap:round;stroke-linejoin:round;stroke-width:6px"/><rect width="144" height="144" style="fill:none"/></svg>