<svg xmlns="http://www.w3.org/2000/svg" viewBox="0 0 144 144"><polygon points="131.6 20.8 138 6 123.1 12.4 97.7 37.8 106.2 46.3 131.6 20.8" style="fill:none;stroke:#000;stroke-linecap:round;stroke-linejoin:round;stroke-width:6px"/><path d="M95.6,56.9c-2.3,2.3-14.8,6.4-14.8,6.4s4-12.5,6.4-14.9a6.0054,6.0054,0,0,1,8.5,0A6.1954,6.1954,0,0,1,95.6,56.9Z" style="fill:none;stroke:#000;stroke-linecap:round;stroke-linejoin:round;stroke-width:6px"/><polyline points="121 31.5 125.3 44.2 114.7 54.8 106.2 46.3" style="fill:none;stroke:#000;stroke-linecap:round;stroke-linejoin:round;stroke-width:6px"/><polyline points="112.5 23 99.8 18.7 89.2 29.3 97.7 37.8" style="fill:none;stroke:#000;stroke-linecap:round;stroke-linejoin:round;stroke-width:6px"/><path d="M72,78.1c-30.2,30-60.1,48.7-67.1,41.7-4.1-4.1.6-16.2,11.4-31.5" style="fill:none;stroke:#000;stroke-linecap:round;stroke-linejoin:round;stroke-width:6px"/><path d="M104.1,68.8A47.0469,47.0469,0,0,1,105,78,45,45,0,1,1,60,33a45.5072,45.5072,0,0,1,17.7,3.6" style="fill:none;stroke:#000;stroke-linecap:round;stroke-linejoin:round;stroke-width:6px"/><rect width="144" height="144" style="fill:none"/></svg>