<svg xmlns="http://www.w3.org/2000/svg" viewBox="0 0 144 144"><path d="M38.8,83.7s65.7-65.8,69.9-70.1C115.1,7.2,140.5,3,140.5,3s-4.2,25.5-10.6,31.8l-70,70Z" style="fill:none;stroke:#000;stroke-linecap:round;stroke-linejoin:round;stroke-width:6px"/><line x1="47.2" y1="75.2" x2="68.4" y2="96.3" style="fill:none;stroke:#000;stroke-linecap:round;stroke-linejoin:round;stroke-width:6px"/><path d="M91.7,73c0,4.2,0,21.2-2.1,27.6-1.3,4-5.6,9.8-8.5,12.7L59.9,134.5l3.9-33.6" style="fill:none;stroke:#000;stroke-linecap:round;stroke-linejoin:round;stroke-width:6px"/><path d="M70.5,51.8c-4.2,0-21.4-.2-27.8,1.9-4,1.4-9.6,5.8-12.6,8.7C21.8,70.8,9,83.6,9,83.6l33.8-4.1" style="fill:none;stroke:#000;stroke-linecap:round;stroke-linejoin:round;stroke-width:6px"/><path d="M47.2,104.8c4.2,4.2,2.5,10.3-2.1,14.9-5.9,5.9-33.9,12.8-33.9,12.8s6.9-28.2,12.7-34c4.7-4.7,10.6-6.4,14.9-2.1" style="fill:none;stroke:#000;stroke-linecap:round;stroke-linejoin:round;stroke-width:6px"/><rect width="144" height="144" style="fill:none"/></svg>