<svg xmlns="http://www.w3.org/2000/svg" viewBox="0 0 144.0347 144"><path d="M27,27a3,3,0,1,0,3,3,2.9465,2.9465,0,0,0-3-3Z" transform="translate(0.0347)" style="fill:#000"/><path d="M33.7,111.8C38.6,97.2,55.5,84,72,84c16.4,0,32.9,12.8,37.7,28" transform="translate(0.0347)" style="fill:none;stroke:#000;stroke-linejoin:round;stroke-width:6px"/><path d="M17.2,106.3c6.5-18,21.3-29.8,21.3-29.8L30,45,19.2,48.6a13.54,13.54,0,0,1-7.3-26L31.1,14A12.0373,12.0373,0,0,1,47,20L57,42H87a23.9424,23.9424,0,0,1,24,24V81.8c3.9,1.6,11.7,13.5,15.8,24.5" transform="translate(0.0347)" style="fill:none;stroke:#000;stroke-linejoin:round;stroke-width:6px"/><line x1="104.9347" y1="50" x2="137.5347" y2="68.5" style="fill:none;stroke:#000;stroke-linecap:round;stroke-linejoin:round;stroke-width:6px"/><polygon points="90.035 42 57.035 42 63.035 66 84.035 66 90.035 42" style="fill:none;stroke:#000;stroke-linejoin:round;stroke-width:6px"/><path d="M72,141a168.4475,168.4475,0,0,1-61.3-11.5,12.0333,12.0333,0,0,1,8.8-22.4,145.18,145.18,0,0,0,105,0,11.9685,11.9685,0,1,1,8.7,22.3A165.9518,165.9518,0,0,1,72,141Z" transform="translate(0.0347)" style="fill:none;stroke:#000;stroke-linejoin:round;stroke-width:6px"/><path d="M33.2,13.1l9.7-3.9a15,15,0,0,1,19.4,8.2L72.5,42" transform="translate(0.0347)" style="fill:none;stroke:#000;stroke-linejoin:round;stroke-width:6px"/><rect x="0.0347" width="144" height="144" style="fill:none"/></svg>