<svg xmlns="http://www.w3.org/2000/svg" viewBox="0 0 144 144"><path d="M3,129c18,0,24-60,69-60s51,60,69,60" style="fill:none;stroke:#000;stroke-linecap:round;stroke-linejoin:round;stroke-width:6px"/><line x1="21" y1="111" x2="21" y2="129" style="fill:none;stroke:#000;stroke-linecap:round;stroke-linejoin:round;stroke-width:6px"/><line x1="33" y1="93" x2="33" y2="129" style="fill:none;stroke:#000;stroke-linecap:round;stroke-linejoin:round;stroke-width:6px"/><line x1="45" y1="81" x2="45" y2="129" style="fill:none;stroke:#000;stroke-linecap:round;stroke-linejoin:round;stroke-width:6px"/><line x1="57" y1="72" x2="57" y2="129" style="fill:none;stroke:#000;stroke-linecap:round;stroke-linejoin:round;stroke-width:6px"/><line x1="69" y1="69" x2="69" y2="129" style="fill:none;stroke:#000;stroke-linecap:round;stroke-linejoin:round;stroke-width:6px"/><line x1="81" y1="72" x2="81" y2="129" style="fill:none;stroke:#000;stroke-linecap:round;stroke-linejoin:round;stroke-width:6px"/><line x1="93" y1="75" x2="93" y2="129" style="fill:none;stroke:#000;stroke-linecap:round;stroke-linejoin:round;stroke-width:6px"/><line x1="105" y1="84" x2="105" y2="129" style="fill:none;stroke:#000;stroke-linecap:round;stroke-linejoin:round;stroke-width:6px"/><line x1="117" y1="102" x2="117" y2="129" style="fill:none;stroke:#000;stroke-linecap:round;stroke-linejoin:round;stroke-width:6px"/><path d="M96,57A12.0353,12.0353,0,0,0,84,45H66V57Z" style="fill:none;stroke:#000;stroke-linejoin:round;stroke-width:6px"/><rect x="28.7888" y="53.4789" width="27" height="12" transform="translate(-22.549 25.9806) rotate(-27.2646)" style="fill:none;stroke:#000;stroke-linejoin:round;stroke-width:5.999996339358445px"/><rect x="1.662" y="81.4158" width="26.9989" height="11.9995" transform="translate(-67.4005 54.9367) rotate(-58.6864)" style="fill:none;stroke:#000;stroke-linejoin:round;stroke-width:5.9997498193483665px"/><rect width="144" height="144" style="fill:none"/></svg>