<svg xmlns="http://www.w3.org/2000/svg" viewBox="0 0 144 144"><path d="M24.8,9.7a6.02,6.02,0,0,1,6-6.7H77.4a6.1021,6.1021,0,0,1,6,6.6L78,61.5A12.0611,12.0611,0,0,0,88.4,73.4l12.8,2.5A14.6129,14.6129,0,0,1,99.3,105H34.7a5.9948,5.9948,0,0,1-5.8-7.5L33,75Z" style="fill:none;stroke:#000;stroke-linejoin:round;stroke-width:6px"/><circle cx="39" cy="129" r="12" style="fill:none;stroke:#000;stroke-linejoin:round;stroke-width:6px"/><circle cx="75" cy="129" r="12" style="fill:none;stroke:#000;stroke-linejoin:round;stroke-width:6px"/><circle cx="111" cy="129" r="12" style="fill:none;stroke:#000;stroke-linejoin:round;stroke-width:6px"/><line x1="18.1" y1="129" x2="132" y2="129" style="fill:none;stroke:#000;stroke-linecap:round;stroke-linejoin:round;stroke-width:6px"/><line x1="81" y1="27" x2="63" y2="27" style="fill:none;stroke:#000;stroke-linecap:round;stroke-linejoin:round;stroke-width:6px"/><line x1="80.3" y1="39" x2="63" y2="39" style="fill:none;stroke:#000;stroke-linecap:round;stroke-linejoin:round;stroke-width:6px"/><line x1="78.9" y1="51" x2="57" y2="51" style="fill:none;stroke:#000;stroke-linecap:round;stroke-linejoin:round;stroke-width:6px"/><line x1="78.1" y1="63" x2="51" y2="63" style="fill:none;stroke:#000;stroke-linecap:round;stroke-linejoin:round;stroke-width:6px"/><rect width="144" height="144" style="fill:none"/></svg>