<svg xmlns="http://www.w3.org/2000/svg" viewBox="0 0 144.0272 144.0063"><path d="M109.4,44.7a12.0107,12.0107,0,0,1,0,17L54.2,116.9a12.0107,12.0107,0,0,1-17,0l-8.5-8.5a12.0107,12.0107,0,0,1,0-17L84,36.2a12.0107,12.0107,0,0,1,17,0Z" transform="translate(0.0272)" style="fill:none;stroke:#000;stroke-linejoin:round;stroke-width:6px"/><path d="M134.9,10.7a10.6152,10.6152,0,0,1,3.1,8.1,10.7772,10.7772,0,0,1-4.1,7.7L109.4,44.6l-8.5-8.5L119,11.7a10.7772,10.7772,0,0,1,7.7-4.1A11.2261,11.2261,0,0,1,134.9,10.7Z" transform="translate(0.0272)" style="fill:none;stroke:#000;stroke-linejoin:round;stroke-width:6px"/><path d="M5.8,137.8a10.7,10.7,0,0,0,8.1,3.2,11.8112,11.8112,0,0,0,8.2-4.4l14.6-20.4-8.4-8.6-20.9,14A11.5093,11.5093,0,0,0,3,129.5,10.96,10.96,0,0,0,5.8,137.8Z" transform="translate(0.0272)" style="fill:none;stroke:#000;stroke-linejoin:round;stroke-width:6px"/><rect x="0.0272" width="144" height="144" style="fill:none"/></svg>