<svg xmlns="http://www.w3.org/2000/svg" viewBox="0 0 144 144"><path d="M87,21.2c7.4,6,12,14.4,12,23.8,0,18.2-17.5,33-39,33S21,63.2,21,45c0-9.4,4.6-17.8,12-23.8" style="fill:none;stroke:#000;stroke-linecap:round;stroke-linejoin:round;stroke-width:6px"/><path d="M78,11c4.9,3.3,8,7.9,8,13,0,9.9-11.6,18-26,18S34,33.9,34,24c0-5.1,3.1-9.7,8-13" style="fill:none;stroke:#000;stroke-linecap:round;stroke-linejoin:round;stroke-width:6px"/><path d="M62.6,42S81,45,81,60V72" style="fill:none;stroke:#000;stroke-linecap:round;stroke-linejoin:round;stroke-width:6px"/><path d="M48,39a34.958,34.958,0,0,1,7.5-12" style="fill:none;stroke:#000;stroke-linecap:round;stroke-linejoin:round;stroke-width:6px"/><ellipse cx="60" cy="15" rx="18" ry="12" style="fill:none;stroke:#000;stroke-linecap:round;stroke-linejoin:round;stroke-width:6px"/><path d="M60,27c9,0,12.9-15-6-15" style="fill:none;stroke:#000;stroke-linecap:round;stroke-linejoin:round;stroke-width:6px"/><path d="M63,78v63" style="fill:none;stroke:#000;stroke-linecap:round;stroke-linejoin:round;stroke-width:6px"/><path d="M97.1,103.4s-4.3,17.4-11.2,22.1c-6.9,4.6-16.2,5.2-21.1-1.8C60,117,66.5,108.1,75,111,84,114,97.1,103.4,97.1,103.4Z" style="fill:none;stroke:#000;stroke-linecap:round;stroke-linejoin:round;stroke-width:6px"/><rect width="144" height="144" style="fill:none"/></svg>