<svg xmlns="http://www.w3.org/2000/svg" viewBox="0 0 144 144"><path d="M133.7,19.4c-2.8-4.7-9.4-5.8-14.7-2.6a8.6219,8.6219,0,0,0-1.8,1.4,13.4486,13.4486,0,0,0,.5-3.5c0-6.2-4.4-11.2-9.9-11.2s-9.9,5-9.9,11.2a11.4185,11.4185,0,0,0,.5,3.3c-.5-.4-1-.8-1.6-1.2-5.3-3.2-11.8-2-14.7,2.6-2.8,4.7-.8,11,4.5,14.2a12.3077,12.3077,0,0,0,5.8,1.8,6.8853,6.8853,0,0,0-1.3,1.1c-4.4,4.4-4.8,11-.9,14.9,3.8,3.8,10.5,3.4,14.9-.9a12.7133,12.7133,0,0,0,2.9-4.6,11.2394,11.2394,0,0,0,2.9,4.6c4.4,4.4,11,4.8,14.9.9,3.8-3.9,3.4-10.5-.9-14.9a12.667,12.667,0,0,0-1.3-1.1,11.88,11.88,0,0,0,5.8-1.8C134.5,30.4,136.5,24.1,133.7,19.4Z" style="fill:none;stroke:#000;stroke-linejoin:round;stroke-width:6px"/><circle cx="108" cy="30.1" r="8.9" style="fill:none;stroke:#000;stroke-linejoin:round;stroke-width:6px"/><path d="M88.3,39c-9.6,8.7-13.6,21.9-14.8,36" style="fill:none;stroke:#000;stroke-linecap:round;stroke-linejoin:round;stroke-width:6px"/><path d="M19.3,19.4c2.8-4.7,9.4-5.8,14.7-2.6a8.6219,8.6219,0,0,1,1.8,1.4,13.4486,13.4486,0,0,1-.5-3.5c0-6.2,4.4-11.2,9.9-11.2s9.9,5,9.9,11.2a11.4185,11.4185,0,0,1-.5,3.3c.5-.4,1-.8,1.6-1.2,5.3-3.2,11.8-2,14.7,2.6,2.8,4.7.8,11-4.5,14.2a12.3077,12.3077,0,0,1-5.8,1.8,6.8853,6.8853,0,0,1,1.3,1.1c4.4,4.4,4.8,11,.9,14.9-3.9,3.8-10.5,3.4-14.9-.9A12.7133,12.7133,0,0,1,45,45.9a11.2394,11.2394,0,0,1-2.9,4.6c-4.4,4.4-11,4.8-14.9.9-3.8-3.9-3.4-10.5.9-14.9a12.667,12.667,0,0,1,1.3-1.1,11.88,11.88,0,0,1-5.8-1.8C18.5,30.4,16.5,24.1,19.3,19.4Z" style="fill:none;stroke:#000;stroke-linejoin:round;stroke-width:6px"/><circle cx="45" cy="30.1" r="8.9" style="fill:none;stroke:#000;stroke-linejoin:round;stroke-width:6px"/><path d="M54,54a196.8477,196.8477,0,0,1,4.7,21" style="fill:none;stroke:#000;stroke-linecap:round;stroke-linejoin:round;stroke-width:6px"/><path d="M28.8,141h74.5a12.0867,12.0867,0,0,0,10.1-5.4,22.1876,22.1876,0,0,0,3.5-9.6c.1-1,.2-2,.2-3,0-14.6-12.3-27.1-30-32.8L93,75H39l6,15.2C27.3,95.9,15,108.4,15,123c0,1,.1,2,.2,3a22.6683,22.6683,0,0,0,3.5,9.6A11.9578,11.9578,0,0,0,28.8,141Z" style="fill:none;stroke:#000;stroke-linecap:round;stroke-linejoin:round;stroke-width:6px"/><line x1="18" y1="117" x2="114" y2="117" style="fill:none;stroke:#000;stroke-linecap:round;stroke-linejoin:round;stroke-width:6px"/><line x1="18" y1="129" x2="114" y2="129" style="fill:none;stroke:#000;stroke-linecap:round;stroke-linejoin:round;stroke-width:6px"/><rect width="144" height="144" style="fill:none"/></svg>