<svg xmlns="http://www.w3.org/2000/svg" viewBox="0 0 144 144"><path d="M43.9,56.7l-4-18.5a29.0383,29.0383,0,0,1,5.8-24.4A28.7388,28.7388,0,0,1,68.2,3,29.0634,29.0634,0,0,1,96.6,38.2L92.5,57" style="fill:none;stroke:#000;stroke-linecap:round;stroke-linejoin:round;stroke-width:6px"/><path d="M93.7,92.5l2.9,13.3a29.0558,29.0558,0,1,1-56.8,0l2.9-13.2" style="fill:none;stroke:#000;stroke-linejoin:round;stroke-width:6px"/><path d="M56.8,56.7,53,32.8a15.3889,15.3889,0,1,1,30.4,0L79.6,57" style="fill:none;stroke:#000;stroke-linecap:round;stroke-linejoin:round;stroke-width:6px"/><path d="M80.5,93.1l2.9,18.1a15.3889,15.3889,0,1,1-30.4,0l2.9-18.4" style="fill:none;stroke:#000;stroke-linejoin:round;stroke-width:6px"/><path d="M66.1,56.4,63,33a5.448,5.448,0,0,1,1.3-4.2A5.3164,5.3164,0,0,1,68.2,27a5.1527,5.1527,0,0,1,3.9,1.8A5.3321,5.3321,0,0,1,73.4,33L70.2,56.9" style="fill:none;stroke:#000;stroke-linecap:round;stroke-linejoin:round;stroke-width:6px"/><path d="M65.4,92.7,63,111.1a5.448,5.448,0,0,0,1.3,4.2,5.3164,5.3164,0,0,0,3.9,1.8,5.1527,5.1527,0,0,0,3.9-1.8,5.3321,5.3321,0,0,0,1.3-4.2L71,92.9" style="fill:none;stroke:#000;stroke-linejoin:round;stroke-width:6px"/><path d="M98.2,87a6.0176,6.0176,0,0,1-6,6h-48a6,6,0,1,1,0-12h48A6.0176,6.0176,0,0,1,98.2,87Z" style="fill:none;stroke:#000;stroke-linecap:round;stroke-linejoin:round;stroke-width:6px"/><path d="M98.2,75a6.0176,6.0176,0,0,1-6,6h-48a6,6,0,0,1,0-12h48A6.0176,6.0176,0,0,1,98.2,75Z" style="fill:none;stroke:#000;stroke-linecap:round;stroke-linejoin:round;stroke-width:6px"/><path d="M98.2,63a6.0176,6.0176,0,0,1-6,6h-48a6,6,0,0,1,0-12h48A6.0176,6.0176,0,0,1,98.2,63Z" style="fill:none;stroke:#000;stroke-linecap:round;stroke-linejoin:round;stroke-width:6px"/><path d="M95.2,81h9a12.0353,12.0353,0,0,1,12,12v12a9,9,0,1,0,18,0" style="fill:none;stroke:#000;stroke-linecap:round;stroke-linejoin:round;stroke-width:6px"/><rect width="144" height="144" style="fill:none"/></svg>