<svg xmlns="http://www.w3.org/2000/svg" viewBox="0 0 144 144"><path d="M141,123a6.0176,6.0176,0,0,1-6,6H9a6.0176,6.0176,0,0,1-6-6V15A6.0176,6.0176,0,0,1,9,9H135a6.0176,6.0176,0,0,1,6,6Z" style="fill:none;stroke:#000;stroke-linecap:round;stroke-linejoin:round;stroke-width:6px"/><path d="M112.3,52.5a13.2523,13.2523,0,1,1-26.5,0,13.2523,13.2523,0,1,1,26.5,0Z" style="fill:none;stroke:#000;stroke-linecap:round;stroke-linejoin:round;stroke-width:6px"/><path d="M99.1,48.1a4.4,4.4,0,1,0,4.4,4.4,4.4391,4.4391,0,0,0-4.4-4.4Z" style="fill:#000"/><polygon points="90 72 84 72 84 78 90 78 90 72" style="fill:#000"/><polygon points="102 72 96 72 96 78 102 78 102 72" style="fill:#000"/><polygon points="114 72 108 72 108 78 114 78 114 72" style="fill:#000"/><polygon points="90 84 84 84 84 90 90 90 90 84" style="fill:#000"/><polygon points="102 84 96 84 96 90 102 90 102 84" style="fill:#000"/><polygon points="114 84 108 84 108 90 114 90 114 84" style="fill:#000"/><polygon points="90 96 84 96 84 102 90 102 90 96" style="fill:#000"/><polygon points="102 96 96 96 96 102 102 102 102 96" style="fill:#000"/><polygon points="114 96 108 96 108 102 114 102 114 96" style="fill:#000"/><path d="M129,105a6.0176,6.0176,0,0,1-6,6H27a6.0176,6.0176,0,0,1-6-6V33a6.0176,6.0176,0,0,1,6-6h96a6.0176,6.0176,0,0,1,6,6Z" style="fill:none;stroke:#000;stroke-linecap:round;stroke-linejoin:round;stroke-width:6px"/><rect x="15" y="45" width="12" height="6" style="fill:none;stroke:#000;stroke-linecap:round;stroke-linejoin:round;stroke-width:6px"/><rect x="15" y="87" width="12" height="6" style="fill:none;stroke:#000;stroke-linecap:round;stroke-linejoin:round;stroke-width:6px"/><polyline points="18 129 18 135 27 135 27 129" style="fill:none;stroke:#000;stroke-linecap:round;stroke-linejoin:round;stroke-width:6px"/><polyline points="117 129 117 135 126 135 126 129" style="fill:none;stroke:#000;stroke-linecap:round;stroke-linejoin:round;stroke-width:6px"/><rect width="144" height="144" style="fill:none"/></svg>