<svg xmlns="http://www.w3.org/2000/svg" viewBox="0 0 144 144.1"><path d="M81,111a12.0353,12.0353,0,0,1-12,12H33a12.0353,12.0353,0,0,1-12-12V57A12.0353,12.0353,0,0,1,33,45H69A12.0353,12.0353,0,0,1,81,57Z" style="fill:none;stroke:#000;stroke-linejoin:round;stroke-width:6px"/><path d="M129,141.1V27A23.9424,23.9424,0,0,0,105,3H63V15a12,12,0,0,1-24,0V12" style="fill:none;stroke:#000;stroke-linecap:round;stroke-linejoin:round;stroke-width:6px"/><line x1="21" y1="63" x2="81" y2="63" style="fill:none;stroke:#000;stroke-linejoin:round;stroke-width:6px"/><line x1="51" y1="123" x2="51" y2="144" style="fill:none;stroke:#000;stroke-linejoin:round;stroke-width:6px"/><line x1="51" y1="27" x2="51" y2="45" style="fill:none;stroke:#000;stroke-linecap:round;stroke-linejoin:round;stroke-width:6px"/><line x1="60" y1="81" x2="81" y2="81" style="fill:none;stroke:#000;stroke-linecap:round;stroke-linejoin:round;stroke-width:6px"/><line x1="66" y1="93" x2="81" y2="93" style="fill:none;stroke:#000;stroke-linecap:round;stroke-linejoin:round;stroke-width:6px"/><line x1="60" y1="105" x2="81" y2="105" style="fill:none;stroke:#000;stroke-linecap:round;stroke-linejoin:round;stroke-width:6px"/><rect width="144" height="144" style="fill:none"/></svg>