<svg xmlns="http://www.w3.org/2000/svg" viewBox="0 0 144 144.0001"><path d="M99,27A24.0062,24.0062,0,0,0,75,3H69A23.9424,23.9424,0,0,0,45,26.8847c0,.0384,0,.0769,0,.1153V39a6.0176,6.0176,0,0,0,6,6H93a6.0176,6.0176,0,0,0,6-6Z" transform="translate(0 0.0001)" style="fill:none;stroke:#000;stroke-linejoin:round;stroke-width:6px"/><path d="M63,12a3,3,0,0,0-2.1,5.1A3.0493,3.0493,0,0,0,63,18a3,3,0,0,0,2.1-5.1A2.878,2.878,0,0,0,63,12Z" style="fill:#000" transform="translate(0 0.0001)"/><path d="M81,12a3,3,0,0,0-2.1,5.1A3.0493,3.0493,0,0,0,81,18a3,3,0,0,0,2.1-5.1A2.878,2.878,0,0,0,81,12Z" style="fill:#000" transform="translate(0 0.0001)"/><line x1="116.1" y1="93.0001" x2="27.8" y2="93.0001" style="fill:none;stroke:#000;stroke-linejoin:round;stroke-width:6px"/><line x1="27.5" y1="117.0001" x2="116.5" y2="117.0001" style="fill:none;stroke:#000;stroke-linejoin:round;stroke-width:6px"/><path d="M93,141c21.6,0,24-12,24-39S93,45,93,45H51S27,75,27,102s2.4,39,24,39Z" transform="translate(0 0.0001)" style="fill:none;stroke:#000;stroke-linejoin:round;stroke-width:6px"/><rect y="0.0001" width="144" height="144" style="fill:none"/></svg>