<svg xmlns="http://www.w3.org/2000/svg" viewBox="0 0 144 144"><path d="M63,141H3c0-21.5,6-60,30-60S63,119.5,63,141Z" style="fill:none;stroke:#000;stroke-linecap:round;stroke-linejoin:round;stroke-width:6px"/><path d="M27,90a3,3,0,1,0,3,3,2.9465,2.9465,0,0,0-3-3Z" style="fill:#000"/><path d="M39,90a3,3,0,1,0,3,3,2.9465,2.9465,0,0,0-3-3Z" style="fill:#000"/><path d="M135,93c0-6-6-12-12-12H87c-6,0-12,6-12,12v48h60Z" style="fill:none;stroke:#000;stroke-linecap:round;stroke-linejoin:round;stroke-width:6px"/><rect x="87" y="51" width="36" height="30" style="fill:none;stroke:#000;stroke-linecap:round;stroke-linejoin:round;stroke-width:6px"/><path d="M129,33H81V45a6.4523,6.4523,0,0,0,6,6h36a6.4523,6.4523,0,0,0,6-6Z" style="fill:none;stroke:#000;stroke-linecap:round;stroke-linejoin:round;stroke-width:6px"/><path d="M141,24a8.9626,8.9626,0,0,0-9-9H78a9.0264,9.0264,0,0,0-9,9h0a9.0919,9.0919,0,0,0,9,9h54a9.0264,9.0264,0,0,0,9-9Z" style="fill:none;stroke:#000;stroke-linecap:round;stroke-linejoin:round;stroke-width:6px"/><line x1="105" y1="15" x2="105" y2="3" style="fill:none;stroke:#000;stroke-linecap:round;stroke-linejoin:round;stroke-width:6px"/><line x1="99" y1="3" x2="111" y2="3" style="fill:none;stroke:#000;stroke-linecap:round;stroke-linejoin:round;stroke-width:6px"/><rect width="144" height="144" style="fill:none"/></svg>