<svg xmlns="http://www.w3.org/2000/svg" viewBox="0 0 144 144"><path d="M3,132a8.9626,8.9626,0,0,0,9,9H132a9,9,0,0,0,0-18H12A8.9626,8.9626,0,0,0,3,132Z" style="fill:none;stroke:#000;stroke-linejoin:round;stroke-width:6px"/><polygon points="110.6 93.5 96 123 123 123 123 99.4 110.6 93.5" style="fill:none;stroke:#000;stroke-linecap:round;stroke-linejoin:round;stroke-width:6px"/><path d="M69.6,123,89,83.5,77.2,77.7A32.7245,32.7245,0,0,1,54,87.1,33.3515,33.3515,0,0,1,28.5,75L12,99a20.9974,20.9974,0,0,1,21,21v3" style="fill:none;stroke:#000;stroke-linecap:round;stroke-linejoin:round;stroke-width:6px"/><path d="M141,12a8.9626,8.9626,0,0,0-9-9H12a9,9,0,0,0,0,18H132A8.9626,8.9626,0,0,0,141,12Z" style="fill:none;stroke:#000;stroke-linejoin:round;stroke-width:6px"/><polygon points="33.4 50.5 48 21 21 21 21 44.6 33.4 50.5" style="fill:none;stroke:#000;stroke-linecap:round;stroke-linejoin:round;stroke-width:6px"/><path d="M74.4,21,55,60.5l11.8,5.8A32.7245,32.7245,0,0,1,90,56.9,33.3515,33.3515,0,0,1,115.5,69L132,45a20.9974,20.9974,0,0,1-21-21V21" style="fill:none;stroke:#000;stroke-linecap:round;stroke-linejoin:round;stroke-width:6px"/><rect width="144" height="144" style="fill:none"/></svg>