<svg xmlns="http://www.w3.org/2000/svg" viewBox="0 0 144 144"><path d="M3.1,141H117a23.9424,23.9424,0,0,0,24-24v-3" style="fill:none;stroke:#000;stroke-linecap:round;stroke-linejoin:round;stroke-width:6px"/><path d="M136,96.8a11.9513,11.9513,0,0,1-11.4,8.2H30.4L3,33H36.4a11.9513,11.9513,0,0,1,11.4,8.2l3.8,11.4A23.8708,23.8708,0,0,0,74.3,69h54.4a12.0743,12.0743,0,0,1,11.4,15.8Z" style="fill:none;stroke:#000;stroke-linecap:round;stroke-linejoin:round;stroke-width:6px"/><path d="M19.4,45h16l3.8,11.4A35.9157,35.9157,0,0,0,73.3,81h54.4" style="fill:none;stroke:#000;stroke-linecap:round;stroke-linejoin:round;stroke-width:6px"/><line x1="39" y1="141" x2="48.4" y2="105" style="fill:none;stroke:#000;stroke-linecap:round;stroke-linejoin:round;stroke-width:6px"/><line x1="105" y1="141" x2="95.6" y2="105.1" style="fill:none;stroke:#000;stroke-linecap:round;stroke-linejoin:round;stroke-width:6px"/><rect width="144" height="144" style="fill:none"/></svg>