<svg xmlns="http://www.w3.org/2000/svg" viewBox="0 0 144 144"><path d="M27,117A23.9424,23.9424,0,0,1,3,93V51A23.9424,23.9424,0,0,1,27,27h90a23.9424,23.9424,0,0,1,24,24V93a23.9424,23.9424,0,0,1-24,24Z" style="fill:none;stroke:#000;stroke-linecap:round;stroke-linejoin:round;stroke-width:6px"/><path d="M105,111a6.0176,6.0176,0,0,1-6,6H87a6.0176,6.0176,0,0,1-6-6V39a6.0176,6.0176,0,0,1,6-6H99a6.0176,6.0176,0,0,1,6,6Z" style="fill:none;stroke:#000;stroke-linejoin:round;stroke-width:6px"/><path d="M87,129H84a6,6,0,0,0,0,12h18a6,6,0,0,0,0-12,8.9626,8.9626,0,0,1-9-9v-3" style="fill:none;stroke:#000;stroke-linecap:round;stroke-linejoin:round;stroke-width:6px"/><path d="M111,99a12.0353,12.0353,0,0,0,12-12V57a12.0353,12.0353,0,0,0-12-12" style="fill:none;stroke:#000;stroke-linecap:round;stroke-linejoin:round;stroke-width:6px"/><path d="M15,48a85.3858,85.3858,0,0,0,38.1,9H81V39H53.1A85.3858,85.3858,0,0,0,15,48Z" style="fill:none;stroke:#000;stroke-linecap:round;stroke-linejoin:round;stroke-width:6px"/><path d="M15,72a85.3858,85.3858,0,0,0,38.1,9H81V63H53.1A85.3858,85.3858,0,0,0,15,72Z" style="fill:none;stroke:#000;stroke-linecap:round;stroke-linejoin:round;stroke-width:6px"/><path d="M15,96a85.3858,85.3858,0,0,0,38.1,9H81V87H53.1A85.3858,85.3858,0,0,0,15,96Z" style="fill:none;stroke:#000;stroke-linecap:round;stroke-linejoin:round;stroke-width:6px"/><rect width="144" height="144" style="fill:none"/></svg>