<svg xmlns="http://www.w3.org/2000/svg" viewBox="0 0 144.05 144"><rect x="26.311" y="5.3209" width="23.9998" height="47.9995" transform="translate(-9.4619 35.6777) rotate(-45)" style="fill:none;stroke:#000;stroke-linecap:round;stroke-linejoin:round;stroke-width:5.999942240425611px"/><rect x="102.7245" y="81.6927" width="23.9998" height="47.9995" transform="translate(-41.083 112.101) rotate(-45.0081)" style="fill:none;stroke:#000;stroke-linecap:round;stroke-linejoin:round;stroke-width:5.999942553291428px"/><path d="M106.2,37.8a18.107,18.107,0,0,0-25.5,0L46.8,71.7,72.3,97.2l33.9-33.9A18.107,18.107,0,0,0,106.2,37.8Z" transform="translate(0.05)" style="fill:none;stroke:#000;stroke-linecap:round;stroke-linejoin:round;stroke-width:6px"/><path d="M59.5,84.4a23.901,23.901,0,0,0-33.9,0l33.9,33.9A23.901,23.901,0,0,0,59.5,84.4Z" transform="translate(0.05)" style="fill:none;stroke:#000;stroke-linecap:round;stroke-linejoin:round;stroke-width:6px"/><path d="M9.1,105.1a21.0011,21.0011,0,1,0,29.7,29.7" transform="translate(0.05)" style="fill:none;stroke:#000;stroke-linecap:round;stroke-linejoin:round;stroke-width:6px"/><path d="M20.5,111.1a8.98,8.98,0,0,0,12.7,12.7" transform="translate(0.05)" style="fill:none;stroke:#000;stroke-linecap:round;stroke-linejoin:round;stroke-width:6px"/><line x1="55.35" y1="46.3" x2="63.85" y2="54.8" style="fill:none;stroke:#000;stroke-linecap:round;stroke-linejoin:round;stroke-width:6px"/><line x1="89.25" y1="80.2" x2="97.75" y2="88.7" style="fill:none;stroke:#000;stroke-linecap:round;stroke-linejoin:round;stroke-width:6px"/><line x1="106.25" y1="37.8" x2="116.85" y2="27.2" style="fill:none;stroke:#000;stroke-linecap:round;stroke-linejoin:round;stroke-width:6px"/><path d="M121.9,25.1a2.9465,2.9465,0,0,1-3,3h0a2.9465,2.9465,0,0,1-3-3h0a2.9465,2.9465,0,0,1,3-3h0a2.9465,2.9465,0,0,1,3,3Z" transform="translate(0.05)" style="fill:none;stroke:#000;stroke-linejoin:round;stroke-width:6px"/><rect x="0.05" width="144" height="144" style="fill:none"/></svg>