<svg xmlns="http://www.w3.org/2000/svg" viewBox="0 0 144 144"><rect x="88.0882" y="13.5478" width="35.9997" height="23.9998" transform="translate(13.0236 82.5247) rotate(-45.0162)" style="fill:none;stroke:#000;stroke-linejoin:round;stroke-width:5.999942733317123px"/><rect x="7.4793" y="94.1426" width="35.9997" height="23.9998" transform="translate(-67.5914 49.1049) rotate(-45)" style="fill:none;stroke:#000;stroke-linejoin:round;stroke-width:5.999942240425611px"/><path d="M51,51a27.1,27.1,0,0,0,0,38.2L89.2,51A27.1,27.1,0,0,0,51,51Z" style="fill:none;stroke:#000;stroke-linejoin:round;stroke-width:6px"/><path d="M78.7,61.5c4.7,4.7,5,12.8.3,17.4-4.7,4.7-12.6,4.3-17.3-.4" style="fill:none;stroke:#000;stroke-linecap:round;stroke-linejoin:round;stroke-width:6px"/><path d="M100.1,66a29.9471,29.9471,0,0,1-33.9,34.1" style="fill:none;stroke:#000;stroke-linecap:round;stroke-linejoin:round;stroke-width:6px"/><path d="M118.2,65.1a47.9915,47.9915,0,0,1-53.1,53" style="fill:none;stroke:#000;stroke-linecap:round;stroke-linejoin:round;stroke-width:6px"/><path d="M135.5,58.9c7.9,44.9-30.9,84.1-75.9,76.6" style="fill:none;stroke:#000;stroke-linecap:round;stroke-linejoin:round;stroke-width:6px"/><rect width="144" height="144" style="fill:none"/></svg>