<svg xmlns="http://www.w3.org/2000/svg" viewBox="0 0 144 144"><line x1="63" y1="51" x2="75" y2="51" style="fill:none;stroke:#000;stroke-linecap:round;stroke-linejoin:round;stroke-width:6px"/><line x1="63" y1="63" x2="75" y2="63" style="fill:none;stroke:#000;stroke-linecap:round;stroke-linejoin:round;stroke-width:6px"/><line x1="63" y1="75" x2="75" y2="75" style="fill:none;stroke:#000;stroke-linecap:round;stroke-linejoin:round;stroke-width:6px"/><path d="M21,3A18.0529,18.0529,0,0,1,39,21v84c0,19.9,21,36,42,36s42-16.1,42-36V84a8.9626,8.9626,0,0,1,9-9L87,30V87a9,9,0,0,1-18,0V39C69,19.1,40.9,3,21,3H9" style="fill:none;stroke:#000;stroke-linecap:round;stroke-linejoin:round;stroke-width:6px"/><rect width="144" height="144" style="fill:none"/></svg>