<svg xmlns="http://www.w3.org/2000/svg" viewBox="0 0 144 144"><line x1="69" y1="42" x2="69" y2="135" style="fill:none;stroke:#000;stroke-linecap:round;stroke-linejoin:round;stroke-width:6px"/><line x1="54" y1="135" x2="84" y2="135" style="fill:none;stroke:#000;stroke-linecap:round;stroke-linejoin:round;stroke-width:6px"/><polyline points="3 99 24 54.2 45 99" style="fill:none;stroke:#000;stroke-linecap:round;stroke-linejoin:round;stroke-width:6px"/><path d="M78,33a9,9,0,0,1-18,0,9,9,0,0,1,18,0Z" style="fill:none;stroke:#000;stroke-linecap:round;stroke-linejoin:round;stroke-width:6px"/><path d="M24,120c11.3,0,21-8.3,21-21H3C3,111.7,12.7,120,24,120Z" style="fill:none;stroke:#000;stroke-linecap:round;stroke-linejoin:round;stroke-width:6px"/><polyline points="135 63 114 17.8 93 63" style="fill:none;stroke:#000;stroke-linecap:round;stroke-linejoin:round;stroke-width:6px"/><path d="M114,84c-11.3,0-21-8.3-21-21h42C135,75.7,125.3,84,114,84Z" style="fill:none;stroke:#000;stroke-linecap:round;stroke-linejoin:round;stroke-width:6px"/><line x1="78" y1="32.4" x2="126.3" y2="12.8" style="fill:none;stroke:#000;stroke-linecap:round;stroke-linejoin:round;stroke-width:6px"/><line x1="11.7" y1="59.2" x2="62.2" y2="38.8" style="fill:none;stroke:#000;stroke-linecap:round;stroke-linejoin:round;stroke-width:6px"/><rect width="144" height="144" style="fill:none"/></svg>