<svg xmlns="http://www.w3.org/2000/svg" viewBox="0 0 144 144"><path d="M16.3,47.8A48.0251,48.0251,0,0,0,51,129H93a48.0493,48.0493,0,0,0,42-71.3V15a2.9465,2.9465,0,0,0-3-3,2.98,2.98,0,0,0-2.4,1.2L111,36" style="fill:none;stroke:#000;stroke-linecap:round;stroke-linejoin:round;stroke-width:6px"/><path d="M9,57V15a2.9465,2.9465,0,0,1,3-3,2.7235,2.7235,0,0,1,2.1.9l22.3,21A69.0312,69.0312,0,0,1,120,43.4" style="fill:none;stroke:#000;stroke-linecap:round;stroke-linejoin:round;stroke-width:6px"/><line x1="75" y1="63" x2="75" y2="78" style="fill:none;stroke:#000;stroke-linecap:round;stroke-linejoin:round;stroke-width:6px"/><line x1="117" y1="63" x2="117" y2="78" style="fill:none;stroke:#000;stroke-linecap:round;stroke-linejoin:round;stroke-width:6px"/><path d="M111,103.5a12,12,0,0,1-24,0V93h24Z" style="fill:none;stroke:#000;stroke-linecap:round;stroke-linejoin:round;stroke-width:6px"/><line x1="69" y1="90" x2="60" y2="99" style="fill:none;stroke:#000;stroke-linecap:round;stroke-linejoin:round;stroke-width:6px"/><line x1="57" y1="90" x2="48" y2="99" style="fill:none;stroke:#000;stroke-linecap:round;stroke-linejoin:round;stroke-width:6px"/><line x1="120" y1="90" x2="129" y2="99" style="fill:none;stroke:#000;stroke-linecap:round;stroke-linejoin:round;stroke-width:6px"/><line x1="132" y1="90" x2="138" y2="96" style="fill:none;stroke:#000;stroke-linecap:round;stroke-linejoin:round;stroke-width:6px"/><rect width="144" height="144" style="fill:none"/></svg>