<svg xmlns="http://www.w3.org/2000/svg" viewBox="0 0 144 144"><polyline points="39 15 111 15 111 27" style="fill:none;stroke:#000;stroke-linecap:round;stroke-linejoin:round;stroke-width:6px"/><path d="M123,27V3H39a12,12,0,0,0,0,24h90V141H39a12.0353,12.0353,0,0,1-12-12V15" style="fill:none;stroke:#000;stroke-linecap:round;stroke-linejoin:round;stroke-width:6px"/><path d="M69,75V60a9,9,0,0,1,18,0V75" style="fill:none;stroke:#000;stroke-linecap:round;stroke-linejoin:round;stroke-width:6px"/><line x1="69" y1="69" x2="87" y2="69" style="fill:none;stroke:#000;stroke-linecap:round;stroke-linejoin:round;stroke-width:6px"/><path d="M45,105H57a6,6,0,0,1,0,12H45V93H57a6,6,0,0,1,0,12H45" style="fill:none;stroke:#000;stroke-linecap:round;stroke-linejoin:round;stroke-width:6px"/><path d="M111,117h-6a12,12,0,0,1,0-24h6" style="fill:none;stroke:#000;stroke-linecap:round;stroke-linejoin:round;stroke-width:6px"/><rect width="144" height="144" style="fill:none"/></svg>