<svg xmlns="http://www.w3.org/2000/svg" viewBox="0 0 144 144"><path d="M72,83.5c5.3,0,1.8,3.5,12.3,3.5s21.1-21.1,21.1-35.2S96.6,27.1,86,27.1s-10.5,3.5-14,3.5S65.1,27,57,27c0,27-18.5,24.8-18.5,24.8C38.5,65.9,49.1,87,59.7,87,70.2,87,66.7,83.5,72,83.5Z" style="fill:none;stroke:#000;stroke-linejoin:round;stroke-width:6px"/><path d="M72,30.6V22a7.02,7.02,0,0,0-7-7H58" style="fill:none;stroke:#000;stroke-linecap:round;stroke-linejoin:round;stroke-width:6px"/><path d="M80.1,18.9A15.8762,15.8762,0,0,0,96,3,15.8762,15.8762,0,0,0,80.1,18.9Z" style="fill:none;stroke:#000;stroke-linejoin:round;stroke-width:6px"/><path d="M3,135H33a12.0353,12.0353,0,0,0,12-12V111A12.0353,12.0353,0,0,0,33,99H3" style="fill:none;stroke:#000;stroke-linecap:round;stroke-linejoin:round;stroke-width:6px"/><path d="M33,135h99c6.6,0,9-5.4,9-12V111c0-6.6-2.4-12-9-12H33" style="fill:none;stroke:#000;stroke-linejoin:round;stroke-width:6px"/><line x1="117" y1="99" x2="117" y2="135" style="fill:none;stroke:#000;stroke-linejoin:round;stroke-width:6px"/><line x1="105" y1="99" x2="105" y2="135" style="fill:none;stroke:#000;stroke-linejoin:round;stroke-width:6px"/><line x1="81" y1="99" x2="81" y2="135" style="fill:none;stroke:#000;stroke-linejoin:round;stroke-width:6px"/><line x1="69" y1="99" x2="69" y2="135" style="fill:none;stroke:#000;stroke-linejoin:round;stroke-width:6px"/><line x1="33" y1="123" x2="9" y2="123" style="fill:none;stroke:#000;stroke-linecap:round;stroke-linejoin:round;stroke-width:6px"/><line x1="33" y1="111" x2="9" y2="111" style="fill:none;stroke:#000;stroke-linecap:round;stroke-linejoin:round;stroke-width:6px"/><rect width="144" height="144" style="fill:none"/></svg>