<svg xmlns="http://www.w3.org/2000/svg" viewBox="0 0 144 144"><path d="M22.5,63A48.0106,48.0106,0,1,1,117,51a47.5412,47.5412,0,0,1-1.5,12" style="fill:none;stroke:#000;stroke-linecap:round;stroke-linejoin:round;stroke-width:6px"/><path d="M60.5,72c2.2-11.1,9.4-27.4-10.2-27.4-6.1,0-7-7.9-7-7.9,0-18,20.4-20.7,20.4-14.3,4.1,4.1,12.2-6.7,12.2-6.7L69.6,3" style="fill:none;stroke:#000;stroke-linecap:round;stroke-linejoin:round;stroke-width:6px"/><path d="M104.2,19S87,24.4,88.8,25.4c16,9.6-2.6,22.8-2.6,24.4,0,2,5.7,10.9,2.6,14A28.9166,28.9166,0,0,0,84.7,69" style="fill:none;stroke:#000;stroke-linecap:round;stroke-linejoin:round;stroke-width:6px"/><path d="M69,84c0-9,18.9-21,54-21v57c-35.1,0-54,12-54,21,0-9-18.9-21-54-21V63C50.1,63,69,75,69,84Z" style="fill:none;stroke:#000;stroke-linecap:round;stroke-linejoin:round;stroke-width:6px"/><line x1="69" y1="84" x2="69" y2="140.2" style="fill:none;stroke:#000;stroke-linecap:round;stroke-linejoin:round;stroke-width:6px"/><path d="M57,88.4a122.7936,122.7936,0,0,0-26.9-6.3" style="fill:none;stroke:#000;stroke-linecap:round;stroke-linejoin:round;stroke-width:6px"/><path d="M57,106.4a123.4379,123.4379,0,0,0-27.1-6.3" style="fill:none;stroke:#000;stroke-linecap:round;stroke-linejoin:round;stroke-width:6px"/><path d="M81,88.4a123.4379,123.4379,0,0,1,27.1-6.3" style="fill:none;stroke:#000;stroke-linecap:round;stroke-linejoin:round;stroke-width:6px"/><path d="M81,106.4a123.4379,123.4379,0,0,1,27.1-6.3" style="fill:none;stroke:#000;stroke-linecap:round;stroke-linejoin:round;stroke-width:6px"/><rect width="144" height="144" style="fill:none"/></svg>