<svg xmlns="http://www.w3.org/2000/svg" viewBox="0 0 144 144"><path d="M51,110.4C38.7,105.5,21.5,102,3,102V3c35.1,0,66,9.4,66,21C69,12.4,99.9,3,135,3v99c-2,0-6,.1-6,.1" style="fill:none;stroke:#000;stroke-linecap:round;stroke-linejoin:round;stroke-width:6px"/><line x1="69" y1="24" x2="69" y2="27" style="fill:none;stroke:#000;stroke-linecap:round;stroke-linejoin:round;stroke-width:6px"/><path d="M54,37.4C44.3,33.7,30.7,31,15,30" style="fill:none;stroke:#000;stroke-linecap:round;stroke-linejoin:round;stroke-width:6px"/><path d="M42.1,51.9A166.2359,166.2359,0,0,0,15,48" style="fill:none;stroke:#000;stroke-linecap:round;stroke-linejoin:round;stroke-width:6px"/><path d="M35.6,68.5A173.4,173.4,0,0,0,15,66" style="fill:none;stroke:#000;stroke-linecap:round;stroke-linejoin:round;stroke-width:6px"/><path d="M36.5,86.7A165.8639,165.8639,0,0,0,15,84" style="fill:none;stroke:#000;stroke-linecap:round;stroke-linejoin:round;stroke-width:6px"/><path d="M99.2,33.1A174.5387,174.5387,0,0,1,123,30" style="fill:none;stroke:#000;stroke-linecap:round;stroke-linejoin:round;stroke-width:6px"/><path d="M116.5,48.5c2.1-.2,4.3-.4,6.5-.5" style="fill:none;stroke:#000;stroke-linecap:round;stroke-linejoin:round;stroke-width:6px"/><circle cx="81" cy="75" r="36" style="fill:none;stroke:#000;stroke-linejoin:round;stroke-width:6px"/><line x1="106.6" y1="100.6" x2="141" y2="135" style="fill:none;stroke:#000;stroke-linecap:round;stroke-linejoin:round;stroke-width:6px"/><polyline points="69 75 69 63 93 63 93 75" style="fill:none;stroke:#000;stroke-linecap:round;stroke-linejoin:round;stroke-width:6px"/><line x1="81" y1="63" x2="81" y2="93" style="fill:none;stroke:#000;stroke-linecap:round;stroke-linejoin:round;stroke-width:6px"/><line x1="72" y1="93" x2="90" y2="93" style="fill:none;stroke:#000;stroke-linecap:round;stroke-linejoin:round;stroke-width:6px"/><rect width="144" height="144" style="fill:none"/></svg>