<svg xmlns="http://www.w3.org/2000/svg" viewBox="0 0 144 144"><path d="M141,105a6.0176,6.0176,0,0,1-6,6H9a6.0176,6.0176,0,0,1-6-6V15A6.0176,6.0176,0,0,1,9,9H135a6.0176,6.0176,0,0,1,6,6Z" style="fill:none;stroke:#000;stroke-linejoin:round;stroke-width:6px"/><line x1="42" y1="129" x2="102" y2="129" style="fill:none;stroke:#000;stroke-linecap:round;stroke-linejoin:round;stroke-width:6px"/><line x1="63" y1="111" x2="63" y2="129" style="fill:none;stroke:#000;stroke-linejoin:round;stroke-width:6px"/><line x1="81" y1="111" x2="81" y2="129" style="fill:none;stroke:#000;stroke-linejoin:round;stroke-width:6px"/><polygon points="75 66 117 48 75 30 33 48 75 66" style="fill:none;stroke:#000;stroke-linecap:round;stroke-linejoin:round;stroke-width:6px"/><polyline points="51 57 51 78 75 90 99 78 99 57" style="fill:none;stroke:#000;stroke-linecap:round;stroke-linejoin:round;stroke-width:6px"/><line x1="33" y1="48" x2="33" y2="69" style="fill:none;stroke:#000;stroke-linecap:round;stroke-linejoin:round;stroke-width:6px"/><polyline points="33 69 27 87 39 87 33 69" style="fill:none;stroke:#000;stroke-linecap:round;stroke-linejoin:round;stroke-width:6px"/><rect width="144" height="144" style="fill:none"/></svg>