<svg xmlns="http://www.w3.org/2000/svg" viewBox="0 0 144 144"><line x1="15" y1="6" x2="15" y2="141" style="fill:none;stroke:#000;stroke-linecap:round;stroke-linejoin:round;stroke-width:6px"/><line x1="15" y1="21" x2="51" y2="21" style="fill:none;stroke:#000;stroke-linecap:round;stroke-linejoin:round;stroke-width:6px"/><polyline points="72 15 51 15 51 33 123 33" style="fill:none;stroke:#000;stroke-linecap:round;stroke-linejoin:round;stroke-width:6px"/><polyline points="105 21 105 3 87 3 87 21" style="fill:none;stroke:#000;stroke-linecap:round;stroke-linejoin:round;stroke-width:6px"/><path d="M87,45v7.3a33,33,0,1,0,18,0V45" style="fill:none;stroke:#000;stroke-linecap:round;stroke-linejoin:round;stroke-width:6px"/><circle cx="111" cy="93" r="6" style="fill:none;stroke:#000;stroke-linecap:round;stroke-linejoin:round;stroke-width:6px"/><circle cx="79.5" cy="88.5" r="1.5" style="fill:none;stroke:#000;stroke-linecap:round;stroke-linejoin:round;stroke-width:6px"/><circle cx="93" cy="99" r="3" style="fill:none;stroke:#000;stroke-linecap:round;stroke-linejoin:round;stroke-width:6px"/><line x1="66" y1="75" x2="126" y2="75" style="fill:none;stroke:#000;stroke-linejoin:round;stroke-width:6px"/><polygon points="69 141 15 141 15 129 60 129 69 141" style="fill:none;stroke:#000;stroke-linejoin:round;stroke-width:6px"/><rect width="144" height="144" style="fill:none"/></svg>