<svg xmlns="http://www.w3.org/2000/svg" viewBox="0 0 144 144"><circle cx="75" cy="63" r="42" style="fill:none;stroke:#000;stroke-miterlimit:10;stroke-width:6px"/><polyline points="57 102 57 117 93 117 93 102" style="fill:none;stroke:#000;stroke-linejoin:round;stroke-width:6px"/><rect x="63" y="117" width="24" height="12" style="fill:none;stroke:#000;stroke-linejoin:round;stroke-width:6px"/><line x1="75" y1="129" x2="75" y2="141" style="fill:none;stroke:#000;stroke-linecap:round;stroke-linejoin:round;stroke-width:6px"/><line x1="75" y1="3" x2="75" y2="9" style="fill:none;stroke:#000;stroke-linecap:round;stroke-linejoin:round;stroke-width:6px"/><line x1="117.4" y1="20.6" x2="113.2" y2="24.8" style="fill:none;stroke:#000;stroke-linecap:round;stroke-linejoin:round;stroke-width:6px"/><line x1="135" y1="63" x2="129" y2="63" style="fill:none;stroke:#000;stroke-linecap:round;stroke-linejoin:round;stroke-width:6px"/><line x1="117.4" y1="105.4" x2="113.2" y2="101.2" style="fill:none;stroke:#000;stroke-linecap:round;stroke-linejoin:round;stroke-width:6px"/><line x1="32.6" y1="20.6" x2="36.8" y2="24.8" style="fill:none;stroke:#000;stroke-linecap:round;stroke-linejoin:round;stroke-width:6px"/><line x1="15" y1="63" x2="21" y2="63" style="fill:none;stroke:#000;stroke-linecap:round;stroke-linejoin:round;stroke-width:6px"/><line x1="32.6" y1="105.4" x2="36.8" y2="101.2" style="fill:none;stroke:#000;stroke-linecap:round;stroke-linejoin:round;stroke-width:6px"/><path d="M78,102l7.6-33.1A7.605,7.605,0,0,1,93,63a6,6,0,0,1,0,12H57a6,6,0,0,1,0-12,7.5837,7.5837,0,0,1,7.4,5.9L72,102" style="fill:none;stroke:#000;stroke-linecap:round;stroke-linejoin:round;stroke-width:6px"/><rect width="144" height="144" style="fill:none"/></svg>