<svg xmlns="http://www.w3.org/2000/svg" viewBox="0 0 144 144"><path d="M119.1,46a48.2843,48.2843,0,0,0,21-2.5" style="fill:none;stroke:#000;stroke-linecap:round;stroke-miterlimit:10;stroke-width:6px"/><path d="M42.7,141a48.1453,48.1453,0,0,0-1-35C34,88.1,38.5,66.8,52.3,53a48.8325,48.8325,0,0,1,40-14" style="fill:none;stroke:#000;stroke-linecap:round;stroke-miterlimit:10;stroke-width:6px"/><path d="M56.3,109.6A49.12,49.12,0,0,0,94.7,95.4c13.8-13.8,18.3-35.1,10.6-53a47.3669,47.3669,0,0,1-1-34.9" style="fill:none;stroke:#000;stroke-linecap:round;stroke-miterlimit:10;stroke-width:6px"/><path d="M6.8,104.9a47.2491,47.2491,0,0,1,22.4-2.4" style="fill:none;stroke:#000;stroke-linecap:round;stroke-miterlimit:10;stroke-width:6px"/><line x1="77.7" y1="40.2" x2="107.4" y2="69.9" style="fill:none;stroke:#000;stroke-linecap:round;stroke-miterlimit:10;stroke-width:6px"/><line x1="102.3" y1="13.9" x2="133.7" y2="45.4" style="fill:none;stroke:#000;stroke-miterlimit:10;stroke-width:6px"/><line x1="13.1" y1="102.9" x2="44.7" y2="134.5" style="fill:none;stroke:#000;stroke-miterlimit:10;stroke-width:6px"/><line x1="59.6" y1="47.6" x2="100" y2="88" style="fill:none;stroke:#000;stroke-linecap:round;stroke-miterlimit:10;stroke-width:6px"/><line x1="38.6" y1="77.6" x2="70.1" y2="109" style="fill:none;stroke:#000;stroke-miterlimit:10;stroke-width:6px"/><line x1="46.9" y1="60.3" x2="87.3" y2="100.8" style="fill:none;stroke:#000;stroke-miterlimit:10;stroke-width:6px"/><rect width="144" height="144" style="fill:none"/></svg>