<svg xmlns="http://www.w3.org/2000/svg" viewBox="0 0 144 144"><path d="M117,54a8.9626,8.9626,0,0,1-9,9H36a8.9626,8.9626,0,0,1-9-9V18a8.9626,8.9626,0,0,1,9-9h72a8.9626,8.9626,0,0,1,9,9Z" style="fill:none;stroke:#000;stroke-linecap:round;stroke-linejoin:round;stroke-width:6px"/><circle cx="48" cy="36" r="9" style="fill:none;stroke:#000;stroke-linecap:round;stroke-linejoin:round;stroke-width:6px"/><circle cx="96" cy="36" r="9" style="fill:none;stroke:#000;stroke-linecap:round;stroke-linejoin:round;stroke-width:6px"/><line x1="63" y1="75" x2="81" y2="75" style="fill:none;stroke:#000;stroke-linecap:round;stroke-linejoin:round;stroke-width:6px"/><line x1="63" y1="87" x2="81" y2="87" style="fill:none;stroke:#000;stroke-linecap:round;stroke-linejoin:round;stroke-width:6px"/><polygon points="117 99 27 99 36 141 108 141 117 99" style="fill:none;stroke:#000;stroke-linecap:round;stroke-linejoin:round;stroke-width:6px"/><polyline points="114 117 135 100.5 132 87" style="fill:none;stroke:#000;stroke-linejoin:round;stroke-width:6px"/><path d="M138,63a14.76,14.76,0,0,1,3,9,15,15,0,0,1-27,9" style="fill:none;stroke:#000;stroke-linecap:round;stroke-linejoin:round;stroke-width:6px"/><polyline points="30 117 9 100.5 12 87" style="fill:none;stroke:#000;stroke-linejoin:round;stroke-width:6px"/><path d="M6,63a14.76,14.76,0,0,0-3,9,15,15,0,0,0,27,9" style="fill:none;stroke:#000;stroke-linecap:round;stroke-linejoin:round;stroke-width:6px"/><rect x="51" y="117" width="42" height="24" style="fill:none;stroke:#000;stroke-linejoin:round;stroke-width:6px"/><rect width="144" height="144" style="fill:none"/></svg>