<svg xmlns="http://www.w3.org/2000/svg" viewBox="0 0 144.019 144"><path d="M69,99H51c-9.5,0-17.2-4.4-17.9-13.8C25.9,91.8,3,78,3,57S22.3,22,30,26.5A18.019,18.019,0,0,1,48,9a17.7982,17.7982,0,0,1,13.5,6.2,17.8349,17.8349,0,0,1,30.3,5.6A17.9758,17.9758,0,0,1,123,33a18.0529,18.0529,0,0,1,18,18,17.7982,17.7982,0,0,1-6.2,13.5,17.9074,17.9074,0,0,1-21.1,28.8A17.98,17.98,0,0,1,99,107.7V135H81V107.8A20.784,20.784,0,0,1,101.8,87h.2" style="fill:none;stroke:#000;stroke-linecap:round;stroke-linejoin:round;stroke-width:6px"/><path d="M81.1,111.5A17.761,17.761,0,0,1,72,114c-15,0-21.5-8.1-24-15" style="fill:none;stroke:#000;stroke-linecap:round;stroke-linejoin:round;stroke-width:6px"/><path d="M135,66s-24,9-39-6" style="fill:none;stroke:#000;stroke-linecap:round;stroke-linejoin:round;stroke-width:6px"/><path d="M6,45.2s27-3,33,12" style="fill:none;stroke:#000;stroke-linecap:round;stroke-linejoin:round;stroke-width:6px"/><path d="M63,15V30a9,9,0,0,0,18,0" style="fill:none;stroke:#000;stroke-linecap:round;stroke-linejoin:round;stroke-width:6px"/><path d="M63,15V30a9,9,0,0,1-18,0" style="fill:none;stroke:#000;stroke-linecap:round;stroke-linejoin:round;stroke-width:6px"/><path d="M54,99S51,72,69,66" style="fill:none;stroke:#000;stroke-linecap:round;stroke-linejoin:round;stroke-width:6px"/><path d="M117,66s6-12,0-21" style="fill:none;stroke:#000;stroke-linecap:round;stroke-linejoin:round;stroke-width:6px"/><rect width="144" height="144" style="fill:none"/></svg>