<svg xmlns="http://www.w3.org/2000/svg" viewBox="0 0 144 144"><path d="M69,58.8V15H45V58.8a42,42,0,1,0,24,0Z" style="fill:none;stroke:#000;stroke-linejoin:round;stroke-width:6px"/><path d="M95.4,132a18.0073,18.0073,0,0,0,33.6-9V21H93V60" style="fill:none;stroke:#000;stroke-linecap:round;stroke-linejoin:round;stroke-width:6px"/><line x1="18" y1="111" x2="96" y2="111" style="fill:none;stroke:#000;stroke-linecap:round;stroke-linejoin:round;stroke-width:6px"/><path d="M75,9a6.0176,6.0176,0,0,0-6-6H45a6,6,0,0,0,0,12H69A6.0176,6.0176,0,0,0,75,9Z" style="fill:none;stroke:#000;stroke-linejoin:round;stroke-width:6px"/><line x1="129" y1="51" x2="111" y2="51" style="fill:none;stroke:#000;stroke-linecap:round;stroke-linejoin:round;stroke-width:6px"/><line x1="129" y1="69" x2="120" y2="69" style="fill:none;stroke:#000;stroke-linecap:round;stroke-linejoin:round;stroke-width:6px"/><line x1="129" y1="87" x2="111" y2="87" style="fill:none;stroke:#000;stroke-linecap:round;stroke-linejoin:round;stroke-width:6px"/><line x1="129" y1="105" x2="120" y2="105" style="fill:none;stroke:#000;stroke-linecap:round;stroke-linejoin:round;stroke-width:6px"/><rect width="144" height="144" style="fill:none"/></svg>