<svg xmlns="http://www.w3.org/2000/svg" viewBox="0 0 144 144"><circle cx="72" cy="72" r="69" style="fill:none;stroke:#000;stroke-miterlimit:10;stroke-width:6px"/><line x1="72" y1="21" x2="72" y2="53.2" style="fill:none;stroke:#000;stroke-linejoin:round;stroke-width:6px"/><path d="M89.1,83.4l24.8,11.7a74.4969,74.4969,0,0,1-83.8,0L54.9,83.4" style="fill:none;stroke:#000;stroke-linejoin:round;stroke-width:6px"/><path d="M113.9,95.1A86.4434,86.4434,0,0,0,72,21,86.5693,86.5693,0,0,0,30.1,95.1" style="fill:none;stroke:#000;stroke-linejoin:round;stroke-width:6px"/><path d="M54.9,83.4A35.1527,35.1527,0,0,1,72,53.2,35.2448,35.2448,0,0,1,89.1,83.4a30.7163,30.7163,0,0,1-34.2,0Z" style="fill:none;stroke:#000;stroke-linejoin:round;stroke-width:6px"/><rect width="144" height="144" style="fill:none"/></svg>