<svg xmlns="http://www.w3.org/2000/svg" viewBox="0 0 144 144"><polygon points="33 9 45 3 57 9 57 23.8 45 30 33 23.8 33 9" style="fill:none;stroke:#000;stroke-linejoin:round;stroke-width:6px"/><polygon points="21 93 48 78 75 93 75 120 48 135 21 120 21 93" style="fill:none;stroke:#000;stroke-linejoin:round;stroke-width:6px"/><polygon points="87 36 107.8 24 129 36 129 57 108 69 87 57 87 36" style="fill:none;stroke:#000;stroke-linejoin:round;stroke-width:6px"/><line x1="75.5" y1="93.3" x2="108" y2="69" style="fill:none;stroke:#000;stroke-miterlimit:10;stroke-width:6px"/><line x1="87" y1="36" x2="57" y2="24" style="fill:none;stroke:#000;stroke-miterlimit:10;stroke-width:6px"/><polyline points="33 111 33 99 45 93" style="fill:none;stroke:#000;stroke-linecap:round;stroke-linejoin:round;stroke-width:6px"/><polyline points="99 51 99 42 105 39" style="fill:none;stroke:#000;stroke-linecap:round;stroke-linejoin:round;stroke-width:6px"/><rect width="144" height="144" style="fill:none"/></svg>