<svg xmlns="http://www.w3.org/2000/svg" viewBox="0 0 144 144"><polyline points="39 54 75 81 111 54" style="fill:none;stroke:#000;stroke-linecap:round;stroke-linejoin:round;stroke-width:6px"/><line x1="75" y1="81" x2="75" y2="111" style="fill:none;stroke:#000;stroke-linecap:round;stroke-linejoin:round;stroke-width:6px"/><path d="M39,54C34.4,36.3,48.3,9,75,9c26.4,0,40.7,27.1,36,45" style="fill:none;stroke:#000;stroke-linecap:round;stroke-linejoin:round;stroke-width:6px"/><path d="M111,54c17.1,2.8,30,18.1,30,36a35.9773,35.9773,0,0,1-36,36c-12.6,0-23.6-5.1-30-15" style="fill:none;stroke:#000;stroke-linecap:round;stroke-linejoin:round;stroke-width:6px"/><path d="M75,111c-6.4,9.7-17.5,15-30,15A35.9773,35.9773,0,0,1,9,90C9,72.1,21.9,56.8,39,54" style="fill:none;stroke:#000;stroke-linecap:round;stroke-linejoin:round;stroke-width:6px"/><rect width="144" height="144" style="fill:none"/></svg>