<svg xmlns="http://www.w3.org/2000/svg" viewBox="0 0 144 144"><path d="M28.2,116.1a11.8112,11.8112,0,0,0-.8,12.4A12.0751,12.0751,0,0,0,38.1,135H106a12.0366,12.0366,0,0,0,9.8-18.9L87,69V21H57V69Z" style="fill:none;stroke:#000;stroke-linejoin:round;stroke-width:6px"/><path d="M99,15a6.0176,6.0176,0,0,1-6,6H51A6,6,0,0,1,51,9H93A6.0176,6.0176,0,0,1,99,15Z" style="fill:none;stroke:#000;stroke-linejoin:round;stroke-width:6px"/><line x1="87" y1="33" x2="75" y2="33" style="fill:none;stroke:#000;stroke-linecap:round;stroke-linejoin:round;stroke-width:6px"/><line x1="87" y1="57" x2="75" y2="57" style="fill:none;stroke:#000;stroke-linecap:round;stroke-linejoin:round;stroke-width:6px"/><line x1="87" y1="45" x2="69" y2="45" style="fill:none;stroke:#000;stroke-linecap:round;stroke-linejoin:round;stroke-width:6px"/><line x1="42" y1="93" x2="102" y2="93" style="fill:none;stroke:#000;stroke-linejoin:round;stroke-width:6px"/><circle cx="93" cy="123" r="3" style="fill:none;stroke:#000;stroke-linecap:round;stroke-linejoin:round;stroke-width:6px"/><circle cx="79.5" cy="106.5" r="1.5" style="fill:none;stroke:#000;stroke-linecap:round;stroke-linejoin:round;stroke-width:6px"/><circle cx="57" cy="114" r="9" style="fill:none;stroke:#000;stroke-linecap:round;stroke-linejoin:round;stroke-width:6px"/><rect width="144" height="144" style="fill:none"/></svg>