<svg xmlns="http://www.w3.org/2000/svg" viewBox="0 0 144 144"><path d="M33,105V21A18.0529,18.0529,0,0,1,51,3h75" style="fill:none;stroke:#000;stroke-linecap:round;stroke-linejoin:round;stroke-width:6px"/><line x1="54" y1="33" x2="87" y2="33" style="fill:none;stroke:#000;stroke-linecap:round;stroke-linejoin:round;stroke-width:6px"/><line x1="54" y1="51" x2="87" y2="51" style="fill:none;stroke:#000;stroke-linecap:round;stroke-linejoin:round;stroke-width:6px"/><line x1="54" y1="69" x2="87" y2="69" style="fill:none;stroke:#000;stroke-linecap:round;stroke-linejoin:round;stroke-width:6px"/><line x1="54" y1="87" x2="87" y2="87" style="fill:none;stroke:#000;stroke-linecap:round;stroke-linejoin:round;stroke-width:6px"/><path d="M93,141H21a18,18,0,0,1,0-36H93a18,18,0,1,0,18,18V18A14.98,14.98,0,0,1,126,3c8.3,0,15,6.7,15,18H111" style="fill:none;stroke:#000;stroke-linecap:round;stroke-linejoin:round;stroke-width:6px"/><rect width="144" height="144" style="fill:none"/></svg>