<svg xmlns="http://www.w3.org/2000/svg" viewBox="0 0 144 144"><path d="M48,48c0-3.3,2.7-3,6-3s6-.3,6,3" style="fill:none;stroke:#000;stroke-linecap:round;stroke-linejoin:round;stroke-width:6px"/><path d="M84,48c0-3.3,2.7-3,6-3s6-.3,6,3" style="fill:none;stroke:#000;stroke-linecap:round;stroke-linejoin:round;stroke-width:6px"/><path d="M55.9,86.1l-37.3,11A24.1054,24.1054,0,0,0,3,119.6V141H141V120.2c0-10-6.2-19.5-15.6-23l-37.3-11" style="fill:none;stroke:#000;stroke-linecap:round;stroke-linejoin:round;stroke-width:6px"/><path d="M102,33.4C102,16.8,88.6,3,72,3S42,16.8,42,33.4" style="fill:none;stroke:#000;stroke-linecap:round;stroke-linejoin:round;stroke-width:6px"/><path d="M72,33H45A12.0353,12.0353,0,0,0,33,45V55.6C33,63,40.6,69,48,69c10.1,0,21-6,24-21,3,15,14.3,21,24,21,7.4,0,15-6,15-13.4V45A12.0353,12.0353,0,0,0,99,33Z" style="fill:none;stroke:#000;stroke-linejoin:round;stroke-width:6px"/><circle cx="72" cy="87" r="15" style="fill:none;stroke:#000;stroke-linecap:round;stroke-linejoin:round;stroke-width:6px"/><path d="M42.7,68.1c2,8,8,14.4,14.4,18.7" style="fill:none;stroke:#000;stroke-linecap:round;stroke-linejoin:round;stroke-width:6px"/><path d="M87,86.8c6.4-4.3,12.4-10.7,14.4-18.7" style="fill:none;stroke:#000;stroke-linecap:round;stroke-linejoin:round;stroke-width:6px"/><path d="M105,91.1c-.7,14.4-15.2,25.9-33,25.9S39.7,105.5,39,91.1" style="fill:none;stroke:#000;stroke-linejoin:round;stroke-width:6px"/><path d="M54.2,86.6C44,85.1,9,78.9,9,63c0-9.9,8.1-12,18-12h6" style="fill:none;stroke:#000;stroke-linecap:round;stroke-linejoin:round;stroke-width:6px"/><circle cx="117" cy="75" r="6" style="fill:none;stroke:#000;stroke-linecap:round;stroke-linejoin:round;stroke-width:6px"/><circle cx="126" cy="51" r="3" style="fill:none;stroke:#000;stroke-linecap:round;stroke-linejoin:round;stroke-width:6px"/><circle cx="132" cy="27" r="3" style="fill:none;stroke:#000;stroke-linecap:round;stroke-linejoin:round;stroke-width:6px"/><rect width="144" height="144" style="fill:none"/></svg>