<svg xmlns="http://www.w3.org/2000/svg" viewBox="0 0 144 144"><path d="M18,18A14.98,14.98,0,0,1,33,3H45V21c0,6.6-2.4,12-9,12H27a8.9626,8.9626,0,0,1-9-9Z" style="fill:none;stroke:#000;stroke-linecap:round;stroke-linejoin:round;stroke-width:6px"/><path d="M72,18A14.98,14.98,0,0,0,57,3H45V21c0,6.6,2.4,12,9,12h9a8.9626,8.9626,0,0,0,9-9Z" style="fill:none;stroke:#000;stroke-linecap:round;stroke-linejoin:round;stroke-width:6px"/><line x1="15" y1="15" x2="15" y2="21" style="fill:none;stroke:#000;stroke-linecap:round;stroke-linejoin:round;stroke-width:6px"/><line x1="75" y1="15" x2="75" y2="21" style="fill:none;stroke:#000;stroke-linecap:round;stroke-linejoin:round;stroke-width:6px"/><circle cx="42" cy="54" r="9" style="fill:none;stroke:#000;stroke-linecap:round;stroke-linejoin:round;stroke-width:6px"/><path d="M141,132a8.9626,8.9626,0,0,1-9,9H114a8.9626,8.9626,0,0,1-9-9V75a18,18,0,0,1,36,0Z" style="fill:none;stroke:#000;stroke-linecap:round;stroke-linejoin:round;stroke-width:6px"/><rect x="117" y="45" width="12" height="12" style="fill:none;stroke:#000;stroke-linecap:round;stroke-linejoin:round;stroke-width:6px"/><line x1="105" y1="129" x2="141" y2="129" style="fill:none;stroke:#000;stroke-linecap:round;stroke-linejoin:round;stroke-width:6px"/><line x1="105" y1="75" x2="141" y2="75" style="fill:none;stroke:#000;stroke-linecap:round;stroke-linejoin:round;stroke-width:6px"/><path d="M123,45c0-6.6-6-12-12-12h-6c-9,0-18,3-18,21v46.5C87,126,75,141,49.5,141A40.4585,40.4585,0,0,1,9,100.5V78A23.9424,23.9424,0,0,1,33,54" style="fill:none;stroke:#000;stroke-linecap:round;stroke-linejoin:round;stroke-width:6px"/><rect width="144" height="144" style="fill:none"/></svg>