<svg xmlns="http://www.w3.org/2000/svg" viewBox="0 0 144.0477 144.1"><rect x="0.8934" y="25.4347" width="71.9993" height="23.9998" transform="translate(-15.6168 37.0516) rotate(-45)" style="fill:none;stroke:#000;stroke-linejoin:round;stroke-width:5.999942240425611px"/><path d="M43.7,78.1a12.0107,12.0107,0,0,0,17,0l17-17a12.0107,12.0107,0,0,0,0-17L62.4,28.9l-33.9,34Z" transform="translate(0.0477)" style="fill:none;stroke:#000;stroke-linejoin:round;stroke-width:6px"/><rect x="44.8674" y="43.6206" width="11.9999" height="15.4999" transform="translate(-21.378 51.0147) rotate(-45)" style="fill:none;stroke:#000;stroke-linejoin:round;stroke-width:5.999942240425611px"/><line x1="5.1477" y1="5.6" x2="28.5477" y2="28.9" style="fill:none;stroke:#000;stroke-linecap:round;stroke-linejoin:round;stroke-width:6px"/><polygon points="138.848 96.6 96.448 139 66.748 109.3 64.548 94.5 94.248 64.8 109.148 66.9 138.848 96.6" style="fill:none;stroke:#000;stroke-linejoin:round;stroke-width:6px"/><line x1="140.9477" y1="141.1" x2="117.6477" y2="117.8" style="fill:none;stroke:#000;stroke-linecap:round;stroke-linejoin:round;stroke-width:6px"/><rect x="82.5744" y="88.8029" width="35.9997" height="23.9998" transform="translate(-41.7731 100.6412) rotate(-45)" style="fill:none;stroke:#000;stroke-linecap:round;stroke-linejoin:round;stroke-width:5.999942240425611px"/><line x1="129.1477" y1="39.1" x2="95.2477" y2="5.4" style="fill:none;stroke:#000;stroke-linecap:round;stroke-linejoin:round;stroke-width:6px"/><polyline points="102.148 39.1 129.148 39.1 129.148 12.1" style="fill:none;stroke:#000;stroke-linecap:round;stroke-linejoin:round;stroke-width:6px"/><line x1="9.1477" y1="99.1" x2="45.1477" y2="134.9" style="fill:none;stroke:#000;stroke-linecap:round;stroke-linejoin:round;stroke-width:6px"/><polyline points="36.148 99.1 9.148 99.1 9.148 126.1" style="fill:none;stroke:#000;stroke-linecap:round;stroke-linejoin:round;stroke-width:6px"/><rect x="0.0477" width="144" height="144" style="fill:none"/></svg>