<svg xmlns="http://www.w3.org/2000/svg" viewBox="0 0 144 144"><line x1="63" y1="33" x2="63" y2="129" style="fill:none;stroke:#000;stroke-linejoin:round;stroke-width:6px"/><line x1="75" y1="33" x2="75" y2="129" style="fill:none;stroke:#000;stroke-linejoin:round;stroke-width:6px"/><path d="M63,69H48.8A12.0839,12.0839,0,0,0,37,78.6l-7.2,36A12.0494,12.0494,0,0,0,41.6,129H96.3a12.0585,12.0585,0,0,0,11.8-14.4l-7.2-36A11.922,11.922,0,0,0,89.1,69H75" style="fill:none;stroke:#000;stroke-linejoin:round;stroke-width:6px"/><path d="M135,129a12,12,0,0,1-24,0V93a12,12,0,0,1,24,0Z" style="fill:none;stroke:#000;stroke-linejoin:round;stroke-width:6px"/><path d="M27,129a12,12,0,0,1-24,0V93a12,12,0,0,1,24,0Z" style="fill:none;stroke:#000;stroke-linejoin:round;stroke-width:6px"/><path d="M99,21A12.0353,12.0353,0,0,1,87,33H51A12.0353,12.0353,0,0,1,39,21V15A12.0353,12.0353,0,0,1,51,3H87A12.0353,12.0353,0,0,1,99,15Z" style="fill:none;stroke:#000;stroke-linejoin:round;stroke-width:6px"/><rect x="99" y="9" width="30" height="12" style="fill:none;stroke:#000;stroke-linejoin:round;stroke-width:6px"/><rect x="9" y="9" width="30" height="12" style="fill:none;stroke:#000;stroke-linejoin:round;stroke-width:6px"/><rect width="144" height="144" style="fill:none"/></svg>