<svg xmlns="http://www.w3.org/2000/svg" viewBox="0 0 144 144"><path d="M129,39a6.0176,6.0176,0,0,1-6,6H9a6.0176,6.0176,0,0,1-6-6V9A6.0176,6.0176,0,0,1,9,3H123a6.0176,6.0176,0,0,1,6,6Z" style="fill:none;stroke:#000;stroke-linecap:round;stroke-linejoin:round;stroke-width:6px"/><line x1="48" y1="33" x2="108" y2="33" style="fill:none;stroke:#000;stroke-linecap:round;stroke-linejoin:round;stroke-width:6px"/><line x1="48" y1="21" x2="108" y2="21" style="fill:none;stroke:#000;stroke-linecap:round;stroke-linejoin:round;stroke-width:6px"/><circle cx="24" cy="24" r="6" style="fill:none;stroke:#000;stroke-linecap:round;stroke-linejoin:round;stroke-width:6px"/><path d="M129,81a6.0176,6.0176,0,0,1-6,6H9a6.0176,6.0176,0,0,1-6-6V51a6.0176,6.0176,0,0,1,6-6H123a6.0176,6.0176,0,0,1,6,6Z" style="fill:none;stroke:#000;stroke-linecap:round;stroke-linejoin:round;stroke-width:6px"/><line x1="48" y1="75" x2="108" y2="75" style="fill:none;stroke:#000;stroke-linecap:round;stroke-linejoin:round;stroke-width:6px"/><line x1="48" y1="63" x2="108" y2="63" style="fill:none;stroke:#000;stroke-linecap:round;stroke-linejoin:round;stroke-width:6px"/><circle cx="24" cy="66" r="6" style="fill:none;stroke:#000;stroke-linecap:round;stroke-linejoin:round;stroke-width:6px"/><path d="M129,123a6.0176,6.0176,0,0,1-6,6H9a6.0176,6.0176,0,0,1-6-6V93a6.0176,6.0176,0,0,1,6-6H123a6.0176,6.0176,0,0,1,6,6Z" style="fill:none;stroke:#000;stroke-linecap:round;stroke-linejoin:round;stroke-width:6px"/><line x1="48" y1="117" x2="108" y2="117" style="fill:none;stroke:#000;stroke-linecap:round;stroke-linejoin:round;stroke-width:6px"/><line x1="48" y1="105" x2="108" y2="105" style="fill:none;stroke:#000;stroke-linecap:round;stroke-linejoin:round;stroke-width:6px"/><circle cx="24" cy="108" r="6" style="fill:none;stroke:#000;stroke-linecap:round;stroke-linejoin:round;stroke-width:6px"/><rect width="144" height="144" style="fill:none"/></svg>