<svg xmlns="http://www.w3.org/2000/svg" viewBox="0 0 144 144"><rect x="9" y="39" width="126" height="36" style="fill:none;stroke:#000;stroke-linecap:round;stroke-linejoin:round;stroke-width:6px"/><circle cx="81" cy="57" r="3" style="fill:none;stroke:#000;stroke-linecap:round;stroke-linejoin:round;stroke-width:6px"/><circle cx="99" cy="57" r="3" style="fill:none;stroke:#000;stroke-linecap:round;stroke-linejoin:round;stroke-width:6px"/><circle cx="117" cy="57" r="3" style="fill:none;stroke:#000;stroke-linecap:round;stroke-linejoin:round;stroke-width:6px"/><circle cx="27" cy="57" r="6" style="fill:none;stroke:#000;stroke-linecap:round;stroke-linejoin:round;stroke-width:6px"/><rect x="9" y="3" width="126" height="36" style="fill:none;stroke:#000;stroke-linecap:round;stroke-linejoin:round;stroke-width:6px"/><circle cx="81" cy="21" r="3" style="fill:none;stroke:#000;stroke-linecap:round;stroke-linejoin:round;stroke-width:6px"/><circle cx="99" cy="21" r="3" style="fill:none;stroke:#000;stroke-linecap:round;stroke-linejoin:round;stroke-width:6px"/><circle cx="117" cy="21" r="3" style="fill:none;stroke:#000;stroke-linecap:round;stroke-linejoin:round;stroke-width:6px"/><circle cx="27" cy="21" r="6" style="fill:none;stroke:#000;stroke-linecap:round;stroke-linejoin:round;stroke-width:6px"/><polyline points="9 75 9 111 135 111 135 75" style="fill:none;stroke:#000;stroke-linecap:round;stroke-linejoin:round;stroke-width:6px"/><circle cx="81" cy="93" r="3" style="fill:none;stroke:#000;stroke-linecap:round;stroke-linejoin:round;stroke-width:6px"/><circle cx="99" cy="93" r="3" style="fill:none;stroke:#000;stroke-linecap:round;stroke-linejoin:round;stroke-width:6px"/><circle cx="117" cy="93" r="3" style="fill:none;stroke:#000;stroke-linecap:round;stroke-linejoin:round;stroke-width:6px"/><circle cx="27" cy="93" r="6" style="fill:none;stroke:#000;stroke-linecap:round;stroke-linejoin:round;stroke-width:6px"/><line x1="33" y1="141" x2="111" y2="141" style="fill:none;stroke:#000;stroke-linecap:round;stroke-linejoin:round;stroke-width:6px"/><line x1="75" y1="111" x2="75" y2="141" style="fill:none;stroke:#000;stroke-linecap:round;stroke-linejoin:round;stroke-width:6px"/><path d="M9,138a3,3,0,0,0,0,6,3,3,0,0,0,0-6Z" style="fill:#000"/><path d="M21,138a3,3,0,1,0,3,3,2.9465,2.9465,0,0,0-3-3Z" style="fill:#000"/><path d="M123,138a3,3,0,1,0,3,3,2.9465,2.9465,0,0,0-3-3Z" style="fill:#000"/><path d="M135,138a3,3,0,1,0,3,3,2.9465,2.9465,0,0,0-3-3Z" style="fill:#000"/><rect width="144" height="144" style="fill:none"/></svg>