<svg xmlns="http://www.w3.org/2000/svg" viewBox="0 0 144 144"><ellipse cx="69" cy="15" rx="24" ry="12" style="fill:none;stroke:#000;stroke-linecap:round;stroke-linejoin:round;stroke-width:6px"/><path d="M45,33c0,6.6,10.7,12,24,12s24-5.4,24-12" style="fill:none;stroke:#000;stroke-linecap:round;stroke-linejoin:round;stroke-width:6px"/><path d="M93,15V51c0,6.6-10.7,12-24,12S45,57.6,45,51V15" style="fill:none;stroke:#000;stroke-linecap:round;stroke-linejoin:round;stroke-width:6px"/><line x1="18" y1="141" x2="48" y2="141" style="fill:none;stroke:#000;stroke-linecap:round;stroke-linejoin:round;stroke-width:6px"/><line x1="33" y1="129" x2="33" y2="141" style="fill:none;stroke:#000;stroke-linecap:round;stroke-linejoin:round;stroke-width:6px"/><line x1="3" y1="117" x2="63" y2="117" style="fill:none;stroke:#000;stroke-linejoin:round;stroke-width:6px"/><path d="M54,87a8.9626,8.9626,0,0,1,9,9v23.5a9.2077,9.2077,0,0,1-9,9.5H12a9.2706,9.2706,0,0,1-9-9.5V96a8.9626,8.9626,0,0,1,9-9Z" style="fill:none;stroke:#000;stroke-linecap:round;stroke-linejoin:round;stroke-width:6px"/><line x1="90" y1="141" x2="120" y2="141" style="fill:none;stroke:#000;stroke-linecap:round;stroke-linejoin:round;stroke-width:6px"/><line x1="105" y1="129" x2="105" y2="141" style="fill:none;stroke:#000;stroke-linecap:round;stroke-linejoin:round;stroke-width:6px"/><line x1="75" y1="117" x2="135" y2="117" style="fill:none;stroke:#000;stroke-linejoin:round;stroke-width:6px"/><path d="M126,87a8.9626,8.9626,0,0,1,9,9v23.5a9.2077,9.2077,0,0,1-9,9.5H84a9.2706,9.2706,0,0,1-9-9.5V96a8.9626,8.9626,0,0,1,9-9Z" style="fill:none;stroke:#000;stroke-linecap:round;stroke-linejoin:round;stroke-width:6px"/><polyline points="105 39 123 39 123 69" style="fill:none;stroke:#000;stroke-linecap:round;stroke-linejoin:round;stroke-width:6px"/><polyline points="33 39 15 39 15 69" style="fill:none;stroke:#000;stroke-linecap:round;stroke-linejoin:round;stroke-width:6px"/><rect width="144" height="144" style="fill:none"/></svg>