<svg xmlns="http://www.w3.org/2000/svg" viewBox="0 0 144 144"><ellipse cx="60" cy="27" rx="57" ry="24" style="fill:none;stroke:#000;stroke-linecap:round;stroke-linejoin:round;stroke-width:6px"/><path d="M60,75C28.5,75,3,64.3,3,51" style="fill:none;stroke:#000;stroke-linecap:round;stroke-linejoin:round;stroke-width:6px"/><path d="M51,101.7C23.8,99.9,3,90,3,78" style="fill:none;stroke:#000;stroke-linecap:round;stroke-linejoin:round;stroke-width:6px"/><path d="M54,128.9C25.3,127.6,3,117.4,3,105V27" style="fill:none;stroke:#000;stroke-linecap:round;stroke-linejoin:round;stroke-width:6px"/><line x1="117" y1="27" x2="117" y2="54" style="fill:none;stroke:#000;stroke-linecap:round;stroke-linejoin:round;stroke-width:6px"/><path d="M93,86.9c0-12,6.7-17.9,15-17.9s15,5.9,15,17.9Z" style="fill:none;stroke:#000;stroke-linecap:round;stroke-linejoin:round;stroke-width:6px"/><path d="M93,98.9h30v27a15,15,0,0,1-30,0Z" style="fill:none;stroke:#000;stroke-linecap:round;stroke-linejoin:round;stroke-width:6px"/><line x1="123" y1="104.9" x2="141" y2="104.9" style="fill:none;stroke:#000;stroke-linecap:round;stroke-linejoin:round;stroke-width:6px"/><line x1="123" y1="116.9" x2="141" y2="116.9" style="fill:none;stroke:#000;stroke-linecap:round;stroke-linejoin:round;stroke-width:6px"/><line x1="122.7" y1="128.9" x2="141" y2="128.9" style="fill:none;stroke:#000;stroke-linecap:round;stroke-linejoin:round;stroke-width:6px"/><line x1="75.2" y1="104.9" x2="93" y2="104.9" style="fill:none;stroke:#000;stroke-linecap:round;stroke-linejoin:round;stroke-width:6px"/><line x1="75.2" y1="116.9" x2="93" y2="116.9" style="fill:none;stroke:#000;stroke-linecap:round;stroke-linejoin:round;stroke-width:6px"/><line x1="75.2" y1="128.9" x2="93.3" y2="128.9" style="fill:none;stroke:#000;stroke-linecap:round;stroke-linejoin:round;stroke-width:6px"/><rect width="144" height="144" style="fill:none"/></svg>