<svg xmlns="http://www.w3.org/2000/svg" viewBox="0 0 144 144"><path d="M36,60V46.5A22.5339,22.5339,0,0,1,58.5,24H69" style="fill:none;stroke:#000;stroke-linecap:round;stroke-linejoin:round;stroke-width:6px"/><polyline points="48 48 36 60 24 48" style="fill:none;stroke:#000;stroke-linecap:round;stroke-linejoin:round;stroke-width:6px"/><polyline points="60 15 69 24 60 33" style="fill:none;stroke:#000;stroke-linecap:round;stroke-linejoin:round;stroke-width:6px"/><line x1="18" y1="141" x2="60" y2="141" style="fill:none;stroke:#000;stroke-linecap:round;stroke-linejoin:round;stroke-width:6px"/><line x1="39" y1="129" x2="39" y2="141" style="fill:none;stroke:#000;stroke-linecap:round;stroke-linejoin:round;stroke-width:6px"/><line x1="3" y1="111" x2="75" y2="111" style="fill:none;stroke:#000;stroke-linejoin:round;stroke-width:6px"/><path d="M66,81a8.9626,8.9626,0,0,1,9,9v29.5a9.2077,9.2077,0,0,1-9,9.5H12a9.2706,9.2706,0,0,1-9-9.5V90a8.9626,8.9626,0,0,1,9-9Z" style="fill:none;stroke:#000;stroke-linecap:round;stroke-linejoin:round;stroke-width:6px"/><ellipse cx="117" cy="15" rx="24" ry="12" style="fill:none;stroke:#000;stroke-linecap:round;stroke-linejoin:round;stroke-width:6px"/><path d="M93,45c0,6.6,10.7,12,24,12s24-5.4,24-12" style="fill:none;stroke:#000;stroke-linecap:round;stroke-linejoin:round;stroke-width:6px"/><path d="M93,30c0,6.6,10.7,12,24,12s24-5.4,24-12" style="fill:none;stroke:#000;stroke-linecap:round;stroke-linejoin:round;stroke-width:6px"/><path d="M141,15V60c0,6.6-10.7,12-24,12S93,66.6,93,60V15" style="fill:none;stroke:#000;stroke-linecap:round;stroke-linejoin:round;stroke-width:6px"/><rect width="144" height="144" style="fill:none"/></svg>