<svg xmlns="http://www.w3.org/2000/svg" viewBox="0 0 144 144"><rect x="3" y="33" width="138" height="36" style="fill:none;stroke:#000;stroke-linecap:round;stroke-linejoin:round;stroke-width:6px"/><polyline points="3 33 39 3 105 3 141 33" style="fill:none;stroke:#000;stroke-linecap:round;stroke-linejoin:round;stroke-width:6px"/><circle cx="84" cy="51" r="3" style="fill:none;stroke:#000;stroke-linecap:round;stroke-linejoin:round;stroke-width:6px"/><circle cx="102" cy="51" r="3" style="fill:none;stroke:#000;stroke-linecap:round;stroke-linejoin:round;stroke-width:6px"/><circle cx="120" cy="51" r="3" style="fill:none;stroke:#000;stroke-linecap:round;stroke-linejoin:round;stroke-width:6px"/><circle cx="21" cy="51" r="6" style="fill:none;stroke:#000;stroke-linecap:round;stroke-linejoin:round;stroke-width:6px"/><path d="M141,69V93a12.0353,12.0353,0,0,1-12,12H15A12.0353,12.0353,0,0,1,3,93V69" style="fill:none;stroke:#000;stroke-linecap:round;stroke-linejoin:round;stroke-width:6px"/><circle cx="84" cy="87" r="3" style="fill:none;stroke:#000;stroke-linecap:round;stroke-linejoin:round;stroke-width:6px"/><circle cx="102" cy="87" r="3" style="fill:none;stroke:#000;stroke-linecap:round;stroke-linejoin:round;stroke-width:6px"/><circle cx="120" cy="87" r="3" style="fill:none;stroke:#000;stroke-linecap:round;stroke-linejoin:round;stroke-width:6px"/><circle cx="21" cy="87" r="6" style="fill:none;stroke:#000;stroke-linecap:round;stroke-linejoin:round;stroke-width:6px"/><line x1="33" y1="141" x2="111" y2="141" style="fill:none;stroke:#000;stroke-linecap:round;stroke-linejoin:round;stroke-width:6px"/><line x1="75" y1="105" x2="75" y2="141" style="fill:none;stroke:#000;stroke-linecap:round;stroke-linejoin:round;stroke-width:6px"/><path d="M9,138a3,3,0,0,0,0,6,3,3,0,0,0,0-6Z" style="fill:#000"/><path d="M21,138a3,3,0,1,0,3,3,2.9465,2.9465,0,0,0-3-3Z" style="fill:#000"/><path d="M123,138a3,3,0,0,0,0,6,3,3,0,0,0,0-6Z" style="fill:#000"/><path d="M135,138a3,3,0,0,0,0,6,3,3,0,0,0,0-6Z" style="fill:#000"/><rect width="144" height="144" style="fill:none"/></svg>