<svg xmlns="http://www.w3.org/2000/svg" viewBox="0 0 144 144"><path d="M134.2,98.5l6.4-3.7-9-15.6-6.5,3.7a29.7731,29.7731,0,0,0-11.2-6.4V69H96v7.5a29.7731,29.7731,0,0,0-11.2,6.4l-6.5-3.7-9,15.6,6.4,3.7a28.5417,28.5417,0,0,0,0,13l-6.4,3.7,9,15.6,6.5-3.7A29.7731,29.7731,0,0,0,96,133.5V141h18v-7.5a29.7731,29.7731,0,0,0,11.2-6.4l6.5,3.7,9-15.6-6.4-3.7A28.5441,28.5441,0,0,0,134.2,98.5Z" style="fill:none;stroke:#000;stroke-linejoin:round;stroke-width:6px"/><circle cx="105" cy="105" r="12" style="fill:none;stroke:#000;stroke-linejoin:round;stroke-width:6px"/><polyline points="84 63 3 63 3 33 111 33 111 57" style="fill:none;stroke:#000;stroke-linecap:round;stroke-linejoin:round;stroke-width:6px"/><circle cx="57" cy="48" r="3" style="fill:none;stroke:#000;stroke-linecap:round;stroke-linejoin:round;stroke-width:6px"/><circle cx="75" cy="48" r="3" style="fill:none;stroke:#000;stroke-linecap:round;stroke-linejoin:round;stroke-width:6px"/><circle cx="93" cy="48" r="3" style="fill:none;stroke:#000;stroke-linecap:round;stroke-linejoin:round;stroke-width:6px"/><circle cx="21" cy="48" r="6" style="fill:none;stroke:#000;stroke-linecap:round;stroke-linejoin:round;stroke-width:6px"/><polyline points="3 33 3 3 111 3 111 33" style="fill:none;stroke:#000;stroke-linecap:round;stroke-linejoin:round;stroke-width:6px"/><circle cx="57" cy="18" r="3" style="fill:none;stroke:#000;stroke-linecap:round;stroke-linejoin:round;stroke-width:6px"/><circle cx="75" cy="18" r="3" style="fill:none;stroke:#000;stroke-linecap:round;stroke-linejoin:round;stroke-width:6px"/><circle cx="93" cy="18" r="3" style="fill:none;stroke:#000;stroke-linecap:round;stroke-linejoin:round;stroke-width:6px"/><circle cx="21" cy="18" r="6" style="fill:none;stroke:#000;stroke-linecap:round;stroke-linejoin:round;stroke-width:6px"/><circle cx="57" cy="78" r="3" style="fill:none;stroke:#000;stroke-linecap:round;stroke-linejoin:round;stroke-width:6px"/><circle cx="21" cy="78" r="6" style="fill:none;stroke:#000;stroke-linecap:round;stroke-linejoin:round;stroke-width:6px"/><polyline points="3 63 3 93 57 93 57 117 33 117" style="fill:none;stroke:#000;stroke-linecap:round;stroke-linejoin:round;stroke-width:6px"/><path d="M9,114a3,3,0,0,0,0,6,3,3,0,0,0,0-6Z" style="fill:#000"/><path d="M21,114a3,3,0,1,0,3,3,2.9465,2.9465,0,0,0-3-3Z" style="fill:#000"/><rect width="144" height="144" style="fill:none"/></svg>