<svg xmlns="http://www.w3.org/2000/svg" viewBox="0 0 144 144"><path d="M129,39a6.0176,6.0176,0,0,1-6,6H9a6.0176,6.0176,0,0,1-6-6V9A6.0176,6.0176,0,0,1,9,3H123a6.0176,6.0176,0,0,1,6,6Z" style="fill:none;stroke:#000;stroke-linecap:round;stroke-linejoin:round;stroke-width:6px"/><line x1="48" y1="33" x2="108" y2="33" style="fill:none;stroke:#000;stroke-linecap:round;stroke-linejoin:round;stroke-width:6px"/><line x1="48" y1="21" x2="108" y2="21" style="fill:none;stroke:#000;stroke-linecap:round;stroke-linejoin:round;stroke-width:6px"/><circle cx="24" cy="24" r="6" style="fill:none;stroke:#000;stroke-linecap:round;stroke-linejoin:round;stroke-width:6px"/><path d="M72,87H9a6.0176,6.0176,0,0,1-6-6V51a6.0176,6.0176,0,0,1,6-6H123a6.0176,6.0176,0,0,1,6,6v9" style="fill:none;stroke:#000;stroke-linecap:round;stroke-linejoin:round;stroke-width:6px"/><line x1="48" y1="75" x2="84" y2="75" style="fill:none;stroke:#000;stroke-linecap:round;stroke-linejoin:round;stroke-width:6px"/><line x1="48" y1="63" x2="90" y2="63" style="fill:none;stroke:#000;stroke-linecap:round;stroke-linejoin:round;stroke-width:6px"/><circle cx="24" cy="66" r="6" style="fill:none;stroke:#000;stroke-linecap:round;stroke-linejoin:round;stroke-width:6px"/><path d="M60,129H9a6.0176,6.0176,0,0,1-6-6V93a6.0176,6.0176,0,0,1,6-6H72" style="fill:none;stroke:#000;stroke-linecap:round;stroke-linejoin:round;stroke-width:6px"/><circle cx="24" cy="108" r="6" style="fill:none;stroke:#000;stroke-linecap:round;stroke-linejoin:round;stroke-width:6px"/><polygon points="108 75 120 99 141 99 123 114 132 141 108 124.5 84 141 93 114 75 99 96 99 108 75" style="fill:none;stroke:#000;stroke-linejoin:round;stroke-width:6px"/><rect width="144" height="144" style="fill:none"/></svg>