<svg xmlns="http://www.w3.org/2000/svg" viewBox="0 0 144 144"><rect x="3" y="99" width="24" height="42" style="fill:none;stroke:#000;stroke-linejoin:round;stroke-width:6px"/><path d="M27,135H129c0-9-21-18-45-18H42" style="fill:none;stroke:#000;stroke-linecap:round;stroke-linejoin:round;stroke-width:6px"/><path d="M27,105H48c14.1,0,21,9,24,12" style="fill:none;stroke:#000;stroke-linejoin:round;stroke-width:6px"/><ellipse cx="111" cy="15" rx="30" ry="12" style="fill:none;stroke:#000;stroke-linecap:round;stroke-linejoin:round;stroke-width:6px"/><path d="M141,15V69c0,6.6-13.4,12-30,12S81,75.6,81,69V15" style="fill:none;stroke:#000;stroke-linecap:round;stroke-linejoin:round;stroke-width:6px"/><path d="M141,51c0,6.6-13.4,12-30,12S81,57.6,81,51" style="fill:none;stroke:#000;stroke-linecap:round;stroke-linejoin:round;stroke-width:6px"/><path d="M141,33c0,6.6-13.4,12-30,12S81,39.6,81,33" style="fill:none;stroke:#000;stroke-linecap:round;stroke-linejoin:round;stroke-width:6px"/><rect width="144" height="144" style="fill:none"/></svg>