<svg xmlns="http://www.w3.org/2000/svg" viewBox="0 0 144 144"><ellipse cx="60" cy="27" rx="57" ry="24" style="fill:none;stroke:#000;stroke-linecap:round;stroke-linejoin:round;stroke-width:6px"/><path d="M69,74.7q-4.35.3-9,.3C28.5,75,3,64.3,3,51" style="fill:none;stroke:#000;stroke-linecap:round;stroke-linejoin:round;stroke-width:6px"/><path d="M60,102C28.5,102,3,91.3,3,78" style="fill:none;stroke:#000;stroke-linecap:round;stroke-linejoin:round;stroke-width:6px"/><path d="M60,129c-31.5,0-57-10.7-57-24V27" style="fill:none;stroke:#000;stroke-linecap:round;stroke-linejoin:round;stroke-width:6px"/><line x1="117" y1="27" x2="117" y2="60" style="fill:none;stroke:#000;stroke-linecap:round;stroke-linejoin:round;stroke-width:6px"/><path d="M99,105v21a15,15,0,0,0,30,0V105Z" style="fill:none;stroke:#000;stroke-linejoin:round;stroke-width:6px"/><path d="M123,96a9,9,0,0,0-18,0v9h18Z" style="fill:none;stroke:#000;stroke-linejoin:round;stroke-width:6px"/><line x1="128.7" y1="129" x2="141" y2="129" style="fill:none;stroke:#000;stroke-linecap:round;stroke-linejoin:round;stroke-width:6px"/><line x1="129" y1="117" x2="141" y2="117" style="fill:none;stroke:#000;stroke-linecap:round;stroke-linejoin:round;stroke-width:6px"/><polyline points="129 108 141 102 141 96" style="fill:none;stroke:#000;stroke-linecap:round;stroke-linejoin:round;stroke-width:6px"/><line x1="99.3" y1="129" x2="87" y2="129" style="fill:none;stroke:#000;stroke-linecap:round;stroke-linejoin:round;stroke-width:6px"/><line x1="99" y1="117" x2="87" y2="117" style="fill:none;stroke:#000;stroke-linecap:round;stroke-linejoin:round;stroke-width:6px"/><polyline points="99 108 87 102 87 96" style="fill:none;stroke:#000;stroke-linecap:round;stroke-linejoin:round;stroke-width:6px"/><rect width="144" height="144" style="fill:none"/></svg>