<svg xmlns="http://www.w3.org/2000/svg" viewBox="0 0 144 144"><path d="M84,15H48A27.015,27.015,0,0,0,21,42V69H81V60a9,9,0,0,1,18,0v51H15A12.0353,12.0353,0,0,0,3,123v6a12.0353,12.0353,0,0,0,12,12H141V24a8.9626,8.9626,0,0,0-9-9Z" style="fill:none;stroke:#000;stroke-linejoin:round;stroke-width:6px"/><line x1="39" y1="69" x2="39" y2="96" style="fill:none;stroke:#000;stroke-linecap:round;stroke-linejoin:round;stroke-width:6px"/><line x1="39" y1="87" x2="45" y2="87" style="fill:none;stroke:#000;stroke-linecap:round;stroke-linejoin:round;stroke-width:6px"/><circle cx="120" cy="108" r="9" style="fill:none;stroke:#000;stroke-linejoin:round;stroke-width:6px"/><line x1="78" y1="33" x2="141" y2="33" style="fill:none;stroke:#000;stroke-linecap:round;stroke-linejoin:round;stroke-width:6px"/><rect width="144" height="144" style="fill:none"/></svg>