<svg xmlns="http://www.w3.org/2000/svg" viewBox="0 0 144 144"><path d="M48.4,61.3a24,24,0,1,0,0,21.4" style="fill:none;stroke:#000;stroke-linejoin:round;stroke-width:6px"/><path d="M117,51A24,24,0,1,0,93,27a22.5739,22.5739,0,0,0,2.6,10.7" style="fill:none;stroke:#000;stroke-linejoin:round;stroke-width:6px"/><path d="M95.6,106.3A23.9489,23.9489,0,1,0,117,93" style="fill:none;stroke:#000;stroke-linejoin:round;stroke-width:6px"/><path d="M117,51A23.812,23.812,0,0,1,95.6,37.7L48.4,61.3a23.3173,23.3173,0,0,1,0,21.4l47.1,23.6A24.0761,24.0761,0,0,1,117,93" style="fill:none;stroke:#000;stroke-linejoin:round;stroke-width:6px"/><rect width="144" height="144" style="fill:none"/></svg>