<svg xmlns="http://www.w3.org/2000/svg" viewBox="0 0 144 144"><rect x="3" y="99" width="24" height="42" style="fill:none;stroke:#000;stroke-linejoin:round;stroke-width:6px"/><path d="M27,135H129c0-9-21-18-45-18H42" style="fill:none;stroke:#000;stroke-linecap:round;stroke-linejoin:round;stroke-width:6px"/><path d="M27,105H48c14.1,0,21,9,24,12" style="fill:none;stroke:#000;stroke-linejoin:round;stroke-width:6px"/><circle cx="93.1" cy="51" r="18" style="fill:none;stroke:#000;stroke-linejoin:round;stroke-width:6px"/><path d="M131.1,42.8l9.4-5.4-12-20.8L119,22.1a39.0535,39.0535,0,0,0-14.1-8.2V3H81V13.9a37.6694,37.6694,0,0,0-14.1,8.2l-9.5-5.5-12,20.8,9.4,5.4a38.93,38.93,0,0,0,0,16.3l-9.4,5.4,12,20.8,9.5-5.5A39.0535,39.0535,0,0,0,81,88V99h24V88.1a37.6694,37.6694,0,0,0,14.1-8.2l9.5,5.5,12-20.8-9.4-5.5A38.969,38.969,0,0,0,131.1,42.8Z" style="fill:none;stroke:#000;stroke-linejoin:round;stroke-width:6px"/><rect width="144" height="144" style="fill:none"/></svg>