<svg xmlns="http://www.w3.org/2000/svg" viewBox="0 0 144 144"><polygon points="57 75 96 3 135.4 75 57 75" style="fill:none;stroke:#000;stroke-linecap:round;stroke-linejoin:round;stroke-width:6px"/><rect x="3" y="81" width="24" height="48" style="fill:none;stroke:#000;stroke-linecap:round;stroke-linejoin:round;stroke-width:6px"/><path d="M27,120c64.4,21.5,40.6,21.7,114-15-6.4-6.4-11.4-7.9-18-6l-26.6,8.8" style="fill:none;stroke:#000;stroke-linecap:round;stroke-linejoin:round;stroke-width:6px"/><path d="M27,87H45c14.1,0,24,9,27,12H90c9.6,0,9.6,12,0,12H57" style="fill:none;stroke:#000;stroke-linecap:round;stroke-linejoin:round;stroke-width:6px"/><path d="M116,51s-6,12-20,12S76,51,76,51s6-12,20-12S116,51,116,51Z" style="fill:none;stroke:#000;stroke-linecap:round;stroke-linejoin:round;stroke-width:6px"/><circle cx="96" cy="51" r="3" style="fill:none;stroke:#000;stroke-linecap:round;stroke-linejoin:round;stroke-width:6px"/><rect width="144" height="144" style="fill:none"/></svg>