<svg xmlns="http://www.w3.org/2000/svg" viewBox="0 0 144 144"><rect x="3" y="81" width="24" height="48" style="fill:none;stroke:#000;stroke-linecap:round;stroke-linejoin:round;stroke-width:6px"/><path d="M27,120c64.4,21.5,40.6,21.7,114-15-6.4-6.4-11.4-7.9-18-6l-26.6,8.8" style="fill:none;stroke:#000;stroke-linecap:round;stroke-linejoin:round;stroke-width:6px"/><path d="M27,87H45c14.1,0,24,9,27,12H90c9.6,0,9.6,12,0,12H57" style="fill:none;stroke:#000;stroke-linecap:round;stroke-linejoin:round;stroke-width:6px"/><polygon points="129 21 111 21 111 3 93 3 93 21 75 21 75 39 93 39 93 81 111 81 111 39 129 39 129 21" style="fill:none;stroke:#000;stroke-linecap:round;stroke-linejoin:round;stroke-width:6px"/><rect width="144" height="144" style="fill:none"/></svg>