<svg xmlns="http://www.w3.org/2000/svg" viewBox="0 0 144 144"><polyline points="15.3 96.4 33.1 72.2 14.7 46.7" style="fill:none;stroke:#000;stroke-linejoin:round;stroke-width:6px"/><polyline points="65.5 124.7 48 105 20.9 105" style="fill:none;stroke:#000;stroke-linejoin:round;stroke-width:6px"/><polyline points="123.5 105 96 105 78.1 125.1" style="fill:none;stroke:#000;stroke-linejoin:round;stroke-width:6px"/><polyline points="129.1 47.2 111 72.1 128.9 96.5" style="fill:none;stroke:#000;stroke-linejoin:round;stroke-width:6px"/><polyline points="78.5 19.3 96 39 123.1 39" style="fill:none;stroke:#000;stroke-linejoin:round;stroke-width:6px"/><polyline points="20.9 39 48 39 65.9 18.9" style="fill:none;stroke:#000;stroke-linejoin:round;stroke-width:6px"/><circle cx="12" cy="39" r="9" style="fill:none;stroke:#000;stroke-linejoin:round;stroke-width:6px"/><circle cx="72" cy="12" r="9" style="fill:none;stroke:#000;stroke-linejoin:round;stroke-width:6px"/><circle cx="72" cy="132" r="9" style="fill:none;stroke:#000;stroke-linejoin:round;stroke-width:6px"/><circle cx="132" cy="39" r="9" style="fill:none;stroke:#000;stroke-linejoin:round;stroke-width:6px"/><circle cx="12" cy="105" r="9" style="fill:none;stroke:#000;stroke-linejoin:round;stroke-width:6px"/><circle cx="132" cy="105" r="9" style="fill:none;stroke:#000;stroke-linejoin:round;stroke-width:6px"/><circle cx="72" cy="72" r="27" style="fill:none;stroke:#000;stroke-linejoin:round;stroke-width:6px"/><polyline points="15.3 96.4 33.1 72.2 14.7 46.7" style="fill:none;stroke:#000;stroke-linejoin:round;stroke-width:6px"/><polyline points="65.5 124.7 48 105 20.9 105" style="fill:none;stroke:#000;stroke-linejoin:round;stroke-width:6px"/><polyline points="123.5 105 96 105 78.1 125.1" style="fill:none;stroke:#000;stroke-linejoin:round;stroke-width:6px"/><polyline points="129.1 47.2 111 72.1 128.9 96.5" style="fill:none;stroke:#000;stroke-linejoin:round;stroke-width:6px"/><polyline points="78.5 19.3 96 39 123.1 39" style="fill:none;stroke:#000;stroke-linejoin:round;stroke-width:6px"/><polyline points="20.9 39 48 39 65.9 18.9" style="fill:none;stroke:#000;stroke-linejoin:round;stroke-width:6px"/><circle cx="12" cy="39" r="9" style="fill:none;stroke:#000;stroke-linejoin:round;stroke-width:6px"/><circle cx="72" cy="12" r="9" style="fill:none;stroke:#000;stroke-linejoin:round;stroke-width:6px"/><circle cx="72" cy="132" r="9" style="fill:none;stroke:#000;stroke-linejoin:round;stroke-width:6px"/><circle cx="132" cy="39" r="9" style="fill:none;stroke:#000;stroke-linejoin:round;stroke-width:6px"/><circle cx="12" cy="105" r="9" style="fill:none;stroke:#000;stroke-linejoin:round;stroke-width:6px"/><circle cx="132" cy="105" r="9" style="fill:none;stroke:#000;stroke-linejoin:round;stroke-width:6px"/><circle cx="72" cy="72" r="27" style="fill:none;stroke:#000;stroke-linejoin:round;stroke-width:6px"/><rect width="144" height="144" style="fill:none"/></svg>