<svg xmlns="http://www.w3.org/2000/svg" viewBox="0 0 144 144.2"><path d="M98.9,17.2A38.2417,38.2417,0,0,1,69,2.8h-.1A38.2417,38.2417,0,0,1,39,17.2C28.5,17.2,18.9,13,9,6V94.9s8.7,31.6,60,46c51.3-14.4,60-46,60-46V6C119,13,109.5,17.2,98.9,17.2Z" transform="translate(0 0.2)" style="fill:none;stroke:#000;stroke-linecap:round;stroke-linejoin:round;stroke-width:6px"/><polygon points="71 33.2 93.1 33.2 75 63.2 97.7 63.2 50.1 114 65.4 75.2 47.2 75.2 71 33.2" style="fill:none;stroke:#000;stroke-linejoin:round;stroke-width:6px"/><rect y="0.2" width="144" height="144" style="fill:none"/></svg>