<svg xmlns="http://www.w3.org/2000/svg" viewBox="0 0 144 144"><circle cx="69" cy="69" r="66" style="fill:none;stroke:#000;stroke-linecap:round;stroke-linejoin:round;stroke-width:6px"/><circle cx="69" cy="69" r="42" style="fill:none;stroke:#000;stroke-linecap:round;stroke-linejoin:round;stroke-width:6px"/><line x1="45" y1="34.8" x2="45" y2="103.5" style="fill:none;stroke:#000;stroke-linejoin:round;stroke-width:6px"/><line x1="69" y1="27" x2="69" y2="111" style="fill:none;stroke:#000;stroke-linejoin:round;stroke-width:6px"/><line x1="93" y1="34.5" x2="93" y2="103.5" style="fill:none;stroke:#000;stroke-linejoin:round;stroke-width:6px"/><path d="M69,12a3,3,0,0,0,0,6,3,3,0,0,0,0-6Z" style="fill:#000"/><path d="M107.4,27.9a3,3,0,0,0-2.1,5.1,3.0494,3.0494,0,0,0,2.1.9,3,3,0,0,0,2.1-5.1,3.0494,3.0494,0,0,0-2.1-.9Z" style="fill:#000"/><path d="M123.2,66.3a3,3,0,0,0,0,6,3,3,0,0,0,0-6Z" style="fill:#000"/><path d="M107.4,104.6a3,3,0,0,0-2.1,5.1,3.0494,3.0494,0,0,0,2.1.9,3,3,0,0,0,2.1-5.1,3.0494,3.0494,0,0,0-2.1-.9Z" style="fill:#000"/><path d="M69,120.5a3.0085,3.0085,0,0,0-3,3,2.9465,2.9465,0,0,0,3,3,3,3,0,0,0,0-6Z" style="fill:#000"/><path d="M30.6,104.6a3,3,0,0,0-2.1,5.1,2.9,2.9,0,0,0,4.2,0,2.9,2.9,0,0,0,0-4.2,2.7235,2.7235,0,0,0-2.1-.9Z" style="fill:#000"/><path d="M14.7,66.3a3,3,0,0,0,0,6,3,3,0,1,0,0-6Z" style="fill:#000"/><path d="M30.6,27.9A3,3,0,0,0,28.5,33a2.9,2.9,0,0,0,4.2,0,2.9,2.9,0,0,0,0-4.2,2.7235,2.7235,0,0,0-2.1-.9Z" style="fill:#000"/><circle cx="69" cy="69" r="66" style="fill:none;stroke:#000;stroke-linecap:round;stroke-linejoin:round;stroke-width:6px"/><circle cx="69" cy="69" r="42" style="fill:none;stroke:#000;stroke-linecap:round;stroke-linejoin:round;stroke-width:6px"/><line x1="45" y1="34.8" x2="45" y2="103.5" style="fill:none;stroke:#000;stroke-linejoin:round;stroke-width:6px"/><line x1="69" y1="27" x2="69" y2="111" style="fill:none;stroke:#000;stroke-linejoin:round;stroke-width:6px"/><line x1="93" y1="34.5" x2="93" y2="103.5" style="fill:none;stroke:#000;stroke-linejoin:round;stroke-width:6px"/><path d="M69,12a3,3,0,0,0,0,6,3,3,0,0,0,0-6Z" style="fill:#000"/><path d="M107.4,27.9a3,3,0,0,0-2.1,5.1,3.0494,3.0494,0,0,0,2.1.9,3,3,0,0,0,2.1-5.1,3.0494,3.0494,0,0,0-2.1-.9Z" style="fill:#000"/><path d="M123.2,66.3a3,3,0,0,0,0,6,3,3,0,0,0,0-6Z" style="fill:#000"/><path d="M107.4,104.6a3,3,0,0,0-2.1,5.1,3.0494,3.0494,0,0,0,2.1.9,3,3,0,0,0,2.1-5.1,3.0494,3.0494,0,0,0-2.1-.9Z" style="fill:#000"/><path d="M69,120.5a3.0085,3.0085,0,0,0-3,3,2.9465,2.9465,0,0,0,3,3,3,3,0,0,0,0-6Z" style="fill:#000"/><path d="M30.6,104.6a3,3,0,0,0-2.1,5.1,2.9,2.9,0,0,0,4.2,0,2.9,2.9,0,0,0,0-4.2,2.7235,2.7235,0,0,0-2.1-.9Z" style="fill:#000"/><path d="M14.7,66.3a3,3,0,0,0,0,6,3,3,0,1,0,0-6Z" style="fill:#000"/><path d="M30.6,27.9A3,3,0,0,0,28.5,33a2.9,2.9,0,0,0,4.2,0,2.9,2.9,0,0,0,0-4.2,2.7235,2.7235,0,0,0-2.1-.9Z" style="fill:#000"/><rect width="144" height="144" style="fill:none"/></svg>