<svg xmlns="http://www.w3.org/2000/svg" viewBox="0 0 144 144"><path d="M58.4,33.2C71.2,42.7,70.5,61,65.5,68.6,62,65.8,59,62.7,58.4,58,46.6,62.7,40.7,71.9,40.7,82.8a28.3,28.3,0,0,0,56.6,0C97.3,59.9,80.9,38.4,58.4,33.2Z" style="fill:none;stroke:#000;stroke-linejoin:round;stroke-width:6px"/><path d="M69,3h-.1C54,18,9,30.1,9,30.1,9,77.9,12,119.9,69,141c57-21.1,60-63.1,60-110.9C129,30.1,84,18,69,3Z" style="fill:none;stroke:#000;stroke-linecap:round;stroke-linejoin:round;stroke-width:6px"/><path d="M58.4,33.2C71.2,42.7,70.5,61,65.5,68.6,62,65.8,59,62.7,58.4,58,46.6,62.7,40.7,71.9,40.7,82.8a28.3,28.3,0,0,0,56.6,0C97.3,59.9,80.9,38.4,58.4,33.2Z" style="fill:none;stroke:#000;stroke-linejoin:round;stroke-width:6px"/><path d="M69,3h-.1C54,18,9,30.1,9,30.1,9,77.9,12,119.9,69,141c57-21.1,60-63.1,60-110.9C129,30.1,84,18,69,3Z" style="fill:none;stroke:#000;stroke-linecap:round;stroke-linejoin:round;stroke-width:6px"/><rect width="144" height="144" style="fill:none"/></svg>