<svg xmlns="http://www.w3.org/2000/svg" viewBox="0 0 144 144"><path d="M69,3h0C54,18,9,30.1,9,30.1V95s15,25,60,46c45-21,60-46,60-46V30.1S84,18,69,3Z" style="fill:none;stroke:#000;stroke-linecap:round;stroke-linejoin:round;stroke-width:6px"/><line x1="9" y1="63" x2="129" y2="63" style="fill:none;stroke:#000;stroke-linejoin:round;stroke-width:6px"/><line x1="69" y1="63" x2="69" y2="141" style="fill:none;stroke:#000;stroke-linecap:round;stroke-linejoin:round;stroke-width:6px"/><line x1="99" y1="63" x2="99" y2="123.8" style="fill:none;stroke:#000;stroke-linecap:round;stroke-linejoin:round;stroke-width:6px"/><line x1="39" y1="63" x2="39" y2="123.8" style="fill:none;stroke:#000;stroke-linecap:round;stroke-linejoin:round;stroke-width:6px"/><polygon points="69 19.9 73.2 33 87 33 75.9 39.8 80.1 52.2 69 43.8 57.9 51.8 62.1 39.9 51 33 64.8 33 69 19.9" style="fill:none;stroke:#000;stroke-linecap:round;stroke-linejoin:round;stroke-width:6px"/><rect width="144" height="144" style="fill:none"/></svg>