<svg xmlns="http://www.w3.org/2000/svg" viewBox="0 0 144 144"><path d="M69,3h0C54,18,9,30.1,9,30.1,9,77.9,12,119.9,69,141c57-21.1,60-63.1,60-110.9C129,30.1,84,18,69,3Z" style="fill:none;stroke:#000;stroke-linecap:round;stroke-linejoin:round;stroke-width:6px"/><path d="M93,105H45V93H39V57A12.0353,12.0353,0,0,1,51,45H87A12.0353,12.0353,0,0,1,99,57V93H93Z" style="fill:none;stroke:#000;stroke-linecap:round;stroke-linejoin:round;stroke-width:6px"/><line x1="57" y1="105" x2="57" y2="87.1" style="fill:none;stroke:#000;stroke-linecap:round;stroke-linejoin:round;stroke-width:6px"/><line x1="81" y1="105" x2="81" y2="87.1" style="fill:none;stroke:#000;stroke-linecap:round;stroke-linejoin:round;stroke-width:6px"/><line x1="69" y1="105" x2="69" y2="87.1" style="fill:none;stroke:#000;stroke-linecap:round;stroke-linejoin:round;stroke-width:6px"/><circle cx="57" cy="66" r="6" style="fill:none;stroke:#000;stroke-linecap:round;stroke-linejoin:round;stroke-width:6px"/><circle cx="81" cy="66" r="6" style="fill:none;stroke:#000;stroke-linecap:round;stroke-linejoin:round;stroke-width:6px"/><rect width="144" height="144" style="fill:none"/></svg>