<svg xmlns="http://www.w3.org/2000/svg" viewBox="0 0 144 144"><path d="M69,3h-.1C54,18,9,30.1,9,30.1,9,77.9,12,119.9,69,141c57-21.1,60-63.1,60-110.9C129,30.1,84,18,69,3Z" style="fill:none;stroke:#000;stroke-linecap:round;stroke-linejoin:round;stroke-width:6px"/><path d="M69,21h0C57.9,32.1,24.6,41,24.6,41c0,35.3,2.2,66.4,44.4,82,42.1-15.6,44.4-46.6,44.4-82C113.4,41,80.1,32.1,69,21Z" style="fill:none;stroke:#000;stroke-linecap:round;stroke-linejoin:round;stroke-width:6px"/><line x1="25.5" y1="65.1" x2="69.3" y2="21.3" style="fill:none;stroke:#000;stroke-linecap:round;stroke-linejoin:round;stroke-width:6px"/><line x1="31.1" y1="89.5" x2="88.2" y2="32.3" style="fill:none;stroke:#000;stroke-linecap:round;stroke-linejoin:round;stroke-width:6px"/><line x1="43.1" y1="107.5" x2="110.3" y2="40.2" style="fill:none;stroke:#000;stroke-linecap:round;stroke-linejoin:round;stroke-width:6px"/><line x1="61.7" y1="118.9" x2="112.2" y2="68.4" style="fill:none;stroke:#000;stroke-linecap:round;stroke-linejoin:round;stroke-width:6px"/><rect width="144" height="144" style="fill:none"/></svg>