<svg xmlns="http://www.w3.org/2000/svg" viewBox="0 0 144 144"><path d="M98.9,17.4A38.3923,38.3923,0,0,1,69,3h-.1A38.2417,38.2417,0,0,1,39,17.4c-10.5,0-20.1-4.2-30-11.1V95.2s8.7,31.5,60,45.8c57-15,60-48.5,60-48.5V3.6C113,10.1,109.5,17.4,98.9,17.4Z" style="fill:none;stroke:#000;stroke-linecap:round;stroke-linejoin:round;stroke-width:6px"/><line x1="9" y1="69.2" x2="128.4" y2="66" style="fill:none;stroke:#000;stroke-linecap:round;stroke-linejoin:round;stroke-width:6px"/><line x1="69" y1="3" x2="69" y2="141" style="fill:none;stroke:#000;stroke-linecap:round;stroke-linejoin:round;stroke-width:6px"/><line x1="33" y1="16.5" x2="33" y2="68.3" style="fill:none;stroke:#000;stroke-linejoin:round;stroke-width:6px"/><line x1="21" y1="13.5" x2="21" y2="68.3" style="fill:none;stroke:#000;stroke-linejoin:round;stroke-width:6px"/><line x1="45" y1="17.2" x2="45" y2="69" style="fill:none;stroke:#000;stroke-linejoin:round;stroke-width:6px"/><line x1="57" y1="12.9" x2="57" y2="69" style="fill:none;stroke:#000;stroke-linejoin:round;stroke-width:6px"/><line x1="81" y1="69" x2="81" y2="135.8" style="fill:none;stroke:#000;stroke-linejoin:round;stroke-width:6px"/><line x1="93" y1="69" x2="93" y2="132" style="fill:none;stroke:#000;stroke-linejoin:round;stroke-width:6px"/><line x1="105" y1="68.9" x2="105" y2="126.2" style="fill:none;stroke:#000;stroke-linejoin:round;stroke-width:6px"/><line x1="117" y1="68.9" x2="117" y2="117.4" style="fill:none;stroke:#000;stroke-linejoin:round;stroke-width:6px"/><rect width="144" height="144" style="fill:none"/></svg>