<svg xmlns="http://www.w3.org/2000/svg" viewBox="0 0 144 144"><path d="M48,21,35.7,24.5A12.12,12.12,0,0,0,27,36.1V123a12.0353,12.0353,0,0,0,12,12h72a12.0353,12.0353,0,0,0,12-12V36.1a11.91,11.91,0,0,0-8.7-11.5L102,21" style="fill:none;stroke:#000;stroke-linecap:round;stroke-linejoin:round;stroke-width:6px"/><path d="M75,30,57,12s3-9,18-9,18,9,18,9Z" style="fill:none;stroke:#000;stroke-linecap:round;stroke-linejoin:round;stroke-width:6px"/><rect x="75.7501" y="19.074" width="25.4998" height="12.6999" transform="translate(7.9436 70.0254) rotate(-45)" style="fill:none;stroke:#000;stroke-linecap:round;stroke-linejoin:round;stroke-width:5.999942240425611px"/><rect x="55.146" y="12.8145" width="12.6999" height="25.4998" transform="translate(-0.065 50.9718) rotate(-45)" style="fill:none;stroke:#000;stroke-linecap:round;stroke-linejoin:round;stroke-width:5.999942240425611px"/><line x1="75" y1="135" x2="75" y2="30" style="fill:none;stroke:#000;stroke-linecap:round;stroke-linejoin:round;stroke-width:6px"/><polygon points="87 60 111 60 111 78 99 84 87 78 87 60" style="fill:none;stroke:#000;stroke-linecap:round;stroke-linejoin:round;stroke-width:6px"/><rect width="144" height="144" style="fill:none"/></svg>