<svg xmlns="http://www.w3.org/2000/svg" viewBox="0 0 144 144"><path d="M141,15H125.6a3.0188,3.0188,0,0,0-3,2.6L111.3,96.4a3.0188,3.0188,0,0,1-3,2.6H21c-7.9,0-7.9-12,0-12H93c7.9,0,7.9-12,0-12H15c-7.9,0-7.9-12,0-12H96c7.9,0,7.9-12,0-12H9C1.1,51,1.1,39,9,39h96" style="fill:none;stroke:#000;stroke-linecap:round;stroke-linejoin:round;stroke-width:6px"/><circle cx="36" cy="120" r="9" style="fill:none;stroke:#000;stroke-linejoin:round;stroke-width:6px"/><circle cx="102" cy="120" r="9" style="fill:none;stroke:#000;stroke-linejoin:round;stroke-width:6px"/><rect width="144" height="144" style="fill:none"/></svg>