<svg xmlns="http://www.w3.org/2000/svg" viewBox="0 0 144 144"><polygon points="84 138 78 138 78 144 84 144 84 138" style="fill:#000"/><polygon points="96 138 90 138 90 144 96 144 96 138" style="fill:#000"/><polygon points="120 138 114 138 114 144 120 144 120 138" style="fill:#000"/><polygon points="132 138 126 138 126 144 132 144 132 138" style="fill:#000"/><polyline points="56.9 141 3 141 3 51 117 51 117 93.1" style="fill:none;stroke:#000;stroke-linecap:round;stroke-linejoin:round;stroke-width:6px"/><path d="M33,39V30a27,27,0,0,1,54,0v9" style="fill:none;stroke:#000;stroke-linecap:round;stroke-linejoin:round;stroke-width:6px"/><line x1="81" y1="102" x2="81" y2="132" style="fill:none;stroke:#000;stroke-linejoin:round;stroke-width:6px"/><line x1="69" y1="102" x2="69" y2="144" style="fill:none;stroke:#000;stroke-linejoin:round;stroke-width:6px"/><line x1="93" y1="102" x2="93" y2="132" style="fill:none;stroke:#000;stroke-linejoin:round;stroke-width:6px"/><line x1="105" y1="102" x2="105" y2="144" style="fill:none;stroke:#000;stroke-linejoin:round;stroke-width:6px"/><line x1="117" y1="102" x2="117" y2="132" style="fill:none;stroke:#000;stroke-linejoin:round;stroke-width:6px"/><line x1="129" y1="102" x2="129" y2="132" style="fill:none;stroke:#000;stroke-linejoin:round;stroke-width:6px"/><line x1="141" y1="102" x2="141" y2="144" style="fill:none;stroke:#000;stroke-linejoin:round;stroke-width:6px"/><rect width="144" height="144" style="fill:none"/></svg>