<svg xmlns="http://www.w3.org/2000/svg" viewBox="0 0 144 144"><path d="M114,141c10-7.3,27-22.7,27-34.2,0-9.3-6.8-14.9-13.4-14.9-7.3,0-10,5-13.6,11-3.6-6-6.3-11-13.6-11-6.6,0-13.4,5.6-13.4,14.9,0,11.5,17,26.9,27,34.2Z" style="fill:none;stroke:#000;stroke-linecap:round;stroke-linejoin:round;stroke-width:6px"/><circle cx="48" cy="114" r="9" style="fill:none;stroke:#000;stroke-linecap:round;stroke-linejoin:round;stroke-width:6px"/><polyline points="3 3 24 3 48 105 72 105" style="fill:none;stroke:#000;stroke-linecap:round;stroke-linejoin:round;stroke-width:6px"/><polyline points="131.9 66.3 141 39 32.5 39" style="fill:none;stroke:#000;stroke-linecap:round;stroke-linejoin:round;stroke-width:6px"/><line x1="43.8" y1="87" x2="71.9" y2="87" style="fill:none;stroke:#000;stroke-linecap:round;stroke-linejoin:round;stroke-width:6px"/><rect width="144" height="144" style="fill:none"/></svg>