<svg xmlns="http://www.w3.org/2000/svg" viewBox="0 0 144 144"><line x1="20.3" y1="21" x2="123.7" y2="21" style="fill:none;stroke:#000;stroke-linecap:round;stroke-linejoin:round;stroke-width:6px"/><path d="M42,21c0,11.6-11.3,21-22.8,21" style="fill:none;stroke:#000;stroke-linecap:round;stroke-linejoin:round;stroke-width:6px"/><path d="M102,21c0,11.6,11.2,21,22.8,21" style="fill:none;stroke:#000;stroke-linecap:round;stroke-linejoin:round;stroke-width:6px"/><path d="M72,63a8.9626,8.9626,0,0,1,9,9v33a12.0353,12.0353,0,0,0,12,12h23.3a12.0143,12.0143,0,0,0,12-12.7L123,9H21l-5.3,95.3a12.0143,12.0143,0,0,0,12,12.7H51a12.0353,12.0353,0,0,0,12-12V72A8.9626,8.9626,0,0,1,72,63Z" style="fill:none;stroke:#000;stroke-linecap:round;stroke-linejoin:round;stroke-width:6px"/><path d="M57,117H21v12a6.0176,6.0176,0,0,0,6,6H51a6.0176,6.0176,0,0,0,6-6Z" style="fill:none;stroke:#000;stroke-linecap:round;stroke-linejoin:round;stroke-width:6px"/><line x1="33" y1="117" x2="33" y2="135" style="fill:none;stroke:#000;stroke-linecap:round;stroke-linejoin:round;stroke-width:6px"/><line x1="45" y1="117" x2="45" y2="135" style="fill:none;stroke:#000;stroke-linecap:round;stroke-linejoin:round;stroke-width:6px"/><path d="M123,117H87v12a6.0176,6.0176,0,0,0,6,6h24a6.0176,6.0176,0,0,0,6-6Z" style="fill:none;stroke:#000;stroke-linecap:round;stroke-linejoin:round;stroke-width:6px"/><line x1="99" y1="117" x2="99" y2="135" style="fill:none;stroke:#000;stroke-linecap:round;stroke-linejoin:round;stroke-width:6px"/><line x1="111" y1="117" x2="111" y2="135" style="fill:none;stroke:#000;stroke-linecap:round;stroke-linejoin:round;stroke-width:6px"/><rect width="144" height="144" style="fill:none"/></svg>