<svg xmlns="http://www.w3.org/2000/svg" viewBox="0 0 144 144"><path d="M13.4,108.3s-2.2,12.5,9.9,29.7l17.2-12.1s-14.8-26.3-5-33.2Z" style="fill:none;stroke:#000;stroke-linecap:round;stroke-linejoin:round;stroke-width:6px"/><polyline points="42.8 87.6 51.4 99.8 34.3 111.9" style="fill:none;stroke:#000;stroke-linecap:round;stroke-linejoin:round;stroke-width:6px"/><polyline points="50.4 56.6 124 4.8 130.9 14.6 103.9 33.6" style="fill:none;stroke:#000;stroke-linecap:round;stroke-linejoin:round;stroke-width:6px"/><rect x="57.3111" y="48.3742" width="56.9994" height="17.9998" transform="translate(-17.3851 59.8005) rotate(-35.1141)" style="fill:none;stroke:#000;stroke-linecap:round;stroke-linejoin:round;stroke-width:5.999937284341039px"/><line x1="89.2" y1="44" x2="99.5" y2="58.7" style="fill:none;stroke:#000;stroke-linecap:round;stroke-linejoin:round;stroke-width:6px"/><line x1="72" y1="56.1" x2="82.4" y2="70.8" style="fill:none;stroke:#000;stroke-linecap:round;stroke-linejoin:round;stroke-width:6px"/><path d="M48.6,54.1,19.2,74.8a24.0128,24.0128,0,0,0-5.8,33.4L62.5,73.7Z" style="fill:none;stroke:#000;stroke-linecap:round;stroke-linejoin:round;stroke-width:6px"/><rect x="105.1795" y="25.5887" width="24.0003" height="12.0002" transform="translate(3.1499 73.1355) rotate(-35.1061)" style="fill:none;stroke:#000;stroke-linecap:round;stroke-linejoin:round;stroke-width:6.000082755715094px"/><rect width="144" height="144" style="fill:none"/></svg>