<svg xmlns="http://www.w3.org/2000/svg" viewBox="0 0 144 144"><path d="M87,144V125.4c10.3,0,12-6.5,12-14.4V87H51v24c0,7.9,1.7,14.4,12,14.4V144" style="fill:none;stroke:#000;stroke-linejoin:round;stroke-width:6px"/><circle cx="75" cy="63" r="12" style="fill:none;stroke:#000;stroke-linejoin:round;stroke-width:6px"/><line x1="75" y1="3" x2="75" y2="12" style="fill:none;stroke:#000;stroke-linecap:round;stroke-linejoin:round;stroke-width:6px"/><line x1="75" y1="24" x2="75" y2="33" style="fill:none;stroke:#000;stroke-linecap:round;stroke-linejoin:round;stroke-width:6px"/><line x1="99" y1="3" x2="102.8" y2="11.2" style="fill:none;stroke:#000;stroke-linecap:round;stroke-linejoin:round;stroke-width:6px"/><line x1="107.9" y1="22" x2="111.7" y2="30.2" style="fill:none;stroke:#000;stroke-linecap:round;stroke-linejoin:round;stroke-width:6px"/><line x1="51" y1="3" x2="47.2" y2="11.2" style="fill:none;stroke:#000;stroke-linecap:round;stroke-linejoin:round;stroke-width:6px"/><line x1="42.1" y1="22" x2="38.3" y2="30.2" style="fill:none;stroke:#000;stroke-linecap:round;stroke-linejoin:round;stroke-width:6px"/><line x1="85.7" y1="3.1" x2="87.7" y2="11.9" style="fill:none;stroke:#000;stroke-linecap:round;stroke-linejoin:round;stroke-width:6px"/><line x1="90.3" y1="23.6" x2="92.2" y2="32.4" style="fill:none;stroke:#000;stroke-linecap:round;stroke-linejoin:round;stroke-width:6px"/><line x1="64.3" y1="3.1" x2="62.4" y2="11.9" style="fill:none;stroke:#000;stroke-linecap:round;stroke-linejoin:round;stroke-width:6px"/><line x1="59.8" y1="23.6" x2="57.8" y2="32.4" style="fill:none;stroke:#000;stroke-linecap:round;stroke-linejoin:round;stroke-width:6px"/><rect width="144" height="144" style="fill:none"/></svg>