<svg xmlns="http://www.w3.org/2000/svg" viewBox="0 0 144 144"><path d="M3,6.1a30.6573,30.6573,0,0,0,21.7,9h94.5a30.4847,30.4847,0,0,0,21.7-9,33.0326,33.0326,0,0,1-33,33H36A33.0326,33.0326,0,0,1,3,6.1Z" style="fill:none;stroke:#000;stroke-linecap:round;stroke-linejoin:round;stroke-width:6px"/><path d="M45,39.1v30c0,51-18,66-18,66H6s21-15,21-66V37.9" style="fill:none;stroke:#000;stroke-linecap:round;stroke-linejoin:round;stroke-width:6px"/><path d="M99,39.1v33c0,51,18,66,18,66h21s-21-15-21-66V37.9" style="fill:none;stroke:#000;stroke-linecap:round;stroke-linejoin:round;stroke-width:6px"/><polyline points="26.6 81.1 12 81.1 12 63.1 27 63.1" style="fill:none;stroke:#000;stroke-linecap:round;stroke-linejoin:round;stroke-width:6px"/><line x1="93" y1="81.1" x2="51" y2="81.1" style="fill:none;stroke:#000;stroke-linecap:round;stroke-linejoin:round;stroke-width:6px"/><polyline points="117 63.1 132 63.1 132 81.1 117.2 81.1" style="fill:none;stroke:#000;stroke-linecap:round;stroke-linejoin:round;stroke-width:6px"/><line x1="51" y1="63.1" x2="93" y2="63.1" style="fill:none;stroke:#000;stroke-linecap:round;stroke-linejoin:round;stroke-width:6px"/><rect x="63" y="39.1" width="18" height="24" style="fill:none;stroke:#000;stroke-linecap:round;stroke-linejoin:round;stroke-width:6px"/><rect width="144" height="144" style="fill:none"/></svg>