<svg xmlns="http://www.w3.org/2000/svg" viewBox="0 0 144.034 144.0816"><path d="M98.9,72a20.0934,20.0934,0,0,1,19-20.1L140.7,6.3a2.2733,2.2733,0,0,0-.4-2.6,2.1243,2.1243,0,0,0-2.6-.4L92.1,26.1a20.1318,20.1318,0,0,1-40.2,0L6.2,3.2a2.1478,2.1478,0,0,0-2.5.5,2.3523,2.3523,0,0,0-.5,2.5L26,51.8A20.1318,20.1318,0,0,1,26,92L3.2,137.8a2.2733,2.2733,0,0,0,.4,2.6,2.1243,2.1243,0,0,0,2.6.4L51.9,118a20.1318,20.1318,0,0,1,40.2,0l45.6,22.8a2.2733,2.2733,0,0,0,2.6-.4,2.1243,2.1243,0,0,0,.4-2.6L117.9,92.2A20.2539,20.2539,0,0,1,98.9,72ZM72,85.5A13.5,13.5,0,1,1,85.5,72,13.5074,13.5074,0,0,1,72,85.5Z" transform="translate(0.034 0.0039)" style="fill:none;stroke:#000;stroke-linejoin:round;stroke-width:6px"/><rect x="0.034" y="0.0039" width="144" height="144" style="fill:none"/></svg>