<svg xmlns="http://www.w3.org/2000/svg" viewBox="0 0 144 144"><rect x="9" y="27" width="102" height="72" style="fill:none;stroke:#000;stroke-linecap:round;stroke-linejoin:round;stroke-width:6px"/><polyline points="135 141 135 3 8.6 3" style="fill:none;stroke:#000;stroke-linecap:round;stroke-linejoin:round;stroke-width:6px"/><line x1="93" y1="27" x2="93" y2="3" style="fill:none;stroke:#000;stroke-linejoin:round;stroke-width:6px"/><line x1="27" y1="27" x2="27" y2="3" style="fill:none;stroke:#000;stroke-linejoin:round;stroke-width:6px"/><polyline points="97.2 75 87 75 87 51 97.2 51" style="fill:none;stroke:#000;stroke-linecap:round;stroke-linejoin:round;stroke-width:6px"/><line x1="87" y1="63" x2="94.4" y2="63" style="fill:none;stroke:#000;stroke-linecap:round;stroke-linejoin:round;stroke-width:6px"/><polyline points="57.3 75 50.6 51 44 75" style="fill:none;stroke:#000;stroke-linecap:round;stroke-linejoin:round;stroke-width:6px"/><line x1="45.5" y1="69.1" x2="55.7" y2="69.1" style="fill:none;stroke:#000;stroke-linecap:round;stroke-linejoin:round;stroke-width:6px"/><polyline points="78 75 69 75 69 51" style="fill:none;stroke:#000;stroke-linecap:round;stroke-linejoin:round;stroke-width:6px"/><path d="M24.2,69.4A5.7207,5.7207,0,0,0,29.8,75a5.8143,5.8143,0,0,0,5.6-6c0-4.9-4.6-5.7-5.6-6s-5.6-1.1-5.6-6a5.8143,5.8143,0,0,1,5.6-6,5.792,5.792,0,0,1,5.6,5.6" style="fill:none;stroke:#000;stroke-linecap:round;stroke-linejoin:round;stroke-width:6px"/><rect width="144" height="144" style="fill:none"/></svg>