<svg xmlns="http://www.w3.org/2000/svg" viewBox="0 0 144 144"><path d="M29.9,100.5C23.6,88.6,18.5,78,18.5,78a7.1285,7.1285,0,0,1,.8-9.2,7.24,7.24,0,0,1,9.8-.4L45,87V27a9,9,0,0,1,18,0V49.3" style="fill:none;stroke:#000;stroke-linecap:round;stroke-linejoin:round;stroke-width:6px"/><path d="M117,45v60a29.96,29.96,0,0,1-30,30H67a30.1247,30.1247,0,0,1-23.9-11.9" style="fill:none;stroke:#000;stroke-linecap:round;stroke-linejoin:round;stroke-width:6px"/><path d="M63,60V15a9,9,0,0,1,18,0V48" style="fill:none;stroke:#000;stroke-linecap:round;stroke-linejoin:round;stroke-width:6px"/><path d="M81,48V27a9,9,0,0,1,18,0v3" style="fill:none;stroke:#000;stroke-linecap:round;stroke-linejoin:round;stroke-width:6px"/><line x1="135" y1="12" x2="18" y2="129" style="fill:none;stroke:#000;stroke-linecap:round;stroke-linejoin:round;stroke-width:6px"/><rect width="144" height="144" style="fill:none"/></svg>