<svg xmlns="http://www.w3.org/2000/svg" viewBox="0 0 144 144"><rect x="15" y="27" width="102" height="72" style="fill:none;stroke:#000;stroke-linecap:round;stroke-linejoin:round;stroke-width:6px"/><polyline points="141 141 141 3 14.6 3" style="fill:none;stroke:#000;stroke-linecap:round;stroke-linejoin:round;stroke-width:6px"/><line x1="99" y1="27" x2="99" y2="3" style="fill:none;stroke:#000;stroke-linecap:round;stroke-linejoin:round;stroke-width:6px"/><line x1="33" y1="27" x2="33" y2="3" style="fill:none;stroke:#000;stroke-linecap:round;stroke-linejoin:round;stroke-width:6px"/><path d="M93,75V51h3c5.2,0,9,5.5,9,12s-3.8,12-9,12Z" style="fill:none;stroke:#000;stroke-linecap:round;stroke-linejoin:round;stroke-width:6px"/><polyline points="84 75 75 75 75 51" style="fill:none;stroke:#000;stroke-linecap:round;stroke-linejoin:round;stroke-width:6px"/><path d="M63,63c0,6.6-.4,12-6,12-5.7,0-6-5.4-6-12s.3-12,6-12C62.6,51,63,56.4,63,63Z" style="fill:none;stroke:#000;stroke-linecap:round;stroke-linejoin:round;stroke-width:6px"/><path d="M30,69.4A5.792,5.792,0,0,0,35.6,75a5.8143,5.8143,0,0,0,5.6-6c0-4.9-4.6-5.7-5.6-6S30,61.9,30,57a5.8143,5.8143,0,0,1,5.6-6,5.792,5.792,0,0,1,5.6,5.6" style="fill:none;stroke:#000;stroke-linecap:round;stroke-linejoin:round;stroke-width:6px"/><rect width="144" height="144" style="fill:none"/></svg>