<svg xmlns="http://www.w3.org/2000/svg" viewBox="0 0 144 144"><path d="M24,94.5A13.5,13.5,0,1,1,37.5,108" style="fill:none;stroke:#000;stroke-linecap:round;stroke-linejoin:round;stroke-width:6px"/><path d="M24,121.5A13.5,13.5,0,1,0,37.5,108" style="fill:none;stroke:#000;stroke-linecap:round;stroke-linejoin:round;stroke-width:6px"/><path d="M105,99V93A12.0353,12.0353,0,0,0,93,81H87A12.0353,12.0353,0,0,0,75,93v30a12.0353,12.0353,0,0,0,12,12h6a12.0353,12.0353,0,0,0,12-12V111H87" style="fill:none;stroke:#000;stroke-linecap:round;stroke-linejoin:round;stroke-width:6px"/><path d="M32.2,60.1a39.0639,39.0639,0,0,1,61.7,0" style="fill:none;stroke:#000;stroke-linecap:round;stroke-linejoin:round;stroke-width:6px"/><path d="M21,47a54.0351,54.0351,0,0,1,84.1,0" style="fill:none;stroke:#000;stroke-linecap:round;stroke-linejoin:round;stroke-width:6px"/><path d="M9,35.1a69.037,69.037,0,0,1,108.2.1" style="fill:none;stroke:#000;stroke-linecap:round;stroke-linejoin:round;stroke-width:6px"/><rect width="144" height="144" style="fill:none"/></svg>