<svg xmlns="http://www.w3.org/2000/svg" viewBox="0 0 144 144"><path d="M15,93a12.0353,12.0353,0,0,0,12,12h84a12.0353,12.0353,0,0,0,12-12V69a12.0353,12.0353,0,0,0-12-12H27A12.0353,12.0353,0,0,0,15,69Z" style="fill:none;stroke:#000;stroke-linecap:round;stroke-linejoin:round;stroke-width:6px"/><polyline points="36 57 69 24 102 57" style="fill:none;stroke:#000;stroke-linecap:round;stroke-linejoin:round;stroke-width:6px"/><polyline points="102 93 95.4 69 88.7 93" style="fill:none;stroke:#000;stroke-linecap:round;stroke-linejoin:round;stroke-width:6px"/><line x1="90.2" y1="87.1" x2="100.5" y2="87.1" style="fill:none;stroke:#000;stroke-linecap:round;stroke-linejoin:round;stroke-width:6px"/><path d="M36,87.4A5.7207,5.7207,0,0,0,41.6,93a5.8143,5.8143,0,0,0,5.6-6c0-4.9-4.6-5.7-5.6-6S36,79.9,36,75a5.6069,5.6069,0,1,1,11.2-.4" style="fill:none;stroke:#000;stroke-linecap:round;stroke-linejoin:round;stroke-width:6px"/><path d="M63,93V69h7.5a7.5,7.5,0,0,1,0,15H63" style="fill:none;stroke:#000;stroke-linecap:round;stroke-linejoin:round;stroke-width:6px"/><rect width="144" height="144" style="fill:none"/></svg>