<svg xmlns="http://www.w3.org/2000/svg" viewBox="0 0 144 144.1"><circle cx="72" cy="72.1" r="69" style="fill:none;stroke:#000;stroke-linejoin:round;stroke-width:6px"/><path d="M81,22c23.7,4.4,42,25.2,42,50.1a49.6928,49.6928,0,0,1-4.6,21.1L81,56.2Z" style="fill:none;stroke:#000;stroke-linejoin:round;stroke-width:6px"/><path d="M81,81.7l26.8,26.7A51.4023,51.4023,0,0,1,81,122.3Z" style="fill:none;stroke:#000;stroke-linejoin:round;stroke-width:6px"/><path d="M26,93.4,63,56.2V21.9A51.1121,51.1121,0,0,0,21,72.1C21,77.7,22.6,89,26,93.4Z" style="fill:none;stroke:#000;stroke-linejoin:round;stroke-width:6px"/><path d="M63,122.3a51.9886,51.9886,0,0,1-26.8-13.8L63,81.7Z" style="fill:none;stroke:#000;stroke-linejoin:round;stroke-width:6px"/><rect width="144" height="144" style="fill:none"/></svg>