<svg xmlns="http://www.w3.org/2000/svg" viewBox="0 0 144 144"><path d="M3,3H141c0,99-48,137.7-69,137.7S3,102,3,3Z" style="fill:none;stroke:#000;stroke-linejoin:round;stroke-width:6px"/><path d="M92.6,48.7c9.9,0,11.6,8.4,11.6,13.1S102.5,75,92.6,75,81,66.5,81,61.8,82.7,48.7,92.6,48.7Z" style="fill:none;stroke:#000;stroke-linecap:round;stroke-linejoin:round;stroke-width:6px"/><path d="M98.1,30C83.5,30,81,42.5,81,49.4V61.8" style="fill:none;stroke:#000;stroke-linecap:round;stroke-linejoin:round;stroke-width:6px"/><path d="M56.6,48.7c9.9,0,11.6,8.4,11.6,13.1S66.5,75,56.6,75,45,66.5,45,61.8,46.7,48.7,56.6,48.7Z" style="fill:none;stroke:#000;stroke-linecap:round;stroke-linejoin:round;stroke-width:6px"/><path d="M62.1,30C47.5,30,45,42.5,45,49.4V61.8" style="fill:none;stroke:#000;stroke-linecap:round;stroke-linejoin:round;stroke-width:6px"/><rect width="144" height="144" style="fill:none"/></svg>