<svg xmlns="http://www.w3.org/2000/svg" viewBox="0 0 144 144"><path d="M15,99a12.0353,12.0353,0,0,0,12,12h84a12.0353,12.0353,0,0,0,12-12V75a12.0353,12.0353,0,0,0-12-12H27A12.0353,12.0353,0,0,0,15,75Z" style="fill:none;stroke:#000;stroke-linecap:round;stroke-linejoin:round;stroke-width:6px"/><polyline points="36 63 69 30 102 63" style="fill:none;stroke:#000;stroke-linecap:round;stroke-linejoin:round;stroke-width:6px"/><polyline points="105 99 93 99 93 75 105 75" style="fill:none;stroke:#000;stroke-linecap:round;stroke-linejoin:round;stroke-width:6px"/><line x1="93" y1="87" x2="100.4" y2="87" style="fill:none;stroke:#000;stroke-linecap:round;stroke-linejoin:round;stroke-width:6px"/><polyline points="66.3 99 59.6 75 53 99" style="fill:none;stroke:#000;stroke-linecap:round;stroke-linejoin:round;stroke-width:6px"/><line x1="54.5" y1="93.1" x2="64.7" y2="93.1" style="fill:none;stroke:#000;stroke-linecap:round;stroke-linejoin:round;stroke-width:6px"/><polyline points="84 99 75 99 75 75" style="fill:none;stroke:#000;stroke-linecap:round;stroke-linejoin:round;stroke-width:6px"/><path d="M33.2,93.4A5.7207,5.7207,0,0,0,38.8,99a5.8143,5.8143,0,0,0,5.6-6c0-4.9-4.6-5.7-5.6-6s-5.6-1.1-5.6-6a5.8143,5.8143,0,0,1,5.6-6,5.792,5.792,0,0,1,5.6,5.6" style="fill:none;stroke:#000;stroke-linecap:round;stroke-linejoin:round;stroke-width:6px"/><rect width="144" height="144" style="fill:none"/></svg>