<svg xmlns="http://www.w3.org/2000/svg" viewBox="0 0 144 144"><rect x="3" y="3" width="138" height="138" style="fill:none;stroke:#000;stroke-linejoin:round;stroke-width:6px"/><rect x="21" y="15" width="102" height="78" style="fill:none;stroke:#000;stroke-linejoin:round;stroke-width:6px"/><circle cx="72" cy="45.4" r="18.4" style="fill:none;stroke:#000;stroke-linecap:round;stroke-linejoin:round;stroke-width:6px"/><path d="M101.4,93.1H42.6a29.4,29.4,0,0,1,58.8,0Z" style="fill:none;stroke:#000;stroke-linecap:round;stroke-linejoin:round;stroke-width:6px"/><path d="M35.5,121.1a4.5,4.5,0,1,0,4.5-4.5,4.5,4.5,0,1,1,4.5-4.5" style="fill:none;stroke:#000;stroke-linecap:round;stroke-linejoin:round;stroke-width:6px"/><line x1="40" y1="125.6" x2="40" y2="128.6" style="fill:none;stroke:#000;stroke-linecap:round;stroke-linejoin:round;stroke-width:6px"/><line x1="40" y1="104.6" x2="40" y2="107.6" style="fill:none;stroke:#000;stroke-linecap:round;stroke-linejoin:round;stroke-width:6px"/><polyline points="56.9 128.4 56.9 104.9 54.1 107.6" style="fill:none;stroke:#000;stroke-linecap:round;stroke-linejoin:round;stroke-width:6px"/><path d="M77.3,116.6c0,6.6-.9,12-6.1,12s-6.1-5.4-6.1-12,.9-12,6.1-12S77.3,110,77.3,116.6Z" style="fill:none;stroke:#000;stroke-linecap:round;stroke-linejoin:round;stroke-width:6px"/><path d="M97.4,116.6c0,6.6-.9,12-6.1,12s-6.1-5.4-6.1-12,.9-12,6.1-12S97.4,110,97.4,116.6Z" style="fill:none;stroke:#000;stroke-linecap:round;stroke-linejoin:round;stroke-width:6px"/><rect x="3" y="3" width="138" height="138" style="fill:none;stroke:#000;stroke-linejoin:round;stroke-width:6px"/><rect x="21" y="15" width="102" height="78" style="fill:none;stroke:#000;stroke-linejoin:round;stroke-width:6px"/><circle cx="72" cy="45.4" r="18.4" style="fill:none;stroke:#000;stroke-linecap:round;stroke-linejoin:round;stroke-width:6px"/><path d="M101.4,93.1H42.6a29.4,29.4,0,0,1,58.8,0Z" style="fill:none;stroke:#000;stroke-linecap:round;stroke-linejoin:round;stroke-width:6px"/><path d="M35.5,121.1a4.5,4.5,0,1,0,4.5-4.5,4.5,4.5,0,1,1,4.5-4.5" style="fill:none;stroke:#000;stroke-linecap:round;stroke-linejoin:round;stroke-width:6px"/><line x1="40" y1="125.6" x2="40" y2="128.6" style="fill:none;stroke:#000;stroke-linecap:round;stroke-linejoin:round;stroke-width:6px"/><line x1="40" y1="104.6" x2="40" y2="107.6" style="fill:none;stroke:#000;stroke-linecap:round;stroke-linejoin:round;stroke-width:6px"/><polyline points="56.9 128.4 56.9 104.9 54.1 107.6" style="fill:none;stroke:#000;stroke-linecap:round;stroke-linejoin:round;stroke-width:6px"/><path d="M77.3,116.6c0,6.6-.9,12-6.1,12s-6.1-5.4-6.1-12,.9-12,6.1-12S77.3,110,77.3,116.6Z" style="fill:none;stroke:#000;stroke-linecap:round;stroke-linejoin:round;stroke-width:6px"/><path d="M97.4,116.6c0,6.6-.9,12-6.1,12s-6.1-5.4-6.1-12,.9-12,6.1-12S97.4,110,97.4,116.6Z" style="fill:none;stroke:#000;stroke-linecap:round;stroke-linejoin:round;stroke-width:6px"/><rect width="144" height="144" style="fill:none"/></svg>