<svg xmlns="http://www.w3.org/2000/svg" viewBox="0 0 144 144"><rect x="9" y="3" width="126" height="114" style="fill:none;stroke:#000;stroke-linejoin:round;stroke-width:6px"/><rect x="21" y="117" width="18" height="24" style="fill:none;stroke:#000;stroke-linejoin:round;stroke-width:6px"/><rect x="105" y="117" width="18" height="24" style="fill:none;stroke:#000;stroke-linejoin:round;stroke-width:6px"/><polyline points="114 93 105 93 105 69 114 69" style="fill:none;stroke:#000;stroke-linecap:round;stroke-linejoin:round;stroke-width:6px"/><line x1="105" y1="81" x2="111" y2="81" style="fill:none;stroke:#000;stroke-linecap:round;stroke-linejoin:round;stroke-width:6px"/><polyline points="45 45 45 21 54 21" style="fill:none;stroke:#000;stroke-linecap:round;stroke-linejoin:round;stroke-width:6px"/><line x1="45" y1="33" x2="54" y2="33" style="fill:none;stroke:#000;stroke-linecap:round;stroke-linejoin:round;stroke-width:6px"/><polyline points="69 93 61.5 69.5 54 93" style="fill:none;stroke:#000;stroke-linecap:round;stroke-linejoin:round;stroke-width:6px"/><line x1="55.9" y1="87" x2="67.1" y2="87" style="fill:none;stroke:#000;stroke-linecap:round;stroke-linejoin:round;stroke-width:6px"/><polyline points="93 93 81 93 81 69" style="fill:none;stroke:#000;stroke-linecap:round;stroke-linejoin:round;stroke-width:6px"/><path d="M81,33c0,6.6-1.9,12-7.5,12C67.8,45,66,39.6,66,33s1.8-12,7.5-12C79.1,21,81,26.4,81,33Z" style="fill:none;stroke:#000;stroke-linecap:round;stroke-linejoin:round;stroke-width:6px"/><path d="M93,45V21h6c4.8,0,6,2.8,6,6,0,3.3-4.2,6-9,6H93" style="fill:none;stroke:#000;stroke-linecap:round;stroke-linejoin:round;stroke-width:6px"/><line x1="99" y1="33" x2="105" y2="45" style="fill:none;stroke:#000;stroke-linecap:round;stroke-linejoin:round;stroke-width:6px"/><path d="M30.4,87.4A5.792,5.792,0,0,0,36,93a5.8143,5.8143,0,0,0,5.6-6c0-4.9-4.6-5.7-5.6-6s-5.6-1.1-5.6-6A5.8143,5.8143,0,0,1,36,69a5.792,5.792,0,0,1,5.6,5.6" style="fill:none;stroke:#000;stroke-linecap:round;stroke-linejoin:round;stroke-width:6px"/><rect width="144" height="144" style="fill:none"/></svg>