<svg xmlns="http://www.w3.org/2000/svg" viewBox="0 0 144 144"><path d="M30.6,99H69v30H36c-2.9,0-7.7-2.9-9.3-5.4" style="fill:none;stroke:#000;stroke-linejoin:round;stroke-width:6px"/><path d="M26.7,123.6S15.6,113.5,42,84H54L36,57H3l9,9A14.3491,14.3491,0,0,0,6,78C6,85.1,17.3,109.3,26.7,123.6Z" style="fill:none;stroke:#000;stroke-linejoin:round;stroke-width:6px"/><path d="M115.9,93.8,95.2,63.9l26-18,18.5,27.6c1.7,2.4,1.6,6.8.4,9.4" style="fill:none;stroke:#000;stroke-linejoin:round;stroke-width:6px"/><path d="M140.2,83S136.1,98.3,99,93V84L81,111l16.9,30L99,126.9s6.6,4.7,13.4,0C118.2,122.9,132,97.8,140.2,83Z" style="fill:none;stroke:#000;stroke-linejoin:round;stroke-width:6px"/><path d="M69,20.7,54.1,52.3,25.5,38.8,39.9,8.4C41.1,5.8,45,3,48,3" style="fill:none;stroke:#000;stroke-linejoin:round;stroke-width:6px"/><path d="M48,3S63,3,77.6,37.2L69,45h33l18-33.3-12.2,4.5A13.1185,13.1185,0,0,0,100,5.7C96.2,3.9,84.4,3.2,72,3Z" style="fill:none;stroke:#000;stroke-linejoin:round;stroke-width:6px"/><rect width="144" height="144" style="fill:none"/></svg>