<svg xmlns="http://www.w3.org/2000/svg" viewBox="0 0 144 144"><path d="M50.7,77.1c-2.4,10.2.8,19.1,18,15.1,13.5,11.3,20.2,6,22.9-5.3S86.2,53.1,74.6,45C68.4,59.7,53.7,64.4,50.7,77.1Z" style="fill:none;stroke:#000;stroke-linecap:round;stroke-linejoin:round;stroke-width:6px"/><path d="M69,105c-1-13.2-.8-30.3,5.2-39.9" style="fill:none;stroke:#000;stroke-linecap:round;stroke-linejoin:round;stroke-width:6px"/><path d="M110.9,39A51.0106,51.0106,0,0,0,21,72V87" style="fill:none;stroke:#000;stroke-linecap:round;stroke-linejoin:round;stroke-width:6px"/><polyline points="39 63 21 87 3 63" style="fill:none;stroke:#000;stroke-linecap:round;stroke-linejoin:round;stroke-width:6px"/><path d="M33.1,105A51.0106,51.0106,0,0,0,123,72V57" style="fill:none;stroke:#000;stroke-linecap:round;stroke-linejoin:round;stroke-width:6px"/><polyline points="105 81 123 57 141 81" style="fill:none;stroke:#000;stroke-linecap:round;stroke-linejoin:round;stroke-width:6px"/><rect width="144" height="144" style="fill:none"/></svg>