<svg xmlns="http://www.w3.org/2000/svg" viewBox="0 0 144 144"><polyline points="51 135 51 81 27 123 60 123" style="fill:none;stroke:#000;stroke-linecap:round;stroke-linejoin:round;stroke-width:6px"/><path d="M111,99V93A12.0353,12.0353,0,0,0,99,81H93A12.0353,12.0353,0,0,0,81,93v30a12.0353,12.0353,0,0,0,12,12h6a12.0353,12.0353,0,0,0,12-12V111H93" style="fill:none;stroke:#000;stroke-linecap:round;stroke-linejoin:round;stroke-width:6px"/><path d="M38,60.1a39.0639,39.0639,0,0,1,61.7,0" style="fill:none;stroke:#000;stroke-linecap:round;stroke-linejoin:round;stroke-width:6px"/><path d="M26.8,47a54.0351,54.0351,0,0,1,84.1,0" style="fill:none;stroke:#000;stroke-linecap:round;stroke-linejoin:round;stroke-width:6px"/><path d="M14.8,35.1a69.037,69.037,0,0,1,108.2.1" style="fill:none;stroke:#000;stroke-linecap:round;stroke-linejoin:round;stroke-width:6px"/><rect width="144" height="144" style="fill:none"/></svg>