<svg xmlns="http://www.w3.org/2000/svg" viewBox="0 0 144 144"><path d="M23.2,23.2a69.0465,69.0465,0,0,0,0,97.6" style="fill:none;stroke:#000;stroke-linecap:round;stroke-linejoin:round;stroke-width:6px"/><path d="M40.2,40.2a44.9045,44.9045,0,0,0,0,63.6" style="fill:none;stroke:#000;stroke-linecap:round;stroke-linejoin:round;stroke-width:6px"/><path d="M57.1,57.1A20.8355,20.8355,0,0,0,51,72a21.2557,21.2557,0,0,0,6.1,14.9" style="fill:none;stroke:#000;stroke-linecap:round;stroke-linejoin:round;stroke-width:6px"/><path d="M120.8,23.2a69.0465,69.0465,0,0,1,0,97.6" style="fill:none;stroke:#000;stroke-linecap:round;stroke-linejoin:round;stroke-width:6px"/><path d="M103.8,40.2a44.9045,44.9045,0,0,1,0,63.6" style="fill:none;stroke:#000;stroke-linecap:round;stroke-linejoin:round;stroke-width:6px"/><path d="M86.9,57.1A20.8355,20.8355,0,0,1,93,72a21.2557,21.2557,0,0,1-6.1,14.9" style="fill:none;stroke:#000;stroke-linecap:round;stroke-linejoin:round;stroke-width:6px"/><circle cx="72" cy="72" r="3" style="fill:none;stroke:#000;stroke-linejoin:round;stroke-width:6px"/><rect width="144" height="144" style="fill:none"/></svg>