<svg xmlns="http://www.w3.org/2000/svg" viewBox="0 0 144 144"><line x1="9" y1="141" x2="9" y2="3" style="fill:none;stroke:#000;stroke-linecap:round;stroke-linejoin:round;stroke-width:6px"/><path d="M135,105a6.0176,6.0176,0,0,1-6,6H39a6.0176,6.0176,0,0,1-6-6V15a6.0176,6.0176,0,0,1,6-6h90a6.0176,6.0176,0,0,1,6,6Z" style="fill:none;stroke:#000;stroke-linecap:round;stroke-linejoin:round;stroke-width:6px"/><line x1="9" y1="27" x2="33" y2="27" style="fill:none;stroke:#000;stroke-linecap:round;stroke-linejoin:round;stroke-width:6px"/><line x1="9" y1="93" x2="33" y2="93" style="fill:none;stroke:#000;stroke-linecap:round;stroke-linejoin:round;stroke-width:6px"/><polygon points="117 45 99 45 99 27 69 27 69 45 51 45 51 75 69 75 69 93 99 93 99 75 117 75 117 45" style="fill:none;stroke:#000;stroke-linecap:round;stroke-linejoin:round;stroke-width:6px"/><rect width="144" height="144" style="fill:none"/></svg>