<svg xmlns="http://www.w3.org/2000/svg" viewBox="0 0 144 144"><rect x="9" y="3" width="126" height="138" style="fill:none;stroke:#000;stroke-linejoin:round;stroke-width:6px"/><rect x="21" y="15" width="102" height="78" style="fill:none;stroke:#000;stroke-linejoin:round;stroke-width:6px"/><path d="M98.3,24,85.2,34.7A32.3854,32.3854,0,0,0,72,32a33.9884,33.9884,0,0,0-13.1,2.6L46,24c-5.5,11.7-4.2,18,2.4,24.3.5,8.9,11.3,27.1,23.6,27.1,12.2,0,23-18,23.6-26.9h0C102.4,42.2,103.8,35.9,98.3,24Z" style="fill:none;stroke:#000;stroke-linejoin:round;stroke-width:6px"/><path d="M58.2,68.1S44.7,76.9,44.7,93" style="fill:none;stroke:#000;stroke-linejoin:round;stroke-width:6px"/><path d="M85.9,68.1S99.8,76.9,99.8,93" style="fill:none;stroke:#000;stroke-linejoin:round;stroke-width:6px"/><polyline points="33 102 33 129 42 129" style="fill:none;stroke:#000;stroke-linejoin:round;stroke-width:6px"/><rect x="51" y="105" width="12" height="24" style="fill:none;stroke:#000;stroke-linejoin:round;stroke-width:6px"/><polyline points="90 105 75 105 75 117 87 117 87 129 72 129" style="fill:none;stroke:#000;stroke-linejoin:round;stroke-width:6px"/><line x1="96" y1="105" x2="114" y2="105" style="fill:none;stroke:#000;stroke-linejoin:round;stroke-width:6px"/><line x1="105" y1="105" x2="105" y2="132" style="fill:none;stroke:#000;stroke-linejoin:round;stroke-width:6px"/><line x1="63" y1="43.5" x2="63" y2="49.5" style="fill:none;stroke:#000;stroke-linejoin:round;stroke-width:6px"/><line x1="81" y1="43.5" x2="81" y2="49.5" style="fill:none;stroke:#000;stroke-linejoin:round;stroke-width:6px"/><rect width="144" height="144" style="fill:none"/></svg>