<svg xmlns="http://www.w3.org/2000/svg" viewBox="0 0 144 144"><rect x="39" y="27" width="66" height="90" style="fill:none;stroke:#000;stroke-linejoin:round;stroke-width:6px"/><path d="M33,15A12.0353,12.0353,0,0,1,45,3H99a12.0353,12.0353,0,0,1,12,12V27H33Z" style="fill:none;stroke:#000;stroke-linejoin:round;stroke-width:6px"/><path d="M111,129a12.0353,12.0353,0,0,1-12,12H45a12.0353,12.0353,0,0,1-12-12V117h78Z" style="fill:none;stroke:#000;stroke-linejoin:round;stroke-width:6px"/><line x1="95.6" y1="26.9" x2="38.7" y2="52.8" style="fill:none;stroke:#000;stroke-linejoin:round;stroke-width:6px"/><line x1="105.4" y1="46.4" x2="39" y2="76.7" style="fill:none;stroke:#000;stroke-linejoin:round;stroke-width:6px"/><line x1="105" y1="70.6" x2="39.1" y2="100.6" style="fill:none;stroke:#000;stroke-linejoin:round;stroke-width:6px"/><line x1="105.2" y1="94.5" x2="55" y2="117.4" style="fill:none;stroke:#000;stroke-linejoin:round;stroke-width:6px"/><rect width="144" height="144" style="fill:none"/></svg>