<svg xmlns="http://www.w3.org/2000/svg" viewBox="0 0 144 144"><path d="M100.7,91.7a22.2638,22.2638,0,0,1,2.6-10.4l8.8-16.5a6.0335,6.0335,0,0,0-2-8.4,6.1706,6.1706,0,0,0-8.5,2L90.4,76,97,39.9a6.1392,6.1392,0,0,0-12-2.6L78.1,67.8v-39a6.1,6.1,0,1,0-12.2,0v39L59,35.8a6.1392,6.1392,0,1,0-12,2.6l6.6,45.8L41.3,73.5A6.1583,6.1583,0,1,0,33,82.6l21.5,28.7A18.6278,18.6278,0,0,0,67.8,117H82.1C96.8,116.9,100.7,105.6,100.7,91.7Z" style="fill:none;stroke:#000;stroke-linejoin:round;stroke-width:6px"/><polygon points="43.5 141 3 100.7 3 44 43.5 3 100.2 3 141 44 141 100.7 100.2 141 43.5 141" style="fill:none;stroke:#000;stroke-linecap:round;stroke-linejoin:round;stroke-width:6px"/><rect width="144" height="144" style="fill:none"/></svg>