<svg xmlns="http://www.w3.org/2000/svg" viewBox="0 0 144 144"><polygon points="42 141 102 141 72 81 42 141" style="fill:none;stroke:#000;stroke-linejoin:round;stroke-width:6px"/><path d="M121.8,119.7a69,69,0,1,0-99.6,0" style="fill:none;stroke:#000;stroke-linecap:round;stroke-linejoin:round;stroke-width:6px"/><path d="M35.4,98.2A45.4406,45.4406,0,0,1,27,72a45,45,0,1,1,81.6,26.2" style="fill:none;stroke:#000;stroke-linecap:round;stroke-linejoin:round;stroke-width:6px"/><path d="M51,72.9V72a21,21,0,0,1,42,0v.9" style="fill:none;stroke:#000;stroke-linecap:round;stroke-linejoin:round;stroke-width:6px"/><line x1="72" y1="81" x2="72" y2="69" style="fill:none;stroke:#000;stroke-linecap:round;stroke-linejoin:round;stroke-width:6px"/><line x1="42.1" y1="141" x2="87" y2="111" style="fill:none;stroke:#000;stroke-linejoin:round;stroke-width:6px"/><line x1="102" y1="141" x2="57" y2="111" style="fill:none;stroke:#000;stroke-linejoin:round;stroke-width:6px"/><line x1="61.6" y1="102" x2="82.4" y2="102" style="fill:none;stroke:#000;stroke-linejoin:round;stroke-width:6px"/><rect width="144" height="144" style="fill:none"/></svg>