<svg xmlns="http://www.w3.org/2000/svg" viewBox="0 0 144 144"><path d="M15,87A12.0353,12.0353,0,0,0,27,99h78a12.0353,12.0353,0,0,0,12-12V39a12.0353,12.0353,0,0,0-12-12H27A12.0353,12.0353,0,0,0,15,39Z" style="fill:none;stroke:#000;stroke-linecap:round;stroke-linejoin:round;stroke-width:6px"/><polyline points="141 141 141 3 14.6 3" style="fill:none;stroke:#000;stroke-linecap:round;stroke-linejoin:round;stroke-width:6px"/><line x1="99" y1="27" x2="99" y2="3" style="fill:none;stroke:#000;stroke-linecap:round;stroke-linejoin:round;stroke-width:6px"/><line x1="33" y1="27" x2="33" y2="3" style="fill:none;stroke:#000;stroke-linecap:round;stroke-linejoin:round;stroke-width:6px"/><polyline points="97.3 75 90.6 51 84 75" style="fill:none;stroke:#000;stroke-linecap:round;stroke-linejoin:round;stroke-width:6px"/><line x1="85.5" y1="69.1" x2="95.8" y2="69.1" style="fill:none;stroke:#000;stroke-linecap:round;stroke-linejoin:round;stroke-width:6px"/><path d="M33,69.4A5.7207,5.7207,0,0,0,38.6,75a5.8143,5.8143,0,0,0,5.6-6c0-4.9-4.6-5.7-5.6-6S33,61.9,33,57a5.8143,5.8143,0,0,1,5.6-6,5.792,5.792,0,0,1,5.6,5.6" style="fill:none;stroke:#000;stroke-linecap:round;stroke-linejoin:round;stroke-width:6px"/><path d="M57,75V51h7.5a7.5,7.5,0,0,1,0,15H57" style="fill:none;stroke:#000;stroke-linecap:round;stroke-linejoin:round;stroke-width:6px"/><rect width="144" height="144" style="fill:none"/></svg>