<svg xmlns="http://www.w3.org/2000/svg" viewBox="0 0 144 144"><rect x="9" y="3" width="126" height="114" style="fill:none;stroke:#000;stroke-linejoin:round;stroke-width:6px"/><rect x="21" y="117" width="18" height="24" style="fill:none;stroke:#000;stroke-linejoin:round;stroke-width:6px"/><rect x="105" y="117" width="18" height="24" style="fill:none;stroke:#000;stroke-linejoin:round;stroke-width:6px"/><polyline points="67.2 93 57 93 57 69 67.2 69" style="fill:none;stroke:#000;stroke-linecap:round;stroke-linejoin:round;stroke-width:6px"/><line x1="57" y1="81" x2="64.4" y2="81" style="fill:none;stroke:#000;stroke-linecap:round;stroke-linejoin:round;stroke-width:6px"/><polyline points="81 92.5 81 69 93 92.5 93 69" style="fill:none;stroke:#000;stroke-linecap:round;stroke-linejoin:round;stroke-width:6px"/><path d="M33,92.5V69h5.6c4.8,0,5.6,2.6,5.6,5.9s-.8,5.9-5.6,5.9H33" style="fill:none;stroke:#000;stroke-linecap:round;stroke-linejoin:round;stroke-width:6px"/><line x1="38.6" y1="80.7" x2="44.2" y2="92.5" style="fill:none;stroke:#000;stroke-linecap:round;stroke-linejoin:round;stroke-width:6px"/><line x1="111" y1="93" x2="111" y2="69" style="fill:none;stroke:#000;stroke-linecap:round;stroke-linejoin:round;stroke-width:6px"/><line x1="105" y1="69" x2="117" y2="69" style="fill:none;stroke:#000;stroke-linecap:round;stroke-linejoin:round;stroke-width:6px"/><polyline points="45 51 45 27 55.2 27" style="fill:none;stroke:#000;stroke-linecap:round;stroke-linejoin:round;stroke-width:6px"/><line x1="45" y1="39" x2="52.4" y2="39" style="fill:none;stroke:#000;stroke-linecap:round;stroke-linejoin:round;stroke-width:6px"/><path d="M79.3,39c0,6.6-1,12-6.6,12C67,51,66,45.6,66,39s1-12,6.6-12C78.3,27,79.3,32.4,79.3,39Z" style="fill:none;stroke:#000;stroke-linecap:round;stroke-linejoin:round;stroke-width:6px"/><path d="M93,50.5V27h5.6c4.8,0,5.6,2.6,5.6,5.9s-.8,5.9-5.6,5.9H93" style="fill:none;stroke:#000;stroke-linecap:round;stroke-linejoin:round;stroke-width:6px"/><line x1="98.6" y1="38.7" x2="104.2" y2="50.5" style="fill:none;stroke:#000;stroke-linecap:round;stroke-linejoin:round;stroke-width:6px"/><rect width="144" height="144" style="fill:none"/></svg>