<svg xmlns="http://www.w3.org/2000/svg" viewBox="0 0 144 144"><path d="M117,68.2c.5,26.5-21.5,48.4-48,48.8S21.5,96.3,21,69.8,42.5,21.5,69,21,116.5,41.7,117,68.2Z" style="fill:none;stroke:#000;stroke-linecap:round;stroke-linejoin:round;stroke-width:6px"/><line x1="69" y1="75" x2="69" y2="45" style="fill:none;stroke:#000;stroke-linecap:round;stroke-linejoin:round;stroke-width:6px"/><path d="M69,87.3h0A4.35,4.35,0,1,0,69,96h.1a4.3538,4.3538,0,0,0,4.3-4.4A4.4188,4.4188,0,0,0,69,87.3Z" style="fill:#000"/><path d="M24,117.3A66.0237,66.0237,0,0,1,23.7,21" style="fill:none;stroke:#000;stroke-linecap:round;stroke-linejoin:round;stroke-width:6px"/><path d="M114.1,20.8a66.0375,66.0375,0,0,1-.1,96.5" style="fill:none;stroke:#000;stroke-linecap:round;stroke-linejoin:round;stroke-width:6px"/><rect width="144" height="144" style="fill:none"/></svg>