<svg xmlns="http://www.w3.org/2000/svg" viewBox="0 0 144 144"><path d="M21,87A12.0353,12.0353,0,0,0,33,99h84a12.0353,12.0353,0,0,0,12-12V63a12.0353,12.0353,0,0,0-12-12H33A12.0353,12.0353,0,0,0,21,63Z" style="fill:none;stroke:#000;stroke-linecap:round;stroke-linejoin:round;stroke-width:6px"/><polyline points="42 51 75 18 108 51" style="fill:none;stroke:#000;stroke-linecap:round;stroke-linejoin:round;stroke-width:6px"/><path d="M102,87V63h3c5.2,0,9,5.5,9,12s-3.8,12-9,12Z" style="fill:none;stroke:#000;stroke-linecap:round;stroke-linejoin:round;stroke-width:6px"/><polyline points="93 87 81 87 81 63" style="fill:none;stroke:#000;stroke-linecap:round;stroke-linejoin:round;stroke-width:6px"/><path d="M69,75c0,6.6-.4,12-6,12-5.7,0-6-5.4-6-12s.3-12,6-12C68.6,63,69,68.4,69,75Z" style="fill:none;stroke:#000;stroke-linecap:round;stroke-linejoin:round;stroke-width:6px"/><path d="M36,81.4A5.6069,5.6069,0,1,0,47.2,81c0-4.9-4.6-5.7-5.6-6S36,73.9,36,69a5.6069,5.6069,0,1,1,11.2-.4" style="fill:none;stroke:#000;stroke-linecap:round;stroke-linejoin:round;stroke-width:6px"/><rect width="144" height="144" style="fill:none"/></svg>