<svg xmlns="http://www.w3.org/2000/svg" viewBox="0 0 144 144"><path d="M123,135a6.0176,6.0176,0,0,1-6,6H27a6.0176,6.0176,0,0,1-6-6V9a6.0176,6.0176,0,0,1,6-6H90.2a5.8311,5.8311,0,0,1,4.6,2.2l26.8,32.6a5.9428,5.9428,0,0,1,1.4,3.8Z" style="fill:none;stroke:#000;stroke-linejoin:round;stroke-width:6px"/><path d="M105,111a12.0353,12.0353,0,0,1-12,12H51a12.0353,12.0353,0,0,1-12-12V81A12.0353,12.0353,0,0,1,51,69H93a12.0353,12.0353,0,0,1,12,12Z" style="fill:none;stroke:#000;stroke-linejoin:round;stroke-width:6px"/><line x1="57" y1="123" x2="57" y2="69" style="fill:none;stroke:#000;stroke-linejoin:round;stroke-width:6px"/><line x1="87" y1="123" x2="87" y2="69" style="fill:none;stroke:#000;stroke-linejoin:round;stroke-width:6px"/><line x1="87" y1="87" x2="105" y2="87" style="fill:none;stroke:#000;stroke-linejoin:round;stroke-width:6px"/><line x1="39" y1="87" x2="57" y2="87" style="fill:none;stroke:#000;stroke-linejoin:round;stroke-width:6px"/><line x1="87" y1="105" x2="105" y2="105" style="fill:none;stroke:#000;stroke-linejoin:round;stroke-width:6px"/><line x1="39" y1="105" x2="57" y2="105" style="fill:none;stroke:#000;stroke-linejoin:round;stroke-width:6px"/><path d="M39,3V27" style="fill:none;stroke:#000;stroke-linejoin:round;stroke-width:6px"/><path d="M57,3V27" style="fill:none;stroke:#000;stroke-linejoin:round;stroke-width:6px"/><path d="M75,3V27" style="fill:none;stroke:#000;stroke-linejoin:round;stroke-width:6px"/><rect width="144" height="144" style="fill:none"/></svg>