<svg xmlns="http://www.w3.org/2000/svg" viewBox="0 0 144 144"><circle cx="63.4" cy="54" r="18" style="fill:none;stroke:#000;stroke-linecap:round;stroke-linejoin:round;stroke-width:6px"/><path d="M81.2,57.2l27.2,27.2a8.4853,8.4853,0,0,1-12,12L70.5,70.5" style="fill:none;stroke:#000;stroke-linecap:round;stroke-linejoin:round;stroke-width:6px"/><line x1="50.6" y1="66.7" x2="76.1" y2="41.3" style="fill:none;stroke:#000;stroke-linecap:round;stroke-linejoin:round;stroke-width:6px"/><line x1="87" y1="87" x2="87" y2="123" style="fill:none;stroke:#000;stroke-linecap:round;stroke-linejoin:round;stroke-width:6px"/><line x1="78" y1="123" x2="96" y2="123" style="fill:none;stroke:#000;stroke-linecap:round;stroke-linejoin:round;stroke-width:6px"/><ellipse cx="84" cy="126" rx="45" ry="15" style="fill:none;stroke:#000;stroke-linecap:round;stroke-linejoin:round;stroke-width:6px"/><line x1="65.6" y1="84" x2="42.9" y2="119.9" style="fill:none;stroke:#000;stroke-linecap:round;stroke-linejoin:round;stroke-width:6px"/><polyline points="129 126 117 3 90.4 45" style="fill:none;stroke:#000;stroke-linecap:round;stroke-linejoin:round;stroke-width:6px"/><path d="M24,15c0,9.4,4.6,14.8,15,15-9.7,0-14.5,5.2-15,15-.1-9.3-4.2-15-15-15C18.6,29.9,24,25.2,24,15Z" style="fill:none;stroke:#000;stroke-linecap:round;stroke-linejoin:round;stroke-width:6px"/><path d="M81,3c0,9.4,4.6,14.8,15,15-9.7,0-14.5,5.2-15,15-.1-9.3-4.2-15-15-15C75.6,17.9,81,13.2,81,3Z" style="fill:none;stroke:#000;stroke-linecap:round;stroke-linejoin:round;stroke-width:6px"/><rect width="144" height="144" style="fill:none"/></svg>