<svg xmlns="http://www.w3.org/2000/svg" viewBox="0 0 144 144"><path d="M17.4,84.1l-4.2,4.2a29.9813,29.9813,0,0,0,42.4,42.4l4.2-4.2" style="fill:none;stroke:#000;stroke-linejoin:round;stroke-width:6px"/><line x1="68.3" y1="33.2" x2="34.3" y2="67.2" style="fill:none;stroke:#000;stroke-linejoin:round;stroke-width:6px"/><path d="M127.7,58.7l4.2-4.3A29.9813,29.9813,0,0,0,89.5,12l-4.2,4.2" style="fill:none;stroke:#000;stroke-linejoin:round;stroke-width:6px"/><line x1="76.8" y1="109.6" x2="110.7" y2="75.6" style="fill:none;stroke:#000;stroke-linejoin:round;stroke-width:6px"/><rect x="105.127" y="56.0617" width="24.0015" height="18.0011" transform="translate(-11.687 101.9236) rotate(-45.0203)" style="fill:none;stroke:#000;stroke-linecap:round;stroke-linejoin:round;stroke-width:6.000367202789619px"/><rect x="66.9155" y="17.8721" width="23.9998" height="17.9998" transform="translate(4.1124 63.6722) rotate(-45)" style="fill:none;stroke:#000;stroke-linecap:round;stroke-linejoin:round;stroke-width:5.999942240425611px"/><line x1="85.2" y1="33.2" x2="110.7" y2="58.7" style="fill:none;stroke:#000;stroke-linecap:round;stroke-linejoin:round;stroke-width:6px"/><rect x="54.2122" y="106.9563" width="23.9998" height="17.9998" transform="translate(-62.6053 80.8) rotate(-45.0081)" style="fill:none;stroke:#000;stroke-linecap:round;stroke-linejoin:round;stroke-width:5.999942553291428px"/><rect x="16.0018" y="68.7612" width="23.9998" height="17.9998" transform="translate(-46.774 42.5548) rotate(-44.9838)" style="fill:none;stroke:#000;stroke-linecap:round;stroke-linejoin:round;stroke-width:5.9999427333171225px"/><line x1="34.3" y1="84.1" x2="59.8" y2="109.6" style="fill:none;stroke:#000;stroke-linecap:round;stroke-linejoin:round;stroke-width:6px"/><rect width="144" height="144" style="fill:none"/></svg>