<svg xmlns="http://www.w3.org/2000/svg" viewBox="0 0 144 144"><path d="M31,21A17.0913,17.0913,0,0,1,48,3,17.0093,17.0093,0,0,1,60.4,8.3a17.398,17.398,0,0,1,4.7,12.6l-5,81.5,6,38.5H30l6-39Z" style="fill:none;stroke:#000;stroke-linejoin:round;stroke-width:6px"/><path d="M79,21A17.0913,17.0913,0,0,1,96,3a17.0093,17.0093,0,0,1,12.4,5.3,17.398,17.398,0,0,1,4.7,12.6l-5,81.5,6,38.5H78l6-39Z" style="fill:none;stroke:#000;stroke-linejoin:round;stroke-width:6px"/><rect x="123" y="3" width="12" height="30" style="fill:none;stroke:#000;stroke-linejoin:round;stroke-width:6px"/><line x1="129" y1="33" x2="129" y2="141" style="fill:none;stroke:#000;stroke-linecap:round;stroke-linejoin:round;stroke-width:6px"/><line x1="120" y1="123" x2="138" y2="123" style="fill:none;stroke:#000;stroke-linecap:round;stroke-linejoin:round;stroke-width:6px"/><rect x="9" y="3" width="12" height="30" style="fill:none;stroke:#000;stroke-linejoin:round;stroke-width:6px"/><line x1="15" y1="33" x2="15" y2="141" style="fill:none;stroke:#000;stroke-linecap:round;stroke-linejoin:round;stroke-width:6px"/><line x1="6" y1="123" x2="24" y2="123" style="fill:none;stroke:#000;stroke-linecap:round;stroke-linejoin:round;stroke-width:6px"/><line x1="30" y1="63" x2="66" y2="63" style="fill:none;stroke:#000;stroke-linecap:round;stroke-linejoin:round;stroke-width:6px"/><line x1="30" y1="99" x2="66" y2="99" style="fill:none;stroke:#000;stroke-linecap:round;stroke-linejoin:round;stroke-width:6px"/><line x1="78" y1="63" x2="114" y2="63" style="fill:none;stroke:#000;stroke-linecap:round;stroke-linejoin:round;stroke-width:6px"/><line x1="78" y1="99" x2="114" y2="99" style="fill:none;stroke:#000;stroke-linecap:round;stroke-linejoin:round;stroke-width:6px"/><rect width="144" height="144" style="fill:none"/></svg>