<svg xmlns="http://www.w3.org/2000/svg" viewBox="0 0 144 144"><path d="M129.3,54c0-28.2-25.6-51-53.7-51S21.3,25.8,21.3,54v48c0,8.3,3.7,15,12,15v12a12.0353,12.0353,0,0,0,12,12h60a12.0353,12.0353,0,0,0,12-12V117c8.3,0,12-6.7,12-15Z" style="fill:none;stroke:#000;stroke-linecap:round;stroke-linejoin:round;stroke-width:6px"/><line x1="75.3" y1="141" x2="75.3" y2="117" style="fill:none;stroke:#000;stroke-linecap:round;stroke-linejoin:round;stroke-width:6px"/><line x1="99.3" y1="141" x2="99.3" y2="117" style="fill:none;stroke:#000;stroke-linecap:round;stroke-linejoin:round;stroke-width:6px"/><line x1="51.3" y1="141" x2="51.3" y2="117" style="fill:none;stroke:#000;stroke-linecap:round;stroke-linejoin:round;stroke-width:6px"/><circle cx="102.3" cy="84" r="15" style="fill:none;stroke:#000;stroke-linecap:round;stroke-linejoin:round;stroke-width:6px"/><circle cx="48.3" cy="84" r="15" style="fill:none;stroke:#000;stroke-linecap:round;stroke-linejoin:round;stroke-width:6px"/><path d="M21.3,63a18.0529,18.0529,0,0,0,18-18V39" style="fill:none;stroke:#000;stroke-linecap:round;stroke-linejoin:round;stroke-width:6px"/><path d="M129.3,63a18.0529,18.0529,0,0,1-18-18V39" style="fill:none;stroke:#000;stroke-linecap:round;stroke-linejoin:round;stroke-width:6px"/><path d="M75.5,102a3.0085,3.0085,0,0,0-3,3h6A3.0085,3.0085,0,0,0,75.5,102Z" style="fill:none;stroke:#000;stroke-linecap:round;stroke-linejoin:round;stroke-width:6px"/><rect width="144" height="144" style="fill:none"/></svg>