<svg xmlns="http://www.w3.org/2000/svg" viewBox="0 0 144 144"><path d="M69,24H63A12.0353,12.0353,0,0,0,51,36,51.66,51.66,0,0,1,32.6,75.4L15,90" style="fill:none;stroke:#000;stroke-miterlimit:10;stroke-width:6px"/><path d="M80.8,87.4C74.9,97.6,45,123,45,123" style="fill:none;stroke:#000;stroke-linecap:round;stroke-miterlimit:10;stroke-width:6px"/><path d="M123,24h-6a12.0353,12.0353,0,0,0-12,12,78.8159,78.8159,0,0,1-.9,12" style="fill:none;stroke:#000;stroke-linecap:round;stroke-miterlimit:10;stroke-width:6px"/><path d="M132,15a8.9626,8.9626,0,0,0-9,9v6.3a41.5087,41.5087,0,0,1-8.4,25.2,12,12,0,0,1-19.2,0A41.7256,41.7256,0,0,1,87,30.3V24a9,9,0,0,0-18,0v6.3A59.239,59.239,0,0,0,89,75a11.984,11.984,0,0,1,4,9v51a6.0176,6.0176,0,0,0,6,6h12a6.0176,6.0176,0,0,0,6-6V84a12.35,12.35,0,0,1,4-9,59.5546,59.5546,0,0,0,20-44.7V24A8.9626,8.9626,0,0,0,132,15Z" style="fill:none;stroke:#000;stroke-miterlimit:10;stroke-width:6px"/><path d="M25.1,110.9A40.1148,40.1148,0,0,1,13.8,76a33.0327,33.0327,0,0,0,46.3,46.3A40.9684,40.9684,0,0,1,25.1,110.9Z" style="fill:none;stroke:#000;stroke-linejoin:round;stroke-width:6px"/><rect width="144" height="144" style="fill:none"/></svg>