<svg xmlns="http://www.w3.org/2000/svg" viewBox="0 0 144 144.1"><path d="M81,37.7A28.765,28.765,0,0,1,109.7,9H111a28.7093,28.7093,0,0,1,28.6,30L136,114.7a27.5116,27.5116,0,0,1-55-1.3V37.7Z" style="fill:none;stroke:#000;stroke-linejoin:round;stroke-width:6px"/><line x1="116.2" y1="45.8" x2="138" y2="72" style="fill:none;stroke:#000;stroke-linejoin:round;stroke-width:6px"/><line x1="81" y1="72.6" x2="100.2" y2="46.5" style="fill:none;stroke:#000;stroke-linejoin:round;stroke-width:6px"/><circle cx="108" cy="42" r="9" style="fill:none;stroke:#000;stroke-linejoin:round;stroke-width:6px"/><path d="M63,37.7C63,21.9,49.6,9,33.8,9H32.5a28.5237,28.5237,0,0,0-20.7,8.9A28.3767,28.3767,0,0,0,3.8,39l3.6,75.7A27.8213,27.8213,0,0,0,63,113.4V37.7Z" style="fill:none;stroke:#000;stroke-linejoin:round;stroke-width:6px"/><line x1="27.3" y1="45.8" x2="5.5" y2="72" style="fill:none;stroke:#000;stroke-linejoin:round;stroke-width:6px"/><line x1="63" y1="73.2" x2="43.3" y2="46.5" style="fill:none;stroke:#000;stroke-linejoin:round;stroke-width:6px"/><circle cx="35.5" cy="42" r="9" style="fill:none;stroke:#000;stroke-linejoin:round;stroke-width:6px"/><rect width="144" height="144" style="fill:none"/></svg>