<svg xmlns="http://www.w3.org/2000/svg" viewBox="0 0 144 144"><path d="M14.1,57C11.8,57,9,53,9,50.6V7.5C9,5.1,11.8,3,14.1,3h8.6A4.4416,4.4416,0,0,1,27,7.5v4.3s8.6-8.6,25.9-8.6,21.5,8.6,38.8,8.6a59.4877,59.4877,0,0,0,30.1-8.6l10.8,12.9S98.9,103.3,96.2,137a4.3505,4.3505,0,0,1-4.3,4H53a4.3873,4.3873,0,0,1-3.1-1.3,4.717,4.717,0,0,1-1.2-3.2c.8-14.5,6.7-61.1,51.6-98.8C96,42,89.5,46.3,78.7,46.3S55,37.7,46.4,37.7c-7.8,0-17.3,4.6-19.1,14.7-.3,2-2.1,4.6-4.2,4.6Z" style="fill:none;stroke:#000;stroke-linecap:round;stroke-linejoin:round;stroke-width:6px"/><rect width="144" height="144" style="fill:none"/></svg>