<svg xmlns="http://www.w3.org/2000/svg" viewBox="0 0 144 144.1"><path d="M93,3H51C18,3,21,30.2,21,57v66a12.0353,12.0353,0,0,0,12,12h78a12.0353,12.0353,0,0,0,12-12V57C123,30,126,3,93,3Z" style="fill:none;stroke:#000;stroke-linejoin:round;stroke-width:6px"/><line x1="45.1" y1="15" x2="99.1" y2="15" style="fill:none;stroke:#000;stroke-linecap:round;stroke-linejoin:round;stroke-width:6px"/><line x1="45.1" y1="27" x2="99.1" y2="27" style="fill:none;stroke:#000;stroke-linecap:round;stroke-linejoin:round;stroke-width:6px"/><line x1="45.1" y1="39" x2="99.1" y2="39" style="fill:none;stroke:#000;stroke-linecap:round;stroke-linejoin:round;stroke-width:6px"/><path d="M99,96a27,27,0,0,0-54,0v39H99Z" style="fill:none;stroke:#000;stroke-linejoin:round;stroke-width:6px"/><path d="M33,7.3V39A12.0353,12.0353,0,0,0,45,51H99a12.0353,12.0353,0,0,0,12-12V7.2" style="fill:none;stroke:#000;stroke-linejoin:round;stroke-width:6px"/><line x1="39" y1="141.1" x2="39" y2="135" style="fill:none;stroke:#000;stroke-linecap:round;stroke-linejoin:round;stroke-width:6px"/><line x1="105" y1="141.1" x2="105" y2="135" style="fill:none;stroke:#000;stroke-linecap:round;stroke-linejoin:round;stroke-width:6px"/><rect width="144" height="144" style="fill:none"/></svg>