<svg xmlns="http://www.w3.org/2000/svg" viewBox="0 0 144 144"><polyline points="51 35.7 51 3 93 3 93 35.6" style="fill:none;stroke:#000;stroke-linejoin:round;stroke-width:6px"/><polyline points="51 108.4 51 141 93 141 93 108.2" style="fill:none;stroke:#000;stroke-linejoin:round;stroke-width:6px"/><circle cx="72" cy="72" r="42" style="fill:none;stroke:#000;stroke-linecap:round;stroke-linejoin:round;stroke-width:6px"/><path d="M93,81a5.8929,5.8929,0,0,1-6,6H57a5.8929,5.8929,0,0,1-6-6V63a5.8929,5.8929,0,0,1,6-6H87a5.8929,5.8929,0,0,1,6,6Z" style="fill:none;stroke:#000;stroke-linecap:round;stroke-linejoin:round;stroke-width:6px"/><polyline points="91.4 58.9 72 75 52.6 58.9" style="fill:none;stroke:#000;stroke-linecap:round;stroke-linejoin:round;stroke-width:6px"/><rect width="144" height="144" style="fill:none"/></svg>