<svg xmlns="http://www.w3.org/2000/svg" viewBox="0 0 144 144"><polyline points="51 35.7 51 3 93 3 93 35.6" style="fill:none;stroke:#000;stroke-linejoin:round;stroke-width:6px"/><polyline points="51 108.4 51 141 93 141 93 108.2" style="fill:none;stroke:#000;stroke-linejoin:round;stroke-width:6px"/><circle cx="72" cy="72" r="42" style="fill:none;stroke:#000;stroke-linecap:round;stroke-linejoin:round;stroke-width:6px"/><path d="M81,66.5V81c0,3,3.4,6,6,6h6a6.4523,6.4523,0,0,0,6-6V75c0-12-54-12-54,0v6a6.4523,6.4523,0,0,0,6,6h6a6.4523,6.4523,0,0,0,6-6V66.5" style="fill:none;stroke:#000;stroke-linecap:round;stroke-linejoin:round;stroke-width:6px"/><line x1="72" y1="45" x2="72" y2="54" style="fill:none;stroke:#000;stroke-linecap:round;stroke-linejoin:round;stroke-width:6px"/><line x1="90.8" y1="49.1" x2="87" y2="57.3" style="fill:none;stroke:#000;stroke-linecap:round;stroke-linejoin:round;stroke-width:6px"/><line x1="53.2" y1="49.1" x2="57" y2="57.3" style="fill:none;stroke:#000;stroke-linecap:round;stroke-linejoin:round;stroke-width:6px"/><rect width="144" height="144" style="fill:none"/></svg>