<svg xmlns="http://www.w3.org/2000/svg" viewBox="0 0 144 144"><path d="M117,99a12.0353,12.0353,0,0,1-12,12H39A12.0353,12.0353,0,0,1,27,99V45A12.0353,12.0353,0,0,1,39,33h66a12.0353,12.0353,0,0,1,12,12Z" style="fill:none;stroke:#000;stroke-linejoin:round;stroke-width:6px"/><polygon points="99 21 45 21 39 33 105 33 99 21" style="fill:none;stroke:#000;stroke-linejoin:round;stroke-width:6px"/><rect x="45" y="3" width="54" height="18" style="fill:none;stroke:#000;stroke-linejoin:round;stroke-width:6px"/><polygon points="45 123 99 123 105 111 39 111 45 123" style="fill:none;stroke:#000;stroke-linejoin:round;stroke-width:6px"/><rect x="45" y="123" width="54" height="18" style="fill:none;stroke:#000;stroke-linejoin:round;stroke-width:6px"/><rect x="39" y="81" width="66" height="18" style="fill:none;stroke:#000;stroke-linejoin:round;stroke-width:6px"/><path d="M100.6,57c0,5-.7,9-4.6,9s-4.6-4-4.6-9,.7-9,4.6-9S100.6,52,100.6,57Z" style="fill:none;stroke:#000;stroke-linecap:round;stroke-linejoin:round;stroke-width:6px"/><polyline points="79.8 65.6 79.8 48 72 59.2 81.2 59.2" style="fill:none;stroke:#000;stroke-linecap:round;stroke-linejoin:round;stroke-width:6px"/><path d="M49.4,58.6c-3.9,0-4.6-3.3-4.6-5.2s.7-5.2,4.6-5.2S54,51.5,54,53.4,53.3,58.6,49.4,58.6Z" style="fill:none;stroke:#000;stroke-linecap:round;stroke-linejoin:round;stroke-width:6px"/><path d="M47.2,66C53,66,54,61.1,54,58.3V53.4" style="fill:none;stroke:#000;stroke-linecap:round;stroke-linejoin:round;stroke-width:6px"/><path d="M64.5,51A1.5,1.5,0,1,0,66,52.5,1.538,1.538,0,0,0,64.5,51Z"/><path d="M64.5,60A1.5,1.5,0,1,0,66,61.5,1.538,1.538,0,0,0,64.5,60Z"/><rect width="144" height="144" style="fill:none"/></svg>