<svg xmlns="http://www.w3.org/2000/svg" viewBox="0 0 144 144"><path d="M117,99a12.0353,12.0353,0,0,1-12,12H39A12.0353,12.0353,0,0,1,27,99V45A12.0353,12.0353,0,0,1,39,33h66a12.0353,12.0353,0,0,1,12,12Z" style="fill:none;stroke:#000;stroke-linejoin:round;stroke-width:6px"/><polygon points="99 21 45 21 39 33 105 33 99 21" style="fill:none;stroke:#000;stroke-linejoin:round;stroke-width:6px"/><rect x="45" y="3" width="54" height="18" style="fill:none;stroke:#000;stroke-linejoin:round;stroke-width:6px"/><polygon points="45 123 99 123 105 111 39 111 45 123" style="fill:none;stroke:#000;stroke-linejoin:round;stroke-width:6px"/><rect x="45" y="123" width="54" height="18" style="fill:none;stroke:#000;stroke-linejoin:round;stroke-width:6px"/><path d="M84.1,54.9A20.9783,20.9783,0,1,1,51,72a21.0721,21.0721,0,0,1,9-17.2" style="fill:none;stroke:#000;stroke-linecap:round;stroke-linejoin:round;stroke-width:6px"/><line x1="72" y1="66" x2="72" y2="45" style="fill:none;stroke:#000;stroke-linecap:round;stroke-linejoin:round;stroke-width:6px"/><rect width="144" height="144" style="fill:none"/></svg>