<svg xmlns="http://www.w3.org/2000/svg" viewBox="0 0 144 144"><polyline points="51 35.7 51 3 93 3 93 35.6" style="fill:none;stroke:#000;stroke-linejoin:round;stroke-width:6px"/><polyline points="51 108.4 51 141 93 141 93 108.2" style="fill:none;stroke:#000;stroke-linejoin:round;stroke-width:6px"/><circle cx="72" cy="72" r="42" style="fill:none;stroke:#000;stroke-linecap:round;stroke-linejoin:round;stroke-width:6px"/><path d="M52.7,76.1l8.8-8.7a4.7083,4.7083,0,0,0,0-6.6l-5-5a4.8311,4.8311,0,0,0-6.7,0l-2.7,2.7a7.1133,7.1133,0,0,0-.9,8.9A108.7461,108.7461,0,0,0,76.8,98a7.1133,7.1133,0,0,0,8.9-.9l2.7-2.7a4.7083,4.7083,0,0,0,0-6.6l-5-5a4.7083,4.7083,0,0,0-6.6,0L68,91.6" style="fill:none;stroke:#000;stroke-linecap:round;stroke-linejoin:round;stroke-width:6px"/><line x1="75" y1="69" x2="93" y2="51" style="fill:none;stroke:#000;stroke-linecap:round;stroke-linejoin:round;stroke-width:6px"/><polyline points="87 69 75 69 75 57" style="fill:none;stroke:#000;stroke-linecap:round;stroke-linejoin:round;stroke-width:6px"/><rect width="144" height="144" style="fill:none"/></svg>