<svg xmlns="http://www.w3.org/2000/svg" viewBox="0 0 144 144"><path d="M92.4,90.7l6-10.4-6-3.5a19.9021,19.9021,0,0,0,0-9.7l6-3.5-6-10.4-6,3.5A21.7468,21.7468,0,0,0,78,52V45H66v7a21.9532,21.9532,0,0,0-8.4,4.8l-6-3.5-6,10.4,6,3.5a19.9021,19.9021,0,0,0,0,9.7l-6,3.5,6,10.4,6-3.5A21.9532,21.9532,0,0,0,66,92.1v7H78v-7a21.9532,21.9532,0,0,0,8.4-4.8Z" style="fill:none;stroke:#000;stroke-linejoin:round;stroke-width:6px"/><circle cx="72" cy="72" r="9" style="fill:none;stroke:#000;stroke-linejoin:round;stroke-width:6px"/><path d="M117,99a12.0353,12.0353,0,0,1-12,12H39A12.0353,12.0353,0,0,1,27,99V45A12.0353,12.0353,0,0,1,39,33h66a12.0353,12.0353,0,0,1,12,12Z" style="fill:none;stroke:#000;stroke-linejoin:round;stroke-width:6px"/><polygon points="99 21 45 21 39 33 105 33 99 21" style="fill:none;stroke:#000;stroke-linejoin:round;stroke-width:6px"/><rect x="45" y="3" width="54" height="18" style="fill:none;stroke:#000;stroke-linejoin:round;stroke-width:6px"/><polygon points="45 123 99 123 105 111 39 111 45 123" style="fill:none;stroke:#000;stroke-linejoin:round;stroke-width:6px"/><rect x="45" y="123" width="54" height="18" style="fill:none;stroke:#000;stroke-linejoin:round;stroke-width:6px"/><rect width="144" height="144" style="fill:none"/></svg>