<svg xmlns="http://www.w3.org/2000/svg" viewBox="0 0 144 144"><path d="M90,111h40.5c10.1,0,10.1-12,0-12H108" style="fill:none;stroke:#000;stroke-linecap:round;stroke-linejoin:round;stroke-width:6px"/><path d="M102,63H82.5C65.9,63,57,69,57,69H3v42H57s13.5,12,25.5,12h18c5,0,10.5-4,10.5-9v-3" style="fill:none;stroke:#000;stroke-linecap:round;stroke-linejoin:round;stroke-width:6px"/><path d="M114,99h22.5c5.6,0,5.5-12,0-12H114" style="fill:none;stroke:#000;stroke-linecap:round;stroke-linejoin:round;stroke-width:6px"/><path d="M108,87h22.5c6,0,5.8-12,0-12H108" style="fill:none;stroke:#000;stroke-linecap:round;stroke-linejoin:round;stroke-width:6px"/><path d="M102,75h16.5c10,0,9.9-12,0-12H90" style="fill:none;stroke:#000;stroke-linecap:round;stroke-linejoin:round;stroke-width:6px"/><rect x="27" y="81" width="24" height="18" style="fill:none;stroke:#000;stroke-linecap:round;stroke-linejoin:round;stroke-width:6px"/><line x1="45" y1="69" x2="45" y2="81" style="fill:none;stroke:#000;stroke-linecap:round;stroke-linejoin:round;stroke-width:6px"/><line x1="45" y1="99" x2="45" y2="111" style="fill:none;stroke:#000;stroke-linecap:round;stroke-linejoin:round;stroke-width:6px"/><line x1="33" y1="69" x2="33" y2="81" style="fill:none;stroke:#000;stroke-linecap:round;stroke-linejoin:round;stroke-width:6px"/><line x1="33" y1="99" x2="33" y2="111" style="fill:none;stroke:#000;stroke-linecap:round;stroke-linejoin:round;stroke-width:6px"/><path d="M70.3,24.3a50.8634,50.8634,0,0,0-56.6,0" style="fill:none;stroke:#000;stroke-linecap:round;stroke-linejoin:round;stroke-width:6px"/><path d="M63.6,34.3A39.06,39.06,0,0,0,42,27.7a38.2739,38.2739,0,0,0-21.6,6.6" style="fill:none;stroke:#000;stroke-linecap:round;stroke-linejoin:round;stroke-width:6px"/><path d="M57,44.3a26.5233,26.5233,0,0,0-15-4.5,27.3168,27.3168,0,0,0-15,4.5" style="fill:none;stroke:#000;stroke-linecap:round;stroke-linejoin:round;stroke-width:6px"/><rect width="144" height="144" style="fill:none"/></svg>