<svg xmlns="http://www.w3.org/2000/svg" viewBox="0 0 144 144"><path d="M117,99a12.0353,12.0353,0,0,1-12,12H39A12.0353,12.0353,0,0,1,27,99V45A12.0353,12.0353,0,0,1,39,33h66a12.0353,12.0353,0,0,1,12,12Z" style="fill:none;stroke:#000;stroke-linejoin:round;stroke-width:6px"/><polygon points="99 21 45 21 39 33 105 33 99 21" style="fill:none;stroke:#000;stroke-linejoin:round;stroke-width:6px"/><rect x="45" y="3" width="54" height="18" style="fill:none;stroke:#000;stroke-linejoin:round;stroke-width:6px"/><polygon points="45 123 99 123 105 111 39 111 45 123" style="fill:none;stroke:#000;stroke-linejoin:round;stroke-width:6px"/><rect x="45" y="123" width="54" height="18" style="fill:none;stroke:#000;stroke-linejoin:round;stroke-width:6px"/><path d="M81,72.5V87c0,3,3.4,6,6,6h6a6.4523,6.4523,0,0,0,6-6V81c0-12-54-12-54,0v6a6.4523,6.4523,0,0,0,6,6h6a6.4523,6.4523,0,0,0,6-6V72.4" style="fill:none;stroke:#000;stroke-linecap:round;stroke-linejoin:round;stroke-width:6px"/><line x1="72" y1="51" x2="72" y2="60" style="fill:none;stroke:#000;stroke-linecap:round;stroke-linejoin:round;stroke-width:6px"/><line x1="90.8" y1="55.1" x2="87" y2="63.3" style="fill:none;stroke:#000;stroke-linecap:round;stroke-linejoin:round;stroke-width:6px"/><line x1="53.2" y1="55.1" x2="57" y2="63.3" style="fill:none;stroke:#000;stroke-linecap:round;stroke-linejoin:round;stroke-width:6px"/><rect width="144" height="144" style="fill:none"/></svg>