<svg xmlns="http://www.w3.org/2000/svg" viewBox="0 0 144 144"><path d="M111,33a6.0176,6.0176,0,0,0-6-6H39a6.0176,6.0176,0,0,0-6,6V135a6.0176,6.0176,0,0,0,6,6h66a6.0176,6.0176,0,0,0,6-6Z" style="fill:none;stroke:#000;stroke-linejoin:round;stroke-width:6px"/><rect x="45" y="45" width="54" height="78" style="fill:none;stroke:#000;stroke-linejoin:round;stroke-width:6px"/><circle cx="72" cy="72" r="15" style="fill:none;stroke:#000;stroke-linejoin:round;stroke-width:6px"/><line x1="69" y1="108" x2="69" y2="96" style="fill:none;stroke:#000;stroke-linejoin:round;stroke-width:6px"/><line x1="57" y1="108" x2="57" y2="96" style="fill:none;stroke:#000;stroke-linejoin:round;stroke-width:6px"/><polygon points="81 96 81 108 90 102 81 96"  style="fill:#000"/><path d="M15,27A12.0353,12.0353,0,0,1,27,15" style="fill:none;stroke:#000;stroke-linecap:round;stroke-linejoin:round;stroke-width:6px"/><path d="M3,27A23.9424,23.9424,0,0,1,27,3" style="fill:none;stroke:#000;stroke-linecap:round;stroke-linejoin:round;stroke-width:6px"/><path d="M129,27a12.0353,12.0353,0,0,0-12-12" style="fill:none;stroke:#000;stroke-linecap:round;stroke-linejoin:round;stroke-width:6px"/><path d="M141,27A23.9424,23.9424,0,0,0,117,3" style="fill:none;stroke:#000;stroke-linecap:round;stroke-linejoin:round;stroke-width:6px"/><rect width="144" height="144" style="fill:none"/></svg>