<svg xmlns="http://www.w3.org/2000/svg" viewBox="0 0 144 144"><circle cx="72" cy="72" r="69" style="fill:none;stroke:#000;stroke-linecap:round;stroke-linejoin:round;stroke-width:6px"/><path d="M33.4,63a25.2822,25.2822,0,0,1-1.9-9.6A19.6745,19.6745,0,0,1,51.2,33.7,15.8335,15.8335,0,0,1,67,49.5,12.5476,12.5476,0,0,1,54.4,62.1,10.0721,10.0721,0,0,1,44.3,52a8.0663,8.0663,0,0,1,8.1-8.1" style="fill:none;stroke:#000;stroke-linecap:round;stroke-linejoin:round;stroke-width:6px"/><path d="M81.4,63a25.2822,25.2822,0,0,1-1.9-9.6A19.6745,19.6745,0,0,1,99.2,33.7,15.8335,15.8335,0,0,1,115,49.5a12.5476,12.5476,0,0,1-12.6,12.6A10.0721,10.0721,0,0,1,92.3,52a8.0663,8.0663,0,0,1,8.1-8.1" style="fill:none;stroke:#000;stroke-linecap:round;stroke-linejoin:round;stroke-width:6px"/><line x1="48" y1="93" x2="102" y2="93" style="fill:none;stroke:#000;stroke-linecap:round;stroke-linejoin:round;stroke-width:6px"/><path d="M99,93H75v12a12,12,0,0,0,24,0Z" style="fill:none;stroke:#000;stroke-linecap:round;stroke-linejoin:round;stroke-width:6px"/><line x1="87" y1="93" x2="87" y2="102" style="fill:none;stroke:#000;stroke-linecap:round;stroke-linejoin:round;stroke-width:6px"/><rect width="144" height="144" style="fill:none"/></svg>