<svg xmlns="http://www.w3.org/2000/svg" viewBox="0 0 144 144"><circle cx="72" cy="72" r="69" style="fill:none;stroke:#000;stroke-linecap:round;stroke-linejoin:round;stroke-width:6px"/><path d="M44.8,67.5s18-13,18-22.6c0-11.1-14.7-14.6-18-1.1-3.3-13.5-18-10-18,1.1C26.8,54.5,44.8,67.5,44.8,67.5Z" style="fill:none;stroke:#000;stroke-linejoin:round;stroke-width:6px"/><path d="M98.8,67.5s18-13,18-22.6c0-11.1-14.7-14.6-18-1.1-3.3-13.5-18-10-18,1.1C80.8,54.5,98.8,67.5,98.8,67.5Z" style="fill:none;stroke:#000;stroke-linejoin:round;stroke-width:6px"/><path d="M111,90a43.9794,43.9794,0,0,1-38.8,22.4c-16.8,0-31.5-8.1-39.2-22.3" style="fill:none;stroke:#000;stroke-linecap:round;stroke-linejoin:round;stroke-width:6px"/><rect width="144" height="144" style="fill:none"/></svg>