<svg xmlns="http://www.w3.org/2000/svg" viewBox="0 0 144 144"><path d="M66,117c15.1,0,29.1-8.4,37.2-19.8" style="fill:none;stroke:#000;stroke-linecap:round;stroke-linejoin:round;stroke-width:6px"/><circle cx="72" cy="72" r="69" style="fill:none;stroke:#000;stroke-linecap:round;stroke-linejoin:round;stroke-width:6px"/><line x1="108" y1="102" x2="96" y2="90" style="fill:none;stroke:#000;stroke-linecap:round;stroke-linejoin:round;stroke-width:6px"/><path d="M63,57A20.9974,20.9974,0,0,0,42,78,20.9974,20.9974,0,0,0,21,57,20.9974,20.9974,0,0,0,42,36,20.9974,20.9974,0,0,0,63,57Z" style="fill:none;stroke:#000;stroke-linejoin:round;stroke-width:6px"/><path d="M123,57a20.9974,20.9974,0,0,0-21,21A20.9974,20.9974,0,0,0,81,57a20.9974,20.9974,0,0,0,21-21A20.9974,20.9974,0,0,0,123,57Z" style="fill:none;stroke:#000;stroke-linejoin:round;stroke-width:6px"/><rect width="144" height="144" style="fill:none"/></svg>