<svg xmlns="http://www.w3.org/2000/svg" viewBox="0 0 144 144"><path d="M36.5,63.6a8.3,8.3,0,0,0,16.6,0,8.3652,8.3652,0,0,0-8.3-8.4,8.3,8.3,0,1,1,8.3-8.3" style="fill:none;stroke:#000;stroke-linecap:round;stroke-linejoin:round;stroke-width:6px"/><line x1="44.8" y1="72" x2="44.8" y2="77.5" style="fill:none;stroke:#000;stroke-linecap:round;stroke-linejoin:round;stroke-width:6px"/><line x1="44.8" y1="33" x2="44.8" y2="38.6" style="fill:none;stroke:#000;stroke-linecap:round;stroke-linejoin:round;stroke-width:6px"/><path d="M90.5,63.6a8.3,8.3,0,1,0,16.6,0,8.3652,8.3652,0,0,0-8.3-8.4,8.3,8.3,0,1,1,8.3-8.3" style="fill:none;stroke:#000;stroke-linecap:round;stroke-linejoin:round;stroke-width:6px"/><line x1="98.8" y1="72" x2="98.8" y2="77.5" style="fill:none;stroke:#000;stroke-linecap:round;stroke-linejoin:round;stroke-width:6px"/><line x1="98.8" y1="33" x2="98.8" y2="38.6" style="fill:none;stroke:#000;stroke-linecap:round;stroke-linejoin:round;stroke-width:6px"/><circle cx="72" cy="72" r="69" style="fill:none;stroke:#000;stroke-linecap:round;stroke-linejoin:round;stroke-width:6px"/><path d="M111,90c-17.1,30.5-62.3,29.3-78,.1" style="fill:none;stroke:#000;stroke-linecap:round;stroke-linejoin:round;stroke-width:6px"/><rect width="144" height="144" style="fill:none"/></svg>