<svg xmlns="http://www.w3.org/2000/svg" viewBox="0 0 144 144"><path d="M117,81c0,21.9-20.1,42-45,42S27,102.9,27,81Z" style="fill:none;stroke:#000;stroke-linecap:round;stroke-linejoin:round;stroke-width:6px"/><circle cx="72" cy="72" r="69" style="fill:none;stroke:#000;stroke-linecap:round;stroke-linejoin:round;stroke-width:6px"/><path d="M27,57a6.0176,6.0176,0,0,0,6,6H57a6.0176,6.0176,0,0,0,6-6V45a6.0176,6.0176,0,0,0-6-6H33a6.0176,6.0176,0,0,0-6,6Z" style="fill:none;stroke:#000;stroke-linecap:round;stroke-linejoin:round;stroke-width:6px"/><path d="M81,57a6.0176,6.0176,0,0,0,6,6h24a6.0176,6.0176,0,0,0,6-6V45a6.0176,6.0176,0,0,0-6-6H87a6.0176,6.0176,0,0,0-6,6Z" style="fill:none;stroke:#000;stroke-linecap:round;stroke-linejoin:round;stroke-width:6px"/><line x1="63" y1="51" x2="81" y2="51" style="fill:none;stroke:#000;stroke-linejoin:round;stroke-width:6px"/><rect width="144" height="144" style="fill:none"/></svg>