<svg xmlns="http://www.w3.org/2000/svg" viewBox="0 0 144 144"><path d="M57,75l80,28.6a6.016,6.016,0,0,1,4,5.6V123H3V81a6.0176,6.0176,0,0,1,6-6h6c0,5,10.5,9,21,9C49.3,84,57,80,57,75Z" style="fill:none;stroke:#000;stroke-linecap:round;stroke-linejoin:round;stroke-width:6px"/><line x1="3" y1="111" x2="141" y2="111" style="fill:none;stroke:#000;stroke-linejoin:round;stroke-width:6px"/><line x1="72.4" y1="80.5" x2="66" y2="87" style="fill:none;stroke:#000;stroke-linecap:round;stroke-linejoin:round;stroke-width:6px"/><line x1="83.5" y1="84.5" x2="78" y2="90" style="fill:none;stroke:#000;stroke-linecap:round;stroke-linejoin:round;stroke-width:6px"/><path d="M105,92.1c0,3.3-2.7,6.9-6,6.9H81a8.9626,8.9626,0,0,0-9,9v3" style="fill:none;stroke:#000;stroke-linejoin:round;stroke-width:6px"/><path d="M21,111A18.0529,18.0529,0,0,0,3,93" style="fill:none;stroke:#000;stroke-linecap:round;stroke-linejoin:round;stroke-width:6px"/><path d="M87,69,7,40.4a5.9191,5.9191,0,0,1-4-5.6V21H141V63a6.0176,6.0176,0,0,1-6,6h-6c0-5-10.5-9-21-9C94.7,60,87,64,87,69Z" style="fill:none;stroke:#000;stroke-linecap:round;stroke-linejoin:round;stroke-width:6px"/><line x1="141" y1="33" x2="3" y2="33" style="fill:none;stroke:#000;stroke-linejoin:round;stroke-width:6px"/><line x1="71.5" y1="63.5" x2="78" y2="57" style="fill:none;stroke:#000;stroke-linecap:round;stroke-linejoin:round;stroke-width:6px"/><line x1="60.5" y1="59.5" x2="66" y2="54" style="fill:none;stroke:#000;stroke-linecap:round;stroke-linejoin:round;stroke-width:6px"/><path d="M39,51.9c0-3.3,2.7-6.9,6-6.9H63a8.9626,8.9626,0,0,0,9-9V33" style="fill:none;stroke:#000;stroke-linejoin:round;stroke-width:6px"/><path d="M123,33a18.0529,18.0529,0,0,0,18,18" style="fill:none;stroke:#000;stroke-linecap:round;stroke-linejoin:round;stroke-width:6px"/><rect width="144" height="144" style="fill:none"/></svg>