<svg xmlns="http://www.w3.org/2000/svg" viewBox="0 0 144 144"><line x1="69" y1="48" x2="69" y2="12" style="fill:none;stroke:#000;stroke-linecap:round;stroke-linejoin:round;stroke-width:6px"/><polyline points="55.6 17.4 69 25.5 82.3 17.3" style="fill:none;stroke:#000;stroke-linecap:round;stroke-linejoin:round;stroke-width:6px"/><line x1="69" y1="102" x2="69" y2="138" style="fill:none;stroke:#000;stroke-linecap:round;stroke-linejoin:round;stroke-width:6px"/><polyline points="55.6 132.6 69 124.5 82.3 132.7" style="fill:none;stroke:#000;stroke-linecap:round;stroke-linejoin:round;stroke-width:6px"/><line x1="42" y1="75" x2="6" y2="75" style="fill:none;stroke:#000;stroke-linecap:round;stroke-linejoin:round;stroke-width:6px"/><polyline points="11.4 88.4 19.4 75 11.3 61.6" style="fill:none;stroke:#000;stroke-linecap:round;stroke-linejoin:round;stroke-width:6px"/><line x1="96" y1="75" x2="132" y2="75" style="fill:none;stroke:#000;stroke-linecap:round;stroke-linejoin:round;stroke-width:6px"/><polyline points="126.6 88.4 118.5 75 126.6 61.6" style="fill:none;stroke:#000;stroke-linecap:round;stroke-linejoin:round;stroke-width:6px"/><line x1="51" y1="57" x2="24.4" y2="30.4" style="fill:none;stroke:#000;stroke-linecap:round;stroke-linejoin:round;stroke-width:6px"/><polyline points="18.8 43.7 34 39.9 37.6 24.8" style="fill:none;stroke:#000;stroke-linecap:round;stroke-linejoin:round;stroke-width:6px"/><line x1="87" y1="93" x2="113.5" y2="119.5" style="fill:none;stroke:#000;stroke-linecap:round;stroke-linejoin:round;stroke-width:6px"/><polyline points="100.2 125.2 104 110 119.2 106.3" style="fill:none;stroke:#000;stroke-linecap:round;stroke-linejoin:round;stroke-width:6px"/><line x1="50.9" y1="92.9" x2="24.4" y2="119.5" style="fill:none;stroke:#000;stroke-linecap:round;stroke-linejoin:round;stroke-width:6px"/><polyline points="37.7 125.2 33.9 110 18.7 106.3" style="fill:none;stroke:#000;stroke-linecap:round;stroke-linejoin:round;stroke-width:6px"/><line x1="87" y1="57" x2="113.5" y2="30.4" style="fill:none;stroke:#000;stroke-linecap:round;stroke-linejoin:round;stroke-width:6px"/><polyline points="119.1 43.7 104 39.9 100.3 24.8" style="fill:none;stroke:#000;stroke-linecap:round;stroke-linejoin:round;stroke-width:6px"/><polygon points="96 75 114 57 87 57 87 30 69 48 51 30 51 57 24 57 42 75 24 93 51 93 51 120 69 102 87 120 87 93 114 93 96 75" style="fill:none;stroke:#000;stroke-linejoin:round;stroke-width:6px"/><rect width="144" height="144" style="fill:none"/></svg>