<svg xmlns="http://www.w3.org/2000/svg" viewBox="0 0 144 144"><rect x="57" y="3" width="30" height="24" style="fill:none;stroke:#000;stroke-linejoin:round;stroke-width:6px"/><line x1="36" y1="27" x2="108" y2="27" style="fill:none;stroke:#000;stroke-linecap:round;stroke-linejoin:round;stroke-width:6px"/><circle cx="72" cy="48" r="21" style="fill:none;stroke:#000;stroke-linejoin:round;stroke-width:6px"/><circle cx="72" cy="105" r="36" style="fill:none;stroke:#000;stroke-linejoin:round;stroke-width:6px"/><path d="M66,42a3,3,0,0,0,0,6,3,3,0,0,0,0-6Z" style="fill:#000"/><path d="M78,42a3,3,0,0,0,0,6,3,3,0,0,0,0-6Z" style="fill:#000"/><line x1="104.2" y1="88.9" x2="120" y2="81" style="fill:none;stroke:#000;stroke-linejoin:round;stroke-width:6px"/><polyline points="127.1 63.2 120 81 138 81" style="fill:none;stroke:#000;stroke-linecap:round;stroke-linejoin:round;stroke-width:6px"/><line x1="39.8" y1="88.9" x2="24" y2="81" style="fill:none;stroke:#000;stroke-linejoin:round;stroke-width:6px"/><polyline points="16.9 63.2 24 81 6 81" style="fill:none;stroke:#000;stroke-linecap:round;stroke-linejoin:round;stroke-width:6px"/><rect width="144" height="144" style="fill:none"/></svg>