<svg xmlns="http://www.w3.org/2000/svg" viewBox="0 0 144 144"><path d="M117,33a12.0353,12.0353,0,0,1-12,12H63A12.0353,12.0353,0,0,1,51,33V21A12.0353,12.0353,0,0,1,63,9h42a12.0353,12.0353,0,0,1,12,12Z" style="fill:none;stroke:#000;stroke-linejoin:round;stroke-width:6px"/><path d="M63,85.2,39,94.4c-10.9,3.9-15.8,16-11.8,26.9a21.5683,21.5683,0,0,0,20.1,13.9,20.4507,20.4507,0,0,0,7.3-1.3l38-14.2c8.3-3,12.5-10.9,12.5-19.7V45H63Z" style="fill:none;stroke:#000;stroke-linejoin:round;stroke-width:6px"/><path d="M81.2,123.9a24.0211,24.0211,0,0,1,20.8-36c1,0,2,.1,3,.2" style="fill:none;stroke:#000;stroke-linejoin:round;stroke-width:6px"/><path d="M38.5,94.3A35.8322,35.8322,0,0,1,54,123.9a36.7206,36.7206,0,0,1-1.6,10.6" style="fill:none;stroke:#000;stroke-linejoin:round;stroke-width:6px"/><rect width="144" height="144" style="fill:none"/></svg>