<svg xmlns="http://www.w3.org/2000/svg" viewBox="0 0 144 144"><line x1="39" y1="135" x2="39" y2="141" style="fill:none;stroke:#000;stroke-linecap:round;stroke-linejoin:round;stroke-width:6px"/><line x1="105" y1="135" x2="105" y2="141" style="fill:none;stroke:#000;stroke-linecap:round;stroke-linejoin:round;stroke-width:6px"/><path d="M33,93c0-11.6-9-21-18-21a12.01,12.01,0,0,0-4.6,23.1A7.4091,7.4091,0,0,1,15,102v15a18.0529,18.0529,0,0,0,18,18H141V117H33Z" style="fill:none;stroke:#000;stroke-linejoin:round;stroke-width:6px"/><rect x="33" y="105" width="108" height="12" style="fill:none;stroke:#000;stroke-linejoin:round;stroke-width:6px"/><path d="M18,72A27.015,27.015,0,0,1,45,45h2.7A26.8586,26.8586,0,0,1,70.8,58.1l6.6,11.1A12.0821,12.0821,0,0,0,87.7,75H123a18.0529,18.0529,0,0,1,18,18v12" style="fill:none;stroke:#000;stroke-linejoin:round;stroke-width:6px"/><rect width="144" height="144" style="fill:none"/></svg>