<svg xmlns="http://www.w3.org/2000/svg" viewBox="0 0 144 144"><path d="M126,38.8c6.6,2,11.3,5.4,13.1,10.2,6,15.4-19.2,39.6-56.3,54s-72,13.5-78-1.9S24,61.5,61.1,47.1a149.879,149.879,0,0,1,38.1-9.6" style="fill:none;stroke:#000;stroke-linecap:round;stroke-linejoin:round;stroke-width:6px"/><path d="M30.5,81c6-7.9,18.9-16.5,35-22.8,24.7-9.6,47.7-9.8,51.3-.6S103.3,82.2,78.6,91.7C66.2,96.6,54.3,99,45,99.1" style="fill:none;stroke:#000;stroke-linecap:round;stroke-linejoin:round;stroke-width:6px"/><circle cx="69" cy="75" r="9" style="fill:none;stroke:#000;stroke-linecap:round;stroke-linejoin:round;stroke-width:6px"/><circle cx="114" cy="36" r="6" style="fill:none;stroke:#000;stroke-linecap:round;stroke-linejoin:round;stroke-width:6px"/><circle cx="30" cy="96" r="6" style="fill:none;stroke:#000;stroke-linecap:round;stroke-linejoin:round;stroke-width:6px"/><rect width="144" height="144" style="fill:none"/></svg>