<svg xmlns="http://www.w3.org/2000/svg" viewBox="0 0 144 144"><rect x="3" y="88.8" width="24.2" height="46" style="fill:none;stroke:#000;stroke-linecap:round;stroke-linejoin:round;stroke-width:6px"/><path d="M27.2,126.7c64,20.5,40.4,21.1,113.8-14.3a16.8213,16.8213,0,0,0-18-6.2l-26.7,8.1" style="fill:none;stroke:#000;stroke-linecap:round;stroke-linejoin:round;stroke-width:6px"/><path d="M27.2,95h18a36.9134,36.9134,0,0,1,26.7,11.8h18c9.3,0,9.3,11.8,0,11.8H57.1" style="fill:none;stroke:#000;stroke-linecap:round;stroke-linejoin:round;stroke-width:6px"/><polygon points="88.8 3 49.6 21.6 88.8 39.7 127.9 21.6 88.8 3" style="fill:none;stroke:#000;stroke-linecap:round;stroke-linejoin:round;stroke-width:6px"/><polygon points="85.7 90.6 49.6 72 49.6 34.1 85.7 50.2 85.7 90.6" style="fill:none;stroke:#000;stroke-linecap:round;stroke-linejoin:round;stroke-width:6px"/><polygon points="92.5 90.6 127.9 72 127.9 34.1 92.5 50.2 92.5 90.6" style="fill:none;stroke:#000;stroke-linecap:round;stroke-linejoin:round;stroke-width:6px"/><rect width="144" height="144" style="fill:none"/></svg>