<svg xmlns="http://www.w3.org/2000/svg" viewBox="0 0 144 144"><path d="M133.7,106.3c-3.2-5.3-11.2-5.9-16.5-1.3,2.2-7.5-2.8-14.7-9.3-14.7-6.4,0-11.4,7-9.4,14.5-5.4-4.7-13.2-3.7-16.3,1.4-4,6.5,1.7,15.6,10.2,16-5.7,4.3-6.3,11.9-2.3,16,5.1,5.1,14.9,2.5,17.8-5.6,2.9,8.1,12.6,10.7,17.8,5.6,4.1-4.1,3.4-11.7-2.3-16C132.1,121.9,137.7,112.8,133.7,106.3Z" style="fill:none;stroke:#000;stroke-linecap:round;stroke-linejoin:round;stroke-width:6px"/><circle cx="108" cy="117" r="8.9" style="fill:none;stroke:#000;stroke-linecap:round;stroke-linejoin:round;stroke-width:6px"/><path d="M78,141H33a12.0353,12.0353,0,0,1-12-12V51A12.0353,12.0353,0,0,1,33,39H81A12.0353,12.0353,0,0,1,93,51V84" style="fill:none;stroke:#000;stroke-linecap:round;stroke-linejoin:round;stroke-width:6px"/><polyline points="69 39 63 24 51 24 45 39" style="fill:none;stroke:#000;stroke-linecap:round;stroke-linejoin:round;stroke-width:6px"/><line x1="57" y1="3" x2="57" y2="24" style="fill:none;stroke:#000;stroke-linecap:round;stroke-linejoin:round;stroke-width:6px"/><polyline points="78 3 36 3 23.6 18" style="fill:none;stroke:#000;stroke-linecap:round;stroke-linejoin:round;stroke-width:6px"/><rect width="144" height="144" style="fill:none"/></svg>