<svg xmlns="http://www.w3.org/2000/svg" viewBox="0 0 144 144"><polygon points="54 3 24 3 54 141 84 141 54 3" style="fill:none;stroke:#000;stroke-linecap:round;stroke-linejoin:round;stroke-width:6px"/><path d="M102,90.9C88.7,95.6,75,91,75,91s7.7-12.3,21-17,27-.1,27-.1S115.3,86.1,102,90.9Z" style="fill:none;stroke:#000;stroke-linecap:round;stroke-linejoin:round;stroke-width:6px"/><path d="M96,60.4C89.7,77.3,73.7,87,73.7,87s-5.7-17.8.7-34.7c6.3-16.9,22.3-26.6,22.3-26.6S102.3,43.4,96,60.4Z" style="fill:none;stroke:#000;stroke-linecap:round;stroke-linejoin:round;stroke-width:6px"/><line x1="48.8" y1="117" x2="78.8" y2="117" style="fill:none;stroke:#000;stroke-linecap:round;stroke-linejoin:round;stroke-width:6px"/><line x1="34.4" y1="51" x2="64.4" y2="51" style="fill:none;stroke:#000;stroke-linecap:round;stroke-linejoin:round;stroke-width:6px"/><line x1="46.2" y1="105" x2="76.2" y2="105" style="fill:none;stroke:#000;stroke-linecap:round;stroke-linejoin:round;stroke-width:6px"/><line x1="31.8" y1="39" x2="61.8" y2="39" style="fill:none;stroke:#000;stroke-linecap:round;stroke-linejoin:round;stroke-width:6px"/><rect width="144" height="144" style="fill:none"/></svg>