<svg xmlns="http://www.w3.org/2000/svg" viewBox="0 0 144 144"><path d="M102,111H30a9,9,0,0,0,0,18h72a15,15,0,0,0,0-30H24a21,21,0,0,0,0,42h96a21,21,0,0,0,0-42H102" style="fill:none;stroke:#000;stroke-linecap:round;stroke-linejoin:round;stroke-width:6px"/><path d="M141,120,126.1,23.4A23.8977,23.8977,0,0,0,102.4,3H41.6A23.8977,23.8977,0,0,0,17.9,23.4L3,120" style="fill:none;stroke:#000;stroke-linecap:round;stroke-linejoin:round;stroke-width:6px"/><line x1="51.1" y1="14.9" x2="51.2" y2="30.2" style="fill:none;stroke:#000;stroke-linecap:round;stroke-linejoin:round;stroke-width:6px"/><polyline points="65.9 27.1 51.2 30.2 42.2 44.8" style="fill:none;stroke:#000;stroke-linecap:round;stroke-linejoin:round;stroke-width:6px"/><polyline points="60.3 44.7 51.2 30.2 36.2 27.1" style="fill:none;stroke:#000;stroke-linecap:round;stroke-linejoin:round;stroke-width:6px"/><line x1="99.2" y1="62" x2="99.2" y2="72.3" style="fill:none;stroke:#000;stroke-linecap:round;stroke-linejoin:round;stroke-width:6px"/><polyline points="109.1 70.2 99.2 72.3 93.2 82.1" style="fill:none;stroke:#000;stroke-linecap:round;stroke-linejoin:round;stroke-width:6px"/><polyline points="105.4 82 99.2 72.3 89.2 70.2" style="fill:none;stroke:#000;stroke-linecap:round;stroke-linejoin:round;stroke-width:6px"/><line x1="99.1" y1="13.9" x2="99.2" y2="24.2" style="fill:none;stroke:#000;stroke-linecap:round;stroke-linejoin:round;stroke-width:6px"/><polyline points="109.1 22.1 99.2 24.2 93.2 34" style="fill:none;stroke:#000;stroke-linecap:round;stroke-linejoin:round;stroke-width:6px"/><polyline points="105.3 33.9 99.2 24.2 89.1 22.1" style="fill:none;stroke:#000;stroke-linecap:round;stroke-linejoin:round;stroke-width:6px"/><rect width="144" height="144" style="fill:none"/></svg>