<svg xmlns="http://www.w3.org/2000/svg" viewBox="0 0 144.0043 144.1"><path d="M139.7,105.9c-3.3-5.4-11.2-5.9-16.5-1.3,2.2-7.6-2.9-14.7-9.3-14.7s-11.4,6.9-9.4,14.5c-5.5-4.7-13.2-3.6-16.3,1.4-4,6.6,1.7,15.6,10.2,16-5.7,4.3-6.3,11.9-2.3,16,5.1,5.1,14.9,2.5,17.8-5.6,2.8,8,12.6,10.7,17.8,5.6,4-4,3.6-11.5-2.3-16C138,121.5,143.7,112.5,139.7,105.9Z" style="fill:none;stroke:#000;stroke-linejoin:round;stroke-width:6px"/><circle cx="114" cy="116.6" r="8.9" style="fill:none;stroke:#000;stroke-linejoin:round;stroke-width:6px"/><rect x="39" y="123" width="36" height="18" style="fill:none;stroke:#000;stroke-linejoin:round;stroke-width:6px"/><path d="M50.5,69.5c7.8,5.8,7.4,16.9,4.3,21.6-2.1-1.7-4-3.6-4.3-6.5-7.2,2.9-10.8,8.5-10.8,15.1a17.3,17.3,0,0,0,34.6,0C74.3,85.8,64.2,72.7,50.5,69.5Z" style="fill:none;stroke:#000;stroke-linejoin:round;stroke-width:6px"/><path d="M95.9,80.5c-3.7-8.7-11.6-23-17.4-33.4a17.8451,17.8451,0,0,1,3.6-22.2L93,15V3H21V15L32.8,25.2A18.029,18.029,0,0,1,37,47.1c-14.5,28.1-44.3,94-4,94H78" style="fill:none;stroke:#000;stroke-linecap:round;stroke-linejoin:round;stroke-width:6px"/><rect width="144" height="144" style="fill:none"/></svg>