<svg xmlns="http://www.w3.org/2000/svg" viewBox="0 0 144 144"><circle cx="72" cy="24" r="21" style="fill:none;stroke:#000;stroke-linecap:round;stroke-linejoin:round;stroke-width:6px"/><path d="M105,57H39c0,24.4,6.3,26.7,18,33v33H87V90C98.7,83.7,105,81.4,105,57Z" style="fill:none;stroke:#000;stroke-linecap:round;stroke-linejoin:round;stroke-width:6px"/><path d="M116.2,6.3c-18,15.4,17.9,20.7.2,35.7" style="fill:none;stroke:#000;stroke-linecap:round;stroke-linejoin:round;stroke-width:6px"/><path d="M134.2,6.3c-18,15.4,17.9,20.7.2,35.7" style="fill:none;stroke:#000;stroke-linecap:round;stroke-linejoin:round;stroke-width:6px"/><path d="M12.7,6.3C-5.3,21.7,30.6,26.9,13,42" style="fill:none;stroke:#000;stroke-linecap:round;stroke-linejoin:round;stroke-width:6px"/><path d="M30.7,6.3C12.7,21.7,48.6,26.9,31,42" style="fill:none;stroke:#000;stroke-linecap:round;stroke-linejoin:round;stroke-width:6px"/><path d="M115.3,84c12.1,6,19.7,14.5,19.7,24,0,18.2-28.2,33-63,33S9,126.2,9,108c0-9.4,7.5-17.9,19.7-23.9" style="fill:none;stroke:#000;stroke-linecap:round;stroke-linejoin:round;stroke-width:6px"/><rect width="144" height="144" style="fill:none"/></svg>