<svg xmlns="http://www.w3.org/2000/svg" viewBox="0 0 144 144"><path d="M90.3,60.1c0,23.3-18.3,42.1-18.3,42.1S53.7,83.4,53.7,60.1C53.7,36.9,72,18,72,18S90.3,36.9,90.3,60.1Z" style="fill:none;stroke:#000;stroke-linejoin:round;stroke-width:6px"/><path d="M85.8,39a63.5408,63.5408,0,0,1,20.5-11.1s8.5,26.5-1,47.1C95.9,95.5,72,102.3,72,102.3" style="fill:none;stroke:#000;stroke-linejoin:round;stroke-width:6px"/><path d="M109.8,53.9a59.27,59.27,0,0,1,22.9,1.2s-3.4,28-20.1,41c-16.8,13-40.6,6.1-40.6,6.1" style="fill:none;stroke:#000;stroke-linejoin:round;stroke-width:6px"/><path d="M58.7,39.5A62.3518,62.3518,0,0,0,37.6,27.9s-8.5,26.5,1,47.1C48.1,95.5,72,102.3,72,102.3" style="fill:none;stroke:#000;stroke-linejoin:round;stroke-width:6px"/><path d="M34.3,53.9a58.0758,58.0758,0,0,0-23.1,1.2s3.4,28,20.1,41c16.8,13,40.6,6.1,40.6,6.1a1.75,1.75,0,0,0-.1-.5" style="fill:none;stroke:#000;stroke-linejoin:round;stroke-width:6px"/><path d="M21.1,84C11.7,89.4,6,96.3,6,103.9c0,17.4,28.1,31.3,64.5,31.3,13.3,0,28.5-2.1,34.5-5.3V111h32.2c.9-11.9-5.2-20.4-14.6-26.4" style="fill:none;stroke:#000;stroke-linejoin:round;stroke-width:6px"/><rect width="144" height="144" style="fill:none"/></svg>