<svg xmlns="http://www.w3.org/2000/svg" viewBox="0 0 144 144"><path d="M117,74.6c0,23.3-3,66.4-45,66.4S27.1,98,27.1,74.6,44.5,38,72,38,117,51.3,117,74.6Z" style="fill:none;stroke:#000;stroke-linejoin:round;stroke-width:6px"/><path d="M30.4,108.2C14.3,98.1,3,80.4,3,60A56.9747,56.9747,0,0,1,60,3c35.8,0,43.2,25.6,11.9,35.1" style="fill:none;stroke:#000;stroke-linejoin:round;stroke-width:6px"/><path d="M90,15a51.0208,51.0208,0,0,1,22.3,96.9" style="fill:none;stroke:#000;stroke-linejoin:round;stroke-width:6px"/><circle cx="51" cy="81" r="15" style="fill:none;stroke:#000;stroke-linejoin:round;stroke-width:6px"/><line x1="60" y1="117" x2="84" y2="117" style="fill:none;stroke:#000;stroke-linecap:round;stroke-linejoin:round;stroke-width:6px"/><line x1="51" y1="75" x2="51" y2="66" style="fill:none;stroke:#000;stroke-linecap:round;stroke-linejoin:round;stroke-width:6px"/><line x1="51" y1="96" x2="51" y2="87" style="fill:none;stroke:#000;stroke-linecap:round;stroke-linejoin:round;stroke-width:6px"/><line x1="57" y1="81" x2="66" y2="81" style="fill:none;stroke:#000;stroke-linecap:round;stroke-linejoin:round;stroke-width:6px"/><line x1="36" y1="81" x2="45" y2="81" style="fill:none;stroke:#000;stroke-linecap:round;stroke-linejoin:round;stroke-width:6px"/><circle cx="93" cy="81" r="15" style="fill:none;stroke:#000;stroke-linejoin:round;stroke-width:6px"/><line x1="93" y1="75" x2="93" y2="66" style="fill:none;stroke:#000;stroke-linecap:round;stroke-linejoin:round;stroke-width:6px"/><line x1="93" y1="96" x2="93" y2="87" style="fill:none;stroke:#000;stroke-linecap:round;stroke-linejoin:round;stroke-width:6px"/><line x1="99" y1="81" x2="108" y2="81" style="fill:none;stroke:#000;stroke-linecap:round;stroke-linejoin:round;stroke-width:6px"/><line x1="78" y1="81" x2="87" y2="81" style="fill:none;stroke:#000;stroke-linecap:round;stroke-linejoin:round;stroke-width:6px"/><rect width="144" height="144" style="fill:none"/></svg>