<svg xmlns="http://www.w3.org/2000/svg" viewBox="0 0 144 144.064"><path d="M127.7,106.5c-3.1-5.1-10.9-6.1-16.5-1.3,2.2-7.5-2.8-14.7-9.3-14.7S90.5,97.6,92.5,105c-5.5-4.7-13.2-3.6-16.3,1.4-4,6.5,1.7,15.6,10.2,16-5.8,4.5-6.3,11.9-2.3,16,5.2,5.2,14.9,2.5,17.8-5.6,2.8,8,12.6,10.7,17.8,5.6,4-4,3.6-11.5-2.3-16C126,122.1,131.7,113.1,127.7,106.5Z" style="fill:none;stroke:#000;stroke-linecap:round;stroke-linejoin:round;stroke-width:6px"/><circle cx="102" cy="117.2" r="8.9" style="fill:none;stroke:#000;stroke-linecap:round;stroke-linejoin:round;stroke-width:6px"/><path d="M87,84V57a6.0176,6.0176,0,0,0-6-6H33a6.0176,6.0176,0,0,0-6,6v78a6.0176,6.0176,0,0,0,6,6H72" style="fill:none;stroke:#000;stroke-linecap:round;stroke-linejoin:round;stroke-width:6px"/><path d="M50.5,3.5c7.8,5.8,7.4,16.9,4.3,21.6-2.1-1.7-4-3.6-4.3-6.5-7.2,2.9-10.8,8.5-10.8,15.1a17.3,17.3,0,0,0,34.6,0C74.3,19.8,64.2,6.7,50.5,3.5Z" style="fill:none;stroke:#000;stroke-linecap:round;stroke-linejoin:round;stroke-width:6px"/><path d="M27,63.1H39V66a6,6,0,0,0,12,0V63H63V75a6,6,0,0,0,12,0V63H87" style="fill:none;stroke:#000;stroke-linecap:round;stroke-linejoin:round;stroke-width:6px"/><rect width="144" height="144" style="fill:none"/></svg>