<svg xmlns="http://www.w3.org/2000/svg" viewBox="0 0 144 144"><path d="M111,51.4c14.4,4.4,24,12.6,24,22.1C135,87.6,113.5,99,87,99S39,87.6,39,73.5c0-9.4,9.6-17.7,24-22.1" style="fill:none;stroke:#000;stroke-linejoin:round;stroke-width:6px"/><path d="M51.2,74.4c0-4.7,4.8-8.8,11.9-10.9" style="fill:none;stroke:#000;stroke-linecap:round;stroke-linejoin:round;stroke-width:6px"/><ellipse cx="87" cy="34.5" rx="36" ry="22.5" style="fill:none;stroke:#000;stroke-linejoin:round;stroke-width:6px"/><path d="M65.4,34.5C65.4,27,75.1,21,87,21" style="fill:none;stroke:#000;stroke-linecap:round;stroke-linejoin:round;stroke-width:6px"/><path d="M115.3,94c8.5,5,13.7,11.5,13.7,18.5,0,15.7-25.5,28.5-57,28.5s-57-12.8-57-28.5c0-11.1,12.6-20.7,31.1-25.4" style="fill:none;stroke:#000;stroke-linejoin:round;stroke-width:6px"/><path d="M28.4,113.2c0-6.1,7-11.5,17.2-14.1" style="fill:none;stroke:#000;stroke-linecap:round;stroke-linejoin:round;stroke-width:6px"/><ellipse cx="87" cy="34.5" rx="36" ry="22.5" style="fill:none;stroke:#000;stroke-linejoin:round;stroke-width:6px"/><rect width="144" height="144" style="fill:none"/></svg>