<svg xmlns="http://www.w3.org/2000/svg" viewBox="0 0 144 144"><path d="M135,51A35.9773,35.9773,0,0,0,99,15H45A35.9773,35.9773,0,0,0,9,51v72a12.0353,12.0353,0,0,0,12,12H123a12.0353,12.0353,0,0,0,12-12Z" style="fill:none;stroke:#000;stroke-linecap:round;stroke-linejoin:round;stroke-width:6px"/><path d="M87,135V83a12.01,12.01,0,0,0-9.9-11.8C51.8,66.7,39.4,59.3,39,15.5" style="fill:none;stroke:#000;stroke-linecap:round;stroke-linejoin:round;stroke-width:6px"/><path d="M70.5,69.4s33.7,2.3,34.5-53.9" style="fill:none;stroke:#000;stroke-linecap:round;stroke-linejoin:round;stroke-width:6px"/><path d="M55.3,98.6c0,8.1-7.3,14.6-7.3,14.6s-7.3-6.5-7.3-14.6S48,84,48,84,55.3,90.5,55.3,98.6Z" style="fill:none;stroke:#000;stroke-linecap:round;stroke-linejoin:round;stroke-width:6px"/><path d="M63.8,117.3C55.9,119,48,113.2,48,113.2s4.9-8.5,12.8-10.1c7.9-1.7,15.8,4.1,15.8,4.1S71.7,115.7,63.8,117.3Z" style="fill:none;stroke:#000;stroke-linecap:round;stroke-linejoin:round;stroke-width:6px"/><path d="M32.2,117.3c7.9,1.7,15.8-4.1,15.8-4.1s-4.9-8.5-12.8-10.1c-7.9-1.7-15.8,4.1-15.8,4.1S24.3,115.7,32.2,117.3Z" style="fill:none;stroke:#000;stroke-linecap:round;stroke-linejoin:round;stroke-width:6px"/><rect width="144" height="144" style="fill:none"/></svg>