<svg xmlns="http://www.w3.org/2000/svg" viewBox="0 0 144 144"><rect x="39" y="105" width="24" height="12" style="fill:none;stroke:#000;stroke-linecap:round;stroke-linejoin:round;stroke-width:6px"/><rect x="75" y="105" width="24" height="12" style="fill:none;stroke:#000;stroke-linecap:round;stroke-linejoin:round;stroke-width:6px"/><polygon points="123 69 123 57 111 57 111 45 99 45 99 33 87 33 87 45 51 45 51 33 39 33 39 45 27 45 27 57 15 57 15 69 3 69 3 105 15 105 15 81 27 81 27 105 39 105 39 93 99 93 99 105 111 105 111 81 123 81 123 105 135 105 135 69 123 69" style="fill:none;stroke:#000;stroke-linecap:round;stroke-linejoin:round;stroke-width:6px"/><rect x="27" y="21" width="12" height="12" style="fill:none;stroke:#000;stroke-linecap:round;stroke-linejoin:round;stroke-width:6px"/><rect x="99" y="21" width="12" height="12" style="fill:none;stroke:#000;stroke-linecap:round;stroke-linejoin:round;stroke-width:6px"/><rect x="39" y="57" width="12" height="12" style="fill:none;stroke:#000;stroke-linecap:round;stroke-linejoin:round;stroke-width:6px"/><rect x="87" y="57" width="12" height="12" style="fill:none;stroke:#000;stroke-linecap:round;stroke-linejoin:round;stroke-width:6px"/><rect width="144" height="144" style="fill:none"/></svg>