<svg xmlns="http://www.w3.org/2000/svg" viewBox="0 0 144 144"><path d="M99,45a18,18,0,0,1,36,0V63H99Z" style="fill:none;stroke:#000;stroke-linejoin:round;stroke-width:6px"/><path d="M51,21a18,18,0,0,1,36,0V39H51Z" style="fill:none;stroke:#000;stroke-linejoin:round;stroke-width:6px"/><path d="M3,45a18,18,0,0,1,36,0V63H3Z" style="fill:none;stroke:#000;stroke-linejoin:round;stroke-width:6px"/><polyline points="81 117.9 111 141 27 141 56.5 118.1" style="fill:none;stroke:#000;stroke-linejoin:round;stroke-width:6px"/><line x1="69" y1="66" x2="69" y2="78" style="fill:none;stroke:#000;stroke-linecap:round;stroke-linejoin:round;stroke-width:6px"/><path d="M63,18a3,3,0,1,0,3,3,2.9465,2.9465,0,0,0-3-3Z" style="fill:#000"/><path d="M75,18a3,3,0,1,0,3,3,2.9465,2.9465,0,0,0-3-3Z" style="fill:#000"/><path d="M15,42a3,3,0,1,0,3,3,2.9465,2.9465,0,0,0-3-3Z" style="fill:#000"/><path d="M27,42a3,3,0,1,0,3,3,2.9465,2.9465,0,0,0-3-3Z" style="fill:#000"/><path d="M111,42a3,3,0,1,0,3,3,2.9465,2.9465,0,0,0-3-3Z" style="fill:#000"/><path d="M123,42a3,3,0,1,0,3,3,2.9465,2.9465,0,0,0-3-3Z" style="fill:#000"/><path d="M81,105a12,12,0,0,0-24,0v36H81Z" style="fill:none;stroke:#000;stroke-linejoin:round;stroke-width:6px"/><rect width="144" height="144" style="fill:none"/></svg>