<svg xmlns="http://www.w3.org/2000/svg" viewBox="0 0 144 144"><path d="M63,117H51V63c0-9,5.3-14.2,9-18H84c3.7,3.8,9,9,9,18v54H81" style="fill:none;stroke:#000;stroke-linecap:round;stroke-linejoin:round;stroke-width:6px"/><path d="M60,45V27c0-6.6,9-24,12-24S84,20.4,84,27V45" style="fill:none;stroke:#000;stroke-linecap:round;stroke-linejoin:round;stroke-width:6px"/><path d="M81,84c0-5-6-12-9-12s-9,7-9,12v45H81Z" style="fill:none;stroke:#000;stroke-linecap:round;stroke-linejoin:round;stroke-width:6px"/><path d="M51,87c-6,0-18,8.1-18,18v24H51V117" style="fill:none;stroke:#000;stroke-linecap:round;stroke-linejoin:round;stroke-width:6px"/><path d="M93,87c6,0,18,8.1,18,18v24H93V117" style="fill:none;stroke:#000;stroke-linecap:round;stroke-linejoin:round;stroke-width:6px"/><polyline points="39 129 33 141 51 141 45 129" style="fill:none;stroke:#000;stroke-linecap:round;stroke-linejoin:round;stroke-width:6px"/><polyline points="69 129 63 141 81 141 75 129" style="fill:none;stroke:#000;stroke-linecap:round;stroke-linejoin:round;stroke-width:6px"/><polyline points="99 129 93 141 111 141 105 129" style="fill:none;stroke:#000;stroke-linecap:round;stroke-linejoin:round;stroke-width:6px"/><rect width="144" height="144" style="fill:none"/></svg>