<svg xmlns="http://www.w3.org/2000/svg" viewBox="0 0 144 144"><path d="M79.8,135H141L87,90V48a15,15,0,0,0-30,0V90L3,135H64.2" style="fill:none;stroke:#000;stroke-linecap:round;stroke-linejoin:round;stroke-width:6px"/><polygon points="69 111 75 111 81 141 63 141 69 111" style="fill:none;stroke:#000;stroke-linecap:round;stroke-linejoin:round;stroke-width:6px"/><path d="M39,104.5V36a33,33,0,0,1,66,0v68.4" style="fill:none;stroke:#000;stroke-linecap:round;stroke-linejoin:round;stroke-width:6px"/><path d="M129,124.6V51a12,12,0,0,0-24,0v54" style="fill:none;stroke:#000;stroke-linecap:round;stroke-linejoin:round;stroke-width:6px"/><path d="M15,124.6V51a12,12,0,0,1,24,0v54" style="fill:none;stroke:#000;stroke-linecap:round;stroke-linejoin:round;stroke-width:6px"/><polygon points="69 45 75 45 78 63 66 63 69 45" style="fill:none;stroke:#000;stroke-linejoin:round;stroke-width:6px"/><rect width="144" height="144" style="fill:none"/></svg>