<svg xmlns="http://www.w3.org/2000/svg" viewBox="0 0 144 144"><path d="M103.2,102A24.04,24.04,0,0,1,81,117H69a12.0353,12.0353,0,0,0-12,12,6,6,0,0,1-12,0,24.0706,24.0706,0,0,1,24-24H81A12.0353,12.0353,0,0,0,93,93" style="fill:none;stroke:#000;stroke-miterlimit:10;stroke-width:6px"/><path d="M75,93V39c-12,0-21.3,7.7-24,18H3V75H51C53.7,85.3,63,93,75,93Z" style="fill:none;stroke:#000;stroke-linejoin:round;stroke-width:6px"/><line x1="129" y1="39" x2="141" y2="39" style="fill:none;stroke:#000;stroke-linecap:round;stroke-miterlimit:10;stroke-width:6px"/><line x1="75" y1="39" x2="93" y2="39" style="fill:none;stroke:#000;stroke-linecap:round;stroke-miterlimit:10;stroke-width:6px"/><line x1="129" y1="57" x2="141" y2="57" style="fill:none;stroke:#000;stroke-linecap:round;stroke-miterlimit:10;stroke-width:6px"/><line x1="75" y1="57" x2="93" y2="57" style="fill:none;stroke:#000;stroke-linecap:round;stroke-miterlimit:10;stroke-width:6px"/><line x1="129" y1="75" x2="141" y2="75" style="fill:none;stroke:#000;stroke-linecap:round;stroke-miterlimit:10;stroke-width:6px"/><line x1="75" y1="75" x2="93" y2="75" style="fill:none;stroke:#000;stroke-linecap:round;stroke-miterlimit:10;stroke-width:6px"/><line x1="129" y1="93" x2="141" y2="93" style="fill:none;stroke:#000;stroke-linecap:round;stroke-miterlimit:10;stroke-width:6px"/><line x1="75" y1="93" x2="93" y2="93" style="fill:none;stroke:#000;stroke-linecap:round;stroke-miterlimit:10;stroke-width:6px"/><path d="M123,30a6.0176,6.0176,0,0,0-6,6V96a6,6,0,0,0,12,0V36A6.0176,6.0176,0,0,0,123,30Z" style="fill:none;stroke:#000;stroke-linejoin:round;stroke-width:6px"/><path d="M111,30a6.0176,6.0176,0,0,0-6,6V96a6,6,0,0,0,12,0V36A6.0176,6.0176,0,0,0,111,30Z" style="fill:none;stroke:#000;stroke-linejoin:round;stroke-width:6px"/><path d="M99,30a6.0176,6.0176,0,0,0-6,6V96a6,6,0,0,0,12,0V36A6.0176,6.0176,0,0,0,99,30Z" style="fill:none;stroke:#000;stroke-linejoin:round;stroke-width:6px"/><rect width="144" height="144" style="fill:none"/></svg>