<svg xmlns="http://www.w3.org/2000/svg" viewBox="0 0 144.05 144.05"><circle cx="72.025" cy="72.025" r="12" style="fill:none;stroke:#000;stroke-linejoin:round;stroke-width:6px"/><circle cx="72.025" cy="72.025" r="51" style="fill:none;stroke:#000;stroke-linejoin:round;stroke-width:6px"/><path d="M125.8,104.6a62.3587,62.3587,0,0,0,0-65.2l10.8-10.8A14.9907,14.9907,0,1,0,115.4,7.4L104.6,18.2a62.3587,62.3587,0,0,0-65.2,0L28.6,7.4A14.9907,14.9907,0,0,0,7.4,28.6L18.2,39.4a62.3587,62.3587,0,0,0,0,65.2L7.4,115.4a14.9907,14.9907,0,0,0,21.2,21.2l10.8-10.8a62.3587,62.3587,0,0,0,65.2,0l10.8,10.8a14.9907,14.9907,0,0,0,21.2-21.2Z" transform="translate(0.025 0.025)" style="fill:none;stroke:#000;stroke-linejoin:round;stroke-width:6px"/><path d="M21,18a2.9465,2.9465,0,0,1-3,3h0a2.9465,2.9465,0,0,1-3-3h0a2.9465,2.9465,0,0,1,3-3h0a2.9465,2.9465,0,0,1,3,3Z" transform="translate(0.025 0.025)" style="fill:none;stroke:#000;stroke-linejoin:round;stroke-width:6px"/><path d="M129,18a2.9465,2.9465,0,0,1-3,3h0a2.9465,2.9465,0,0,1-3-3h0a2.9465,2.9465,0,0,1,3-3h0a2.9465,2.9465,0,0,1,3,3Z" transform="translate(0.025 0.025)" style="fill:none;stroke:#000;stroke-linejoin:round;stroke-width:6px"/><path d="M129,126a2.9465,2.9465,0,0,1-3,3h0a2.9465,2.9465,0,0,1-3-3h0a2.9465,2.9465,0,0,1,3-3h0a2.9465,2.9465,0,0,1,3,3Z" transform="translate(0.025 0.025)" style="fill:none;stroke:#000;stroke-linejoin:round;stroke-width:6px"/><path d="M21,126a2.9465,2.9465,0,0,1-3,3h0a2.9465,2.9465,0,0,1-3-3h0a2.9465,2.9465,0,0,1,3-3h0a2.9465,2.9465,0,0,1,3,3Z" transform="translate(0.025 0.025)" style="fill:none;stroke:#000;stroke-linejoin:round;stroke-width:6px"/><rect x="0.025" y="0.025" width="144" height="144" style="fill:none"/></svg>