<svg xmlns="http://www.w3.org/2000/svg" viewBox="0 0 144 144"><path d="M114,51C92.5,51,81,39.6,81,33s11.5-18,33-18c12,0,27,5.8,27,18S126.4,51,114,51Z" style="fill:none;stroke:#000;stroke-linejoin:round;stroke-width:6px"/><path d="M81,33C64.7,33,65.3,21.3,51.2,21.3S36,48.2,21.4,48.2c-10.6,0-12.5-9.5-18.2-14.8" style="fill:none;stroke:#000;stroke-linecap:round;stroke-linejoin:round;stroke-width:6px"/><path d="M111.3,128.8c-14.2,0-21.7-7.5-21.7-11.8s7.5-11.8,21.7-11.8c7.9,0,17.7,3.8,17.7,11.8S119.4,128.8,111.3,128.8Z" style="fill:none;stroke:#000;stroke-linejoin:round;stroke-width:6px"/><path d="M89.6,117c-10.7,0-10.3-7.7-19.5-7.7S60.1,127,50.5,127c-7,0-8.2-6.3-12-9.7" style="fill:none;stroke:#000;stroke-linecap:round;stroke-linejoin:round;stroke-width:6px"/><path d="M81.3,86.8c-14.2,0-21.7-7.5-21.7-11.8s7.5-11.8,21.7-11.8C89.1,63.2,99,67,99,75S89.4,86.8,81.3,86.8Z" style="fill:none;stroke:#000;stroke-linejoin:round;stroke-width:6px"/><path d="M59.6,75c-10.7,0-10.3-7.7-19.5-7.7C30.8,67.3,30,85,20.4,85c-7,0-8.2-6.3-12-9.7" style="fill:none;stroke:#000;stroke-linecap:round;stroke-linejoin:round;stroke-width:6px"/><rect width="144" height="144" style="fill:none"/></svg>