<svg xmlns="http://www.w3.org/2000/svg" viewBox="0 0 144 144"><path d="M54,57c0-3.3,2.7-3,6-3s6-.3,6,3" style="fill:none;stroke:#000;stroke-linecap:round;stroke-linejoin:round;stroke-width:6px"/><path d="M78,57c0-3.3,2.7-3,6-3s6-.3,6,3" style="fill:none;stroke:#000;stroke-linecap:round;stroke-linejoin:round;stroke-width:6px"/><path d="M56.7,93C30.9,97.4,3,96.5,3,121.5V141H141V121.5c0-25-26.9-23.9-53.6-28.5" style="fill:none;stroke:#000;stroke-linecap:round;stroke-linejoin:round;stroke-width:6px"/><path d="M72,99c9,0,30-12,30-30,9,0,9-18,0-18L99,36c-18,0-24-3-27-6-3,3-9.1,6-27,6L42,51c-9,0-9,18,0,18C42,87,63,99,72,99Z" style="fill:none;stroke:#000;stroke-linecap:round;stroke-linejoin:round;stroke-width:6px"/><path d="M108,55.5s1.4-5.9,2.7-25.7a35.9563,35.9563,0,0,0-5-20.8L102,3l-7.1,7.1a5.76,5.76,0,0,1-4.7,1.7,6.1281,6.1281,0,0,1-4.4-2.4L81,3,76.8,8.6a6,6,0,0,1-9.6,0L63,3,58.2,9.5a5.7782,5.7782,0,0,1-4.4,2.4,6.3833,6.3833,0,0,1-4.7-1.7L42,3,38.4,9a35.3825,35.3825,0,0,0-5,20.8c1.3,19.8,2.8,25.6,2.8,25.6" style="fill:none;stroke:#000;stroke-linejoin:round;stroke-width:6px"/><path d="M42,95.1l10.2,23.3A18.04,18.04,0,0,0,68.6,129h6.8a17.8755,17.8755,0,0,0,16.4-10.6L102,95.1" style="fill:none;stroke:#000;stroke-linecap:round;stroke-linejoin:round;stroke-width:6px"/><line x1="27" y1="97.6" x2="21" y2="141" style="fill:none;stroke:#000;stroke-linecap:round;stroke-linejoin:round;stroke-width:6px"/><line x1="116.5" y1="97.5" x2="123" y2="141" style="fill:none;stroke:#000;stroke-linecap:round;stroke-linejoin:round;stroke-width:6px"/><rect width="144" height="144" style="fill:none"/></svg>