<svg xmlns="http://www.w3.org/2000/svg" viewBox="0 0 144 144"><path d="M30.3,51,9.5,126.7a11.7763,11.7763,0,0,0,2.5,9.9,12.0085,12.0085,0,0,0,9.3,4.4H67.2a12.0455,12.0455,0,0,0,9.9-5.2,12.1734,12.1734,0,0,0,1.3-11.1L49.8,51Z" style="fill:none;stroke:#000;stroke-linejoin:round;stroke-width:6px"/><polygon points="19.5 21 6 51 72.8 51 81 42 81 21 19.5 21" style="fill:none;stroke:#000;stroke-linejoin:round;stroke-width:6px"/><path d="M66.8,51s-3,21,15,24" style="fill:none;stroke:#000;stroke-linecap:round;stroke-linejoin:round;stroke-width:6px"/><line x1="105" y1="33" x2="129" y2="33" style="fill:none;stroke:#000;stroke-linecap:round;stroke-linejoin:round;stroke-width:6px"/><line x1="102" y1="45" x2="125.8" y2="58.3" style="fill:none;stroke:#000;stroke-linecap:round;stroke-linejoin:round;stroke-width:6px"/><line x1="102" y1="21" x2="125.6" y2="12.2" style="fill:none;stroke:#000;stroke-linecap:round;stroke-linejoin:round;stroke-width:6px"/><rect x="81" y="27" width="6" height="6" style="fill:none;stroke:#000;stroke-linejoin:round;stroke-width:6px"/><rect width="144" height="144" style="fill:none"/></svg>