<svg xmlns="http://www.w3.org/2000/svg" viewBox="0 0 144 144"><path d="M129,96V90a9,9,0,0,0-18,0v15a12,12,0,0,1-24,0V51h15.2c6.6,0,8.2-3.8,3.5-8.5L69,6,32.5,42.5C27.8,47.2,29.4,51,36,51H51v54a12,12,0,0,1-24,0V90A9,9,0,0,0,9,90v12" style="fill:none;stroke:#000;stroke-linecap:round;stroke-linejoin:round;stroke-width:6px"/><line x1="51" y1="93" x2="87" y2="93" style="fill:none;stroke:#000;stroke-linecap:round;stroke-linejoin:round;stroke-width:6px"/><path d="M63,93v27a20.9974,20.9974,0,0,1-21,21c-11.6,0-21-7.9-21-19.5" style="fill:none;stroke:#000;stroke-linecap:round;stroke-linejoin:round;stroke-width:6px"/><path d="M75,93v27c0,11.6,10.2,21,21.8,21s20.6-7.9,20.6-19.5" style="fill:none;stroke:#000;stroke-linecap:round;stroke-linejoin:round;stroke-width:6px"/><polyline points="51 51 69 6 87 51" style="fill:none;stroke:#000;stroke-linecap:round;stroke-linejoin:round;stroke-width:6px"/><rect width="144" height="144" style="fill:none"/></svg>