<svg xmlns="http://www.w3.org/2000/svg" viewBox="0 0 144 144"><circle cx="51" cy="15" r="12" style="fill:none;stroke:#000;stroke-linejoin:round;stroke-width:6px"/><polyline points="69 141 69 117 93 117 93 93 117 93 117 69 141 69" style="fill:none;stroke:#000;stroke-linecap:round;stroke-linejoin:round;stroke-width:6px"/><line x1="141" y1="105" x2="105" y2="141" style="fill:none;stroke:#000;stroke-linecap:round;stroke-linejoin:round;stroke-width:6px"/><polyline points="123 141 105 141 105 123" style="fill:none;stroke:#000;stroke-linecap:round;stroke-linejoin:round;stroke-width:6px"/><path d="M78,102,69,84V78l7.7-9.7a12.08,12.08,0,0,0,1.9-11.7l-3.7-9.8A11.9871,11.9871,0,0,0,63.7,39H36.9a12.0929,12.0929,0,0,0-10.4,6L18,59.6,9.2,64.3a6.0179,6.0179,0,0,0-.7,10.2,6.1263,6.1263,0,0,0,5.4.8L24,72,39,57V90L24,132H36L54,96l9,12" style="fill:none;stroke:#000;stroke-linecap:round;stroke-linejoin:round;stroke-width:6px"/><rect width="144" height="144" style="fill:none"/></svg>