<svg xmlns="http://www.w3.org/2000/svg" viewBox="0 0 144 144"><polyline points="69 141 69 117 93 117 93 93 117 93 117 69 141 69" style="fill:none;stroke:#000;stroke-linecap:round;stroke-linejoin:round;stroke-width:6px"/><line x1="105" y1="141" x2="141" y2="105" style="fill:none;stroke:#000;stroke-linecap:round;stroke-linejoin:round;stroke-width:6px"/><polyline points="123 105 141 105 141 123" style="fill:none;stroke:#000;stroke-linecap:round;stroke-linejoin:round;stroke-width:6px"/><path d="M69,108V96L57,78V60L69,72l15.9-9.1a5.46,5.46,0,0,0,1.8-7.8,5.63,5.63,0,0,0-7.1-1.9L72,57,63.6,44.3a12.064,12.064,0,0,0-10-5.3H26a12.2955,12.2955,0,0,0-8.5,3.5L3,57V75a6,6,0,0,0,12,0V63.5L27,54V76.8L18,129H30L42,87l9,15v9" style="fill:none;stroke:#000;stroke-linecap:round;stroke-linejoin:round;stroke-width:6px"/><circle cx="42" cy="15" r="12" style="fill:none;stroke:#000;stroke-linejoin:round;stroke-width:6px"/><rect width="144" height="144" style="fill:none"/></svg>