<svg xmlns="http://www.w3.org/2000/svg" viewBox="0 0 144 144"><polygon points="105 105 92.1 57 78.3 91.6 63.6 79.5 52 105 105 105" style="fill:none;stroke:#000;stroke-linejoin:round;stroke-width:6px"/><polygon points="137.7 137.7 124.5 131.2 114 138.8 103.5 131.2 93.1 138.8 82.6 131.2 72.1 138.8 61.6 131.2 51.1 138.8 40.6 131.2 30.1 138.8 19.5 131.2 6.3 137.7 12.8 124.5 5.2 114 12.8 103.5 5.2 93.1 12.8 82.6 5.2 72.1 12.8 61.6 5.2 51.1 12.8 40.6 5.2 30.1 12.8 19.5 6.3 6.3 19.5 12.8 30 5.2 40.5 12.8 50.9 5.2 61.4 12.8 71.9 5.2 82.4 12.8 92.9 5.2 103.4 12.8 113.9 5.2 124.5 12.8 137.7 6.3 131.2 19.5 138.8 30 131.2 40.5 138.8 50.9 131.2 61.4 138.8 71.9 131.2 82.4 138.8 92.9 131.2 103.4 138.8 113.9 131.2 124.9 137.7 137.7" style="fill:none;stroke:#000;stroke-linejoin:round;stroke-width:6px"/><rect x="27" y="27" width="90" height="90" style="fill:none;stroke:#000;stroke-linejoin:round;stroke-width:6px"/><circle cx="54" cy="54" r="12" style="fill:none;stroke:#000;stroke-linejoin:round;stroke-width:6px"/><rect width="144" height="144" style="fill:none"/></svg>