<svg xmlns="http://www.w3.org/2000/svg" viewBox="0 0 144 144"><path d="M21,87a18.0529,18.0529,0,0,1,18,18v6h81a14.98,14.98,0,0,1,15,15v3H9a6.0176,6.0176,0,0,1-6-6V105A18.0529,18.0529,0,0,1,21,87Z" style="fill:none;stroke:#000;stroke-linejoin:round;stroke-width:6px"/><path d="M111.6,32.6l12.8,12.8a6.0977,6.0977,0,0,1,0,8.5L79.6,98.7a6.0977,6.0977,0,0,1-8.5,0L58.3,85.9" style="fill:none;stroke:#000;stroke-linejoin:round;stroke-width:6px"/><path d="M13.4,88.4,74.8,27a29.9966,29.9966,0,0,1,42.4,0L39,105.2" style="fill:none;stroke:#000;stroke-linejoin:round;stroke-width:6px"/><line x1="78" y1="84" x2="110.1" y2="51.9" style="fill:none;stroke:#000;stroke-linecap:round;stroke-linejoin:round;stroke-width:6px"/><rect width="144" height="144" style="fill:none"/></svg>