<svg xmlns="http://www.w3.org/2000/svg" viewBox="0 0 144 144"><path d="M103.8,75.1A32.4221,32.4221,0,0,1,105,84a33,33,0,0,1-66,0,30.3457,30.3457,0,0,1,1.3-9.1" style="fill:none;stroke:#000;stroke-linecap:round;stroke-linejoin:round;stroke-width:6px"/><path d="M110.3,41.8a56.9593,56.9593,0,1,1-80.4638,3.7824Q31.5378,43.713,33.4,42" style="fill:none;stroke:#000;stroke-linecap:round;stroke-linejoin:round;stroke-width:6px"/><polygon points="72 5.6 80.6 27 102 27 84.9 42.7 91.3 66.6 72 51.8 52.7 66.9 59.1 42.6 42 27 63.4 27 72 5.6" style="fill:none;stroke:#000;stroke-linejoin:round;stroke-width:6px"/><line x1="72" y1="51.8" x2="56.9" y2="93.1" style="fill:none;stroke:#000;stroke-linecap:round;stroke-linejoin:round;stroke-width:6px"/><line x1="72" y1="51.8" x2="87.1" y2="93.1" style="fill:none;stroke:#000;stroke-linecap:round;stroke-linejoin:round;stroke-width:6px"/><rect width="144" height="144" style="fill:none"/></svg>