<svg xmlns="http://www.w3.org/2000/svg" viewBox="0 0 144 144.0032"><path d="M49.6,77.9l18-7.2c.6,0,1.2,0,1.2.6h0c1.2,4.8-.6,9.6-3.6,13.8C54.4,96,33.4,119.4,28.6,125.4a4.5487,4.5487,0,0,0-1.2,2.4v4.8a8.2024,8.2024,0,0,0,8.4,8.4h88.3V62.9a11.1237,11.1237,0,0,0-1.2-4.2L102.5,23.3c-2.4-3.6-6.6-5.4-10.8-3l-6.6,3a4.6663,4.6663,0,0,1-4.8-1.2L63.4,3.5a1.125,1.125,0,0,0-1.8,0l-.6.6-1.2,18S25.6,62.3,21.4,69a9.82,9.82,0,0,0-1.2,7.2L22,84.6c.6,3,6,3,9,1.8Z" style="fill:none;stroke:#000;stroke-linecap:round;stroke-linejoin:round;stroke-width:6.006499767303467px"/><path d="M40.6,13.1,57.4,23.3l-9,10.8-12.6-15a3.7867,3.7867,0,0,1,0-5.4C37,12.5,38.8,12.5,40.6,13.1Z" style="fill:none;stroke:#000;stroke-linecap:round;stroke-linejoin:round;stroke-width:6.006499767303467px"/><rect width="144" height="144" style="fill:none"/></svg>