<svg xmlns="http://www.w3.org/2000/svg" viewBox="0 0 144 144"><path d="M93,9h27a18,18,0,0,1,0,36h-3c-4.9,0-9.3-.6-12,3L77.3,100.4" style="fill:none;stroke:#000;stroke-linecap:round;stroke-linejoin:round;stroke-width:6px"/><path d="M100.5,129a10.5041,10.5041,0,0,0,1.5-20.9l-20.7-6.3A15.0384,15.0384,0,0,1,69,87V75H36a27,27,0,0,0,0,54Z" style="fill:none;stroke:#000;stroke-linecap:round;stroke-linejoin:round;stroke-width:6px"/><circle cx="45" cy="102" r="9" style="fill:none;stroke:#000;stroke-linecap:round;stroke-linejoin:round;stroke-width:6px"/><line x1="51.3" y1="108.4" x2="60" y2="117" style="fill:none;stroke:#000;stroke-linecap:round;stroke-linejoin:round;stroke-width:6px"/><line x1="51" y1="117" x2="66" y2="117" style="fill:none;stroke:#000;stroke-linecap:round;stroke-linejoin:round;stroke-width:6px"/><path d="M12,27a9,9,0,0,0,0,18H43.5c5.2,0,6.2-7.3,1.3-8.8C42.8,35.6,14,27,12,27Z" style="fill:none;stroke:#000;stroke-linecap:round;stroke-linejoin:round;stroke-width:6px"/><line x1="24" y1="45" x2="51" y2="75" style="fill:none;stroke:#000;stroke-linecap:round;stroke-linejoin:round;stroke-width:6px"/><line x1="33" y1="129" x2="24" y2="138" style="fill:none;stroke:#000;stroke-linecap:round;stroke-linejoin:round;stroke-width:6px"/><line x1="108" y1="126" x2="120" y2="138" style="fill:none;stroke:#000;stroke-linecap:round;stroke-linejoin:round;stroke-width:6px"/><rect width="144" height="144" style="fill:none"/></svg>