<svg xmlns="http://www.w3.org/2000/svg" viewBox="0 0 144 144"><path d="M63,3A60.0475,60.0475,0,0,0,3,63v51a27,27,0,0,0,54,0A27.015,27.015,0,0,1,84,87H99A42,42,0,0,0,99,3Z" style="fill:none;stroke:#000;stroke-linejoin:round;stroke-width:6px"/><path d="M69,21A48.0124,48.0124,0,0,0,21,69v9c0,12,9,18,15,18,12,0,.7-27,42-27H99a24,24,0,0,0,0-48Z" style="fill:none;stroke:#000;stroke-linejoin:round;stroke-width:6px"/><circle cx="30" cy="114" r="6" style="fill:none;stroke:#000;stroke-linejoin:round;stroke-width:6px"/><rect width="144" height="144" style="fill:none"/></svg>