<svg xmlns="http://www.w3.org/2000/svg" viewBox="0 0 144 144"><circle cx="72" cy="72" r="69" style="fill:none;stroke:#000;stroke-linecap:round;stroke-linejoin:round;stroke-width:6px"/><path d="M111.6,108.7A53.9907,53.9907,0,1,1,126,72a54.1288,54.1288,0,0,1-14.4,36.7" style="fill:none;stroke:#000;stroke-miterlimit:10;stroke-width:6px"/><path d="M18.5,69.9C28.6,72.9,36,82.8,36,94.5a26.8563,26.8563,0,0,1-3.7,13.6" style="fill:none;stroke:#000;stroke-linecap:round;stroke-linejoin:round;stroke-width:6px"/><path d="M111.6,107.9A26.3243,26.3243,0,0,1,108,94.5c0-11.9,7.6-21.8,18-24.7" style="fill:none;stroke:#000;stroke-linecap:round;stroke-linejoin:round;stroke-width:6px"/><path d="M99,118.5C99,111,86.9,105,72,105s-27,6-27,13.5" style="fill:none;stroke:#000;stroke-miterlimit:10;stroke-width:6px"/><path d="M123.1,54.8s-4.8,3.3-15.2,3.3S91.8,51.7,72,51.7s-25.6,6.4-36,6.4-15.2-3.3-15.2-3.3" style="fill:none;stroke:#000;stroke-linecap:round;stroke-linejoin:round;stroke-width:6px"/><circle cx="72" cy="76.2" r="12.7" style="fill:none;stroke:#000;stroke-linecap:round;stroke-linejoin:round;stroke-width:6px"/><rect width="144" height="144" style="fill:none"/></svg>