<svg xmlns="http://www.w3.org/2000/svg" viewBox="0 0 144 144"><circle cx="123" cy="63" r="12" style="fill:none;stroke:#000;stroke-linecap:round;stroke-linejoin:round;stroke-width:6px"/><path d="M27,12A12.0353,12.0353,0,0,0,15,24V54h0a30,30,0,0,0,60,0V24A12.0353,12.0353,0,0,0,63,12" style="fill:none;stroke:#000;stroke-linecap:round;stroke-linejoin:round;stroke-width:6px"/><path d="M45,84v45a12,12,0,0,0,24,0V99a15,15,0,0,1,30,0v18a12,12,0,0,0,24,0V75" style="fill:none;stroke:#000;stroke-linecap:round;stroke-linejoin:round;stroke-width:6px"/><path d="M36,12c0,9-9,9-9,9V3S36,3,36,12Z" style="fill:none;stroke:#000;stroke-linecap:round;stroke-linejoin:round;stroke-width:6px"/><path d="M54,12c0-9,9-9,9-9V21S54,21,54,12Z" style="fill:none;stroke:#000;stroke-linecap:round;stroke-linejoin:round;stroke-width:6px"/><rect width="144" height="144" style="fill:none"/></svg>