<svg xmlns="http://www.w3.org/2000/svg" viewBox="0 0 144 144"><polyline points="3 82.7 60.8 27.5 92.9 52.1 141 3" style="fill:none;stroke:#000;stroke-linecap:round;stroke-linejoin:round;stroke-width:6px"/><polyline points="96.1 3 141 3 141 42.9" style="fill:none;stroke:#000;stroke-linecap:round;stroke-linejoin:round;stroke-width:6px"/><path d="M118.2,122.6a15.5259,15.5259,0,0,1,.3,3.1c0,8.4-7.2,15.3-16,15.3s-16-6.9-16-15.3a15.5259,15.5259,0,0,1,.3-3.1l6.6-21.5a9.8377,9.8377,0,0,1,18.2,0Z" style="fill:none;stroke:#000;stroke-linecap:round;stroke-linejoin:round;stroke-width:6px"/><path d="M92.9,104.2s6.2,3.1,9.6,3.1,9.6-3.1,9.6-3.1" style="fill:none;stroke:#000;stroke-linejoin:round;stroke-width:6px"/><path d="M102.5,107.3v12.3c0,3.1,3.2,6.1,6.4,6.1h9.6" style="fill:none;stroke:#000;stroke-linecap:round;stroke-linejoin:round;stroke-width:6px"/><path d="M102.5,119.5c0,3.1-3.2,6.1-6.4,6.1H86.5" style="fill:none;stroke:#000;stroke-linecap:round;stroke-linejoin:round;stroke-width:6px"/><path d="M128.2,81.9a28.2126,28.2126,0,0,1,7.2,7,27.6111,27.6111,0,0,1-.9,33.7s-9.2,8.1-19.1,12.6" style="fill:none;stroke:#000;stroke-linecap:round;stroke-linejoin:round;stroke-width:6px"/><path d="M134.6,87.4V76.6c0-3-3.2-9.2-9.6-9.2s-9.6,9.2-9.6,9.2H89.6s-3.2-9.2-9.6-9.2-9.6,6.1-9.6,9.2V87.1" style="fill:none;stroke:#000;stroke-linejoin:round;stroke-width:6px"/><path d="M89.6,134.4a102.5344,102.5344,0,0,1-16.5-8.7A27.613,27.613,0,0,1,64,105.2,28.3539,28.3539,0,0,1,76.8,81.7" style="fill:none;stroke:#000;stroke-linecap:round;stroke-linejoin:round;stroke-width:6px"/><path d="M121.7,88.9a3.1016,3.1016,0,1,0,3.2,3.1,2.9666,2.9666,0,0,0-3.2-3.1Z" style="fill:#000"/><path d="M86.5,88.9A3.1016,3.1016,0,1,0,89.7,92a3.2,3.2,0,0,0-3.2-3.1Z" style="fill:#000"/><rect width="144" height="144" style="fill:none"/></svg>