<svg xmlns="http://www.w3.org/2000/svg" viewBox="0 0 144.008 144"><path d="M90,90.2a30.2562,30.2562,0,0,0,1.9,10.6s4,11.1,4,18.4-3,21.7-3,21.7h15l3-18.1A136.2519,136.2519,0,0,1,121,112.5c5.8-5.6,10.9-12.6,10.9-22.3,0-14.1-9.8-22-21-25.4-22.3-6.8-17.2-29-45-29C47.5,35.8,33,51.8,17,64.6" transform="translate(0.008)" style="fill:none;stroke:#000;stroke-linecap:round;stroke-linejoin:round;stroke-width:6px"/><path d="M3.2,39.5S9.9,49.7,7.7,60.8C6.4,67.9,2.8,75.9,3,79.5c.3,3.6,2.6,10.6,6.7,10.2,3-.3,8-15.4,7-29.9C15.7,45.5,3.2,39.5,3.2,39.5Z" transform="translate(0.008)" style="fill:none;stroke:#000;stroke-linecap:round;stroke-linejoin:round;stroke-width:6px"/><path d="M3,79.4s0,25.4,3,29,12-3.6,15-7.3S27,90.2,27,83" transform="translate(0.008)" style="fill:none;stroke:#000;stroke-linecap:round;stroke-linejoin:round;stroke-width:6px"/><path d="M54,101.1s3,3.6,3,10.9c0,10.9-6,29-6,29h9l15-32.6H94.2" transform="translate(0.008)" style="fill:none;stroke:#000;stroke-linecap:round;stroke-linejoin:round;stroke-width:6px"/><path d="M27,93.8c6,0,21,3.6,27,7.3" transform="translate(0.008)" style="fill:none;stroke:#000;stroke-linecap:round;stroke-linejoin:round;stroke-width:6px"/><path d="M42,97.5S30,112,30,115.6c0,3.5,6,14.5,6,14.5l6-3.6a12.6934,12.6934,0,0,1,3-7.3c3-3.7,12-7.3,12-7.3" transform="translate(0.008)" style="fill:none;stroke:#000;stroke-linecap:round;stroke-linejoin:round;stroke-width:6px"/><path d="M131.2,96.5a20.13,20.13,0,0,0,.8,11.9c3.8,9.2,9,10.9,9,10.9L138,141H126s3-7.3,0-14.5c-3-7.3-12.1-7.3-12.1-7.3" transform="translate(0.008)" style="fill:none;stroke:#000;stroke-linejoin:round;stroke-width:6px"/><path d="M129.6,79.1s8.4-3.4,8.4-14.3-9-14.5-15-14.5-15-3.6-18-10.9,0-14.5,0-14.5-3-7.3,0-14.5,9-7.3,9-7.3,3,7.3,0,14.5c-3,7.3-9,7.3-9,7.3" transform="translate(0.008)" style="fill:none;stroke:#000;stroke-linejoin:round;stroke-width:6px"/><rect x="0.008" width="144" height="144" style="fill:none"/></svg>