<svg xmlns="http://www.w3.org/2000/svg" viewBox="0 0 144.0005 143.9979"><path d="M53.7,122.6a15.5193,15.5193,0,0,1,.3,3.1,15.0029,15.0029,0,1,1-30,.59q-.0059-.2949,0-.59a15.5193,15.5193,0,0,1,.3-3.1l6.2-21.5a8.9721,8.9721,0,0,1,17,0Z" transform="translate(0.0005)" style="fill:none;stroke:#000;stroke-linecap:round;stroke-linejoin:round;stroke-width:6px"/><path d="M30,104.2s5.8,3.1,9,3.1,9-3.1,9-3.1" transform="translate(0.0005)" style="fill:none;stroke:#000;stroke-linejoin:round;stroke-width:6px"/><path d="M39,107.3v12.3a6.4668,6.4668,0,0,0,6,6.1h9" transform="translate(0.0005)" style="fill:none;stroke:#000;stroke-linecap:round;stroke-linejoin:round;stroke-width:6px"/><path d="M39,119.5a6.4668,6.4668,0,0,1-6,6.1H24" transform="translate(0.0005)" style="fill:none;stroke:#000;stroke-linecap:round;stroke-linejoin:round;stroke-width:6px"/><path d="M63,81.9a27.8819,27.8819,0,0,1,6.7,7,28.5676,28.5676,0,0,1,5,16.3,28.8751,28.8751,0,0,1-5.8,17.4s-8.5,8.1-17.8,12.6" transform="translate(0.0005)" style="fill:none;stroke:#000;stroke-linecap:round;stroke-linejoin:round;stroke-width:6px"/><path d="M69,87.4V76.6c0-3-3-9.2-9-9.2s-9,9.2-9,9.2H27s-3-9.2-9-9.2-9,6.1-9,9.2V87.1" transform="translate(0.0005)" style="fill:none;stroke:#000;stroke-linejoin:round;stroke-width:6px"/><path d="M27,134.4a94.22,94.22,0,0,1-15.4-8.7A28.875,28.875,0,0,1,8,88.9a28.213,28.213,0,0,1,7-7.2" transform="translate(0.0005)" style="fill:none;stroke:#000;stroke-linecap:round;stroke-linejoin:round;stroke-width:6px"/><polyline points="12.001 3 60.001 52.1 90.001 27.5 141.001 82.7" style="fill:none;stroke:#000;stroke-linecap:round;stroke-linejoin:round;stroke-width:6px"/><polyline points="99.001 82.7 141.001 82.7 141.001 42.9" style="fill:none;stroke:#000;stroke-linecap:round;stroke-linejoin:round;stroke-width:6px"/><path d="M57,88.9a3.1017,3.1017,0,1,0,2.9973,2.9973A3.1017,3.1017,0,0,0,57,88.9Z" style="fill:#000" transform="translate(0.0005)"/><path d="M24,88.9a3.1017,3.1017,0,0,0,0,6.2,2.9711,2.9711,0,0,0,3.0026-2.9394Q27.0035,92.08,27,92a3.0316,3.0316,0,0,0-2.9623-3.0994Z" style="fill:#000" transform="translate(0.0005)"/></svg>