<svg xmlns="http://www.w3.org/2000/svg" viewBox="0 0 144.0333 144.008"><path d="M82.1,94.9c1.7,3.4,2,5.7,2,10.1a23.2186,23.2186,0,0,1-5.2,15.1L84.1,141H63.2l-6.3-32.5" transform="translate(0.0333 0.008)" style="fill:none;stroke:#000;stroke-linecap:round;stroke-linejoin:round;stroke-width:6px"/><path d="M78.2,76.1s3,7.2,12,14.4,26.9,7.2,26.9,7.2l12-14.4S111.2,76.1,106,66.7c-5.2-9.5,2.1-23.1,2.1-23.1s14.9-7.2,21-14.4c5.9-7.2,5.9-21.6,3-21.6H106.7S102.1.4,96.2,4s0,7.2,0,7.2C87.4,16.5,77.8,17.3,69.3,22c-13,7.2-14,16.7-24.3,18.8C33.8,43,24.2,50.8,18.4,61.9" transform="translate(0.0333 0.008)" style="fill:none;stroke:#000;stroke-linecap:round;stroke-linejoin:round;stroke-width:6px"/><path d="M18.8,60.8a9.6986,9.6986,0,0,1-8,4.5H3.3s-3,21.6,9,21.6c0,15.1,5.9,28.5,15.1,37.1l2.8,16.9H50.8V115.7c4.3-4.6,6.3-10.5,6.3-18a27.5015,27.5015,0,0,0-6.3-18" transform="translate(0.0333 0.008)" style="fill:none;stroke:#000;stroke-linecap:round;stroke-linejoin:round;stroke-width:6px"/><path d="M55.1,108.9a51.5206,51.5206,0,0,0,17.9-6c9.9-5.4,13.5-15.7,13.5-15.7" transform="translate(0.0333 0.008)" style="fill:none;stroke:#000;stroke-linecap:round;stroke-linejoin:round;stroke-width:6px"/><path d="M106.3,47.4H120a62.2335,62.2335,0,0,0,21-3.6s-3,18-5.9,21.6c-3,3.6-24.1,7.2-24.1,7.2" transform="translate(0.0333 0.008)" style="fill:none;stroke:#000;stroke-linejoin:round;stroke-width:6px"/><rect x="0.0333" y="0.008" width="144" height="144" style="fill:none"/></svg>