<svg xmlns="http://www.w3.org/2000/svg" viewBox="0 0 144 144"><path d="M31.9,90.3c4.6.7,3.9,2.8,10.1,2.8,5.9,0,6.3-1.9,10.4-2.7" style="fill:none;stroke:#000;stroke-linejoin:round;stroke-width:6px"/><path d="M42,117" style="fill:none;stroke:#000;stroke-linecap:round;stroke-linejoin:round;stroke-width:6px"/><path d="M61.2,93.1c4.6,4.7,7.9,10.8,7.9,17.9l-12,15-3,12c-1.4,1.6-9.7,3-12,3s-10.5-1.4-12-3l-3-12L15,111c0-7.2,4-13.2,8.6-17.9" style="fill:none;stroke:#000;stroke-linecap:round;stroke-linejoin:round;stroke-width:6px"/><path d="M16.1,103.1l-5.3-2.6C5.6,98,3,95.3,3,87.4,3,81.6,7.7,75,13.5,75h7.9c5.3,0,7.9-10.5,7.9-10.5s7.9,7.1,7.9,15S31.8,93,26.6,93H15" style="fill:none;stroke:#000;stroke-linecap:round;stroke-linejoin:round;stroke-width:6px"/><path d="M67.9,103.1l5.3-2.6C78.4,98,81,95.3,81,87.4,81,81.6,76.3,75,70.5,75H62.6c-5.3,0-7.9-10.5-7.9-10.5s-7.9,7.1-7.9,15S52.2,93,57.4,93H69" style="fill:none;stroke:#000;stroke-linecap:round;stroke-linejoin:round;stroke-width:6px"/><polyline points="12 3 60 51 90 27 141 81" style="fill:none;stroke:#000;stroke-linecap:round;stroke-linejoin:round;stroke-width:6px"/><polyline points="99 81 141 81 141 42" style="fill:none;stroke:#000;stroke-linecap:round;stroke-linejoin:round;stroke-width:6px"/><path d="M54,102a3.0085,3.0085,0,0,0-3,3,2.9465,2.9465,0,0,0,3,3,3,3,0,0,0,0-6Z" style="fill:#000"/><path d="M30,102a3.0085,3.0085,0,0,0-3,3,2.9465,2.9465,0,0,0,3,3,3.0085,3.0085,0,0,0,3-3,2.9465,2.9465,0,0,0-3-3Z" style="fill:#000"/><rect width="144" height="144" style="fill:none"/></svg>