<svg xmlns="http://www.w3.org/2000/svg" viewBox="0 0 144 144"><polyline points="3 81 60.8 27 92.9 51 141 3" style="fill:none;stroke:#000;stroke-linecap:round;stroke-linejoin:round;stroke-width:6px"/><polyline points="96.1 3 141 3 141 42" style="fill:none;stroke:#000;stroke-linecap:round;stroke-linejoin:round;stroke-width:6px"/><path d="M88.5,90.3c4.9.7,4.2,2.8,10.8,2.8,6.3,0,6.7-1.9,11.1-2.7" style="fill:none;stroke:#000;stroke-linejoin:round;stroke-width:6px"/><path d="M99.3,117" style="fill:none;stroke:#000;stroke-linecap:round;stroke-linejoin:round;stroke-width:6px"/><path d="M119.8,93.1c5,4.7,8.3,10.8,8.3,17.9l-12.8,15-3.2,12c-1.5,1.6-10.3,3-12.8,3s-11.3-1.4-12.8-3l-3.2-12L70.5,111c0-7.2,4.3-13.2,9.2-17.9" style="fill:none;stroke:#000;stroke-linecap:round;stroke-linejoin:round;stroke-width:6px"/><path d="M71.6,103.1l-5.7-2.6c-5.7-2.6-8.4-5.3-8.4-13.1,0-5.8,5.1-12.4,11.2-12.4h8.4c5.6,0,8.4-10.5,8.4-10.5s8.4,7.1,8.4,15S88.4,93,82.8,93c-5.7,0-12.5-.1-12.5-.1" style="fill:none;stroke:#000;stroke-linecap:round;stroke-linejoin:round;stroke-width:6px"/><path d="M126.9,103.1l5.7-2.6c5.7-2.6,8.4-5.3,8.4-13.1,0-5.8-5.1-12.4-11.2-12.4h-8.4c-5.7,0-8.4-10.5-8.4-10.5s-8.4,7.1-8.4,15S110.1,93,115.7,93h12.5" style="fill:none;stroke:#000;stroke-linecap:round;stroke-linejoin:round;stroke-width:6px"/><path d="M112.2,102a3.1192,3.1192,0,0,0-3.2,3,3.0573,3.0573,0,0,0,3.2,3,3.1192,3.1192,0,0,0,3.2-3,3.1849,3.1849,0,0,0-3.2-3Z" style="fill:#000"/><path d="M86.5,102a3.1192,3.1192,0,0,0-3.2,3,3.0573,3.0573,0,0,0,3.2,3,3.1192,3.1192,0,0,0,3.2-3,3.1849,3.1849,0,0,0-3.2-3Z" style="fill:#000"/><rect width="144" height="144" style="fill:none"/></svg>