<svg xmlns="http://www.w3.org/2000/svg" viewBox="0 0 144 144"><path d="M57,69A12.0353,12.0353,0,0,0,45,57H32A12.14,12.14,0,0,0,20,68l-4,60a12.23,12.23,0,0,0,3.1,9.1,11.9814,11.9814,0,0,0,8.8,3.9h17a12.0353,12.0353,0,0,0,12-12V69Z" style="fill:none;stroke:#000;stroke-linecap:round;stroke-linejoin:round;stroke-width:6px"/><path d="M87,69A12.0353,12.0353,0,0,1,99,57h13a12.14,12.14,0,0,1,12,11l4,60a12.23,12.23,0,0,1-3.1,9.1,11.9814,11.9814,0,0,1-8.8,3.9H99a12.0353,12.0353,0,0,1-12-12Z" style="fill:none;stroke:#000;stroke-linecap:round;stroke-linejoin:round;stroke-width:6px"/><rect x="3" y="33" width="138" height="24" style="fill:none;stroke:#000;stroke-linecap:round;stroke-linejoin:round;stroke-width:6px"/><rect width="144" height="144" style="fill:none"/></svg>