<svg xmlns="http://www.w3.org/2000/svg" viewBox="0 0 144 144"><polyline points="129 62 129 135 15 135 15 62" style="fill:none;stroke:#000;stroke-linecap:round;stroke-linejoin:round;stroke-width:6px"/><polygon points="129 15 15 15 3 39 141 39 129 15" style="fill:none;stroke:#000;stroke-linecap:round;stroke-linejoin:round;stroke-width:6px"/><path d="M141,45c0,13.8-16.6,25.4-30,12-8.7,13.9-27.9,16.4-39,3.8C60.8,73.5,41.6,70.7,33,57,19.7,70.2,3,59,3,45V39H141Z" style="fill:none;stroke:#000;stroke-linecap:round;stroke-linejoin:round;stroke-width:6px"/><polyline points="33 57 33 39 39 15" style="fill:none;stroke:#000;stroke-linecap:round;stroke-linejoin:round;stroke-width:6px"/><polyline points="72 60.9 72 39 72 15" style="fill:none;stroke:#000;stroke-linecap:round;stroke-linejoin:round;stroke-width:6px"/><polyline points="111 57 111 39 105 15" style="fill:none;stroke:#000;stroke-linecap:round;stroke-linejoin:round;stroke-width:6px"/><polyline points="117 117 105 117 105 93 117 93" style="fill:none;stroke:#000;stroke-linecap:round;stroke-linejoin:round;stroke-width:6px"/><line x1="105" y1="105" x2="117" y2="105" style="fill:none;stroke:#000;stroke-linecap:round;stroke-linejoin:round;stroke-width:6px"/><polyline points="69 117 60 93 51 117" style="fill:none;stroke:#000;stroke-linecap:round;stroke-linejoin:round;stroke-width:6px"/><line x1="53.2" y1="111" x2="66.8" y2="111" style="fill:none;stroke:#000;stroke-linecap:round;stroke-linejoin:round;stroke-width:6px"/><polyline points="93 117 81 117 81 93" style="fill:none;stroke:#000;stroke-linecap:round;stroke-linejoin:round;stroke-width:6px"/><path d="M30,111a6.21,6.21,0,0,0,6.3,6c3.5,0,5.7-3,5.7-6.7,0-5.5-5.2-5-6.3-5.3S30,103.8,30,98.3c0-3.7,2.5-5.3,6-5.3a6.0154,6.0154,0,0,1,6,6" style="fill:none;stroke:#000;stroke-linecap:round;stroke-linejoin:round;stroke-width:6px"/><rect width="144" height="144" style="fill:none"/></svg>