<svg xmlns="http://www.w3.org/2000/svg" viewBox="0 0 144 144.1"><path d="M72,141.1c33.8,0,78-90.1,24-96.1H48C-6,51,38.2,141.1,72,141.1Z" style="fill:none;stroke:#000;stroke-linejoin:round;stroke-width:6px"/><path d="M76.5,35.6a27.015,27.015,0,0,0,27-27A27.015,27.015,0,0,0,76.5,35.6Z" style="fill:none;stroke:#000;stroke-linejoin:round;stroke-width:6px"/><path d="M67.5,35.6a27.015,27.015,0,0,1-27-27A27.015,27.015,0,0,1,67.5,35.6Z" style="fill:none;stroke:#000;stroke-linejoin:round;stroke-width:6px"/><line x1="55.5" y1="90" x2="61.5" y2="96" style="fill:none;stroke:#000;stroke-linecap:round;stroke-linejoin:round;stroke-width:6px"/><line x1="82.5" y1="90" x2="88.5" y2="96" style="fill:none;stroke:#000;stroke-linecap:round;stroke-linejoin:round;stroke-width:6px"/><line x1="42" y1="66" x2="48" y2="72" style="fill:none;stroke:#000;stroke-linecap:round;stroke-linejoin:round;stroke-width:6px"/><line x1="69" y1="66" x2="75" y2="72" style="fill:none;stroke:#000;stroke-linecap:round;stroke-linejoin:round;stroke-width:6px"/><line x1="96" y1="66" x2="102" y2="72" style="fill:none;stroke:#000;stroke-linecap:round;stroke-linejoin:round;stroke-width:6px"/><line x1="69" y1="111" x2="75" y2="117" style="fill:none;stroke:#000;stroke-linecap:round;stroke-linejoin:round;stroke-width:6px"/><rect width="144" height="144" style="fill:none"/></svg>