<svg xmlns="http://www.w3.org/2000/svg" viewBox="0 0 144 144"><path d="M69,66C57.4,49.1,45,27,45,27l6.4-6h35l6.5,6S80,46.8,69,66Z" style="fill:none;stroke:#000;stroke-linecap:round;stroke-linejoin:round;stroke-width:6px"/><path d="M81,90a3,3,0,0,0,0,6,3,3,0,0,0,0-6Z" style="fill:#000"/><path d="M81,102a3,3,0,0,0,0,6,3,3,0,0,0,0-6Z" style="fill:#000"/><path d="M57,90a3,3,0,0,0,0,6,3,3,0,0,0,0-6Z" style="fill:#000"/><path d="M57,102a3,3,0,0,0,0,6,3,3,0,0,0,0-6Z" style="fill:#000"/><line x1="69" y1="105" x2="69" y2="66" style="fill:none;stroke:#000;stroke-linecap:round;stroke-linejoin:round;stroke-width:6px"/><path d="M45.2,27C37.9,27,18,36,18,36L3,105H21L35,60.3a3.4772,3.4772,0,0,1,3.5-3.1A3.5431,3.5431,0,0,1,42,60.7L33,129H60.4c.1-.2,8.6-24,8.6-24l9.1,24H105L96.3,60.3a3.1591,3.1591,0,0,1,3.2-3.2,3.2333,3.2333,0,0,1,3.2,2.8L117,105h18L120,36s-21.2-9-27.5-9" style="fill:none;stroke:#000;stroke-linecap:round;stroke-linejoin:round;stroke-width:6px"/><rect width="144" height="144" style="fill:none"/></svg>