<svg xmlns="http://www.w3.org/2000/svg" viewBox="0 0 144.0134 144"><path d="M97,115.1a5.9115,5.9115,0,0,1-4.3,1.9H15.1a12,12,0,1,1,0-24H82.4a5.9663,5.9663,0,0,0,4.4-1.9L119.9,62a12.204,12.204,0,1,1,17.8,16.7Z" style="fill:none;stroke:#000;stroke-linejoin:round;stroke-width:6px"/><line x1="27.1" y1="141" x2="45.1" y2="117" style="fill:none;stroke:#000;stroke-linecap:round;stroke-linejoin:round;stroke-width:6px"/><line x1="98.8" y1="141" x2="80.8" y2="117" style="fill:none;stroke:#000;stroke-linecap:round;stroke-linejoin:round;stroke-width:6px"/><line x1="39.1" y1="12" x2="39.1" y2="6" style="fill:none;stroke:#000;stroke-linecap:round;stroke-linejoin:round;stroke-width:6px"/><line x1="58" y1="19.9" x2="62.3" y2="15.7" style="fill:none;stroke:#000;stroke-linecap:round;stroke-linejoin:round;stroke-width:6px"/><line x1="66.1" y1="39" x2="72.1" y2="39" style="fill:none;stroke:#000;stroke-linecap:round;stroke-linejoin:round;stroke-width:6px"/><line x1="58" y1="58.1" x2="62.3" y2="62.4" style="fill:none;stroke:#000;stroke-linecap:round;stroke-linejoin:round;stroke-width:6px"/><line x1="39.1" y1="66" x2="39.1" y2="72" style="fill:none;stroke:#000;stroke-linecap:round;stroke-linejoin:round;stroke-width:6px"/><line x1="19.8" y1="58.1" x2="15.6" y2="62.4" style="fill:none;stroke:#000;stroke-linecap:round;stroke-linejoin:round;stroke-width:6px"/><line x1="12.1" y1="39" x2="6.1" y2="39" style="fill:none;stroke:#000;stroke-linecap:round;stroke-linejoin:round;stroke-width:6px"/><line x1="19.8" y1="19.9" x2="15.6" y2="15.7" style="fill:none;stroke:#000;stroke-linecap:round;stroke-linejoin:round;stroke-width:6px"/><circle cx="39.1" cy="39.1" r="15" style="fill:none;stroke:#000;stroke-linecap:round;stroke-linejoin:round;stroke-width:6px"/><rect width="144" height="144" style="fill:none"/></svg>