<svg xmlns="http://www.w3.org/2000/svg" viewBox="0 0 144 144"><path d="M141,140.9V122.8c-15,3.1-24.4-11.9-24.4-11.9h0s-7.1,12.3-21.7,12.3c-14,0-21.7-12.3-21.7-12.3h0s-7.1,12.3-21.7,12.3c-14,0-21.7-12.3-21.7-12.3h0S17.8,126.2,3.1,123v17.9Z" style="fill:none;stroke:#000;stroke-linejoin:round;stroke-width:6px"/><path d="M141,122.9V98.8c-15,3.1-24.4-11.9-24.4-11.9h0s-7.1,12.3-21.7,12.3c-14,0-21.7-12.3-21.7-12.3h0S66.1,99.2,51.5,99.2c-14,0-21.7-12.3-21.7-12.3h0S17.8,102.2,3.1,99v23.9" style="fill:none;stroke:#000;stroke-linejoin:round;stroke-width:6px"/><path d="M141,98.9V74.8c-15,3.1-24.4-11.9-24.4-11.9h0s-7.1,12.3-21.7,12.3c-14,0-21.7-12.3-21.7-12.3h0S66.1,75.2,51.5,75.2c-14,0-21.7-12.3-21.7-12.3h0S17.8,78.2,3.1,75V98.9" style="fill:none;stroke:#000;stroke-linejoin:round;stroke-width:6px"/><line x1="114.6" y1="45" x2="123" y2="45" style="fill:none;stroke:#000;stroke-linecap:round;stroke-linejoin:round;stroke-width:6px"/><line x1="104.2" y1="21.6" x2="110.4" y2="15.4" style="fill:none;stroke:#000;stroke-linecap:round;stroke-linejoin:round;stroke-width:6px"/><line x1="75" y1="11.3" x2="75" y2="3" style="fill:none;stroke:#000;stroke-linecap:round;stroke-linejoin:round;stroke-width:6px"/><line x1="45.7" y1="21.6" x2="39.5" y2="15.4" style="fill:none;stroke:#000;stroke-linecap:round;stroke-linejoin:round;stroke-width:6px"/><line x1="35.3" y1="45" x2="27" y2="45" style="fill:none;stroke:#000;stroke-linecap:round;stroke-linejoin:round;stroke-width:6px"/><path d="M56.6,74.5a29.9582,29.9582,0,1,1,36.9.3" style="fill:none;stroke:#000;stroke-linecap:round;stroke-linejoin:round;stroke-width:6px"/><rect width="144" height="144" style="fill:none"/></svg>