<svg xmlns="http://www.w3.org/2000/svg" viewBox="0 0 144 144"><polygon points="42 105 69 129 96 105 81 105 81 75 57 75 57 105 42 105" style="fill:none;stroke:#000;stroke-linecap:round;stroke-linejoin:round;stroke-width:6px"/><path d="M32.5,90A42.0255,42.0255,0,1,1,111,69.1,41.3548,41.3548,0,0,1,105.4,90" style="fill:none;stroke:#000;stroke-linecap:round;stroke-linejoin:round;stroke-width:6px"/><line x1="68.9" y1="14.9" x2="68.9" y2="3.1" style="fill:none;stroke:#000;stroke-linecap:round;stroke-linejoin:round;stroke-width:6px"/><line x1="107.2" y1="30.7" x2="115.6" y2="22.4" style="fill:none;stroke:#000;stroke-linecap:round;stroke-linejoin:round;stroke-width:6px"/><line x1="123.1" y1="69" x2="134.9" y2="69" style="fill:none;stroke:#000;stroke-linecap:round;stroke-linejoin:round;stroke-width:6px"/><line x1="107.3" y1="107.3" x2="115.6" y2="115.7" style="fill:none;stroke:#000;stroke-linecap:round;stroke-linejoin:round;stroke-width:6px"/><line x1="30.7" y1="107.4" x2="22.3" y2="115.7" style="fill:none;stroke:#000;stroke-linecap:round;stroke-linejoin:round;stroke-width:6px"/><line x1="14.8" y1="69.1" x2="3" y2="69.1" style="fill:none;stroke:#000;stroke-linecap:round;stroke-linejoin:round;stroke-width:6px"/><line x1="30.6" y1="30.8" x2="22.3" y2="22.4" style="fill:none;stroke:#000;stroke-linecap:round;stroke-linejoin:round;stroke-width:6px"/><line x1="3" y1="141" x2="134.9" y2="141" style="fill:none;stroke:#000;stroke-linecap:round;stroke-linejoin:round;stroke-width:6px"/><rect width="144" height="144" style="fill:none"/></svg>