<svg xmlns="http://www.w3.org/2000/svg" viewBox="0 0 144 144"><path d="M138,129c0-12-13.4-12-13.4,0,0,12.1-15,12.1-15,0,0-12-15-12-15,0,0,12.1-15,12.1-15,0,0-12-15-12-15,0,0,12.1-15,12.1-15,0,0-12-15-12-15,0,0,12.3-15,12.3-15,0,0-12-13.6-12-13.6,0" style="fill:none;stroke:#000;stroke-linecap:round;stroke-linejoin:round;stroke-width:6px"/><path d="M138,99c0-12-13.4-12-13.4,0,0,12.1-15,12.1-15,0,0-12-15-12-15,0,0,12.1-15,12.1-15,0,0-12-15-12-15,0,0,12.1-15,12.1-15,0,0-12-15-12-15,0,0,12.3-15,12.3-15,0C19.6,87,6,87,6,99" style="fill:none;stroke:#000;stroke-linecap:round;stroke-linejoin:round;stroke-width:6px"/><path d="M69,90.8V18a15,15,0,0,1,30,0v6" style="fill:none;stroke:#000;stroke-linecap:round;stroke-linejoin:round;stroke-width:6px"/><path d="M111,104.5V18a15,15,0,0,1,30,0v6" style="fill:none;stroke:#000;stroke-linecap:round;stroke-linejoin:round;stroke-width:6px"/><line x1="69" y1="57" x2="111" y2="57" style="fill:none;stroke:#000;stroke-linecap:round;stroke-linejoin:round;stroke-width:6px"/><line x1="69" y1="39" x2="111" y2="39" style="fill:none;stroke:#000;stroke-linecap:round;stroke-linejoin:round;stroke-width:6px"/><line x1="69" y1="75" x2="111" y2="75" style="fill:none;stroke:#000;stroke-linecap:round;stroke-linejoin:round;stroke-width:6px"/><rect width="144" height="144" style="fill:none"/></svg>