<svg xmlns="http://www.w3.org/2000/svg" viewBox="0 0 144 144"><path d="M141,120a20.9974,20.9974,0,0,1-21,21H24a21,21,0,0,1,0-42h96A20.9974,20.9974,0,0,1,141,120Z" style="fill:none;stroke:#000;stroke-linejoin:round;stroke-width:6px"/><path d="M47.1,99,64.8,68A61.783,61.783,0,0,0,65,7.1l-56.8,99" style="fill:none;stroke:#000;stroke-linejoin:round;stroke-width:6px"/><line x1="58.7" y1="41.4" x2="42.3" y2="70.3" style="fill:none;stroke:#000;stroke-linecap:round;stroke-linejoin:round;stroke-width:6px"/><circle cx="30" cy="120" r="9" style="fill:none;stroke:#000;stroke-linejoin:round;stroke-width:6px"/><circle cx="114" cy="120" r="9" style="fill:none;stroke:#000;stroke-linejoin:round;stroke-width:6px"/><path d="M135,105.5V45a12,12,0,0,0-24,0v.3a15.0037,15.0037,0,0,1,0,29.4V99" style="fill:none;stroke:#000;stroke-linecap:round;stroke-linejoin:round;stroke-width:6px"/><rect width="144" height="144" style="fill:none"/></svg>