<svg xmlns="http://www.w3.org/2000/svg" viewBox="0 0 144 144"><rect x="51" y="63" width="42" height="30" style="fill:none;stroke:#000;stroke-linecap:round;stroke-linejoin:round;stroke-width:6px"/><polyline points="4.3 59.1 21 84 40.2 61" style="fill:none;stroke:#000;stroke-linecap:round;stroke-linejoin:round;stroke-width:6px"/><polyline points="139.7 84.9 123 60 103.8 83.1" style="fill:none;stroke:#000;stroke-linecap:round;stroke-linejoin:round;stroke-width:6px"/><path d="M122.8,60.3c5,26.4-13.6,52.4-39,58.4a51.0374,51.0374,0,0,1-47.6-13.3" style="fill:none;stroke:#000;stroke-linecap:round;stroke-linejoin:round;stroke-width:6px"/><path d="M21,83.9c-7.9-29.3,11.8-58,39.2-64.5a50.8383,50.8383,0,0,1,49.9,15.8" style="fill:none;stroke:#000;stroke-linecap:round;stroke-linejoin:round;stroke-width:6px"/><path d="M57,54a15,15,0,0,1,30,0v9H57Z" style="fill:none;stroke:#000;stroke-linecap:round;stroke-linejoin:round;stroke-width:6px"/><line x1="72" y1="75" x2="72" y2="81" style="fill:none;stroke:#000;stroke-linecap:round;stroke-linejoin:round;stroke-width:6px"/><rect width="144" height="144" style="fill:none"/></svg>