<svg xmlns="http://www.w3.org/2000/svg" viewBox="0 0 144 144"><polyline points="4.3 62.1 21 87 40.2 64" style="fill:none;stroke:#000;stroke-linecap:round;stroke-linejoin:round;stroke-width:6px"/><path d="M20.9,86.7c-7-29.3,11.9-57.9,39.3-64.4a51.0819,51.0819,0,0,1,50,15.8" style="fill:none;stroke:#000;stroke-linecap:round;stroke-linejoin:round;stroke-width:6px"/><polyline points="139.7 81.9 123 57 103.8 80" style="fill:none;stroke:#000;stroke-linecap:round;stroke-linejoin:round;stroke-width:6px"/><path d="M123,57.3c7,29.3-11.9,57.9-39.3,64.4a51.0818,51.0818,0,0,1-50-15.8" style="fill:none;stroke:#000;stroke-linecap:round;stroke-linejoin:round;stroke-width:6px"/><path d="M72,84A12,12,0,1,1,84,72,12,12,0,0,1,72,84Z" style="fill:none;stroke:#000;stroke-linecap:round;stroke-linejoin:round;stroke-width:6px"/><rect width="144" height="144" style="fill:none"/></svg>