<svg xmlns="http://www.w3.org/2000/svg" viewBox="0 0 144 144"><path d="M90,69H54A12.0353,12.0353,0,0,0,66,81H78A12.0353,12.0353,0,0,0,90,69Z" style="fill:none;stroke:#000;stroke-linecap:round;stroke-linejoin:round;stroke-width:6px"/><path d="M141,51H3A18.0529,18.0529,0,0,0,21,69H123A18.0529,18.0529,0,0,0,141,51Z" style="fill:none;stroke:#000;stroke-linecap:round;stroke-linejoin:round;stroke-width:6px"/><polygon points="120 9 90 9 78 51 108 51 120 9" style="fill:none;stroke:#000;stroke-linecap:round;stroke-linejoin:round;stroke-width:6px"/><line x1="117" y1="24" x2="126" y2="51" style="fill:none;stroke:#000;stroke-linecap:round;stroke-linejoin:round;stroke-width:6px"/><path d="M81,126V81H63v45a12.0353,12.0353,0,0,0-12,12v3H93v-3A12.0353,12.0353,0,0,0,81,126Z" style="fill:none;stroke:#000;stroke-linecap:round;stroke-linejoin:round;stroke-width:6px"/><rect width="144" height="144" style="fill:none"/></svg>