<svg xmlns="http://www.w3.org/2000/svg" viewBox="0 0 144 144"><path d="M77.5,33a21.1833,21.1833,0,0,1,2-2.4A16.4821,16.4821,0,0,1,106.6,48" style="fill:none;stroke:#000;stroke-linejoin:round;stroke-width:6px"/><path d="M94.5,63a11.8591,11.8591,0,0,1,2.9-12.2,12.0208,12.0208,0,0,1,17,17" style="fill:none;stroke:#000;stroke-linejoin:round;stroke-width:6px"/><polyline points="83.9 61.4 114.4 67.8 90.2 92" style="fill:none;stroke:#000;stroke-linejoin:round;stroke-width:6px"/><path d="M112.3,65.6A8.98,8.98,0,1,0,125,52.9c-.1-.1-.3-.2-.4-.4a8.7023,8.7023,0,0,0,2.6-1.8,8.993,8.993,0,0,0,0-12.7,8.86,8.86,0,0,0-6-2.6,8.9993,8.9993,0,0,0-12.7-12.7,8.86,8.86,0,0,0-2.6-6,8.993,8.993,0,0,0-12.7,0,9.314,9.314,0,0,0-1.8,2.6c-.1-.1-.2-.3-.4-.4A8.98,8.98,0,0,0,78.3,31.6" style="fill:none;stroke:#000;stroke-linejoin:round;stroke-width:6px"/><path d="M64.5,117.7l-18,18a6.0977,6.0977,0,0,1-8.5,0L8.4,105.9a6.0977,6.0977,0,0,1,0-8.5L76.3,29.5l13,54.3a24.1534,24.1534,0,0,1-6.1,23.7l-3.3,3.3a24.1534,24.1534,0,0,1-23.7,6.1L8.4,101.7" style="fill:none;stroke:#000;stroke-linejoin:round;stroke-width:6px"/><path d="M69,60a3,3,0,0,0-2.1,5.1,2.9,2.9,0,0,0,4.2,0A3,3,0,0,0,69,60Z" style="fill:#000"/><path d="M69,78a3,3,0,0,0-2.1,5.1,2.9,2.9,0,0,0,4.2,0A3,3,0,0,0,69,78Z" style="fill:#000"/><path d="M51,96a3,3,0,0,0-2.1,5.1,2.9,2.9,0,0,0,4.2,0A3,3,0,0,0,51,96Z" style="fill:#000"/><path d="M51,78a3,3,0,0,0-2.1,5.1,2.9,2.9,0,0,0,4.2,0A3,3,0,0,0,51,78Z" style="fill:#000"/><rect width="144" height="144" style="fill:none"/></svg>