<svg xmlns="http://www.w3.org/2000/svg" viewBox="0 0 144 144.025"><path d="M69.1,119.7,54.2,134.6a12.0107,12.0107,0,0,1-17,0l-2.1-2.1A53.8172,53.8172,0,0,1,20.3,84" transform="translate(0 0.025)" style="fill:none;stroke:#000;stroke-linecap:round;stroke-linejoin:round;stroke-width:6px"/><path d="M105.3,18a15.0844,15.0844,0,0,0-4.4-10.6,14.9084,14.9084,0,0,0-21.2,0c-.1.1-.1.2-.2.2A14.9167,14.9167,0,0,0,56.3,19.3a14.9077,14.9077,0,0,0-16.9,3,15.0761,15.0761,0,0,0-3,16.9A14.9209,14.9209,0,0,0,24.9,62.7a16.38,16.38,0,0,0-2.6,2,14.9084,14.9084,0,0,0,0,21.2,12.6618,12.6618,0,0,0,3.3,2.4A15.1085,15.1085,0,0,0,28.7,105a14.5145,14.5145,0,0,0,11.1,4.3A14.6669,14.6669,0,0,0,43.5,124a14.9084,14.9084,0,0,0,21.2,0" transform="translate(0 0.025)" style="fill:none;stroke:#000;stroke-linecap:round;stroke-linejoin:round;stroke-width:6px"/><path d="M58.5,109.2a53.98,53.98,0,0,1,2.6-78.8c21.6-19,54.7-16.6,75.1,3.8l.8.8a12.0107,12.0107,0,0,1,0,17L69.1,119.9Z" transform="translate(0 0.025)" style="fill:none;stroke:#000;stroke-linecap:round;stroke-linejoin:round;stroke-width:6px"/><path d="M117,42a3,3,0,0,0-2.1,5.1,2.9,2.9,0,0,0,4.2,0A3,3,0,0,0,117,42Z" transform="translate(0 0.025)" style="fill:#000"/><path d="M93,42a3,3,0,0,0-2.1,5.1,2.9,2.9,0,0,0,4.2,0A3,3,0,0,0,93,42Z" transform="translate(0 0.025)" style="fill:#000"/><path d="M93,66a3,3,0,0,0-2.1,5.1,2.9,2.9,0,0,0,4.2,0A3,3,0,0,0,93,66Z" transform="translate(0 0.025)" style="fill:#000"/><path d="M105,54a3,3,0,0,0-2.1,5.1,2.9,2.9,0,0,0,4.2,0A3,3,0,0,0,105,54Z" transform="translate(0 0.025)" style="fill:#000"/><path d="M69,42a3,3,0,0,0-2.1,5.1,2.9,2.9,0,0,0,4.2,0A3,3,0,0,0,69,42Z" transform="translate(0 0.025)" style="fill:#000"/><path d="M69,66a3,3,0,0,0-2.1,5.1,2.9,2.9,0,0,0,4.2,0A3,3,0,0,0,69,66Z" transform="translate(0 0.025)" style="fill:#000"/><path d="M81,54a3,3,0,0,0-2.1,5.1,2.9,2.9,0,0,0,4.2,0A3,3,0,0,0,81,54Z" transform="translate(0 0.025)" style="fill:#000"/><path d="M69,90a3,3,0,0,0-2.1,5.1,2.9,2.9,0,0,0,4.2,0A3,3,0,0,0,69,90Z" transform="translate(0 0.025)" style="fill:#000"/><path d="M81,78a3,3,0,0,0-2.1,5.1,2.9,2.9,0,0,0,4.2,0A3,3,0,0,0,81,78Z" transform="translate(0 0.025)" style="fill:#000"/><rect y="0.025" width="144" height="144" style="fill:none"/></svg>