<svg xmlns="http://www.w3.org/2000/svg" viewBox="0 0 144 144"><rect x="21" y="93" width="102" height="48" style="fill:none;stroke:#000;stroke-linecap:round;stroke-linejoin:round;stroke-width:6px"/><path d="M51,114a9,9,0,0,0-18,0v27H51Z" style="fill:none;stroke:#000;stroke-linecap:round;stroke-linejoin:round;stroke-width:6px"/><path d="M81,114a9,9,0,0,0-18,0v27H81Z" style="fill:none;stroke:#000;stroke-linecap:round;stroke-linejoin:round;stroke-width:6px"/><path d="M111,114a9,9,0,0,0-18,0v27h18Z" style="fill:none;stroke:#000;stroke-linecap:round;stroke-linejoin:round;stroke-width:6px"/><rect x="123" y="75" width="18" height="66" style="fill:none;stroke:#000;stroke-linecap:round;stroke-linejoin:round;stroke-width:6px"/><path d="M141,66a9,9,0,0,1-18,0c0-5,9-15,9-15S141,61,141,66Z" style="fill:none;stroke:#000;stroke-linecap:round;stroke-linejoin:round;stroke-width:6px"/><rect x="3" y="75" width="18" height="66" style="fill:none;stroke:#000;stroke-linecap:round;stroke-linejoin:round;stroke-width:6px"/><path d="M21,66A9,9,0,0,1,3,66c0-5,9-15,9-15S21,61,21,66Z" style="fill:none;stroke:#000;stroke-linecap:round;stroke-linejoin:round;stroke-width:6px"/><path d="M105,69c0,14.9-12,24-33,24S39,83.9,39,69,72,36,72,36,105,54.1,105,69Z" style="fill:none;stroke:#000;stroke-linecap:round;stroke-linejoin:round;stroke-width:6px"/><path d="M86.1,18.5a12.02,12.02,0,0,1-22.3.7A12.19,12.19,0,0,1,70.1,3.3" style="fill:none;stroke:#000;stroke-linecap:round;stroke-linejoin:round;stroke-width:6px"/><line x1="72" y1="36" x2="72" y2="26" style="fill:none;stroke:#000;stroke-linecap:round;stroke-linejoin:round;stroke-width:6px"/><rect width="144" height="144" style="fill:none"/></svg>