<svg xmlns="http://www.w3.org/2000/svg" viewBox="0 0 144 144.0001"><path d="M9,117a23.9424,23.9424,0,0,0,23.8847,24c.0384,0,.0769,0,.1153,0h78a24,24,0,0,0,0-48H33A23.9423,23.9423,0,0,0,9,116.8847C9,116.9231,9,116.9616,9,117Z" style="fill:none;stroke:#000;stroke-linejoin:round;stroke-width:6px"/><circle cx="33" cy="117" r="12" style="fill:none;stroke:#000;stroke-linejoin:round;stroke-width:6px"/><circle cx="72" cy="117" r="12" style="fill:none;stroke:#000;stroke-linejoin:round;stroke-width:6px"/><circle cx="111" cy="117" r="12" style="fill:none;stroke:#000;stroke-linejoin:round;stroke-width:6px"/><polyline points="9 117 3 90 3 69 111 69 141 93 132.7 106.8" style="fill:none;stroke:#000;stroke-linejoin:round;stroke-width:6px"/><polyline points="87 69 99 51 87 33 39 33 18 28.3 15 46.3 33 54 36 69" style="fill:none;stroke:#000;stroke-linejoin:round;stroke-width:6px"/><polyline points="45 33 45 21 69 21 69 33" style="fill:none;stroke:#000;stroke-linejoin:round;stroke-width:6px"/><line x1="99" y1="51" x2="129" y2="51" style="fill:none;stroke:#000;stroke-linejoin:round;stroke-width:6px"/><polygon points="129 48 141 45 141 57 129 54 129 48" style="fill:none;stroke:#000;stroke-linejoin:round;stroke-width:6px"/><rect width="144" height="144" style="fill:none"/></svg>