<svg xmlns="http://www.w3.org/2000/svg" viewBox="0 0 144 144"><path d="M39,47.9A9,9,0,0,1,57,48V84l26.6,9c5.9,1.9,7.3,8.9,5.9,15l-6.1,33H35.5L11.4,105c-2.7-4.2-2.8-12,3.2-12S27,95.5,39,114Z" style="fill:none;stroke:#000;stroke-linejoin:round;stroke-width:6px"/><polyline points="39 75 3 75 3 21 75 21" style="fill:none;stroke:#000;stroke-linecap:round;stroke-linejoin:round;stroke-width:6px"/><rect x="87" y="27" width="54" height="42" style="fill:none;stroke:#000;stroke-linecap:round;stroke-linejoin:round;stroke-width:6px"/><line x1="114" y1="57" x2="114" y2="45" style="fill:none;stroke:#000;stroke-linecap:round;stroke-linejoin:round;stroke-width:6px"/><path d="M96,27V21a18,18,0,0,1,36,0v6" style="fill:none;stroke:#000;stroke-linecap:round;stroke-linejoin:round;stroke-width:6px"/><path d="M117,42a2.9465,2.9465,0,0,1-3,3h0a2.9465,2.9465,0,0,1-3-3h0a2.9465,2.9465,0,0,1,3-3h0a2.9465,2.9465,0,0,1,3,3Z" style="fill:none;stroke:#000;stroke-linejoin:round;stroke-width:6px"/><line x1="57" y1="75" x2="75" y2="75" style="fill:none;stroke:#000;stroke-linecap:round;stroke-linejoin:round;stroke-width:6px"/><rect width="144" height="144" style="fill:none"/></svg>