<svg xmlns="http://www.w3.org/2000/svg" viewBox="0 0 144 144"><path d="M107.8,52.9A57.3915,57.3915,0,1,1,90.2,35.7" style="fill:none;stroke:#000;stroke-linejoin:round;stroke-width:6px"/><path d="M63.1,48.1c-1-.1-2-.1-3.1-.1A36,36,0,1,0,96,84V81" style="fill:none;stroke:#000;stroke-linejoin:round;stroke-width:6px"/><path d="M75,81v3A15,15,0,1,1,60,69a19.4189,19.4189,0,0,1,2.4.2H63" style="fill:none;stroke:#000;stroke-linejoin:round;stroke-width:6px"/><polygon points="77.3 48.8 121.9 3.9 138.8 20.9 93.8 66 108.5 81 63 81 63 34 77.3 48.8" style="fill:none;stroke:#000;stroke-linejoin:round;stroke-width:6px"/><rect width="144" height="144" style="fill:none"/></svg>