<svg xmlns="http://www.w3.org/2000/svg" viewBox="0 0 144 144"><path d="M108,141s33-24,33-41.8c0-20.5-27-27-33-2.1-6-24.9-33-18.5-33,2.1C75,117,108,141,108,141Z" style="fill:none;stroke:#000;stroke-linejoin:round;stroke-width:6px"/><path d="M72,129H15A12.0353,12.0353,0,0,1,3,117V21H27" style="fill:none;stroke:#000;stroke-linecap:round;stroke-linejoin:round;stroke-width:6px"/><polyline points="63 117 15 117 15 33 27 33" style="fill:none;stroke:#000;stroke-linecap:round;stroke-linejoin:round;stroke-width:6px"/><polyline points="99 69 99 21 75 21" style="fill:none;stroke:#000;stroke-linecap:round;stroke-linejoin:round;stroke-width:6px"/><path d="M63,15c0-5-3-12-12-12S39,10,39,15H27V39H75V15Z" style="fill:none;stroke:#000;stroke-linecap:round;stroke-linejoin:round;stroke-width:6px"/><polyline points="75 33 87 33 87 66" style="fill:none;stroke:#000;stroke-linecap:round;stroke-linejoin:round;stroke-width:6px"/><line x1="33" y1="57" x2="63" y2="57" style="fill:none;stroke:#000;stroke-linecap:round;stroke-linejoin:round;stroke-width:6px"/><line x1="33" y1="69" x2="63" y2="69" style="fill:none;stroke:#000;stroke-linecap:round;stroke-linejoin:round;stroke-width:6px"/><line x1="33" y1="81" x2="63" y2="81" style="fill:none;stroke:#000;stroke-linecap:round;stroke-linejoin:round;stroke-width:6px"/><line x1="33" y1="93" x2="51" y2="93" style="fill:none;stroke:#000;stroke-linecap:round;stroke-linejoin:round;stroke-width:6px"/><rect width="144" height="144" style="fill:none"/></svg>