<svg xmlns="http://www.w3.org/2000/svg" viewBox="0 0 144.1 144"><path d="M3.1,27.2a66.3434,66.3434,0,0,1,26.6-6c38.1,0,69,39,69,39s-30.9,39-69,39a67.2967,67.2967,0,0,1-26.8-6" transform="translate(0.1)" style="fill:none;stroke:#000;stroke-linecap:round;stroke-linejoin:round;stroke-width:6px"/><circle cx="29.9" cy="60.2" r="24" style="fill:none;stroke:#000;stroke-linecap:round;stroke-linejoin:round;stroke-width:6px"/><path d="M29.8,48.2a12,12,0,1,1-12,12" transform="translate(0.1)" style="fill:none;stroke:#000;stroke-linecap:round;stroke-linejoin:round;stroke-width:6px"/><path d="M118.9,123.9a17.1,17.1,0,0,1-34.2,0c0-9.5,17.1-36.7,17.1-36.7S118.9,114.4,118.9,123.9Z" transform="translate(0.1)" style="fill:none;stroke:#000;stroke-linecap:round;stroke-linejoin:round;stroke-width:6px"/><rect x="0.1" width="144" height="144" style="fill:none"/></svg>