<svg xmlns="http://www.w3.org/2000/svg" viewBox="0 0 144 144"><circle cx="108" cy="123" r="18" style="fill:none;stroke:#000;stroke-linecap:round;stroke-linejoin:round;stroke-width:6px"/><circle cx="36" cy="123" r="18" style="fill:none;stroke:#000;stroke-linecap:round;stroke-linejoin:round;stroke-width:6px"/><circle cx="72" cy="36" r="33" style="fill:none;stroke:#000;stroke-linecap:round;stroke-linejoin:round;stroke-width:6px"/><circle cx="72" cy="49.5" r="19.5" style="fill:none;stroke:#000;stroke-linecap:round;stroke-linejoin:round;stroke-width:6px"/><path d="M96.8,13.7A11.9987,11.9987,0,1,1,108,30a16.4753,16.4753,0,0,1-3.2-.4" style="fill:none;stroke:#000;stroke-linecap:round;stroke-linejoin:round;stroke-width:6px"/><path d="M39.2,29.6A11.2355,11.2355,0,0,1,36,30,12,12,0,1,1,47.4,14.1" style="fill:none;stroke:#000;stroke-linecap:round;stroke-linejoin:round;stroke-width:6px"/><circle cx="72" cy="42" r="3" style="fill:none;stroke:#000;stroke-linecap:round;stroke-linejoin:round;stroke-width:6px"/><path d="M53.5,96C57,89.4,62.7,84,72,84s15,5.4,18.5,12" style="fill:none;stroke:#000;stroke-linecap:round;stroke-linejoin:round;stroke-width:6px"/><path d="M90.8,128.6A31.1392,31.1392,0,0,1,72,135a31.47,31.47,0,0,1-18.4-6.1" style="fill:none;stroke:#000;stroke-linecap:round;stroke-linejoin:round;stroke-width:6px"/><path d="M57,18a3,3,0,1,0,3,3,2.9465,2.9465,0,0,0-3-3Z" style="fill:#000"/><path d="M87,18a3,3,0,1,0,3,3,2.9465,2.9465,0,0,0-3-3Z" style="fill:#000"/><path d="M58.5,66.1A38.2077,38.2077,0,0,0,51,72L24.3,57.6A11.9887,11.9887,0,0,0,11.7,78L39.3,94.4a41.9538,41.9538,0,0,0,.1,10.6" style="fill:none;stroke:#000;stroke-linecap:round;stroke-linejoin:round;stroke-width:6px"/><path d="M85.4,66.1A38.8032,38.8032,0,0,1,93,72l26.7-14.4A11.9887,11.9887,0,0,1,132.3,78L104.7,94.4a37.7741,37.7741,0,0,1-.1,10.6" style="fill:none;stroke:#000;stroke-linecap:round;stroke-linejoin:round;stroke-width:6px"/><rect width="144" height="144" style="fill:none"/></svg>