<svg xmlns="http://www.w3.org/2000/svg" viewBox="0 0 144 144"><polyline points="108.1 139.2 71.7 66.4 71.7 66.4" style="fill:none;stroke:#000;stroke-linecap:round;stroke-linejoin:round;stroke-width:6px"/><line x1="71.7" y1="66.4" x2="36" y2="139.2" style="fill:none;stroke:#000;stroke-linecap:round;stroke-linejoin:round;stroke-width:6px"/><line x1="71.7" y1="66.4" x2="71.7" y2="138.5" style="fill:none;stroke:#000;stroke-linecap:round;stroke-linejoin:round;stroke-width:6px"/><line x1="71.7" y1="66.4" x2="71.7" y2="66.4" style="fill:none;stroke:#000;stroke-linecap:round;stroke-linejoin:round;stroke-width:6px"/><polyline points="58.9 21.1 132.8 53.5 130.9 58.4 122.9 78.7" style="fill:none;stroke:#000;stroke-linecap:round;stroke-linejoin:round;stroke-width:6px"/><path d="M58.2,20.8" style="fill:none;stroke:#000;stroke-linecap:round;stroke-linejoin:round;stroke-width:6px"/><polyline points="44 57.2 121.7 82.4 122.9 78.7" style="fill:none;stroke:#000;stroke-linecap:round;stroke-linejoin:round;stroke-width:6px"/><path d="M61.3,14.6,43.4,5.4C28.6-.8,12,5.4,5.8,20.2l-.6,1.2C-4.7,52.2,22.5,59.6,22.5,59.6L41,64.5Z" style="fill:none;stroke:#000;stroke-linecap:round;stroke-linejoin:round;stroke-width:6px"/><path d="M130.9,58.4c14.2,4.3,9.2,15.4,9.2,15.4s-3.1,10.5-16.6,4.9" style="fill:none;stroke:#000;stroke-linecap:round;stroke-linejoin:round;stroke-width:6px"/><path d="M122.9,78.7h0" style="fill:none;stroke:#000;stroke-linecap:round;stroke-linejoin:round;stroke-width:6px"/><rect width="144" height="144" style="fill:none"/></svg>