<svg xmlns="http://www.w3.org/2000/svg" viewBox="0 0 144 144"><path d="M99,36c-24,0-24-9-27-12-3,3-3,12-27,12" style="fill:none;stroke:#000;stroke-linecap:round;stroke-linejoin:round;stroke-width:6px"/><path d="M108,45l3-12S114,3,72,3,33,33,33,33l3,18c-6,3-3,18,6,18,0,18,21,30,30,30,3.7,0,10.1-2.1,15.8-6.1" style="fill:none;stroke:#000;stroke-linecap:round;stroke-linejoin:round;stroke-width:6px"/><path d="M56.4,92.9,18.6,103.6A23.7784,23.7784,0,0,0,3,126v15H141V126a24.0067,24.0067,0,0,0-15.6-22.5L87.8,92.9" style="fill:none;stroke:#000;stroke-linecap:round;stroke-linejoin:round;stroke-width:6px"/><path d="M117,63v6c-1.1,5.6-6.3,12-12,12H81" style="fill:none;stroke:#000;stroke-linecap:round;stroke-linejoin:round;stroke-width:6px"/><path d="M123,54a8.9626,8.9626,0,0,1-9,9h-6V45h6A8.9626,8.9626,0,0,1,123,54Z" style="fill:none;stroke:#000;stroke-linecap:round;stroke-linejoin:round;stroke-width:6px"/><line x1="81" y1="81" x2="69" y2="81" style="fill:none;stroke:#000;stroke-linecap:round;stroke-linejoin:round;stroke-width:12px"/><path d="M54,54c0-3.3,2.7-3,6-3s6-.3,6,3" style="fill:none;stroke:#000;stroke-linecap:round;stroke-linejoin:round;stroke-width:6px"/><path d="M78,54c0-3.3,2.7-3,6-3s6-.3,6,3" style="fill:none;stroke:#000;stroke-linecap:round;stroke-linejoin:round;stroke-width:6px"/><rect width="144" height="144" style="fill:none"/></svg>