<svg xmlns="http://www.w3.org/2000/svg" viewBox="0 0 144 144"><path d="M15,111c0,6,6,12,33,12H66c27,0,33-6,33-12V63c0-6-6-12-33-12H48c-27,0-33,6-33,12Z" style="fill:none;stroke:#000;stroke-linejoin:round;stroke-width:6px"/><path d="M96,39V36a26.7,26.7,0,0,0-48,0v3" style="fill:none;stroke:#000;stroke-linecap:round;stroke-linejoin:round;stroke-width:6px"/><line x1="84.1" y1="23.9" x2="105" y2="3" style="fill:none;stroke:#000;stroke-linecap:round;stroke-linejoin:round;stroke-width:6px"/><line x1="59.9" y1="23.9" x2="39" y2="3" style="fill:none;stroke:#000;stroke-linecap:round;stroke-linejoin:round;stroke-width:6px"/><path d="M141,117.1a18.0529,18.0529,0,0,1-18,18H21a18.0529,18.0529,0,0,1-18-18V57A18.0529,18.0529,0,0,1,21,39H123a18.0529,18.0529,0,0,1,18,18Z" style="fill:none;stroke:#000;stroke-linejoin:round;stroke-width:6px"/><path d="M129,66a8.9626,8.9626,0,0,1-9,9h0a8.9626,8.9626,0,0,1-9-9h0a8.9626,8.9626,0,0,1,9-9h0a8.9626,8.9626,0,0,1,9,9Z" style="fill:none;stroke:#000;stroke-linejoin:round;stroke-width:6px"/><path d="M129,96a8.9626,8.9626,0,0,1-9,9h0a8.9626,8.9626,0,0,1-9-9h0a8.9626,8.9626,0,0,1,9-9h0a8.9626,8.9626,0,0,1,9,9Z" style="fill:none;stroke:#000;stroke-linejoin:round;stroke-width:6px"/><rect width="144" height="144" style="fill:none"/></svg>