<svg xmlns="http://www.w3.org/2000/svg" viewBox="0 0 144 144"><line x1="27" y1="3" x2="57" y2="33" style="fill:none;stroke:#000;stroke-linecap:round;stroke-linejoin:round;stroke-width:6px"/><line x1="93" y1="3" x2="63" y2="33" style="fill:none;stroke:#000;stroke-linecap:round;stroke-linejoin:round;stroke-width:6px"/><path d="M141,129a12.0353,12.0353,0,0,1-12,12H15A12.0353,12.0353,0,0,1,3,129V45A12.0353,12.0353,0,0,1,15,33H129a12.0353,12.0353,0,0,1,12,12Z" style="fill:none;stroke:#000;stroke-linejoin:round;stroke-width:6px"/><path d="M105,105a23.9424,23.9424,0,0,1-24,24H39a23.9424,23.9424,0,0,1-24-24V69A23.9424,23.9424,0,0,1,39,45H81a23.9424,23.9424,0,0,1,24,24Z" style="fill:none;stroke:#000;stroke-linecap:round;stroke-linejoin:round;stroke-width:6px"/><rect x="117" y="51" width="12" height="48" style="fill:none;stroke:#000;stroke-linejoin:round;stroke-width:6px"/><rect x="117" y="111" width="12" height="18" style="fill:none;stroke:#000;stroke-linejoin:round;stroke-width:6px"/><line x1="77" y1="70" x2="43" y2="104" style="fill:none;stroke:#000;stroke-linejoin:round;stroke-width:6px"/><circle cx="60" cy="87" r="24" style="fill:none;stroke:#000;stroke-linejoin:round;stroke-width:6px"/><rect width="144" height="144" style="fill:none"/></svg>