<svg xmlns="http://www.w3.org/2000/svg" viewBox="0 0 144 144"><circle cx="30" cy="129" r="12" style="fill:none;stroke:#000;stroke-linecap:round;stroke-linejoin:round;stroke-width:6px"/><circle cx="114" cy="129" r="12" style="fill:none;stroke:#000;stroke-linecap:round;stroke-linejoin:round;stroke-width:6px"/><line x1="42" y1="129.1" x2="102" y2="129.1" style="fill:none;stroke:#000;stroke-linecap:round;stroke-linejoin:round;stroke-width:6px"/><polyline points="45 75.1 36 75.1 27 93" style="fill:none;stroke:#000;stroke-linecap:round;stroke-linejoin:round;stroke-width:6px"/><polyline points="18 129.1 3 129.1 3 102 15 90 30 63.1 57 63.1 57 117" style="fill:none;stroke:#000;stroke-linecap:round;stroke-linejoin:round;stroke-width:6px"/><line x1="3" y1="117.1" x2="141" y2="117.1" style="fill:none;stroke:#000;stroke-linecap:round;stroke-linejoin:round;stroke-width:6px"/><rect x="57" y="51.1" width="84" height="66" style="fill:none;stroke:#000;stroke-linejoin:round;stroke-width:6px"/><path d="M119.3,32.4a20.5815,20.5815,0,0,1-29.2,0L119.3,3.2A20.5812,20.5812,0,0,1,119.3,32.4Z" style="fill:none;stroke:#000;stroke-linecap:round;stroke-linejoin:round;stroke-width:6px"/><polygon points="119.3 32.4 135 51.1 105.8 51.1 119.3 32.4" style="fill:none;stroke:#000;stroke-linecap:round;stroke-linejoin:round;stroke-width:6px"/><line x1="104.7" y1="17.9" x2="93.8" y2="7" style="fill:none;stroke:#000;stroke-linecap:round;stroke-linejoin:round;stroke-width:6px"/><polyline points="104.2 68.3 112.9 99 121.6 68.3" style="fill:none;stroke:#000;stroke-linecap:round;stroke-linejoin:round;stroke-width:6px"/><line x1="87" y1="99" x2="87" y2="69.1" style="fill:none;stroke:#000;stroke-linecap:round;stroke-linejoin:round;stroke-width:6px"/><line x1="78" y1="69.1" x2="96" y2="69.1" style="fill:none;stroke:#000;stroke-linecap:round;stroke-linejoin:round;stroke-width:6px"/><rect width="144" height="144" style="fill:none"/></svg>