<svg xmlns="http://www.w3.org/2000/svg" viewBox="0 0 144 144.025"><path d="M84.9,89.2a191.408,191.408,0,0,0-35.2,7.3A201.7582,201.7582,0,0,0,57,61.4" style="fill:none;stroke:#000;stroke-linejoin:round;stroke-width:6px"/><line x1="49.7" y1="96.5" x2="30.6" y2="115.6" style="fill:none;stroke:#000;stroke-linecap:round;stroke-linejoin:round;stroke-width:6px"/><ellipse cx="98.4925" cy="47.6733" rx="44.9996" ry="38.9996" transform="translate(-4.8623 83.6079) rotate(-45)" style="fill:none;stroke:#000;stroke-linejoin:round;stroke-width:5.999942240425611px"/><line x1="86.1" y1="9.9" x2="136.3" y2="60.1" style="fill:none;stroke:#000;stroke-linejoin:round;stroke-width:6px"/><line x1="70.9" y1="20.1" x2="126" y2="75.3" style="fill:none;stroke:#000;stroke-linejoin:round;stroke-width:6px"/><line x1="60.2" y1="34.9" x2="111.3" y2="86" style="fill:none;stroke:#000;stroke-linejoin:round;stroke-width:6px"/><line x1="114" y1="6.7" x2="57.6" y2="63.4" style="fill:none;stroke:#000;stroke-linejoin:round;stroke-width:6px"/><line x1="130.3" y1="15.9" x2="66.6" y2="79.5" style="fill:none;stroke:#000;stroke-linejoin:round;stroke-width:6px"/><line x1="139.1" y1="32.5" x2="83" y2="88.7" style="fill:none;stroke:#000;stroke-linejoin:round;stroke-width:6px"/><circle cx="26.2" cy="23.9" r="15" style="fill:none;stroke:#000;stroke-linejoin:round;stroke-width:6px"/><path d="M16.2,139.3a6.098,6.098,0,0,1-8.5,0,6.0977,6.0977,0,0,1,0-8.5l19.1-19.1,8.5,8.5Z" style="fill:none;stroke:#000;stroke-linecap:round;stroke-linejoin:round;stroke-width:6px"/><rect width="144" height="144" style="fill:none"/></svg>