<svg xmlns="http://www.w3.org/2000/svg" viewBox="0 0 144 144"><polygon points="99 117 99 93 75 93 75 117 51 117 51 141 123 141 123 117 99 117" style="fill:none;stroke:#000;stroke-linecap:round;stroke-linejoin:round;stroke-width:6px"/><polygon points="117 27 117 3 93 3 93 51 117 51 117 75 141 75 141 27 117 27" style="fill:none;stroke:#000;stroke-linecap:round;stroke-linejoin:round;stroke-width:6px"/><polygon points="27 45 27 21 3 21 3 69 75 69 75 45 27 45" style="fill:none;stroke:#000;stroke-linecap:round;stroke-linejoin:round;stroke-width:6px"/><polygon points="3 69 3 93 51 93 51 117 75 117 75 69 3 69" style="fill:none;stroke:#000;stroke-linecap:round;stroke-linejoin:round;stroke-width:6px"/><rect x="3" y="93" width="48" height="48" style="fill:none;stroke:#000;stroke-linecap:round;stroke-linejoin:round;stroke-width:6px"/><rect width="144" height="144" style="fill:none"/></svg>