<svg xmlns="http://www.w3.org/2000/svg" viewBox="0 0 144 144"><path d="M45,81V96l-26.4,7.5A24.0067,24.0067,0,0,0,3,126v15H141V126a24.0067,24.0067,0,0,0-15.6-22.5L99,96V81" style="fill:none;stroke:#000;stroke-linecap:round;stroke-linejoin:round;stroke-width:6px"/><path d="M72,99c9,0,30-12,30-30,9,0,12-15,6-18l3-18S114,3,72,3,33,33,33,33l3,18c-6,3-3,18,6,18C42,87,63,99,72,99Z" style="fill:none;stroke:#000;stroke-linecap:round;stroke-linejoin:round;stroke-width:6px"/><path d="M111,30c-36,0-30,6-39,6s-3-6-39-6" style="fill:none;stroke:#000;stroke-linejoin:round;stroke-width:6px"/><path d="M108,51c-15,12-28.6-3-36-3S51,63,36,51" style="fill:none;stroke:#000;stroke-linecap:round;stroke-linejoin:round;stroke-width:6px"/><line x1="51" y1="42" x2="57" y2="42" style="fill:none;stroke:#000;stroke-linecap:round;stroke-linejoin:round;stroke-width:6px"/><line x1="87" y1="42" x2="93" y2="42" style="fill:none;stroke:#000;stroke-linecap:round;stroke-linejoin:round;stroke-width:6px"/><path d="M60,78l2.5-2.5A12.2955,12.2955,0,0,1,71,72h2a12.2955,12.2955,0,0,1,8.5,3.5L84,78" style="fill:none;stroke:#000;stroke-linecap:round;stroke-linejoin:round;stroke-width:6px"/><path d="M51,15a3,3,0,1,0,3,3,2.9465,2.9465,0,0,0-3-3Z" style="fill:#000"/><path d="M93,15a3,3,0,1,0,3,3,2.9465,2.9465,0,0,0-3-3Z" style="fill:#000"/><path d="M63,12a3,3,0,1,0,3,3,2.9465,2.9465,0,0,0-3-3Z" style="fill:#000"/><path d="M81,12a3,3,0,1,0,3,3,2.9465,2.9465,0,0,0-3-3Z" style="fill:#000"/><path d="M72,18a3,3,0,1,0,3,3,2.9465,2.9465,0,0,0-3-3Z" style="fill:#000"/><path d="M99,93c0,11.6-10.4,21-27,21s-27-9.4-27-21" style="fill:none;stroke:#000;stroke-linecap:round;stroke-linejoin:round;stroke-width:6px"/><rect width="144" height="144" style="fill:none"/></svg>