<svg xmlns="http://www.w3.org/2000/svg" viewBox="0 0 144 144"><rect x="27" y="27" width="60" height="96" style="fill:none;stroke:#000;stroke-linejoin:round;stroke-width:6px"/><line x1="27" y1="39" x2="87" y2="39" style="fill:none;stroke:#000;stroke-linejoin:round;stroke-width:6px"/><line x1="27" y1="51" x2="87" y2="51" style="fill:none;stroke:#000;stroke-linejoin:round;stroke-width:6px"/><line x1="27" y1="63" x2="87" y2="63" style="fill:none;stroke:#000;stroke-linejoin:round;stroke-width:6px"/><line x1="27" y1="75" x2="87" y2="75" style="fill:none;stroke:#000;stroke-linejoin:round;stroke-width:6px"/><line x1="27" y1="87" x2="87" y2="87" style="fill:none;stroke:#000;stroke-linejoin:round;stroke-width:6px"/><line x1="27" y1="99" x2="87" y2="99" style="fill:none;stroke:#000;stroke-linejoin:round;stroke-width:6px"/><line x1="27" y1="111" x2="87" y2="111" style="fill:none;stroke:#000;stroke-linejoin:round;stroke-width:6px"/><path d="M9,18a8.9626,8.9626,0,0,0,9,9H96A9,9,0,0,0,96,9H18A8.9626,8.9626,0,0,0,9,18Z" style="fill:none;stroke:#000;stroke-linejoin:round;stroke-width:6px"/><path d="M9,132a8.9626,8.9626,0,0,0,9,9H96a9,9,0,0,0,0-18H18A8.9626,8.9626,0,0,0,9,132Z" style="fill:none;stroke:#000;stroke-linejoin:round;stroke-width:6px"/><path d="M87,117h36a12.0353,12.0353,0,0,0,12-12V99a12.0353,12.0353,0,0,0-12-12h-6a12,12,0,0,1,0-24h6a12.0353,12.0353,0,0,0,12-12V36" style="fill:none;stroke:#000;stroke-linecap:round;stroke-linejoin:round;stroke-width:6px"/><rect width="144" height="144" style="fill:none"/></svg>