<svg xmlns="http://www.w3.org/2000/svg" viewBox="0 0 144 144"><path d="M24,45.3h0a9,9,0,0,1,0-18h6a9,9,0,0,1,0-18H69c17.1,0,21,7.1,42,10.1v51c-15,0-39,27-39,51,0,9.5-13.1,12.5-18-4.9-3-10.7,6-35.2,6-35.2H12a9,9,0,0,1,0-18h6a9,9,0,0,1,0-18h6" style="fill:none;stroke:#000;stroke-linecap:round;stroke-linejoin:round;stroke-width:6px"/><rect x="111" y="9" width="30" height="72" style="fill:none;stroke:#000;stroke-linecap:round;stroke-linejoin:round;stroke-width:6px"/><path d="M123,18a3,3,0,0,0,0,6,3,3,0,0,0,0-6Z" style="fill:#000"/><rect width="144" height="144" style="fill:none"/></svg>