<svg xmlns="http://www.w3.org/2000/svg" viewBox="0 0 144 144"><path d="M120,90h0a9,9,0,0,1,0,18h-6a8.9626,8.9626,0,0,1,9,9c0,5-4,6-9,6H75c-17.1,0-21-3-42-6V66c14.7,0,39-27,39-51,0-9.5,13.1-13,18,4.3C93,30,84,51,84,51h48a8.9626,8.9626,0,0,1,9,9c0,5-4,12-9,12h-6a9,9,0,0,1,0,18h-6" style="fill:none;stroke:#000;stroke-linecap:round;stroke-linejoin:round;stroke-width:6px"/><rect x="3" y="57" width="30" height="72" style="fill:none;stroke:#000;stroke-linecap:round;stroke-linejoin:round;stroke-width:6px"/><path d="M21,114a3,3,0,1,0,3,3,2.9465,2.9465,0,0,0-3-3Z" style="fill:#000"/><rect width="144" height="144" style="fill:none"/></svg>