<svg xmlns="http://www.w3.org/2000/svg" viewBox="0 0 144 144"><path d="M72,114c33.4,0,30.3-54.7,9-69H63c-21.3,14.3-24.4,69,9,69" style="fill:none;stroke:#000;stroke-linecap:round;stroke-linejoin:round;stroke-width:6px"/><path d="M63,45c3.4-10.3,3.3-15,9-15s5.6,4.7,9,15" style="fill:none;stroke:#000;stroke-linecap:round;stroke-linejoin:round;stroke-width:6px"/><path d="M89.7,54.5,95.5,46A29.5248,29.5248,0,0,0,90,12" style="fill:none;stroke:#000;stroke-linecap:round;stroke-linejoin:round;stroke-width:6px"/><path d="M94.6,65.5c16-6,21.8-7,28.4-23.5" style="fill:none;stroke:#000;stroke-linecap:round;stroke-linejoin:round;stroke-width:6px"/><path d="M96.6,75.1c12,2,20,8.9,23.8,18L123,99" style="fill:none;stroke:#000;stroke-linecap:round;stroke-linejoin:round;stroke-width:6px"/><path d="M96.7,88.3l8.3,14.5a29.0619,29.0619,0,0,1,3.7,11.2l2.3,18" style="fill:none;stroke:#000;stroke-linecap:round;stroke-linejoin:round;stroke-width:6px"/><path d="M54.3,54.5,48.5,46A29.34,29.34,0,0,1,54,12" style="fill:none;stroke:#000;stroke-linecap:round;stroke-linejoin:round;stroke-width:6px"/><path d="M49.4,65.5c-16-6-21.8-7-28.4-23.5" style="fill:none;stroke:#000;stroke-linecap:round;stroke-linejoin:round;stroke-width:6px"/><path d="M47.4,75.1c-12,2-20,8.9-23.9,18L21,99" style="fill:none;stroke:#000;stroke-linecap:round;stroke-linejoin:round;stroke-width:6px"/><path d="M47.3,88.3,39,102.8A29.0619,29.0619,0,0,0,35.3,114L33,132" style="fill:none;stroke:#000;stroke-linecap:round;stroke-linejoin:round;stroke-width:6px"/><rect width="144" height="144" style="fill:none"/></svg>