<svg xmlns="http://www.w3.org/2000/svg" viewBox="0 0 144 144"><path d="M84,3A12,12,0,0,1,60,3H39A12.0353,12.0353,0,0,0,27,15V129a12.0353,12.0353,0,0,0,12,12H60a12,12,0,0,1,24,0h21a12.0353,12.0353,0,0,0,12-12V15A12.0353,12.0353,0,0,0,105,3Z" style="fill:none;stroke:#000;stroke-linecap:round;stroke-linejoin:round;stroke-width:6px"/><rect x="39" y="27" width="66" height="90" style="fill:none;stroke:#000;stroke-linecap:round;stroke-linejoin:round;stroke-width:6px"/><line x1="39" y1="45" x2="105" y2="45" style="fill:none;stroke:#000;stroke-linecap:round;stroke-linejoin:round;stroke-width:6px"/><line x1="39" y1="99" x2="105" y2="99" style="fill:none;stroke:#000;stroke-linecap:round;stroke-linejoin:round;stroke-width:6px"/><line x1="57" y1="57" x2="57" y2="87" style="fill:none;stroke:#000;stroke-linecap:round;stroke-linejoin:round;stroke-width:6px"/><rect width="144" height="144" style="fill:none"/></svg>