<svg xmlns="http://www.w3.org/2000/svg" viewBox="0 0 144 144"><path d="M141,51V33a12.0353,12.0353,0,0,0-12-12H15A12.0353,12.0353,0,0,0,3,33V51H6A21,21,0,0,1,6,93H3v18a12.0353,12.0353,0,0,0,12,12H129a12.0353,12.0353,0,0,0,12-12V93h-3a21,21,0,0,1,0-42Z" style="fill:none;stroke:#000;stroke-linejoin:round;stroke-width:6px"/><polygon points="72 48 78.3 63 93 63 80.4 73.2 86.7 90 72 79.5 57.3 90 63.6 73.2 51 63 65.7 63 72 48" style="fill:none;stroke:#000;stroke-linejoin:round;stroke-width:6px"/><line x1="12" y1="39" x2="18" y2="39" style="fill:none;stroke:#000;stroke-linejoin:round;stroke-width:6px"/><line x1="24" y1="39" x2="30" y2="39" style="fill:none;stroke:#000;stroke-linejoin:round;stroke-width:6px"/><line x1="36" y1="39" x2="42" y2="39" style="fill:none;stroke:#000;stroke-linejoin:round;stroke-width:6px"/><line x1="48" y1="39" x2="54" y2="39" style="fill:none;stroke:#000;stroke-linejoin:round;stroke-width:6px"/><line x1="60" y1="39" x2="66" y2="39" style="fill:none;stroke:#000;stroke-linejoin:round;stroke-width:6px"/><line x1="72" y1="39" x2="78" y2="39" style="fill:none;stroke:#000;stroke-linejoin:round;stroke-width:6px"/><line x1="84" y1="39" x2="90" y2="39" style="fill:none;stroke:#000;stroke-linejoin:round;stroke-width:6px"/><line x1="96" y1="39" x2="102" y2="39" style="fill:none;stroke:#000;stroke-linejoin:round;stroke-width:6px"/><line x1="108" y1="39" x2="114" y2="39" style="fill:none;stroke:#000;stroke-linejoin:round;stroke-width:6px"/><line x1="120" y1="39" x2="126" y2="39" style="fill:none;stroke:#000;stroke-linejoin:round;stroke-width:6px"/><line x1="18" y1="105" x2="24" y2="105" style="fill:none;stroke:#000;stroke-linejoin:round;stroke-width:6px"/><line x1="30" y1="105" x2="36" y2="105" style="fill:none;stroke:#000;stroke-linejoin:round;stroke-width:6px"/><line x1="42" y1="105" x2="48" y2="105" style="fill:none;stroke:#000;stroke-linejoin:round;stroke-width:6px"/><line x1="54" y1="105" x2="60" y2="105" style="fill:none;stroke:#000;stroke-linejoin:round;stroke-width:6px"/><line x1="66" y1="105" x2="72" y2="105" style="fill:none;stroke:#000;stroke-linejoin:round;stroke-width:6px"/><line x1="78" y1="105" x2="84" y2="105" style="fill:none;stroke:#000;stroke-linejoin:round;stroke-width:6px"/><line x1="90" y1="105" x2="96" y2="105" style="fill:none;stroke:#000;stroke-linejoin:round;stroke-width:6px"/><line x1="102" y1="105" x2="108" y2="105" style="fill:none;stroke:#000;stroke-linejoin:round;stroke-width:6px"/><line x1="114" y1="105" x2="120" y2="105" style="fill:none;stroke:#000;stroke-linejoin:round;stroke-width:6px"/><line x1="126" y1="105" x2="132" y2="105" style="fill:none;stroke:#000;stroke-linejoin:round;stroke-width:6px"/><rect width="144" height="144" style="fill:none"/></svg>