<svg xmlns="http://www.w3.org/2000/svg" viewBox="0 0 144 144"><path d="M141,90a18,18,0,0,1,0-36V27H3V54A18,18,0,0,1,3,90v27H141Z" style="fill:none;stroke:#000;stroke-linecap:round;stroke-linejoin:round;stroke-width:6px"/><polygon points="114 36 108 36 108 42 114 42 114 36" style="fill:#000"/><polygon points="114 48 108 48 108 54 114 54 114 48" style="fill:#000"/><polygon points="114 60 108 60 108 66 114 66 114 60" style="fill:#000"/><polygon points="114 72 108 72 108 78 114 78 114 72" style="fill:#000"/><polygon points="114 84 108 84 108 90 114 90 114 84" style="fill:#000"/><polygon points="114 96 108 96 108 102 114 102 114 96" style="fill:#000"/><polygon points="114 108 108 108 108 114 114 114 114 108" style="fill:#000"/><rect x="39" y="45" width="54" height="54" style="fill:none;stroke:#000;stroke-linecap:round;stroke-linejoin:round;stroke-width:6px"/><line x1="57" y1="63" x2="75" y2="63" style="fill:none;stroke:#000;stroke-linecap:round;stroke-linejoin:round;stroke-width:6px"/><line x1="57" y1="81" x2="75" y2="81" style="fill:none;stroke:#000;stroke-linecap:round;stroke-linejoin:round;stroke-width:6px"/><rect width="144" height="144" style="fill:none"/></svg>