<svg xmlns="http://www.w3.org/2000/svg" viewBox="0 0 144 144"><path d="M66.6,141l72.1-72.1a18.107,18.107,0,0,1,0-25.5L100.6,5.2a18.107,18.107,0,0,1-25.5,0L3,77.4a18.107,18.107,0,0,1,0,25.5L41.2,141A17.986,17.986,0,0,1,66.6,141Z" style="fill:none;stroke:#000;stroke-linecap:round;stroke-linejoin:round;stroke-width:6px"/><path d="M66.6,115.5a12.0107,12.0107,0,0,1-17,0L28.5,94.3a12.0107,12.0107,0,0,1,0-17L75.2,30.6a12.0107,12.0107,0,0,1,17,0l21.2,21.2a12.0107,12.0107,0,0,1,0,17Z" style="fill:none;stroke:#000;stroke-linecap:round;stroke-linejoin:round;stroke-width:6px"/><line x1="83.6" y1="47.7" x2="45.4" y2="85.8" style="fill:none;stroke:#000;stroke-linecap:round;stroke-linejoin:round;stroke-width:6px"/><line x1="85.7" y1="71" x2="68.8" y2="88" style="fill:none;stroke:#000;stroke-linecap:round;stroke-linejoin:round;stroke-width:6px"/><rect width="144" height="144" style="fill:none"/></svg>