<svg xmlns="http://www.w3.org/2000/svg" viewBox="0 0 144 144"><path d="M39,81A18,18,0,0,0,3,81v60H39Z" style="fill:none;stroke:#000;stroke-linejoin:round;stroke-width:6px"/><path d="M141,81a18,18,0,0,0-36,0v60h36Z" style="fill:none;stroke:#000;stroke-linejoin:round;stroke-width:6px"/><path d="M39,87H69v3a39.1325,39.1325,0,0,1-30,38" style="fill:none;stroke:#000;stroke-linejoin:round;stroke-width:6px"/><path d="M105,87H75v3a39.1325,39.1325,0,0,0,30,38" style="fill:none;stroke:#000;stroke-linejoin:round;stroke-width:6px"/><line x1="12" y1="81" x2="30" y2="81" style="fill:none;stroke:#000;stroke-linejoin:round;stroke-width:6px"/><line x1="114" y1="81" x2="132" y2="81" style="fill:none;stroke:#000;stroke-linejoin:round;stroke-width:6px"/><path d="M117,45a6.0176,6.0176,0,0,1-6,6H33a6.0176,6.0176,0,0,1-6-6V9a6.0176,6.0176,0,0,1,6-6h78a6.0176,6.0176,0,0,1,6,6Z" style="fill:none;stroke:#000;stroke-linecap:round;stroke-linejoin:round;stroke-width:6px"/><circle cx="72" cy="27" r="12" style="fill:none;stroke:#000;stroke-linecap:round;stroke-linejoin:round;stroke-width:6px"/><line x1="96" y1="15" x2="108" y2="15" style="fill:none;stroke:#000;stroke-linejoin:round;stroke-width:6px"/><line x1="36" y1="39" x2="48" y2="39" style="fill:none;stroke:#000;stroke-linejoin:round;stroke-width:6px"/><rect width="144" height="144" style="fill:none"/></svg>