<svg xmlns="http://www.w3.org/2000/svg" viewBox="0 0 144 144"><polyline points="57 75 57 51 81 51 81 75" style="fill:none;stroke:#000;stroke-linejoin:round;stroke-width:6px"/><polyline points="57 123 57 141 81 141 81 123" style="fill:none;stroke:#000;stroke-linejoin:round;stroke-width:6px"/><polyline points="69 84 69 99 80.9 99" style="fill:none;stroke:#000;stroke-linecap:round;stroke-linejoin:round;stroke-width:6px"/><path d="M66,99Z" style="fill:none;stroke:#000;stroke-linejoin:round;stroke-width:6px"/><circle cx="69" cy="99" r="27" style="fill:none;stroke:#000;stroke-linejoin:round;stroke-width:6px"/><line x1="69" y1="30" x2="69" y2="51" style="fill:none;stroke:#000;stroke-linecap:round;stroke-linejoin:round;stroke-width:6px"/><line x1="69" y1="3" x2="69" y2="14.9" style="fill:none;stroke:#000;stroke-linecap:round;stroke-linejoin:round;stroke-width:6px"/><line x1="89.2" y1="12.1" x2="80.3" y2="20" style="fill:none;stroke:#000;stroke-linecap:round;stroke-linejoin:round;stroke-width:6px"/><line x1="95.8" y1="33.3" x2="84" y2="31.9" style="fill:none;stroke:#000;stroke-linecap:round;stroke-linejoin:round;stroke-width:6px"/><line x1="48.3" y1="12.1" x2="57.2" y2="20" style="fill:none;stroke:#000;stroke-linecap:round;stroke-linejoin:round;stroke-width:6px"/><line x1="41.7" y1="33.3" x2="53.5" y2="31.9" style="fill:none;stroke:#000;stroke-linecap:round;stroke-linejoin:round;stroke-width:6px"/><polyline points="42.7 93 27 93 27 105 42.7 105" style="fill:none;stroke:#000;stroke-linecap:round;stroke-linejoin:round;stroke-width:6px"/><polyline points="33 93 33 51 57 51 57 75" style="fill:none;stroke:#000;stroke-linejoin:round;stroke-width:6px"/><polyline points="57 123 57 141 33 141 33 105" style="fill:none;stroke:#000;stroke-linejoin:round;stroke-width:6px"/><polyline points="95.3 93 111 93 111 105 95.3 105" style="fill:none;stroke:#000;stroke-linecap:round;stroke-linejoin:round;stroke-width:6px"/><polyline points="105 93 105 51 81 51 81 75" style="fill:none;stroke:#000;stroke-linejoin:round;stroke-width:6px"/><polyline points="81 123 81 141 105 141 105 105" style="fill:none;stroke:#000;stroke-linejoin:round;stroke-width:6px"/><rect width="144" height="144" style="fill:none"/></svg>