<svg xmlns="http://www.w3.org/2000/svg" viewBox="0 0 144 144"><polyline points="6 54 24 81 45 57" style="fill:none;stroke:#000;stroke-linecap:round;stroke-linejoin:round;stroke-width:6px"/><path d="M24,81C19.5,44.5,47.4,16.2,78.9,15a57.0387,57.0387,0,0,1,4.2,114" style="fill:none;stroke:#000;stroke-linecap:round;stroke-linejoin:round;stroke-width:6px"/><path d="M69.7,54.9c.2-4.5,2.3-11.7,11.7-11.7,9.9,0,11.6,8,11.6,12.5,0,4.4-1.7,12.5-11.6,12.5" style="fill:none;stroke:#000;stroke-linecap:round;stroke-linejoin:round;stroke-width:6px"/><path d="M69.7,81.4C69.9,85.9,72,93,81.3,93,91.3,93,93,85,93,80.6S91.3,68.2,81.4,68.2" style="fill:none;stroke:#000;stroke-linecap:round;stroke-linejoin:round;stroke-width:6px"/><rect width="144" height="144" style="fill:none"/></svg>