<svg xmlns="http://www.w3.org/2000/svg" viewBox="0 0 144 144"><path d="M122.2,21H20.2V15a12.0353,12.0353,0,0,1,12-12h78a12.0353,12.0353,0,0,1,12,12Z" style="fill:none;stroke:#000;stroke-linejoin:round;stroke-width:6px"/><path d="M116.2,81h-90V75a12.0353,12.0353,0,0,1,12-12h66a12.0353,12.0353,0,0,1,12,12Z" style="fill:none;stroke:#000;stroke-linejoin:round;stroke-width:6px"/><line x1="29.2" y1="21" x2="32.2" y2="63" style="fill:none;stroke:#000;stroke-linejoin:round;stroke-width:6px"/><line x1="113.2" y1="21" x2="110.2" y2="63" style="fill:none;stroke:#000;stroke-linejoin:round;stroke-width:6px"/><path d="M113.2,81h-84a30.02,30.02,0,0,0,23.6,29.3L47.2,141h48l-5.6-30.7A30.02,30.02,0,0,0,113.2,81Z" style="fill:none;stroke:#000;stroke-linejoin:round;stroke-width:6px"/><rect width="144" height="144" style="fill:none"/></svg>