<svg xmlns="http://www.w3.org/2000/svg" viewBox="0 0 144.8 144"><path d="M26.2,117V39c0-19.9,9.4-36,21-36h72" transform="translate(0.8)" style="fill:none;stroke:#000;stroke-linejoin:round;stroke-width:6px"/><path d="M98.2,39c0,19.9,9.4,36,21,36s21-16.1,21-36-9.4-36-21-36-21,16.1-21,36v81a20.9974,20.9974,0,0,1-21,21c-11.6,0-21-9.4-21-24l-12,6-15-6-15,6-12-6c0,14.6,9.4,24,21,24h54" transform="translate(0.8)" style="fill:none;stroke:#000;stroke-linejoin:round;stroke-width:6px"/><ellipse cx="120" cy="39" rx="6" ry="12" style="fill:none;stroke:#000;stroke-linejoin:round;stroke-width:6px"/><line x1="120" y1="75" x2="99" y2="75" style="fill:none;stroke:#000;stroke-linejoin:round;stroke-width:6px"/><line x1="27" y1="87" x2="36" y2="87" style="fill:none;stroke:#000;stroke-linecap:round;stroke-linejoin:round;stroke-width:6px"/><line x1="45" y1="87" x2="57" y2="87" style="fill:none;stroke:#000;stroke-linecap:round;stroke-linejoin:round;stroke-width:6px"/><line x1="66" y1="87" x2="78" y2="87" style="fill:none;stroke:#000;stroke-linecap:round;stroke-linejoin:round;stroke-width:6px"/><line x1="87" y1="87" x2="99" y2="87" style="fill:none;stroke:#000;stroke-linecap:round;stroke-linejoin:round;stroke-width:6px"/><line x1="27" y1="39" x2="36" y2="39" style="fill:none;stroke:#000;stroke-linecap:round;stroke-linejoin:round;stroke-width:6px"/><line x1="45" y1="39" x2="57" y2="39" style="fill:none;stroke:#000;stroke-linecap:round;stroke-linejoin:round;stroke-width:6px"/><line x1="66" y1="39" x2="78" y2="39" style="fill:none;stroke:#000;stroke-linecap:round;stroke-linejoin:round;stroke-width:6px"/><line x1="87" y1="39" x2="99" y2="39" style="fill:none;stroke:#000;stroke-linecap:round;stroke-linejoin:round;stroke-width:6px"/><rect x="0.8" width="144" height="144" style="fill:none"/></svg>