<svg xmlns="http://www.w3.org/2000/svg" viewBox="0 0 144 144.0246"><path d="M123,111.3V33C123-6.7,21-6.7,21,33v78.3" style="fill:none;stroke:#000;stroke-linejoin:round;stroke-width:6px"/><path d="M116.7,111.4A20.8992,20.8992,0,0,0,91.2,93.6a20.9286,20.9286,0,0,0-38.4,0,20.8992,20.8992,0,0,0-25.5,17.8A14.9568,14.9568,0,0,0,9,126c0,16.2,18,15,18,15h90s18,1.3,18-15A14.9568,14.9568,0,0,0,116.7,111.4Z" style="fill:none;stroke:#000;stroke-linejoin:round;stroke-width:6px"/><line x1="69" y1="63.1" x2="69" y2="39.1" style="fill:none;stroke:#000;stroke-linecap:round;stroke-linejoin:round;stroke-width:6px"/><path d="M87,63.1v-24h5.9c4.9,0,6.1,2.7,6.1,6s-1.3,6-6.1,6H87.2" style="fill:none;stroke:#000;stroke-linecap:round;stroke-linejoin:round;stroke-width:6px"/><path d="M45,63.1v-24h6.1c4.9,0,5.7,2.7,5.7,6s-.9,6-5.7,6H45.4" style="fill:none;stroke:#000;stroke-linecap:round;stroke-linejoin:round;stroke-width:6px"/><line x1="51.1" y1="51.1" x2="56.9" y2="63.1" style="fill:none;stroke:#000;stroke-linecap:round;stroke-linejoin:round;stroke-width:6px"/><rect width="144" height="144" style="fill:none"/></svg>