<svg xmlns="http://www.w3.org/2000/svg" viewBox="0 0 144 144"><path d="M141,48a27.015,27.015,0,0,1-27,27H62.7A11.6514,11.6514,0,0,1,51,63.3V30a8.9626,8.9626,0,0,1,9-9h54A27.015,27.015,0,0,1,141,48Z" style="fill:none;stroke:#000;stroke-linecap:round;stroke-linejoin:round;stroke-width:6px"/><rect x="33" y="33" width="18" height="30" style="fill:none;stroke:#000;stroke-linecap:round;stroke-linejoin:round;stroke-width:6px"/><line x1="3" y1="51" x2="33" y2="51" style="fill:none;stroke:#000;stroke-linecap:round;stroke-linejoin:round;stroke-width:6px"/><polyline points="81 75 81 87 95.5 87" style="fill:none;stroke:#000;stroke-linejoin:round;stroke-width:6px"/><line x1="81" y1="21" x2="81" y2="75" style="fill:none;stroke:#000;stroke-linecap:round;stroke-linejoin:round;stroke-width:6px"/><line x1="87" y1="129" x2="105" y2="129" style="fill:none;stroke:#000;stroke-linecap:round;stroke-linejoin:round;stroke-width:6px"/><polygon points="123 129 105 129 93 75 111 75 123 129" style="fill:none;stroke:#000;stroke-linecap:round;stroke-linejoin:round;stroke-width:6px"/><rect width="144" height="144" style="fill:none"/></svg>