<svg xmlns="http://www.w3.org/2000/svg" viewBox="0 0 144.2014 144"><path d="M21.4,135.4A8.98,8.98,0,1,1,8.7,122.7L48.1,83.3,60.8,96Z" transform="translate(0.2014)" style="fill:none;stroke:#000;stroke-linejoin:round;stroke-width:6px"/><line x1="41.9014" y1="76.8" x2="67.3014" y2="102.3" style="fill:none;stroke:#000;stroke-linecap:round;stroke-linejoin:round;stroke-width:6px"/><line x1="118.7014" y1="25.5" x2="54.6014" y2="89.6" style="fill:none;stroke:#000;stroke-linejoin:round;stroke-width:6px"/><polygon points="125.801 32.6 111.001 17.8 132.201 3 141.201 12 125.801 32.6" style="fill:none;stroke:#000;stroke-linejoin:round;stroke-width:6px"/><path d="M71.3,58.9,48.9,36.4a23.9755,23.9755,0,0,0-5.1-26.3A23.5832,23.5832,0,0,0,17.9,4.9L30,17.6V30H17.1L4.7,18.1A23.6563,23.6563,0,0,0,9.8,44.2a23.942,23.942,0,0,0,26.3,5L58.6,71.6" transform="translate(0.2014)" style="fill:none;stroke:#000;stroke-linejoin:round;stroke-width:6px"/><path d="M71.3,84.3l22.5,22.5a23.9382,23.9382,0,0,0,31.4,31.4L113,125.5v-12h12l12.9,11.9A23.9382,23.9382,0,0,0,106.5,94L84.1,71.6" transform="translate(0.2014)" style="fill:none;stroke:#000;stroke-linejoin:round;stroke-width:6px"/><rect x="0.2014" width="144" height="144" style="fill:none"/></svg>