<svg xmlns="http://www.w3.org/2000/svg" viewBox="0 0 144 144"><path d="M67.8,38.4a8.993,8.993,0,0,1-12.7,0l-17-17A9.0157,9.0157,0,0,1,50.8,8.6l17,17A8.9969,8.9969,0,0,1,70.4,32,9.4385,9.4385,0,0,1,67.8,38.4Z" style="fill:none;stroke:#000;stroke-linecap:round;stroke-linejoin:round;stroke-width:6px"/><polyline points="67.8 38.4 80.5 51.1 50.8 80.8 72 102" style="fill:none;stroke:#000;stroke-linecap:round;stroke-linejoin:round;stroke-width:6px"/><path d="M57,120c-6.7-1.8-7.9-10.1-3-15L75,84c4.9-4.9,13.3-3.7,15,3l21,54Z" style="fill:none;stroke:#000;stroke-linecap:round;stroke-linejoin:round;stroke-width:6px"/><rect width="144" height="144" style="fill:none"/></svg>