<svg xmlns="http://www.w3.org/2000/svg" viewBox="0 0 144 144"><polygon points="112.4 3 29.7 85.7 61.5 117.6 59.4 102.7 76.4 102.7 76.4 81.5 95.5 79.4 93.3 60.3 112.4 58.2 112.4 36.9 132 33 127.3 17.8 112.4 3" style="fill:none;stroke:#000;stroke-linejoin:round;stroke-width:6px"/><path d="M61.5,117.6l-13,18.2a12.0336,12.0336,0,0,1-18.3,1.5L12.6,119.7a12.0107,12.0107,0,0,1,0-17l17-17,31.9,31.9" style="fill:none;stroke:#000;stroke-linecap:round;stroke-linejoin:round;stroke-width:6px"/><polyline points="38.2 128.2 44.6 117.6 29.7 102.7 21.2 111.2" style="fill:none;stroke:#000;stroke-linecap:round;stroke-linejoin:round;stroke-width:6px"/><rect width="144" height="144" style="fill:none"/></svg>