<svg xmlns="http://www.w3.org/2000/svg" viewBox="0 0 144 144"><path d="M39,129a12,12,0,0,1-24,0V99a12,12,0,0,1,24,0Z" style="fill:none;stroke:#000;stroke-linejoin:round;stroke-width:6px"/><path d="M117,129a12,12,0,0,1-24,0V99a12,12,0,0,1,24,0Z" style="fill:none;stroke:#000;stroke-linejoin:round;stroke-width:6px"/><path d="M51,3V39A24,24,0,0,1,3,39V3" style="fill:none;stroke:#000;stroke-linecap:round;stroke-linejoin:round;stroke-width:6px"/><line x1="27" y1="87" x2="27" y2="3" style="fill:none;stroke:#000;stroke-linecap:round;stroke-linejoin:round;stroke-width:6px"/><line x1="105" y1="87" x2="105" y2="33" style="fill:none;stroke:#000;stroke-linecap:round;stroke-linejoin:round;stroke-width:6px"/><path d="M105,3c26.6,0,30,72,30,72H75.1S78.4,3,105,3Z" style="fill:none;stroke:#000;stroke-linecap:round;stroke-linejoin:round;stroke-width:6px"/><rect width="144" height="144" style="fill:none"/></svg>