<svg xmlns="http://www.w3.org/2000/svg" viewBox="0 0 144 144"><circle cx="72" cy="72" r="15" style="fill:none;stroke:#000;stroke-linejoin:round;stroke-width:6px"/><line x1="63" y1="15.5" x2="63" y2="60" style="fill:none;stroke:#000;stroke-linejoin:round;stroke-width:6px"/><line x1="81" y1="60" x2="81" y2="15.5" style="fill:none;stroke:#000;stroke-linejoin:round;stroke-width:6px"/><path d="M90,3c0,6-6,15-18,15S54,9,54,3Z" style="fill:none;stroke:#000;stroke-linejoin:round;stroke-width:6px"/><line x1="128.5" y1="63" x2="84" y2="63" style="fill:none;stroke:#000;stroke-linejoin:round;stroke-width:6px"/><line x1="84" y1="81" x2="128.5" y2="81" style="fill:none;stroke:#000;stroke-linejoin:round;stroke-width:6px"/><path d="M141,90c-6,0-15-6-15-18s9-18,15-18Z" style="fill:none;stroke:#000;stroke-linejoin:round;stroke-width:6px"/><line x1="81" y1="128.5" x2="81" y2="84" style="fill:none;stroke:#000;stroke-linejoin:round;stroke-width:6px"/><line x1="63" y1="84" x2="63" y2="128.5" style="fill:none;stroke:#000;stroke-linejoin:round;stroke-width:6px"/><path d="M54,141c0-6,6-15,18-15s18,9,18,15Z" style="fill:none;stroke:#000;stroke-linejoin:round;stroke-width:6px"/><line x1="15.5" y1="81" x2="60" y2="81" style="fill:none;stroke:#000;stroke-linejoin:round;stroke-width:6px"/><line x1="60" y1="63" x2="15.5" y2="63" style="fill:none;stroke:#000;stroke-linejoin:round;stroke-width:6px"/><path d="M3,54c6,0,15,6,15,18S9,90,3,90Z" style="fill:none;stroke:#000;stroke-linejoin:round;stroke-width:6px"/><rect width="144" height="144" style="fill:none"/></svg>