<svg xmlns="http://www.w3.org/2000/svg" viewBox="0 0 144 144"><rect x="-1.0892" y="93.3741" width="83.9992" height="20.9998" transform="translate(-61.4739 59.3665) rotate(-45.0081)" style="fill:none;stroke:#000;stroke-linejoin:round;stroke-width:5.999942553291428px"/><path d="M95,81.6a12.0107,12.0107,0,0,1-17,0l-17-17a12.0107,12.0107,0,0,1,0-17L80.1,28.5a12.0107,12.0107,0,0,1,17,0l17,17a12.0107,12.0107,0,0,1,0,17Z" style="fill:none;stroke:#000;stroke-linejoin:round;stroke-width:6px"/><path d="M105.6,109.2,95,98.6a12.0107,12.0107,0,0,1,0-17l17-17a12.0107,12.0107,0,0,1,17,0l10.6,10.6Z" style="fill:none;stroke:#000;stroke-linejoin:round;stroke-width:6px"/><path d="M33.4,37.1,44,47.7a12.0107,12.0107,0,0,0,17,0l17-17a12.0107,12.0107,0,0,0,0-17L67.4,3.1Z" style="fill:none;stroke:#000;stroke-linejoin:round;stroke-width:6px"/><rect x="104.9128" y="23.3817" width="11.9999" height="20.9998" transform="translate(8.5354 88.3654) rotate(-45.0081)" style="fill:none;stroke:#000;stroke-linejoin:round;stroke-width:5.999942553291428px"/><rect width="144" height="144" style="fill:none"/></svg>