<svg xmlns="http://www.w3.org/2000/svg" viewBox="0 0 144 144"><path d="M39,135a6,6,0,0,1-12,0V81H39Z" style="fill:none;stroke:#000;stroke-linejoin:round;stroke-width:6px"/><path d="M99,78h12V9A6,6,0,0,0,99,9Z" style="fill:none;stroke:#000;stroke-linejoin:round;stroke-width:6px"/><path d="M39,93H63V78c0-28.4-9-55.9-30-75C12,22.1,3,49.2,3,77.6V93H27" style="fill:none;stroke:#000;stroke-linejoin:round;stroke-width:6px"/><path d="M99,66H96A20.9974,20.9974,0,0,0,75,87v48a6,6,0,0,0,12,0V93H99v42a6,6,0,0,0,12,0V93h12v42a6,6,0,0,0,12,0V87a20.9974,20.9974,0,0,0-21-21h-3" style="fill:none;stroke:#000;stroke-linejoin:round;stroke-width:6px"/><rect width="144" height="144" style="fill:none"/></svg>