<svg xmlns="http://www.w3.org/2000/svg" viewBox="0 0 144.0017 144.0017"><rect x="-6.5824" y="87.6061" width="110.9989" height="14.9999" transform="translate(-52.9226 62.4472) rotate(-45)" style="fill:none;stroke:#000;stroke-linejoin:round;stroke-width:5.999942240425611px"/><path d="M141,101.3A101.96,101.96,0,0,0,42.7,3a3.0114,3.0114,0,0,0-1.5,5.7A202.01,202.01,0,0,1,86.4,38.5l-7.8,7.8L97.7,65.4l7.8-7.8a197.5836,197.5836,0,0,1,29.8,45.2A3.0114,3.0114,0,0,0,141,101.3Z" transform="translate(0 0.0017)" style="fill:none;stroke:#000;stroke-linejoin:round;stroke-width:6px"/><polyline points="116.8 37.802 125.3 29.302 114.7 18.702 106.2 27.202" style="fill:none;stroke:#000;stroke-linejoin:round;stroke-width:6px"/><rect y="0.0017" width="144" height="144" style="fill:none"/></svg>