<svg xmlns="http://www.w3.org/2000/svg" viewBox="0 0 144 144"><path d="M141,51a18.0529,18.0529,0,0,0-18-18H21A18.0529,18.0529,0,0,0,3,51v60a18.0529,18.0529,0,0,0,18,18H123a18.0529,18.0529,0,0,0,18-18Z" style="fill:none;stroke:#000;stroke-linecap:round;stroke-linejoin:round;stroke-width:6px"/><path d="M51,33V21A12.0353,12.0353,0,0,1,63,9H81A12.0353,12.0353,0,0,1,93,21V33" style="fill:none;stroke:#000;stroke-linecap:round;stroke-linejoin:round;stroke-width:6px"/><path d="M97.8,81.2,105,75h13.9a17.9,17.9,0,0,0-33.8,0H58.9A17.9619,17.9619,0,0,0,42,63c-7.8,0-14.4,6-16.9,12H39l7.2,6.2L39,87H25.1c2.5,6,9.1,12,16.9,12A17.9619,17.9619,0,0,0,58.9,87H85.1a17.9,17.9,0,0,0,33.8,0H105Z" style="fill:none;stroke:#000;stroke-linejoin:round;stroke-width:6px"/><rect width="144" height="144" style="fill:none"/></svg>