<svg xmlns="http://www.w3.org/2000/svg" viewBox="0 0 144 144.0543"><path d="M10.3,133.7a24.5014,24.5014,0,0,0,31.8,2.5l83.9-61a40.8842,40.8842,0,0,0,14.9-29.5A40.79,40.79,0,0,0,98.2,3,40.8842,40.8842,0,0,0,68.7,17.9l-61,83.9A24.6187,24.6187,0,0,0,10.3,133.7Z" transform="translate(0 0.0543)" style="fill:none;stroke:#000;stroke-linejoin:round;stroke-width:6px"/><circle cx="30" cy="114.0543" r="15" style="fill:none;stroke:#000;stroke-linejoin:round;stroke-width:6px"/><circle cx="102" cy="42.0543" r="27" style="fill:none;stroke:#000;stroke-linejoin:round;stroke-width:6px"/><circle cx="102" cy="42.0543" r="15" style="fill:none;stroke:#000;stroke-linejoin:round;stroke-width:6px"/><path d="M102,36a6,6,0,1,0,6,6,6.0176,6.0176,0,0,0-6-6Z" style="fill:#000" transform="translate(0 0.0543)"/><path d="M30,108a6,6,0,1,0,6,6,6.0176,6.0176,0,0,0-6-6Z" style="fill:#000" transform="translate(0 0.0543)"/><rect y="0.0543" width="144" height="144" style="fill:none"/></svg>