<svg xmlns="http://www.w3.org/2000/svg" viewBox="0 0 144.025 144.025"><path d="M127.7,71.4A39.0449,39.0449,0,0,0,134.8,26L114.9,45H99V30L118.3,9.1A39.1779,39.1779,0,0,0,65.5,61.6l-59,58.9a12.0208,12.0208,0,0,0,17,17L82.4,78.6A38.943,38.943,0,0,0,127.7,71.4Z" transform="translate(0.025)" style="fill:none;stroke:#000;stroke-linejoin:round;stroke-width:6px"/><line x1="99.025" y1="45" x2="126.025" y2="73.9" style="fill:none;stroke:#000;stroke-linejoin:round;stroke-width:6px"/><line x1="75.025" y1="54" x2="84.025" y2="45" style="fill:none;stroke:#000;stroke-linecap:round;stroke-linejoin:round;stroke-width:6px"/><line x1="82.525" y1="61.5" x2="91.525" y2="52.5" style="fill:none;stroke:#000;stroke-linecap:round;stroke-linejoin:round;stroke-width:6px"/><line x1="90.025" y1="69" x2="99.025" y2="60" style="fill:none;stroke:#000;stroke-linecap:round;stroke-linejoin:round;stroke-width:6px"/><rect x="0.025" width="144" height="144" style="fill:none"/></svg>