<svg xmlns="http://www.w3.org/2000/svg" viewBox="0 0 144 144"><path d="M94.7,49.3C81.3,35.9,60.5,36.9,47,50.3L7.7,89.6c17,17,53.6-43.7,72-25.3,18.3,18.3-42.3,55-25.3,72L93.7,97C107.1,83.5,108.1,62.7,94.7,49.3Z" style="fill:none;stroke:#000;stroke-linejoin:round;stroke-width:6px"/><line x1="79.8" y1="64.2" x2="94.7" y2="49.3" style="fill:none;stroke:#000;stroke-linejoin:round;stroke-width:6px"/><path d="M104,76.2h.6c8.6.1,18.5-4.5,25.3-11.3,11.9-11.9,14.4-30.7,6.3-44.5L115.8,40.8s-1.6,5.9-4.2,8.5a12.0208,12.0208,0,0,1-17-17c2.7-2.7,8.5-4.2,8.5-4.2L123.5,7.7C109.8-.4,90.9,2.2,79.1,14c-6.8,6.8-11.4,16.7-11.3,25.3V40" style="fill:none;stroke:#000;stroke-linejoin:round;stroke-width:6px"/><rect width="144" height="144" style="fill:none"/></svg>