<svg xmlns="http://www.w3.org/2000/svg" viewBox="0 0 144 144"><path d="M21,15A12.0353,12.0353,0,0,1,33,3h72a12.0353,12.0353,0,0,1,12,12V129a12.0353,12.0353,0,0,1-12,12H33a12.0353,12.0353,0,0,1-12-12Z" style="fill:none;stroke:#000;stroke-linejoin:round;stroke-width:6px"/><rect x="39" y="15" width="60" height="54" style="fill:none;stroke:#000;stroke-linejoin:round;stroke-width:6px"/><circle cx="96" cy="96" r="6" style="fill:none;stroke:#000;stroke-linejoin:round;stroke-width:6px"/><circle cx="96" cy="120" r="6" style="fill:none;stroke:#000;stroke-linejoin:round;stroke-width:6px"/><circle cx="57" cy="105" r="18" style="fill:none;stroke:#000;stroke-linejoin:round;stroke-width:6px"/><line x1="69" y1="56.7" x2="54" y2="27" style="fill:none;stroke:#000;stroke-linecap:round;stroke-linejoin:round;stroke-width:6px"/><line x1="57" y1="81.3" x2="57" y2="129" style="fill:none;stroke:#000;stroke-linecap:round;stroke-linejoin:round;stroke-width:6px"/><path d="M57,69a12,12,0,0,1,24,0" style="fill:none;stroke:#000;stroke-linejoin:round;stroke-width:6px"/><rect width="144" height="144" style="fill:none"/></svg>