<svg xmlns="http://www.w3.org/2000/svg" viewBox="0 0 144 144"><path d="M51,99H63a12.0353,12.0353,0,0,1,12,12c0,19.3-30,4.7-30,30h96c0-24.9-30-11-30-30a12.0353,12.0353,0,0,1,12-12h12a6.0176,6.0176,0,0,0,6-6V69a6.0176,6.0176,0,0,0-6-6H51Z" style="fill:none;stroke:#000;stroke-linejoin:round;stroke-width:6px"/><path d="M9.6,63A5.8311,5.8311,0,0,0,5,65.2a5.97,5.97,0,0,0-1.2,5A35.86,35.86,0,0,0,39,99H51V63Z" style="fill:none;stroke:#000;stroke-linejoin:round;stroke-width:6px"/><line x1="6" y1="27" x2="75" y2="27" style="fill:none;stroke:#000;stroke-linecap:round;stroke-linejoin:round;stroke-width:6px"/><rect x="75" y="3" width="36" height="48" style="fill:none;stroke:#000;stroke-linejoin:round;stroke-width:6px"/><rect width="144" height="144" style="fill:none"/></svg>