<svg xmlns="http://www.w3.org/2000/svg" viewBox="0 0 144 144"><path d="M91.7,56.8c0-7.9-5.1-14.1-11.4-14.1A11.2149,11.2149,0,0,0,70.7,48a11.3424,11.3424,0,0,0-9.6-5.3c-6.3,0-11.4,6.2-11.4,14.1,0,8.5,2.7,14,6.2,17.4a36.905,36.905,0,0,0-2.7,14.1,39.6672,39.6672,0,0,0,.8,7.8,2.2374,2.2374,0,0,0,2.2,1.8,2.4635,2.4635,0,0,0,2.4-2.1c.9-8.7,6-15.4,12.1-15.4s11.2,6.7,12.1,15.4a2.2915,2.2915,0,0,0,2.3,2.1A2.3538,2.3538,0,0,0,87.4,96a37.8889,37.8889,0,0,0,.8-7.7,36.905,36.905,0,0,0-2.7-14.1C89,70.8,91.7,65.3,91.7,56.8Z" style="fill:none;stroke:#000;stroke-linejoin:round;stroke-width:6px"/><polyline points="3 62.1 19.7 87.1 38.9 64" style="fill:none;stroke:#000;stroke-linecap:round;stroke-linejoin:round;stroke-width:6px"/><polyline points="138.4 88 121.7 63.1 102.5 86.1" style="fill:none;stroke:#000;stroke-linecap:round;stroke-linejoin:round;stroke-width:6px"/><path d="M121.5,63.3c5,26.5-13.6,52.4-39.1,58.4a51.0374,51.0374,0,0,1-47.6-13.3" style="fill:none;stroke:#000;stroke-linecap:round;stroke-linejoin:round;stroke-width:6px"/><path d="M19.7,86.9c-7.9-29.3,11.8-58,39.2-64.5a50.6758,50.6758,0,0,1,49.9,15.9" style="fill:none;stroke:#000;stroke-linecap:round;stroke-linejoin:round;stroke-width:6px"/><rect width="144" height="144" style="fill:none"/></svg>