<svg xmlns="http://www.w3.org/2000/svg" viewBox="0 0 144 144"><circle cx="72" cy="72" r="69" style="fill:none;stroke:#000;stroke-linecap:round;stroke-linejoin:round;stroke-width:6px"/><circle cx="72" cy="36" r="15" style="fill:none;stroke:#000;stroke-linecap:round;stroke-linejoin:round;stroke-width:6px"/><path d="M114.9,46.8a6.1581,6.1581,0,0,0,2.1-4.4,6.2014,6.2014,0,0,0-10.6-4.5C103.5,40.8,95.5,48,88,54.8a23.888,23.888,0,0,1-32,0c-7.1-6.4-14.7-13.3-18.4-16.9a6.2775,6.2775,0,0,0-8.8,0A6.1055,6.1055,0,0,0,27,42.4a5.8028,5.8028,0,0,0,2.1,4.4L57,75v9L41.3,111A7.6276,7.6276,0,0,0,49,122.6a7.8017,7.8017,0,0,0,5.1-3.2L67.2,97.1a5.9828,5.9828,0,0,1,9.8,0l16,22.4a7.7212,7.7212,0,0,0,10.9,1.8,7.6834,7.6834,0,0,0,1.9-10.2L87,84V75Z" style="fill:none;stroke:#000;stroke-linecap:round;stroke-linejoin:round;stroke-width:6px"/><line x1="93" y1="42" x2="111" y2="60" style="fill:none;stroke:#000;stroke-linecap:round;stroke-linejoin:round;stroke-width:6px"/><line x1="51" y1="42" x2="33" y2="60" style="fill:none;stroke:#000;stroke-linecap:round;stroke-linejoin:round;stroke-width:6px"/><line x1="84" y1="114" x2="105" y2="99" style="fill:none;stroke:#000;stroke-linecap:round;stroke-linejoin:round;stroke-width:6px"/><line x1="60" y1="114" x2="39" y2="99" style="fill:none;stroke:#000;stroke-linecap:round;stroke-linejoin:round;stroke-width:6px"/><rect width="144" height="144" style="fill:none"/></svg>