<svg xmlns="http://www.w3.org/2000/svg" viewBox="0 0 144 144"><path d="M135,90V43.4c0-5.5-4.4-10.4-9.9-10.4H43c-5.5,0-10,4.9-10,10.4v75.7A10.0085,10.0085,0,0,0,43,129H66" style="fill:none;stroke:#000;stroke-linecap:round;stroke-linejoin:round;stroke-width:6px"/><path d="M93,69a6,6,0,0,1,12,0V97.5l23.8,6.9a7.707,7.707,0,0,1,5.4,9.1l-.5,2.2-4.6,25.2H92.3L74,113.5c-7.3-11.1,10.7-14.9,19,3.7Z" style="fill:none;stroke:#000;stroke-linejoin:round;stroke-width:6px"/><line x1="33" y1="51" x2="135" y2="51" style="fill:none;stroke:#000;stroke-linejoin:round;stroke-width:6px"/><path d="M18,36A18.0529,18.0529,0,0,1,36,18" style="fill:none;stroke:#000;stroke-linecap:round;stroke-linejoin:round;stroke-width:6px"/><path d="M3,36A33.0326,33.0326,0,0,1,36,3" style="fill:none;stroke:#000;stroke-linecap:round;stroke-linejoin:round;stroke-width:6px"/><rect width="144" height="144" style="fill:none"/></svg>