<svg xmlns="http://www.w3.org/2000/svg" viewBox="0 0 144 144"><path d="M99.1,69a6,6,0,0,1,12,0V97.5l23.8,6.9a7.707,7.707,0,0,1,5.4,9.1l-.5,2.2L135.2,141H98.4L80,113.4c-7.3-11.1,10.7-14.9,19,3.7Z" style="fill:none;stroke:#000;stroke-linejoin:round;stroke-width:6px"/><path d="M69,111H9a6.0176,6.0176,0,0,1-6-6V27a6.0176,6.0176,0,0,1,6-6H135a6.0176,6.0176,0,0,1,6,6V93" style="fill:none;stroke:#000;stroke-linecap:round;stroke-linejoin:round;stroke-width:6px"/><polyline points="69 99 15 99 15 33 129 33 129 87" style="fill:none;stroke:#000;stroke-linecap:round;stroke-linejoin:round;stroke-width:6px"/><line x1="42" y1="129" x2="72" y2="129" style="fill:none;stroke:#000;stroke-linecap:round;stroke-linejoin:round;stroke-width:6px"/><line x1="63" y1="111" x2="63" y2="129" style="fill:none;stroke:#000;stroke-linecap:round;stroke-linejoin:round;stroke-width:6px"/><rect width="144" height="144" style="fill:none"/></svg>