<svg xmlns="http://www.w3.org/2000/svg" viewBox="0 0 144 144"><path d="M72,3.1c84,0,48,114,0,114S-12,3.1,72,3.1Z" style="fill:none;stroke:#000;stroke-linejoin:round;stroke-width:6px"/><polygon points="45 57 99 57 111 33 33 33 45 57" style="fill:none;stroke:#000;stroke-linejoin:round;stroke-width:6px"/><path d="M72,78.1c-18.6,0-30.6,18.1-20.1,32.3,6.2,4.2,13,6.7,20.1,6.7s13.9-2.5,20.1-6.7C102.6,96.2,90.6,78.1,72,78.1Z" style="fill:none;stroke:#000;stroke-linejoin:round;stroke-width:6px"/><line x1="3" y1="141" x2="27.8" y2="78.7" style="fill:none;stroke:#000;stroke-linecap:round;stroke-linejoin:round;stroke-width:6px"/><line x1="116.1" y1="79" x2="141" y2="141" style="fill:none;stroke:#000;stroke-linecap:round;stroke-linejoin:round;stroke-width:6px"/><line x1="7.8" y1="129" x2="136.2" y2="129" style="fill:none;stroke:#000;stroke-linejoin:round;stroke-width:6px"/><line x1="98.6" y1="105" x2="126.5" y2="105" style="fill:none;stroke:#000;stroke-linejoin:round;stroke-width:6px"/><line x1="17.3" y1="105" x2="45.4" y2="105" style="fill:none;stroke:#000;stroke-linejoin:round;stroke-width:6px"/><rect width="144" height="144" style="fill:none"/></svg>