<svg xmlns="http://www.w3.org/2000/svg" viewBox="0 0 144 144"><line x1="30" y1="141" x2="66" y2="141" style="fill:none;stroke:#000;stroke-linecap:round;stroke-linejoin:round;stroke-width:6px"/><line x1="48" y1="129" x2="48" y2="141" style="fill:none;stroke:#000;stroke-linecap:round;stroke-linejoin:round;stroke-width:6px"/><line x1="3" y1="117" x2="93" y2="117" style="fill:none;stroke:#000;stroke-linejoin:round;stroke-width:6px"/><path d="M48,63V54c0-16.6,4.4-30,21-30" style="fill:none;stroke:#000;stroke-linecap:round;stroke-linejoin:round;stroke-width:6px"/><polyline points="60 51 48 63 36 51" style="fill:none;stroke:#000;stroke-linecap:round;stroke-linejoin:round;stroke-width:6px"/><path d="M75,69h9a8.9626,8.9626,0,0,1,9,9v42a8.9626,8.9626,0,0,1-9,9H12a8.9626,8.9626,0,0,1-9-9V78a8.9626,8.9626,0,0,1,9-9H24" style="fill:none;stroke:#000;stroke-linecap:round;stroke-linejoin:round;stroke-width:6px"/><path d="M87,51h45a8.9626,8.9626,0,0,0,9-9V21H93V45a6,6,0,0,1-12,0V3H93V9h42V21" style="fill:none;stroke:#000;stroke-linecap:round;stroke-linejoin:round;stroke-width:6px"/><rect width="144" height="144" style="fill:none"/></svg>