<svg xmlns="http://www.w3.org/2000/svg" viewBox="0 0 144 144"><polyline points="99 78.3 99 111 60 111 21 111 21 69 54.5 69" style="fill:none;stroke:#000;stroke-linecap:round;stroke-linejoin:round;stroke-width:6px"/><line x1="111" y1="78" x2="111" y2="123" style="fill:none;stroke:#000;stroke-linecap:round;stroke-linejoin:round;stroke-width:6px"/><path d="M9,123V66a8.9626,8.9626,0,0,1,9-9H54.3" style="fill:none;stroke:#000;stroke-linecap:round;stroke-linejoin:round;stroke-width:6px"/><path d="M69,123v6H51v-6H3v12a6.0176,6.0176,0,0,0,6,6H111a6.0176,6.0176,0,0,0,6-6V123Z" style="fill:none;stroke:#000;stroke-linecap:round;stroke-linejoin:round;stroke-width:6px"/><path d="M141,51a6.0176,6.0176,0,0,1-6,6H75a6.0176,6.0176,0,0,1-6-6V15a6.0176,6.0176,0,0,1,6-6H99l1.3-2.7A6.0456,6.0456,0,0,1,105.7,3h13.6a6.0456,6.0456,0,0,1,5.4,3.3L126,9h9a6.0176,6.0176,0,0,1,6,6Z" style="fill:none;stroke:#000;stroke-linejoin:round;stroke-width:6px"/><circle cx="111" cy="33" r="12" style="fill:none;stroke:#000;stroke-linejoin:round;stroke-width:6px"/><rect x="78" y="3" width="3" height="5.9" style="fill:none;stroke:#000;stroke-linejoin:round;stroke-width:6px"/><polyline points="27 45.1 27 21 56.8 21" style="fill:none;stroke:#000;stroke-linecap:round;stroke-linejoin:round;stroke-width:6px"/><polyline points="18 35.8 27 45.1 36.4 36" style="fill:none;stroke:#000;stroke-linecap:round;stroke-linejoin:round;stroke-width:6px"/><polyline points="47.9 30 56.8 21 48 11.6" style="fill:none;stroke:#000;stroke-linecap:round;stroke-linejoin:round;stroke-width:6px"/><rect width="144" height="144" style="fill:none"/></svg>