<svg xmlns="http://www.w3.org/2000/svg" viewBox="0 0 144 144"><polyline points="36 138 48 126 36 114" style="fill:none;stroke:#000;stroke-linecap:round;stroke-linejoin:round;stroke-width:6px"/><path d="M3,48v5.9A9.048,9.048,0,0,0,12,63H66a9.1124,9.1124,0,0,0,9-9.1V18a8.9626,8.9626,0,0,0-9-9H12a8.9626,8.9626,0,0,0-9,9Z" style="fill:none;stroke:#000;stroke-linecap:round;stroke-linejoin:round;stroke-width:6px"/><line x1="3" y1="45" x2="75" y2="45" style="fill:none;stroke:#000;stroke-linecap:round;stroke-linejoin:round;stroke-width:6px"/><line x1="24" y1="75" x2="54" y2="75" style="fill:none;stroke:#000;stroke-linecap:round;stroke-linejoin:round;stroke-width:6px"/><line x1="39" y1="63" x2="39" y2="75" style="fill:none;stroke:#000;stroke-linecap:round;stroke-linejoin:round;stroke-width:6px"/><path d="M81,69a6.0176,6.0176,0,0,1,6-6h36a6.0176,6.0176,0,0,1,6,6v66a6.0176,6.0176,0,0,1-6,6H87a6.0176,6.0176,0,0,1-6-6Z" style="fill:none;stroke:#000;stroke-linecap:round;stroke-linejoin:round;stroke-width:6px"/><path d="M12,96a29.96,29.96,0,0,0,30,30h6" style="fill:none;stroke:#000;stroke-linecap:round;stroke-linejoin:round;stroke-width:6px"/><polyline points="108 6 96 18 108 30" style="fill:none;stroke:#000;stroke-linecap:round;stroke-linejoin:round;stroke-width:6px"/><path d="M132,48a29.96,29.96,0,0,0-30-30H96" style="fill:none;stroke:#000;stroke-linecap:round;stroke-linejoin:round;stroke-width:6px"/><line x1="81" y1="123" x2="129" y2="123" style="fill:none;stroke:#000;stroke-linecap:round;stroke-linejoin:round;stroke-width:6px"/><path d="M105,129a3,3,0,1,0,3,3,3.0085,3.0085,0,0,0-3-3Z" style="fill:#000"/><rect width="144" height="144" style="fill:none"/></svg>