<svg xmlns="http://www.w3.org/2000/svg" viewBox="0 0 144 144"><polygon points="141 57 99 57 99 3 123 3 141 21 141 57" style="fill:none;stroke:#000;stroke-linecap:round;stroke-linejoin:round;stroke-width:6px"/><polyline points="141 21 120 21 120 3" style="fill:none;stroke:#000;stroke-linecap:round;stroke-linejoin:round;stroke-width:6px"/><line x1="30" y1="141" x2="66" y2="141" style="fill:none;stroke:#000;stroke-linecap:round;stroke-linejoin:round;stroke-width:6px"/><line x1="48" y1="129" x2="48" y2="141" style="fill:none;stroke:#000;stroke-linecap:round;stroke-linejoin:round;stroke-width:6px"/><line x1="3" y1="117" x2="93" y2="117" style="fill:none;stroke:#000;stroke-linejoin:round;stroke-width:6px"/><path d="M51,63V54A29.96,29.96,0,0,1,81,24" style="fill:none;stroke:#000;stroke-linecap:round;stroke-linejoin:round;stroke-width:6px"/><polyline points="63 51 51 63 39 51" style="fill:none;stroke:#000;stroke-linecap:round;stroke-linejoin:round;stroke-width:6px"/><path d="M75,69h9a8.9626,8.9626,0,0,1,9,9v42a8.9626,8.9626,0,0,1-9,9H12a8.9626,8.9626,0,0,1-9-9V78a8.9626,8.9626,0,0,1,9-9H24" style="fill:none;stroke:#000;stroke-linecap:round;stroke-linejoin:round;stroke-width:6px"/><rect width="144" height="144" style="fill:none"/></svg>