<svg xmlns="http://www.w3.org/2000/svg" viewBox="0 0 144 144"><path d="M75,114v5.9a9.048,9.048,0,0,0,9,9.1h48a9.048,9.048,0,0,0,9-9.1V84a8.9626,8.9626,0,0,0-9-9H84a8.9626,8.9626,0,0,0-9,9Z" style="fill:none;stroke:#000;stroke-linecap:round;stroke-linejoin:round;stroke-width:6px"/><line x1="75" y1="111" x2="141" y2="111" style="fill:none;stroke:#000;stroke-linecap:round;stroke-linejoin:round;stroke-width:6px"/><line x1="96" y1="141" x2="120" y2="141" style="fill:none;stroke:#000;stroke-linecap:round;stroke-linejoin:round;stroke-width:6px"/><line x1="108" y1="129" x2="108" y2="141" style="fill:none;stroke:#000;stroke-linecap:round;stroke-linejoin:round;stroke-width:6px"/><path d="M26,47a31.4149,31.4149,0,0,0,44-6.3L19.7,3A31.4149,31.4149,0,0,0,26,47Z" style="fill:none;stroke:#000;stroke-linecap:round;stroke-linejoin:round;stroke-width:6px"/><line x1="53.5" y1="10.3" x2="44.9" y2="21.8" style="fill:none;stroke:#000;stroke-linecap:round;stroke-linejoin:round;stroke-width:6px"/><polygon points="23.1 44.5 3 69 43.1 69 23.1 44.5" style="fill:none;stroke:#000;stroke-linecap:round;stroke-linejoin:round;stroke-width:6px"/><polyline points="72 21 111 21 111 59.7" style="fill:none;stroke:#000;stroke-linecap:round;stroke-linejoin:round;stroke-width:6px"/><polyline points="60 123 21 123 21 83.7" style="fill:none;stroke:#000;stroke-linecap:round;stroke-linejoin:round;stroke-width:6px"/><rect width="144" height="144" style="fill:none"/></svg>