<svg xmlns="http://www.w3.org/2000/svg" viewBox="0 0 144 144"><path d="M81,69a6.0176,6.0176,0,0,1,6-6h36a6.0176,6.0176,0,0,1,6,6v66a6.0176,6.0176,0,0,1-6,6H87a6.0176,6.0176,0,0,1-6-6Z" style="fill:none;stroke:#000;stroke-linecap:round;stroke-linejoin:round;stroke-width:6px"/><line x1="81" y1="123" x2="129" y2="123" style="fill:none;stroke:#000;stroke-linecap:round;stroke-linejoin:round;stroke-width:6px"/><path d="M105,129a3,3,0,1,0,3,3,3.0085,3.0085,0,0,0-3-3Z" style="fill:#000"/><path d="M32.1,47a31.4149,31.4149,0,0,0,44-6.3L25.7,3A31.343,31.343,0,0,0,32.1,47Z" style="fill:none;stroke:#000;stroke-linecap:round;stroke-linejoin:round;stroke-width:6px"/><line x1="59.5" y1="10.3" x2="50.9" y2="21.8" style="fill:none;stroke:#000;stroke-linecap:round;stroke-linejoin:round;stroke-width:6px"/><polygon points="29.1 44.5 9 69 49.2 69 29.1 44.5" style="fill:none;stroke:#000;stroke-linecap:round;stroke-linejoin:round;stroke-width:6px"/><polyline points="78 21 117 21 117 51" style="fill:none;stroke:#000;stroke-linecap:round;stroke-linejoin:round;stroke-width:6px"/><polyline points="66 123 27 123 27 83.7" style="fill:none;stroke:#000;stroke-linecap:round;stroke-linejoin:round;stroke-width:6px"/><rect width="144" height="144" style="fill:none"/></svg>