<svg xmlns="http://www.w3.org/2000/svg" viewBox="0 0 144 144"><path d="M141,63a18.0529,18.0529,0,0,0-18-18H21A18.0529,18.0529,0,0,0,3,63v60a18.0529,18.0529,0,0,0,18,18H123a18.0529,18.0529,0,0,0,18-18Z" style="fill:none;stroke:#000;stroke-linecap:round;stroke-linejoin:round;stroke-width:6px"/><path d="M51,45V33A12.0353,12.0353,0,0,1,63,21H81A12.0353,12.0353,0,0,1,93,33V45" style="fill:none;stroke:#000;stroke-linecap:round;stroke-linejoin:round;stroke-width:6px"/><line x1="117" y1="45" x2="117" y2="141" style="fill:none;stroke:#000;stroke-linejoin:round;stroke-width:6px"/><line x1="99" y1="45" x2="99" y2="141" style="fill:none;stroke:#000;stroke-linejoin:round;stroke-width:6px"/><line x1="45" y1="45" x2="45" y2="141" style="fill:none;stroke:#000;stroke-linejoin:round;stroke-width:6px"/><line x1="27" y1="45" x2="27" y2="141" style="fill:none;stroke:#000;stroke-linejoin:round;stroke-width:6px"/><rect width="144" height="144" style="fill:none"/></svg>