<svg xmlns="http://www.w3.org/2000/svg" viewBox="0 0 144 144"><path d="M67.6,100A20.9668,20.9668,0,0,1,33.3,87.3L33,85.5a19.5212,19.5212,0,0,1-.3-35.9L33,48A14.98,14.98,0,0,1,48,33l1.5-1.5a19.5,19.5,0,0,1,39,0L90,33a14.98,14.98,0,0,1,15,15l1.8,2.4a19.502,19.502,0,0,1-1.7,35.1l-.3,1.8a21.0641,21.0641,0,0,1-34.3,12.8Z" style="fill:none;stroke:#000;stroke-linejoin:round;stroke-width:6px"/><line x1="69" y1="51" x2="69" y2="141" style="fill:none;stroke:#000;stroke-linecap:round;stroke-linejoin:round;stroke-width:6px"/><path d="M69,84A23.9424,23.9424,0,0,0,93,60" style="fill:none;stroke:#000;stroke-linecap:round;stroke-linejoin:round;stroke-width:6px"/><path d="M69,72A18.0529,18.0529,0,0,1,51,54" style="fill:none;stroke:#000;stroke-linecap:round;stroke-linejoin:round;stroke-width:6px"/><rect width="144" height="144" style="fill:none"/></svg>