<svg xmlns="http://www.w3.org/2000/svg" viewBox="0 0 144 144"><polygon points="84 141 54 141 42 105 96 105 84 141" style="fill:none;stroke:#000;stroke-linejoin:round;stroke-width:6px"/><path d="M126,63c9,0,15-6,15-15s-9-15-15-15h-9s-6-12-18-12c0,0-9-18-27-18S45,21,45,21C33,21,27,33,27,33H18C12,33,3,39,3,48S9,63,18,63Z" style="fill:none;stroke:#000;stroke-linejoin:round;stroke-width:6px"/><line x1="69" y1="63" x2="69" y2="105" style="fill:none;stroke:#000;stroke-linejoin:round;stroke-width:6px"/><line x1="93" y1="63" x2="69" y2="87" style="fill:none;stroke:#000;stroke-linejoin:round;stroke-width:6px"/><line x1="45" y1="63" x2="69" y2="87" style="fill:none;stroke:#000;stroke-linejoin:round;stroke-width:6px"/><rect width="144" height="144" style="fill:none"/></svg>