<svg xmlns="http://www.w3.org/2000/svg" viewBox="0 0 144 144"><line x1="69" y1="63" x2="69" y2="141" style="fill:none;stroke:#000;stroke-linecap:round;stroke-linejoin:round;stroke-width:6px"/><path d="M105,63A39,39,0,1,1,30,78a39.3585,39.3585,0,0,1,3-15S61.7,10.3,62.9,8.4c1.2-1.8,3.7-5.3,6.1-5.3,2.3,0,5,3.3,6,5.2C76.5,11.1,105,63,105,63Z" style="fill:none;stroke:#000;stroke-linecap:round;stroke-linejoin:round;stroke-width:6px"/><path d="M69,102A23.9424,23.9424,0,0,0,93,78" style="fill:none;stroke:#000;stroke-linecap:round;stroke-linejoin:round;stroke-width:6px"/><path d="M69,84A18.0529,18.0529,0,0,1,51,66" style="fill:none;stroke:#000;stroke-linecap:round;stroke-linejoin:round;stroke-width:6px"/><rect width="144" height="144" style="fill:none"/></svg>