<svg xmlns="http://www.w3.org/2000/svg" viewBox="0 0 144 144"><path d="M71.7,36A35.9841,35.9841,0,0,0,3,51V87H30a35.9773,35.9773,0,0,1,36,36" style="fill:none;stroke:#000;stroke-linecap:round;stroke-linejoin:round;stroke-width:6px"/><path d="M57,123H81c6-21,24.5-39,48-39V66a8.9626,8.9626,0,0,0-9-9h-9" style="fill:none;stroke:#000;stroke-linecap:round;stroke-linejoin:round;stroke-width:6px"/><circle cx="30" cy="123" r="18" style="fill:none;stroke:#000;stroke-linecap:round;stroke-linejoin:round;stroke-width:6px"/><circle cx="123" cy="123" r="18" style="fill:none;stroke:#000;stroke-linecap:round;stroke-linejoin:round;stroke-width:6px"/><polyline points="123 123 105 93 84 81 66 123" style="fill:none;stroke:#000;stroke-linecap:round;stroke-linejoin:round;stroke-width:6px"/><line x1="66" y1="27" x2="33" y2="87" style="fill:none;stroke:#000;stroke-linecap:round;stroke-linejoin:round;stroke-width:6px"/><line x1="42" y1="15" x2="21" y2="87" style="fill:none;stroke:#000;stroke-linecap:round;stroke-linejoin:round;stroke-width:6px"/><line x1="18" y1="21" x2="12" y2="87" style="fill:none;stroke:#000;stroke-linejoin:round;stroke-width:6px"/><path d="M78,81a6,6,0,0,1,0-12l19.5,3a4.5,4.5,0,0,1,0,9Z" style="fill:none;stroke:#000;stroke-linecap:round;stroke-linejoin:round;stroke-width:6px"/><line x1="3" y1="87" x2="12" y2="102" style="fill:none;stroke:#000;stroke-linecap:round;stroke-linejoin:round;stroke-width:6px"/><circle cx="30" cy="123" r="3" style="fill:none;stroke:#000;stroke-linecap:round;stroke-linejoin:round;stroke-width:6px"/><rect width="144" height="144" style="fill:none"/></svg>