<svg xmlns="http://www.w3.org/2000/svg" viewBox="0 0 144 144"><circle cx="30" cy="123" r="12" style="fill:none;stroke:#000;stroke-linecap:round;stroke-linejoin:round;stroke-width:6px"/><circle cx="114" cy="123" r="12" style="fill:none;stroke:#000;stroke-linecap:round;stroke-linejoin:round;stroke-width:6px"/><line x1="42" y1="123" x2="102" y2="123" style="fill:none;stroke:#000;stroke-linecap:round;stroke-linejoin:round;stroke-width:6px"/><polyline points="45 69 36 69 27 87" style="fill:none;stroke:#000;stroke-linecap:round;stroke-linejoin:round;stroke-width:6px"/><polyline points="18 123 3 123 3 96 15 84 30 57 57 57 57 111" style="fill:none;stroke:#000;stroke-linecap:round;stroke-linejoin:round;stroke-width:6px"/><line x1="3" y1="111" x2="141" y2="111" style="fill:none;stroke:#000;stroke-linecap:round;stroke-linejoin:round;stroke-width:6px"/><path d="M124.6,90.4c-21.2,21.2-38,17.1-50.9,4.2s-17-29.7,4.2-50.9c12.6-12.6,48.8-14.8,48.8-14.8l12.7,12.7C139.5,41.6,137.4,77.6,124.6,90.4Z" style="fill:none;stroke:#000;stroke-linecap:round;stroke-linejoin:round;stroke-width:6px"/><line x1="86.6" y1="39.1" x2="129.5" y2="82" style="fill:none;stroke:#000;stroke-linecap:round;stroke-linejoin:round;stroke-width:6px"/><rect width="144" height="144" style="fill:none"/></svg>