<svg xmlns="http://www.w3.org/2000/svg" viewBox="0 0 144 144"><path d="M9,105.4V87A23.9424,23.9424,0,0,1,33,63H81l4.5-31.7A12.05,12.05,0,0,1,97.4,21H129a12.0353,12.0353,0,0,1,12,12v75" style="fill:none;stroke:#000;stroke-linejoin:round;stroke-width:6px"/><line x1="78" y1="123" x2="45" y2="123" style="fill:none;stroke:#000;stroke-linejoin:round;stroke-width:6px"/><circle cx="24" cy="120" r="21" style="fill:none;stroke:#000;stroke-linejoin:round;stroke-width:6px"/><circle cx="108" cy="108" r="33" style="fill:none;stroke:#000;stroke-linejoin:round;stroke-width:6px"/><rect x="33" y="27" width="24" height="36" style="fill:none;stroke:#000;stroke-linejoin:round;stroke-width:6px"/><polyline points="30 3 45 3 45 27" style="fill:none;stroke:#000;stroke-linecap:round;stroke-linejoin:round;stroke-width:6px"/><polyline points="114 33 98.5 33 96.2 47.8" style="fill:none;stroke:#000;stroke-linecap:round;stroke-linejoin:round;stroke-width:6px"/><circle cx="24" cy="120" r="6" style="fill:none;stroke:#000;stroke-linejoin:round;stroke-width:6px"/><circle cx="108" cy="108" r="12" style="fill:none;stroke:#000;stroke-linejoin:round;stroke-width:6px"/><rect width="144" height="144" style="fill:none"/></svg>