<svg xmlns="http://www.w3.org/2000/svg" viewBox="0 0 144 144"><path d="M63,123H45a12.0353,12.0353,0,0,1-12-12V63S47.6,22.2,47.3,23a3.008,3.008,0,0,1,2.8-2H94.2A2.9129,2.9129,0,0,1,97,23c.3.8,13.9,40,13.9,40v48a12.0353,12.0353,0,0,1-12,12H81" style="fill:none;stroke:#000;stroke-linejoin:round;stroke-width:6px"/><path d="M63,114a9,9,0,0,1,18,0v18a9,9,0,0,1-18,0Z" style="fill:none;stroke:#000;stroke-linejoin:round;stroke-width:6px"/><line x1="33" y1="63" x2="111" y2="63" style="fill:none;stroke:#000;stroke-linejoin:round;stroke-width:6px"/><line x1="36" y1="21" x2="108" y2="21" style="fill:none;stroke:#000;stroke-linecap:round;stroke-linejoin:round;stroke-width:6px"/><rect x="57" y="3" width="30" height="18" style="fill:none;stroke:#000;stroke-linecap:round;stroke-linejoin:round;stroke-width:6px"/><circle cx="96" cy="87" r="6" style="fill:none;stroke:#000;stroke-linecap:round;stroke-linejoin:round;stroke-width:6px"/><circle cx="48" cy="87" r="6" style="fill:none;stroke:#000;stroke-linecap:round;stroke-linejoin:round;stroke-width:6px"/><path d="M27,117v15a9,9,0,0,1-18,0V117" style="fill:none;stroke:#000;stroke-linecap:round;stroke-linejoin:round;stroke-width:6px"/><path d="M9,117V99a12,12,0,0,1,24,0v18Z" style="fill:none;stroke:#000;stroke-linecap:round;stroke-linejoin:round;stroke-width:6px"/><path d="M117,117v15a9,9,0,0,0,18,0V117" style="fill:none;stroke:#000;stroke-linecap:round;stroke-linejoin:round;stroke-width:6px"/><path d="M135,117V99a12,12,0,0,0-24,0v18Z" style="fill:none;stroke:#000;stroke-linecap:round;stroke-linejoin:round;stroke-width:6px"/><rect width="144" height="144" style="fill:none"/></svg>