<svg xmlns="http://www.w3.org/2000/svg" viewBox="0 0 144 144"><polyline points="129 21 141 21 141 135 3 135 3 21 105 21" style="fill:none;stroke:#000;stroke-linejoin:round;stroke-width:6px"/><path d="M75,120.4A43.7858,43.7858,0,0,1,60,123a45,45,0,1,1,42.6-59.6" style="fill:none;stroke:#000;stroke-linecap:round;stroke-linejoin:round;stroke-width:6px"/><circle cx="60" cy="78" r="15" style="fill:none;stroke:#000;stroke-linecap:round;stroke-linejoin:round;stroke-width:6px"/><circle cx="60" cy="78" r="3" style="fill:none;stroke:#000;stroke-linecap:round;stroke-linejoin:round;stroke-width:6px"/><polyline points="117 33 117 72 100.4 91.9" style="fill:none;stroke:#000;stroke-linecap:round;stroke-linejoin:round;stroke-width:6px"/><path d="M117,3a12.0353,12.0353,0,0,0-12,12V33h24V15A12.0353,12.0353,0,0,0,117,3Z" style="fill:none;stroke:#000;stroke-linecap:round;stroke-linejoin:round;stroke-width:6px"/><path d="M94.3,85.8l12,12L98.1,106c-1.3,1.3-6.8,8.2-13.5,1.8-5.5-5.3-1.2-11.1,1.1-13.5C88.1,92,94.3,85.8,94.3,85.8Z" style="fill:none;stroke:#000;stroke-linejoin:round;stroke-width:6px"/><rect width="144" height="144" style="fill:none"/></svg>