<svg xmlns="http://www.w3.org/2000/svg" viewBox="0 0 144.025 144.025"><path d="M23.7,107.6l12.7,12.7L18.3,138.4A8.98,8.98,0,1,1,5.6,125.7Z" transform="translate(0.025)" style="fill:none;stroke:#000;stroke-linejoin:round;stroke-width:6px"/><rect x="24.8102" y="92.2067" width="35.9997" height="17.9998" transform="translate(-59.0001 59.914) rotate(-45)" style="fill:none;stroke:#000;stroke-linejoin:round;stroke-width:5.999942240425611px"/><line x1="111.725" y1="53.5" x2="82.025" y2="83.2" style="fill:none;stroke:#000;stroke-linejoin:round;stroke-width:6px"/><line x1="101.125" y1="42.9" x2="71.425" y2="72.6" style="fill:none;stroke:#000;stroke-linejoin:round;stroke-width:6px"/><line x1="90.525" y1="32.3" x2="60.825" y2="62" style="fill:none;stroke:#000;stroke-linejoin:round;stroke-width:6px"/><path d="M135.6,56.2,86.8,7.4,55,39.2c-4.7,4.7-7.8,13.8-6.9,20.4l2.7,20.2c.9,6.5,6.9,12.5,13.5,13.2l19.1,2.1c6.6.7,15.7-2.5,20.4-7.2Z" transform="translate(0.025)" style="fill:none;stroke:#000;stroke-linejoin:round;stroke-width:6px"/><rect x="0.025" width="144" height="144" style="fill:none"/></svg>