<svg xmlns="http://www.w3.org/2000/svg" viewBox="0 0 144 144"><path d="M87,63C79.1,52.1,67,45,52.5,45A43.5313,43.5313,0,0,0,9,88.5V111H73.5A13.4439,13.4439,0,0,0,87,97.5Z" style="fill:none;stroke:#000;stroke-linecap:round;stroke-linejoin:round;stroke-width:6px"/><path d="M87,63a18.0529,18.0529,0,0,1,18,18v25.5A22.5339,22.5339,0,0,1,82.5,129H18A14.98,14.98,0,0,1,3,114v-3H9" style="fill:none;stroke:#000;stroke-linecap:round;stroke-linejoin:round;stroke-width:6px"/><path d="M129,57v43.5A16.5163,16.5163,0,0,1,112.5,117H102.4" style="fill:none;stroke:#000;stroke-linecap:round;stroke-linejoin:round;stroke-width:6px"/><path d="M120,57A21,21,0,1,0,99,36V66" style="fill:none;stroke:#000;stroke-linecap:round;stroke-linejoin:round;stroke-width:6px"/><path d="M33,129v12H6a2.8881,2.8881,0,0,1-3-3,3.0573,3.0573,0,0,1,3-3.2L21,129" style="fill:none;stroke:#000;stroke-linecap:round;stroke-linejoin:round;stroke-width:6px"/><path d="M63,129v12H90a2.8881,2.8881,0,0,0,3-3,3.0573,3.0573,0,0,0-3-3.2L75,129" style="fill:none;stroke:#000;stroke-linecap:round;stroke-linejoin:round;stroke-width:6px"/><line x1="123" y1="27" x2="123" y2="33" style="fill:none;stroke:#000;stroke-linecap:round;stroke-linejoin:round;stroke-width:6px"/><line x1="36" y1="48.2" x2="87" y2="99" style="fill:none;stroke:#000;stroke-linecap:round;stroke-linejoin:round;stroke-width:6px"/><line x1="70.8" y1="49.2" x2="9" y2="111" style="fill:none;stroke:#000;stroke-linecap:round;stroke-linejoin:round;stroke-width:6px"/><line x1="13.1" y1="70.1" x2="54" y2="111" style="fill:none;stroke:#000;stroke-linecap:round;stroke-linejoin:round;stroke-width:6px"/><line x1="87" y1="78" x2="54" y2="111" style="fill:none;stroke:#000;stroke-linecap:round;stroke-linejoin:round;stroke-width:6px"/><rect width="144" height="144" style="fill:none"/></svg>