<svg xmlns="http://www.w3.org/2000/svg" viewBox="0 0 144 144"><path d="M27,123V66a21,21,0,0,1,42,0v57" style="fill:none;stroke:#000;stroke-linecap:round;stroke-linejoin:round;stroke-width:6px"/><path d="M57,66a9,9,0,0,0-18,0v9H57Z" style="fill:none;stroke:#000;stroke-linecap:round;stroke-linejoin:round;stroke-width:6px"/><path d="M69,123V66a21,21,0,0,1,42,0v57" style="fill:none;stroke:#000;stroke-linecap:round;stroke-linejoin:round;stroke-width:6px"/><path d="M99,66a9,9,0,0,0-18,0v9H99Z" style="fill:none;stroke:#000;stroke-linecap:round;stroke-linejoin:round;stroke-width:6px"/><polyline points="126.1 48 141 42 138.1 24" style="fill:none;stroke:#000;stroke-linecap:round;stroke-linejoin:round;stroke-width:6px"/><path d="M3,41.6C18.9,30.9,43.9,24,72.1,24s53,7.2,68.9,18" style="fill:none;stroke:#000;stroke-linecap:round;stroke-linejoin:round;stroke-width:6px"/><rect width="144" height="144" style="fill:none"/></svg>