<svg xmlns="http://www.w3.org/2000/svg" viewBox="0 0 144 144"><path d="M117,123V66a21,21,0,0,0-42,0v57" style="fill:none;stroke:#000;stroke-linecap:round;stroke-linejoin:round;stroke-width:6px"/><path d="M87,66a9,9,0,0,1,18,0v9H87Z" style="fill:none;stroke:#000;stroke-linecap:round;stroke-linejoin:round;stroke-width:6px"/><path d="M75,123V66a21,21,0,0,0-42,0v57" style="fill:none;stroke:#000;stroke-linecap:round;stroke-linejoin:round;stroke-width:6px"/><path d="M45,66a9,9,0,0,1,18,0v9H45Z" style="fill:none;stroke:#000;stroke-linecap:round;stroke-linejoin:round;stroke-width:6px"/><polyline points="18 48 3 42 6 24" style="fill:none;stroke:#000;stroke-linecap:round;stroke-linejoin:round;stroke-width:6px"/><path d="M141,41.6C125.1,30.9,100.1,24,72,24,43.8,24,18.9,31.2,3,42" style="fill:none;stroke:#000;stroke-linecap:round;stroke-linejoin:round;stroke-width:6px"/><rect width="144" height="144" style="fill:none"/></svg>