<svg xmlns="http://www.w3.org/2000/svg" viewBox="0 0 144 144"><path d="M33,129V72a21,21,0,0,1,42,0v57" style="fill:none;stroke:#000;stroke-linecap:round;stroke-linejoin:round;stroke-width:6px"/><path d="M63,72a9,9,0,0,0-18,0v9H63Z" style="fill:none;stroke:#000;stroke-linecap:round;stroke-linejoin:round;stroke-width:6px"/><path d="M75,129V66a21,21,0,0,1,42,0v63" style="fill:none;stroke:#000;stroke-linecap:round;stroke-linejoin:round;stroke-width:6px"/><path d="M105,66a9,9,0,0,0-18,0v9h18Z" style="fill:none;stroke:#000;stroke-linecap:round;stroke-linejoin:round;stroke-width:6px"/><path d="M21.2,70.7C18.7,46.2,44,28.6,66,39" style="fill:none;stroke:#000;stroke-linecap:round;stroke-linejoin:round;stroke-width:6px"/><path d="M78.1,35.3C103.3,19,136,42.4,127.8,71.9" style="fill:none;stroke:#000;stroke-linecap:round;stroke-linejoin:round;stroke-width:6px"/><rect width="144" height="144" style="fill:none"/></svg>