<svg xmlns="http://www.w3.org/2000/svg" viewBox="0 0 144 144"><path d="M15,33H72a21,21,0,0,1,0,42H15" style="fill:none;stroke:#000;stroke-linecap:round;stroke-linejoin:round;stroke-width:6px"/><path d="M72,63a9,9,0,0,0,0-18H63V63Z" style="fill:none;stroke:#000;stroke-linecap:round;stroke-linejoin:round;stroke-width:6px"/><path d="M15,75H72a21,21,0,0,1,0,42H15" style="fill:none;stroke:#000;stroke-linecap:round;stroke-linejoin:round;stroke-width:6px"/><path d="M72,105a9,9,0,0,0,0-18H63v18Z" style="fill:none;stroke:#000;stroke-linecap:round;stroke-linejoin:round;stroke-width:6px"/><polyline points="93 126 99 141 117 138" style="fill:none;stroke:#000;stroke-linecap:round;stroke-linejoin:round;stroke-width:6px"/><path d="M99.4,3C110.1,18.9,117,43.9,117,72c0,28.2-7.2,53.1-18,69" style="fill:none;stroke:#000;stroke-linecap:round;stroke-linejoin:round;stroke-width:6px"/><rect width="144" height="144" style="fill:none"/></svg>