<svg xmlns="http://www.w3.org/2000/svg" viewBox="0 0 144 144"><path d="M15,117H72a21,21,0,0,0,0-42H15" style="fill:none;stroke:#000;stroke-linecap:round;stroke-linejoin:round;stroke-width:6px"/><path d="M72,87a9,9,0,0,1,0,18H63V87Z" style="fill:none;stroke:#000;stroke-linecap:round;stroke-linejoin:round;stroke-width:6px"/><path d="M15,75H72a21,21,0,0,0,0-42H15" style="fill:none;stroke:#000;stroke-linecap:round;stroke-linejoin:round;stroke-width:6px"/><path d="M72,45a9,9,0,0,1,0,18H63V45Z" style="fill:none;stroke:#000;stroke-linecap:round;stroke-linejoin:round;stroke-width:6px"/><polyline points="93 17.9 99 3 117 5.9" style="fill:none;stroke:#000;stroke-linecap:round;stroke-linejoin:round;stroke-width:6px"/><path d="M99.4,141c10.7-15.9,17.6-40.9,17.6-69.1S109.8,18.9,99,3" style="fill:none;stroke:#000;stroke-linecap:round;stroke-linejoin:round;stroke-width:6px"/><rect width="144" height="144" style="fill:none"/></svg>