<svg xmlns="http://www.w3.org/2000/svg" viewBox="0 0 144 144"><path d="M117,81v48a12.0353,12.0353,0,0,1-12,12H39a12.0353,12.0353,0,0,1-12-12V81" style="fill:none;stroke:#000;stroke-linecap:round;stroke-linejoin:round;stroke-width:6px"/><polygon points="42 114 36 114 36 120 42 120 42 114" style="fill:#000"/><polygon points="54 114 48 114 48 120 54 120 54 114" style="fill:#000"/><polygon points="66 114 60 114 60 120 66 120 66 114" style="fill:#000"/><polygon points="78 114 72 114 72 120 78 120 78 114" style="fill:#000"/><polygon points="90 114 84 114 84 120 90 120 90 114" style="fill:#000"/><polygon points="102 114 96 114 96 120 102 120 102 114" style="fill:#000"/><polygon points="48 126 42 126 42 132 48 132 48 126" style="fill:#000"/><polygon points="60 126 54 126 54 132 60 132 60 126" style="fill:#000"/><polygon points="72 126 66 126 66 132 72 132 72 126" style="fill:#000"/><polygon points="84 126 78 126 78 132 84 132 84 126" style="fill:#000"/><polygon points="96 126 90 126 90 132 96 132 96 126" style="fill:#000"/><polygon points="108 126 102 126 102 132 108 132 108 126" style="fill:#000"/><line x1="27" y1="105" x2="117" y2="105" style="fill:none;stroke:#000;stroke-linecap:round;stroke-linejoin:round;stroke-width:6px"/><circle cx="27" cy="69" r="12" style="fill:none;stroke:#000;stroke-linecap:round;stroke-linejoin:round;stroke-width:6px"/><circle cx="117" cy="69" r="12" style="fill:none;stroke:#000;stroke-linecap:round;stroke-linejoin:round;stroke-width:6px"/><rect x="9" y="21" width="126" height="30" style="fill:none;stroke:#000;stroke-linecap:round;stroke-linejoin:round;stroke-width:6px"/><line x1="135" y1="15" x2="135" y2="57" style="fill:none;stroke:#000;stroke-linecap:round;stroke-linejoin:round;stroke-width:6px"/><line x1="9" y1="15" x2="9" y2="57" style="fill:none;stroke:#000;stroke-linecap:round;stroke-linejoin:round;stroke-width:6px"/><line x1="3" y1="33" x2="9" y2="33" style="fill:none;stroke:#000;stroke-linecap:round;stroke-linejoin:round;stroke-width:6px"/><line x1="135" y1="33" x2="141" y2="33" style="fill:none;stroke:#000;stroke-linecap:round;stroke-linejoin:round;stroke-width:6px"/><path d="M117,21V12c0-5-5.4-9-12-9H39c-6.6,0-12,4-12,9v9" style="fill:none;stroke:#000;stroke-linecap:round;stroke-linejoin:round;stroke-width:6px"/><path d="M109.9,78.7C101.9,83.7,90,93,72,93S42,83.7,34.1,78.7" style="fill:none;stroke:#000;stroke-linecap:round;stroke-linejoin:round;stroke-width:6px"/><rect width="144" height="144" style="fill:none"/></svg>