<svg xmlns="http://www.w3.org/2000/svg" viewBox="0 0 147 144"><polyline points="18 63 3 63 15 15 129 15 141 63 126 63" style="fill:none;stroke:#000;stroke-linecap:round;stroke-linejoin:round;stroke-width:6px"/><line x1="63" y1="63" x2="81" y2="63" style="fill:none;stroke:#000;stroke-linecap:round;stroke-linejoin:round;stroke-width:6px"/><line x1="24" y1="27" x2="30" y2="27" style="fill:none;stroke:#000;stroke-linecap:round;stroke-linejoin:round;stroke-width:6px"/><line x1="33" y1="39" x2="39" y2="39" style="fill:none;stroke:#000;stroke-linecap:round;stroke-linejoin:round;stroke-width:6px"/><line x1="51" y1="39" x2="57" y2="39" style="fill:none;stroke:#000;stroke-linecap:round;stroke-linejoin:round;stroke-width:6px"/><line x1="69" y1="39" x2="75" y2="39" style="fill:none;stroke:#000;stroke-linecap:round;stroke-linejoin:round;stroke-width:6px"/><line x1="87" y1="39" x2="93" y2="39" style="fill:none;stroke:#000;stroke-linecap:round;stroke-linejoin:round;stroke-width:6px"/><line x1="105" y1="39" x2="111" y2="39" style="fill:none;stroke:#000;stroke-linecap:round;stroke-linejoin:round;stroke-width:6px"/><line x1="42" y1="27" x2="48" y2="27" style="fill:none;stroke:#000;stroke-linecap:round;stroke-linejoin:round;stroke-width:6px"/><line x1="60" y1="27" x2="66" y2="27" style="fill:none;stroke:#000;stroke-linecap:round;stroke-linejoin:round;stroke-width:6px"/><line x1="78" y1="27" x2="84" y2="27" style="fill:none;stroke:#000;stroke-linecap:round;stroke-linejoin:round;stroke-width:6px"/><line x1="96" y1="27" x2="102" y2="27" style="fill:none;stroke:#000;stroke-linecap:round;stroke-linejoin:round;stroke-width:6px"/><line x1="114" y1="27" x2="120" y2="27" style="fill:none;stroke:#000;stroke-linecap:round;stroke-linejoin:round;stroke-width:6px"/><line x1="24" y1="51" x2="30" y2="51" style="fill:none;stroke:#000;stroke-linecap:round;stroke-linejoin:round;stroke-width:6px"/><line x1="42" y1="51" x2="48" y2="51" style="fill:none;stroke:#000;stroke-linecap:round;stroke-linejoin:round;stroke-width:6px"/><line x1="60" y1="51" x2="66" y2="51" style="fill:none;stroke:#000;stroke-linecap:round;stroke-linejoin:round;stroke-width:6px"/><line x1="78" y1="51" x2="84" y2="51" style="fill:none;stroke:#000;stroke-linecap:round;stroke-linejoin:round;stroke-width:6px"/><line x1="96" y1="51" x2="102" y2="51" style="fill:none;stroke:#000;stroke-linecap:round;stroke-linejoin:round;stroke-width:6px"/><line x1="114" y1="51" x2="120" y2="51" style="fill:none;stroke:#000;stroke-linecap:round;stroke-linejoin:round;stroke-width:6px"/><path d="M93.9,75.9,92.2,70a4.6222,4.6222,0,1,1,8.9-2.5l1.7,5.9" transform="translate(3)" style="fill:none;stroke:#000;stroke-linecap:round;stroke-linejoin:round;stroke-width:6px"/><path d="M107.8,91.1l-5.1-17.7a4.6222,4.6222,0,1,1,8.9-2.5l2.5,8.8" transform="translate(3)" style="fill:none;stroke:#000;stroke-linecap:round;stroke-linejoin:round;stroke-width:6px"/><path d="M117.9,93l-3.8-13.3a4.6222,4.6222,0,1,1,8.9-2.5l8.4,29.5a15.3181,15.3181,0,0,1-10.5,18.9l-9.8,2.8a15.4281,15.4281,0,0,1-14.4-3.3c-7.4-6.5-17.4-17.9-17.4-17.9a3.7375,3.7375,0,0,1,3.9-6.3l10.4,6.9L85.2,78.3a4.6222,4.6222,0,1,1,8.9-2.5L99,93.6" transform="translate(3)" style="fill:none;stroke:#000;stroke-linecap:round;stroke-linejoin:round;stroke-width:6px"/><path d="M44.1,75.9,45.8,70a4.6222,4.6222,0,1,0-8.9-2.5l-1.7,5.9" transform="translate(3)" style="fill:none;stroke:#000;stroke-linecap:round;stroke-linejoin:round;stroke-width:6px"/><path d="M30.2,91.1l5.1-17.7a4.6222,4.6222,0,1,0-8.9-2.5l-2.5,8.8" transform="translate(3)" style="fill:none;stroke:#000;stroke-linecap:round;stroke-linejoin:round;stroke-width:6px"/><path d="M20.1,93l3.8-13.3A4.6222,4.6222,0,1,0,15,77.2L6.6,106.7a15.3181,15.3181,0,0,0,10.5,18.9l9.8,2.8a15.4281,15.4281,0,0,0,14.4-3.3c7.4-6.5,17.4-17.9,17.4-17.9a3.7375,3.7375,0,0,0-3.9-6.3l-10.4,6.9,8.4-29.5a4.6222,4.6222,0,1,0-8.9-2.5L39,93.6" transform="translate(3)" style="fill:none;stroke:#000;stroke-linecap:round;stroke-linejoin:round;stroke-width:6px"/><rect x="3" width="144" height="144" style="fill:none"/></svg>