<svg xmlns="http://www.w3.org/2000/svg" viewBox="0 0 144 144"><path d="M104.9,38.9c0,24.1-65.8,24.1-65.8,0h0c-32.9,30-4.4,41-4.4,64.6a62.68,62.68,0,0,1-7.4,30.1,5.305,5.305,0,0,0,.1,4.9,4.9049,4.9049,0,0,0,4,2.5h81.8c1.7,0,3.2-1.4,4-2.8a5.2987,5.2987,0,0,0,.1-4.9,60.4406,60.4406,0,0,1-7.4-29.6c.1-23.6,27.9-34.8-5-64.8Z" style="fill:none;stroke:#000;stroke-linejoin:round;stroke-width:6px"/><line x1="39" y1="38.9" x2="39" y2="3" style="fill:none;stroke:#000;stroke-linecap:round;stroke-linejoin:round;stroke-width:6px"/><line x1="105" y1="38.9" x2="105" y2="3" style="fill:none;stroke:#000;stroke-linecap:round;stroke-linejoin:round;stroke-width:6px"/><rect width="144" height="144" style="fill:none"/></svg>