<svg xmlns="http://www.w3.org/2000/svg" viewBox="0 0 144 144"><path d="M78,57h9V69l15-12h12a27,27,0,0,0,0-54H78A27.015,27.015,0,0,0,51,30" style="fill:none;stroke:#000;stroke-linejoin:round;stroke-width:6px"/><path d="M36,97.1v13.1l-23.6,8.5A14.1307,14.1307,0,0,0,3,132.1V141H93v-8.9a14.1307,14.1307,0,0,0-9.4-13.4L60,110.2V96.3" style="fill:none;stroke:#000;stroke-linejoin:round;stroke-width:6px"/><ellipse cx="47.4" cy="72.3" rx="23.7" ry="28.4" style="fill:none;stroke:#000;stroke-linejoin:round;stroke-width:6px"/><path d="M71,69.8a16.3523,16.3523,0,0,0-2.2.2c-8.1,1.6-13.2-1.4-17.7-9.1C48.4,66,40.1,70,33.3,70a19.155,19.155,0,0,1-9.2-2.1" style="fill:none;stroke:#000;stroke-linejoin:round;stroke-width:6px"/><polygon points="120 30 114 30 114 36 120 36 120 30" style="fill:#000"/><polygon points="102 30 96 30 96 36 102 36 102 30" style="fill:#000"/><polygon points="84 30 78 30 78 36 84 36 84 30" style="fill:#000"/><rect width="144" height="144" style="fill:none"/></svg>