<svg xmlns="http://www.w3.org/2000/svg" viewBox="0 0 144 144"><polyline points="84 57 93 57 93 81 120 57 141 57 141 3 51 3 51 27" style="fill:none;stroke:#000;stroke-linecap:round;stroke-linejoin:round;stroke-width:6px"/><polygon points="120 30 114 30 114 36 120 36 120 30" style="fill:#000"/><polygon points="102 30 96 30 96 36 102 36 102 30" style="fill:#000"/><polygon points="84 30 78 30 78 36 84 36 84 30" style="fill:#000"/><path d="M36,97.9v12.3l-23.6,8.5A14.1307,14.1307,0,0,0,3,132.1V141H93v-8.9a14.1307,14.1307,0,0,0-9.4-13.4L60,110.2V97.9" style="fill:none;stroke:#000;stroke-linejoin:round;stroke-width:6px"/><ellipse cx="48" cy="73.4" rx="23.7" ry="28.4" style="fill:none;stroke:#000;stroke-linejoin:round;stroke-width:6px"/><path d="M71.5,70.9a16.3523,16.3523,0,0,0-2.2.2c-8.1,1.5-13.2-1.4-17.7-9.1-2.7,5.1-11,9.1-17.8,9.1a19.2289,19.2289,0,0,1-9.2-2.2" style="fill:none;stroke:#000;stroke-linejoin:round;stroke-width:6px"/><rect width="144" height="144" style="fill:none"/></svg>