<svg xmlns="http://www.w3.org/2000/svg" viewBox="0 0 144 144"><path d="M3,87v15c0,4.9,1.1,9,6,9v30H27V111c4.9,0,6-4.1,6-9V87Z" style="fill:none;stroke:#000;stroke-linejoin:round;stroke-width:6px"/><circle cx="18" cy="66" r="9" style="fill:none;stroke:#000;stroke-linejoin:round;stroke-width:6px"/><polygon points="51 63 72 63 72 84 93 63 141 63 141 3 51 3 51 63" style="fill:none;stroke:#000;stroke-linejoin:round;stroke-width:6px"/><polygon points="99 15 104.4 27 117 27 106.2 36.6 111.6 51 99 42 86.4 51 91.8 36.6 81 27 93.6 27 99 15" style="fill:none;stroke:#000;stroke-linejoin:round;stroke-width:6px"/><rect width="144" height="144" style="fill:none"/></svg>