<svg xmlns="http://www.w3.org/2000/svg" viewBox="0 0 144 144"><path d="M15,87v15c0,4.9,1,9,6,9v30H39V111c4.9,0,6-4.1,6-9V87Z" style="fill:none;stroke:#000;stroke-linejoin:round;stroke-width:6px"/><circle cx="30" cy="66" r="9" style="fill:none;stroke:#000;stroke-linejoin:round;stroke-width:6px"/><path d="M99,87v15c0,4.9,1,9,6,9v30h18V111c4.9,0,6-4.1,6-9V87Z" style="fill:none;stroke:#000;stroke-linejoin:round;stroke-width:6px"/><circle cx="114" cy="66" r="9" style="fill:none;stroke:#000;stroke-linejoin:round;stroke-width:6px"/><polygon points="39 39 57 39 57 54 72 39 105 39 105 3 39 3 39 39" style="fill:none;stroke:#000;stroke-linejoin:round;stroke-width:6px"/><line x1="51" y1="27.1" x2="81" y2="27.1" style="fill:none;stroke:#000;stroke-linecap:round;stroke-linejoin:round;stroke-width:6px"/><line x1="51" y1="15.1" x2="93" y2="15.1" style="fill:none;stroke:#000;stroke-linecap:round;stroke-linejoin:round;stroke-width:6px"/><rect width="144" height="144" style="fill:none"/></svg>