<svg xmlns="http://www.w3.org/2000/svg" viewBox="0 0 144 144"><path d="M3,87v15c0,4.9,1.1,9,6,9v30H27V111c4.9,0,6-4.1,6-9V87Z" style="fill:none;stroke:#000;stroke-linejoin:round;stroke-width:6px"/><circle cx="18" cy="66" r="9" style="fill:none;stroke:#000;stroke-linejoin:round;stroke-width:6px"/><polygon points="51 81 69 81 69 102 90 81 141 81 141 3 51 3 51 81" style="fill:none;stroke:#000;stroke-linejoin:round;stroke-width:6px"/><path d="M96,12A27.015,27.015,0,0,0,69,39v3A12.0353,12.0353,0,0,0,81,54v3A12.0353,12.0353,0,0,0,93,69h6a12.0353,12.0353,0,0,0,12-12V54a12.0353,12.0353,0,0,0,12-12V39A27.015,27.015,0,0,0,96,12Z" style="fill:none;stroke:#000;stroke-linecap:round;stroke-linejoin:round;stroke-width:6px"/><circle cx="84" cy="33" r="6" style="fill:none;stroke:#000;stroke-linecap:round;stroke-linejoin:round;stroke-width:6px"/><circle cx="108" cy="33" r="6" style="fill:none;stroke:#000;stroke-linecap:round;stroke-linejoin:round;stroke-width:6px"/><rect width="144" height="144" style="fill:none"/></svg>