<svg xmlns="http://www.w3.org/2000/svg" viewBox="0 0 144 144"><circle cx="66.7" cy="77.4" r="5.9" style="fill:none;stroke:#000;stroke-linejoin:round;stroke-width:6px"/><path d="M111.7,3C100.2,3,91.6,9.4,86.3,18.9a22.1,22.1,0,0,0-12.9-4.2C61,14.7,51,25,51,37.6A22.5791,22.5791,0,0,0,73.4,60.4h.8A22.0981,22.0981,0,0,0,106.8,65a31.7918,31.7918,0,0,0,6.2.6c16.9,0,28-14,28-31.3S128.6,3,111.7,3Z" style="fill:none;stroke:#000;stroke-linejoin:round;stroke-width:6px"/><circle cx="76.4" cy="40" r="2" style="fill:none;stroke:#000;stroke-linejoin:round;stroke-width:6px"/><circle cx="96" cy="40.2" r="2" style="fill:none;stroke:#000;stroke-linejoin:round;stroke-width:6px"/><circle cx="115.6" cy="40.2" r="2" style="fill:none;stroke:#000;stroke-linejoin:round;stroke-width:6px"/><circle cx="53" cy="91" r="2" style="fill:none;stroke:#000;stroke-linejoin:round;stroke-width:6px"/><path d="M3,87v15c0,4.9,1.1,9,6,9v30H27V111c4.9,0,6-4.1,6-9V87Z" style="fill:none;stroke:#000;stroke-linejoin:round;stroke-width:6px"/><circle cx="18" cy="66" r="9" style="fill:none;stroke:#000;stroke-linejoin:round;stroke-width:6px"/><rect width="144" height="144" style="fill:none"/></svg>