<svg xmlns="http://www.w3.org/2000/svg" viewBox="0 0 144 144"><path d="M3,87v15c0,4.9,1.1,9,6,9v30H27V111c4.9,0,6-4.1,6-9V87Z" style="fill:none;stroke:#000;stroke-linejoin:round;stroke-width:6px"/><circle cx="18" cy="66" r="9" style="fill:none;stroke:#000;stroke-linejoin:round;stroke-width:6px"/><polygon points="51 63 69 63 69 84 90 63 141 63 141 3 51 3 51 63" style="fill:none;stroke:#000;stroke-linejoin:round;stroke-width:6px"/><path d="M87,46.7a3,3,0,1,0,3,3,3.0085,3.0085,0,0,0-3-3Z" style="fill:#000"/><path d="M78.1,24.1A8.9,8.9,0,1,1,87,33v6" style="fill:none;stroke:#000;stroke-linecap:round;stroke-linejoin:round;stroke-width:6px"/><line x1="108" y1="15" x2="108" y2="39" style="fill:none;stroke:#000;stroke-linecap:round;stroke-linejoin:round;stroke-width:6px"/><path d="M108,48a3.3,3.3,0,1,0,3.3,3.3A3.3293,3.3293,0,0,0,108,48Z" style="fill:#000"/><rect width="144" height="144" style="fill:none"/></svg>