<svg xmlns="http://www.w3.org/2000/svg" viewBox="0 0 144 144"><path d="M3,87v15c0,4.9,1.1,9,6,9v30H27V111c4.9,0,6-4.1,6-9V87Z" style="fill:none;stroke:#000;stroke-linejoin:round;stroke-width:6px"/><circle cx="18" cy="66" r="9" style="fill:none;stroke:#000;stroke-linejoin:round;stroke-width:6px"/><polygon points="51 69 69 69 69 90 90 69 141 69 141 3 51 3 51 69" style="fill:none;stroke:#000;stroke-linejoin:round;stroke-width:6px"/><polygon points="126 57 72 57 99 12 126 57" style="fill:none;stroke:#000;stroke-linecap:round;stroke-linejoin:round;stroke-width:6px"/><line x1="99" y1="30" x2="99" y2="39" style="fill:none;stroke:#000;stroke-linecap:round;stroke-linejoin:round;stroke-width:6px"/><path d="M99,45a3,3,0,0,0,0,6,3,3,0,0,0,0-6Z" style="fill:#000"/><rect width="144" height="144" style="fill:none"/></svg>