<svg xmlns="http://www.w3.org/2000/svg" viewBox="0 0 144 144"><path d="M36,97.2v13l-23.6,8.5A14.1307,14.1307,0,0,0,3,132.1V141H93v-8.9a14.1307,14.1307,0,0,0-9.4-13.4L60,110.2V96.4" style="fill:none;stroke:#000;stroke-linejoin:round;stroke-width:6px"/><ellipse cx="47.4" cy="72.3" rx="23.7" ry="28.4" style="fill:none;stroke:#000;stroke-linejoin:round;stroke-width:6px"/><path d="M70.9,69.8a14.9189,14.9189,0,0,0-2.1.2c-8.1,1.6-13.2-1.4-17.7-9.1C48.4,66,40.1,70,33.3,70a19.155,19.155,0,0,1-9.2-2.1" style="fill:none;stroke:#000;stroke-linejoin:round;stroke-width:6px"/><path d="M63,39C63,19.1,80.5,3,102,3s39,16.1,39,36c0,15-9.9,27.8-24,33.2C114,75,96,90,93,93V74.6a39.327,39.327,0,0,1-9.1-2.4" style="fill:none;stroke:#000;stroke-linejoin:round;stroke-width:6px"/><polygon points="120 39 114 39 114 45 120 45 120 39" style="fill:#000"/><polygon points="105 39 99 39 99 45 105 45 105 39" style="fill:#000"/><polygon points="90 39 84 39 84 45 90 45 90 39" style="fill:#000"/><rect width="144" height="144" style="fill:none"/></svg>