<svg xmlns="http://www.w3.org/2000/svg" viewBox="0 0 144 144"><path d="M3,87v15c0,4.9,1.1,9,6,9v30H27V111c4.9,0,6-4.1,6-9V87Z" style="fill:none;stroke:#000;stroke-linecap:round;stroke-linejoin:round;stroke-width:6px"/><circle cx="18" cy="66" r="9" style="fill:none;stroke:#000;stroke-linecap:round;stroke-linejoin:round;stroke-width:6px"/><path d="M141,39c0-19.9-20.1-36-45-36S51,19.1,51,39c0,19.1,18.6,34.6,42,35.9V96l26.2-26.2C132.2,63.5,141,52.1,141,39Z" style="fill:none;stroke:#000;stroke-linecap:round;stroke-linejoin:round;stroke-width:6px"/><line x1="75" y1="27" x2="117" y2="27" style="fill:none;stroke:#000;stroke-linecap:round;stroke-linejoin:round;stroke-width:6px"/><line x1="75" y1="39" x2="117" y2="39" style="fill:none;stroke:#000;stroke-linecap:round;stroke-linejoin:round;stroke-width:6px"/><line x1="75" y1="51" x2="105" y2="51" style="fill:none;stroke:#000;stroke-linecap:round;stroke-linejoin:round;stroke-width:6px"/><rect width="144" height="144" style="fill:none"/></svg>