<svg xmlns="http://www.w3.org/2000/svg" viewBox="0 0 144 144"><path d="M63,39C63,19.1,80.5,3,102,3s39,16.1,39,36c0,15-9.9,27.8-24,33.2C114,75,96,90,93,93V74.6a39.327,39.327,0,0,1-9.1-2.4" style="fill:none;stroke:#000;stroke-linejoin:round;stroke-width:6px"/><polygon points="120 36 114 36 114 42 120 42 120 36" style="fill:#000"/><polygon points="105 36 99 36 99 42 105 42 105 36" style="fill:#000"/><polygon points="90 36 84 36 84 42 90 42 90 36" style="fill:#000"/><path d="M47.5,141H93V126c0-3-18-12-33-18V96s6-2.1,6-15c4.2,0,6-12,.2-12,0-1.3,4.6-7.8,2.8-15-3-12-33-12-36,0-12.6-2.6-3,13.3-3,15-6,0-4.2,12,0,12,0,12.9,6,15,6,15v12c-15,6-33,15-33,18v15Z" style="fill:none;stroke:#000;stroke-linejoin:round;stroke-width:6px"/><rect width="144" height="144" style="fill:none"/></svg>