<svg xmlns="http://www.w3.org/2000/svg" viewBox="0 0 144.0224 144.1"><path d="M81,62.9a16.498,16.498,0,0,0,15,9c6.2,0,11.7-4.2,15-9,42,0,38.2-60-.6-60-8.6,0-14.8,3.3-20.4,9-16-8-34.4,1.9-38.3,17.8" transform="translate(0 0.1)" style="fill:none;stroke:#000;stroke-linejoin:round;stroke-width:6px"/><path d="M47.5,140.9H93v-15c0-3-18-12-33-18v-12s6-2.1,6-15c4.2,0,6-12,.2-12,0-1.3,4.6-7.8,2.8-15-3-12-33-12-36,0-12.6-2.6-3,13.3-3,15-6,0-4.2,12,0,12,0,12.9,6,15,6,15v12c-15,6-33,15-33,18v15Z" transform="translate(0 0.1)" style="fill:none;stroke:#000;stroke-linejoin:round;stroke-width:6px"/><circle cx="102" cy="90" r="6" style="fill:none;stroke:#000;stroke-linejoin:round;stroke-width:6px"/><path d="M84,35.9a2.9465,2.9465,0,0,1-3,3h0a2.9465,2.9465,0,0,1-3-3h0a2.9465,2.9465,0,0,1,3-3h0a2.9465,2.9465,0,0,1,3,3Z" transform="translate(0 0.1)" style="fill:none;stroke:#000;stroke-linejoin:round;stroke-width:6px"/><path d="M84,98.9a2.9465,2.9465,0,0,1-3,3h0a2.9465,2.9465,0,0,1-3-3h0a2.9465,2.9465,0,0,1,3-3h0a2.9465,2.9465,0,0,1,3,3Z" transform="translate(0 0.1)" style="fill:none;stroke:#000;stroke-linejoin:round;stroke-width:6px"/><path d="M102,35.9a2.9465,2.9465,0,0,1-3,3h0a2.9465,2.9465,0,0,1-3-3h0a2.9465,2.9465,0,0,1,3-3h0a2.9465,2.9465,0,0,1,3,3Z" transform="translate(0 0.1)" style="fill:none;stroke:#000;stroke-linejoin:round;stroke-width:6px"/><path d="M120,35.9a2.9465,2.9465,0,0,1-3,3h0a2.9465,2.9465,0,0,1-3-3h0a2.9465,2.9465,0,0,1,3-3h0a2.9465,2.9465,0,0,1,3,3Z" transform="translate(0 0.1)" style="fill:none;stroke:#000;stroke-linejoin:round;stroke-width:6px"/><rect y="0.1" width="144" height="144" style="fill:none"/></svg>