<svg xmlns="http://www.w3.org/2000/svg" viewBox="0 0 144 144"><path d="M3,87v15c0,4.9,1.1,9,6,9v30H27V111c4.9,0,6-4.1,6-9V87Z" style="fill:none;stroke:#000;stroke-linejoin:round;stroke-width:6px"/><circle cx="18" cy="66" r="9" style="fill:none;stroke:#000;stroke-linejoin:round;stroke-width:6px"/><polygon points="51 75 69 75 69 96 90 75 141 75 141 3 51 3 51 75" style="fill:none;stroke:#000;stroke-linejoin:round;stroke-width:6px"/><path d="M96,64.2S123,44.6,123,30c0-16.8-22.1-22.1-27-1.7C91.1,7.9,69,13.2,69,30,69,44.6,96,64.2,96,64.2Z" style="fill:none;stroke:#000;stroke-linejoin:round;stroke-width:6px"/><rect width="144" height="144" style="fill:none"/></svg>