<svg xmlns="http://www.w3.org/2000/svg" viewBox="0 0 147.0224 144.1"><path d="M34.5,97.8v12.7l-23.6,8.4a13.9706,13.9706,0,0,0-9.4,13.2v8.8h90v-8.8a13.9706,13.9706,0,0,0-9.4-13.2l-23.6-8.4V96.7" transform="translate(1.5 0.1)" style="fill:none;stroke:#000;stroke-linejoin:round;stroke-width:6px"/><ellipse cx="47.4" cy="73.1" rx="23.7" ry="28.1" style="fill:none;stroke:#000;stroke-linejoin:round;stroke-width:6px"/><path d="M69.4,70.5a14.9189,14.9189,0,0,0-2.1.2c-8.1,1.5-13.2-1.4-17.7-9-2.7,5-11,9-17.8,9a19.2289,19.2289,0,0,1-9.2-2.2" transform="translate(1.5 0.1)" style="fill:none;stroke:#000;stroke-linejoin:round;stroke-width:6px"/><path d="M82.5,62.9a16.498,16.498,0,0,0,15,9c6.2,0,11.7-4.2,15-9,42,0,38.2-60-.6-60-8.6,0-14.8,3.3-20.4,9-16-8-34.4,1.9-38.3,17.8" transform="translate(1.5 0.1)" style="fill:none;stroke:#000;stroke-linejoin:round;stroke-width:6px"/><circle cx="105" cy="90" r="6" style="fill:none;stroke:#000;stroke-linejoin:round;stroke-width:6px"/><path d="M85.5,35.9a2.9465,2.9465,0,0,1-3,3h0a2.9465,2.9465,0,0,1-3-3h0a2.9465,2.9465,0,0,1,3-3h0a2.9465,2.9465,0,0,1,3,3Z" transform="translate(1.5 0.1)" style="fill:none;stroke:#000;stroke-linejoin:round;stroke-width:6px"/><path d="M85.5,98.9a2.9465,2.9465,0,0,1-3,3h0a2.9465,2.9465,0,0,1-3-3h0a2.9465,2.9465,0,0,1,3-3h0a2.9465,2.9465,0,0,1,3,3Z" transform="translate(1.5 0.1)" style="fill:none;stroke:#000;stroke-linejoin:round;stroke-width:6px"/><path d="M103.5,35.9a2.9465,2.9465,0,0,1-3,3h0a2.9465,2.9465,0,0,1-3-3h0a2.9465,2.9465,0,0,1,3-3h0a2.9465,2.9465,0,0,1,3,3Z" transform="translate(1.5 0.1)" style="fill:none;stroke:#000;stroke-linejoin:round;stroke-width:6px"/><path d="M121.5,35.9a2.9465,2.9465,0,0,1-3,3h0a2.9465,2.9465,0,0,1-3-3h0a2.9465,2.9465,0,0,1,3-3h0a2.9465,2.9465,0,0,1,3,3Z" transform="translate(1.5 0.1)" style="fill:none;stroke:#000;stroke-linejoin:round;stroke-width:6px"/><rect x="1.5" y="0.1" width="144" height="144" style="fill:none"/></svg>