<svg xmlns="http://www.w3.org/2000/svg" viewBox="0 0 144 144"><polyline points="84 57 93 57 93 81 120 57 141 57 141 3 51 3 51 27" style="fill:none;stroke:#000;stroke-linecap:round;stroke-linejoin:round;stroke-width:6px"/><polygon points="120 30 114 30 114 36 120 36 120 30" style="fill:#000"/><polygon points="102 30 96 30 96 36 102 36 102 30" style="fill:#000"/><polygon points="84 30 78 30 78 36 84 36 84 30" style="fill:#000"/><path d="M46.6,141H93V126c0-3-18-12-33-18V96s5.5-2.1,5.5-15c4.2,0,5.8-12,0-12,0-1.3,4.5-7.8,2.7-15-3-12-32.6-12-35.6,0C20,51.4,30,67.3,30,69c-6,0-6,12,0,12,0,12.9,6,15,6,15v12c-15,6-33,15-33,18v15Z" style="fill:none;stroke:#000;stroke-linejoin:round;stroke-width:6px"/><rect width="144" height="144" style="fill:none"/></svg>