<svg xmlns="http://www.w3.org/2000/svg" viewBox="0 0 144 144"><path d="M3,87v15c0,4.9,1.1,9,6,9v30H27V111c4.9,0,6-4.1,6-9V87Z" style="fill:none;stroke:#000;stroke-linejoin:round;stroke-width:6px"/><circle cx="18" cy="66" r="9" style="fill:none;stroke:#000;stroke-linejoin:round;stroke-width:6px"/><polygon points="51 63 69 63 69 84 90 63 141 63 141 3 51 3 51 63" style="fill:none;stroke:#000;stroke-linejoin:round;stroke-width:6px"/><path d="M92,40.5a7,7,0,1,0,7-7,7,7,0,1,1,7-7" style="fill:none;stroke:#000;stroke-linecap:round;stroke-linejoin:round;stroke-width:6px"/><line x1="99" y1="47.5" x2="99" y2="52.1" style="fill:none;stroke:#000;stroke-linecap:round;stroke-linejoin:round;stroke-width:6px"/><line x1="99" y1="15" x2="99" y2="19.6" style="fill:none;stroke:#000;stroke-linecap:round;stroke-linejoin:round;stroke-width:6px"/><rect width="144" height="144" style="fill:none"/></svg>