<svg xmlns="http://www.w3.org/2000/svg" viewBox="0 0 144 144"><path d="M21,117V51C21,22.8,43.8,9,72,9s51,13.8,51,42v66" style="fill:none;stroke:#000;stroke-linecap:round;stroke-linejoin:round;stroke-width:6px"/><rect x="15" y="117" width="114" height="12" style="fill:none;stroke:#000;stroke-linecap:round;stroke-linejoin:round;stroke-width:6px"/><line x1="27" y1="33" x2="117" y2="33" style="fill:none;stroke:#000;stroke-linecap:round;stroke-linejoin:round;stroke-width:6px"/><line x1="72" y1="33" x2="72" y2="63" style="fill:none;stroke:#000;stroke-linecap:round;stroke-linejoin:round;stroke-width:6px"/><path d="M123,64.1A63.1362,63.1362,0,0,0,72.6,117" style="fill:none;stroke:#000;stroke-linecap:round;stroke-linejoin:round;stroke-width:6px"/><path d="M71.4,117A63.1362,63.1362,0,0,0,21,64.1" style="fill:none;stroke:#000;stroke-linecap:round;stroke-linejoin:round;stroke-width:6px"/><circle cx="42" cy="99" r="9" style="fill:none;stroke:#000;stroke-linecap:round;stroke-linejoin:round;stroke-width:6px"/><circle cx="102" cy="99" r="9" style="fill:none;stroke:#000;stroke-linecap:round;stroke-linejoin:round;stroke-width:6px"/><path d="M21,60H12a8.9626,8.9626,0,0,0-9,9,9.0854,9.0854,0,0,0,3.1,6.8L21,87" style="fill:none;stroke:#000;stroke-linecap:round;stroke-linejoin:round;stroke-width:6px"/><line x1="123" y1="63" x2="21" y2="63" style="fill:none;stroke:#000;stroke-linecap:round;stroke-linejoin:round;stroke-width:6px"/><path d="M123,87l14.9-11.2A9.0025,9.0025,0,0,0,132,60h-9" style="fill:none;stroke:#000;stroke-linecap:round;stroke-linejoin:round;stroke-width:6px"/><path d="M30,129.1v7.4c0,2.5,3.5,4.5,6,4.5s6-2,6-4.5V129" style="fill:none;stroke:#000;stroke-linecap:round;stroke-linejoin:round;stroke-width:6px"/><path d="M102,129.1v7.4c0,2.5,3.5,4.5,6,4.5s6-2,6-4.5V129" style="fill:none;stroke:#000;stroke-linecap:round;stroke-linejoin:round;stroke-width:6px"/><rect width="144" height="144" style="fill:none"/></svg>