<svg xmlns="http://www.w3.org/2000/svg" viewBox="0 0 144 144"><path d="M51,123a18,18,0,0,1-36,0" style="fill:none;stroke:#000;stroke-linecap:round;stroke-linejoin:round;stroke-width:6px"/><path d="M103.8,96H117c13.3,0,24,9.4,24,21H88.8" style="fill:none;stroke:#000;stroke-linecap:round;stroke-linejoin:round;stroke-width:6px"/><path d="M69,87a6.0176,6.0176,0,0,1-6,6H21L9,81V75H69Z" style="fill:none;stroke:#000;stroke-linecap:round;stroke-linejoin:round;stroke-width:6px"/><path d="M117,78a12,12,0,0,1,0-24Z" style="fill:none;stroke:#000;stroke-linecap:round;stroke-linejoin:round;stroke-width:6px"/><path d="M87,45h9a8.9626,8.9626,0,0,1,9,9V87a35.9773,35.9773,0,0,1-36,36H3A29.96,29.96,0,0,1,33,93H48a29.9376,29.9376,0,0,1,29.8,26.8l.1,2.1" style="fill:none;stroke:#000;stroke-linecap:round;stroke-linejoin:round;stroke-width:6px"/><path d="M100,117a17.1841,17.1841,0,0,0-1,6,18,18,0,0,0,36,0,17.2523,17.2523,0,0,0-1.1-6" style="fill:none;stroke:#000;stroke-linecap:round;stroke-linejoin:round;stroke-width:6px"/><rect width="144" height="144" style="fill:none"/></svg>