<svg xmlns="http://www.w3.org/2000/svg" viewBox="0 0 144 144"><polyline points="45 27 33 27 33 66 39 90.2 27 129 60.2 129 69 102 78.4 129 111 129 99 90.4 105 66 105 27 93 27" style="fill:none;stroke:#000;stroke-linecap:round;stroke-linejoin:round;stroke-width:6px"/><path d="M69,72C57.4,55.1,45,27,45,27l6.4-6h35l6.5,6S80,52.8,69,72Z" style="fill:none;stroke:#000;stroke-linecap:round;stroke-linejoin:round;stroke-width:6px"/><path d="M87,96a3,3,0,1,0,3,3,3.0085,3.0085,0,0,0-3-3Z" style="fill:#000"/><path d="M87,108a3,3,0,1,0,3,3,3.0085,3.0085,0,0,0-3-3Z" style="fill:#000"/><path d="M51,96a3,3,0,1,0,3,3,3.0085,3.0085,0,0,0-3-3Z" style="fill:#000"/><path d="M51,108a3,3,0,1,0,3,3,3.0085,3.0085,0,0,0-3-3Z" style="fill:#000"/><line x1="69" y1="102" x2="69" y2="72" style="fill:none;stroke:#000;stroke-linecap:round;stroke-linejoin:round;stroke-width:6px"/><polyline points="105 57.5 117.5 69.5 134.8 51 105 27" style="fill:none;stroke:#000;stroke-linecap:round;stroke-linejoin:round;stroke-width:6px"/><polyline points="33 57.5 20.3 69.5 3.1 51 33 27" style="fill:none;stroke:#000;stroke-linecap:round;stroke-linejoin:round;stroke-width:6px"/><rect width="144" height="144" style="fill:none"/></svg>