<svg xmlns="http://www.w3.org/2000/svg" viewBox="0 0 144 144"><path d="M105,111a6.0176,6.0176,0,0,1-6,6H15a6.0176,6.0176,0,0,1-6-6V63a6.0176,6.0176,0,0,1,6-6H99a6.0176,6.0176,0,0,1,6,6Z" style="fill:none;stroke:#000;stroke-linecap:round;stroke-linejoin:round;stroke-width:6px"/><circle cx="36" cy="84" r="9" style="fill:none;stroke:#000;stroke-linecap:round;stroke-linejoin:round;stroke-width:6px"/><circle cx="78" cy="84" r="9" style="fill:none;stroke:#000;stroke-linecap:round;stroke-linejoin:round;stroke-width:6px"/><line x1="36" y1="75" x2="78" y2="75" style="fill:none;stroke:#000;stroke-linecap:round;stroke-linejoin:round;stroke-width:6px"/><path d="M3,39H63a6.0176,6.0176,0,0,1,6,6V57" style="fill:none;stroke:#000;stroke-linecap:round;stroke-linejoin:round;stroke-width:6px"/><path d="M93,57V39a6.0176,6.0176,0,0,1,6-6h12" style="fill:none;stroke:#000;stroke-linecap:round;stroke-linejoin:round;stroke-width:6px"/><path d="M141,33a6.0176,6.0176,0,0,1-6,6H117a6,6,0,0,1,0-12h18A6.0176,6.0176,0,0,1,141,33Z" style="fill:none;stroke:#000;stroke-linecap:round;stroke-linejoin:round;stroke-width:6px"/><path d="M105,78l31.5-13.1a3.265,3.265,0,0,1,4.5,3v38.3a3.239,3.239,0,0,1-4.5,3L105,96" style="fill:none;stroke:#000;stroke-linecap:round;stroke-linejoin:round;stroke-width:6px"/><rect width="144" height="144" style="fill:none"/></svg>