<svg xmlns="http://www.w3.org/2000/svg" viewBox="0 0 144 144"><polygon points="123 45 81 45 81 3 123 3 123 18 141 9 141 39 123 30 123 45" style="fill:none;stroke:#000;stroke-linecap:round;stroke-linejoin:round;stroke-width:6px"/><line x1="30" y1="141" x2="84" y2="141" style="fill:none;stroke:#000;stroke-linecap:round;stroke-linejoin:round;stroke-width:6px"/><line x1="57" y1="129" x2="57" y2="141" style="fill:none;stroke:#000;stroke-linecap:round;stroke-linejoin:round;stroke-width:6px"/><line x1="3" y1="111" x2="111" y2="111" style="fill:none;stroke:#000;stroke-linecap:round;stroke-linejoin:round;stroke-width:6px"/><path d="M111,57v62.5a9.2077,9.2077,0,0,1-9,9.5H12a8.9626,8.9626,0,0,1-9-9V48.5A9.2077,9.2077,0,0,1,12,39H69" style="fill:none;stroke:#000;stroke-linecap:round;stroke-linejoin:round;stroke-width:6px"/><path d="M27,111v-3a8.3669,8.3669,0,0,1,5.8-7.6L48,96V87.6" style="fill:none;stroke:#000;stroke-linecap:round;stroke-linejoin:round;stroke-width:6px"/><path d="M66,87.6V96l15.2,4.4A8.3669,8.3669,0,0,1,87,108v3" style="fill:none;stroke:#000;stroke-linecap:round;stroke-linejoin:round;stroke-width:6px"/><ellipse cx="57" cy="70.6" rx="18" ry="19.6" style="fill:none;stroke:#000;stroke-linecap:round;stroke-linejoin:round;stroke-width:6px"/><path d="M74.7,67.3c-3,3-11.5,2.8-14.7-3.3-6,6-15.8,6-20.6,2.6" style="fill:none;stroke:#000;stroke-linecap:round;stroke-linejoin:round;stroke-width:6px"/><rect width="144" height="144" style="fill:none"/></svg>