<svg xmlns="http://www.w3.org/2000/svg" viewBox="0 0 144 144"><path d="M105,123a6.0176,6.0176,0,0,1-6,6H15a6.0176,6.0176,0,0,1-6-6V75a6.0176,6.0176,0,0,1,6-6H99a6.0176,6.0176,0,0,1,6,6Z" style="fill:none;stroke:#000;stroke-linejoin:round;stroke-width:6px"/><line x1="27" y1="87" x2="87" y2="87" style="fill:none;stroke:#000;stroke-linecap:round;stroke-linejoin:round;stroke-width:6px"/><circle cx="27" cy="33" r="24" style="fill:none;stroke:#000;stroke-linecap:round;stroke-linejoin:round;stroke-width:6px"/><circle cx="78" cy="42" r="15" style="fill:none;stroke:#000;stroke-linecap:round;stroke-linejoin:round;stroke-width:6px"/><path d="M105,108l30.5,12.7c3,1.3,5.5-.4,5.5-3.7V81c0-3.3-2.5-5-5.5-3.7L105,90" style="fill:none;stroke:#000;stroke-linecap:round;stroke-linejoin:round;stroke-width:6px"/><rect width="144" height="144" style="fill:none"/></svg>