<svg xmlns="http://www.w3.org/2000/svg" viewBox="0 0 144 144"><path d="M141,123a18.0529,18.0529,0,0,1-18,18H21A18.0529,18.0529,0,0,1,3,123V21A18.0529,18.0529,0,0,1,21,3H123a18.0529,18.0529,0,0,1,18,18Z" style="fill:none;stroke:#000;stroke-linecap:round;stroke-linejoin:round;stroke-width:6px"/><circle cx="72" cy="99" r="24" style="fill:none;stroke:#000;stroke-linecap:round;stroke-linejoin:round;stroke-width:6px"/><polyline points="96 99 123 99 123 21 21 21 21 99 48 99" style="fill:none;stroke:#000;stroke-linecap:round;stroke-linejoin:round;stroke-width:6px"/><line x1="21" y1="123" x2="39" y2="123" style="fill:none;stroke:#000;stroke-linecap:round;stroke-linejoin:round;stroke-width:6px"/><line x1="105" y1="123" x2="123" y2="123" style="fill:none;stroke:#000;stroke-linecap:round;stroke-linejoin:round;stroke-width:6px"/><polygon points="63 108 63 90 81 99 63 108" style="fill:none;stroke:#000;stroke-linecap:round;stroke-linejoin:round;stroke-width:6px"/><rect width="144" height="144" style="fill:none"/></svg>