<svg xmlns="http://www.w3.org/2000/svg" viewBox="0 0 144 144"><path d="M141,126.6a8.5593,8.5593,0,0,1-8.6,8.4H11.6A8.4948,8.4948,0,0,1,3,126.6V51H141Z" style="fill:none;stroke:#000;stroke-linejoin:round;stroke-width:6px"/><polygon points="51 117 51 69 99 93 51 117" style="fill:none;stroke:#000;stroke-linejoin:round;stroke-width:6px"/><path d="M141,39H3V15A6.0176,6.0176,0,0,1,9,9H135a6.0176,6.0176,0,0,1,6,6Z" style="fill:none;stroke:#000;stroke-linejoin:round;stroke-width:6px"/><line x1="3" y1="36" x2="30" y2="9" style="fill:none;stroke:#000;stroke-linejoin:round;stroke-width:6px"/><line x1="21" y1="39" x2="51" y2="9" style="fill:none;stroke:#000;stroke-linejoin:round;stroke-width:6px"/><line x1="45" y1="39" x2="75" y2="9" style="fill:none;stroke:#000;stroke-linejoin:round;stroke-width:6px"/><line x1="69" y1="39" x2="99" y2="9" style="fill:none;stroke:#000;stroke-linejoin:round;stroke-width:6px"/><line x1="93" y1="39" x2="123" y2="9" style="fill:none;stroke:#000;stroke-linejoin:round;stroke-width:6px"/><line x1="117" y1="39" x2="141" y2="15" style="fill:none;stroke:#000;stroke-linejoin:round;stroke-width:6px"/><rect width="144" height="144" style="fill:none"/></svg>