<svg xmlns="http://www.w3.org/2000/svg" viewBox="0 0 144 144"><path d="M42,75V72a8.3669,8.3669,0,0,1,5.8-7.6L63,60V51.6" style="fill:none;stroke:#000;stroke-linejoin:round;stroke-width:6px"/><path d="M81,51.6V60l15.2,4.4A8.3669,8.3669,0,0,1,102,72v3" style="fill:none;stroke:#000;stroke-linejoin:round;stroke-width:6px"/><ellipse cx="72" cy="34.6" rx="18" ry="19.6" style="fill:none;stroke:#000;stroke-linejoin:round;stroke-width:6px"/><path d="M89.7,31.3c-3,3-11.5,2.8-14.7-3.3-6,6-15.8,6-20.6,2.6" style="fill:none;stroke:#000;stroke-linejoin:round;stroke-width:6px"/><circle cx="27" cy="102.1" r="15" style="fill:none;stroke:#000;stroke-linecap:round;stroke-linejoin:round;stroke-width:6px"/><circle cx="72" cy="102.1" r="15" style="fill:none;stroke:#000;stroke-linecap:round;stroke-linejoin:round;stroke-width:6px"/><circle cx="117" cy="102.1" r="15" style="fill:none;stroke:#000;stroke-linecap:round;stroke-linejoin:round;stroke-width:6px"/><path d="M117,117a23.9656,23.9656,0,0,0-22.5,15.9,23.87,23.87,0,0,0-45,0A23.9656,23.9656,0,0,0,27,117c-13.3,0-24,12-24,24H141C141,129,130.3,117,117,117Z" style="fill:none;stroke:#000;stroke-linecap:round;stroke-linejoin:round;stroke-width:6px"/><path d="M123,63a12.0353,12.0353,0,0,1-12,12H33A12.0353,12.0353,0,0,1,21,63V15A12.0353,12.0353,0,0,1,33,3h78a12.0353,12.0353,0,0,1,12,12Z" style="fill:none;stroke:#000;stroke-linecap:round;stroke-linejoin:round;stroke-width:6px"/><rect width="144" height="144" style="fill:none"/></svg>