<svg xmlns="http://www.w3.org/2000/svg" viewBox="0 0 144 144"><path d="M99,57v72a12.0353,12.0353,0,0,1-12,12H21A12.0353,12.0353,0,0,1,9,129V27A12.0353,12.0353,0,0,1,21,15H63" style="fill:none;stroke:#000;stroke-linecap:round;stroke-linejoin:round;stroke-width:6px"/><line x1="63" y1="39" x2="9" y2="39" style="fill:none;stroke:#000;stroke-linecap:round;stroke-linejoin:round;stroke-width:6px"/><line x1="99" y1="117" x2="9" y2="117" style="fill:none;stroke:#000;stroke-linecap:round;stroke-linejoin:round;stroke-width:6px"/><circle cx="54" cy="129" r="3" style="fill:none;stroke:#000;stroke-linecap:round;stroke-linejoin:round;stroke-width:6px"/><path d="M24,117v-9a8.3669,8.3669,0,0,1,5.8-7.6L45,96V87.6" style="fill:none;stroke:#000;stroke-linecap:round;stroke-linejoin:round;stroke-width:6px"/><path d="M63,87.6V96l15.2,4.4A8.3669,8.3669,0,0,1,84,108v9" style="fill:none;stroke:#000;stroke-linecap:round;stroke-linejoin:round;stroke-width:6px"/><ellipse cx="54" cy="70.6" rx="18" ry="19.6" style="fill:none;stroke:#000;stroke-linecap:round;stroke-linejoin:round;stroke-width:6px"/><path d="M71.7,67.3c-3,3-11.5,2.8-14.7-3.3-6,6-15.8,6-20.6,2.6" style="fill:none;stroke:#000;stroke-linecap:round;stroke-linejoin:round;stroke-width:6px"/><polygon points="117 45 75 45 75 3 117 3 117 18 135 9 135 39 117 30 117 45" style="fill:none;stroke:#000;stroke-linecap:round;stroke-linejoin:round;stroke-width:6px"/><line x1="39" y1="27" x2="63" y2="27" style="fill:none;stroke:#000;stroke-linecap:round;stroke-linejoin:round;stroke-width:6px"/><rect width="144" height="144" style="fill:none"/></svg>