<svg xmlns="http://www.w3.org/2000/svg" viewBox="0 0 144 144"><polyline points="117 99 117 117 27 117 27 99" style="fill:none;stroke:#000;stroke-linecap:round;stroke-linejoin:round;stroke-width:6px"/><path d="M36,64.8A34.4426,34.4426,0,0,1,18,34.5a36.8116,36.8116,0,0,1,1-8.2,40.469,40.469,0,0,0,8,69.2" style="fill:none;stroke:#000;stroke-linecap:round;stroke-linejoin:round;stroke-width:6px"/><path d="M108,64.8a34.4426,34.4426,0,0,0,18-30.3,36.8116,36.8116,0,0,0-1-8.2,40.469,40.469,0,0,1-8,69.2" style="fill:none;stroke:#000;stroke-linecap:round;stroke-linejoin:round;stroke-width:6px"/><path d="M60,49.6A45.1131,45.1131,0,0,0,27,93v6h90V93A45.1131,45.1131,0,0,0,84,49.6" style="fill:none;stroke:#000;stroke-linecap:round;stroke-linejoin:round;stroke-width:6px"/><path d="M83.3,45.6a6.0034,6.0034,0,0,0-6-6.6H66.6a6.0713,6.0713,0,0,0-4.5,2,5.9929,5.9929,0,0,0-1.5,4.6L66,99H78Z" style="fill:none;stroke:#000;stroke-linecap:round;stroke-linejoin:round;stroke-width:6px"/><rect width="144" height="144" style="fill:none"/></svg>