<svg xmlns="http://www.w3.org/2000/svg" viewBox="0 0 144.0044 144"><path d="M95.5,45.5A32.589,32.589,0,0,0,47,48.3C49.6,65.1,30.5,77,16.6,67-.1,81.2-2.3,108.9,14.9,126.1s44.9,15,59.1-1.7c-10-13.9,1.9-33,18.7-30.4A32.5145,32.5145,0,0,0,95.5,45.5Z" transform="translate(0.0044)" style="fill:none;stroke:#000;stroke-linejoin:round;stroke-width:6px"/><line x1="65.7044" y1="75.3" x2="138.0044" y2="3" style="fill:none;stroke:#000;stroke-linecap:round;stroke-linejoin:round;stroke-width:6px"/><line x1="3.1044" y1="137.9" x2="24.0044" y2="117" style="fill:none;stroke:#000;stroke-linecap:round;stroke-linejoin:round;stroke-width:6px"/><line x1="105.1044" y1="18.1" x2="122.9044" y2="35.9" style="fill:none;stroke:#000;stroke-linecap:round;stroke-linejoin:round;stroke-width:6px"/><line x1="117.1044" y1="6.1" x2="135.0044" y2="24" style="fill:none;stroke:#000;stroke-linecap:round;stroke-linejoin:round;stroke-width:6px"/><path d="M15.5,96.3s18.3,4.2,27-14.3" transform="translate(0.0044)" style="fill:none;stroke:#000;stroke-linecap:round;stroke-linejoin:round;stroke-width:6px"/><path d="M45.3,125.8s-4.3-18.2,14.2-27" transform="translate(0.0044)" style="fill:none;stroke:#000;stroke-linecap:round;stroke-linejoin:round;stroke-width:6px"/><rect x="0.0044" width="144" height="144" style="fill:none"/></svg>