<svg xmlns="http://www.w3.org/2000/svg" viewBox="0 0 144 144"><path d="M51,86.8H93c3,27,48,54,48,54H3S51,113.8,51,86.8Z" style="fill:none;stroke:#000;stroke-linejoin:round;stroke-width:6px"/><path d="M87,62.8a39.1827,39.1827,0,0,1,18-32.9" style="fill:none;stroke:#000;stroke-linecap:round;stroke-linejoin:round;stroke-width:6px"/><path d="M57,62.8A39.1827,39.1827,0,0,0,39,29.9" style="fill:none;stroke:#000;stroke-linecap:round;stroke-linejoin:round;stroke-width:6px"/><path d="M93,75.1a21.0071,21.0071,0,0,1,30,0" style="fill:none;stroke:#000;stroke-linecap:round;stroke-linejoin:round;stroke-width:6px"/><path d="M51,75.1a21.0071,21.0071,0,0,0-30,0" style="fill:none;stroke:#000;stroke-linecap:round;stroke-linejoin:round;stroke-width:6px"/><path d="M62.7,14.8a69.3928,69.3928,0,0,1,3.3,21" style="fill:none;stroke:#000;stroke-linecap:round;stroke-linejoin:round;stroke-width:6px"/><path d="M81,14.8a69.3928,69.3928,0,0,0-3.3,21" style="fill:none;stroke:#000;stroke-linecap:round;stroke-linejoin:round;stroke-width:6px"/><polyline points="72 86.8 63 101.8 81 101.8 66 122.8" style="fill:none;stroke:#000;stroke-linecap:round;stroke-linejoin:round;stroke-width:6px"/><rect width="144" height="144" style="fill:none"/></svg>