<svg xmlns="http://www.w3.org/2000/svg" viewBox="0 0 144 144"><path d="M51,87H93c3,27,48,54,48,54H3S51,114,51,87Z" style="fill:none;stroke:#000;stroke-linejoin:round;stroke-width:6px"/><path d="M101.2,22C95.7,12.5,84.7,6,72,6S48.3,12.5,42.8,22" style="fill:none;stroke:#000;stroke-linecap:round;stroke-linejoin:round;stroke-width:6px"/><path d="M57,63c8.1,4.1,21.9,4.1,30,0" style="fill:none;stroke:#000;stroke-linecap:round;stroke-linejoin:round;stroke-width:6px"/><path d="M54,24.6c-13-6.3-31-.7-32.9,10.1a11.6971,11.6971,0,0,1,5.3,7" style="fill:none;stroke:#000;stroke-linecap:round;stroke-linejoin:round;stroke-width:6px"/><path d="M21.2,34.8A11.9735,11.9735,0,1,0,21.6,55c4.5,12.4,27,13.2,35.4,8" style="fill:none;stroke:#000;stroke-linecap:round;stroke-linejoin:round;stroke-width:6px"/><path d="M118.4,42.5a12.2132,12.2132,0,0,1,4.5-4.8c1.5-12.5-18.7-20-33-13.1" style="fill:none;stroke:#000;stroke-linecap:round;stroke-linejoin:round;stroke-width:6px"/><path d="M87,63c7.3,4.5,27.7,5,34.3-5.8a11.99,11.99,0,1,0,1.6-19.5" style="fill:none;stroke:#000;stroke-linecap:round;stroke-linejoin:round;stroke-width:6px"/><path d="M57,63c6,6,6,12,6,24" style="fill:none;stroke:#000;stroke-linecap:round;stroke-linejoin:round;stroke-width:6px"/><path d="M87,63c-6,6-6,12-6,24" style="fill:none;stroke:#000;stroke-linecap:round;stroke-linejoin:round;stroke-width:6px"/><rect width="144" height="144" style="fill:none"/></svg>