<svg xmlns="http://www.w3.org/2000/svg" viewBox="0 0 144 144"><circle cx="33" cy="105" r="30" style="fill:none;stroke:#000;stroke-linejoin:round;stroke-width:6px"/><circle cx="33" cy="105" r="6" style="fill:none;stroke:#000;stroke-linejoin:round;stroke-width:6px"/><circle cx="117" cy="117" r="18" style="fill:none;stroke:#000;stroke-linejoin:round;stroke-width:6px"/><path d="M60.5,93H99l18-66c0-24-90-24-90,0L40.1,75.9" style="fill:none;stroke:#000;stroke-linejoin:round;stroke-width:6px"/><line x1="35" y1="57" x2="108.8" y2="57" style="fill:none;stroke:#000;stroke-linejoin:round;stroke-width:6px"/><line x1="57" y1="9.9" x2="57" y2="57" style="fill:none;stroke:#000;stroke-linejoin:round;stroke-width:6px"/><line x1="87" y1="9.9" x2="87" y2="57" style="fill:none;stroke:#000;stroke-linejoin:round;stroke-width:6px"/><path d="M99,93h24a18.0529,18.0529,0,0,0,18-18" style="fill:none;stroke:#000;stroke-linecap:round;stroke-linejoin:round;stroke-width:6px"/><line x1="33" y1="99" x2="33" y2="75" style="fill:none;stroke:#000;stroke-linejoin:round;stroke-width:6px"/><line x1="37.2" y1="100.8" x2="54.2" y2="83.8" style="fill:none;stroke:#000;stroke-linejoin:round;stroke-width:6px"/><line x1="39" y1="105" x2="63" y2="105" style="fill:none;stroke:#000;stroke-linejoin:round;stroke-width:6px"/><line x1="37.2" y1="109.2" x2="54.2" y2="126.2" style="fill:none;stroke:#000;stroke-linejoin:round;stroke-width:6px"/><line x1="33" y1="111" x2="33" y2="135" style="fill:none;stroke:#000;stroke-linejoin:round;stroke-width:6px"/><line x1="28.8" y1="109.2" x2="11.8" y2="126.2" style="fill:none;stroke:#000;stroke-linejoin:round;stroke-width:6px"/><line x1="27" y1="105" x2="3" y2="105" style="fill:none;stroke:#000;stroke-linejoin:round;stroke-width:6px"/><line x1="28.8" y1="100.8" x2="11.8" y2="83.8" style="fill:none;stroke:#000;stroke-linejoin:round;stroke-width:6px"/><line x1="117" y1="99" x2="117" y2="135" style="fill:none;stroke:#000;stroke-linejoin:round;stroke-width:6px"/><line x1="135" y1="117" x2="99" y2="117" style="fill:none;stroke:#000;stroke-linejoin:round;stroke-width:6px"/><rect width="144" height="144" style="fill:none"/></svg>