<svg xmlns="http://www.w3.org/2000/svg" viewBox="0 0 144 144"><path d="M33,135a6.0176,6.0176,0,0,1-6,6H9a6.0176,6.0176,0,0,1-6-6V93a6.0176,6.0176,0,0,1,6-6H27a6.0176,6.0176,0,0,1,6,6Z" style="fill:none;stroke:#000;stroke-linejoin:round;stroke-width:6px"/><path d="M135,135a6.0176,6.0176,0,0,1-6,6H111a6.0176,6.0176,0,0,1-6-6V93a6.0176,6.0176,0,0,1,6-6h18a6.0176,6.0176,0,0,1,6,6Z" style="fill:none;stroke:#000;stroke-linejoin:round;stroke-width:6px"/><rect x="33" y="63" width="72" height="60" style="fill:none;stroke:#000;stroke-linejoin:round;stroke-width:6px"/><rect x="63" y="3" width="12" height="60" style="fill:none;stroke:#000;stroke-linejoin:round;stroke-width:6px"/><line x1="33" y1="81" x2="105" y2="81" style="fill:none;stroke:#000;stroke-linejoin:round;stroke-width:6px"/><path d="M81,9h27c8.7.5,15,6,15,18C123,48.1,81,52,81,9Z" style="fill:none;stroke:#000;stroke-linejoin:round;stroke-width:6px"/><circle cx="102" cy="24.2" r="6" style="fill:none;stroke:#000;stroke-linejoin:round;stroke-width:6px"/><path d="M57,9H30c-8.7.5-15,6-15,18C15,48.1,57,52,57,9Z" style="fill:none;stroke:#000;stroke-linejoin:round;stroke-width:6px"/><circle cx="36" cy="24.2" r="6" style="fill:none;stroke:#000;stroke-linejoin:round;stroke-width:6px"/><line x1="87" y1="123" x2="87" y2="105" style="fill:none;stroke:#000;stroke-linecap:round;stroke-linejoin:round;stroke-width:6px"/><line x1="75" y1="123" x2="75" y2="105" style="fill:none;stroke:#000;stroke-linecap:round;stroke-linejoin:round;stroke-width:6px"/><rect width="144" height="144" style="fill:none"/></svg>