<svg xmlns="http://www.w3.org/2000/svg" viewBox="0 0 144 144"><rect x="3" y="105" width="138" height="36" style="fill:none;stroke:#000;stroke-linejoin:round;stroke-width:6px"/><line x1="3" y1="123" x2="141" y2="123" style="fill:none;stroke:#000;stroke-linejoin:round;stroke-width:6px"/><line x1="36" y1="105" x2="36" y2="123" style="fill:none;stroke:#000;stroke-linejoin:round;stroke-width:6px"/><line x1="75" y1="105" x2="75" y2="123" style="fill:none;stroke:#000;stroke-linejoin:round;stroke-width:6px"/><line x1="108" y1="105" x2="108" y2="123" style="fill:none;stroke:#000;stroke-linejoin:round;stroke-width:6px"/><line x1="54" y1="123" x2="54" y2="141" style="fill:none;stroke:#000;stroke-linejoin:round;stroke-width:6px"/><line x1="90" y1="123" x2="90" y2="141" style="fill:none;stroke:#000;stroke-linejoin:round;stroke-width:6px"/><line x1="21" y1="123" x2="21" y2="141" style="fill:none;stroke:#000;stroke-linejoin:round;stroke-width:6px"/><line x1="120" y1="123" x2="120" y2="138" style="fill:none;stroke:#000;stroke-linejoin:round;stroke-width:6px"/><path d="M75,105V60s0-21,6-27" style="fill:none;stroke:#000;stroke-linecap:round;stroke-linejoin:round;stroke-width:6px"/><path d="M105,75C98.7,85.8,88.8,93,75,93" style="fill:none;stroke:#000;stroke-linecap:round;stroke-linejoin:round;stroke-width:6px"/><path d="M75,84c-15.2,0-28.1-6.3-36-18" style="fill:none;stroke:#000;stroke-linecap:round;stroke-linejoin:round;stroke-width:6px"/><path d="M108,90a15.0559,15.0559,0,0,0,12-6l12-24H108a15.0559,15.0559,0,0,0-12,6L87,90.9Z" style="fill:none;stroke:#000;stroke-linecap:round;stroke-linejoin:round;stroke-width:6px"/><path d="M39,81a15.0559,15.0559,0,0,1-12-6L15,51H39a15.0559,15.0559,0,0,1,12,6l9,24.7Z" style="fill:none;stroke:#000;stroke-linecap:round;stroke-linejoin:round;stroke-width:6px"/><path d="M91.6,45.2a14.6667,14.6667,0,0,0,4.2-12.7L87.4,7l-17,17a14.6667,14.6667,0,0,0-4.2,12.7L75,60Z" style="fill:none;stroke:#000;stroke-linecap:round;stroke-linejoin:round;stroke-width:6px"/><rect width="144" height="144" style="fill:none"/></svg>