<svg xmlns="http://www.w3.org/2000/svg" viewBox="0 0 144 144"><path d="M7.8,8.7,87.6,28.6C97.1,31,105,41.1,105,51v72c0,9.9-7.9,16.1-17.5,13.9l-67-15.7C10.9,118.9,3,108.9,3,99V21A18.0529,18.0529,0,0,1,21,3H123a18.0529,18.0529,0,0,1,18,18V87a18.0529,18.0529,0,0,1-18,18H105" style="fill:none;stroke:#000;stroke-linecap:round;stroke-linejoin:round;stroke-width:6px"/><line x1="57" y1="21" x2="117" y2="21" style="fill:none;stroke:#000;stroke-linecap:round;stroke-linejoin:round;stroke-width:6px"/><circle cx="78" cy="81" r="12" style="fill:none;stroke:#000;stroke-linecap:round;stroke-linejoin:round;stroke-width:6px"/><line x1="105" y1="51" x2="117" y2="51" style="fill:none;stroke:#000;stroke-linecap:round;stroke-linejoin:round;stroke-width:6px"/><rect width="144" height="144" style="fill:none"/></svg>