<svg xmlns="http://www.w3.org/2000/svg" viewBox="0 0 144 144"><path d="M111,63a21,21,0,0,0,0-42h-3A18.0529,18.0529,0,0,0,90,3H54A18.0529,18.0529,0,0,0,36,21H33a21,21,0,0,0,0,42Z" style="fill:none;stroke:#000;stroke-linecap:round;stroke-linejoin:round;stroke-width:6px"/><path d="M27,93V63A18.0529,18.0529,0,0,1,45,45H99a18.0529,18.0529,0,0,1,18,18V93" style="fill:none;stroke:#000;stroke-linecap:round;stroke-linejoin:round;stroke-width:6px"/><polyline points="57 18 66 33 72 24 78 33 87 18" style="fill:none;stroke:#000;stroke-linecap:round;stroke-linejoin:round;stroke-width:6px"/><path d="M102,129.5A45.1185,45.1185,0,0,1,72,141a44.6262,44.6262,0,0,1-30-11.5" style="fill:none;stroke:#000;stroke-linecap:round;stroke-linejoin:round;stroke-width:6px"/><path d="M66,111c-3-2.9-5.7-6-9-6-2.1,0-4.5,1.6-6,3l-6,6-4.5-5a9.0567,9.0567,0,0,0-7.5-4,9.2969,9.2969,0,0,0-6.6,2.8L18,117.3" style="fill:none;stroke:#000;stroke-linecap:round;stroke-linejoin:round;stroke-width:6px"/><path d="M81,111c3-2.9,5.7-6,9-6,2.1,0,4.5,1.6,6,3l6,6,4.5-5a9.0567,9.0567,0,0,1,7.5-4,9.2969,9.2969,0,0,1,6.6,2.8l8.4,9.5" style="fill:none;stroke:#000;stroke-linecap:round;stroke-linejoin:round;stroke-width:6px"/><path d="M27,75,7.2,69.2A5.0194,5.0194,0,0,0,6,69a2.9465,2.9465,0,0,0-3,3,2.7919,2.7919,0,0,0,.6,1.8L18,99" style="fill:none;stroke:#000;stroke-linecap:round;stroke-linejoin:round;stroke-width:6px"/><path d="M117,75l19.8-5.8A5.0194,5.0194,0,0,1,138,69a2.9465,2.9465,0,0,1,3,3,2.7919,2.7919,0,0,1-.6,1.8L126,99" style="fill:none;stroke:#000;stroke-linecap:round;stroke-linejoin:round;stroke-width:6px"/><line x1="39" y1="75" x2="60" y2="87" style="fill:none;stroke:#000;stroke-linecap:round;stroke-linejoin:round;stroke-width:6px"/><line x1="45" y1="78.4" x2="45" y2="90" style="fill:none;stroke:#000;stroke-linecap:round;stroke-linejoin:round;stroke-width:6px"/><line x1="84" y1="87" x2="105" y2="75" style="fill:none;stroke:#000;stroke-linecap:round;stroke-linejoin:round;stroke-width:6px"/><line x1="99" y1="78.4" x2="99" y2="90" style="fill:none;stroke:#000;stroke-linecap:round;stroke-linejoin:round;stroke-width:6px"/><rect width="144" height="144" style="fill:none"/></svg>