<svg xmlns="http://www.w3.org/2000/svg" viewBox="0 0 144 144"><path d="M129,129a12.0353,12.0353,0,0,1-12,12H27a12.0353,12.0353,0,0,1-12-12V15A12.0353,12.0353,0,0,1,27,3h90a12.0353,12.0353,0,0,1,12,12Z" style="fill:none;stroke:#000;stroke-linejoin:round;stroke-width:6px"/><line x1="15" y1="39" x2="129" y2="39" style="fill:none;stroke:#000;stroke-linejoin:round;stroke-width:6px"/><circle cx="72" cy="90" r="33" style="fill:none;stroke:#000;stroke-linejoin:round;stroke-width:6px"/><path d="M111,12a3,3,0,0,0,0,6,3,3,0,0,0,0-6Z" style="fill:#000"/><path d="M99,12a3,3,0,0,0,0,6,3,3,0,0,0,0-6Z" style="fill:#000"/><path d="M87,12a3,3,0,0,0,0,6,3,3,0,0,0,0-6Z" style="fill:#000"/><path d="M87,24a3,3,0,0,0,0,6,3,3,0,0,0,0-6Z" style="fill:#000"/><path d="M99,24a3,3,0,0,0,0,6,3,3,0,0,0,0-6Z" style="fill:#000"/><path d="M111,24a3,3,0,0,0,0,6,3,3,0,0,0,0-6Z" style="fill:#000"/><line x1="69" y1="78.4" x2="69" y2="57" style="fill:none;stroke:#000;stroke-linejoin:round;stroke-width:6px"/><line x1="81.7" y1="97.1" x2="98.4" y2="109.7" style="fill:none;stroke:#000;stroke-linejoin:round;stroke-width:6px"/><line x1="62.3" y1="97.1" x2="45.5" y2="109.7" style="fill:none;stroke:#000;stroke-linejoin:round;stroke-width:6px"/><circle cx="72" cy="90" r="12" style="fill:none;stroke:#000;stroke-linejoin:round;stroke-width:6px"/><polygon points="30 15 66 15 60 27 36 27 30 15" style="fill:none;stroke:#000;stroke-linejoin:round;stroke-width:6px"/><rect width="144" height="144" style="fill:none"/></svg>