<svg xmlns="http://www.w3.org/2000/svg" viewBox="0 0 144 144"><circle cx="69" cy="75" r="42" style="fill:none;stroke:#000;stroke-linecap:round;stroke-linejoin:round;stroke-width:6px"/><polyline points="69 60 69 75 87 93" style="fill:none;stroke:#000;stroke-linecap:round;stroke-linejoin:round;stroke-width:6px"/><polyline points="84 36 105 15 129 39 108 60" style="fill:none;stroke:#000;stroke-linejoin:round;stroke-width:6px"/><polyline points="30 90.3 3 117 3 141 27 141 53.9 114.2" style="fill:none;stroke:#000;stroke-linejoin:round;stroke-width:6px"/><polyline points="105 15 117 3 141 27 129 39" style="fill:none;stroke:#000;stroke-linecap:round;stroke-linejoin:round;stroke-width:6px"/><line x1="117" y1="27" x2="129" y2="15" style="fill:none;stroke:#000;stroke-linecap:round;stroke-linejoin:round;stroke-width:6px"/><path d="M21,120a3,3,0,0,0,0,6,3,3,0,0,0,0-6Z" style="fill:#000"/><path d="M30,111a3,3,0,0,0,0,6,3,3,0,0,0,0-6Z" style="fill:#000"/><rect width="144" height="144" style="fill:none"/></svg>