<svg xmlns="http://www.w3.org/2000/svg" viewBox="0 0 144 144"><path d="M21,51v90H57V54a21.1965,21.1965,0,0,0-6.1-14.8" style="fill:none;stroke:#000;stroke-linejoin:round;stroke-width:6px"/><path d="M135,69h-.9C100.2,69,80,74.1,57,99V57h78Z" style="fill:none;stroke:#000;stroke-linejoin:round;stroke-width:6px"/><polyline points="102 72 102 81 129 81 129 69" style="fill:none;stroke:#000;stroke-linejoin:round;stroke-width:6px"/><path d="M129,123a12,12,0,0,1-24,0c0-6.6,12-24,12-24S129,116.4,129,123Z" style="fill:none;stroke:#000;stroke-linejoin:round;stroke-width:6px"/><path d="M21.1,51,15,37.3,87.2,6a7.4983,7.4983,0,0,1,6.1,13.7Z" style="fill:none;stroke:#000;stroke-linejoin:round;stroke-width:6px"/><rect width="144" height="144" style="fill:none"/></svg>