<svg xmlns="http://www.w3.org/2000/svg" viewBox="0 0 144 144"><rect x="27" y="93" width="96" height="48" style="fill:none;stroke:#000;stroke-linejoin:round;stroke-width:6px"/><line x1="39" y1="93" x2="39" y2="27" style="fill:none;stroke:#000;stroke-linejoin:round;stroke-width:6px"/><line x1="111" y1="93" x2="111" y2="27" style="fill:none;stroke:#000;stroke-linejoin:round;stroke-width:6px"/><polygon points="33 3 117 3 129 27 21 27 33 3" style="fill:none;stroke:#000;stroke-linejoin:round;stroke-width:6px"/><polygon points="87 81 63 81 57 51 93 51 87 81" style="fill:none;stroke:#000;stroke-linejoin:round;stroke-width:6px"/><line x1="75" y1="51" x2="75" y2="27" style="fill:none;stroke:#000;stroke-linejoin:round;stroke-width:6px"/><line x1="27" y1="117" x2="123" y2="117" style="fill:none;stroke:#000;stroke-linejoin:round;stroke-width:6px"/><line x1="51" y1="93" x2="51" y2="117" style="fill:none;stroke:#000;stroke-linejoin:round;stroke-width:6px"/><line x1="75" y1="93" x2="75" y2="117" style="fill:none;stroke:#000;stroke-linejoin:round;stroke-width:6px"/><line x1="99" y1="93" x2="99" y2="117" style="fill:none;stroke:#000;stroke-linejoin:round;stroke-width:6px"/><line x1="63" y1="117" x2="63" y2="141" style="fill:none;stroke:#000;stroke-linejoin:round;stroke-width:6px"/><line x1="39" y1="117" x2="39" y2="141" style="fill:none;stroke:#000;stroke-linejoin:round;stroke-width:6px"/><line x1="87" y1="117" x2="87" y2="141" style="fill:none;stroke:#000;stroke-linejoin:round;stroke-width:6px"/><line x1="111" y1="117" x2="111" y2="141" style="fill:none;stroke:#000;stroke-linejoin:round;stroke-width:6px"/><rect width="144" height="144" style="fill:none"/></svg>