<svg xmlns="http://www.w3.org/2000/svg" viewBox="0 0 144.025 144.025"><path d="M102.9,15.6c.7.7,1.5,1.3,2.2,2a61.9426,61.9426,0,0,1-87.6,87.6c-.7-.7-1.3-1.5-2-2.2L3,115.5c.7.7,1.3,1.5,2,2.2A79.6909,79.6909,0,0,0,117.7,5c-.7-.7-1.5-1.3-2.2-2Z" style="fill:none;stroke:#000;stroke-linejoin:round;stroke-width:6px"/><line x1="13.3" y1="105.2" x2="105.1" y2="13.4" style="fill:none;stroke:#000;stroke-linejoin:round;stroke-width:6px"/><ellipse cx="80.0822" cy="80.1145" rx="5.9004" ry="8.9005" transform="translate(-33.1939 80.1317) rotate(-45.0203)" style="fill:none;stroke:#000;stroke-linejoin:round;stroke-width:6.000367202789619px"/><ellipse cx="96.8" cy="46.8" rx="8.9" ry="5.9" style="fill:none;stroke:#000;stroke-linejoin:round;stroke-width:6px"/><ellipse cx="46.7" cy="96.8" rx="5.9" ry="8.9" style="fill:none;stroke:#000;stroke-linejoin:round;stroke-width:6px"/><rect width="144" height="144" style="fill:none"/></svg>