<svg xmlns="http://www.w3.org/2000/svg" viewBox="0 0 144 144"><path d="M95.9,55.9C95.9,69.1,85.2,78,72,78S48,69.1,48,55.9,72,4.2,72,4.2,95.9,42.6,95.9,55.9Z" style="fill:none;stroke:#000;stroke-linejoin:round;stroke-width:6px"/><path d="M72,66c-6.5,0-11.7-4.3-11.7-10.8" style="fill:none;stroke:#000;stroke-linecap:round;stroke-linejoin:round;stroke-width:6px"/><rect x="87" y="123" width="36" height="18" style="fill:none;stroke:#000;stroke-linejoin:round;stroke-width:6px"/><path d="M117,123v-9.2S136.1,94.9,141,90V41.6S126,36.2,126,78L108.2,95.8l4.1-18c2.1-8.6-5.8-12.3-10.1-5.6C98.2,78.3,93,96,93,96v27" style="fill:none;stroke:#000;stroke-linecap:round;stroke-linejoin:round;stroke-width:6px"/><rect x="21" y="123" width="36" height="18" style="fill:none;stroke:#000;stroke-linejoin:round;stroke-width:6px"/><path d="M27,123v-9.2S9,94.9,3,90V41.6S18,36.2,18,78L35.8,95.8l-4.1-18c-2.1-8.6,5.8-12.3,10.1-5.6C45.8,78.3,51,96,51,96v27" style="fill:none;stroke:#000;stroke-linecap:round;stroke-linejoin:round;stroke-width:6px"/><rect width="144" height="144" style="fill:none"/></svg>