<svg xmlns="http://www.w3.org/2000/svg" viewBox="0 0 144 144"><path d="M91.5,81c0,10.8-8.7,18-19.5,18S52.5,91.8,52.5,81,72,39,72,39,91.5,70.2,91.5,81Z" style="fill:none;stroke:#000;stroke-linejoin:round;stroke-width:6px"/><path d="M73.4,87.1c-5.3,0-9.5-3.5-9.5-8.8" style="fill:none;stroke:#000;stroke-linecap:round;stroke-linejoin:round;stroke-width:6px"/><path d="M110.9,36A51.0106,51.0106,0,0,0,21,69V84" style="fill:none;stroke:#000;stroke-linecap:round;stroke-linejoin:round;stroke-width:6px"/><polyline points="39 60 21 84 3 60" style="fill:none;stroke:#000;stroke-linecap:round;stroke-linejoin:round;stroke-width:6px"/><path d="M33.1,102A51.0106,51.0106,0,0,0,123,69V54" style="fill:none;stroke:#000;stroke-linecap:round;stroke-linejoin:round;stroke-width:6px"/><polyline points="105 78 123 54 141 78" style="fill:none;stroke:#000;stroke-linecap:round;stroke-linejoin:round;stroke-width:6px"/><rect width="144" height="144" style="fill:none"/></svg>