<svg xmlns="http://www.w3.org/2000/svg" viewBox="0 0 144 144"><path d="M135.2,131.7a9.1,9.1,0,0,1-18.2,0c0-5,9.1-20.2,9.1-20.2S135.2,126.7,135.2,131.7Z" style="fill:none;stroke:#000;stroke-linejoin:round;stroke-width:6px"/><path d="M45,93A18.0529,18.0529,0,0,1,27,75H3V45H27A18.0529,18.0529,0,0,1,45,27H63A18.0529,18.0529,0,0,1,81,45c18,0,54,6,54,42V99H111V87A12.0353,12.0353,0,0,0,99,75H81A18.0529,18.0529,0,0,1,63,93Z" style="fill:none;stroke:#000;stroke-linejoin:round;stroke-width:6px"/><rect x="45" y="3" width="18" height="24" style="fill:none;stroke:#000;stroke-linejoin:round;stroke-width:6px"/><line x1="45" y1="15" x2="12" y2="15" style="fill:none;stroke:#000;stroke-linecap:round;stroke-linejoin:round;stroke-width:6px"/><line x1="96" y1="15" x2="63" y2="14.9" style="fill:none;stroke:#000;stroke-linecap:round;stroke-linejoin:round;stroke-width:6px"/><line x1="27" y1="45" x2="27" y2="75" style="fill:none;stroke:#000;stroke-linecap:round;stroke-linejoin:round;stroke-width:6px"/><line x1="81" y1="45" x2="81" y2="75" style="fill:none;stroke:#000;stroke-linecap:round;stroke-linejoin:round;stroke-width:6px"/><rect width="144" height="144" style="fill:none"/></svg>