<svg xmlns="http://www.w3.org/2000/svg" viewBox="0 0 144 144"><path d="M99,135c0-6.6-5.4-6-12-6H51c-6.6,0-12-.6-12,6v6H99Z" style="fill:none;stroke:#000;stroke-linejoin:round;stroke-width:6px"/><line x1="87" y1="129" x2="87" y2="115.3" style="fill:none;stroke:#000;stroke-linejoin:round;stroke-width:6px"/><line x1="51" y1="115.4" x2="51" y2="129" style="fill:none;stroke:#000;stroke-linejoin:round;stroke-width:6px"/><path d="M15,81H123C123,129,15,129.5,15,81Z" style="fill:none;stroke:#000;stroke-linejoin:round;stroke-width:6px"/><path d="M30.1,51H108C107.9,75.2,30.1,75.2,30.1,51Z" style="fill:none;stroke:#000;stroke-linejoin:round;stroke-width:6px"/><line x1="81" y1="81" x2="81" y2="68.4" style="fill:none;stroke:#000;stroke-linejoin:round;stroke-width:6px"/><line x1="57" y1="68.4" x2="57" y2="81" style="fill:none;stroke:#000;stroke-linejoin:round;stroke-width:6px"/><path d="M93,18V15a12,12,0,0,0-24,0V48" style="fill:none;stroke:#000;stroke-linecap:round;stroke-linejoin:round;stroke-width:6px"/><path d="M45,18V15a12,12,0,0,1,24,0V51" style="fill:none;stroke:#000;stroke-linecap:round;stroke-linejoin:round;stroke-width:6px"/><line x1="93" y1="30" x2="93" y2="36" style="fill:none;stroke:#000;stroke-linecap:round;stroke-linejoin:round;stroke-width:6px"/><line x1="45" y1="30" x2="45" y2="36" style="fill:none;stroke:#000;stroke-linecap:round;stroke-linejoin:round;stroke-width:6px"/><rect width="144" height="144" style="fill:none"/></svg>