<svg xmlns="http://www.w3.org/2000/svg" viewBox="0 0 144 144"><path d="M14.2,105V54a51,51,0,0,1,102,0v3h-18V55.4c0-17.2-12.6-32.6-29.8-34.3A33.0969,33.0969,0,0,0,32.2,54v51" style="fill:none;stroke:#000;stroke-linejoin:round;stroke-width:6px"/><line x1="110.2" y1="73.1" x2="110.2" y2="82.1" style="fill:none;stroke:#000;stroke-linecap:round;stroke-linejoin:round;stroke-width:6px"/><line x1="110.2" y1="94.1" x2="110.2" y2="103" style="fill:none;stroke:#000;stroke-linecap:round;stroke-linejoin:round;stroke-width:6px"/><line x1="122.2" y1="72" x2="126.1" y2="80.1" style="fill:none;stroke:#000;stroke-linecap:round;stroke-linejoin:round;stroke-width:6px"/><line x1="131.2" y1="91" x2="135.1" y2="99.1" style="fill:none;stroke:#000;stroke-linecap:round;stroke-linejoin:round;stroke-width:6px"/><line x1="97.3" y1="72" x2="93.5" y2="80.1" style="fill:none;stroke:#000;stroke-linecap:round;stroke-linejoin:round;stroke-width:6px"/><line x1="88.3" y1="91" x2="84.5" y2="99.1" style="fill:none;stroke:#000;stroke-linecap:round;stroke-linejoin:round;stroke-width:6px"/><path d="M23.4,118.7a6.0166,6.0166,0,0,0,4.4,11.2l25.1-10a6.0166,6.0166,0,0,0-4.4-11.2Z" style="fill:none;stroke:#000;stroke-linejoin:round;stroke-width:6px"/><polyline points="38.2 126 38.2 141 8.2 141 8.2 105 38.2 105 38.2 111" style="fill:none;stroke:#000;stroke-linejoin:round;stroke-width:6px"/><rect width="144" height="144" style="fill:none"/></svg>