<svg xmlns="http://www.w3.org/2000/svg" viewBox="0 0 144 144"><path d="M141,140.9V122.8c-15,3.1-24.4-11.9-24.4-11.9h0c-8.9,15.5-32.7,17.2-43.4,0h0c-8.9,15.5-32.7,17.2-43.4,0h0S17.8,126.2,3.1,123v17.9Z" style="fill:none;stroke:#000;stroke-linejoin:round;stroke-width:6px"/><path d="M141,122.9V98.8c-15,3.1-24.4-11.9-24.4-11.9h0c-8.9,15.5-32.7,17.2-43.4,0h0c-8.9,15.5-32.7,17.2-43.4,0h0S17.8,102.2,3.1,99v23.9" style="fill:none;stroke:#000;stroke-linejoin:round;stroke-width:6px"/><path d="M141,98.9V74.8c-15,3.1-24.4-11.9-24.4-11.9h0c-8.9,15.5-32.7,17.2-43.4,0h0c-8.9,15.5-32.7,17.2-43.4,0h0S17.8,78.2,3.1,75V98.9" style="fill:none;stroke:#000;stroke-linejoin:round;stroke-width:6px"/><line x1="51" y1="9" x2="51" y2="57" style="fill:none;stroke:#000;stroke-linecap:round;stroke-linejoin:round;stroke-width:6px"/><polyline points="36 24 51 9 66 24" style="fill:none;stroke:#000;stroke-linecap:round;stroke-linejoin:round;stroke-width:6px"/><line x1="93" y1="9" x2="93" y2="57" style="fill:none;stroke:#000;stroke-linecap:round;stroke-linejoin:round;stroke-width:6px"/><polyline points="78 24 93 9 108 24" style="fill:none;stroke:#000;stroke-linecap:round;stroke-linejoin:round;stroke-width:6px"/><rect width="144" height="144" style="fill:none"/></svg>