<svg xmlns="http://www.w3.org/2000/svg" viewBox="0 0 144 144"><path d="M21,56.7a48.0124,48.0124,0,0,0,48,48c26.5,0,48-24,48-48h15L121.1,31.4a17.7218,17.7218,0,0,0-16.3-10.7A17.99,17.99,0,0,0,87,38.6c0,10.1-10.9,18.2-21,18.2-22.4,0-45-36-45-36Z" style="fill:none;stroke:#000;stroke-linejoin:round;stroke-width:6px"/><line x1="69" y1="140.9" x2="69" y2="104.8" style="fill:none;stroke:#000;stroke-linecap:round;stroke-linejoin:round;stroke-width:6px"/><line x1="12" y1="122.8" x2="117" y2="123" style="fill:none;stroke:#000;stroke-linecap:round;stroke-linejoin:round;stroke-width:6px"/><polyline points="102 110.8 117 123 102.2 134.7" style="fill:none;stroke:#000;stroke-linecap:round;stroke-linejoin:round;stroke-width:6px"/><polygon points="46.6 122.8 39.1 110.8 15 110.8 21 122.8 46.6 122.8" style="fill:none;stroke:#000;stroke-linecap:round;stroke-linejoin:round;stroke-width:6px"/><polygon points="46.6 122.8 39.1 134.8 15 134.8 21 122.8 46.6 122.8" style="fill:none;stroke:#000;stroke-linecap:round;stroke-linejoin:round;stroke-width:6px"/><polyline points="91 26.8 81 9.2 93 11.3 105 3 116.7 11.3 129.2 9 117.5 26.1" style="fill:none;stroke:#000;stroke-linejoin:round;stroke-width:6px"/><line x1="21" y1="50.8" x2="33" y2="50.8" style="fill:none;stroke:#000;stroke-linecap:round;stroke-linejoin:round;stroke-width:6px"/><line x1="21.4" y1="62.8" x2="39" y2="62.8" style="fill:none;stroke:#000;stroke-linecap:round;stroke-linejoin:round;stroke-width:6px"/><line x1="24.5" y1="74.8" x2="45" y2="74.8" style="fill:none;stroke:#000;stroke-linecap:round;stroke-linejoin:round;stroke-width:6px"/><circle cx="105" cy="40.3" r="6" style="fill:none;stroke:#000;stroke-linecap:round;stroke-linejoin:round;stroke-width:6px"/><rect width="144" height="144" style="fill:none"/></svg>