<svg xmlns="http://www.w3.org/2000/svg" viewBox="0 0 144 144"><rect x="15" y="129" width="18" height="12" style="fill:none;stroke:#000;stroke-linecap:round;stroke-linejoin:round;stroke-width:6px"/><rect x="111" y="129" width="18" height="12" style="fill:none;stroke:#000;stroke-linecap:round;stroke-linejoin:round;stroke-width:6px"/><polyline points="21 75 9 93 9 129 135 129 135.1 93.1 123.1 75.1" style="fill:none;stroke:#000;stroke-linecap:round;stroke-linejoin:round;stroke-width:6px"/><polyline points="123 75 111 33 33 33 21 75" style="fill:none;stroke:#000;stroke-linecap:round;stroke-linejoin:round;stroke-width:6px"/><line x1="9" y1="117" x2="30" y2="117" style="fill:none;stroke:#000;stroke-linecap:round;stroke-linejoin:round;stroke-width:6px"/><line x1="114" y1="117" x2="135" y2="117" style="fill:none;stroke:#000;stroke-linecap:round;stroke-linejoin:round;stroke-width:6px"/><path d="M72,81.7c-8.2-11.2-24-8.3-24,8.5.4,15.2,24,26.8,24,26.8s23.6-11.6,24-26.8C96,73.4,80.4,70.6,72,81.7Z" style="fill:none;stroke:#000;stroke-linejoin:round;stroke-width:6px"/><line x1="96" y1="90" x2="127.6" y2="82" style="fill:none;stroke:#000;stroke-linejoin:round;stroke-width:6px"/><line x1="48" y1="90" x2="16.4" y2="81.9" style="fill:none;stroke:#000;stroke-linejoin:round;stroke-width:6px"/><line x1="24.4" y1="63" x2="119.6" y2="63" style="fill:none;stroke:#000;stroke-linecap:round;stroke-linejoin:round;stroke-width:6px"/><rect width="144" height="144" style="fill:none"/></svg>