<svg xmlns="http://www.w3.org/2000/svg" viewBox="0 0 144 144"><line x1="3" y1="141" x2="141" y2="141" style="fill:none;stroke:#000;stroke-linecap:round;stroke-linejoin:round;stroke-width:6px"/><path d="M9,78v39a12.0353,12.0353,0,0,0,12,12H123a12.0353,12.0353,0,0,0,12-12V78" style="fill:none;stroke:#000;stroke-linecap:round;stroke-linejoin:round;stroke-width:6px"/><path d="M9,78c0,8.3,9,15,15,15s15-6.7,15-15c0,9.1,9,16.5,16.5,16.5S72,87.1,72,78c0,9.1,9,16.5,16.5,16.5S105,87.1,105,78c0,8.3,9,15,15,15s15-6.7,15-15V63H9Z" style="fill:none;stroke:#000;stroke-linecap:round;stroke-linejoin:round;stroke-width:6px"/><circle cx="48" cy="12" r="9" style="fill:none;stroke:#000;stroke-linecap:round;stroke-linejoin:round;stroke-width:6px"/><circle cx="96" cy="12" r="9" style="fill:none;stroke:#000;stroke-linecap:round;stroke-linejoin:round;stroke-width:6px"/><path d="M63,27H33c0,6,6,13.6,6,16.3V63H57V43.3C57,40.6,63,33,63,27Z" style="fill:none;stroke:#000;stroke-linejoin:round;stroke-width:6px"/><path d="M110.9,63c0-24-2.8-36.1-14.8-36.1S81.1,39,81.1,63Z" style="fill:none;stroke:#000;stroke-linejoin:round;stroke-width:6px"/><rect width="144" height="144" style="fill:none"/></svg>