<svg xmlns="http://www.w3.org/2000/svg" viewBox="0 0 144 144"><circle cx="27" cy="48" r="12" style="fill:none;stroke:#000;stroke-linejoin:round;stroke-width:6px"/><path d="M48,69H6c0,24,9,34.5,9,39.8V141H39V108.8C39,103.5,48,93,48,69Z" style="fill:none;stroke:#000;stroke-linejoin:round;stroke-width:6px"/><circle cx="81" cy="48" r="12" style="fill:none;stroke:#000;stroke-linejoin:round;stroke-width:6px"/><path d="M81,69.9C69.4,69.9,60,93,60,117H75v24H87V117h15C102,93,92.6,69.9,81,69.9Z" style="fill:none;stroke:#000;stroke-linejoin:round;stroke-width:6px"/><path d="M67.8,81H57V45a24,24,0,0,1,48,0V81H94.2" style="fill:none;stroke:#000;stroke-linejoin:round;stroke-width:6px"/><line x1="27" y1="69" x2="27" y2="90" style="fill:none;stroke:#000;stroke-linecap:round;stroke-linejoin:round;stroke-width:6px"/><polygon points="114 99 126 120 138 99 114 99" style="fill:none;stroke:#000;stroke-linejoin:round;stroke-width:6px"/><path d="M135,99a6.0176,6.0176,0,0,0,6-6,5.8489,5.8489,0,0,0-9.2-4.9,5.919,5.919,0,1,0-11.6,0A5.8764,5.8764,0,0,0,111,93a6.0176,6.0176,0,0,0,6,6" style="fill:none;stroke:#000;stroke-linejoin:round;stroke-width:6px"/><rect width="144" height="144" style="fill:none"/></svg>