<svg xmlns="http://www.w3.org/2000/svg" viewBox="0 0 144 144"><path d="M113.8,102.8S127,93.2,127,86.1c0-8.2-10.8-10.8-13.2-.8-2.4-10-13.2-7.4-13.2.8C100.6,93.2,113.8,102.8,113.8,102.8Z" style="fill:none;stroke:#000;stroke-linecap:round;stroke-linejoin:round;stroke-width:6px"/><polyline points="78 129 3 129 3 3 69 3 99 33 99 51" style="fill:none;stroke:#000;stroke-linecap:round;stroke-linejoin:round;stroke-width:6px"/><polyline points="69 6 69 33 96 33" style="fill:none;stroke:#000;stroke-linecap:round;stroke-linejoin:round;stroke-width:6px"/><circle cx="114" cy="90" r="27" style="fill:none;stroke:#000;stroke-linecap:round;stroke-linejoin:round;stroke-width:6px"/><polyline points="128.7 112.6 135 141 93 141 99.4 112.7" style="fill:none;stroke:#000;stroke-linecap:round;stroke-linejoin:round;stroke-width:6px"/><line x1="24" y1="51" x2="54" y2="51" style="fill:none;stroke:#000;stroke-linecap:round;stroke-linejoin:round;stroke-width:6px"/><line x1="24" y1="69" x2="66" y2="69" style="fill:none;stroke:#000;stroke-linecap:round;stroke-linejoin:round;stroke-width:6px"/><line x1="24" y1="87" x2="66" y2="87" style="fill:none;stroke:#000;stroke-linecap:round;stroke-linejoin:round;stroke-width:6px"/><line x1="24" y1="105" x2="66" y2="105" style="fill:none;stroke:#000;stroke-linecap:round;stroke-linejoin:round;stroke-width:6px"/><rect width="144" height="144" style="fill:none"/></svg>