<svg xmlns="http://www.w3.org/2000/svg" viewBox="0 0 144 144"><path d="M15,141H123L135,27C117.2,11.7,94.4,3,69,3S20.8,11.7,3,27Z" style="fill:none;stroke:#000;stroke-linecap:round;stroke-linejoin:round;stroke-width:6px"/><path d="M120,30.6V51H18V30.6A88.21,88.21,0,0,1,45.7,18a91.9817,91.9817,0,0,1,46.6,0A88.21,88.21,0,0,1,120,30.6Z" style="fill:none;stroke:#000;stroke-linecap:round;stroke-linejoin:round;stroke-width:6px"/><path d="M25.6,113.3A17.2342,17.2342,0,0,0,60,111.8V81.6a18.5869,18.5869,0,1,0-37.1,1.7Z" style="fill:none;stroke:#000;stroke-linecap:round;stroke-linejoin:round;stroke-width:6px"/><path d="M112.4,113.3A17.2342,17.2342,0,0,1,78,111.8V81.6a18.5869,18.5869,0,1,1,37.1,1.7Z" style="fill:none;stroke:#000;stroke-linecap:round;stroke-linejoin:round;stroke-width:6px"/><polyline points="63 51 69 33 75 51" style="fill:none;stroke:#000;stroke-linejoin:round;stroke-width:6px"/><line x1="69" y1="24" x2="69" y2="15" style="fill:none;stroke:#000;stroke-linecap:round;stroke-linejoin:round;stroke-width:6px"/><line x1="84" y1="25.4" x2="85.7" y2="16.6" style="fill:none;stroke:#000;stroke-linecap:round;stroke-linejoin:round;stroke-width:6px"/><line x1="98.5" y1="29.6" x2="101.8" y2="21.2" style="fill:none;stroke:#000;stroke-linecap:round;stroke-linejoin:round;stroke-width:6px"/><line x1="54" y1="25.4" x2="52.3" y2="16.6" style="fill:none;stroke:#000;stroke-linecap:round;stroke-linejoin:round;stroke-width:6px"/><line x1="39.5" y1="29.6" x2="36.2" y2="21.2" style="fill:none;stroke:#000;stroke-linecap:round;stroke-linejoin:round;stroke-width:6px"/><rect width="144" height="144" style="fill:none"/></svg>