<svg xmlns="http://www.w3.org/2000/svg" viewBox="0 0 144 144"><circle cx="72" cy="21" r="18" style="fill:none;stroke:#000;stroke-linecap:round;stroke-linejoin:round;stroke-width:6px"/><path d="M141,123v18H3V123L23.2,52.2A18.3,18.3,0,0,1,40.7,39h62.5a18.21,18.21,0,0,1,17.5,13.2Z" style="fill:none;stroke:#000;stroke-linecap:round;stroke-linejoin:round;stroke-width:6px"/><path d="M92.2,78.3c-1-4.5-3.3-6.3-8.2-6.3-7.5,0-8.9,6-8.9,14.8S76.5,102,84,102c6.3,0,8.2-4.3,8.7-12H84" style="fill:none;stroke:#000;stroke-linecap:round;stroke-linejoin:round;stroke-width:6px"/><line x1="51" y1="102" x2="51" y2="72" style="fill:none;stroke:#000;stroke-linecap:round;stroke-linejoin:round;stroke-width:6px"/><polyline points="66 102 51.1 86.4 66 72" style="fill:none;stroke:#000;stroke-linecap:round;stroke-linejoin:round;stroke-width:6px"/><rect width="144" height="144" style="fill:none"/></svg>