<svg xmlns="http://www.w3.org/2000/svg" viewBox="0 0 144.0187 144"><path d="M106.1,63.4a34.57,34.57,0,0,1,34.6,34.4v8.6A34.8266,34.8266,0,0,1,106,141H42.6c-31.3,0-27-43.1-27-43.1S4.4,94.6,3,85.2a2.1984,2.1984,0,0,1,.9-2.1A2.1331,2.1331,0,0,1,6.2,83c9.6,5.7,19.4,5.2,29.6-.4a2.098,2.098,0,0,1,3.1,2.1c-1,8.2-12.7,13-12.7,13s-1,21.5,17.3,21.5C67.3,119.4,63.1,63.4,106.1,63.4Z" transform="translate(0.0187)" style="fill:none;stroke:#000;stroke-linejoin:round;stroke-width:6px"/><path d="M85.6,51.6S98.8,33.7,95.9,24.4c-3.4-10.7-18.5-9.6-17.5,4.4-7.2-12-20.2-4.1-16.8,6.5C64.5,44.6,85.6,51.6,85.6,51.6Z" transform="translate(0.0187)" style="fill:none;stroke:#000;stroke-linejoin:round;stroke-width:6px"/><path d="M35.3,37.4s11.8-8.6,11.8-15c0-7.3-9.7-9.7-11.8-.7-2.1-8.9-11.8-6.6-11.8.7C23.5,28.9,35.3,37.4,35.3,37.4Z" transform="translate(0.0187)" style="fill:none;stroke:#000;stroke-linejoin:round;stroke-width:6px"/><path d="M113,30.9s19,3,24.9-2.9c6.8-6.8,0-18-10.3-11.7C134,5.9,122.8-.9,116,5.9,110,11.9,113,30.9,113,30.9Z" transform="translate(0.0187)" style="fill:none;stroke:#000;stroke-linejoin:round;stroke-width:6px"/><line x1="117.0187" y1="90" x2="117.0187" y2="87" style="fill:none;stroke:#000;stroke-linecap:round;stroke-linejoin:round;stroke-width:6px"/><path d="M136.4,123c-9,0-15.9-2.2-19.7-6" transform="translate(0.0187)" style="fill:none;stroke:#000;stroke-linecap:round;stroke-linejoin:round;stroke-width:6px"/><rect x="0.0187" width="144" height="144" style="fill:none"/></svg>