<svg xmlns="http://www.w3.org/2000/svg" viewBox="0 0 144.1 144"><polyline points="28.6 101.6 3 63 123 63 69 117 57 117" style="fill:none;stroke:#000;stroke-linejoin:round;stroke-width:6px"/><circle cx="39" cy="117" r="18" style="fill:none;stroke:#000;stroke-linejoin:round;stroke-width:6px"/><line x1="123" y1="63" x2="141.1" y2="45" style="fill:none;stroke:#000;stroke-linecap:round;stroke-linejoin:round;stroke-width:6px"/><path d="M123,63.5v56.4a5.9564,5.9564,0,0,1-2.7,5,6.0712,6.0712,0,0,1-5.7.5L85.5,100.5" style="fill:none;stroke:#000;stroke-linecap:round;stroke-linejoin:round;stroke-width:6px"/><path d="M109.3,63c0-10.9-6.9-18.2-15.4-18.2a14.1414,14.1414,0,0,0-7.1,1.8,24.2741,24.2741,0,0,0-47.6,0,15.2548,15.2548,0,0,0-7.1-1.8c-8.5,0-15.4,7.1-15.4,18.2" style="fill:none;stroke:#000;stroke-linejoin:round;stroke-width:6px"/><rect width="144" height="144" style="fill:none"/></svg>