<svg xmlns="http://www.w3.org/2000/svg" viewBox="0 0 144 144.3112"><path d="M55.69,14.67A11.42,11.42,0,0,1,44.1835,26.0029Q44.0917,26.0022,44,26A11.33,11.33,0,0,1,32.4228,14.9228q-.0029-.1265-.0028-.2528a11.64,11.64,0,0,1,23.27-.6823Q55.7,14.3288,55.69,14.67Z" transform="translate(0 0.3112)" style="fill:none;stroke:#000;stroke-linecap:round;stroke-linejoin:round;stroke-width:6px"/><path d="M94,118c-6.62,13.42-20,23-36,23a41.29,41.29,0,0,1-41-41c0-14,7.2-25.71,18-33" transform="translate(0 0.3112)" style="fill:none;stroke:#000;stroke-linecap:round;stroke-linejoin:round;stroke-width:6px"/><polyline points="127.01 122.311 117 127.311 94 89.311 54 88.311 47 26.311" style="fill:none;stroke:#000;stroke-linecap:round;stroke-linejoin:round;stroke-width:6px"/><line x1="94" y1="64.3112" x2="52" y2="64.3112" style="fill:none;stroke:#000;stroke-linecap:round;stroke-linejoin:round;stroke-width:6px"/><rect y="0.3112" width="144" height="144" style="fill:none"/></svg>