<svg xmlns="http://www.w3.org/2000/svg" viewBox="0 0 144 144.15"><path d="M114,141s27-15,27-39c0-18-21-18-27,0-6-18-27-18-27,1.4C87,126,114,141,114,141Z" transform="translate(0 0.15)" style="fill:none;stroke:#000;stroke-linejoin:round;stroke-width:6px"/><path d="M20.1,45.4a53.5957,53.5957,0,0,1,75.9,0" transform="translate(0 0.15)" style="fill:none;stroke:#000;stroke-linecap:round;stroke-linejoin:round;stroke-width:6px"/><path d="M111.2,24.9a75.0822,75.0822,0,0,0-106.3,0" transform="translate(0 0.15)" style="fill:none;stroke:#000;stroke-linecap:round;stroke-linejoin:round;stroke-width:6px"/><path d="M35.3,66a32.23,32.23,0,0,1,45.6,0" transform="translate(0 0.15)" style="fill:none;stroke:#000;stroke-linecap:round;stroke-linejoin:round;stroke-width:6px"/><path d="M96,45.4a53.5957,53.5957,0,0,0-75.9,0" transform="translate(0 0.15)" style="fill:none;stroke:#000;stroke-linecap:round;stroke-linejoin:round;stroke-width:6px"/><path d="M80.8,66a32.23,32.23,0,0,0-45.6,0" transform="translate(0 0.15)" style="fill:none;stroke:#000;stroke-linecap:round;stroke-linejoin:round;stroke-width:6px"/><circle cx="58" cy="94.25" r="10.7" style="fill:none;stroke:#000;stroke-linecap:round;stroke-linejoin:round;stroke-width:6px"/><rect y="0.15" width="144" height="144" style="fill:none"/></svg>