<svg xmlns="http://www.w3.org/2000/svg" viewBox="0 0 144 144"><path d="M63,141a23.9424,23.9424,0,0,1-24-24V81H99v36a23.9424,23.9424,0,0,1-24,24Z" style="fill:none;stroke:#000;stroke-linecap:round;stroke-linejoin:round;stroke-width:6px"/><path d="M99,87h9a15,15,0,0,1,0,30H99" style="fill:none;stroke:#000;stroke-linecap:round;stroke-linejoin:round;stroke-width:6px"/><path d="M31,45.8a53.5957,53.5957,0,0,1,75.9,0" style="fill:none;stroke:#000;stroke-linecap:round;stroke-linejoin:round;stroke-width:6px"/><path d="M122.1,25.2a75.0519,75.0519,0,0,0-106.2,0" style="fill:none;stroke:#000;stroke-linecap:round;stroke-linejoin:round;stroke-width:6px"/><path d="M46.2,66.3a32.23,32.23,0,0,1,45.6,0" style="fill:none;stroke:#000;stroke-linecap:round;stroke-linejoin:round;stroke-width:6px"/><path d="M107,45.8a53.5957,53.5957,0,0,0-75.9,0" style="fill:none;stroke:#000;stroke-linecap:round;stroke-linejoin:round;stroke-width:6px"/><path d="M91.8,66.3a32.23,32.23,0,0,0-45.6,0" style="fill:none;stroke:#000;stroke-linecap:round;stroke-linejoin:round;stroke-width:6px"/><rect width="144" height="144" style="fill:none"/></svg>