<svg xmlns="http://www.w3.org/2000/svg" viewBox="0 0 144 144"><path d="M72,138s34.7-25,34.7-43.5c0-21.4-28.4-28.1-34.7-2.1-6.3-26-34.7-19.2-34.7,2.1C37.3,113,72,138,72,138Z" style="fill:none;stroke:#000;stroke-linejoin:round;stroke-width:6px"/><path d="M34,45.8a53.5957,53.5957,0,0,1,75.9,0" style="fill:none;stroke:#000;stroke-linecap:round;stroke-linejoin:round;stroke-width:6px"/><path d="M125.1,31.2a75.1726,75.1726,0,0,0-106.3,0" style="fill:none;stroke:#000;stroke-linecap:round;stroke-linejoin:round;stroke-width:6px"/><path d="M49.2,60.3a32.23,32.23,0,0,1,45.6,0" style="fill:none;stroke:#000;stroke-linecap:round;stroke-linejoin:round;stroke-width:6px"/><path d="M110,45.8a53.5957,53.5957,0,0,0-75.9,0" style="fill:none;stroke:#000;stroke-linecap:round;stroke-linejoin:round;stroke-width:6px"/><path d="M94.8,60.3a32.23,32.23,0,0,0-45.6,0" style="fill:none;stroke:#000;stroke-linecap:round;stroke-linejoin:round;stroke-width:6px"/><rect width="144" height="144" style="fill:none"/></svg>