<svg xmlns="http://www.w3.org/2000/svg" viewBox="0 0 144 144.0125"><path d="M134.4,132.7l6-10.4-6-3.5a19.9021,19.9021,0,0,0,0-9.7l6-3.5-6-10.4-6,3.5a21.9532,21.9532,0,0,0-8.4-4.8v-7H108v7a21.9532,21.9532,0,0,0-8.4,4.8l-6-3.5-6,10.4,6,3.5a19.9021,19.9021,0,0,0,0,9.7l-6,3.5,6,10.4,6-3.5A21.9532,21.9532,0,0,0,108,134v7h12v-7a21.9532,21.9532,0,0,0,8.4-4.8Z" transform="translate(0 0.0125)" style="fill:none;stroke:#000;stroke-linejoin:round;stroke-width:6px"/><circle cx="114" cy="114.0125" r="9" style="fill:none;stroke:#000;stroke-linejoin:round;stroke-width:6px"/><path d="M18.9,45.6a53.5957,53.5957,0,0,1,75.9,0" transform="translate(0 0.0125)" style="fill:none;stroke:#000;stroke-linecap:round;stroke-linejoin:round;stroke-width:6px"/><path d="M110,25A75.1726,75.1726,0,0,0,3.7,25" transform="translate(0 0.0125)" style="fill:none;stroke:#000;stroke-linecap:round;stroke-linejoin:round;stroke-width:6px"/><path d="M34.1,66.1a32.23,32.23,0,0,1,45.6,0" transform="translate(0 0.0125)" style="fill:none;stroke:#000;stroke-linecap:round;stroke-linejoin:round;stroke-width:6px"/><path d="M94.8,45.6a53.5957,53.5957,0,0,0-75.9,0" transform="translate(0 0.0125)" style="fill:none;stroke:#000;stroke-linecap:round;stroke-linejoin:round;stroke-width:6px"/><path d="M79.6,66.1a32.23,32.23,0,0,0-45.6,0" transform="translate(0 0.0125)" style="fill:none;stroke:#000;stroke-linecap:round;stroke-linejoin:round;stroke-width:6px"/><circle cx="56.9" cy="94.3125" r="10.7" style="fill:none;stroke:#000;stroke-linecap:round;stroke-linejoin:round;stroke-width:6px"/><rect y="0.0125" width="144" height="144" style="fill:none"/></svg>