<svg xmlns="http://www.w3.org/2000/svg" viewBox="0 0 144 144.025"><circle cx="72" cy="48.025" r="6" style="fill:none;stroke:#000;stroke-linecap:round;stroke-linejoin:round;stroke-width:6px"/><path d="M55,37a23.901,23.901,0,0,1,33.9,0" transform="translate(0 0.025)" style="fill:none;stroke:#000;stroke-linecap:round;stroke-linejoin:round;stroke-width:6px"/><path d="M44.4,26.4a38.99,38.99,0,0,1,55.1,0" transform="translate(0 0.025)" style="fill:none;stroke:#000;stroke-linecap:round;stroke-linejoin:round;stroke-width:6px"/><path d="M35.9,17.9a51.1211,51.1211,0,0,1,72.2,0" transform="translate(0 0.025)" style="fill:none;stroke:#000;stroke-linecap:round;stroke-linejoin:round;stroke-width:6px"/><path d="M114,33h12a8.7791,8.7791,0,0,1,9,9v77.5a9.2077,9.2077,0,0,1-9,9.5H18a9.2706,9.2706,0,0,1-9-9.5V42a8.7791,8.7791,0,0,1,9-9H30" transform="translate(0 0.025)" style="fill:none;stroke:#000;stroke-linecap:round;stroke-linejoin:round;stroke-width:6px"/><line x1="36" y1="141.025" x2="108" y2="141.025" style="fill:none;stroke:#000;stroke-linecap:round;stroke-linejoin:round;stroke-width:6px"/><line x1="72" y1="129.025" x2="72" y2="141.025" style="fill:none;stroke:#000;stroke-linecap:round;stroke-linejoin:round;stroke-width:6px"/><circle cx="72" cy="117.025" r="3" style="fill:none;stroke:#000;stroke-linecap:round;stroke-linejoin:round;stroke-width:6px"/><line x1="9" y1="105.025" x2="135" y2="105.025" style="fill:none;stroke:#000;stroke-linecap:round;stroke-linejoin:round;stroke-width:6px"/><rect y="0.025" width="144" height="144" style="fill:none"/></svg>