<svg xmlns="http://www.w3.org/2000/svg" viewBox="0 0 144 144.0125"><polyline points="141 90.013 141 105.013 126 105.013" style="fill:none;stroke:#000;stroke-linecap:round;stroke-linejoin:round;stroke-width:6px"/><path d="M87,105c3.7-10.5,15.2-18,27-18s23.3,7.5,27,18" transform="translate(0 0.0125)" style="fill:none;stroke:#000;stroke-linecap:round;stroke-linejoin:round;stroke-width:6px"/><polyline points="87 138.013 87 123.013 102 123.013" style="fill:none;stroke:#000;stroke-linecap:round;stroke-linejoin:round;stroke-width:6px"/><path d="M141,123c-3.7,10.5-15.2,18-27,18s-23.3-7.5-27-18" transform="translate(0 0.0125)" style="fill:none;stroke:#000;stroke-linecap:round;stroke-linejoin:round;stroke-width:6px"/><path d="M19,45.6a53.5957,53.5957,0,0,1,75.9,0" transform="translate(0 0.0125)" style="fill:none;stroke:#000;stroke-linecap:round;stroke-linejoin:round;stroke-width:6px"/><path d="M110.1,25A75.1726,75.1726,0,0,0,3.8,25" transform="translate(0 0.0125)" style="fill:none;stroke:#000;stroke-linecap:round;stroke-linejoin:round;stroke-width:6px"/><path d="M34.1,66.1a32.23,32.23,0,0,1,45.6,0" transform="translate(0 0.0125)" style="fill:none;stroke:#000;stroke-linecap:round;stroke-linejoin:round;stroke-width:6px"/><path d="M94.9,45.6a53.5957,53.5957,0,0,0-75.9,0" transform="translate(0 0.0125)" style="fill:none;stroke:#000;stroke-linecap:round;stroke-linejoin:round;stroke-width:6px"/><path d="M79.7,66.1a32.23,32.23,0,0,0-45.6,0" transform="translate(0 0.0125)" style="fill:none;stroke:#000;stroke-linecap:round;stroke-linejoin:round;stroke-width:6px"/><circle cx="56.9" cy="94.3125" r="10.7" style="fill:none;stroke:#000;stroke-linecap:round;stroke-linejoin:round;stroke-width:6px"/><rect y="0.0125" width="144" height="144" style="fill:none"/></svg>