<svg xmlns="http://www.w3.org/2000/svg" viewBox="0 0 144 144"><path d="M9,105V30a8.9626,8.9626,0,0,1,9-9H126a8.9626,8.9626,0,0,1,9,9v75" style="fill:none;stroke:#000;stroke-linecap:round;stroke-linejoin:round;stroke-width:6px"/><path d="M87,105v6H57v-6H3v12a6.0176,6.0176,0,0,0,6,6H135a6.0176,6.0176,0,0,0,6-6V105Z" style="fill:none;stroke:#000;stroke-linecap:round;stroke-linejoin:round;stroke-width:6px"/><circle cx="72" cy="84" r="6" style="fill:none;stroke:#000;stroke-linecap:round;stroke-linejoin:round;stroke-width:6px"/><path d="M55,73a23.901,23.901,0,0,1,33.9,0" style="fill:none;stroke:#000;stroke-linecap:round;stroke-linejoin:round;stroke-width:6px"/><path d="M44.4,62.4a38.99,38.99,0,0,1,55.1,0" style="fill:none;stroke:#000;stroke-linecap:round;stroke-linejoin:round;stroke-width:6px"/><path d="M35.9,53.9a51,51,0,0,1,72.1,0" style="fill:none;stroke:#000;stroke-linecap:round;stroke-linejoin:round;stroke-width:6px"/><rect width="144" height="144" style="fill:none"/></svg>