<svg xmlns="http://www.w3.org/2000/svg" viewBox="0 0 144 144.025"><path d="M93,51h27a8.9626,8.9626,0,0,1,9,9v63" transform="translate(0 0.025)" style="fill:none;stroke:#000;stroke-linecap:round;stroke-linejoin:round;stroke-width:6px"/><path d="M15,123V60a8.9626,8.9626,0,0,1,9-9H51" transform="translate(0 0.025)" style="fill:none;stroke:#000;stroke-linecap:round;stroke-linejoin:round;stroke-width:6px"/><path d="M87,123v6H57v-6H9v12a6.0176,6.0176,0,0,0,6,6H129a6.0176,6.0176,0,0,0,6-6V123Z" transform="translate(0 0.025)" style="fill:none;stroke:#000;stroke-linecap:round;stroke-linejoin:round;stroke-width:6px"/><circle cx="72" cy="48.025" r="6" style="fill:none;stroke:#000;stroke-linecap:round;stroke-linejoin:round;stroke-width:6px"/><path d="M55,37a23.901,23.901,0,0,1,33.9,0" transform="translate(0 0.025)" style="fill:none;stroke:#000;stroke-linecap:round;stroke-linejoin:round;stroke-width:6px"/><path d="M44.4,26.4a38.99,38.99,0,0,1,55.1,0" transform="translate(0 0.025)" style="fill:none;stroke:#000;stroke-linecap:round;stroke-linejoin:round;stroke-width:6px"/><path d="M35.9,17.9a51.1211,51.1211,0,0,1,72.2,0" transform="translate(0 0.025)" style="fill:none;stroke:#000;stroke-linecap:round;stroke-linejoin:round;stroke-width:6px"/><rect x="27" y="63.025" width="90" height="48" style="fill:none;stroke:#000;stroke-linecap:round;stroke-linejoin:round;stroke-width:6px"/><rect y="0.025" width="144" height="144" style="fill:none"/></svg>