<svg xmlns="http://www.w3.org/2000/svg" viewBox="0 0 144 144.0125"><polygon points="141 141.013 81 141.013 111 78.013 141 141.013" style="fill:none;stroke:#000;stroke-linecap:round;stroke-linejoin:round;stroke-width:6px"/><line x1="111" y1="102.0125" x2="111" y2="120.0125" style="fill:none;stroke:#000;stroke-linecap:round;stroke-linejoin:round;stroke-width:6px"/><path d="M111,126a3,3,0,0,0,0,6,3,3,0,0,0,0-6Z" style="fill:#000" transform="translate(0 0.0125)"/><path d="M19,45.6a53.5957,53.5957,0,0,1,75.9,0" transform="translate(0 0.0125)" style="fill:none;stroke:#000;stroke-linecap:round;stroke-linejoin:round;stroke-width:6px"/><path d="M110.1,25A75.0519,75.0519,0,0,0,3.9,25" transform="translate(0 0.0125)" style="fill:none;stroke:#000;stroke-linecap:round;stroke-linejoin:round;stroke-width:6px"/><path d="M34.2,66.1a32.23,32.23,0,0,1,45.6,0" transform="translate(0 0.0125)" style="fill:none;stroke:#000;stroke-linecap:round;stroke-linejoin:round;stroke-width:6px"/><path d="M95,45.6a53.5957,53.5957,0,0,0-75.9,0" transform="translate(0 0.0125)" style="fill:none;stroke:#000;stroke-linecap:round;stroke-linejoin:round;stroke-width:6px"/><path d="M79.8,66.1a32.23,32.23,0,0,0-45.6,0" transform="translate(0 0.0125)" style="fill:none;stroke:#000;stroke-linecap:round;stroke-linejoin:round;stroke-width:6px"/><circle cx="57" cy="94.3125" r="10.7" style="fill:none;stroke:#000;stroke-linecap:round;stroke-linejoin:round;stroke-width:6px"/><rect y="0.0125" width="144" height="144" style="fill:none"/></svg>