<svg xmlns="http://www.w3.org/2000/svg" viewBox="0 0 144 144"><polyline points="123 108 111 96 99 108" style="fill:none;stroke:#000;stroke-linecap:round;stroke-linejoin:round;stroke-width:6px"/><circle cx="111" cy="111" r="30" style="fill:none;stroke:#000;stroke-linejoin:round;stroke-width:6px"/><line x1="111" y1="96" x2="111" y2="126" style="fill:none;stroke:#000;stroke-linecap:round;stroke-linejoin:round;stroke-width:6px"/><path d="M19,45.8a53.5957,53.5957,0,0,1,75.9,0" style="fill:none;stroke:#000;stroke-linecap:round;stroke-linejoin:round;stroke-width:6px"/><path d="M110.1,25.2a75.0519,75.0519,0,0,0-106.2,0" style="fill:none;stroke:#000;stroke-linecap:round;stroke-linejoin:round;stroke-width:6px"/><path d="M34.2,66.3a32.23,32.23,0,0,1,45.6,0" style="fill:none;stroke:#000;stroke-linecap:round;stroke-linejoin:round;stroke-width:6px"/><path d="M95,45.8a53.5957,53.5957,0,0,0-75.9,0" style="fill:none;stroke:#000;stroke-linecap:round;stroke-linejoin:round;stroke-width:6px"/><path d="M79.8,66.3a32.23,32.23,0,0,0-45.6,0" style="fill:none;stroke:#000;stroke-linecap:round;stroke-linejoin:round;stroke-width:6px"/><circle cx="57" cy="94.5" r="10.7" style="fill:none;stroke:#000;stroke-linecap:round;stroke-linejoin:round;stroke-width:6px"/><rect width="144" height="144" style="fill:none"/></svg>