<svg xmlns="http://www.w3.org/2000/svg" viewBox="0 0 144 144"><path d="M63,51A12.0353,12.0353,0,0,1,51,63H15A12.0353,12.0353,0,0,1,3,51V15A12.0353,12.0353,0,0,1,15,3H51A12.0353,12.0353,0,0,1,63,15Z" style="fill:none;stroke:#000;stroke-linecap:round;stroke-linejoin:round;stroke-width:6px"/><line x1="3" y1="21" x2="63" y2="21" style="fill:none;stroke:#000;stroke-linecap:round;stroke-linejoin:round;stroke-width:6px"/><path d="M81,51A12.0353,12.0353,0,0,0,93,63h36a12.0353,12.0353,0,0,0,12-12V15A12.0353,12.0353,0,0,0,129,3H93A12.0353,12.0353,0,0,0,81,15Z" style="fill:none;stroke:#000;stroke-linecap:round;stroke-linejoin:round;stroke-width:6px"/><line x1="141" y1="21" x2="81" y2="21" style="fill:none;stroke:#000;stroke-linecap:round;stroke-linejoin:round;stroke-width:6px"/><path d="M63,129a12.0353,12.0353,0,0,1-12,12H15A12.0353,12.0353,0,0,1,3,129V93A12.0353,12.0353,0,0,1,15,81H51A12.0353,12.0353,0,0,1,63,93Z" style="fill:none;stroke:#000;stroke-linecap:round;stroke-linejoin:round;stroke-width:6px"/><line x1="3" y1="99" x2="63" y2="99" style="fill:none;stroke:#000;stroke-linecap:round;stroke-linejoin:round;stroke-width:6px"/><path d="M81,129a12.0353,12.0353,0,0,0,12,12h36a12.0353,12.0353,0,0,0,12-12V93a12.0353,12.0353,0,0,0-12-12H93A12.0353,12.0353,0,0,0,81,93Z" style="fill:none;stroke:#000;stroke-linecap:round;stroke-linejoin:round;stroke-width:6px"/><line x1="141" y1="99" x2="81" y2="99" style="fill:none;stroke:#000;stroke-linecap:round;stroke-linejoin:round;stroke-width:6px"/><rect width="144" height="144" style="fill:none"/></svg>