<svg xmlns="http://www.w3.org/2000/svg" viewBox="0 0 144 144"><line x1="3" y1="39" x2="117" y2="39" style="fill:none;stroke:#000;stroke-linecap:round;stroke-linejoin:round;stroke-width:6px"/><path d="M21,24a3,3,0,1,0,3,3,2.9465,2.9465,0,0,0-3-3Z" style="fill:#000"/><path d="M33,24a3,3,0,1,0,3,3,2.9465,2.9465,0,0,0-3-3Z" style="fill:#000"/><path d="M45,24a3,3,0,1,0,3,3,2.9465,2.9465,0,0,0-3-3Z" style="fill:#000"/><path d="M117,87a12.0353,12.0353,0,0,1-12,12H15A12.0353,12.0353,0,0,1,3,87V27A12.0353,12.0353,0,0,1,15,15h90a12.0353,12.0353,0,0,1,12,12Z" style="fill:none;stroke:#000;stroke-linecap:round;stroke-linejoin:round;stroke-width:6px"/><path d="M117,27a12.0353,12.0353,0,0,1,12,12V99a12.0353,12.0353,0,0,1-12,12H27A12.0353,12.0353,0,0,1,15,99" style="fill:none;stroke:#000;stroke-linecap:round;stroke-linejoin:round;stroke-width:6px"/><path d="M129,39a12.0353,12.0353,0,0,1,12,12v60a12.0353,12.0353,0,0,1-12,12H39a12.0353,12.0353,0,0,1-12-12" style="fill:none;stroke:#000;stroke-linecap:round;stroke-linejoin:round;stroke-width:6px"/><rect width="144" height="144" style="fill:none"/></svg>