<svg xmlns="http://www.w3.org/2000/svg" viewBox="0 0 144 144.0159"><path d="M63,79.6,9.5,99.2c-2,.7-3.4-.2-3.4-3.6C6.2,60.4,42,60,63,66" transform="translate(0 0.0159)" style="fill:none;stroke:#000;stroke-linejoin:round;stroke-width:6px"/><path d="M63,63.4V5.4c0-2.1,1.3-3.1,4.6-1.9C101.1,15.4,90.2,46.1,81,63.4" transform="translate(0 0.0159)" style="fill:none;stroke:#000;stroke-linejoin:round;stroke-width:6px"/><path d="M81.1,64.9l54,24.9c1.9.8,2.3,2.5-.1,4.9-20.4,20.6-41.7,5.7-54-8.9" transform="translate(0 0.0159)" style="fill:none;stroke:#000;stroke-linejoin:round;stroke-width:6px"/><line x1="141" y1="141.0159" x2="3" y2="141.0159" style="fill:none;stroke:#000;stroke-linecap:round;stroke-linejoin:round;stroke-width:6px"/><path d="M63,63.4a9,9,0,0,1,18,0V141H63Z" transform="translate(0 0.0159)" style="fill:none;stroke:#000;stroke-linejoin:round;stroke-width:6px"/><rect y="0.0159" width="144" height="144" style="fill:none"/></svg>