<svg xmlns="http://www.w3.org/2000/svg" viewBox="0 0 144 144"><path d="M134.2,98.5l6.4-3.7-9-15.6-6.5,3.7a29.7731,29.7731,0,0,0-11.2-6.4V69H96v7.5a29.7731,29.7731,0,0,0-11.2,6.4l-6.5-3.7-9,15.6,6.4,3.7a28.5417,28.5417,0,0,0,0,13l-6.4,3.7,9,15.6,6.5-3.7A29.7731,29.7731,0,0,0,96,133.5V141h18v-7.5a29.7731,29.7731,0,0,0,11.2-6.4l6.5,3.7,9-15.6-6.4-3.7A28.5441,28.5441,0,0,0,134.2,98.5Z" style="fill:none;stroke:#000;stroke-linejoin:round;stroke-width:6px"/><circle cx="105" cy="105" r="12" style="fill:none;stroke:#000;stroke-linejoin:round;stroke-width:6px"/><line x1="3" y1="27" x2="123" y2="27" style="fill:none;stroke:#000;stroke-linecap:round;stroke-linejoin:round;stroke-width:6px"/><path d="M21,12a3,3,0,1,0,3,3,2.9465,2.9465,0,0,0-3-3Z" style="fill:#000"/><path d="M33,12a3,3,0,1,0,3,3,2.9465,2.9465,0,0,0-3-3Z" style="fill:#000"/><path d="M45,12a3,3,0,1,0,3,3,2.9465,2.9465,0,0,0-3-3Z" style="fill:#000"/><path d="M57,99H15A12.0353,12.0353,0,0,1,3,87V15A12.0353,12.0353,0,0,1,15,3h96a12.0353,12.0353,0,0,1,12,12V60" style="fill:none;stroke:#000;stroke-linecap:round;stroke-linejoin:round;stroke-width:6px"/><rect width="144" height="144" style="fill:none"/></svg>