<svg xmlns="http://www.w3.org/2000/svg" viewBox="0 0 144 144"><path d="M57,15a12,12,0,0,0-24,0c0,4.3,1.4,5.5,12,27C55.6,20.5,57,19.3,57,15Z" style="fill:none;stroke:#000;stroke-linecap:round;stroke-linejoin:round;stroke-width:6px"/><path d="M57,108a12,12,0,0,1-24,0c0-4.3,1.4-5.5,12-27C55.6,102.5,57,103.7,57,108Z" style="fill:none;stroke:#000;stroke-linecap:round;stroke-linejoin:round;stroke-width:6px"/><line x1="45" y1="42" x2="45" y2="81" style="fill:none;stroke:#000;stroke-linecap:round;stroke-linejoin:round;stroke-width:6px"/><path d="M27,63H93l17.6,15.3A8.75,8.75,0,0,0,117,81h24V45H117a9.1264,9.1264,0,0,0-6.2,2.5L93,63" style="fill:none;stroke:#000;stroke-linecap:round;stroke-linejoin:round;stroke-width:6px"/><polygon points="27 45 27 81 9 63 27 45" style="fill:none;stroke:#000;stroke-linecap:round;stroke-linejoin:round;stroke-width:6px"/><line x1="75" y1="63" x2="75" y2="141" style="fill:none;stroke:#000;stroke-linecap:round;stroke-linejoin:round;stroke-width:6px"/><rect width="144" height="144" style="fill:none"/></svg>