<svg xmlns="http://www.w3.org/2000/svg" viewBox="0 0 144 144"><path d="M141,111a12.0353,12.0353,0,0,1-12,12H15A12.0353,12.0353,0,0,1,3,111V27A12.0353,12.0353,0,0,1,15,15H129a12.0353,12.0353,0,0,1,12,12Z" style="fill:none;stroke:#000;stroke-linecap:round;stroke-linejoin:round;stroke-width:6px"/><line x1="3" y1="45" x2="141" y2="45" style="fill:none;stroke:#000;stroke-linecap:round;stroke-linejoin:round;stroke-width:6px"/><circle cx="24" cy="30" r="3" style="fill:none;stroke:#000;stroke-linecap:round;stroke-linejoin:round;stroke-width:6px"/><circle cx="42" cy="30" r="3" style="fill:none;stroke:#000;stroke-linecap:round;stroke-linejoin:round;stroke-width:6px"/><circle cx="60" cy="30" r="3" style="fill:none;stroke:#000;stroke-linecap:round;stroke-linejoin:round;stroke-width:6px"/><path d="M111,88.6c0-9.2-7.8-16.7-17.6-16.4A23.7016,23.7016,0,0,0,72,59.1c-12.6,0-22.9,9.5-23.7,21.6C40.4,79.1,33,84.9,33,92.7,33,105.2,46.6,105,46.6,105H95.8C95.7,105,111,103.1,111,88.6Z" style="fill:none;stroke:#000;stroke-linejoin:round;stroke-width:6px"/><rect width="144" height="144" style="fill:none"/></svg>