<svg xmlns="http://www.w3.org/2000/svg" viewBox="0 0 144 144"><line x1="3" y1="27" x2="129" y2="27" style="fill:none;stroke:#000;stroke-linecap:round;stroke-linejoin:round;stroke-width:6px"/><path d="M21.2,12a3,3,0,1,0,3,3,3.0085,3.0085,0,0,0-3-3Z" style="fill:#000"/><path d="M33.2,12a3,3,0,1,0,3,3,3.0085,3.0085,0,0,0-3-3Z" style="fill:#000"/><path d="M45.2,12a3,3,0,1,0,3,3,3.0085,3.0085,0,0,0-3-3Z" style="fill:#000"/><path d="M51,93H15.2A12.1433,12.1433,0,0,1,3,81V15A12.1433,12.1433,0,0,1,15.2,3h102A11.8655,11.8655,0,0,1,129,15V81a11.8655,11.8655,0,0,1-11.8,12H87" style="fill:none;stroke:#000;stroke-linecap:round;stroke-linejoin:round;stroke-width:6px"/><polyline points="45 117 69 141 93 117" style="fill:none;stroke:#000;stroke-linecap:round;stroke-linejoin:round;stroke-width:6px"/><line x1="69" y1="72" x2="69" y2="141" style="fill:none;stroke:#000;stroke-linecap:round;stroke-linejoin:round;stroke-width:6px"/><rect width="144" height="144" style="fill:none"/></svg>