<svg xmlns="http://www.w3.org/2000/svg" viewBox="0 0 144 144"><path d="M141,111a12.0353,12.0353,0,0,1-12,12H15A12.0353,12.0353,0,0,1,3,111V27A12.0353,12.0353,0,0,1,15,15H129a12.0353,12.0353,0,0,1,12,12Z" style="fill:none;stroke:#000;stroke-linecap:round;stroke-linejoin:round;stroke-width:6px"/><line x1="3" y1="45" x2="141" y2="45" style="fill:none;stroke:#000;stroke-linecap:round;stroke-linejoin:round;stroke-width:6px"/><circle cx="24" cy="30" r="3" style="fill:none;stroke:#000;stroke-linecap:round;stroke-linejoin:round;stroke-width:6px"/><circle cx="42" cy="30" r="3" style="fill:none;stroke:#000;stroke-linecap:round;stroke-linejoin:round;stroke-width:6px"/><circle cx="60" cy="30" r="3" style="fill:none;stroke:#000;stroke-linecap:round;stroke-linejoin:round;stroke-width:6px"/><path d="M21,84A14.98,14.98,0,0,1,36,69h72a15,15,0,0,1,0,30H36A14.98,14.98,0,0,1,21,84Z" style="fill:none;stroke:#000;stroke-linejoin:round;stroke-width:6px"/><line x1="25.7" y1="94.9" x2="51.4" y2="69.2" style="fill:none;stroke:#000;stroke-linejoin:round;stroke-width:6px"/><line x1="39.6" y1="99" x2="69.4" y2="69.2" style="fill:none;stroke:#000;stroke-linejoin:round;stroke-width:6px"/><line x1="57.6" y1="99" x2="87.4" y2="69.2" style="fill:none;stroke:#000;stroke-linejoin:round;stroke-width:6px"/><rect width="144" height="144" style="fill:none"/></svg>