<svg xmlns="http://www.w3.org/2000/svg" viewBox="0 0 144 144"><rect x="3" y="93" width="24" height="48" style="fill:none;stroke:#000;stroke-linejoin:round;stroke-width:6px"/><path d="M27,135H129c0-9-21-18-45-18H42" style="fill:none;stroke:#000;stroke-linecap:round;stroke-linejoin:round;stroke-width:6px"/><path d="M27,99H48c14.1,0,21,15,24,18" style="fill:none;stroke:#000;stroke-linejoin:round;stroke-width:6px"/><path d="M15,126a3,3,0,1,0,3,3,2.9465,2.9465,0,0,0-3-3Z" style="fill:#000"/><path d="M15,66V15A12.0353,12.0353,0,0,1,27,3h96a12.0353,12.0353,0,0,1,12,12V87a12.0353,12.0353,0,0,1-12,12H105" style="fill:none;stroke:#000;stroke-linecap:round;stroke-linejoin:round;stroke-width:6px"/><line x1="15" y1="27" x2="135" y2="27" style="fill:none;stroke:#000;stroke-linecap:round;stroke-linejoin:round;stroke-width:6px"/><path d="M33,12a3,3,0,1,0,3,3,2.9465,2.9465,0,0,0-3-3Z" style="fill:#000"/><path d="M45,12a3,3,0,1,0,3,3,2.9465,2.9465,0,0,0-3-3Z" style="fill:#000"/><path d="M57,12a3,3,0,1,0,3,3,2.9465,2.9465,0,0,0-3-3Z" style="fill:#000"/><rect width="144" height="144" style="fill:none"/></svg>