<svg xmlns="http://www.w3.org/2000/svg" viewBox="0 0 144 144"><line x1="3" y1="27" x2="123" y2="27" style="fill:none;stroke:#000;stroke-linecap:round;stroke-linejoin:round;stroke-width:6px"/><path d="M21,12a2.9465,2.9465,0,0,0-3,2.892q-.001.054,0,.108a3,3,0,1,0,3-3Z" style="fill:#000"/><path d="M33,12a2.9465,2.9465,0,0,0-3,2.892q-.001.054,0,.108a3,3,0,1,0,3-3Z" style="fill:#000"/><path d="M45,12a2.9465,2.9465,0,0,0-3,2.892q-.0011.054,0,.108a3,3,0,1,0,3-3Z" style="fill:#000"/><path d="M57,99H15A12.0353,12.0353,0,0,1,3,87V15A12.0353,12.0353,0,0,1,15,3h96a12.0353,12.0353,0,0,1,12,12V63" style="fill:none;stroke:#000;stroke-linecap:round;stroke-linejoin:round;stroke-width:6px"/><polygon points="96 135 75 141 81 120 126 75 141 90 96 135" style="fill:none;stroke:#000;stroke-linecap:round;stroke-linejoin:round;stroke-width:6px"/><line x1="114" y1="87" x2="129" y2="102" style="fill:none;stroke:#000;stroke-linejoin:round;stroke-width:6px"/><line x1="81" y1="120" x2="96" y2="135" style="fill:none;stroke:#000;stroke-linecap:round;stroke-linejoin:round;stroke-width:6px"/><rect width="144" height="144" style="fill:none"/></svg>