<svg xmlns="http://www.w3.org/2000/svg" viewBox="0 0 144 144"><circle cx="105" cy="105" r="36" style="fill:none;stroke:#000;stroke-linejoin:round;stroke-width:6px"/><path d="M96.7,112.9a8.3,8.3,0,0,0,16.6,0,8.3652,8.3652,0,0,0-8.3-8.4,8.3,8.3,0,1,1,8.3-8.3" style="fill:none;stroke:#000;stroke-linecap:round;stroke-linejoin:round;stroke-width:6px"/><line x1="105" y1="121.3" x2="105" y2="126.8" style="fill:none;stroke:#000;stroke-linecap:round;stroke-linejoin:round;stroke-width:6px"/><line x1="105" y1="82.3" x2="105" y2="87.9" style="fill:none;stroke:#000;stroke-linecap:round;stroke-linejoin:round;stroke-width:6px"/><line x1="3" y1="27" x2="123" y2="27" style="fill:none;stroke:#000;stroke-linecap:round;stroke-linejoin:round;stroke-width:6px"/><path d="M21,12a3,3,0,1,0,3,3,2.9465,2.9465,0,0,0-3-3Z" style="fill:#000"/><path d="M33,12a3,3,0,1,0,3,3,2.9465,2.9465,0,0,0-3-3Z" style="fill:#000"/><path d="M45,12a3,3,0,1,0,3,3,2.9465,2.9465,0,0,0-3-3Z" style="fill:#000"/><path d="M51,99H15A12.0353,12.0353,0,0,1,3,87V15A12.0353,12.0353,0,0,1,15,3h96a12.0353,12.0353,0,0,1,12,12V51" style="fill:none;stroke:#000;stroke-linecap:round;stroke-linejoin:round;stroke-width:6px"/><rect width="144" height="144" style="fill:none"/></svg>