<svg xmlns="http://www.w3.org/2000/svg" viewBox="0 0 144 144"><path d="M128.2,92.2a12.0107,12.0107,0,0,1-17,0L51.8,32.8a12.0107,12.0107,0,0,1,0-17L56,11.6a12.0107,12.0107,0,0,1,17,0L132.4,71a12.0107,12.0107,0,0,1,0,17Z" style="fill:none;stroke:#000;stroke-linejoin:round;stroke-width:6px"/><path d="M64.5,79.5l-9,9a3.0123,3.0123,0,0,1-3.6.5L44,84.6a3.0132,3.0132,0,0,0-4.1,4.1l11,19.8a3.0132,3.0132,0,0,1-4.1,4.1l-16.7-9.3a2.9585,2.9585,0,0,0-3.8,4.4l11.9,15.8a2.9952,2.9952,0,0,1-3.2,4.7l-13.4-3.8a2.86,2.86,0,0,0-2.9.8L3,141" style="fill:none;stroke:#000;stroke-linecap:round;stroke-linejoin:round;stroke-width:6px"/><rect x="61.0162" y="64.9988" width="24.0015" height="12.0007" transform="translate(-28.8184 72.3899) rotate(-44.9797)" style="fill:none;stroke:#000;stroke-linejoin:round;stroke-width:6.000367202789619px"/><rect width="144" height="144" style="fill:none"/></svg>