<svg xmlns="http://www.w3.org/2000/svg" viewBox="0 0 144 144"><line x1="40.8" y1="99.2" x2="25.5" y2="135.1" style="fill:none;stroke:#000;stroke-linejoin:round;stroke-width:6px"/><line x1="11.7" y1="129.2" x2="39.3" y2="141" style="fill:none;stroke:#000;stroke-linecap:round;stroke-linejoin:round;stroke-width:6px"/><line x1="45.1" y1="35.8" x2="83.7" y2="52.3" style="fill:none;stroke:#000;stroke-linejoin:round;stroke-width:6px"/><path d="M41.6,63.9a3.0772,3.0772,0,0,0-2.8,1.8,3.0211,3.0211,0,0,0,1.6,3.9,2.5367,2.5367,0,0,0,1.2.2A3.0772,3.0772,0,0,0,44.4,68a3.0211,3.0211,0,0,0-1.6-3.9,5.0194,5.0194,0,0,0-1.2-.2Z" style="fill:#000"/><path d="M54.2,49.7a3.0772,3.0772,0,0,0-2.8,1.8A3.0211,3.0211,0,0,0,53,55.4a2.5367,2.5367,0,0,0,1.2.2A3.0772,3.0772,0,0,0,57,53.8a3.0211,3.0211,0,0,0-1.6-3.9,5.0194,5.0194,0,0,0-1.2-.2Z" style="fill:#000"/><path d="M40.2,83a3.0772,3.0772,0,0,0-2.8,1.8A3.0211,3.0211,0,0,0,39,88.7a2.5367,2.5367,0,0,0,1.2.2A3.0772,3.0772,0,0,0,43,87.1a2.9376,2.9376,0,0,0-1.6-3.9,5.0194,5.0194,0,0,0-1.2-.2Z" style="fill:#000"/><path d="M55.8,76.5A3.0772,3.0772,0,0,0,53,78.3a2.9376,2.9376,0,0,0,1.6,3.9,2.5367,2.5367,0,0,0,1.2.2,3.0772,3.0772,0,0,0,2.8-1.8A3.0211,3.0211,0,0,0,57,76.7a5.0194,5.0194,0,0,0-1.2-.2Z" style="fill:#000"/><path d="M68.4,62.3a3.0772,3.0772,0,0,0-2.8,1.8A3.0211,3.0211,0,0,0,67.2,68a2.5367,2.5367,0,0,0,1.2.2,3.0772,3.0772,0,0,0,2.8-1.8,3.0211,3.0211,0,0,0-1.6-3.9,5.987,5.987,0,0,0-1.2-.2Z" style="fill:#000"/><path d="M28.2,67.7,60.8,6.6,93.9,20.7,72.3,86.6A23.99,23.99,0,0,1,28.2,67.7Z" style="fill:none;stroke:#000;stroke-linecap:round;stroke-linejoin:round;stroke-width:6px"/><line x1="113.8" y1="97.7" x2="120.2" y2="136.2" style="fill:none;stroke:#000;stroke-linejoin:round;stroke-width:6px"/><line x1="135" y1="133.7" x2="105.4" y2="138.6" style="fill:none;stroke:#000;stroke-linecap:round;stroke-linejoin:round;stroke-width:6px"/><line x1="124.6" y1="35.1" x2="98.9" y2="39.4" style="fill:none;stroke:#000;stroke-linecap:round;stroke-linejoin:round;stroke-width:6px"/><path d="M120.7,63.1h-.5a3.09,3.09,0,0,0-2.5,3.4,2.9334,2.9334,0,0,0,3,2.5h.5a3.1332,3.1332,0,0,0,2.5-3.5,3.2092,3.2092,0,0,0-3-2.4Z" style="fill:#000"/><path d="M111.8,46.4h-.5a3.1332,3.1332,0,0,0-2.5,3.5,2.9334,2.9334,0,0,0,3,2.5h.5a3.02,3.02,0,0,0-.5-6Z" style="fill:#000"/><path d="M117.6,82h-.5a3.09,3.09,0,0,0-2.5,3.4,2.9334,2.9334,0,0,0,3,2.5h.5a3.1332,3.1332,0,0,0,2.5-3.5,3.0973,3.0973,0,0,0-3-2.4Z" style="fill:#000"/><path d="M103.9,72h-.5a3.1332,3.1332,0,0,0-2.5,3.5,2.9334,2.9334,0,0,0,3,2.5h.5a3.02,3.02,0,0,0-.5-6Z" style="fill:#000"/><path d="M95,55.2h-.5A3.09,3.09,0,0,0,92,58.6a2.9334,2.9334,0,0,0,3,2.5h.5a2.965,2.965,0,0,0-.5-5.9Z" style="fill:#000"/><path d="M86.2,78a23.9776,23.9776,0,1,0,47.3-7.9L116.2,3,90.1,7.4" style="fill:none;stroke:#000;stroke-linecap:round;stroke-linejoin:round;stroke-width:6px"/><rect width="144" height="144" style="fill:none"/></svg>