<svg xmlns="http://www.w3.org/2000/svg" viewBox="0 0 144 144"><path d="M36.8,67.5A12.0493,12.0493,0,0,0,31.7,80c1,21,4,40.4,12.2,56.3a5.9141,5.9141,0,0,0,5.9,4.7H88.1a6.099,6.099,0,0,0,5.9-4.7c8.2-15.8,11.3-35.3,12.2-56.3a12.0493,12.0493,0,0,0-5.1-12.5L86.3,57.6a12.064,12.064,0,0,1-5.3-10V39H57v8.6a12.064,12.064,0,0,1-5.3,10Z" style="fill:none;stroke:#000;stroke-miterlimit:10;stroke-width:6px"/><rect x="57" y="27" width="24" height="12" style="fill:none;stroke:#000;stroke-miterlimit:10;stroke-width:6px"/><polygon points="87 3 51 3 54 27 84 27 87 3" style="fill:none;stroke:#000;stroke-linejoin:round;stroke-width:6px"/><polygon points="33 75 105 75 69 141 33 75" style="fill:none;stroke:#000;stroke-linecap:round;stroke-linejoin:round;stroke-width:6px"/><polygon points="39 123 69 75 99 123 39 123" style="fill:none;stroke:#000;stroke-linecap:round;stroke-linejoin:round;stroke-width:6px"/><rect width="144" height="144" style="fill:none"/></svg>