<svg xmlns="http://www.w3.org/2000/svg" viewBox="0 0 144 144"><path d="M81,3V25.5c0,11.7,3.5,22.9,9.1,33.2A73.7872,73.7872,0,0,1,99,93.8V129a12.0353,12.0353,0,0,1-12,12H57a12.0353,12.0353,0,0,1-12-12V91.5c0-11.7,3.5-22.9,9.1-33.2A73.7872,73.7872,0,0,0,63,23.2V3Z" style="fill:none;stroke:#000;stroke-linecap:round;stroke-linejoin:round;stroke-width:6px"/><path d="M54.1,58.4l3.3,4.7a17.9994,17.9994,0,0,0,29.4.1l3.3-4.6" style="fill:none;stroke:#000;stroke-linecap:round;stroke-linejoin:round;stroke-width:6px"/><line x1="45" y1="93" x2="99" y2="93" style="fill:none;stroke:#000;stroke-linecap:round;stroke-linejoin:round;stroke-width:6px"/><line x1="45" y1="123" x2="99" y2="123" style="fill:none;stroke:#000;stroke-linecap:round;stroke-linejoin:round;stroke-width:6px"/><line x1="63" y1="15" x2="81" y2="15" style="fill:none;stroke:#000;stroke-linecap:round;stroke-linejoin:round;stroke-width:6px"/><circle cx="72" cy="54" r="6" style="fill:none;stroke:#000;stroke-linecap:round;stroke-linejoin:round;stroke-width:6px"/><rect width="144" height="144" style="fill:none"/></svg>