<svg xmlns="http://www.w3.org/2000/svg" viewBox="0 0 144 144"><path d="M40.2,68.9,67.9,41.2c8.5-8.5,19.1-8.5,25.5-8.5s8.5,0,14.9-6.4L131.6,3" style="fill:none;stroke:#000;stroke-linecap:round;stroke-linejoin:round;stroke-width:6px"/><path d="M140,11.6,116.7,34.9c-6.4,6.4-6.4,8.5-6.4,14.8,0,4.6,0,11.5-3.2,18.1" style="fill:none;stroke:#000;stroke-linecap:round;stroke-linejoin:round;stroke-width:6px"/><line x1="63.7" y1="45.5" x2="86.5" y2="68.3" style="fill:none;stroke:#000;stroke-linecap:round;stroke-linejoin:round;stroke-width:6px"/><rect x="120.4081" y="7.7144" width="17.9998" height="11.9999" transform="translate(28.2052 95.5221) rotate(-45)" style="fill:none;stroke:#000;stroke-linecap:round;stroke-linejoin:round;stroke-width:5.999942240425611px"/><polygon points="27 69 117 69 99 141 45 141 27 69" style="fill:none;stroke:#000;stroke-linecap:round;stroke-linejoin:round;stroke-width:6px"/><path d="M117,69a15,15,0,0,1,0,30h-7" style="fill:none;stroke:#000;stroke-linecap:round;stroke-linejoin:round;stroke-width:6px"/><path d="M27,69a15,15,0,0,0,0,30h7" style="fill:none;stroke:#000;stroke-linecap:round;stroke-linejoin:round;stroke-width:6px"/><rect width="144" height="144" style="fill:none"/></svg>