<svg xmlns="http://www.w3.org/2000/svg" viewBox="0 0 144 144"><path d="M40.6,46.2A34.031,34.031,0,0,1,39,36a33,33,0,0,1,66,0,34.031,34.031,0,0,1-1.6,10.2" style="fill:none;stroke:#000;stroke-linecap:round;stroke-linejoin:round;stroke-width:6px"/><path d="M102,45H42L18,66s18,3,33,0S72,54,72,54s6,9,21,12,33,0,33,0Z" style="fill:none;stroke:#000;stroke-linecap:round;stroke-linejoin:round;stroke-width:6px"/><path d="M45.1,67.3S45,75,51,84,72,99,72,99s17.7-7.6,23.9-15.8S102,67.1,102,67.1" style="fill:none;stroke:#000;stroke-linecap:round;stroke-linejoin:round;stroke-width:6px"/><path d="M63,63s3,6,9,6,9-6,9-6" style="fill:none;stroke:#000;stroke-linecap:round;stroke-linejoin:round;stroke-width:6px"/><line x1="60" y1="27" x2="60" y2="33" style="fill:none;stroke:#000;stroke-linecap:round;stroke-linejoin:round;stroke-width:6px"/><line x1="84" y1="27" x2="84" y2="33" style="fill:none;stroke:#000;stroke-linecap:round;stroke-linejoin:round;stroke-width:6px"/><path d="M45,72s-6,0-12,6S3,105,3,105l24,27L48,99l-9,42h66L96,99l21,33,24-27s-24-21-30-27-9-6-9-6" style="fill:none;stroke:#000;stroke-linecap:round;stroke-linejoin:round;stroke-width:6px"/><path d="M9,114,3,126v9a6.0176,6.0176,0,0,0,6,6,6.0919,6.0919,0,0,0,5.2-3L21,126" style="fill:none;stroke:#000;stroke-linecap:round;stroke-linejoin:round;stroke-width:6px"/><path d="M135,114l6,12v9a6.0176,6.0176,0,0,1-6,6,6.0919,6.0919,0,0,1-5.2-3L123,126" style="fill:none;stroke:#000;stroke-linecap:round;stroke-linejoin:round;stroke-width:6px"/><rect width="144" height="144" style="fill:none"/></svg>