<svg xmlns="http://www.w3.org/2000/svg" viewBox="0 0 144 144"><path d="M27.4,87C24,92.2,24,99,24,99H36.7c.8,6,2.1,6.4,4,9.7-8.8,10,2.4,20.8,2.4,20.8l9-9.2c3.1,2.1,7.5,3.5,11.2,4.6C64.2,138.1,81,138,81,138V125.3c6-.8,6.4-2.2,9.7-4,10,8.8,20.8-2.4,20.8-2.4l-9.2-9c2.1-3.1,3.5-7.5,4.6-11.2,7.9-.5,11.1-6.7,12.4-11.6" style="fill:none;stroke:#000;stroke-linejoin:round;stroke-width:6px"/><circle cx="72" cy="90" r="15" style="fill:none;stroke:#000;stroke-linejoin:round;stroke-width:6px"/><path d="M39,87A32.592,32.592,0,0,1,72,54a32.592,32.592,0,0,1,33,33h30c0-36-28.2-63-63-63S9,51,9,87Z" style="fill:none;stroke:#000;stroke-linejoin:round;stroke-width:6px"/><path d="M27,42V12A9,9,0,0,0,9,12V84" style="fill:none;stroke:#000;stroke-linejoin:round;stroke-width:6px"/><line x1="9" y1="21" x2="27" y2="21" style="fill:none;stroke:#000;stroke-linecap:round;stroke-linejoin:round;stroke-width:6px"/><line x1="9" y1="39" x2="27" y2="39" style="fill:none;stroke:#000;stroke-linecap:round;stroke-linejoin:round;stroke-width:6px"/><rect width="144" height="144" style="fill:none"/></svg>