<svg xmlns="http://www.w3.org/2000/svg" viewBox="0 0 144 144"><circle cx="48" cy="54" r="21" style="fill:none;stroke:#000;stroke-linejoin:round;stroke-width:6px"/><circle cx="48" cy="54" r="9" style="fill:none;stroke:#000;stroke-linejoin:round;stroke-width:6px"/><circle cx="66" cy="96" r="9" style="fill:none;stroke:#000;stroke-linejoin:round;stroke-width:6px"/><circle cx="24" cy="96" r="9" style="fill:none;stroke:#000;stroke-linejoin:round;stroke-width:6px"/><path d="M48,33h54a21,21,0,0,1,0,42H48" style="fill:none;stroke:#000;stroke-linejoin:round;stroke-width:6px"/><circle cx="66" cy="96" r="21" style="fill:none;stroke:#000;stroke-linejoin:round;stroke-width:6px"/><path d="M66,75h54a21,21,0,0,1,0,42H66" style="fill:none;stroke:#000;stroke-linejoin:round;stroke-width:6px"/><circle cx="24" cy="96" r="21" style="fill:none;stroke:#000;stroke-linejoin:round;stroke-width:6px"/><line x1="66" y1="117" x2="24" y2="117" style="fill:none;stroke:#000;stroke-linejoin:round;stroke-width:6px"/><line x1="24" y1="75" x2="66" y2="75" style="fill:none;stroke:#000;stroke-linejoin:round;stroke-width:6px"/><line x1="81" y1="45" x2="99" y2="45" style="fill:none;stroke:#000;stroke-linecap:round;stroke-linejoin:round;stroke-width:6px"/><line x1="99" y1="57" x2="105" y2="57" style="fill:none;stroke:#000;stroke-linecap:round;stroke-linejoin:round;stroke-width:6px"/><line x1="99" y1="87" x2="105" y2="87" style="fill:none;stroke:#000;stroke-linecap:round;stroke-linejoin:round;stroke-width:6px"/><line x1="117" y1="87" x2="123" y2="87" style="fill:none;stroke:#000;stroke-linecap:round;stroke-linejoin:round;stroke-width:6px"/><line x1="111" y1="99" x2="129" y2="99" style="fill:none;stroke:#000;stroke-linecap:round;stroke-linejoin:round;stroke-width:6px"/><line x1="96" y1="105" x2="102" y2="105" style="fill:none;stroke:#000;stroke-linecap:round;stroke-linejoin:round;stroke-width:6px"/><line x1="81" y1="63" x2="87" y2="63" style="fill:none;stroke:#000;stroke-linecap:round;stroke-linejoin:round;stroke-width:6px"/><rect width="144" height="144" style="fill:none"/></svg>