<svg xmlns="http://www.w3.org/2000/svg" viewBox="0 0 144 144"><path d="M140,83.8a69.1041,69.1041,0,1,1-11.2-50.9" style="fill:none;stroke:#000;stroke-linecap:round;stroke-linejoin:round;stroke-width:6px"/><polyline points="88.8 5.1 60.6 21 66.1 30.8 54.1 51 24.1 60 36.1 99 69.1 111 69.1 126" style="fill:none;stroke:#000;stroke-linecap:round;stroke-linejoin:round;stroke-width:6px"/><line x1="123" y1="25.5" x2="111.1" y2="39" style="fill:none;stroke:#000;stroke-linecap:round;stroke-linejoin:round;stroke-width:6px"/><path d="M70.3,74.3,54.4,67.2l-12,6.9L69.8,91.8,97,81,85.4,111,99,103.9l16.6-30.4,20.7-9.1a7.69,7.69,0,0,0-5.9-14.2Z" style="fill:none;stroke:#000;stroke-linecap:round;stroke-linejoin:round;stroke-width:6px"/><polyline points="108.4 59.1 84 43.8 71.8 50.1 94 64.8" style="fill:none;stroke:#000;stroke-linecap:round;stroke-linejoin:round;stroke-width:6px"/><rect width="144" height="144" style="fill:none"/></svg>