<svg xmlns="http://www.w3.org/2000/svg" viewBox="0 0 144 144"><circle cx="72" cy="72" r="39" style="fill:none;stroke:#000;stroke-linecap:round;stroke-linejoin:round;stroke-width:6px"/><path d="M100.8,45.7S99.1,55,92.3,58.4c-15.7-3.9-9.8,5-8.5,10.2,1.7,1.7,5.1,0,5.1,0,7.6,14.9-5.1,18.7-5.1,18.7-9.2,9.2-6.2,11.9-15.3,11.9-1.7,0-5.1-6.8-5.1-8.5,0-12.9-6.5-15.3-11.9-15.3-5.1,0-5.1-6.8-5.1-6.8s0-11.9,8.5-13.6,8.5,1.7,8.5,1.7c3.5,3.5,15.9-3.4,4.6-12.2-4.2-3.3,15.3-9.8,15.3-9.8" style="fill:none;stroke:#000;stroke-linecap:round;stroke-linejoin:round;stroke-width:6px"/><polyline points="128.8 23.1 105.2 18.4 107.1 38.7" style="fill:none;stroke:#000;stroke-linecap:round;stroke-linejoin:round;stroke-width:6px"/><polyline points="12 120 38.8 125.6 36.7 105.4" style="fill:none;stroke:#000;stroke-linecap:round;stroke-linejoin:round;stroke-width:6px"/><path d="M105.2,18.4A63.0372,63.0372,0,0,1,72,135a65.4859,65.4859,0,0,1-13.4-1.4" style="fill:none;stroke:#000;stroke-linecap:round;stroke-linejoin:round;stroke-width:6px"/><path d="M38.8,125.6A63.0372,63.0372,0,0,1,72,9a64.5142,64.5142,0,0,1,13.3,1.4" style="fill:none;stroke:#000;stroke-linecap:round;stroke-linejoin:round;stroke-width:6px"/><rect width="144" height="144" style="fill:none"/></svg>