<svg xmlns="http://www.w3.org/2000/svg" viewBox="0 0 144 144"><path d="M82.9,105A12.0788,12.0788,0,0,1,71,91.2l5.4-36A12.2082,12.2082,0,0,1,88.3,45H117V75h24V93a12.0353,12.0353,0,0,1-12,12Z" style="fill:none;stroke:#000;stroke-linecap:round;stroke-linejoin:round;stroke-width:6px"/><path d="M141,129a12.0353,12.0353,0,0,1-12,12H75a12,12,0,0,1,0-24h54A12.0353,12.0353,0,0,1,141,129Z" style="fill:none;stroke:#000;stroke-linecap:round;stroke-linejoin:round;stroke-width:6px"/><path d="M87,72V63a6.0176,6.0176,0,0,1,6-6h9" style="fill:none;stroke:#000;stroke-linecap:round;stroke-linejoin:round;stroke-width:6px"/><circle cx="81" cy="129" r="3" style="fill:none;stroke:#000;stroke-linecap:round;stroke-linejoin:round;stroke-width:6px"/><circle cx="102" cy="129" r="3" style="fill:none;stroke:#000;stroke-linecap:round;stroke-linejoin:round;stroke-width:6px"/><circle cx="123" cy="129" r="3" style="fill:none;stroke:#000;stroke-linecap:round;stroke-linejoin:round;stroke-width:6px"/><line x1="21" y1="36" x2="21" y2="87" style="fill:none;stroke:#000;stroke-linecap:round;stroke-linejoin:round;stroke-width:6px"/><circle cx="21" cy="105" r="18" style="fill:none;stroke:#000;stroke-linecap:round;stroke-linejoin:round;stroke-width:6px"/><path d="M72,78,13,27.4a5.95,5.95,0,0,1,6.8-9.7L78,51" style="fill:none;stroke:#000;stroke-linecap:round;stroke-linejoin:round;stroke-width:6px"/><rect width="144" height="144" style="fill:none"/></svg>