<svg xmlns="http://www.w3.org/2000/svg" viewBox="0 0 144.0028 144.0028"><path d="M107.6,49.1A23.9755,23.9755,0,0,0,133.9,44,23.3067,23.3067,0,0,0,139,18.1L127.6,30H114V16.4L125.9,4.9A23.6563,23.6563,0,0,0,99.8,10a23.942,23.942,0,0,0-5,26.3L36.4,94.9A23.9755,23.9755,0,0,0,10.1,100,23.3067,23.3067,0,0,0,5,125.9L16.4,114H30v13.6L18.1,139.1A23.6563,23.6563,0,0,0,44.2,134a23.942,23.942,0,0,0,5-26.3Z" transform="translate(0.0014 0.0014)" style="fill:none;stroke:#000;stroke-linejoin:round;stroke-width:6px"/><path d="M72,84.8l22.9,22.9A23.9755,23.9755,0,0,0,100,134a23.3067,23.3067,0,0,0,25.9,5.1L114,127.6V114h13.6l11.5,11.9A23.6563,23.6563,0,0,0,134,99.8a23.942,23.942,0,0,0-26.3-5L84.8,72" transform="translate(0.0014 0.0014)" style="fill:none;stroke:#000;stroke-linejoin:round;stroke-width:6px"/><path d="M72,59.2,49.1,36.4A23.9755,23.9755,0,0,0,44,10.1,23.3067,23.3067,0,0,0,18.1,5L30,16.4V30H16.4L4.9,18.1A23.6563,23.6563,0,0,0,10,44.2a23.942,23.942,0,0,0,26.3,5L59.2,72" transform="translate(0.0014 0.0014)" style="fill:none;stroke:#000;stroke-linejoin:round;stroke-width:6px"/><rect x="0.0014" y="0.0014" width="144" height="144" style="fill:none"/></svg>