<svg xmlns="http://www.w3.org/2000/svg" viewBox="0 0 144 144"><rect x="15" y="51" width="108" height="60" style="fill:none;stroke:#000;stroke-linejoin:round;stroke-width:6px"/><circle cx="69" cy="21" r="15" style="fill:none;stroke:#000;stroke-linejoin:round;stroke-width:6px"/><polyline points="48 111 54 141 69 141 84 141 90 111" style="fill:none;stroke:#000;stroke-linejoin:round;stroke-width:6px"/><polyline points="108 51 102 39 36 39 30 51" style="fill:none;stroke:#000;stroke-linejoin:round;stroke-width:6px"/><line x1="69" y1="63" x2="69" y2="99" style="fill:none;stroke:#000;stroke-linecap:round;stroke-linejoin:round;stroke-width:6px"/><path d="M69,63H58.6a24.2863,24.2863,0,0,0-8.9,1.7L39,69" style="fill:none;stroke:#000;stroke-linecap:round;stroke-linejoin:round;stroke-width:6px"/><path d="M69,81H64.5a25.771,25.771,0,0,0-8.7,1.6L43.7,87.3" style="fill:none;stroke:#000;stroke-linecap:round;stroke-linejoin:round;stroke-width:6px"/><path d="M69,63H79.4a24.2863,24.2863,0,0,1,8.9,1.7L99,69" style="fill:none;stroke:#000;stroke-linecap:round;stroke-linejoin:round;stroke-width:6px"/><path d="M69,81h4.5a25.771,25.771,0,0,1,8.7,1.6l12.1,4.7" style="fill:none;stroke:#000;stroke-linecap:round;stroke-linejoin:round;stroke-width:6px"/><line x1="57" y1="99" x2="81" y2="99" style="fill:none;stroke:#000;stroke-linecap:round;stroke-linejoin:round;stroke-width:6px"/><rect width="144" height="144" style="fill:none"/></svg>