<svg xmlns="http://www.w3.org/2000/svg" viewBox="0 0 144 144"><path d="M141,98.6a5.9771,5.9771,0,0,1-4.5,5.8l-126,32.9A5.9948,5.9948,0,0,1,3,131.5V9a5.9948,5.9948,0,0,1,7.5-5.8l126,32.9a6.0913,6.0913,0,0,1,4.5,5.8Z" style="fill:none;stroke:#000;stroke-linejoin:round;stroke-width:6px"/><line x1="39" y1="130.2" x2="39" y2="10.6" style="fill:none;stroke:#000;stroke-linejoin:round;stroke-width:6px"/><line x1="75" y1="120.5" x2="75" y2="100.2" style="fill:none;stroke:#000;stroke-linecap:round;stroke-linejoin:round;stroke-width:6px"/><line x1="75" y1="40.2" x2="75" y2="20" style="fill:none;stroke:#000;stroke-linecap:round;stroke-linejoin:round;stroke-width:6px"/><line x1="111" y1="111.1" x2="111" y2="29.4" style="fill:none;stroke:#000;stroke-linejoin:round;stroke-width:6px"/><line x1="84.3" y1="82.6" x2="140.7" y2="139.1" style="fill:none;stroke:#000;stroke-linecap:round;stroke-linejoin:round;stroke-width:6px"/><circle cx="71.6" cy="69.8" r="18" style="fill:none;stroke:#000;stroke-linejoin:round;stroke-width:6px"/><path d="M21,16.2a3,3,0,0,0,0,6,3,3,0,0,0,0-6Z" style="fill:#000"/><path d="M57,28.2a3,3,0,1,0,3,3,3.0085,3.0085,0,0,0-3-3Z" style="fill:#000"/><path d="M57,106.2a3,3,0,1,0,3,3,3.0085,3.0085,0,0,0-3-3Z" style="fill:#000"/><path d="M93,100.2a3,3,0,1,0,3,3,3.0085,3.0085,0,0,0-3-3Z" style="fill:#000"/><path d="M93,34.2a3,3,0,1,0,3,3,3.0085,3.0085,0,0,0-3-3Z" style="fill:#000"/><path d="M126,40.2a3,3,0,1,0,3,3,3.0085,3.0085,0,0,0-3-3Z" style="fill:#000"/><path d="M126,94.2a2.9465,2.9465,0,0,0-3,3,3,3,0,1,0,3-3Z" style="fill:#000"/><path d="M21,118.2a3,3,0,1,0,3,3,3.0085,3.0085,0,0,0-3-3Z" style="fill:#000"/><rect width="144" height="144" style="fill:none"/></svg>