<svg xmlns="http://www.w3.org/2000/svg" viewBox="0 0 144 144"><path d="M135.1,55c-9,3-18,3-24-3" style="fill:none;stroke:#000;stroke-linecap:round;stroke-linejoin:round;stroke-width:6px"/><line x1="102" y1="18" x2="102" y2="24" style="fill:none;stroke:#000;stroke-linecap:round;stroke-linejoin:round;stroke-width:6px"/><path d="M42.1,72c0,.5-.1,1-.1,1.5a19.5,19.5,0,0,0,39,0A18.605,18.605,0,0,0,79.5,66" style="fill:none;stroke:#000;stroke-linecap:round;stroke-linejoin:round;stroke-width:6px"/><path d="M60.1,141a3.0019,3.0019,0,0,1-2.9-2.3L48,117.2A42.0634,42.0634,0,0,1,26.8,99L3,66c12.1,4.3,22.5,6,36.1,6a114.8416,114.8416,0,0,0,45-9.1c-4.3-4.5-9-12.8-9-20.9,0-11.1,6-18,15-22.9V15a12,12,0,0,1,24,0v9h3a21,21,0,0,1,0,42c-3.2,0-9.3-.7-12-2" style="fill:none;stroke:#000;stroke-linecap:round;stroke-linejoin:round;stroke-width:6px"/><path d="M108.1,66c0,9-3.2,16.8-3.6,19.1l10.8,5.4a7.5017,7.5017,0,0,1-2.7,14.5,7.9563,7.9563,0,0,1-3.8-1l-9.3-4.9a42.2148,42.2148,0,0,1-21.2,18.1L72,126" style="fill:none;stroke:#000;stroke-linecap:round;stroke-linejoin:round;stroke-width:6px"/><path d="M72,126H84.1a8.9626,8.9626,0,0,1,9,9c0,5-4,6-9,6h-24" style="fill:none;stroke:#000;stroke-linecap:round;stroke-linejoin:round;stroke-width:6px"/><rect width="144" height="144" style="fill:none"/></svg>