<svg xmlns="http://www.w3.org/2000/svg" viewBox="0 0 144 144"><path d="M39,57,24,66s-6-3-3-9l6-12L15,51s-6-3,0-12,9-12,9-12L6,30S6,18,21,12,42.8,4.2,42.8,4.2A18.5294,18.5294,0,0,1,49.5,3,19.4611,19.4611,0,0,1,69,22.5L63,24l6,6-6,4.5a7.6766,7.6766,0,0,0-3,6A7.5546,7.5546,0,0,0,67.5,48,7.8328,7.8328,0,0,0,72,46.5S102,30,111,24s18-6,24,0,3,12,3,12l-15,3-6,12s-6-12-18-6S72,63,72,63s0,3,3,12,9,6,18,3,21-6,27-9,15-12,15-12V81L81,99c-9,3-18,12-18,12L45,129l9,12H39c-6,0-15-12-15-12s24-27,27-30,0-12,0-12Z" style="fill:none;stroke:#000;stroke-linecap:round;stroke-linejoin:round;stroke-width:6px"/><line x1="39" y1="18" x2="48" y2="27" style="fill:none;stroke:#000;stroke-linecap:round;stroke-linejoin:round;stroke-width:6px"/><line x1="39" y1="27" x2="48" y2="18" style="fill:none;stroke:#000;stroke-linecap:round;stroke-linejoin:round;stroke-width:6px"/><line x1="93" y1="108" x2="93" y2="114" style="fill:none;stroke:#000;stroke-linecap:round;stroke-linejoin:round;stroke-width:6px"/><line x1="126" y1="99" x2="126" y2="105" style="fill:none;stroke:#000;stroke-linecap:round;stroke-linejoin:round;stroke-width:6px"/><path d="M21,72s-6,9-6,12,6,9,6,9,6-6,6-9S21,72,21,72Z" style="fill:none;stroke:#000;stroke-linecap:round;stroke-linejoin:round;stroke-width:6px"/><path d="M114,114s-6,9-6,12,6,9,6,9,6-6,6-9S114,114,114,114Z" style="fill:none;stroke:#000;stroke-linecap:round;stroke-linejoin:round;stroke-width:6px"/><rect width="144" height="144" style="fill:none"/></svg>