<svg xmlns="http://www.w3.org/2000/svg" viewBox="0 0 144.0341 144"><path d="M134.9,134l5.9-53.7A21.0262,21.0262,0,1,0,99,75.7l-5.9,53.7" transform="translate(0.0341)" style="fill:none;stroke:#000;stroke-linecap:round;stroke-linejoin:round;stroke-width:6px"/><path d="M111.1,77A9,9,0,0,1,129,78.9l-1,8.9-17.9-2Z" transform="translate(0.0341)" style="fill:none;stroke:#000;stroke-linecap:round;stroke-linejoin:round;stroke-width:6px"/><path d="M9.1,134l-6-53.7a21.0262,21.0262,0,1,1,41.8-4.6l5.9,53.7" transform="translate(0.0341)" style="fill:none;stroke:#000;stroke-linecap:round;stroke-linejoin:round;stroke-width:6px"/><path d="M32.9,77A9,9,0,0,0,15,78.9l1,8.9,17.9-2Z" transform="translate(0.0341)" style="fill:none;stroke:#000;stroke-linecap:round;stroke-linejoin:round;stroke-width:6px"/><path d="M78.1,24c20.2,1.9,40.3,10.3,48.5,21.1" transform="translate(0.0341)" style="fill:none;stroke:#000;stroke-linecap:round;stroke-linejoin:round;stroke-width:6px"/><path d="M17.4,45c8.3-10.9,28.1-19.2,48.4-21" transform="translate(0.0341)" style="fill:none;stroke:#000;stroke-linecap:round;stroke-linejoin:round;stroke-width:6px"/><polyline points="57.034 15 66.034 24 60.034 36" style="fill:none;stroke:#000;stroke-linecap:round;stroke-linejoin:round;stroke-width:6px"/><polyline points="87.034 15 78.034 24 84.034 36" style="fill:none;stroke:#000;stroke-linecap:round;stroke-linejoin:round;stroke-width:6px"/><rect x="0.0341" width="144" height="144" style="fill:none"/></svg>