<svg xmlns="http://www.w3.org/2000/svg" viewBox="0 0 144 144"><path d="M51,77a9.0058,9.0058,0,0,0-17.9,2l1,8.9,17.9-2Z" style="fill:none;stroke:#000;stroke-linecap:round;stroke-linejoin:round;stroke-width:6px"/><path d="M116.9,134l5.9-53.7A21.0262,21.0262,0,1,0,81,75.7l-5.9,53.7-6.2-.1L62.8,75.6a20.982,20.982,0,0,0-41.7,4.7L27.2,134" style="fill:none;stroke:#000;stroke-linecap:round;stroke-linejoin:round;stroke-width:6px"/><path d="M93.1,77A9,9,0,0,1,111,78.9l-1,8.9-17.9-2Z" style="fill:none;stroke:#000;stroke-linecap:round;stroke-linejoin:round;stroke-width:6px"/><path d="M96,24c20.2,1.9,36.8,10.2,45,21" style="fill:none;stroke:#000;stroke-linecap:round;stroke-linejoin:round;stroke-width:6px"/><path d="M3,45c8.3-10.9,24.7-19.2,45-21" style="fill:none;stroke:#000;stroke-linecap:round;stroke-linejoin:round;stroke-width:6px"/><polyline points="126 45 141 45 141 30" style="fill:none;stroke:#000;stroke-linecap:round;stroke-linejoin:round;stroke-width:6px"/><polyline points="18 45 3 45 3 30" style="fill:none;stroke:#000;stroke-linecap:round;stroke-linejoin:round;stroke-width:6px"/><rect width="144" height="144" style="fill:none"/></svg>