<?xml version="1.0" encoding="UTF-8"?>
<svg version="1.1" xmlns="http://www.w3.org/2000/svg" width="512" height="512">
<!-- <path d="M0 0 C9.88381703 8.47217927 18.98460787 17.78637873 26.05126953 28.75830078 C29.77334059 27.51761043 30.182413 26.36885197 32.30126953 23.13330078 C52.84871328 -5.79088877 85.55567017 -22.85119903 119.64892578 -29.99560547 C154.9849922 -35.69240084 192.99125072 -28.24025414 222.35253906 -7.46875 C253.94573358 15.3520887 275.52251228 47.09992158 282.16064453 85.85986328 C283.23316705 93.18452372 283.43688016 100.42611213 283.42626953 107.82080078 C283.42495529 108.83468369 283.42495529 108.83468369 283.4236145 109.86904907 C283.25592013 149.30507895 264.72688732 185.11228263 241.05126953 215.75830078 C240.59365234 216.35868164 240.13603516 216.9590625 239.66455078 217.57763672 C234.24072381 224.69166186 228.63937552 231.51726298 222.53564453 238.06298828 C221.23772181 239.47111199 219.94414606 240.88458329 218.70532227 242.3449707 C213.0228855 249.03614526 206.78540101 255.17481085 200.57250977 261.36743164 C198.6183133 263.31626948 196.66951806 265.2703935 194.72119141 267.22509766 C188.66755455 273.28231094 182.60922538 279.24235932 176.05126953 284.75830078 C174.85901535 285.80272654 173.66891686 286.84961809 172.48095703 287.89892578 C165.33559864 294.16205521 158.07541844 300.20680175 150.56298828 306.02392578 C147.5761968 308.33746167 144.63557324 310.70321408 141.70166016 313.08325195 C120.55433914 330.19943513 98.11833458 345.87298066 75.14355469 360.4296875 C72.96513051 361.81299956 70.79507361 363.20882907 68.62548828 364.60595703 C59.56826943 370.41300074 50.39044972 375.99602119 41.11376953 381.44580078 C40.07663818 382.0585083 39.03950684 382.67121582 37.97094727 383.30249023 C36.99843018 383.8692749 36.02591309 384.43605957 35.02392578 385.02001953 C34.16033447 385.5249292 33.29674316 386.02983887 32.40698242 386.55004883 C30.21603249 387.67379338 28.48758469 388.44090578 26.05126953 388.75830078 C23.64853734 387.69863428 21.54393081 386.59590424 19.30126953 385.25830078 C18.61226562 384.85812744 17.92326172 384.4579541 17.21337891 384.0456543 C-19.76051847 362.34726313 -56.06030497 338.14672344 -89.16357422 310.85595703 C-92.83054248 307.83670999 -96.57012474 304.9185606 -100.32373047 302.00830078 C-106.10566386 297.50710889 -111.55369776 292.71794488 -116.94873047 287.75830078 C-118.27795427 286.58695413 -119.61111454 285.42005485 -120.94873047 284.25830078 C-128.44195283 277.71301619 -135.71453826 271.05545356 -142.70263672 263.96923828 C-144.46221475 262.23720147 -146.20401306 260.66062383 -148.13623047 259.13330078 C-151.14633293 256.59143648 -153.55861446 253.84514767 -156.10498047 250.85205078 C-157.92975134 248.77985335 -159.84061793 246.86595737 -161.82373047 244.94580078 C-165.71767438 241.10417473 -169.13396931 236.97891541 -172.55029297 232.71142578 C-174.57847045 230.21419097 -176.66466012 227.78717924 -178.78710938 225.37036133 C-206.89312756 193.08862094 -229.50629975 151.65154222 -229.26123047 108.07080078 C-229.25874298 107.36353851 -229.25625549 106.65627625 -229.25369263 105.92758179 C-229.19584963 95.29003 -228.87773673 85.05581536 -225.94873047 74.75830078 C-225.71766602 73.94393555 -225.48660156 73.12957031 -225.24853516 72.29052734 C-218.31646905 48.63430679 -207.19156967 28.39981834 -189.94873047 10.75830078 C-189.15982422 9.90751953 -188.37091797 9.05673828 -187.55810547 8.18017578 C-138.97986174 -42.97174974 -53.32530766 -43.71202225 0 0 Z " fill="#570ff0" transform="translate(228.94873046875,77.24169921875)"/> -->
<polygon points="256,50 314,200 466,200 340,300 394,466 256,366 118,466 172,300 46,200 198,200" fill="#e3ff59"/>
</svg>
